<svg width="500" height="470" viewBox="0 0 500 470" fill="none" xmlns="http://www.w3.org/2000/svg">
<g id="american-family-field-2001">
<g id="Infield">
<path d="M339.98 327.765C339.453 325.666 322.032 258.478 250.83 258.478C180.238 258.478 162.505 324.537 161.697 327.698C161.677 327.776 161.668 327.816 161.668 327.816L236.504 402.652C235.305 404.911 234.623 407.488 234.623 410.237C234.623 419.185 241.873 426.444 250.83 426.444C259.778 426.444 267.037 419.185 267.037 410.237C267.037 407.488 266.356 404.911 265.156 402.657L260.695 397.374C257.96 395.277 254.544 394.025 250.83 394.025C247.117 394.025 243.701 395.277 240.971 397.369L197.7 354.099C201.448 350.352 201.448 344.276 197.7 340.529C197.698 340.526 197.694 340.524 197.691 340.521L244.055 294.037C247.8 297.773 253.861 297.773 257.606 294.037L303.431 339.983C303.431 339.983 303.427 339.985 303.424 339.988C299.677 343.735 300.275 350.299 304.022 354.046L260.695 397.374L265.156 402.657L339.98 327.765Z" fill="#D2D2D2"/>
<path d="M259.91 345.706C259.91 350.72 255.845 354.786 250.83 354.786C245.815 354.786 241.75 350.72 241.75 345.706C241.75 340.691 245.815 336.625 250.83 336.625C255.845 336.625 259.91 340.691 259.91 345.706Z" fill="#D2D2D2"/>
</g>
<g id="Guides">
<g id="Home">
<circle id="Ellipse 1" cx="250.827" cy="410.42" r="16.0848" fill="#D2D2D2"/>
<circle id="Ellipse 1_2" cx="250.827" cy="410.42" r="1.62919" fill="black"/>
</g>
<g id="First">
<circle id="Ellipse 1_3" cx="311.125" cy="346.532" r="10.1878" fill="#D2D2D2"/>
<circle id="Ellipse 1_4" cx="311.125" cy="346.532" r="1.0319" fill="black"/>
</g>
<g id="Third">
<circle id="Ellipse 1_5" cx="190.34" cy="346.532" r="10.1878" fill="#D2D2D2"/>
<circle id="Ellipse 1_6" cx="190.34" cy="346.532" r="1.0319" fill="black"/>
</g>
<g id="Second">
<circle id="Ellipse 1_7" cx="250.827" cy="286.671" r="10.1878" fill="#D2D2D2"/>
<circle id="Ellipse 1_8" cx="250.827" cy="286.671" r="1.0319" fill="black"/>
</g>
<g id="Mound">
<circle id="Ellipse 1_9" cx="250.827" cy="345.929" r="9.08365" fill="#D2D2D2"/>
<circle id="Ellipse 1_10" cx="250.827" cy="345.929" r="0.920062" fill="black"/>
</g>
</g>
<path id="Foul Lines" d="M489.57 171.906L250.96 410.516L9.57184 169.128" fill="none" stroke="black" stroke-width="1.002"/>
<g id="Measurements">
<path id="400" d="M244.456 15.4699V14.0499H241.286V12.8799L244.266 8.36991H245.886V12.8099H246.726V14.0499H245.886V15.4699H244.456ZM242.626 12.8099H244.456V10.1599L242.626 12.8099ZM250.002 15.6299C248.402 15.6299 247.442 14.2199 247.442 11.9299C247.442 9.62991 248.402 8.20991 250.002 8.20991C251.602 8.20991 252.562 9.62991 252.562 11.9299C252.562 14.2199 251.602 15.6299 250.002 15.6299ZM248.902 11.9299C248.902 12.3599 248.932 12.7299 248.992 13.0399L250.682 9.84991C250.502 9.59991 250.272 9.46991 250.002 9.46991C249.312 9.46991 248.902 10.2899 248.902 11.9299ZM250.002 14.3699C250.692 14.3699 251.102 13.5599 251.102 11.9299C251.102 11.4999 251.072 11.1199 251.012 10.7999L249.322 13.9899C249.502 14.2399 249.732 14.3699 250.002 14.3699ZM255.998 15.6299C254.398 15.6299 253.438 14.2199 253.438 11.9299C253.438 9.62991 254.398 8.20991 255.998 8.20991C257.598 8.20991 258.558 9.62991 258.558 11.9299C258.558 14.2199 257.598 15.6299 255.998 15.6299ZM254.898 11.9299C254.898 12.3599 254.928 12.7299 254.988 13.0399L256.678 9.84991C256.498 9.59991 256.268 9.46991 255.998 9.46991C255.308 9.46991 254.898 10.2899 254.898 11.9299ZM255.998 14.3699C256.688 14.3699 257.098 13.5599 257.098 11.9299C257.098 11.4999 257.068 11.1199 257.008 10.7999L255.318 13.9899C255.498 14.2399 255.728 14.3699 255.998 14.3699Z" fill="black"/>
<path id="370" d="M91.2796 74.6599C89.6496 74.6599 88.8396 73.8299 88.7696 72.5399L90.2096 72.4699C90.2696 73.1599 90.7296 73.3999 91.3096 73.3999C91.9396 73.3999 92.4296 73.0999 92.4296 72.3999C92.4296 71.7199 91.9796 71.3599 91.2396 71.3599H90.7096V70.2299H91.2396C91.7996 70.2299 92.2096 69.9799 92.2096 69.3699C92.2096 68.7799 91.8596 68.4899 91.2996 68.4899C90.6796 68.4899 90.3796 68.7999 90.3196 69.2899L88.8796 69.2199C89.0196 68.0099 89.8496 67.2399 91.3096 67.2399C92.7696 67.2399 93.6696 67.9599 93.6696 69.1799C93.6696 69.9499 93.2696 70.4599 92.5196 70.6999C93.3896 70.9499 93.8896 71.5999 93.8896 72.4999C93.8896 73.8399 92.8796 74.6599 91.2796 74.6599ZM95.9957 74.4999C95.9957 72.3499 96.8957 70.3899 98.3657 68.6799H94.8657V67.3999H99.7857V68.6099C98.1557 70.4699 97.4857 72.0599 97.4857 74.4999H95.9957ZM103.322 74.6599C101.722 74.6599 100.762 73.2499 100.762 70.9599C100.762 68.6599 101.722 67.2399 103.322 67.2399C104.922 67.2399 105.882 68.6599 105.882 70.9599C105.882 73.2499 104.922 74.6599 103.322 74.6599ZM102.222 70.9599C102.222 71.3899 102.252 71.7599 102.312 72.0699L104.002 68.8799C103.822 68.6299 103.592 68.4999 103.322 68.4999C102.632 68.4999 102.222 69.3199 102.222 70.9599ZM103.322 73.3999C104.012 73.3999 104.422 72.5899 104.422 70.9599C104.422 70.5299 104.392 70.1499 104.332 69.8299L102.642 73.0199C102.822 73.2699 103.052 73.3999 103.322 73.3999Z" fill="black"/>
<path id="374" d="M403.191 74.6599C401.561 74.6599 400.751 73.8299 400.681 72.5399L402.121 72.4699C402.181 73.1599 402.641 73.3999 403.221 73.3999C403.851 73.3999 404.341 73.0999 404.341 72.3999C404.341 71.7199 403.891 71.3599 403.151 71.3599H402.621V70.2299H403.151C403.711 70.2299 404.121 69.9799 404.121 69.3699C404.121 68.7799 403.771 68.4899 403.211 68.4899C402.591 68.4899 402.291 68.7999 402.231 69.2899L400.791 69.2199C400.931 68.0099 401.761 67.2399 403.221 67.2399C404.681 67.2399 405.581 67.9599 405.581 69.1799C405.581 69.9499 405.181 70.4599 404.431 70.6999C405.301 70.9499 405.801 71.5999 405.801 72.4999C405.801 73.8399 404.791 74.6599 403.191 74.6599ZM407.907 74.4999C407.907 72.3499 408.807 70.3899 410.277 68.6799H406.777V67.3999H411.697V68.6099C410.067 70.4699 409.397 72.0599 409.397 74.4999H407.907ZM415.683 74.4999V73.0799H412.513V71.9099L415.493 67.3999H417.113V71.8399H417.953V73.0799H417.113V74.4999H415.683ZM413.853 71.8399H415.683V69.1899L413.853 71.8399Z" fill="black"/>
<path id="345" d="M464.306 174.908C462.676 174.908 461.866 174.078 461.796 172.788L463.236 172.718C463.296 173.408 463.756 173.648 464.336 173.648C464.966 173.648 465.456 173.348 465.456 172.648C465.456 171.968 465.006 171.608 464.266 171.608H463.736V170.478H464.266C464.826 170.478 465.236 170.228 465.236 169.618C465.236 169.028 464.886 168.738 464.326 168.738C463.706 168.738 463.406 169.048 463.346 169.538L461.906 169.468C462.046 168.258 462.876 167.488 464.336 167.488C465.796 167.488 466.696 168.208 466.696 169.428C466.696 170.198 466.296 170.708 465.546 170.948C466.416 171.198 466.916 171.848 466.916 172.748C466.916 174.088 465.906 174.908 464.306 174.908ZM470.802 174.748V173.328H467.632V172.158L470.612 167.648H472.232V172.088H473.072V173.328H472.232V174.748H470.802ZM468.972 172.088H470.802V169.438L468.972 172.088ZM476.338 174.908C474.838 174.908 473.928 174.018 473.828 172.848L475.288 172.768C475.378 173.348 475.728 173.648 476.338 173.648C476.998 173.648 477.408 173.228 477.408 172.418C477.408 171.628 476.988 171.168 476.348 171.168C475.908 171.168 475.538 171.428 475.398 171.788L473.928 171.718L474.348 167.648H478.538V168.928H475.518L475.338 170.458C475.668 170.178 476.108 170.018 476.588 170.018C477.998 170.018 478.868 171.038 478.868 172.428C478.868 173.898 477.868 174.908 476.338 174.908Z" fill="black"/>
<path id="344" d="M18.0387 169.408C16.4087 169.408 15.5987 168.578 15.5287 167.288L16.9687 167.218C17.0287 167.908 17.4887 168.148 18.0687 168.148C18.6987 168.148 19.1887 167.848 19.1887 167.148C19.1887 166.468 18.7387 166.108 17.9987 166.108H17.4687V164.978H17.9987C18.5587 164.978 18.9687 164.728 18.9687 164.118C18.9687 163.528 18.6187 163.238 18.0587 163.238C17.4387 163.238 17.1387 163.548 17.0787 164.038L15.6387 163.968C15.7787 162.758 16.6087 161.988 18.0687 161.988C19.5287 161.988 20.4287 162.708 20.4287 163.928C20.4287 164.698 20.0287 165.208 19.2787 165.448C20.1487 165.698 20.6487 166.348 20.6487 167.248C20.6487 168.588 19.6387 169.408 18.0387 169.408ZM24.5348 169.248V167.828H21.3648V166.658L24.3448 162.148H25.9648V166.588H26.8048V167.828H25.9648V169.248H24.5348ZM22.7048 166.588H24.5348V163.938L22.7048 166.588ZM30.5309 169.248V167.828H27.3609V166.658L30.3409 162.148H31.9609V166.588H32.8009V167.828H31.9609V169.248H30.5309ZM28.7009 166.588H30.5309V163.938L28.7009 166.588Z" fill="black"/>
</g>
<path id="field" d="M318.233 34.6255L303.083 19.476H198.581L169.312 46.2722L74.4832 93.4444L15.1948 151.117L7.29095 176.171L61.0747 230.761L124.869 345.528L208.881 444.61C230.847 470.516 270.813 470.517 292.78 444.61L376.796 345.528L413.426 257.119L494.373 176.171L428.801 116.025V102.233L394.658 72.8382L318.233 34.6255Z" fill="#12284B" fill-opacity="0.1" fill="none" stroke="#12284B" stroke-width="1.002"/>
</g>
</svg>
