<svg width="500" height="470" viewBox="0 0 500 470" fill="none" xmlns="http://www.w3.org/2000/svg">
<g id="angel-stadium-1999" clip-path="url(#clip0_59_388)">
<g id="Infield">
<path d="M339.98 327.765C339.453 325.666 322.032 258.478 250.83 258.478C180.238 258.478 162.505 324.537 161.697 327.698C161.677 327.776 161.668 327.816 161.668 327.816L236.504 402.652C235.305 404.911 234.623 407.488 234.623 410.237C234.623 419.185 241.873 426.444 250.83 426.444C259.778 426.444 267.037 419.185 267.037 410.237C267.037 407.488 266.356 404.911 265.157 402.657L260.695 397.374C257.96 395.277 254.544 394.025 250.83 394.025C247.117 394.025 243.701 395.277 240.971 397.369L197.7 354.099C201.448 350.352 201.448 344.276 197.7 340.529C197.698 340.526 197.694 340.524 197.691 340.521L244.055 294.037C247.8 297.773 253.861 297.773 257.606 294.037L303.431 339.983C303.431 339.983 303.427 339.985 303.424 339.988C299.677 343.735 300.275 350.299 304.022 354.046L260.695 397.374L265.157 402.657L339.98 327.765Z" fill="#D2D2D2"/>
<path d="M259.91 345.706C259.91 350.72 255.845 354.786 250.83 354.786C245.815 354.786 241.75 350.72 241.75 345.706C241.75 340.691 245.815 336.625 250.83 336.625C255.845 336.625 259.91 340.691 259.91 345.706Z" fill="#D2D2D2"/>
</g>
<g id="Guides">
<g id="Home">
<circle id="Ellipse 1" cx="250.827" cy="410.42" r="16.0848" fill="#D2D2D2"/>
<circle id="Ellipse 1_2" cx="250.827" cy="410.42" r="1.62919" fill="black"/>
</g>
<g id="First">
<circle id="Ellipse 1_3" cx="311.125" cy="346.532" r="10.1878" fill="#D2D2D2"/>
<circle id="Ellipse 1_4" cx="311.125" cy="346.532" r="1.0319" fill="black"/>
</g>
<g id="Third">
<circle id="Ellipse 1_5" cx="190.34" cy="346.532" r="10.1878" fill="#D2D2D2"/>
<circle id="Ellipse 1_6" cx="190.34" cy="346.532" r="1.0319" fill="black"/>
</g>
<g id="Second">
<circle id="Ellipse 1_7" cx="250.827" cy="286.671" r="10.1878" fill="#D2D2D2"/>
<circle id="Ellipse 1_8" cx="250.827" cy="286.671" r="1.0319" fill="black"/>
</g>
<g id="Mound">
<circle id="Ellipse 1_9" cx="250.827" cy="345.929" r="9.08365" fill="#D2D2D2"/>
<circle id="Ellipse 1_10" cx="250.827" cy="345.929" r="0.920062" fill="black"/>
</g>
</g>
<path id="Foul Lines" d="M484.528 176.964L250.976 410.516L16.0828 175.623" fill="none" stroke="black" stroke-width="1.002"/>
<g id="Measurements">
<path id="400" d="M260.456 8.46997V7.04997H257.286V5.87997L260.266 1.36997H261.886V5.80997H262.726V7.04997H261.886V8.46997H260.456ZM258.626 5.80997H260.456V3.15997L258.626 5.80997ZM266.002 8.62997C264.402 8.62997 263.442 7.21997 263.442 4.92997C263.442 2.62997 264.402 1.20997 266.002 1.20997C267.602 1.20997 268.562 2.62997 268.562 4.92997C268.562 7.21997 267.602 8.62997 266.002 8.62997ZM264.902 4.92997C264.902 5.35997 264.932 5.72997 264.992 6.03997L266.682 2.84997C266.502 2.59997 266.272 2.46997 266.002 2.46997C265.312 2.46997 264.902 3.28997 264.902 4.92997ZM266.002 7.36997C266.692 7.36997 267.102 6.55997 267.102 4.92997C267.102 4.49997 267.072 4.11997 267.012 3.79997L265.322 6.98997C265.502 7.23997 265.732 7.36997 266.002 7.36997ZM271.998 8.62997C270.398 8.62997 269.438 7.21997 269.438 4.92997C269.438 2.62997 270.398 1.20997 271.998 1.20997C273.598 1.20997 274.558 2.62997 274.558 4.92997C274.558 7.21997 273.598 8.62997 271.998 8.62997ZM270.898 4.92997C270.898 5.35997 270.928 5.72997 270.988 6.03997L272.678 2.84997C272.498 2.59997 272.268 2.46997 271.998 2.46997C271.308 2.46997 270.898 3.28997 270.898 4.92997ZM271.998 7.36997C272.688 7.36997 273.098 6.55997 273.098 4.92997C273.098 4.49997 273.068 4.11997 273.008 3.79997L271.318 6.98997C271.498 7.23997 271.728 7.36997 271.998 7.36997Z" fill="black"/>
<path id="387" d="M80.9375 58.66C79.3075 58.66 78.4975 57.83 78.4275 56.54L79.8675 56.47C79.9275 57.16 80.3875 57.4 80.9675 57.4C81.5975 57.4 82.0875 57.1 82.0875 56.4C82.0875 55.72 81.6375 55.36 80.8975 55.36H80.3675V54.23H80.8975C81.4575 54.23 81.8675 53.98 81.8675 53.37C81.8675 52.78 81.5175 52.49 80.9575 52.49C80.3375 52.49 80.0375 52.8 79.9775 53.29L78.5375 53.22C78.6775 52.01 79.5075 51.24 80.9675 51.24C82.4275 51.24 83.3275 51.96 83.3275 53.18C83.3275 53.95 82.9275 54.46 82.1775 54.7C83.0475 54.95 83.5475 55.6 83.5475 56.5C83.5475 57.84 82.5375 58.66 80.9375 58.66ZM86.9836 58.66C85.4136 58.66 84.3636 57.94 84.3636 56.56C84.3636 55.63 84.9036 54.97 85.7736 54.69C85.1036 54.43 84.6536 53.94 84.6536 53.2C84.6536 52.06 85.5836 51.24 86.9836 51.24C88.3836 51.24 89.3136 52.06 89.3136 53.2C89.3136 53.94 88.8636 54.43 88.1836 54.69C89.0636 54.97 89.6036 55.63 89.6036 56.56C89.6036 57.94 88.5536 58.66 86.9836 58.66ZM86.9836 54.12C87.4936 54.12 87.8436 53.85 87.8436 53.29C87.8436 52.79 87.5036 52.5 86.9836 52.5C86.4636 52.5 86.1236 52.79 86.1236 53.29C86.1236 53.85 86.4736 54.12 86.9836 54.12ZM86.9836 57.4C87.6236 57.4 88.1436 57.12 88.1436 56.42C88.1436 55.75 87.7136 55.33 86.9836 55.33C86.2536 55.33 85.8236 55.75 85.8236 56.42C85.8236 57.12 86.3436 57.4 86.9836 57.4ZM91.6497 58.5C91.6497 56.35 92.5497 54.39 94.0197 52.68H90.5197V51.4H95.4397V52.61C93.8097 54.47 93.1397 56.06 93.1397 58.5H91.6497Z" fill="black"/>
<path id="370" d="M373.153 64.66C371.523 64.66 370.713 63.83 370.643 62.54L372.083 62.47C372.143 63.16 372.603 63.4 373.183 63.4C373.813 63.4 374.303 63.1 374.303 62.4C374.303 61.72 373.853 61.36 373.113 61.36H372.583V60.23H373.113C373.673 60.23 374.083 59.98 374.083 59.37C374.083 58.78 373.733 58.49 373.173 58.49C372.553 58.49 372.253 58.8 372.193 59.29L370.753 59.22C370.893 58.01 371.723 57.24 373.183 57.24C374.643 57.24 375.543 57.96 375.543 59.18C375.543 59.95 375.143 60.46 374.393 60.7C375.263 60.95 375.763 61.6 375.763 62.5C375.763 63.84 374.753 64.66 373.153 64.66ZM377.869 64.5C377.869 62.35 378.769 60.39 380.239 58.68H376.739V57.4H381.659V58.61C380.029 60.47 379.359 62.06 379.359 64.5H377.869ZM385.195 64.66C383.595 64.66 382.635 63.25 382.635 60.96C382.635 58.66 383.595 57.24 385.195 57.24C386.795 57.24 387.755 58.66 387.755 60.96C387.755 63.25 386.795 64.66 385.195 64.66ZM384.095 60.96C384.095 61.39 384.125 61.76 384.185 62.07L385.875 58.88C385.695 58.63 385.465 58.5 385.195 58.5C384.505 58.5 384.095 59.32 384.095 60.96ZM385.195 63.4C385.885 63.4 386.295 62.59 386.295 60.96C386.295 60.53 386.265 60.15 386.205 59.83L384.515 63.02C384.695 63.27 384.925 63.4 385.195 63.4Z" fill="black"/>
<path id="330" d="M463.47 173.284C461.84 173.284 461.03 172.454 460.96 171.164L462.4 171.094C462.46 171.784 462.92 172.024 463.5 172.024C464.13 172.024 464.62 171.724 464.62 171.024C464.62 170.344 464.17 169.984 463.43 169.984H462.9V168.854H463.43C463.99 168.854 464.4 168.604 464.4 167.994C464.4 167.404 464.05 167.114 463.49 167.114C462.87 167.114 462.57 167.424 462.51 167.914L461.07 167.844C461.21 166.634 462.04 165.864 463.5 165.864C464.96 165.864 465.86 166.584 465.86 167.804C465.86 168.574 465.46 169.084 464.71 169.324C465.58 169.574 466.08 170.224 466.08 171.124C466.08 172.464 465.07 173.284 463.47 173.284ZM469.466 173.284C467.836 173.284 467.026 172.454 466.956 171.164L468.396 171.094C468.456 171.784 468.916 172.024 469.496 172.024C470.126 172.024 470.616 171.724 470.616 171.024C470.616 170.344 470.166 169.984 469.426 169.984H468.896V168.854H469.426C469.986 168.854 470.396 168.604 470.396 167.994C470.396 167.404 470.046 167.114 469.486 167.114C468.866 167.114 468.566 167.424 468.506 167.914L467.066 167.844C467.206 166.634 468.036 165.864 469.496 165.864C470.956 165.864 471.856 166.584 471.856 167.804C471.856 168.574 471.456 169.084 470.706 169.324C471.576 169.574 472.076 170.224 472.076 171.124C472.076 172.464 471.066 173.284 469.466 173.284ZM475.512 173.284C473.912 173.284 472.952 171.874 472.952 169.584C472.952 167.284 473.912 165.864 475.512 165.864C477.112 165.864 478.072 167.284 478.072 169.584C478.072 171.874 477.112 173.284 475.512 173.284ZM474.412 169.584C474.412 170.014 474.442 170.384 474.502 170.694L476.192 167.504C476.012 167.254 475.782 167.124 475.512 167.124C474.822 167.124 474.412 167.944 474.412 169.584ZM475.512 172.024C476.202 172.024 476.612 171.214 476.612 169.584C476.612 169.154 476.582 168.774 476.522 168.454L474.832 171.644C475.012 171.894 475.242 172.024 475.512 172.024Z" fill="black"/>
<path id="330_2" d="M24.3685 173.284C22.7385 173.284 21.9285 172.454 21.8585 171.164L23.2985 171.094C23.3585 171.784 23.8185 172.024 24.3985 172.024C25.0285 172.024 25.5185 171.724 25.5185 171.024C25.5185 170.344 25.0685 169.984 24.3285 169.984H23.7985V168.854H24.3285C24.8885 168.854 25.2985 168.604 25.2985 167.994C25.2985 167.404 24.9485 167.114 24.3885 167.114C23.7685 167.114 23.4685 167.424 23.4085 167.914L21.9685 167.844C22.1085 166.634 22.9385 165.864 24.3985 165.864C25.8585 165.864 26.7585 166.584 26.7585 167.804C26.7585 168.574 26.3585 169.084 25.6085 169.324C26.4785 169.574 26.9785 170.224 26.9785 171.124C26.9785 172.464 25.9685 173.284 24.3685 173.284ZM30.3646 173.284C28.7346 173.284 27.9246 172.454 27.8546 171.164L29.2946 171.094C29.3546 171.784 29.8146 172.024 30.3946 172.024C31.0246 172.024 31.5146 171.724 31.5146 171.024C31.5146 170.344 31.0646 169.984 30.3246 169.984H29.7946V168.854H30.3246C30.8846 168.854 31.2946 168.604 31.2946 167.994C31.2946 167.404 30.9446 167.114 30.3846 167.114C29.7646 167.114 29.4646 167.424 29.4046 167.914L27.9646 167.844C28.1046 166.634 28.9346 165.864 30.3946 165.864C31.8546 165.864 32.7546 166.584 32.7546 167.804C32.7546 168.574 32.3546 169.084 31.6046 169.324C32.4746 169.574 32.9746 170.224 32.9746 171.124C32.9746 172.464 31.9646 173.284 30.3646 173.284ZM36.4106 173.284C34.8106 173.284 33.8506 171.874 33.8506 169.584C33.8506 167.284 34.8106 165.864 36.4106 165.864C38.0106 165.864 38.9706 167.284 38.9706 169.584C38.9706 171.874 38.0106 173.284 36.4106 173.284ZM35.3106 169.584C35.3106 170.014 35.3406 170.384 35.4006 170.694L37.0906 167.504C36.9106 167.254 36.6806 167.124 36.4106 167.124C35.7206 167.124 35.3106 167.944 35.3106 169.584ZM36.4106 172.024C37.1006 172.024 37.5106 171.214 37.5106 169.584C37.5106 169.154 37.4806 168.774 37.4206 168.454L35.7306 171.644C35.9106 171.894 36.1406 172.024 36.4106 172.024Z" fill="black"/>
</g>
<path id="field" d="M99.0092 58.4535L266.851 11.835L458.039 116.677C484.367 131.102 494.138 169.312 476.625 193.695L297.117 443.632C273.973 475.856 226.032 475.852 202.894 443.624L24.976 195.817C10.0981 175.095 12.4492 146.64 30.5264 128.641L99.0092 58.4535Z" fill="#BA0021" fill-opacity="0.1" fill="none" stroke="#BA0021" stroke-width="1.002"/>
</g>
<defs>
<clipPath id="clip0_59_388">
<rect width="500" height="469.94" fill="white"/>
</clipPath>
</defs>
</svg>
