<svg width="500" height="470" viewBox="0 0 500 470" fill="none" xmlns="http://www.w3.org/2000/svg">
<g id="angel-stadium-1980" clip-path="url(#clip0_59_356)">
<g id="Infield">
<path d="M339.98 327.765C339.453 325.666 322.032 258.478 250.83 258.478C180.238 258.478 162.505 324.537 161.697 327.698C161.677 327.776 161.668 327.816 161.668 327.816L236.504 402.652C235.305 404.911 234.623 407.488 234.623 410.237C234.623 419.185 241.873 426.444 250.83 426.444C259.778 426.444 267.037 419.185 267.037 410.237C267.037 407.488 266.356 404.911 265.156 402.657L260.695 397.374C257.96 395.277 254.544 394.025 250.83 394.025C247.117 394.025 243.701 395.277 240.971 397.369L197.7 354.099C201.448 350.352 201.448 344.276 197.7 340.529C197.698 340.526 197.694 340.524 197.691 340.521L244.055 294.037C247.8 297.773 253.861 297.773 257.606 294.037L303.431 339.983C303.431 339.983 303.427 339.985 303.424 339.988C299.677 343.735 300.275 350.299 304.022 354.046L260.695 397.374L265.156 402.657L339.98 327.765Z" fill="#D2D2D2"/>
<path d="M259.91 345.706C259.91 350.72 255.845 354.786 250.83 354.786C245.815 354.786 241.75 350.72 241.75 345.706C241.75 340.691 245.815 336.625 250.83 336.625C255.845 336.625 259.91 340.691 259.91 345.706Z" fill="#D2D2D2"/>
</g>
<g id="Guides">
<g id="Home">
<circle id="Ellipse 1" cx="250.827" cy="410.42" r="16.0848" fill="#D2D2D2"/>
<circle id="Ellipse 1_2" cx="250.827" cy="410.42" r="1.62919" fill="black"/>
</g>
<g id="First">
<circle id="Ellipse 1_3" cx="311.125" cy="346.532" r="10.1878" fill="#D2D2D2"/>
<circle id="Ellipse 1_4" cx="311.125" cy="346.532" r="1.0319" fill="black"/>
</g>
<g id="Third">
<circle id="Ellipse 1_5" cx="190.34" cy="346.532" r="10.1878" fill="#D2D2D2"/>
<circle id="Ellipse 1_6" cx="190.34" cy="346.532" r="1.0319" fill="black"/>
</g>
<g id="Second">
<circle id="Ellipse 1_7" cx="250.827" cy="286.671" r="10.1878" fill="#D2D2D2"/>
<circle id="Ellipse 1_8" cx="250.827" cy="286.671" r="1.0319" fill="black"/>
</g>
<g id="Mound">
<circle id="Ellipse 1_9" cx="250.827" cy="345.929" r="9.08365" fill="#D2D2D2"/>
<circle id="Ellipse 1_10" cx="250.827" cy="345.929" r="0.920062" fill="black"/>
</g>
</g>
<path id="Foul Lines" d="M483.528 177.964L250.976 410.516L18.0829 177.623" fill="none" stroke="black" stroke-width="1.002"/>
<g id="Measurements">
<path id="404" d="M245.316 7.46997V6.04997H242.146V4.87997L245.126 0.36997H246.746V4.80997H247.586V6.04997H246.746V7.46997H245.316ZM243.486 4.80997H245.316V2.15997L243.486 4.80997ZM250.863 7.62997C249.263 7.62997 248.303 6.21997 248.303 3.92997C248.303 1.62997 249.263 0.209971 250.863 0.209971C252.463 0.209971 253.423 1.62997 253.423 3.92997C253.423 6.21997 252.463 7.62997 250.863 7.62997ZM249.763 3.92997C249.763 4.35997 249.793 4.72997 249.853 5.03997L251.543 1.84997C251.363 1.59997 251.133 1.46997 250.863 1.46997C250.173 1.46997 249.763 2.28997 249.763 3.92997ZM250.863 6.36997C251.553 6.36997 251.963 5.55997 251.963 3.92997C251.963 3.49997 251.933 3.11997 251.873 2.79997L250.183 5.98997C250.363 6.23997 250.593 6.36997 250.863 6.36997ZM257.309 7.46997V6.04997H254.139V4.87997L257.119 0.36997H258.739V4.80997H259.579V6.04997H258.739V7.46997H257.309ZM255.479 4.80997H257.309V2.15997L255.479 4.80997Z" fill="black"/>
<path id="370" d="M99.0558 71.16C97.4258 71.16 96.6158 70.33 96.5458 69.04L97.9858 68.97C98.0458 69.66 98.5058 69.9 99.0858 69.9C99.7158 69.9 100.206 69.6 100.206 68.9C100.206 68.22 99.7558 67.86 99.0158 67.86H98.4858V66.73H99.0158C99.5758 66.73 99.9858 66.48 99.9858 65.87C99.9858 65.28 99.6358 64.99 99.0758 64.99C98.4558 64.99 98.1558 65.3 98.0958 65.79L96.6558 65.72C96.7958 64.51 97.6258 63.74 99.0858 63.74C100.546 63.74 101.446 64.46 101.446 65.68C101.446 66.45 101.046 66.96 100.296 67.2C101.166 67.45 101.666 68.1 101.666 69C101.666 70.34 100.656 71.16 99.0558 71.16ZM103.772 71C103.772 68.85 104.672 66.89 106.142 65.18H102.642V63.9H107.562V65.11C105.932 66.97 105.262 68.56 105.262 71H103.772ZM111.098 71.16C109.498 71.16 108.538 69.75 108.538 67.46C108.538 65.16 109.498 63.74 111.098 63.74C112.698 63.74 113.658 65.16 113.658 67.46C113.658 69.75 112.698 71.16 111.098 71.16ZM109.998 67.46C109.998 67.89 110.028 68.26 110.088 68.57L111.778 65.38C111.598 65.13 111.368 65 111.098 65C110.408 65 109.998 65.82 109.998 67.46ZM111.098 69.9C111.788 69.9 112.198 69.09 112.198 67.46C112.198 67.03 112.168 66.65 112.108 66.33L110.418 69.52C110.598 69.77 110.828 69.9 111.098 69.9Z" fill="black"/>
<path id="370_2" d="M388.841 71.16C387.211 71.16 386.401 70.33 386.331 69.04L387.771 68.97C387.831 69.66 388.291 69.9 388.871 69.9C389.501 69.9 389.991 69.6 389.991 68.9C389.991 68.22 389.541 67.86 388.801 67.86H388.271V66.73H388.801C389.361 66.73 389.771 66.48 389.771 65.87C389.771 65.28 389.421 64.99 388.861 64.99C388.241 64.99 387.941 65.3 387.881 65.79L386.441 65.72C386.581 64.51 387.411 63.74 388.871 63.74C390.331 63.74 391.231 64.46 391.231 65.68C391.231 66.45 390.831 66.96 390.081 67.2C390.951 67.45 391.451 68.1 391.451 69C391.451 70.34 390.441 71.16 388.841 71.16ZM393.557 71C393.557 68.85 394.457 66.89 395.927 65.18H392.427V63.9H397.347V65.11C395.717 66.97 395.047 68.56 395.047 71H393.557ZM400.883 71.16C399.283 71.16 398.323 69.75 398.323 67.46C398.323 65.16 399.283 63.74 400.883 63.74C402.483 63.74 403.443 65.16 403.443 67.46C403.443 69.75 402.483 71.16 400.883 71.16ZM399.783 67.46C399.783 67.89 399.813 68.26 399.873 68.57L401.563 65.38C401.383 65.13 401.153 65 400.883 65C400.193 65 399.783 65.82 399.783 67.46ZM400.883 69.9C401.573 69.9 401.983 69.09 401.983 67.46C401.983 67.03 401.953 66.65 401.893 66.33L400.203 69.52C400.383 69.77 400.613 69.9 400.883 69.9Z" fill="black"/>
<path id="333" d="M458.535 176.284C456.905 176.284 456.095 175.454 456.025 174.164L457.465 174.094C457.525 174.784 457.985 175.024 458.565 175.024C459.195 175.024 459.685 174.724 459.685 174.024C459.685 173.344 459.235 172.984 458.495 172.984H457.965V171.854H458.495C459.055 171.854 459.465 171.604 459.465 170.994C459.465 170.404 459.115 170.114 458.555 170.114C457.935 170.114 457.635 170.424 457.575 170.914L456.135 170.844C456.275 169.634 457.105 168.864 458.565 168.864C460.025 168.864 460.925 169.584 460.925 170.804C460.925 171.574 460.525 172.084 459.775 172.324C460.645 172.574 461.145 173.224 461.145 174.124C461.145 175.464 460.135 176.284 458.535 176.284ZM464.531 176.284C462.901 176.284 462.091 175.454 462.021 174.164L463.461 174.094C463.521 174.784 463.981 175.024 464.561 175.024C465.191 175.024 465.681 174.724 465.681 174.024C465.681 173.344 465.231 172.984 464.491 172.984H463.961V171.854H464.491C465.051 171.854 465.461 171.604 465.461 170.994C465.461 170.404 465.111 170.114 464.551 170.114C463.931 170.114 463.631 170.424 463.571 170.914L462.131 170.844C462.271 169.634 463.101 168.864 464.561 168.864C466.021 168.864 466.921 169.584 466.921 170.804C466.921 171.574 466.521 172.084 465.771 172.324C466.641 172.574 467.141 173.224 467.141 174.124C467.141 175.464 466.131 176.284 464.531 176.284ZM470.527 176.284C468.897 176.284 468.087 175.454 468.017 174.164L469.457 174.094C469.517 174.784 469.977 175.024 470.557 175.024C471.187 175.024 471.677 174.724 471.677 174.024C471.677 173.344 471.227 172.984 470.487 172.984H469.957V171.854H470.487C471.047 171.854 471.457 171.604 471.457 170.994C471.457 170.404 471.107 170.114 470.547 170.114C469.927 170.114 469.627 170.424 469.567 170.914L468.127 170.844C468.267 169.634 469.097 168.864 470.557 168.864C472.017 168.864 472.917 169.584 472.917 170.804C472.917 171.574 472.517 172.084 471.767 172.324C472.637 172.574 473.137 173.224 473.137 174.124C473.137 175.464 472.127 176.284 470.527 176.284Z" fill="black"/>
<path id="333_2" d="M31.0976 176.284C29.4676 176.284 28.6576 175.454 28.5876 174.164L30.0276 174.094C30.0876 174.784 30.5476 175.024 31.1276 175.024C31.7576 175.024 32.2476 174.724 32.2476 174.024C32.2476 173.344 31.7976 172.984 31.0576 172.984H30.5276V171.854H31.0576C31.6176 171.854 32.0276 171.604 32.0276 170.994C32.0276 170.404 31.6776 170.114 31.1176 170.114C30.4976 170.114 30.1976 170.424 30.1376 170.914L28.6976 170.844C28.8376 169.634 29.6676 168.864 31.1276 168.864C32.5876 168.864 33.4876 169.584 33.4876 170.804C33.4876 171.574 33.0876 172.084 32.3376 172.324C33.2076 172.574 33.7076 173.224 33.7076 174.124C33.7076 175.464 32.6976 176.284 31.0976 176.284ZM37.0937 176.284C35.4637 176.284 34.6537 175.454 34.5837 174.164L36.0237 174.094C36.0837 174.784 36.5437 175.024 37.1237 175.024C37.7537 175.024 38.2437 174.724 38.2437 174.024C38.2437 173.344 37.7937 172.984 37.0537 172.984H36.5237V171.854H37.0537C37.6137 171.854 38.0237 171.604 38.0237 170.994C38.0237 170.404 37.6737 170.114 37.1137 170.114C36.4937 170.114 36.1937 170.424 36.1337 170.914L34.6937 170.844C34.8337 169.634 35.6637 168.864 37.1237 168.864C38.5837 168.864 39.4837 169.584 39.4837 170.804C39.4837 171.574 39.0837 172.084 38.3337 172.324C39.2037 172.574 39.7037 173.224 39.7037 174.124C39.7037 175.464 38.6937 176.284 37.0937 176.284ZM43.0898 176.284C41.4598 176.284 40.6498 175.454 40.5798 174.164L42.0198 174.094C42.0798 174.784 42.5398 175.024 43.1198 175.024C43.7498 175.024 44.2398 174.724 44.2398 174.024C44.2398 173.344 43.7898 172.984 43.0498 172.984H42.5198V171.854H43.0498C43.6098 171.854 44.0198 171.604 44.0198 170.994C44.0198 170.404 43.6698 170.114 43.1098 170.114C42.4898 170.114 42.1898 170.424 42.1298 170.914L40.6898 170.844C40.8298 169.634 41.6598 168.864 43.1198 168.864C44.5798 168.864 45.4798 169.584 45.4798 170.804C45.4798 171.574 45.0798 172.084 44.3298 172.324C45.1998 172.574 45.6998 173.224 45.6998 174.124C45.6998 175.464 44.6898 176.284 43.0898 176.284Z" fill="black"/>
</g>
<path id="field" d="M27.3947 197.803L203.396 444.444C226.501 477.227 275.109 477.227 298.214 444.444L474.117 197.941C494.493 169.388 485.604 129.469 455.038 112.259L301.198 25.6406C269.437 7.75761 230.631 7.8075 198.916 25.7721L46.3419 112.196C15.8728 129.454 7.05419 169.299 27.3947 197.803Z" fill="#BA0021" fill-opacity="0.1" fill="none" stroke="#BA0021" stroke-width="1.002"/>
</g>
<defs>
<clipPath id="clip0_59_356">
<rect width="500" height="469.94" fill="white"/>
</clipPath>
</defs>
</svg>
