<svg width="500" height="470" viewBox="0 0 500 470" fill="none" xmlns="http://www.w3.org/2000/svg">
<g id="angel-stadium-1966" clip-path="url(#clip0_59_230)">
<g id="Infield">
<path d="M339.98 327.765C339.453 325.666 322.032 258.478 250.83 258.478C180.238 258.478 162.505 324.537 161.697 327.698C161.677 327.776 161.668 327.816 161.668 327.816L236.504 402.652C235.305 404.911 234.623 407.488 234.623 410.237C234.623 419.185 241.873 426.444 250.83 426.444C259.778 426.444 267.037 419.185 267.037 410.237C267.037 407.488 266.356 404.911 265.156 402.657L260.695 397.374C257.96 395.277 254.544 394.025 250.83 394.025C247.117 394.025 243.701 395.277 240.971 397.369L197.7 354.099C201.448 350.352 201.448 344.276 197.7 340.529C197.698 340.526 197.694 340.524 197.691 340.521L244.055 294.037C247.8 297.773 253.861 297.773 257.606 294.037L303.431 339.983C303.431 339.983 303.427 339.985 303.424 339.988C299.677 343.735 300.275 350.299 304.022 354.046L260.695 397.374L265.156 402.657L339.98 327.765Z" fill="#D2D2D2"/>
<path d="M259.91 345.706C259.91 350.72 255.845 354.786 250.83 354.786C245.815 354.786 241.75 350.72 241.75 345.706C241.75 340.691 245.815 336.625 250.83 336.625C255.845 336.625 259.91 340.691 259.91 345.706Z" fill="#D2D2D2"/>
</g>
<g id="Guides">
<g id="Home">
<circle id="Ellipse 1" cx="250.827" cy="410.42" r="16.0848" fill="#D2D2D2"/>
<circle id="Ellipse 1_2" cx="250.827" cy="410.42" r="1.62919" fill="black"/>
</g>
<g id="First">
<circle id="Ellipse 1_3" cx="311.125" cy="346.532" r="10.1878" fill="#D2D2D2"/>
<circle id="Ellipse 1_4" cx="311.125" cy="346.532" r="1.0319" fill="black"/>
</g>
<g id="Third">
<circle id="Ellipse 1_5" cx="190.34" cy="346.532" r="10.1878" fill="#D2D2D2"/>
<circle id="Ellipse 1_6" cx="190.34" cy="346.532" r="1.0319" fill="black"/>
</g>
<g id="Second">
<circle id="Ellipse 1_7" cx="250.827" cy="286.671" r="10.1878" fill="#D2D2D2"/>
<circle id="Ellipse 1_8" cx="250.827" cy="286.671" r="1.0319" fill="black"/>
</g>
<g id="Mound">
<circle id="Ellipse 1_9" cx="250.827" cy="345.929" r="9.08365" fill="#D2D2D2"/>
<circle id="Ellipse 1_10" cx="250.827" cy="345.929" r="0.920062" fill="black"/>
</g>
</g>
<path id="Foul Lines" d="M480.528 180.964L250.976 410.516L21.0828 180.623" fill="none" stroke="black" stroke-width="1.002"/>
<g id="Measurements">
<path id="406" d="M245.316 2.46997V1.04997H242.146V-0.120029L245.126 -4.63003H246.746V-0.190029H247.586V1.04997H246.746V2.46997H245.316ZM243.486 -0.190029H245.316V-2.84003L243.486 -0.190029ZM250.863 2.62997C249.263 2.62997 248.303 1.21997 248.303 -1.07003C248.303 -3.37003 249.263 -4.79003 250.863 -4.79003C252.463 -4.79003 253.423 -3.37003 253.423 -1.07003C253.423 1.21997 252.463 2.62997 250.863 2.62997ZM249.763 -1.07003C249.763 -0.640029 249.793 -0.270029 249.853 0.0399705L251.543 -3.15003C251.363 -3.40003 251.133 -3.53003 250.863 -3.53003C250.173 -3.53003 249.763 -2.71003 249.763 -1.07003ZM250.863 1.36997C251.553 1.36997 251.963 0.559971 251.963 -1.07003C251.963 -1.50003 251.933 -1.88003 251.873 -2.20003L250.183 0.989971C250.363 1.23997 250.593 1.36997 250.863 1.36997ZM256.879 2.62997C255.149 2.62997 254.239 1.45997 254.239 -0.600029C254.239 -2.95003 255.049 -4.79003 257.139 -4.79003C258.539 -4.79003 259.189 -4.03003 259.449 -3.01003L258.009 -2.91003C257.909 -3.27003 257.679 -3.53003 257.139 -3.53003C256.399 -3.53003 255.879 -3.02003 255.719 -1.80003C256.059 -2.10003 256.539 -2.32003 257.169 -2.32003C258.579 -2.32003 259.479 -1.37003 259.479 0.0599706C259.479 1.63997 258.449 2.62997 256.879 2.62997ZM256.849 1.34997C257.599 1.34997 258.019 0.909971 258.019 0.109971C258.019 -0.630029 257.639 -1.11003 256.909 -1.11003C256.169 -1.11003 255.699 -0.620029 255.699 0.119971C255.699 0.799971 256.119 1.34997 256.849 1.34997Z" fill="black"/>
<path id="375" d="M91.0558 71.16C89.4258 71.16 88.6158 70.33 88.5458 69.04L89.9858 68.97C90.0458 69.66 90.5058 69.9 91.0858 69.9C91.7158 69.9 92.2058 69.6 92.2058 68.9C92.2058 68.22 91.7558 67.86 91.0158 67.86H90.4858V66.73H91.0158C91.5758 66.73 91.9858 66.48 91.9858 65.87C91.9858 65.28 91.6358 64.99 91.0758 64.99C90.4558 64.99 90.1558 65.3 90.0958 65.79L88.6558 65.72C88.7958 64.51 89.6258 63.74 91.0858 63.74C92.5458 63.74 93.4458 64.46 93.4458 65.68C93.4458 66.45 93.0458 66.96 92.2958 67.2C93.1658 67.45 93.6658 68.1 93.6658 69C93.6658 70.34 92.6558 71.16 91.0558 71.16ZM95.7719 71C95.7719 68.85 96.6719 66.89 98.1419 65.18H94.6419V63.9H99.5619V65.11C97.9319 66.97 97.2619 68.56 97.2619 71H95.7719ZM103.088 71.16C101.588 71.16 100.678 70.27 100.578 69.1L102.038 69.02C102.128 69.6 102.478 69.9 103.088 69.9C103.748 69.9 104.158 69.48 104.158 68.67C104.158 67.88 103.738 67.42 103.098 67.42C102.658 67.42 102.288 67.68 102.148 68.04L100.678 67.97L101.098 63.9H105.288V65.18H102.268L102.088 66.71C102.418 66.43 102.858 66.27 103.338 66.27C104.748 66.27 105.618 67.29 105.618 68.68C105.618 70.15 104.618 71.16 103.088 71.16Z" fill="black"/>
<path id="375_2" d="M396.841 71.16C395.211 71.16 394.401 70.33 394.331 69.04L395.771 68.97C395.831 69.66 396.291 69.9 396.871 69.9C397.501 69.9 397.991 69.6 397.991 68.9C397.991 68.22 397.541 67.86 396.801 67.86H396.271V66.73H396.801C397.361 66.73 397.771 66.48 397.771 65.87C397.771 65.28 397.421 64.99 396.861 64.99C396.241 64.99 395.941 65.3 395.881 65.79L394.441 65.72C394.581 64.51 395.411 63.74 396.871 63.74C398.331 63.74 399.231 64.46 399.231 65.68C399.231 66.45 398.831 66.96 398.081 67.2C398.951 67.45 399.451 68.1 399.451 69C399.451 70.34 398.441 71.16 396.841 71.16ZM401.557 71C401.557 68.85 402.457 66.89 403.927 65.18H400.427V63.9H405.347V65.11C403.717 66.97 403.047 68.56 403.047 71H401.557ZM408.873 71.16C407.373 71.16 406.463 70.27 406.363 69.1L407.823 69.02C407.913 69.6 408.263 69.9 408.873 69.9C409.533 69.9 409.943 69.48 409.943 68.67C409.943 67.88 409.523 67.42 408.883 67.42C408.443 67.42 408.073 67.68 407.933 68.04L406.463 67.97L406.883 63.9H411.073V65.18H408.053L407.873 66.71C408.203 66.43 408.643 66.27 409.123 66.27C410.533 66.27 411.403 67.29 411.403 68.68C411.403 70.15 410.403 71.16 408.873 71.16Z" fill="black"/>
<path id="333" d="M458.535 176.284C456.905 176.284 456.095 175.454 456.025 174.164L457.465 174.094C457.525 174.784 457.985 175.024 458.565 175.024C459.195 175.024 459.685 174.724 459.685 174.024C459.685 173.344 459.235 172.984 458.495 172.984H457.965V171.854H458.495C459.055 171.854 459.465 171.604 459.465 170.994C459.465 170.404 459.115 170.114 458.555 170.114C457.935 170.114 457.635 170.424 457.575 170.914L456.135 170.844C456.275 169.634 457.105 168.864 458.565 168.864C460.025 168.864 460.925 169.584 460.925 170.804C460.925 171.574 460.525 172.084 459.775 172.324C460.645 172.574 461.145 173.224 461.145 174.124C461.145 175.464 460.135 176.284 458.535 176.284ZM464.531 176.284C462.901 176.284 462.091 175.454 462.021 174.164L463.461 174.094C463.521 174.784 463.981 175.024 464.561 175.024C465.191 175.024 465.681 174.724 465.681 174.024C465.681 173.344 465.231 172.984 464.491 172.984H463.961V171.854H464.491C465.051 171.854 465.461 171.604 465.461 170.994C465.461 170.404 465.111 170.114 464.551 170.114C463.931 170.114 463.631 170.424 463.571 170.914L462.131 170.844C462.271 169.634 463.101 168.864 464.561 168.864C466.021 168.864 466.921 169.584 466.921 170.804C466.921 171.574 466.521 172.084 465.771 172.324C466.641 172.574 467.141 173.224 467.141 174.124C467.141 175.464 466.131 176.284 464.531 176.284ZM470.527 176.284C468.897 176.284 468.087 175.454 468.017 174.164L469.457 174.094C469.517 174.784 469.977 175.024 470.557 175.024C471.187 175.024 471.677 174.724 471.677 174.024C471.677 173.344 471.227 172.984 470.487 172.984H469.957V171.854H470.487C471.047 171.854 471.457 171.604 471.457 170.994C471.457 170.404 471.107 170.114 470.547 170.114C469.927 170.114 469.627 170.424 469.567 170.914L468.127 170.844C468.267 169.634 469.097 168.864 470.557 168.864C472.017 168.864 472.917 169.584 472.917 170.804C472.917 171.574 472.517 172.084 471.767 172.324C472.637 172.574 473.137 173.224 473.137 174.124C473.137 175.464 472.127 176.284 470.527 176.284Z" fill="black"/>
<path id="333_2" d="M31.0976 176.284C29.4676 176.284 28.6576 175.454 28.5876 174.164L30.0276 174.094C30.0876 174.784 30.5476 175.024 31.1276 175.024C31.7576 175.024 32.2476 174.724 32.2476 174.024C32.2476 173.344 31.7976 172.984 31.0576 172.984H30.5276V171.854H31.0576C31.6176 171.854 32.0276 171.604 32.0276 170.994C32.0276 170.404 31.6776 170.114 31.1176 170.114C30.4976 170.114 30.1976 170.424 30.1376 170.914L28.6976 170.844C28.8376 169.634 29.6676 168.864 31.1276 168.864C32.5876 168.864 33.4876 169.584 33.4876 170.804C33.4876 171.574 33.0876 172.084 32.3376 172.324C33.2076 172.574 33.7076 173.224 33.7076 174.124C33.7076 175.464 32.6976 176.284 31.0976 176.284ZM37.0937 176.284C35.4637 176.284 34.6537 175.454 34.5837 174.164L36.0237 174.094C36.0837 174.784 36.5437 175.024 37.1237 175.024C37.7537 175.024 38.2437 174.724 38.2437 174.024C38.2437 173.344 37.7937 172.984 37.0537 172.984H36.5237V171.854H37.0537C37.6137 171.854 38.0237 171.604 38.0237 170.994C38.0237 170.404 37.6737 170.114 37.1137 170.114C36.4937 170.114 36.1937 170.424 36.1337 170.914L34.6937 170.844C34.8337 169.634 35.6637 168.864 37.1237 168.864C38.5837 168.864 39.4837 169.584 39.4837 170.804C39.4837 171.574 39.0837 172.084 38.3337 172.324C39.2037 172.574 39.7037 173.224 39.7037 174.124C39.7037 175.464 38.6937 176.284 37.0937 176.284ZM43.0898 176.284C41.4598 176.284 40.6498 175.454 40.5798 174.164L42.0198 174.094C42.0798 174.784 42.5398 175.024 43.1198 175.024C43.7498 175.024 44.2398 174.724 44.2398 174.024C44.2398 173.344 43.7898 172.984 43.0498 172.984H42.5198V171.854H43.0498C43.6098 171.854 44.0198 171.604 44.0198 170.994C44.0198 170.404 43.6698 170.114 43.1098 170.114C42.4898 170.114 42.1898 170.424 42.1298 170.914L40.6898 170.844C40.8298 169.634 41.6598 168.864 43.1198 168.864C44.5798 168.864 45.4798 169.584 45.4798 170.804C45.4798 171.574 45.0798 172.084 44.3298 172.324C45.1998 172.574 45.6998 173.224 45.6998 174.124C45.6998 175.464 44.6898 176.284 43.0898 176.284Z" fill="black"/>
</g>
<path id="field" d="M29.3444 197.481L203.396 444.444C226.501 477.227 275.109 477.227 298.214 444.444L472.266 197.481C491.89 169.636 483.923 131.004 454.882 113.196L312.451 22.6001C274.266 0.721197 227.345 0.721199 189.159 22.6001L46.7282 113.196C17.6878 131.004 9.72003 169.636 29.3444 197.481Z" fill="#BA0021" fill-opacity="0.1" fill="none" stroke="#BA0021" stroke-width="1.002"/>
</g>
<defs>
<clipPath id="clip0_59_230">
<rect width="500" height="469.94" fill="white"/>
</clipPath>
</defs>
</svg>
