<svg width="500" height="470" viewBox="0 0 500 470" fill="none" xmlns="http://www.w3.org/2000/svg">
<g id="angel-stadium-2014">
<g id="Infield">
<path d="M339.98 327.765C339.453 325.666 322.032 258.478 250.83 258.478C180.238 258.478 162.505 324.537 161.697 327.698C161.677 327.776 161.668 327.816 161.668 327.816L236.504 402.652C235.305 404.911 234.623 407.488 234.623 410.237C234.623 419.185 241.873 426.444 250.83 426.444C259.778 426.444 267.037 419.185 267.037 410.237C267.037 407.488 266.356 404.911 265.157 402.657L260.695 397.374C257.96 395.277 254.544 394.025 250.83 394.025C247.117 394.025 243.701 395.277 240.971 397.369L197.7 354.099C201.448 350.352 201.448 344.276 197.7 340.529C197.698 340.526 197.694 340.524 197.691 340.521L244.055 294.037C247.8 297.773 253.861 297.773 257.606 294.037L303.431 339.983C303.431 339.983 303.427 339.985 303.424 339.988C299.677 343.735 300.275 350.299 304.022 354.046L260.695 397.374L265.157 402.657L339.98 327.765Z" fill="#D2D2D2"/>
<path d="M259.91 345.706C259.91 350.72 255.845 354.786 250.83 354.786C245.815 354.786 241.75 350.72 241.75 345.706C241.75 340.691 245.815 336.625 250.83 336.625C255.845 336.625 259.91 340.691 259.91 345.706Z" fill="#D2D2D2"/>
</g>
<g id="Guides">
<g id="Home">
<circle id="Ellipse 1" cx="250.827" cy="410.42" r="16.0848" fill="#D2D2D2"/>
<circle id="Ellipse 1_2" cx="250.827" cy="410.42" r="1.62919" fill="black"/>
</g>
<g id="First">
<circle id="Ellipse 1_3" cx="311.125" cy="346.532" r="10.1878" fill="#D2D2D2"/>
<circle id="Ellipse 1_4" cx="311.125" cy="346.532" r="1.0319" fill="black"/>
</g>
<g id="Third">
<circle id="Ellipse 1_5" cx="190.34" cy="346.532" r="10.1878" fill="#D2D2D2"/>
<circle id="Ellipse 1_6" cx="190.34" cy="346.532" r="1.0319" fill="black"/>
</g>
<g id="Second">
<circle id="Ellipse 1_7" cx="250.827" cy="286.671" r="10.1878" fill="#D2D2D2"/>
<circle id="Ellipse 1_8" cx="250.827" cy="286.671" r="1.0319" fill="black"/>
</g>
<g id="Mound">
<circle id="Ellipse 1_9" cx="250.827" cy="345.929" r="9.08365" fill="#D2D2D2"/>
<circle id="Ellipse 1_10" cx="250.827" cy="345.929" r="0.920062" fill="black"/>
</g>
</g>
<path id="Foul Lines" d="M484.528 176.964L250.976 410.516L16.0829 175.623" fill="none" stroke="black" stroke-width="1.002"/>
<g id="Measurements">
<path id="396" d="M259.956 10.63C258.326 10.63 257.516 9.79997 257.446 8.50997L258.886 8.43997C258.946 9.12997 259.406 9.36997 259.986 9.36997C260.616 9.36997 261.106 9.06997 261.106 8.36997C261.106 7.68997 260.656 7.32997 259.916 7.32997H259.386V6.19997H259.916C260.476 6.19997 260.886 5.94997 260.886 5.33997C260.886 4.74997 260.536 4.45997 259.976 4.45997C259.356 4.45997 259.056 4.76997 258.996 5.25997L257.556 5.18997C257.696 3.97997 258.526 3.20997 259.986 3.20997C261.446 3.20997 262.346 3.92997 262.346 5.14997C262.346 5.91997 261.946 6.42997 261.196 6.66997C262.066 6.91997 262.566 7.56997 262.566 8.46997C262.566 9.80997 261.556 10.63 259.956 10.63ZM265.982 3.20997C267.712 3.20997 268.622 4.37997 268.622 6.43997C268.622 8.78997 267.812 10.63 265.722 10.63C264.322 10.63 263.672 9.86997 263.412 8.84997L264.852 8.74997C264.952 9.10997 265.182 9.36997 265.722 9.36997C266.462 9.36997 266.982 8.85997 267.142 7.63997C266.802 7.93997 266.322 8.15997 265.692 8.15997C264.282 8.15997 263.382 7.20997 263.382 5.77997C263.382 4.19997 264.412 3.20997 265.982 3.20997ZM266.012 4.48997C265.262 4.48997 264.842 4.92997 264.842 5.72997C264.842 6.46997 265.222 6.94997 265.952 6.94997C266.692 6.94997 267.162 6.45997 267.162 5.71997C267.162 5.03997 266.742 4.48997 266.012 4.48997ZM272.018 10.63C270.288 10.63 269.378 9.45997 269.378 7.39997C269.378 5.04997 270.188 3.20997 272.278 3.20997C273.678 3.20997 274.328 3.96997 274.588 4.98997L273.148 5.08997C273.048 4.72997 272.818 4.46997 272.278 4.46997C271.538 4.46997 271.018 4.97997 270.858 6.19997C271.198 5.89997 271.678 5.67997 272.308 5.67997C273.718 5.67997 274.618 6.62997 274.618 8.05997C274.618 9.63997 273.588 10.63 272.018 10.63ZM271.988 9.34997C272.738 9.34997 273.158 8.90997 273.158 8.10997C273.158 7.36997 272.778 6.88997 272.048 6.88997C271.308 6.88997 270.838 7.37997 270.838 8.11997C270.838 8.79997 271.258 9.34997 271.988 9.34997Z" fill="black"/>
<path id="390" d="M80.9375 58.66C79.3075 58.66 78.4975 57.83 78.4275 56.54L79.8675 56.47C79.9275 57.16 80.3875 57.4 80.9675 57.4C81.5975 57.4 82.0875 57.1 82.0875 56.4C82.0875 55.72 81.6375 55.36 80.8975 55.36H80.3675V54.23H80.8975C81.4575 54.23 81.8675 53.98 81.8675 53.37C81.8675 52.78 81.5175 52.49 80.9575 52.49C80.3375 52.49 80.0375 52.8 79.9775 53.29L78.5375 53.22C78.6775 52.01 79.5075 51.24 80.9675 51.24C82.4275 51.24 83.3275 51.96 83.3275 53.18C83.3275 53.95 82.9275 54.46 82.1775 54.7C83.0475 54.95 83.5475 55.6 83.5475 56.5C83.5475 57.84 82.5375 58.66 80.9375 58.66ZM86.9636 51.24C88.6936 51.24 89.6036 52.41 89.6036 54.47C89.6036 56.82 88.7936 58.66 86.7036 58.66C85.3036 58.66 84.6536 57.9 84.3936 56.88L85.8336 56.78C85.9336 57.14 86.1636 57.4 86.7036 57.4C87.4436 57.4 87.9636 56.89 88.1236 55.67C87.7836 55.97 87.3036 56.19 86.6736 56.19C85.2636 56.19 84.3636 55.24 84.3636 53.81C84.3636 52.23 85.3936 51.24 86.9636 51.24ZM86.9936 52.52C86.2436 52.52 85.8236 52.96 85.8236 53.76C85.8236 54.5 86.2036 54.98 86.9336 54.98C87.6736 54.98 88.1436 54.49 88.1436 53.75C88.1436 53.07 87.7236 52.52 86.9936 52.52ZM92.9797 58.66C91.3797 58.66 90.4197 57.25 90.4197 54.96C90.4197 52.66 91.3797 51.24 92.9797 51.24C94.5797 51.24 95.5397 52.66 95.5397 54.96C95.5397 57.25 94.5797 58.66 92.9797 58.66ZM91.8797 54.96C91.8797 55.39 91.9097 55.76 91.9697 56.07L93.6597 52.88C93.4797 52.63 93.2497 52.5 92.9797 52.5C92.2897 52.5 91.8797 53.32 91.8797 54.96ZM92.9797 57.4C93.6697 57.4 94.0797 56.59 94.0797 54.96C94.0797 54.53 94.0497 54.15 93.9897 53.83L92.2997 57.02C92.4797 57.27 92.7097 57.4 92.9797 57.4Z" fill="black"/>
<path id="370" d="M384.153 71.66C382.523 71.66 381.713 70.83 381.643 69.54L383.083 69.47C383.143 70.16 383.603 70.4 384.183 70.4C384.813 70.4 385.303 70.1 385.303 69.4C385.303 68.72 384.853 68.36 384.113 68.36H383.583V67.23H384.113C384.673 67.23 385.083 66.98 385.083 66.37C385.083 65.78 384.733 65.49 384.173 65.49C383.553 65.49 383.253 65.8 383.193 66.29L381.753 66.22C381.893 65.01 382.723 64.24 384.183 64.24C385.643 64.24 386.543 64.96 386.543 66.18C386.543 66.95 386.143 67.46 385.393 67.7C386.263 67.95 386.763 68.6 386.763 69.5C386.763 70.84 385.753 71.66 384.153 71.66ZM388.869 71.5C388.869 69.35 389.769 67.39 391.239 65.68H387.739V64.4H392.659V65.61C391.029 67.47 390.359 69.06 390.359 71.5H388.869ZM396.195 71.66C394.595 71.66 393.635 70.25 393.635 67.96C393.635 65.66 394.595 64.24 396.195 64.24C397.795 64.24 398.755 65.66 398.755 67.96C398.755 70.25 397.795 71.66 396.195 71.66ZM395.095 67.96C395.095 68.39 395.125 68.76 395.185 69.07L396.875 65.88C396.695 65.63 396.465 65.5 396.195 65.5C395.505 65.5 395.095 66.32 395.095 67.96ZM396.195 70.4C396.885 70.4 397.295 69.59 397.295 67.96C397.295 67.53 397.265 67.15 397.205 66.83L395.515 70.02C395.695 70.27 395.925 70.4 396.195 70.4Z" fill="black"/>
<path id="350" d="M463.47 173.284C461.84 173.284 461.03 172.454 460.96 171.164L462.4 171.094C462.46 171.784 462.92 172.024 463.5 172.024C464.13 172.024 464.62 171.724 464.62 171.024C464.62 170.344 464.17 169.984 463.43 169.984H462.9V168.854H463.43C463.99 168.854 464.4 168.604 464.4 167.994C464.4 167.404 464.05 167.114 463.49 167.114C462.87 167.114 462.57 167.424 462.51 167.914L461.07 167.844C461.21 166.634 462.04 165.864 463.5 165.864C464.96 165.864 465.86 166.584 465.86 167.804C465.86 168.574 465.46 169.084 464.71 169.324C465.58 169.574 466.08 170.224 466.08 171.124C466.08 172.464 465.07 173.284 463.47 173.284ZM469.506 173.284C468.006 173.284 467.096 172.394 466.996 171.224L468.456 171.144C468.546 171.724 468.896 172.024 469.506 172.024C470.166 172.024 470.576 171.604 470.576 170.794C470.576 170.004 470.156 169.544 469.516 169.544C469.076 169.544 468.706 169.804 468.566 170.164L467.096 170.094L467.516 166.024H471.706V167.304H468.686L468.506 168.834C468.836 168.554 469.276 168.394 469.756 168.394C471.166 168.394 472.036 169.414 472.036 170.804C472.036 172.274 471.036 173.284 469.506 173.284ZM475.512 173.284C473.912 173.284 472.952 171.874 472.952 169.584C472.952 167.284 473.912 165.864 475.512 165.864C477.112 165.864 478.072 167.284 478.072 169.584C478.072 171.874 477.112 173.284 475.512 173.284ZM474.412 169.584C474.412 170.014 474.442 170.384 474.502 170.694L476.192 167.504C476.012 167.254 475.782 167.124 475.512 167.124C474.822 167.124 474.412 167.944 474.412 169.584ZM475.512 172.024C476.202 172.024 476.612 171.214 476.612 169.584C476.612 169.154 476.582 168.774 476.522 168.454L474.832 171.644C475.012 171.894 475.242 172.024 475.512 172.024Z" fill="black"/>
<path id="347" d="M24.3685 173.284C22.7385 173.284 21.9285 172.454 21.8585 171.164L23.2985 171.094C23.3585 171.784 23.8185 172.024 24.3985 172.024C25.0285 172.024 25.5185 171.724 25.5185 171.024C25.5185 170.344 25.0685 169.984 24.3285 169.984H23.7985V168.854H24.3285C24.8885 168.854 25.2985 168.604 25.2985 167.994C25.2985 167.404 24.9485 167.114 24.3885 167.114C23.7685 167.114 23.4685 167.424 23.4085 167.914L21.9685 167.844C22.1085 166.634 22.9385 165.864 24.3985 165.864C25.8585 165.864 26.7585 166.584 26.7585 167.804C26.7585 168.574 26.3585 169.084 25.6085 169.324C26.4785 169.574 26.9785 170.224 26.9785 171.124C26.9785 172.464 25.9685 173.284 24.3685 173.284ZM30.8646 173.124V171.704H27.6946V170.534L30.6746 166.024H32.2946V170.464H33.1346V171.704H32.2946V173.124H30.8646ZM29.0346 170.464H30.8646V167.814L29.0346 170.464ZM35.0806 173.124C35.0806 170.974 35.9806 169.014 37.4506 167.304H33.9506V166.024H38.8706V167.234C37.2406 169.094 36.5706 170.684 36.5706 173.124H35.0806Z" fill="black"/>
</g>
<path id="field" d="M99.0093 60.4535L266.851 14.835L460.039 120.677C486.367 135.102 494.138 169.312 476.626 193.695L297.117 443.632C273.973 475.856 226.032 475.852 202.894 443.624L24.9761 195.817C10.0982 175.095 12.4492 146.64 30.5265 128.641L99.0093 60.4535Z" fill="#BA0021" fill-opacity="0.1" fill="none" stroke="#BA0021" stroke-width="1.002"/>
</g>
</svg>
