<svg width="500" height="470" viewBox="0 0 500 470" fill="none" xmlns="http://www.w3.org/2000/svg">
<g id="arlington-stadium-1979" clip-path="url(#clip0_106_4030)">
<g id="Infield">
<path d="M339.98 327.766C339.453 325.666 322.032 258.479 250.83 258.479C180.238 258.479 162.505 324.538 161.697 327.699C161.677 327.776 161.668 327.816 161.668 327.816L236.504 402.653C235.305 404.912 234.623 407.489 234.623 410.238C234.623 419.186 241.873 426.445 250.83 426.445C259.778 426.445 267.037 419.186 267.037 410.238C267.037 407.489 266.356 404.912 265.156 402.657L260.695 397.375C257.96 395.278 254.544 394.026 250.83 394.026C247.117 394.026 243.701 395.278 240.971 397.37L197.7 354.1C201.448 350.353 201.448 344.277 197.7 340.53C197.698 340.527 197.694 340.525 197.691 340.522L244.055 294.038C247.8 297.773 253.861 297.773 257.606 294.038L303.431 339.984C303.431 339.984 303.427 339.985 303.424 339.988C299.677 343.736 300.275 350.3 304.022 354.047L260.695 397.375L265.156 402.657L339.98 327.766Z" fill="#D2D2D2"/>
<path d="M259.91 345.706C259.91 350.721 255.845 354.787 250.83 354.787C245.815 354.787 241.75 350.721 241.75 345.706C241.75 340.691 245.815 336.626 250.83 336.626C255.845 336.626 259.91 340.691 259.91 345.706Z" fill="#D2D2D2"/>
</g>
<g id="Guides">
<g id="Home">
<circle id="Ellipse 1" cx="250.827" cy="410.419" r="16.0848" fill="#D2D2D2"/>
<circle id="Ellipse 1_2" cx="250.827" cy="410.418" r="1.62919" fill="black"/>
</g>
<g id="First">
<circle id="Ellipse 1_3" cx="311.125" cy="346.532" r="10.1878" fill="#D2D2D2"/>
<circle id="Ellipse 1_4" cx="311.125" cy="346.532" r="1.0319" fill="black"/>
</g>
<g id="Third">
<circle id="Ellipse 1_5" cx="190.34" cy="346.532" r="10.1878" fill="#D2D2D2"/>
<circle id="Ellipse 1_6" cx="190.34" cy="346.532" r="1.0319" fill="black"/>
</g>
<g id="Second">
<circle id="Ellipse 1_7" cx="250.827" cy="286.67" r="10.1878" fill="#D2D2D2"/>
<circle id="Ellipse 1_8" cx="250.827" cy="286.671" r="1.0319" fill="black"/>
</g>
<g id="Mound">
<circle id="Ellipse 1_9" cx="250.827" cy="345.929" r="9.08365" fill="#D2D2D2"/>
<circle id="Ellipse 1_10" cx="250.827" cy="345.93" r="0.920062" fill="black"/>
</g>
</g>
<path id="Foul Lines" d="M479.624 181.867L250.976 410.516L22.2837 181.824" fill="none" stroke="black" stroke-width="1.002"/>
<g id="Measurements">
<path id="400" d="M244.899 14.6992V13.2792H241.729V12.1092L244.709 7.59922H246.329V12.0392H247.169V13.2792H246.329V14.6992H244.899ZM243.069 12.0392H244.899V9.38922L243.069 12.0392ZM250.445 14.8592C248.845 14.8592 247.885 13.4492 247.885 11.1592C247.885 8.85922 248.845 7.43922 250.445 7.43922C252.045 7.43922 253.005 8.85922 253.005 11.1592C253.005 13.4492 252.045 14.8592 250.445 14.8592ZM249.345 11.1592C249.345 11.5892 249.375 11.9592 249.435 12.2692L251.125 9.07922C250.945 8.82922 250.715 8.69922 250.445 8.69922C249.755 8.69922 249.345 9.51922 249.345 11.1592ZM250.445 13.5992C251.135 13.5992 251.545 12.7892 251.545 11.1592C251.545 10.7292 251.515 10.3492 251.455 10.0292L249.765 13.2192C249.945 13.4692 250.175 13.5992 250.445 13.5992ZM256.441 14.8592C254.841 14.8592 253.881 13.4492 253.881 11.1592C253.881 8.85922 254.841 7.43922 256.441 7.43922C258.041 7.43922 259.001 8.85922 259.001 11.1592C259.001 13.4492 258.041 14.8592 256.441 14.8592ZM255.341 11.1592C255.341 11.5892 255.371 11.9592 255.431 12.2692L257.121 9.07922C256.941 8.82922 256.711 8.69922 256.441 8.69922C255.751 8.69922 255.341 9.51922 255.341 11.1592ZM256.441 13.5992C257.131 13.5992 257.541 12.7892 257.541 11.1592C257.541 10.7292 257.511 10.3492 257.451 10.0292L255.761 13.2192C255.941 13.4692 256.171 13.5992 256.441 13.5992Z" fill="black"/>
<path id="370" d="M91.6378 75.2459C90.0078 75.2459 89.1978 74.4159 89.1278 73.1259L90.5678 73.0559C90.6278 73.7459 91.0878 73.9859 91.6678 73.9859C92.2978 73.9859 92.7878 73.6859 92.7878 72.9859C92.7878 72.3059 92.3378 71.9459 91.5978 71.9459H91.0678V70.8159H91.5978C92.1578 70.8159 92.5678 70.5659 92.5678 69.9559C92.5678 69.3659 92.2178 69.0759 91.6578 69.0759C91.0378 69.0759 90.7378 69.3859 90.6778 69.8759L89.2378 69.8059C89.3778 68.5959 90.2078 67.8259 91.6678 67.8259C93.1278 67.8259 94.0278 68.5459 94.0278 69.7659C94.0278 70.5359 93.6278 71.0459 92.8778 71.2859C93.7478 71.5359 94.2478 72.1859 94.2478 73.0859C94.2478 74.4259 93.2378 75.2459 91.6378 75.2459ZM96.3539 75.0859C96.3539 72.9359 97.2539 70.9759 98.7239 69.2659H95.2239V67.9859H100.144V69.1959C98.5139 71.0559 97.8439 72.6459 97.8439 75.0859H96.3539ZM103.68 75.2459C102.08 75.2459 101.12 73.8359 101.12 71.5459C101.12 69.2459 102.08 67.8259 103.68 67.8259C105.28 67.8259 106.24 69.2459 106.24 71.5459C106.24 73.8359 105.28 75.2459 103.68 75.2459ZM102.58 71.5459C102.58 71.9759 102.61 72.3459 102.67 72.6559L104.36 69.4659C104.18 69.2159 103.95 69.0859 103.68 69.0859C102.99 69.0859 102.58 69.9059 102.58 71.5459ZM103.68 73.9859C104.37 73.9859 104.78 73.1759 104.78 71.5459C104.78 71.1159 104.75 70.7359 104.69 70.4159L103 73.6059C103.18 73.8559 103.41 73.9859 103.68 73.9859Z" fill="black"/>
<path id="370_2" d="M397.908 75.2459C396.278 75.2459 395.468 74.4159 395.398 73.1259L396.838 73.0559C396.898 73.7459 397.358 73.9859 397.938 73.9859C398.568 73.9859 399.058 73.6859 399.058 72.9859C399.058 72.3059 398.608 71.9459 397.868 71.9459H397.338V70.8159H397.868C398.428 70.8159 398.838 70.5659 398.838 69.9559C398.838 69.3659 398.488 69.0759 397.928 69.0759C397.308 69.0759 397.008 69.3859 396.948 69.8759L395.508 69.8059C395.648 68.5959 396.478 67.8259 397.938 67.8259C399.398 67.8259 400.298 68.5459 400.298 69.7659C400.298 70.5359 399.898 71.0459 399.148 71.2859C400.018 71.5359 400.518 72.1859 400.518 73.0859C400.518 74.4259 399.508 75.2459 397.908 75.2459ZM402.624 75.0859C402.624 72.9359 403.524 70.9759 404.994 69.2659H401.494V67.9859H406.414V69.1959C404.784 71.0559 404.114 72.6459 404.114 75.0859H402.624ZM409.951 75.2459C408.351 75.2459 407.391 73.8359 407.391 71.5459C407.391 69.2459 408.351 67.8259 409.951 67.8259C411.551 67.8259 412.511 69.2459 412.511 71.5459C412.511 73.8359 411.551 75.2459 409.951 75.2459ZM408.851 71.5459C408.851 71.9759 408.881 72.3459 408.941 72.6559L410.631 69.4659C410.451 69.2159 410.221 69.0859 409.951 69.0859C409.261 69.0859 408.851 69.9059 408.851 71.5459ZM409.951 73.9859C410.641 73.9859 411.051 73.1759 411.051 71.5459C411.051 71.1159 411.021 70.7359 410.961 70.4159L409.271 73.6059C409.451 73.8559 409.681 73.9859 409.951 73.9859Z" fill="black"/>
<path id="330" d="M30.6142 183.178C28.9842 183.178 28.1742 182.348 28.1042 181.058L29.5442 180.988C29.6042 181.678 30.0642 181.918 30.6442 181.918C31.2742 181.918 31.7642 181.618 31.7642 180.918C31.7642 180.238 31.3142 179.878 30.5742 179.878H30.0442V178.748H30.5742C31.1342 178.748 31.5442 178.498 31.5442 177.888C31.5442 177.298 31.1942 177.008 30.6342 177.008C30.0142 177.008 29.7142 177.318 29.6542 177.808L28.2142 177.738C28.3542 176.528 29.1842 175.758 30.6442 175.758C32.1042 175.758 33.0042 176.478 33.0042 177.698C33.0042 178.468 32.6042 178.978 31.8542 179.218C32.7242 179.468 33.2242 180.118 33.2242 181.018C33.2242 182.358 32.2142 183.178 30.6142 183.178ZM36.6103 183.178C34.9803 183.178 34.1703 182.348 34.1003 181.058L35.5403 180.988C35.6003 181.678 36.0603 181.918 36.6403 181.918C37.2703 181.918 37.7603 181.618 37.7603 180.918C37.7603 180.238 37.3103 179.878 36.5703 179.878H36.0403V178.748H36.5703C37.1303 178.748 37.5403 178.498 37.5403 177.888C37.5403 177.298 37.1903 177.008 36.6303 177.008C36.0103 177.008 35.7103 177.318 35.6503 177.808L34.2103 177.738C34.3503 176.528 35.1803 175.758 36.6403 175.758C38.1003 175.758 39.0003 176.478 39.0003 177.698C39.0003 178.468 38.6003 178.978 37.8503 179.218C38.7203 179.468 39.2203 180.118 39.2203 181.018C39.2203 182.358 38.2103 183.178 36.6103 183.178ZM42.6564 183.178C41.0564 183.178 40.0964 181.768 40.0964 179.478C40.0964 177.178 41.0564 175.758 42.6564 175.758C44.2564 175.758 45.2164 177.178 45.2164 179.478C45.2164 181.768 44.2564 183.178 42.6564 183.178ZM41.5564 179.478C41.5564 179.908 41.5864 180.278 41.6464 180.588L43.3364 177.398C43.1564 177.148 42.9264 177.018 42.6564 177.018C41.9664 177.018 41.5564 177.838 41.5564 179.478ZM42.6564 181.918C43.3464 181.918 43.7564 181.108 43.7564 179.478C43.7564 179.048 43.7264 178.668 43.6664 178.348L41.9764 181.538C42.1564 181.788 42.3864 181.918 42.6564 181.918Z" fill="black"/>
<path id="330_2" d="M458.184 183.178C456.554 183.178 455.744 182.348 455.674 181.058L457.114 180.988C457.174 181.678 457.634 181.918 458.214 181.918C458.844 181.918 459.334 181.618 459.334 180.918C459.334 180.238 458.884 179.878 458.144 179.878H457.614V178.748H458.144C458.704 178.748 459.114 178.498 459.114 177.888C459.114 177.298 458.764 177.008 458.204 177.008C457.584 177.008 457.284 177.318 457.224 177.808L455.784 177.738C455.924 176.528 456.754 175.758 458.214 175.758C459.674 175.758 460.574 176.478 460.574 177.698C460.574 178.468 460.174 178.978 459.424 179.218C460.294 179.468 460.794 180.118 460.794 181.018C460.794 182.358 459.784 183.178 458.184 183.178ZM464.18 183.178C462.55 183.178 461.74 182.348 461.67 181.058L463.11 180.988C463.17 181.678 463.63 181.918 464.21 181.918C464.84 181.918 465.33 181.618 465.33 180.918C465.33 180.238 464.88 179.878 464.14 179.878H463.61V178.748H464.14C464.7 178.748 465.11 178.498 465.11 177.888C465.11 177.298 464.76 177.008 464.2 177.008C463.58 177.008 463.28 177.318 463.22 177.808L461.78 177.738C461.92 176.528 462.75 175.758 464.21 175.758C465.67 175.758 466.57 176.478 466.57 177.698C466.57 178.468 466.17 178.978 465.42 179.218C466.29 179.468 466.79 180.118 466.79 181.018C466.79 182.358 465.78 183.178 464.18 183.178ZM470.226 183.178C468.626 183.178 467.666 181.768 467.666 179.478C467.666 177.178 468.626 175.758 470.226 175.758C471.826 175.758 472.786 177.178 472.786 179.478C472.786 181.768 471.826 183.178 470.226 183.178ZM469.126 179.478C469.126 179.908 469.156 180.278 469.216 180.588L470.906 177.398C470.726 177.148 470.496 177.018 470.226 177.018C469.536 177.018 469.126 177.838 469.126 179.478ZM470.226 181.918C470.916 181.918 471.326 181.108 471.326 179.478C471.326 179.048 471.296 178.668 471.236 178.348L469.546 181.538C469.726 181.788 469.956 181.918 470.226 181.918Z" fill="black"/>
</g>
<path id="field" d="M211.282 462.74L20.1199 193.594C20.1199 181.257 31.5331 153.032 54.0621 122.808C60.5742 114.072 68.6336 106.643 77.3315 100.08L145.918 48.3241C155.289 41.2528 165.41 35.1329 176.527 31.362C198.943 23.759 223.721 19.2441 250.83 19.2441C277.939 19.2441 302.717 23.759 325.133 31.362C336.25 35.1329 346.371 41.2528 355.742 48.3242L424.328 100.08C433.026 106.643 441.085 114.072 447.597 122.809C470.126 153.032 481.539 181.257 481.539 193.594L290.307 462.743C288.309 465.555 285.197 467.372 281.765 467.728L261.152 469.869C254.289 470.582 247.371 470.583 240.508 469.871L219.828 467.727C216.394 467.371 213.28 465.554 211.282 462.74Z" fill="#003278" fill-opacity="0.1" fill="none" stroke="#003278" stroke-width="1.002"/>
</g>
<defs>
<clipPath id="clip0_106_4030">
<rect width="500" height="469.94" fill="white"/>
</clipPath>
</defs>
</svg>
