<svg width="500" height="470" viewBox="0 0 500 470" fill="none" xmlns="http://www.w3.org/2000/svg">
<g id="arlington-stadium-1985" clip-path="url(#clip0_106_4057)">
<g id="Infield">
<path d="M339.98 327.766C339.453 325.666 322.032 258.479 250.83 258.479C180.238 258.479 162.505 324.538 161.697 327.699C161.677 327.776 161.668 327.816 161.668 327.816L236.504 402.653C235.305 404.912 234.623 407.489 234.623 410.238C234.623 419.186 241.873 426.445 250.83 426.445C259.778 426.445 267.037 419.186 267.037 410.238C267.037 407.489 266.356 404.912 265.157 402.657L260.695 397.375C257.96 395.278 254.544 394.026 250.83 394.026C247.117 394.026 243.701 395.278 240.971 397.37L197.7 354.1C201.448 350.353 201.448 344.277 197.7 340.53C197.698 340.527 197.694 340.525 197.691 340.522L244.055 294.038C247.8 297.773 253.861 297.773 257.606 294.038L303.431 339.984C303.431 339.984 303.427 339.985 303.424 339.988C299.677 343.736 300.275 350.3 304.022 354.047L260.695 397.375L265.157 402.657L339.98 327.766Z" fill="#D2D2D2"/>
<path d="M259.91 345.706C259.91 350.721 255.845 354.787 250.83 354.787C245.815 354.787 241.75 350.721 241.75 345.706C241.75 340.691 245.815 336.626 250.83 336.626C255.845 336.626 259.91 340.691 259.91 345.706Z" fill="#D2D2D2"/>
</g>
<g id="Guides">
<g id="Home">
<circle id="Ellipse 1" cx="250.827" cy="410.419" r="16.0848" fill="#D2D2D2"/>
<circle id="Ellipse 1_2" cx="250.827" cy="410.418" r="1.62919" fill="black"/>
</g>
<g id="First">
<circle id="Ellipse 1_3" cx="311.125" cy="346.532" r="10.1878" fill="#D2D2D2"/>
<circle id="Ellipse 1_4" cx="311.125" cy="346.532" r="1.0319" fill="black"/>
</g>
<g id="Third">
<circle id="Ellipse 1_5" cx="190.34" cy="346.532" r="10.1878" fill="#D2D2D2"/>
<circle id="Ellipse 1_6" cx="190.34" cy="346.532" r="1.0319" fill="black"/>
</g>
<g id="Second">
<circle id="Ellipse 1_7" cx="250.827" cy="286.67" r="10.1878" fill="#D2D2D2"/>
<circle id="Ellipse 1_8" cx="250.827" cy="286.671" r="1.0319" fill="black"/>
</g>
<g id="Mound">
<circle id="Ellipse 1_9" cx="250.827" cy="345.929" r="9.08365" fill="#D2D2D2"/>
<circle id="Ellipse 1_10" cx="250.827" cy="345.93" r="0.920062" fill="black"/>
</g>
</g>
<path id="Foul Lines" d="M479.624 181.867L250.976 410.516L22.2837 181.824" fill="none" stroke="black" stroke-width="1.002"/>
<g id="Measurements">
<path id="400" d="M244.899 14.6992V13.2792H241.729V12.1092L244.709 7.59922H246.329V12.0392H247.169V13.2792H246.329V14.6992H244.899ZM243.069 12.0392H244.899V9.38922L243.069 12.0392ZM250.445 14.8592C248.845 14.8592 247.885 13.4492 247.885 11.1592C247.885 8.85922 248.845 7.43922 250.445 7.43922C252.045 7.43922 253.005 8.85922 253.005 11.1592C253.005 13.4492 252.045 14.8592 250.445 14.8592ZM249.345 11.1592C249.345 11.5892 249.375 11.9592 249.435 12.2692L251.125 9.07922C250.945 8.82922 250.715 8.69922 250.445 8.69922C249.755 8.69922 249.345 9.51922 249.345 11.1592ZM250.445 13.5992C251.135 13.5992 251.545 12.7892 251.545 11.1592C251.545 10.7292 251.515 10.3492 251.455 10.0292L249.765 13.2192C249.945 13.4692 250.175 13.5992 250.445 13.5992ZM256.441 14.8592C254.841 14.8592 253.881 13.4492 253.881 11.1592C253.881 8.85922 254.841 7.43922 256.441 7.43922C258.041 7.43922 259.001 8.85922 259.001 11.1592C259.001 13.4492 258.041 14.8592 256.441 14.8592ZM255.341 11.1592C255.341 11.5892 255.371 11.9592 255.431 12.2692L257.121 9.07922C256.941 8.82922 256.711 8.69922 256.441 8.69922C255.751 8.69922 255.341 9.51922 255.341 11.1592ZM256.441 13.5992C257.131 13.5992 257.541 12.7892 257.541 11.1592C257.541 10.7292 257.511 10.3492 257.451 10.0292L255.761 13.2192C255.941 13.4692 256.171 13.5992 256.441 13.5992Z" fill="black"/>
<path id="380" d="M88.0716 70.66C86.4416 70.66 85.6316 69.83 85.5616 68.54L87.0016 68.47C87.0616 69.16 87.5216 69.4 88.1016 69.4C88.7316 69.4 89.2216 69.1 89.2216 68.4C89.2216 67.72 88.7716 67.36 88.0316 67.36H87.5016V66.23H88.0316C88.5916 66.23 89.0016 65.98 89.0016 65.37C89.0016 64.78 88.6516 64.49 88.0916 64.49C87.4716 64.49 87.1716 64.8 87.1116 65.29L85.6716 65.22C85.8116 64.01 86.6416 63.24 88.1016 63.24C89.5616 63.24 90.4616 63.96 90.4616 65.18C90.4616 65.95 90.0616 66.46 89.3116 66.7C90.1816 66.95 90.6816 67.6 90.6816 68.5C90.6816 69.84 89.6716 70.66 88.0716 70.66ZM94.1177 70.66C92.5477 70.66 91.4977 69.94 91.4977 68.56C91.4977 67.63 92.0377 66.97 92.9077 66.69C92.2377 66.43 91.7877 65.94 91.7877 65.2C91.7877 64.06 92.7177 63.24 94.1177 63.24C95.5177 63.24 96.4477 64.06 96.4477 65.2C96.4477 65.94 95.9977 66.43 95.3177 66.69C96.1977 66.97 96.7377 67.63 96.7377 68.56C96.7377 69.94 95.6877 70.66 94.1177 70.66ZM94.1177 66.12C94.6277 66.12 94.9777 65.85 94.9777 65.29C94.9777 64.79 94.6377 64.5 94.1177 64.5C93.5977 64.5 93.2577 64.79 93.2577 65.29C93.2577 65.85 93.6077 66.12 94.1177 66.12ZM94.1177 69.4C94.7577 69.4 95.2777 69.12 95.2777 68.42C95.2777 67.75 94.8477 67.33 94.1177 67.33C93.3877 67.33 92.9577 67.75 92.9577 68.42C92.9577 69.12 93.4777 69.4 94.1177 69.4ZM100.114 70.66C98.5138 70.66 97.5538 69.25 97.5538 66.96C97.5538 64.66 98.5138 63.24 100.114 63.24C101.714 63.24 102.674 64.66 102.674 66.96C102.674 69.25 101.714 70.66 100.114 70.66ZM99.0138 66.96C99.0138 67.39 99.0438 67.76 99.1038 68.07L100.794 64.88C100.614 64.63 100.384 64.5 100.114 64.5C99.4238 64.5 99.0138 65.32 99.0138 66.96ZM100.114 69.4C100.804 69.4 101.214 68.59 101.214 66.96C101.214 66.53 101.184 66.15 101.124 65.83L99.4338 69.02C99.6138 69.27 99.8438 69.4 100.114 69.4Z" fill="black"/>
<path id="380_2" d="M402.519 70.66C400.889 70.66 400.079 69.83 400.009 68.54L401.449 68.47C401.509 69.16 401.969 69.4 402.549 69.4C403.179 69.4 403.669 69.1 403.669 68.4C403.669 67.72 403.219 67.36 402.479 67.36H401.949V66.23H402.479C403.039 66.23 403.449 65.98 403.449 65.37C403.449 64.78 403.099 64.49 402.539 64.49C401.919 64.49 401.619 64.8 401.559 65.29L400.119 65.22C400.259 64.01 401.089 63.24 402.549 63.24C404.009 63.24 404.909 63.96 404.909 65.18C404.909 65.95 404.509 66.46 403.759 66.7C404.629 66.95 405.129 67.6 405.129 68.5C405.129 69.84 404.119 70.66 402.519 70.66ZM408.565 70.66C406.995 70.66 405.945 69.94 405.945 68.56C405.945 67.63 406.485 66.97 407.355 66.69C406.685 66.43 406.235 65.94 406.235 65.2C406.235 64.06 407.165 63.24 408.565 63.24C409.965 63.24 410.895 64.06 410.895 65.2C410.895 65.94 410.445 66.43 409.765 66.69C410.645 66.97 411.185 67.63 411.185 68.56C411.185 69.94 410.135 70.66 408.565 70.66ZM408.565 66.12C409.075 66.12 409.425 65.85 409.425 65.29C409.425 64.79 409.085 64.5 408.565 64.5C408.045 64.5 407.705 64.79 407.705 65.29C407.705 65.85 408.055 66.12 408.565 66.12ZM408.565 69.4C409.205 69.4 409.725 69.12 409.725 68.42C409.725 67.75 409.295 67.33 408.565 67.33C407.835 67.33 407.405 67.75 407.405 68.42C407.405 69.12 407.925 69.4 408.565 69.4ZM414.561 70.66C412.961 70.66 412.001 69.25 412.001 66.96C412.001 64.66 412.961 63.24 414.561 63.24C416.161 63.24 417.121 64.66 417.121 66.96C417.121 69.25 416.161 70.66 414.561 70.66ZM413.461 66.96C413.461 67.39 413.491 67.76 413.551 68.07L415.241 64.88C415.061 64.63 414.831 64.5 414.561 64.5C413.871 64.5 413.461 65.32 413.461 66.96ZM414.561 69.4C415.251 69.4 415.661 68.59 415.661 66.96C415.661 66.53 415.631 66.15 415.571 65.83L413.881 69.02C414.061 69.27 414.291 69.4 414.561 69.4Z" fill="black"/>
<path id="330" d="M30.6142 183.178C28.9842 183.178 28.1742 182.348 28.1042 181.058L29.5442 180.988C29.6042 181.678 30.0642 181.918 30.6442 181.918C31.2742 181.918 31.7642 181.618 31.7642 180.918C31.7642 180.238 31.3142 179.878 30.5742 179.878H30.0442V178.748H30.5742C31.1342 178.748 31.5442 178.498 31.5442 177.888C31.5442 177.298 31.1942 177.008 30.6342 177.008C30.0142 177.008 29.7142 177.318 29.6542 177.808L28.2142 177.738C28.3542 176.528 29.1842 175.758 30.6442 175.758C32.1042 175.758 33.0042 176.478 33.0042 177.698C33.0042 178.468 32.6042 178.978 31.8542 179.218C32.7242 179.468 33.2242 180.118 33.2242 181.018C33.2242 182.358 32.2142 183.178 30.6142 183.178ZM36.6103 183.178C34.9803 183.178 34.1703 182.348 34.1003 181.058L35.5403 180.988C35.6003 181.678 36.0603 181.918 36.6403 181.918C37.2703 181.918 37.7603 181.618 37.7603 180.918C37.7603 180.238 37.3103 179.878 36.5703 179.878H36.0403V178.748H36.5703C37.1303 178.748 37.5403 178.498 37.5403 177.888C37.5403 177.298 37.1903 177.008 36.6303 177.008C36.0103 177.008 35.7103 177.318 35.6503 177.808L34.2103 177.738C34.3503 176.528 35.1803 175.758 36.6403 175.758C38.1003 175.758 39.0003 176.478 39.0003 177.698C39.0003 178.468 38.6003 178.978 37.8503 179.218C38.7203 179.468 39.2203 180.118 39.2203 181.018C39.2203 182.358 38.2103 183.178 36.6103 183.178ZM42.6564 183.178C41.0564 183.178 40.0964 181.768 40.0964 179.478C40.0964 177.178 41.0564 175.758 42.6564 175.758C44.2564 175.758 45.2164 177.178 45.2164 179.478C45.2164 181.768 44.2564 183.178 42.6564 183.178ZM41.5564 179.478C41.5564 179.908 41.5864 180.278 41.6464 180.588L43.3364 177.398C43.1564 177.148 42.9264 177.018 42.6564 177.018C41.9664 177.018 41.5564 177.838 41.5564 179.478ZM42.6564 181.918C43.3464 181.918 43.7564 181.108 43.7564 179.478C43.7564 179.048 43.7264 178.668 43.6664 178.348L41.9764 181.538C42.1564 181.788 42.3864 181.918 42.6564 181.918Z" fill="black"/>
<path id="330_2" d="M458.184 183.178C456.554 183.178 455.744 182.348 455.674 181.058L457.114 180.988C457.174 181.678 457.634 181.918 458.214 181.918C458.844 181.918 459.334 181.618 459.334 180.918C459.334 180.238 458.884 179.878 458.144 179.878H457.614V178.748H458.144C458.704 178.748 459.114 178.498 459.114 177.888C459.114 177.298 458.764 177.008 458.204 177.008C457.584 177.008 457.284 177.318 457.224 177.808L455.784 177.738C455.924 176.528 456.754 175.758 458.214 175.758C459.674 175.758 460.574 176.478 460.574 177.698C460.574 178.468 460.174 178.978 459.424 179.218C460.294 179.468 460.794 180.118 460.794 181.018C460.794 182.358 459.784 183.178 458.184 183.178ZM464.18 183.178C462.55 183.178 461.74 182.348 461.67 181.058L463.11 180.988C463.17 181.678 463.63 181.918 464.21 181.918C464.84 181.918 465.33 181.618 465.33 180.918C465.33 180.238 464.88 179.878 464.14 179.878H463.61V178.748H464.14C464.7 178.748 465.11 178.498 465.11 177.888C465.11 177.298 464.76 177.008 464.2 177.008C463.58 177.008 463.28 177.318 463.22 177.808L461.78 177.738C461.92 176.528 462.75 175.758 464.21 175.758C465.67 175.758 466.57 176.478 466.57 177.698C466.57 178.468 466.17 178.978 465.42 179.218C466.29 179.468 466.79 180.118 466.79 181.018C466.79 182.358 465.78 183.178 464.18 183.178ZM470.226 183.178C468.626 183.178 467.666 181.768 467.666 179.478C467.666 177.178 468.626 175.758 470.226 175.758C471.826 175.758 472.786 177.178 472.786 179.478C472.786 181.768 471.826 183.178 470.226 183.178ZM469.126 179.478C469.126 179.908 469.156 180.278 469.216 180.588L470.906 177.398C470.726 177.148 470.496 177.018 470.226 177.018C469.536 177.018 469.126 177.838 469.126 179.478ZM470.226 181.918C470.916 181.918 471.326 181.108 471.326 179.478C471.326 179.048 471.296 178.668 471.236 178.348L469.546 181.538C469.726 181.788 469.956 181.918 470.226 181.918Z" fill="black"/>
</g>
<path id="field" d="M250.83 19.2441C98.8187 19.2441 20.1199 161.2 20.1199 193.594L211.282 462.74C213.28 465.554 216.394 467.371 219.828 467.727L240.508 469.871C247.371 470.583 254.289 470.582 261.152 469.869L281.765 467.728C285.197 467.372 288.309 465.555 290.307 462.743L481.539 193.594C481.539 161.2 402.841 19.2441 250.83 19.2441Z" fill="#003278" fill-opacity="0.1" fill="none" stroke="#003278" stroke-width="1.002"/>
</g>
<defs>
<clipPath id="clip0_106_4057">
<rect width="500" height="469.94" fill="white"/>
</clipPath>
</defs>
</svg>
