<svg width="500" height="470" viewBox="0 0 500 470" fill="none" xmlns="http://www.w3.org/2000/svg">
<g id="astrodome-1992">
<g id="Infield">
<path d="M339.98 327.766C339.453 325.666 322.032 258.479 250.83 258.479C180.238 258.479 162.505 324.538 161.697 327.699C161.677 327.776 161.668 327.816 161.668 327.816L236.504 402.653C235.305 404.912 234.623 407.489 234.623 410.238C234.623 419.186 241.873 426.445 250.83 426.445C259.778 426.445 267.037 419.186 267.037 410.238C267.037 407.489 266.356 404.912 265.156 402.657L260.695 397.375C257.96 395.278 254.544 394.026 250.83 394.026C247.117 394.026 243.701 395.278 240.971 397.37L197.7 354.1C201.448 350.353 201.448 344.277 197.7 340.53C197.698 340.527 197.694 340.525 197.691 340.522L244.055 294.038C247.8 297.773 253.861 297.773 257.606 294.038L303.431 339.984C303.431 339.984 303.427 339.985 303.424 339.988C299.677 343.736 300.275 350.3 304.022 354.047L260.695 397.375L265.156 402.657L339.98 327.766Z" fill="#D2D2D2"/>
<path d="M259.91 345.706C259.91 350.721 255.845 354.787 250.83 354.787C245.815 354.787 241.75 350.721 241.75 345.706C241.75 340.691 245.815 336.626 250.83 336.626C255.845 336.626 259.91 340.691 259.91 345.706Z" fill="#D2D2D2"/>
</g>
<g id="Guides">
<g id="Home">
<circle id="Ellipse 1" cx="250.827" cy="410.419" r="16.0848" fill="#D2D2D2"/>
<circle id="Ellipse 1_2" cx="250.827" cy="410.418" r="1.62919" fill="black"/>
</g>
<g id="First">
<circle id="Ellipse 1_3" cx="311.125" cy="346.532" r="10.1878" fill="#D2D2D2"/>
<circle id="Ellipse 1_4" cx="311.125" cy="346.532" r="1.0319" fill="black"/>
</g>
<g id="Third">
<circle id="Ellipse 1_5" cx="190.34" cy="346.532" r="10.1878" fill="#D2D2D2"/>
<circle id="Ellipse 1_6" cx="190.34" cy="346.532" r="1.0319" fill="black"/>
</g>
<g id="Second">
<circle id="Ellipse 1_7" cx="250.827" cy="286.67" r="10.1878" fill="#D2D2D2"/>
<circle id="Ellipse 1_8" cx="250.827" cy="286.671" r="1.0319" fill="black"/>
</g>
<g id="Mound">
<circle id="Ellipse 1_9" cx="250.827" cy="345.929" r="9.08365" fill="#D2D2D2"/>
<circle id="Ellipse 1_10" cx="250.827" cy="345.93" r="0.920062" fill="black"/>
</g>
</g>
<path id="Foul Lines" d="M477.088 184.404L250.976 410.516L24.5178 184.059" fill="none" stroke="black" stroke-width="1.002"/>
<g id="Measurements">
<path id="400" d="M244.187 15.6992V14.2792H241.017V13.1092L243.997 8.59922H245.617V13.0392H246.457V14.2792H245.617V15.6992H244.187ZM242.357 13.0392H244.187V10.3892L242.357 13.0392ZM249.733 15.8592C248.133 15.8592 247.173 14.4492 247.173 12.1592C247.173 9.85922 248.133 8.43922 249.733 8.43922C251.333 8.43922 252.293 9.85922 252.293 12.1592C252.293 14.4492 251.333 15.8592 249.733 15.8592ZM248.633 12.1592C248.633 12.5892 248.663 12.9592 248.723 13.2692L250.413 10.0792C250.233 9.82922 250.003 9.69922 249.733 9.69922C249.043 9.69922 248.633 10.5192 248.633 12.1592ZM249.733 14.5992C250.423 14.5992 250.833 13.7892 250.833 12.1592C250.833 11.7292 250.803 11.3492 250.743 11.0292L249.053 14.2192C249.233 14.4692 249.463 14.5992 249.733 14.5992ZM255.729 15.8592C254.129 15.8592 253.169 14.4492 253.169 12.1592C253.169 9.85922 254.129 8.43922 255.729 8.43922C257.329 8.43922 258.289 9.85922 258.289 12.1592C258.289 14.4492 257.329 15.8592 255.729 15.8592ZM254.629 12.1592C254.629 12.5892 254.659 12.9592 254.719 13.2692L256.409 10.0792C256.229 9.82922 255.999 9.69922 255.729 9.69922C255.039 9.69922 254.629 10.5192 254.629 12.1592ZM255.729 14.5992C256.419 14.5992 256.829 13.7892 256.829 12.1592C256.829 11.7292 256.799 11.3492 256.739 11.0292L255.049 14.2192C255.229 14.4692 255.459 14.5992 255.729 14.5992Z" fill="black"/>
<path id="375" d="M402.776 73.4686C401.146 73.4686 400.336 72.6386 400.266 71.3486L401.706 71.2786C401.766 71.9686 402.226 72.2086 402.806 72.2086C403.436 72.2086 403.926 71.9086 403.926 71.2086C403.926 70.5286 403.476 70.1686 402.736 70.1686H402.206V69.0386H402.736C403.296 69.0386 403.706 68.7886 403.706 68.1786C403.706 67.5886 403.356 67.2986 402.796 67.2986C402.176 67.2986 401.876 67.6086 401.816 68.0986L400.376 68.0286C400.516 66.8186 401.346 66.0486 402.806 66.0486C404.266 66.0486 405.166 66.7686 405.166 67.9886C405.166 68.7586 404.766 69.2686 404.016 69.5086C404.886 69.7586 405.386 70.4086 405.386 71.3086C405.386 72.6486 404.376 73.4686 402.776 73.4686ZM407.492 73.3086C407.492 71.1586 408.392 69.1986 409.862 67.4886H406.362V66.2086H411.282V67.4186C409.652 69.2786 408.982 70.8686 408.982 73.3086H407.492ZM414.808 73.4686C413.308 73.4686 412.398 72.5786 412.298 71.4086L413.758 71.3286C413.848 71.9086 414.198 72.2086 414.808 72.2086C415.468 72.2086 415.878 71.7886 415.878 70.9786C415.878 70.1886 415.458 69.7286 414.818 69.7286C414.378 69.7286 414.008 69.9886 413.868 70.3486L412.398 70.2786L412.818 66.2086H417.008V67.4886H413.988L413.808 69.0186C414.138 68.7386 414.578 68.5786 415.058 68.5786C416.468 68.5786 417.338 69.5986 417.338 70.9886C417.338 72.4586 416.338 73.4686 414.808 73.4686Z" fill="black"/>
<path id="375_2" d="M83.7191 73.4686C82.0891 73.4686 81.2791 72.6386 81.2091 71.3486L82.6491 71.2786C82.7091 71.9686 83.1691 72.2086 83.7491 72.2086C84.3791 72.2086 84.8691 71.9086 84.8691 71.2086C84.8691 70.5286 84.4191 70.1686 83.6791 70.1686H83.1491V69.0386H83.6791C84.2391 69.0386 84.6491 68.7886 84.6491 68.1786C84.6491 67.5886 84.2991 67.2986 83.7391 67.2986C83.1191 67.2986 82.8191 67.6086 82.7591 68.0986L81.3191 68.0286C81.4591 66.8186 82.2891 66.0486 83.7491 66.0486C85.2091 66.0486 86.1091 66.7686 86.1091 67.9886C86.1091 68.7586 85.7091 69.2686 84.9591 69.5086C85.8291 69.7586 86.3291 70.4086 86.3291 71.3086C86.3291 72.6486 85.3191 73.4686 83.7191 73.4686ZM88.4352 73.3086C88.4352 71.1586 89.3352 69.1986 90.8052 67.4886H87.3052V66.2086H92.2252V67.4186C90.5952 69.2786 89.9252 70.8686 89.9252 73.3086H88.4352ZM95.7513 73.4686C94.2513 73.4686 93.3413 72.5786 93.2413 71.4086L94.7013 71.3286C94.7913 71.9086 95.1413 72.2086 95.7513 72.2086C96.4113 72.2086 96.8213 71.7886 96.8213 70.9786C96.8213 70.1886 96.4013 69.7286 95.7613 69.7286C95.3213 69.7286 94.9513 69.9886 94.8113 70.3486L93.3413 70.2786L93.7613 66.2086H97.9513V67.4886H94.9313L94.7513 69.0186C95.0813 68.7386 95.5213 68.5786 96.0013 68.5786C97.4113 68.5786 98.2813 69.5986 98.2813 70.9886C98.2813 72.4586 97.2813 73.4686 95.7513 73.4686Z" fill="black"/>
<path id="325" d="M455.576 185.555C453.946 185.555 453.136 184.725 453.066 183.435L454.506 183.365C454.566 184.055 455.026 184.295 455.606 184.295C456.236 184.295 456.726 183.995 456.726 183.295C456.726 182.615 456.276 182.255 455.536 182.255H455.006V181.125H455.536C456.096 181.125 456.506 180.875 456.506 180.265C456.506 179.675 456.156 179.385 455.596 179.385C454.976 179.385 454.676 179.695 454.616 180.185L453.176 180.115C453.316 178.905 454.146 178.135 455.606 178.135C457.066 178.135 457.966 178.855 457.966 180.075C457.966 180.845 457.566 181.355 456.816 181.595C457.686 181.845 458.186 182.495 458.186 183.395C458.186 184.735 457.176 185.555 455.576 185.555ZM459.062 185.395C459.062 183.665 459.642 182.655 461.622 181.635C462.352 181.255 462.712 180.975 462.712 180.325C462.712 179.755 462.382 179.395 461.752 179.395C461.032 179.395 460.682 179.815 460.562 180.575L459.092 180.485C459.232 179.035 460.142 178.135 461.772 178.135C463.362 178.135 464.182 178.985 464.182 180.245C464.182 181.385 463.692 181.945 462.292 182.705C461.142 183.325 460.732 183.755 460.692 184.115H464.182V185.395H459.062ZM467.608 185.555C466.108 185.555 465.198 184.665 465.098 183.495L466.558 183.415C466.648 183.995 466.998 184.295 467.608 184.295C468.268 184.295 468.678 183.875 468.678 183.065C468.678 182.275 468.258 181.815 467.618 181.815C467.178 181.815 466.808 182.075 466.668 182.435L465.198 182.365L465.618 178.295H469.808V179.575H466.788L466.608 181.105C466.938 180.825 467.378 180.665 467.858 180.665C469.268 180.665 470.138 181.685 470.138 183.075C470.138 184.545 469.138 185.555 467.608 185.555Z" fill="black"/>
<path id="325_2" d="M31.7973 185.555C30.1673 185.555 29.3573 184.725 29.2873 183.435L30.7273 183.365C30.7873 184.055 31.2473 184.295 31.8273 184.295C32.4573 184.295 32.9473 183.995 32.9473 183.295C32.9473 182.615 32.4973 182.255 31.7573 182.255H31.2273V181.125H31.7573C32.3173 181.125 32.7273 180.875 32.7273 180.265C32.7273 179.675 32.3773 179.385 31.8173 179.385C31.1973 179.385 30.8973 179.695 30.8373 180.185L29.3973 180.115C29.5373 178.905 30.3673 178.135 31.8273 178.135C33.2873 178.135 34.1873 178.855 34.1873 180.075C34.1873 180.845 33.7873 181.355 33.0373 181.595C33.9073 181.845 34.4073 182.495 34.4073 183.395C34.4073 184.735 33.3973 185.555 31.7973 185.555ZM35.2834 185.395C35.2834 183.665 35.8634 182.655 37.8434 181.635C38.5734 181.255 38.9334 180.975 38.9334 180.325C38.9334 179.755 38.6034 179.395 37.9734 179.395C37.2534 179.395 36.9034 179.815 36.7834 180.575L35.3134 180.485C35.4534 179.035 36.3634 178.135 37.9934 178.135C39.5834 178.135 40.4034 178.985 40.4034 180.245C40.4034 181.385 39.9134 181.945 38.5134 182.705C37.3634 183.325 36.9534 183.755 36.9134 184.115H40.4034V185.395H35.2834ZM43.8295 185.555C42.3295 185.555 41.4195 184.665 41.3195 183.495L42.7795 183.415C42.8695 183.995 43.2195 184.295 43.8295 184.295C44.4895 184.295 44.8995 183.875 44.8995 183.065C44.8995 182.275 44.4795 181.815 43.8395 181.815C43.3995 181.815 43.0295 182.075 42.8895 182.435L41.4195 182.365L41.8395 178.295H46.0295V179.575H43.0095L42.8295 181.105C43.1595 180.825 43.5995 180.665 44.0795 180.665C45.4895 180.665 46.3595 181.685 46.3595 183.075C46.3595 184.545 45.3595 185.555 43.8295 185.555Z" fill="black"/>
</g>
<path id="field" d="M49.1299 228.308L17.3155 219.895C19.5066 156.352 104.648 18.9355 250.83 18.9355H250.835C397.016 18.9355 482.158 156.352 484.349 219.895L452.535 228.308L453.493 237.982L317.224 444.066C305.743 444.066 299.188 451.103 292.765 462.227H250.835H250.83H208.9C202.477 451.103 195.922 444.066 184.441 444.066L48.1724 237.982L49.1299 228.308Z" fill="#002D62" fill-opacity="0.1" fill="none" stroke="#002D62" stroke-width="1.002"/>
</g>
</svg>
