<svg width="500" height="470" viewBox="0 0 500 470" fill="none" xmlns="http://www.w3.org/2000/svg">
<g id="astrodome-1965" clip-path="url(#clip0_95_2662)">
<g id="Infield">
<path d="M339.98 327.766C339.453 325.666 322.032 258.479 250.83 258.479C180.238 258.479 162.505 324.538 161.697 327.699C161.677 327.776 161.668 327.816 161.668 327.816L236.504 402.653C235.305 404.912 234.623 407.489 234.623 410.238C234.623 419.186 241.873 426.445 250.83 426.445C259.778 426.445 267.037 419.186 267.037 410.238C267.037 407.489 266.356 404.912 265.156 402.657L260.695 397.375C257.96 395.278 254.544 394.026 250.83 394.026C247.117 394.026 243.701 395.278 240.971 397.37L197.7 354.1C201.448 350.353 201.448 344.277 197.7 340.53C197.698 340.527 197.694 340.525 197.691 340.522L244.055 294.038C247.8 297.773 253.861 297.773 257.606 294.038L303.431 339.984C303.431 339.984 303.427 339.985 303.424 339.988C299.677 343.736 300.275 350.3 304.022 354.047L260.695 397.375L265.156 402.657L339.98 327.766Z" fill="#D2D2D2"/>
<path d="M259.91 345.706C259.91 350.721 255.845 354.787 250.83 354.787C245.815 354.787 241.75 350.721 241.75 345.706C241.75 340.691 245.815 336.626 250.83 336.626C255.845 336.626 259.91 340.691 259.91 345.706Z" fill="#D2D2D2"/>
</g>
<g id="Guides">
<g id="Home">
<circle id="Ellipse 1" cx="250.827" cy="410.419" r="16.0848" fill="#D2D2D2"/>
<circle id="Ellipse 1_2" cx="250.827" cy="410.418" r="1.62919" fill="black"/>
</g>
<g id="First">
<circle id="Ellipse 1_3" cx="311.125" cy="346.532" r="10.1878" fill="#D2D2D2"/>
<circle id="Ellipse 1_4" cx="311.125" cy="346.532" r="1.0319" fill="black"/>
</g>
<g id="Third">
<circle id="Ellipse 1_5" cx="190.34" cy="346.532" r="10.1878" fill="#D2D2D2"/>
<circle id="Ellipse 1_6" cx="190.34" cy="346.532" r="1.0319" fill="black"/>
</g>
<g id="Second">
<circle id="Ellipse 1_7" cx="250.827" cy="286.67" r="10.1878" fill="#D2D2D2"/>
<circle id="Ellipse 1_8" cx="250.827" cy="286.671" r="1.0319" fill="black"/>
</g>
<g id="Mound">
<circle id="Ellipse 1_9" cx="250.827" cy="345.929" r="9.08365" fill="#D2D2D2"/>
<circle id="Ellipse 1_10" cx="250.827" cy="345.93" r="0.920062" fill="black"/>
</g>
</g>
<path id="Foul Lines" d="M485.96 175.532L250.976 410.515L15.8549 175.395" fill="none" stroke="black" stroke-width="1.002"/>
<g id="Measurements">
<path id="406" d="M247.758 8.69922V7.27922H244.588V6.10922L247.568 1.59922H249.188V6.03922H250.028V7.27922H249.188V8.69922H247.758ZM245.928 6.03922H247.758V3.38922L245.928 6.03922ZM253.304 8.85922C251.704 8.85922 250.744 7.44922 250.744 5.15922C250.744 2.85922 251.704 1.43922 253.304 1.43922C254.904 1.43922 255.864 2.85922 255.864 5.15922C255.864 7.44922 254.904 8.85922 253.304 8.85922ZM252.204 5.15922C252.204 5.58922 252.234 5.95922 252.294 6.26922L253.984 3.07922C253.804 2.82922 253.574 2.69922 253.304 2.69922C252.614 2.69922 252.204 3.51922 252.204 5.15922ZM253.304 7.59922C253.994 7.59922 254.404 6.78922 254.404 5.15922C254.404 4.72922 254.374 4.34922 254.314 4.02922L252.624 7.21922C252.804 7.46922 253.034 7.59922 253.304 7.59922ZM259.32 8.85922C257.59 8.85922 256.68 7.68922 256.68 5.62922C256.68 3.27922 257.49 1.43922 259.58 1.43922C260.98 1.43922 261.63 2.19922 261.89 3.21922L260.45 3.31922C260.35 2.95922 260.12 2.69922 259.58 2.69922C258.84 2.69922 258.32 3.20922 258.16 4.42922C258.5 4.12922 258.98 3.90922 259.61 3.90922C261.02 3.90922 261.92 4.85922 261.92 6.28922C261.92 7.86922 260.89 8.85922 259.32 8.85922ZM259.29 7.57922C260.04 7.57922 260.46 7.13922 260.46 6.33922C260.46 5.59922 260.08 5.11922 259.35 5.11922C258.61 5.11922 258.14 5.60922 258.14 6.34922C258.14 7.02922 258.56 7.57922 259.29 7.57922Z" fill="black"/>
<path id="390" d="M398.696 56.2049C397.066 56.2049 396.256 55.3749 396.186 54.0849L397.626 54.0149C397.686 54.7049 398.146 54.9449 398.726 54.9449C399.356 54.9449 399.846 54.6449 399.846 53.9449C399.846 53.2649 399.396 52.9049 398.656 52.9049H398.126V51.7749H398.656C399.216 51.7749 399.626 51.5249 399.626 50.9149C399.626 50.3249 399.276 50.0349 398.716 50.0349C398.096 50.0349 397.796 50.3449 397.736 50.8349L396.296 50.7649C396.436 49.5549 397.266 48.7849 398.726 48.7849C400.186 48.7849 401.086 49.5049 401.086 50.7249C401.086 51.4949 400.686 52.0049 399.936 52.2449C400.806 52.4949 401.306 53.1449 401.306 54.0449C401.306 55.3849 400.296 56.2049 398.696 56.2049ZM404.722 48.7849C406.452 48.7849 407.362 49.9549 407.362 52.0149C407.362 54.3649 406.552 56.2049 404.462 56.2049C403.062 56.2049 402.412 55.4449 402.152 54.4249L403.592 54.3249C403.692 54.6849 403.922 54.9449 404.462 54.9449C405.202 54.9449 405.722 54.4349 405.882 53.2149C405.542 53.5149 405.062 53.7349 404.432 53.7349C403.022 53.7349 402.122 52.7849 402.122 51.3549C402.122 49.7749 403.152 48.7849 404.722 48.7849ZM404.752 50.0649C404.002 50.0649 403.582 50.5049 403.582 51.3049C403.582 52.0449 403.962 52.5249 404.692 52.5249C405.432 52.5249 405.902 52.0349 405.902 51.2949C405.902 50.6149 405.482 50.0649 404.752 50.0649ZM410.738 56.2049C409.138 56.2049 408.178 54.7949 408.178 52.5049C408.178 50.2049 409.138 48.7849 410.738 48.7849C412.338 48.7849 413.298 50.2049 413.298 52.5049C413.298 54.7949 412.338 56.2049 410.738 56.2049ZM409.638 52.5049C409.638 52.9349 409.668 53.3049 409.728 53.6149L411.418 50.4249C411.238 50.1749 411.008 50.0449 410.738 50.0449C410.048 50.0449 409.638 50.8649 409.638 52.5049ZM410.738 54.9449C411.428 54.9449 411.838 54.1349 411.838 52.5049C411.838 52.0749 411.808 51.6949 411.748 51.3749L410.058 54.5649C410.238 54.8149 410.468 54.9449 410.738 54.9449Z" fill="black"/>
<path id="390_2" d="M88.2702 56.2049C86.6402 56.2049 85.8302 55.3749 85.7602 54.0849L87.2002 54.0149C87.2602 54.7049 87.7202 54.9449 88.3002 54.9449C88.9302 54.9449 89.4202 54.6449 89.4202 53.9449C89.4202 53.2649 88.9702 52.9049 88.2302 52.9049H87.7002V51.7749H88.2302C88.7902 51.7749 89.2002 51.5249 89.2002 50.9149C89.2002 50.3249 88.8502 50.0349 88.2902 50.0349C87.6702 50.0349 87.3702 50.3449 87.3102 50.8349L85.8702 50.7649C86.0102 49.5549 86.8402 48.7849 88.3002 48.7849C89.7602 48.7849 90.6602 49.5049 90.6602 50.7249C90.6602 51.4949 90.2602 52.0049 89.5102 52.2449C90.3802 52.4949 90.8802 53.1449 90.8802 54.0449C90.8802 55.3849 89.8702 56.2049 88.2702 56.2049ZM94.2963 48.7849C96.0263 48.7849 96.9363 49.9549 96.9363 52.0149C96.9363 54.3649 96.1263 56.2049 94.0363 56.2049C92.6363 56.2049 91.9863 55.4449 91.7263 54.4249L93.1663 54.3249C93.2663 54.6849 93.4963 54.9449 94.0363 54.9449C94.7763 54.9449 95.2963 54.4349 95.4563 53.2149C95.1163 53.5149 94.6363 53.7349 94.0063 53.7349C92.5963 53.7349 91.6963 52.7849 91.6963 51.3549C91.6963 49.7749 92.7263 48.7849 94.2963 48.7849ZM94.3263 50.0649C93.5763 50.0649 93.1563 50.5049 93.1563 51.3049C93.1563 52.0449 93.5363 52.5249 94.2663 52.5249C95.0063 52.5249 95.4763 52.0349 95.4763 51.2949C95.4763 50.6149 95.0563 50.0649 94.3263 50.0649ZM100.312 56.2049C98.7124 56.2049 97.7524 54.7949 97.7524 52.5049C97.7524 50.2049 98.7124 48.7849 100.312 48.7849C101.912 48.7849 102.872 50.2049 102.872 52.5049C102.872 54.7949 101.912 56.2049 100.312 56.2049ZM99.2124 52.5049C99.2124 52.9349 99.2424 53.3049 99.3024 53.6149L100.992 50.4249C100.812 50.1749 100.582 50.0449 100.312 50.0449C99.6224 50.0449 99.2124 50.8649 99.2124 52.5049ZM100.312 54.9449C101.002 54.9449 101.412 54.1349 101.412 52.5049C101.412 52.0749 101.382 51.6949 101.322 51.3749L99.6324 54.5649C99.8124 54.8149 100.042 54.9449 100.312 54.9449Z" fill="black"/>
<path id="340" d="M464.938 177.598C463.308 177.598 462.498 176.767 462.428 175.477L463.868 175.407C463.928 176.097 464.388 176.337 464.968 176.337C465.598 176.337 466.088 176.037 466.088 175.337C466.088 174.657 465.638 174.297 464.898 174.297H464.368V173.167H464.898C465.458 173.167 465.868 172.917 465.868 172.307C465.868 171.717 465.518 171.427 464.958 171.427C464.338 171.427 464.038 171.737 463.978 172.227L462.538 172.158C462.678 170.947 463.508 170.177 464.968 170.177C466.428 170.177 467.328 170.897 467.328 172.117C467.328 172.887 466.928 173.397 466.178 173.637C467.048 173.887 467.548 174.537 467.548 175.437C467.548 176.778 466.538 177.598 464.938 177.598ZM471.434 177.438V176.017H468.264V174.847L471.244 170.337H472.864V174.777H473.704V176.017H472.864V177.438H471.434ZM469.604 174.777H471.434V172.127L469.604 174.777ZM476.98 177.598C475.38 177.598 474.42 176.188 474.42 173.897C474.42 171.597 475.38 170.177 476.98 170.177C478.58 170.177 479.54 171.597 479.54 173.897C479.54 176.188 478.58 177.598 476.98 177.598ZM475.88 173.897C475.88 174.327 475.91 174.697 475.97 175.007L477.66 171.817C477.48 171.567 477.25 171.437 476.98 171.437C476.29 171.437 475.88 172.257 475.88 173.897ZM476.98 176.337C477.67 176.337 478.08 175.527 478.08 173.897C478.08 173.467 478.05 173.087 477.99 172.767L476.3 175.957C476.48 176.207 476.71 176.337 476.98 176.337Z" fill="black"/>
<path id="340_2" d="M24.5783 177.598C22.9483 177.598 22.1383 176.767 22.0683 175.477L23.5083 175.407C23.5683 176.097 24.0283 176.337 24.6083 176.337C25.2383 176.337 25.7283 176.037 25.7283 175.337C25.7283 174.657 25.2783 174.297 24.5383 174.297H24.0083V173.167H24.5383C25.0983 173.167 25.5083 172.917 25.5083 172.307C25.5083 171.717 25.1583 171.427 24.5983 171.427C23.9783 171.427 23.6783 171.737 23.6183 172.227L22.1783 172.158C22.3183 170.947 23.1483 170.177 24.6083 170.177C26.0683 170.177 26.9683 170.897 26.9683 172.117C26.9683 172.887 26.5683 173.397 25.8183 173.637C26.6883 173.887 27.1883 174.537 27.1883 175.437C27.1883 176.778 26.1783 177.598 24.5783 177.598ZM31.0744 177.438V176.017H27.9044V174.847L30.8844 170.337H32.5044V174.777H33.3444V176.017H32.5044V177.438H31.0744ZM29.2444 174.777H31.0744V172.127L29.2444 174.777ZM36.6205 177.598C35.0205 177.598 34.0605 176.188 34.0605 173.897C34.0605 171.597 35.0205 170.177 36.6205 170.177C38.2205 170.177 39.1805 171.597 39.1805 173.897C39.1805 176.188 38.2205 177.598 36.6205 177.598ZM35.5205 173.897C35.5205 174.327 35.5505 174.697 35.6105 175.007L37.3005 171.817C37.1205 171.567 36.8905 171.437 36.6205 171.437C35.9305 171.437 35.5205 172.257 35.5205 173.897ZM36.6205 176.337C37.3105 176.337 37.7205 175.527 37.7205 173.897C37.7205 173.467 37.6905 173.087 37.6305 172.767L35.9405 175.957C36.1205 176.207 36.3505 176.337 36.6205 176.337Z" fill="black"/>
</g>
<path id="field" d="M5.37601 209.826L50.1299 221.308L48.6214 230.736L203.012 462.322C205.524 466.091 209.163 468.964 213.62 469.771C220.79 471.07 233.053 472.399 250.83 472.399H250.834C268.611 472.399 280.875 471.07 288.044 469.771C292.502 468.964 296.14 466.091 298.653 462.322L453.043 230.736L451.534 221.308L496.288 209.826C467.423 86.1127 360.014 11.3203 250.834 11.3203H250.83C141.651 11.3203 34.2408 86.1127 5.37601 209.826Z" fill="#002D62" fill-opacity="0.1" fill="none" stroke="#002D62" stroke-width="1.002"/>
</g>
<defs>
<clipPath id="clip0_95_2662">
<rect width="500" height="469.94" fill="white"/>
</clipPath>
</defs>
</svg>
