<svg width="500" height="470" viewBox="0 0 500 470" fill="none" xmlns="http://www.w3.org/2000/svg">
<g id="atlanta-fulton-county-stadium-1966">
<g id="Infield">
<path d="M339.98 327.766C339.453 325.666 322.032 258.479 250.83 258.479C180.238 258.479 162.505 324.538 161.697 327.699C161.677 327.776 161.668 327.816 161.668 327.816L236.504 402.653C235.305 404.912 234.623 407.489 234.623 410.238C234.623 419.186 241.873 426.445 250.83 426.445C259.778 426.445 267.037 419.186 267.037 410.238C267.037 407.489 266.356 404.912 265.156 402.657L260.695 397.375C257.96 395.278 254.544 394.026 250.83 394.026C247.117 394.026 243.701 395.278 240.971 397.37L197.7 354.1C201.448 350.353 201.448 344.277 197.7 340.53C197.698 340.527 197.694 340.525 197.691 340.522L244.055 294.038C247.8 297.773 253.861 297.773 257.606 294.038L303.431 339.984C303.431 339.984 303.427 339.985 303.424 339.988C299.677 343.736 300.275 350.3 304.022 354.047L260.695 397.375L265.156 402.657L339.98 327.766Z" fill="#D2D2D2"/>
<path d="M259.91 345.706C259.91 350.721 255.845 354.787 250.83 354.787C245.815 354.787 241.75 350.721 241.75 345.706C241.75 340.691 245.815 336.626 250.83 336.626C255.845 336.626 259.91 340.691 259.91 345.706Z" fill="#D2D2D2"/>
</g>
<g id="Guides">
<g id="Home">
<circle id="Ellipse 1" cx="250.827" cy="410.419" r="16.0848" fill="#D2D2D2"/>
<circle id="Ellipse 1_2" cx="250.827" cy="410.418" r="1.62919" fill="black"/>
</g>
<g id="First">
<circle id="Ellipse 1_3" cx="311.125" cy="346.532" r="10.1878" fill="#D2D2D2"/>
<circle id="Ellipse 1_4" cx="311.125" cy="346.532" r="1.0319" fill="black"/>
</g>
<g id="Third">
<circle id="Ellipse 1_5" cx="190.34" cy="346.532" r="10.1878" fill="#D2D2D2"/>
<circle id="Ellipse 1_6" cx="190.34" cy="346.532" r="1.0319" fill="black"/>
</g>
<g id="Second">
<circle id="Ellipse 1_7" cx="250.827" cy="286.67" r="10.1878" fill="#D2D2D2"/>
<circle id="Ellipse 1_8" cx="250.827" cy="286.671" r="1.0319" fill="black"/>
</g>
<g id="Mound">
<circle id="Ellipse 1_9" cx="250.827" cy="345.929" r="9.08365" fill="#D2D2D2"/>
<circle id="Ellipse 1_10" cx="250.827" cy="345.93" r="0.920062" fill="black"/>
</g>
</g>
<path id="Foul Lines" d="M479.321 182.17L250.976 410.516L22.5413 182.082" fill="none" stroke="black" stroke-width="1.002"/>
<g id="Measurements">
<path id="402" d="M245.758 11.6992V10.2792H242.588V9.10922L245.568 4.59922H247.188V9.03922H248.028V10.2792H247.188V11.6992H245.758ZM243.928 9.03922H245.758V6.38922L243.928 9.03922ZM251.304 11.8592C249.704 11.8592 248.744 10.4492 248.744 8.15922C248.744 5.85922 249.704 4.43922 251.304 4.43922C252.904 4.43922 253.864 5.85922 253.864 8.15922C253.864 10.4492 252.904 11.8592 251.304 11.8592ZM250.204 8.15922C250.204 8.58922 250.234 8.95922 250.294 9.26922L251.984 6.07922C251.804 5.82922 251.574 5.69922 251.304 5.69922C250.614 5.69922 250.204 6.51922 250.204 8.15922ZM251.304 10.5992C251.994 10.5992 252.404 9.78922 252.404 8.15922C252.404 7.72922 252.374 7.34922 252.314 7.02922L250.624 10.2192C250.804 10.4692 251.034 10.5992 251.304 10.5992ZM254.74 11.6992C254.74 9.96922 255.32 8.95922 257.3 7.93922C258.03 7.55922 258.39 7.27922 258.39 6.62922C258.39 6.05922 258.06 5.69922 257.43 5.69922C256.71 5.69922 256.36 6.11922 256.24 6.87922L254.77 6.78922C254.91 5.33922 255.82 4.43922 257.45 4.43922C259.04 4.43922 259.86 5.28922 259.86 6.54922C259.86 7.68922 259.37 8.24922 257.97 9.00922C256.82 9.62922 256.41 10.0592 256.37 10.4192H259.86V11.6992H254.74Z" fill="black"/>
<path id="385" d="M99.8375 58.2381C98.2075 58.2381 97.3975 57.4081 97.3275 56.1181L98.7675 56.0481C98.8275 56.7381 99.2875 56.9781 99.8675 56.9781C100.497 56.9781 100.987 56.6781 100.987 55.9781C100.987 55.2981 100.537 54.9381 99.7975 54.9381H99.2675V53.8081H99.7975C100.357 53.8081 100.767 53.5581 100.767 52.9481C100.767 52.3581 100.417 52.0681 99.8575 52.0681C99.2375 52.0681 98.9375 52.3781 98.8775 52.8681L97.4375 52.7981C97.5775 51.5881 98.4075 50.8181 99.8675 50.8181C101.327 50.8181 102.227 51.5381 102.227 52.7581C102.227 53.5281 101.827 54.0381 101.077 54.2781C101.947 54.5281 102.447 55.1781 102.447 56.0781C102.447 57.4181 101.437 58.2381 99.8375 58.2381ZM105.884 58.2381C104.314 58.2381 103.264 57.5181 103.264 56.1381C103.264 55.2081 103.804 54.5481 104.674 54.2681C104.004 54.0081 103.554 53.5181 103.554 52.7781C103.554 51.6381 104.484 50.8181 105.884 50.8181C107.284 50.8181 108.214 51.6381 108.214 52.7781C108.214 53.5181 107.764 54.0081 107.084 54.2681C107.964 54.5481 108.504 55.2081 108.504 56.1381C108.504 57.5181 107.454 58.2381 105.884 58.2381ZM105.884 53.6981C106.394 53.6981 106.744 53.4281 106.744 52.8681C106.744 52.3681 106.404 52.0781 105.884 52.0781C105.364 52.0781 105.024 52.3681 105.024 52.8681C105.024 53.4281 105.374 53.6981 105.884 53.6981ZM105.884 56.9781C106.524 56.9781 107.044 56.6981 107.044 55.9981C107.044 55.3281 106.614 54.9081 105.884 54.9081C105.154 54.9081 104.724 55.3281 104.724 55.9981C104.724 56.6981 105.244 56.9781 105.884 56.9781ZM111.87 58.2381C110.37 58.2381 109.46 57.3481 109.36 56.1781L110.82 56.0981C110.91 56.6781 111.26 56.9781 111.87 56.9781C112.53 56.9781 112.94 56.5581 112.94 55.7481C112.94 54.9581 112.52 54.4981 111.88 54.4981C111.44 54.4981 111.07 54.7581 110.93 55.1181L109.46 55.0481L109.88 50.9781H114.07V52.2581H111.05L110.87 53.7881C111.2 53.5081 111.64 53.3481 112.12 53.3481C113.53 53.3481 114.4 54.3681 114.4 55.7581C114.4 57.2281 113.4 58.2381 111.87 58.2381Z" fill="black"/>
<path id="385_2" d="M388.554 58.2381C386.924 58.2381 386.114 57.4081 386.044 56.1181L387.484 56.0481C387.544 56.7381 388.004 56.9781 388.584 56.9781C389.214 56.9781 389.704 56.6781 389.704 55.9781C389.704 55.2981 389.254 54.9381 388.514 54.9381H387.984V53.8081H388.514C389.074 53.8081 389.484 53.5581 389.484 52.9481C389.484 52.3581 389.134 52.0681 388.574 52.0681C387.954 52.0681 387.654 52.3781 387.594 52.8681L386.154 52.7981C386.294 51.5881 387.124 50.8181 388.584 50.8181C390.044 50.8181 390.944 51.5381 390.944 52.7581C390.944 53.5281 390.544 54.0381 389.794 54.2781C390.664 54.5281 391.164 55.1781 391.164 56.0781C391.164 57.4181 390.154 58.2381 388.554 58.2381ZM394.6 58.2381C393.03 58.2381 391.98 57.5181 391.98 56.1381C391.98 55.2081 392.52 54.5481 393.39 54.2681C392.72 54.0081 392.27 53.5181 392.27 52.7781C392.27 51.6381 393.2 50.8181 394.6 50.8181C396 50.8181 396.93 51.6381 396.93 52.7781C396.93 53.5181 396.48 54.0081 395.8 54.2681C396.68 54.5481 397.22 55.2081 397.22 56.1381C397.22 57.5181 396.17 58.2381 394.6 58.2381ZM394.6 53.6981C395.11 53.6981 395.46 53.4281 395.46 52.8681C395.46 52.3681 395.12 52.0781 394.6 52.0781C394.08 52.0781 393.74 52.3681 393.74 52.8681C393.74 53.4281 394.09 53.6981 394.6 53.6981ZM394.6 56.9781C395.24 56.9781 395.76 56.6981 395.76 55.9981C395.76 55.3281 395.33 54.9081 394.6 54.9081C393.87 54.9081 393.44 55.3281 393.44 55.9981C393.44 56.6981 393.96 56.9781 394.6 56.9781ZM400.586 58.2381C399.086 58.2381 398.176 57.3481 398.076 56.1781L399.536 56.0981C399.626 56.6781 399.976 56.9781 400.586 56.9781C401.246 56.9781 401.656 56.5581 401.656 55.7481C401.656 54.9581 401.236 54.4981 400.596 54.4981C400.156 54.4981 399.786 54.7581 399.646 55.1181L398.176 55.0481L398.596 50.9781H402.786V52.2581H399.766L399.586 53.7881C399.916 53.5081 400.356 53.3481 400.836 53.3481C402.246 53.3481 403.116 54.3681 403.116 55.7581C403.116 57.2281 402.116 58.2381 400.586 58.2381Z" fill="black"/>
<path id="330" d="M459.938 184.098C458.308 184.098 457.498 183.267 457.428 181.977L458.868 181.907C458.928 182.597 459.388 182.837 459.968 182.837C460.598 182.837 461.088 182.537 461.088 181.837C461.088 181.157 460.638 180.797 459.898 180.797H459.368V179.667H459.898C460.458 179.667 460.868 179.417 460.868 178.807C460.868 178.217 460.518 177.927 459.958 177.927C459.338 177.927 459.038 178.237 458.978 178.727L457.538 178.658C457.678 177.447 458.508 176.677 459.968 176.677C461.428 176.677 462.328 177.397 462.328 178.617C462.328 179.387 461.928 179.897 461.178 180.137C462.048 180.387 462.548 181.037 462.548 181.937C462.548 183.278 461.538 184.098 459.938 184.098ZM465.934 184.098C464.304 184.098 463.494 183.267 463.424 181.977L464.864 181.907C464.924 182.597 465.384 182.837 465.964 182.837C466.594 182.837 467.084 182.537 467.084 181.837C467.084 181.157 466.634 180.797 465.894 180.797H465.364V179.667H465.894C466.454 179.667 466.864 179.417 466.864 178.807C466.864 178.217 466.514 177.927 465.954 177.927C465.334 177.927 465.034 178.237 464.974 178.727L463.534 178.658C463.674 177.447 464.504 176.677 465.964 176.677C467.424 176.677 468.324 177.397 468.324 178.617C468.324 179.387 467.924 179.897 467.174 180.137C468.044 180.387 468.544 181.037 468.544 181.937C468.544 183.278 467.534 184.098 465.934 184.098ZM471.98 184.098C470.38 184.098 469.42 182.688 469.42 180.397C469.42 178.097 470.38 176.677 471.98 176.677C473.58 176.677 474.54 178.097 474.54 180.397C474.54 182.688 473.58 184.098 471.98 184.098ZM470.88 180.397C470.88 180.827 470.91 181.197 470.97 181.507L472.66 178.317C472.48 178.067 472.25 177.937 471.98 177.937C471.29 177.937 470.88 178.757 470.88 180.397ZM471.98 182.837C472.67 182.837 473.08 182.027 473.08 180.397C473.08 179.967 473.05 179.587 472.99 179.267L471.3 182.457C471.48 182.707 471.71 182.837 471.98 182.837Z" fill="black"/>
<path id="330_2" d="M30.5783 183.598C28.9483 183.598 28.1383 182.767 28.0683 181.477L29.5083 181.407C29.5683 182.097 30.0283 182.337 30.6083 182.337C31.2383 182.337 31.7283 182.037 31.7283 181.337C31.7283 180.657 31.2783 180.297 30.5383 180.297H30.0083V179.167H30.5383C31.0983 179.167 31.5083 178.917 31.5083 178.307C31.5083 177.717 31.1583 177.427 30.5983 177.427C29.9783 177.427 29.6783 177.737 29.6183 178.227L28.1783 178.158C28.3183 176.947 29.1483 176.177 30.6083 176.177C32.0683 176.177 32.9683 176.897 32.9683 178.117C32.9683 178.887 32.5683 179.397 31.8183 179.637C32.6883 179.887 33.1883 180.537 33.1883 181.437C33.1883 182.778 32.1783 183.598 30.5783 183.598ZM36.5744 183.598C34.9444 183.598 34.1344 182.767 34.0644 181.477L35.5044 181.407C35.5644 182.097 36.0244 182.337 36.6044 182.337C37.2344 182.337 37.7244 182.037 37.7244 181.337C37.7244 180.657 37.2744 180.297 36.5344 180.297H36.0044V179.167H36.5344C37.0944 179.167 37.5044 178.917 37.5044 178.307C37.5044 177.717 37.1544 177.427 36.5944 177.427C35.9744 177.427 35.6744 177.737 35.6144 178.227L34.1744 178.158C34.3144 176.947 35.1444 176.177 36.6044 176.177C38.0644 176.177 38.9644 176.897 38.9644 178.117C38.9644 178.887 38.5644 179.397 37.8144 179.637C38.6844 179.887 39.1844 180.537 39.1844 181.437C39.1844 182.778 38.1744 183.598 36.5744 183.598ZM42.6205 183.598C41.0205 183.598 40.0605 182.188 40.0605 179.897C40.0605 177.597 41.0205 176.177 42.6205 176.177C44.2205 176.177 45.1805 177.597 45.1805 179.897C45.1805 182.188 44.2205 183.598 42.6205 183.598ZM41.5205 179.897C41.5205 180.327 41.5505 180.697 41.6105 181.007L43.3005 177.817C43.1205 177.567 42.8905 177.437 42.6205 177.437C41.9305 177.437 41.5205 178.257 41.5205 179.897ZM42.6205 182.337C43.3105 182.337 43.7205 181.527 43.7205 179.897C43.7205 179.467 43.6905 179.087 43.6305 178.767L41.9405 181.957C42.1205 182.207 42.3505 182.337 42.6205 182.337Z" fill="black"/>
</g>
<path id="field" d="M250.83 16.8594C130.606 16.8594 41.7553 109.445 20.1791 189.969L32.8259 202.616C20.1791 267.163 26.6808 312.648 51.0564 354.867L67.4805 346.655C125.342 446.875 201.943 462.281 250.83 462.281C299.717 462.281 376.317 446.875 434.179 346.655L450.603 354.867C474.979 312.648 481.48 267.163 468.834 202.616L481.48 189.969C459.904 109.445 371.054 16.8594 250.83 16.8594Z" fill="#0C2340" fill-opacity="0.1" fill="none" stroke="#0C2340" stroke-width="1.002"/>
</g>
</svg>
