<svg width="500" height="470" viewBox="0 0 500 470" fill="none" xmlns="http://www.w3.org/2000/svg">
<g id="atlanta-fulton-county-stadium-1974">
<path id="field" d="M32.8259 202.616L20.1791 189.969L53.6843 125.886L112.985 56.4775L181.046 30.5322L250.829 16.7188L320.612 30.5322L388.673 56.4775L447.974 125.886L481.479 189.969L468.833 202.616L458.082 257.964C458.082 281.55 450.015 320.062 433.149 349.274L409.564 337.818C385.304 380.272 374.442 391.276 331.057 416.325V425.759L323.308 423.4L295.679 455.072C270.569 461.801 262.331 461.8 251.004 461.8H250.655C239.328 461.8 231.09 461.801 205.98 455.072L178.351 423.4L170.601 425.759V416.325C127.217 391.276 116.354 380.272 92.095 337.818L68.5095 349.274C51.6437 320.062 43.5762 281.55 43.5762 257.964L32.8259 202.616Z" fill="#0C2340" fill-opacity="0.1" fill="none" stroke="#0C2340" stroke-width="1.002"/>
<g id="Infield">
<path d="M339.98 327.766C339.453 325.666 322.032 258.479 250.83 258.479C180.238 258.479 162.505 324.538 161.697 327.699C161.677 327.776 161.668 327.816 161.668 327.816L236.504 402.653C235.305 404.912 234.623 407.489 234.623 410.238C234.623 419.186 241.873 426.445 250.83 426.445C259.778 426.445 267.037 419.186 267.037 410.238C267.037 407.489 266.356 404.912 265.156 402.657L260.695 397.375C257.96 395.278 254.544 394.026 250.83 394.026C247.117 394.026 243.701 395.278 240.971 397.37L197.7 354.1C201.448 350.353 201.448 344.277 197.7 340.53C197.698 340.527 197.694 340.525 197.691 340.522L244.055 294.038C247.8 297.773 253.861 297.773 257.606 294.038L303.431 339.984C303.431 339.984 303.427 339.985 303.424 339.988C299.677 343.736 300.275 350.3 304.022 354.047L260.695 397.375L265.156 402.657L339.98 327.766Z" fill="#D2D2D2"/>
<path d="M259.91 345.706C259.91 350.721 255.845 354.787 250.83 354.787C245.815 354.787 241.75 350.721 241.75 345.706C241.75 340.691 245.815 336.626 250.83 336.626C255.845 336.626 259.91 340.691 259.91 345.706Z" fill="#D2D2D2"/>
</g>
<g id="Guides">
<g id="Home">
<circle id="Ellipse 1" cx="250.827" cy="410.419" r="16.0848" fill="#D2D2D2"/>
<circle id="Ellipse 1_2" cx="250.827" cy="410.418" r="1.62919" fill="black"/>
</g>
<g id="First">
<circle id="Ellipse 1_3" cx="311.125" cy="346.532" r="10.1878" fill="#D2D2D2"/>
<circle id="Ellipse 1_4" cx="311.125" cy="346.532" r="1.0319" fill="black"/>
</g>
<g id="Third">
<circle id="Ellipse 1_5" cx="190.34" cy="346.532" r="10.1878" fill="#D2D2D2"/>
<circle id="Ellipse 1_6" cx="190.34" cy="346.532" r="1.0319" fill="black"/>
</g>
<g id="Second">
<circle id="Ellipse 1_7" cx="250.827" cy="286.67" r="10.1878" fill="#D2D2D2"/>
<circle id="Ellipse 1_8" cx="250.827" cy="286.671" r="1.0319" fill="black"/>
</g>
<g id="Mound">
<circle id="Ellipse 1_9" cx="250.827" cy="345.929" r="9.08365" fill="#D2D2D2"/>
<circle id="Ellipse 1_10" cx="250.827" cy="345.93" r="0.920062" fill="black"/>
</g>
</g>
<path id="Foul Lines" d="M477.952 183.539L250.976 410.515L23.8275 183.367" fill="none" stroke="black" stroke-width="1.002"/>
<g id="Measurements">
<path id="402" d="M245.758 11.6992V10.2792H242.588V9.10922L245.568 4.59922H247.188V9.03922H248.028V10.2792H247.188V11.6992H245.758ZM243.928 9.03922H245.758V6.38922L243.928 9.03922ZM251.304 11.8592C249.704 11.8592 248.744 10.4492 248.744 8.15922C248.744 5.85922 249.704 4.43922 251.304 4.43922C252.904 4.43922 253.864 5.85922 253.864 8.15922C253.864 10.4492 252.904 11.8592 251.304 11.8592ZM250.204 8.15922C250.204 8.58922 250.234 8.95922 250.294 9.26922L251.984 6.07922C251.804 5.82922 251.574 5.69922 251.304 5.69922C250.614 5.69922 250.204 6.51922 250.204 8.15922ZM251.304 10.5992C251.994 10.5992 252.404 9.78922 252.404 8.15922C252.404 7.72922 252.374 7.34922 252.314 7.02922L250.624 10.2192C250.804 10.4692 251.034 10.5992 251.304 10.5992ZM254.74 11.6992C254.74 9.96922 255.32 8.95922 257.3 7.93922C258.03 7.55922 258.39 7.27922 258.39 6.62922C258.39 6.05922 258.06 5.69922 257.43 5.69922C256.71 5.69922 256.36 6.11922 256.24 6.87922L254.77 6.78922C254.91 5.33922 255.82 4.43922 257.45 4.43922C259.04 4.43922 259.86 5.28922 259.86 6.54922C259.86 7.68922 259.37 8.24922 257.97 9.00922C256.82 9.62922 256.41 10.0592 256.37 10.4192H259.86V11.6992H254.74Z" fill="black"/>
<path id="385" d="M96.8375 55.2381C95.2075 55.2381 94.3975 54.4081 94.3275 53.1181L95.7675 53.0481C95.8275 53.7381 96.2875 53.9781 96.8675 53.9781C97.4975 53.9781 97.9875 53.6781 97.9875 52.9781C97.9875 52.2981 97.5375 51.9381 96.7975 51.9381H96.2675V50.8081H96.7975C97.3575 50.8081 97.7675 50.5581 97.7675 49.9481C97.7675 49.3581 97.4175 49.0681 96.8575 49.0681C96.2375 49.0681 95.9375 49.3781 95.8775 49.8681L94.4375 49.7981C94.5775 48.5881 95.4075 47.8181 96.8675 47.8181C98.3275 47.8181 99.2275 48.5381 99.2275 49.7581C99.2275 50.5281 98.8275 51.0381 98.0775 51.2781C98.9475 51.5281 99.4475 52.1781 99.4475 53.0781C99.4475 54.4181 98.4375 55.2381 96.8375 55.2381ZM102.884 55.2381C101.314 55.2381 100.264 54.5181 100.264 53.1381C100.264 52.2081 100.804 51.5481 101.674 51.2681C101.004 51.0081 100.554 50.5181 100.554 49.7781C100.554 48.6381 101.484 47.8181 102.884 47.8181C104.284 47.8181 105.214 48.6381 105.214 49.7781C105.214 50.5181 104.764 51.0081 104.084 51.2681C104.964 51.5481 105.504 52.2081 105.504 53.1381C105.504 54.5181 104.454 55.2381 102.884 55.2381ZM102.884 50.6981C103.394 50.6981 103.744 50.4281 103.744 49.8681C103.744 49.3681 103.404 49.0781 102.884 49.0781C102.364 49.0781 102.024 49.3681 102.024 49.8681C102.024 50.4281 102.374 50.6981 102.884 50.6981ZM102.884 53.9781C103.524 53.9781 104.044 53.6981 104.044 52.9981C104.044 52.3281 103.614 51.9081 102.884 51.9081C102.154 51.9081 101.724 52.3281 101.724 52.9981C101.724 53.6981 102.244 53.9781 102.884 53.9781ZM108.87 55.2381C107.37 55.2381 106.46 54.3481 106.36 53.1781L107.82 53.0981C107.91 53.6781 108.26 53.9781 108.87 53.9781C109.53 53.9781 109.94 53.5581 109.94 52.7481C109.94 51.9581 109.52 51.4981 108.88 51.4981C108.44 51.4981 108.07 51.7581 107.93 52.1181L106.46 52.0481L106.88 47.9781H111.07V49.2581H108.05L107.87 50.7881C108.2 50.5081 108.64 50.3481 109.12 50.3481C110.53 50.3481 111.4 51.3681 111.4 52.7581C111.4 54.2281 110.4 55.2381 108.87 55.2381Z" fill="black"/>
<path id="385_2" d="M391.554 55.2381C389.924 55.2381 389.114 54.4081 389.044 53.1181L390.484 53.0481C390.544 53.7381 391.004 53.9781 391.584 53.9781C392.214 53.9781 392.704 53.6781 392.704 52.9781C392.704 52.2981 392.254 51.9381 391.514 51.9381H390.984V50.8081H391.514C392.074 50.8081 392.484 50.5581 392.484 49.9481C392.484 49.3581 392.134 49.0681 391.574 49.0681C390.954 49.0681 390.654 49.3781 390.594 49.8681L389.154 49.7981C389.294 48.5881 390.124 47.8181 391.584 47.8181C393.044 47.8181 393.944 48.5381 393.944 49.7581C393.944 50.5281 393.544 51.0381 392.794 51.2781C393.664 51.5281 394.164 52.1781 394.164 53.0781C394.164 54.4181 393.154 55.2381 391.554 55.2381ZM397.6 55.2381C396.03 55.2381 394.98 54.5181 394.98 53.1381C394.98 52.2081 395.52 51.5481 396.39 51.2681C395.72 51.0081 395.27 50.5181 395.27 49.7781C395.27 48.6381 396.2 47.8181 397.6 47.8181C399 47.8181 399.93 48.6381 399.93 49.7781C399.93 50.5181 399.48 51.0081 398.8 51.2681C399.68 51.5481 400.22 52.2081 400.22 53.1381C400.22 54.5181 399.17 55.2381 397.6 55.2381ZM397.6 50.6981C398.11 50.6981 398.46 50.4281 398.46 49.8681C398.46 49.3681 398.12 49.0781 397.6 49.0781C397.08 49.0781 396.74 49.3681 396.74 49.8681C396.74 50.4281 397.09 50.6981 397.6 50.6981ZM397.6 53.9781C398.24 53.9781 398.76 53.6981 398.76 52.9981C398.76 52.3281 398.33 51.9081 397.6 51.9081C396.87 51.9081 396.44 52.3281 396.44 52.9981C396.44 53.6981 396.96 53.9781 397.6 53.9781ZM403.586 55.2381C402.086 55.2381 401.176 54.3481 401.076 53.1781L402.536 53.0981C402.626 53.6781 402.976 53.9781 403.586 53.9781C404.246 53.9781 404.656 53.5581 404.656 52.7481C404.656 51.9581 404.236 51.4981 403.596 51.4981C403.156 51.4981 402.786 51.7581 402.646 52.1181L401.176 52.0481L401.596 47.9781H405.786V49.2581H402.766L402.586 50.7881C402.916 50.5081 403.356 50.3481 403.836 50.3481C405.246 50.3481 406.116 51.3681 406.116 52.7581C406.116 54.2281 405.116 55.2381 403.586 55.2381Z" fill="black"/>
<path id="330" d="M459.938 184.098C458.308 184.098 457.498 183.267 457.428 181.977L458.868 181.907C458.928 182.597 459.388 182.837 459.968 182.837C460.598 182.837 461.088 182.537 461.088 181.837C461.088 181.157 460.638 180.797 459.898 180.797H459.368V179.667H459.898C460.458 179.667 460.868 179.417 460.868 178.807C460.868 178.217 460.518 177.927 459.958 177.927C459.338 177.927 459.038 178.237 458.978 178.727L457.538 178.658C457.678 177.447 458.508 176.677 459.968 176.677C461.428 176.677 462.328 177.397 462.328 178.617C462.328 179.387 461.928 179.897 461.178 180.137C462.048 180.387 462.548 181.037 462.548 181.937C462.548 183.278 461.538 184.098 459.938 184.098ZM465.934 184.098C464.304 184.098 463.494 183.267 463.424 181.977L464.864 181.907C464.924 182.597 465.384 182.837 465.964 182.837C466.594 182.837 467.084 182.537 467.084 181.837C467.084 181.157 466.634 180.797 465.894 180.797H465.364V179.667H465.894C466.454 179.667 466.864 179.417 466.864 178.807C466.864 178.217 466.514 177.927 465.954 177.927C465.334 177.927 465.034 178.237 464.974 178.727L463.534 178.658C463.674 177.447 464.504 176.677 465.964 176.677C467.424 176.677 468.324 177.397 468.324 178.617C468.324 179.387 467.924 179.897 467.174 180.137C468.044 180.387 468.544 181.037 468.544 181.937C468.544 183.278 467.534 184.098 465.934 184.098ZM471.98 184.098C470.38 184.098 469.42 182.688 469.42 180.397C469.42 178.097 470.38 176.677 471.98 176.677C473.58 176.677 474.54 178.097 474.54 180.397C474.54 182.688 473.58 184.098 471.98 184.098ZM470.88 180.397C470.88 180.827 470.91 181.197 470.97 181.507L472.66 178.317C472.48 178.067 472.25 177.937 471.98 177.937C471.29 177.937 470.88 178.757 470.88 180.397ZM471.98 182.837C472.67 182.837 473.08 182.027 473.08 180.397C473.08 179.967 473.05 179.587 472.99 179.267L471.3 182.457C471.48 182.707 471.71 182.837 471.98 182.837Z" fill="black"/>
<path id="330_2" d="M30.5783 183.598C28.9483 183.598 28.1383 182.767 28.0683 181.477L29.5083 181.407C29.5683 182.097 30.0283 182.337 30.6083 182.337C31.2383 182.337 31.7283 182.037 31.7283 181.337C31.7283 180.657 31.2783 180.297 30.5383 180.297H30.0083V179.167H30.5383C31.0983 179.167 31.5083 178.917 31.5083 178.307C31.5083 177.717 31.1583 177.427 30.5983 177.427C29.9783 177.427 29.6783 177.737 29.6183 178.227L28.1783 178.158C28.3183 176.947 29.1483 176.177 30.6083 176.177C32.0683 176.177 32.9683 176.897 32.9683 178.117C32.9683 178.887 32.5683 179.397 31.8183 179.637C32.6883 179.887 33.1883 180.537 33.1883 181.437C33.1883 182.778 32.1783 183.598 30.5783 183.598ZM36.5744 183.598C34.9444 183.598 34.1344 182.767 34.0644 181.477L35.5044 181.407C35.5644 182.097 36.0244 182.337 36.6044 182.337C37.2344 182.337 37.7244 182.037 37.7244 181.337C37.7244 180.657 37.2744 180.297 36.5344 180.297H36.0044V179.167H36.5344C37.0944 179.167 37.5044 178.917 37.5044 178.307C37.5044 177.717 37.1544 177.427 36.5944 177.427C35.9744 177.427 35.6744 177.737 35.6144 178.227L34.1744 178.158C34.3144 176.947 35.1444 176.177 36.6044 176.177C38.0644 176.177 38.9644 176.897 38.9644 178.117C38.9644 178.887 38.5644 179.397 37.8144 179.637C38.6844 179.887 39.1844 180.537 39.1844 181.437C39.1844 182.778 38.1744 183.598 36.5744 183.598ZM42.6205 183.598C41.0205 183.598 40.0605 182.188 40.0605 179.897C40.0605 177.597 41.0205 176.177 42.6205 176.177C44.2205 176.177 45.1805 177.597 45.1805 179.897C45.1805 182.188 44.2205 183.598 42.6205 183.598ZM41.5205 179.897C41.5205 180.327 41.5505 180.697 41.6105 181.007L43.3005 177.817C43.1205 177.567 42.8905 177.437 42.6205 177.437C41.9305 177.437 41.5205 178.257 41.5205 179.897ZM42.6205 182.337C43.3105 182.337 43.7205 181.527 43.7205 179.897C43.7205 179.467 43.6905 179.087 43.6305 178.767L41.9405 181.957C42.1205 182.207 42.3505 182.337 42.6205 182.337Z" fill="black"/>
</g>
</g>
</svg>
