<svg width="500" height="470" viewBox="0 0 500 470" fill="none" xmlns="http://www.w3.org/2000/svg">
<g id="baker-bowl-1910" clip-path="url(#clip0_85_1474)">
<g id="Infield">
<path d="M339.98 327.765C339.453 325.665 322.032 258.478 250.83 258.478C180.238 258.478 162.505 324.537 161.697 327.698C161.677 327.775 161.668 327.815 161.668 327.815L236.504 402.652C235.305 404.911 234.623 407.488 234.623 410.237C234.623 419.185 241.873 426.444 250.83 426.444C259.778 426.444 267.037 419.185 267.037 410.237C267.037 407.488 266.356 404.911 265.156 402.656L260.695 397.374C257.96 395.277 254.544 394.025 250.83 394.025C247.117 394.025 243.701 395.277 240.971 397.369L197.7 354.099C201.448 350.352 201.448 344.276 197.7 340.529C197.698 340.526 197.694 340.524 197.691 340.521L244.055 294.037C247.8 297.772 253.861 297.772 257.606 294.037L303.431 339.983C303.431 339.983 303.427 339.984 303.424 339.987C299.677 343.735 300.275 350.299 304.022 354.046L260.695 397.374L265.156 402.656L339.98 327.765Z" fill="#D2D2D2"/>
<path d="M259.91 345.705C259.91 350.72 255.845 354.786 250.83 354.786C245.815 354.786 241.75 350.72 241.75 345.705C241.75 340.69 245.815 336.625 250.83 336.625C255.845 336.625 259.91 340.69 259.91 345.705Z" fill="#D2D2D2"/>
</g>
<g id="Guides">
<g id="Home">
<circle id="Ellipse 1" cx="250.827" cy="410.42" r="16.0848" fill="#D2D2D2"/>
<circle id="Ellipse 1_2" cx="250.827" cy="410.42" r="1.62919" fill="black"/>
</g>
<g id="First">
<circle id="Ellipse 1_3" cx="311.125" cy="346.532" r="10.1878" fill="#D2D2D2"/>
<circle id="Ellipse 1_4" cx="311.125" cy="346.532" r="1.0319" fill="black"/>
</g>
<g id="Third">
<circle id="Ellipse 1_5" cx="190.34" cy="346.532" r="10.1878" fill="#D2D2D2"/>
<circle id="Ellipse 1_6" cx="190.34" cy="346.532" r="1.0319" fill="black"/>
</g>
<g id="Second">
<circle id="Ellipse 1_7" cx="250.827" cy="286.67" r="10.1878" fill="#D2D2D2"/>
<circle id="Ellipse 1_8" cx="250.827" cy="286.671" r="1.0319" fill="black"/>
</g>
<g id="Mound">
<circle id="Ellipse 1_9" cx="250.827" cy="345.928" r="9.08365" fill="#D2D2D2"/>
<circle id="Ellipse 1_10" cx="250.827" cy="345.929" r="0.920062" fill="black"/>
</g>
</g>
<path id="Foul Lines" d="M440.577 220.914L250.975 410.516L18.843 178.384" fill="none" stroke="black" stroke-width="1.002"/>
<g id="Measurements">
<path id="388" d="M224.703 41.3661C223.073 41.3661 222.263 40.5361 222.193 39.2461L223.633 39.1761C223.693 39.8661 224.153 40.1061 224.733 40.1061C225.363 40.1061 225.853 39.8061 225.853 39.1061C225.853 38.4261 225.403 38.0661 224.663 38.0661H224.133V36.9361H224.663C225.223 36.9361 225.633 36.6861 225.633 36.0761C225.633 35.4861 225.283 35.1961 224.723 35.1961C224.103 35.1961 223.803 35.5061 223.743 35.9961L222.303 35.9261C222.443 34.7161 223.273 33.9461 224.733 33.9461C226.193 33.9461 227.093 34.6661 227.093 35.8861C227.093 36.6561 226.693 37.1661 225.943 37.4061C226.813 37.6561 227.313 38.3061 227.313 39.2061C227.313 40.5461 226.303 41.3661 224.703 41.3661ZM230.749 41.3661C229.179 41.3661 228.129 40.6461 228.129 39.2661C228.129 38.3361 228.669 37.6761 229.539 37.3961C228.869 37.1361 228.419 36.6461 228.419 35.9061C228.419 34.7661 229.349 33.9461 230.749 33.9461C232.149 33.9461 233.079 34.7661 233.079 35.9061C233.079 36.6461 232.629 37.1361 231.949 37.3961C232.829 37.6761 233.369 38.3361 233.369 39.2661C233.369 40.6461 232.319 41.3661 230.749 41.3661ZM230.749 36.8261C231.259 36.8261 231.609 36.5561 231.609 35.9961C231.609 35.4961 231.269 35.2061 230.749 35.2061C230.229 35.2061 229.889 35.4961 229.889 35.9961C229.889 36.5561 230.239 36.8261 230.749 36.8261ZM230.749 40.1061C231.389 40.1061 231.909 39.8261 231.909 39.1261C231.909 38.4561 231.479 38.0361 230.749 38.0361C230.019 38.0361 229.589 38.4561 229.589 39.1261C229.589 39.8261 230.109 40.1061 230.749 40.1061ZM236.745 41.3661C235.175 41.3661 234.125 40.6461 234.125 39.2661C234.125 38.3361 234.665 37.6761 235.535 37.3961C234.865 37.1361 234.415 36.6461 234.415 35.9061C234.415 34.7661 235.345 33.9461 236.745 33.9461C238.145 33.9461 239.075 34.7661 239.075 35.9061C239.075 36.6461 238.625 37.1361 237.945 37.3961C238.825 37.6761 239.365 38.3361 239.365 39.2661C239.365 40.6461 238.315 41.3661 236.745 41.3661ZM236.745 36.8261C237.255 36.8261 237.605 36.5561 237.605 35.9961C237.605 35.4961 237.265 35.2061 236.745 35.2061C236.225 35.2061 235.885 35.4961 235.885 35.9961C235.885 36.5561 236.235 36.8261 236.745 36.8261ZM236.745 40.1061C237.385 40.1061 237.905 39.8261 237.905 39.1261C237.905 38.4561 237.475 38.0361 236.745 38.0361C236.015 38.0361 235.585 38.4561 235.585 39.1261C235.585 39.8261 236.105 40.1061 236.745 40.1061Z" fill="black"/>
</g>
<path id="335" d="M30.9531 182.833C29.3231 182.833 28.5131 182.003 28.4431 180.713L29.8831 180.643C29.9431 181.333 30.4031 181.573 30.9831 181.573C31.6131 181.573 32.1031 181.273 32.1031 180.573C32.1031 179.893 31.6531 179.533 30.9131 179.533H30.3831V178.403H30.9131C31.4731 178.403 31.8831 178.153 31.8831 177.543C31.8831 176.953 31.5331 176.663 30.9731 176.663C30.3531 176.663 30.0531 176.973 29.9931 177.463L28.5531 177.393C28.6931 176.183 29.5231 175.413 30.9831 175.413C32.4431 175.413 33.3431 176.133 33.3431 177.353C33.3431 178.123 32.9431 178.633 32.1931 178.873C33.0631 179.123 33.5631 179.773 33.5631 180.673C33.5631 182.013 32.5531 182.833 30.9531 182.833ZM36.9491 182.833C35.3191 182.833 34.5091 182.003 34.4391 180.713L35.8791 180.643C35.9391 181.333 36.3991 181.573 36.9791 181.573C37.6091 181.573 38.0991 181.273 38.0991 180.573C38.0991 179.893 37.6491 179.533 36.9091 179.533H36.3791V178.403H36.9091C37.4691 178.403 37.8791 178.153 37.8791 177.543C37.8791 176.953 37.5291 176.663 36.9691 176.663C36.3491 176.663 36.0491 176.973 35.9891 177.463L34.5491 177.393C34.6891 176.183 35.5191 175.413 36.9791 175.413C38.4391 175.413 39.3391 176.133 39.3391 177.353C39.3391 178.123 38.9391 178.633 38.1891 178.873C39.0591 179.123 39.5591 179.773 39.5591 180.673C39.5591 182.013 38.5491 182.833 36.9491 182.833ZM42.9852 182.833C41.4852 182.833 40.5752 181.943 40.4752 180.773L41.9352 180.693C42.0252 181.273 42.3752 181.573 42.9852 181.573C43.6452 181.573 44.0552 181.153 44.0552 180.343C44.0552 179.553 43.6352 179.093 42.9952 179.093C42.5552 179.093 42.1852 179.353 42.0452 179.713L40.5752 179.643L40.9952 175.573H45.1852V176.853H42.1652L41.9852 178.383C42.3152 178.103 42.7552 177.943 43.2352 177.943C44.6452 177.943 45.5152 178.963 45.5152 180.353C45.5152 181.823 44.5152 182.833 42.9852 182.833Z" fill="black"/>
<path id="field" d="M59.2529 294.583L239.518 474.974C245.765 481.225 255.897 481.228 262.148 474.98L478.625 258.58L321.291 101.826L212.031 39.0859L131.216 65.6548L12.9027 183.968C12.9027 216.609 24.6319 263.944 48.8525 288.165L46.9858 290.031L55.3952 298.441L59.2529 294.583Z" fill="#E81828" fill-opacity="0.1" fill="none" stroke="#E81828" stroke-width="1.002"/>
</g>
<defs>
<clipPath id="clip0_85_1474">
<rect width="500" height="469.94" fill="white"/>
</clipPath>
</defs>
</svg>
