<svg width="500" height="470" viewBox="0 0 500 470" fill="none" xmlns="http://www.w3.org/2000/svg">
<g id="baker-bowl-1925" clip-path="url(#clip0_85_1501)">
<path id="field" d="M59.2529 283.584L239.519 463.859C245.766 470.107 255.895 470.108 262.144 463.862L478.287 247.829L230.912 0.323566L228.051 1.84981C207.162 -9.20117 183.893 -13.814 161.026 -12.0105L177.769 38.7139L132.092 53.3162L12.9027 172.969C12.9027 205.609 24.6319 252.945 48.8525 277.165L46.9858 279.032L55.3952 287.441L59.2529 283.584Z" fill="#E81828" fill-opacity="0.1" fill="none" stroke="#E81828" stroke-width="1.002"/>
<g id="Infield">
<path d="M339.98 327.765C339.453 325.665 322.032 258.478 250.83 258.478C180.238 258.478 162.505 324.537 161.697 327.698C161.677 327.775 161.668 327.815 161.668 327.815L236.504 402.652C235.305 404.911 234.623 407.488 234.623 410.237C234.623 419.185 241.873 426.444 250.83 426.444C259.778 426.444 267.037 419.185 267.037 410.237C267.037 407.488 266.356 404.911 265.157 402.656L260.695 397.374C257.96 395.277 254.544 394.025 250.83 394.025C247.117 394.025 243.701 395.277 240.971 397.369L197.7 354.099C201.448 350.352 201.448 344.276 197.7 340.529C197.698 340.526 197.694 340.524 197.691 340.521L244.055 294.037C247.8 297.772 253.861 297.772 257.606 294.037L303.431 339.983C303.431 339.983 303.427 339.984 303.424 339.987C299.677 343.735 300.275 350.299 304.022 354.046L260.695 397.374L265.157 402.656L339.98 327.765Z" fill="#D2D2D2"/>
<path d="M259.91 345.705C259.91 350.72 255.845 354.786 250.83 354.786C245.815 354.786 241.75 350.72 241.75 345.705C241.75 340.69 245.815 336.625 250.83 336.625C255.845 336.625 259.91 340.69 259.91 345.705Z" fill="#D2D2D2"/>
</g>
<g id="Guides">
<g id="Home">
<circle id="Ellipse 1" cx="250.827" cy="410.42" r="16.0848" fill="#D2D2D2"/>
<circle id="Ellipse 1_2" cx="250.827" cy="410.42" r="1.62919" fill="black"/>
</g>
<g id="First">
<circle id="Ellipse 1_3" cx="311.125" cy="346.532" r="10.1878" fill="#D2D2D2"/>
<circle id="Ellipse 1_4" cx="311.125" cy="346.532" r="1.0319" fill="black"/>
</g>
<g id="Third">
<circle id="Ellipse 1_5" cx="190.34" cy="346.532" r="10.1878" fill="#D2D2D2"/>
<circle id="Ellipse 1_6" cx="190.34" cy="346.532" r="1.0319" fill="black"/>
</g>
<g id="Second">
<circle id="Ellipse 1_7" cx="250.827" cy="286.67" r="10.1878" fill="#D2D2D2"/>
<circle id="Ellipse 1_8" cx="250.827" cy="286.671" r="1.0319" fill="black"/>
</g>
<g id="Mound">
<circle id="Ellipse 1_9" cx="250.827" cy="345.928" r="9.08365" fill="#D2D2D2"/>
<circle id="Ellipse 1_10" cx="250.827" cy="345.929" r="0.920062" fill="black"/>
</g>
</g>
<path id="Foul Lines" d="M445.926 215.565L250.975 410.516L13.2299 172.771" fill="none" stroke="black" stroke-width="1.002"/>
<g id="Measurements">
<path id="412" d="M202.203 9.20605V7.78605H199.033V6.61605L202.013 2.10605H203.633V6.54605H204.473V7.78605H203.633V9.20605H202.203ZM200.373 6.54605H202.203V3.89605L200.373 6.54605ZM205.229 9.20605V7.92605H207.269V4.54605H205.529V3.36605H206.309C207.109 3.36605 207.449 3.02605 207.449 2.10605H208.689V7.92605H210.269V9.20605H205.229ZM211.185 9.20605C211.185 7.47605 211.765 6.46605 213.745 5.44605C214.475 5.06605 214.835 4.78605 214.835 4.13605C214.835 3.56605 214.505 3.20605 213.875 3.20605C213.155 3.20605 212.805 3.62605 212.685 4.38605L211.215 4.29605C211.355 2.84605 212.265 1.94605 213.895 1.94605C215.485 1.94605 216.305 2.79605 216.305 4.05605C216.305 5.19605 215.815 5.75605 214.415 6.51605C213.265 7.13605 212.855 7.56605 212.815 7.92605H216.305V9.20605H211.185Z" fill="black"/>
</g>
<path id="342" d="M26.9531 176.833C25.3231 176.833 24.5131 176.003 24.4431 174.713L25.8831 174.643C25.9431 175.333 26.4031 175.573 26.9831 175.573C27.6131 175.573 28.1031 175.273 28.1031 174.573C28.1031 173.893 27.6531 173.533 26.9131 173.533H26.3831V172.403H26.9131C27.4731 172.403 27.8831 172.153 27.8831 171.543C27.8831 170.953 27.5331 170.663 26.9731 170.663C26.3531 170.663 26.0531 170.973 25.9931 171.463L24.5531 171.393C24.6931 170.183 25.5231 169.413 26.9831 169.413C28.4431 169.413 29.3431 170.133 29.3431 171.353C29.3431 172.123 28.9431 172.633 28.1931 172.873C29.0631 173.123 29.5631 173.773 29.5631 174.673C29.5631 176.013 28.5531 176.833 26.9531 176.833ZM33.4491 176.673V175.253H30.2791V174.083L33.2591 169.573H34.8791V174.013H35.7191V175.253H34.8791V176.673H33.4491ZM31.6191 174.013H33.4491V171.363L31.6191 174.013ZM36.4352 176.673C36.4352 174.943 37.0152 173.933 38.9952 172.913C39.7252 172.533 40.0852 172.253 40.0852 171.603C40.0852 171.033 39.7552 170.673 39.1252 170.673C38.4052 170.673 38.0552 171.093 37.9352 171.853L36.4652 171.763C36.6052 170.313 37.5152 169.413 39.1452 169.413C40.7352 169.413 41.5552 170.263 41.5552 171.523C41.5552 172.663 41.0652 173.223 39.6652 173.983C38.5152 174.603 38.1052 175.033 38.0652 175.393H41.5552V176.673H36.4352Z" fill="black"/>
<path id="281" d="M420.139 218.505C420.139 216.775 420.719 215.765 422.699 214.745C423.429 214.365 423.789 214.085 423.789 213.435C423.789 212.865 423.459 212.505 422.829 212.505C422.109 212.505 421.759 212.925 421.639 213.685L420.169 213.595C420.309 212.145 421.219 211.245 422.849 211.245C424.439 211.245 425.259 212.095 425.259 213.355C425.259 214.495 424.769 215.055 423.369 215.815C422.219 216.435 421.809 216.865 421.769 217.225H425.259V218.505H420.139ZM428.695 218.665C427.125 218.665 426.075 217.945 426.075 216.565C426.075 215.635 426.615 214.975 427.485 214.695C426.815 214.435 426.365 213.945 426.365 213.205C426.365 212.065 427.295 211.245 428.695 211.245C430.095 211.245 431.025 212.065 431.025 213.205C431.025 213.945 430.575 214.435 429.895 214.695C430.775 214.975 431.315 215.635 431.315 216.565C431.315 217.945 430.265 218.665 428.695 218.665ZM428.695 214.125C429.205 214.125 429.555 213.855 429.555 213.295C429.555 212.795 429.215 212.505 428.695 212.505C428.175 212.505 427.835 212.795 427.835 213.295C427.835 213.855 428.185 214.125 428.695 214.125ZM428.695 217.405C429.335 217.405 429.855 217.125 429.855 216.425C429.855 215.755 429.425 215.335 428.695 215.335C427.965 215.335 427.535 215.755 427.535 216.425C427.535 217.125 428.055 217.405 428.695 217.405ZM432.171 218.505V217.225H434.211V213.845H432.471V212.665H433.251C434.051 212.665 434.391 212.325 434.391 211.405H435.631V217.225H437.211V218.505H432.171Z" fill="black"/>
</g>
<defs>
<clipPath id="clip0_85_1501">
<rect width="500" height="469.94" fill="white"/>
</clipPath>
</defs>
</svg>
