<svg width="500" height="470" viewBox="0 0 500 470" fill="none" xmlns="http://www.w3.org/2000/svg">
<g id="baker-bowl-1900" clip-path="url(#clip0_85_1335)">
<g id="Infield">
<path d="M339.98 327.765C339.453 325.665 322.032 258.478 250.83 258.478C180.238 258.478 162.505 324.537 161.697 327.698C161.677 327.775 161.668 327.815 161.668 327.815L236.504 402.652C235.305 404.911 234.623 407.488 234.623 410.237C234.623 419.185 241.873 426.444 250.83 426.444C259.778 426.444 267.037 419.185 267.037 410.237C267.037 407.488 266.356 404.911 265.156 402.656L260.695 397.374C257.96 395.277 254.544 394.025 250.83 394.025C247.117 394.025 243.701 395.277 240.971 397.369L197.7 354.099C201.448 350.352 201.448 344.276 197.7 340.529C197.698 340.526 197.694 340.524 197.691 340.521L244.055 294.037C247.8 297.772 253.861 297.772 257.606 294.037L303.431 339.983C303.431 339.983 303.427 339.984 303.424 339.987C299.677 343.735 300.275 350.299 304.022 354.046L260.695 397.374L265.156 402.656L339.98 327.765Z" fill="#D2D2D2"/>
<path d="M259.91 345.705C259.91 350.72 255.845 354.786 250.83 354.786C245.815 354.786 241.75 350.72 241.75 345.705C241.75 340.69 245.815 336.625 250.83 336.625C255.845 336.625 259.91 340.69 259.91 345.705Z" fill="#D2D2D2"/>
</g>
<g id="Guides">
<g id="Home">
<circle id="Ellipse 1" cx="250.827" cy="410.42" r="16.0848" fill="#D2D2D2"/>
<circle id="Ellipse 1_2" cx="250.827" cy="410.42" r="1.62919" fill="black"/>
</g>
<g id="First">
<circle id="Ellipse 1_3" cx="311.125" cy="346.532" r="10.1878" fill="#D2D2D2"/>
<circle id="Ellipse 1_4" cx="311.125" cy="346.532" r="1.0319" fill="black"/>
</g>
<g id="Third">
<circle id="Ellipse 1_5" cx="190.34" cy="346.532" r="10.1878" fill="#D2D2D2"/>
<circle id="Ellipse 1_6" cx="190.34" cy="346.532" r="1.0319" fill="black"/>
</g>
<g id="Second">
<circle id="Ellipse 1_7" cx="250.827" cy="286.67" r="10.1878" fill="#D2D2D2"/>
<circle id="Ellipse 1_8" cx="250.827" cy="286.671" r="1.0319" fill="black"/>
</g>
<g id="Mound">
<circle id="Ellipse 1_9" cx="250.827" cy="345.928" r="9.08365" fill="#D2D2D2"/>
<circle id="Ellipse 1_10" cx="250.827" cy="345.929" r="0.920062" fill="black"/>
</g>
</g>
<path id="Foul Lines" d="M438.569 222.922L250.975 410.516L-21.6088 137.932" fill="none" stroke="black" stroke-width="1.002"/>
<g id="Measurements">
<path id="408" d="M236.203 11.6992V10.2792H233.033V9.10922L236.013 4.59922H237.633V9.03922H238.473V10.2792H237.633V11.6992H236.203ZM234.373 9.03922H236.203V6.38922L234.373 9.03922ZM241.749 11.8592C240.149 11.8592 239.189 10.4492 239.189 8.15922C239.189 5.85922 240.149 4.43922 241.749 4.43922C243.349 4.43922 244.309 5.85922 244.309 8.15922C244.309 10.4492 243.349 11.8592 241.749 11.8592ZM240.649 8.15922C240.649 8.58922 240.679 8.95922 240.739 9.26922L242.429 6.07922C242.249 5.82922 242.019 5.69922 241.749 5.69922C241.059 5.69922 240.649 6.51922 240.649 8.15922ZM241.749 10.5992C242.439 10.5992 242.849 9.78922 242.849 8.15922C242.849 7.72922 242.819 7.34922 242.759 7.02922L241.069 10.2192C241.249 10.4692 241.479 10.5992 241.749 10.5992ZM247.745 11.8592C246.175 11.8592 245.125 11.1392 245.125 9.75922C245.125 8.82922 245.665 8.16922 246.535 7.88922C245.865 7.62922 245.415 7.13922 245.415 6.39922C245.415 5.25922 246.345 4.43922 247.745 4.43922C249.145 4.43922 250.075 5.25922 250.075 6.39922C250.075 7.13922 249.625 7.62922 248.945 7.88922C249.825 8.16922 250.365 8.82922 250.365 9.75922C250.365 11.1392 249.315 11.8592 247.745 11.8592ZM247.745 7.31922C248.255 7.31922 248.605 7.04922 248.605 6.48922C248.605 5.98922 248.265 5.69922 247.745 5.69922C247.225 5.69922 246.885 5.98922 246.885 6.48922C246.885 7.04922 247.235 7.31922 247.745 7.31922ZM247.745 10.5992C248.385 10.5992 248.905 10.3192 248.905 9.61922C248.905 8.94922 248.475 8.52922 247.745 8.52922C247.015 8.52922 246.585 8.94922 246.585 9.61922C246.585 10.3192 247.105 10.5992 247.745 10.5992Z" fill="black"/>
<path id="390" d="M-7.42173 143.598C-9.05173 143.598 -9.86173 142.768 -9.93173 141.478L-8.49173 141.408C-8.43173 142.098 -7.97173 142.338 -7.39173 142.338C-6.76173 142.338 -6.27173 142.038 -6.27173 141.338C-6.27173 140.658 -6.72173 140.298 -7.46173 140.298H-7.99173V139.168H-7.46173C-6.90173 139.168 -6.49173 138.918 -6.49173 138.308C-6.49173 137.718 -6.84173 137.428 -7.40173 137.428C-8.02173 137.428 -8.32173 137.738 -8.38173 138.228L-9.82173 138.158C-9.68173 136.948 -8.85173 136.178 -7.39173 136.178C-5.93173 136.178 -5.03173 136.898 -5.03173 138.118C-5.03173 138.888 -5.43173 139.398 -6.18173 139.638C-5.31173 139.888 -4.81173 140.538 -4.81173 141.438C-4.81173 142.778 -5.82173 143.598 -7.42173 143.598ZM-1.39564 136.178C0.334359 136.178 1.24436 137.348 1.24436 139.408C1.24436 141.758 0.434359 143.598 -1.65564 143.598C-3.05564 143.598 -3.70564 142.838 -3.96564 141.818L-2.52564 141.718C-2.42564 142.078 -2.19564 142.338 -1.65564 142.338C-0.915641 142.338 -0.395641 141.828 -0.235641 140.608C-0.575641 140.908 -1.05564 141.128 -1.68564 141.128C-3.09564 141.128 -3.99564 140.178 -3.99564 138.748C-3.99564 137.168 -2.96564 136.178 -1.39564 136.178ZM-1.36564 137.458C-2.11564 137.458 -2.53564 137.898 -2.53564 138.698C-2.53564 139.438 -2.15564 139.918 -1.42564 139.918C-0.685641 139.918 -0.215641 139.428 -0.215641 138.688C-0.215641 138.008 -0.635641 137.458 -1.36564 137.458ZM4.62045 143.598C3.02045 143.598 2.06045 142.188 2.06045 139.898C2.06045 137.598 3.02045 136.178 4.62045 136.178C6.22045 136.178 7.18045 137.598 7.18045 139.898C7.18045 142.188 6.22045 143.598 4.62045 143.598ZM3.52045 139.898C3.52045 140.328 3.55045 140.698 3.61045 141.008L5.30045 137.818C5.12045 137.568 4.89045 137.438 4.62045 137.438C3.93045 137.438 3.52045 138.258 3.52045 139.898ZM4.62045 142.338C5.31045 142.338 5.72045 141.528 5.72045 139.898C5.72045 139.468 5.69045 139.088 5.63045 138.768L3.94045 141.958C4.12045 142.208 4.35045 142.338 4.62045 142.338Z" fill="black"/>
</g>
<path id="field" d="M59.2529 294.584L239.491 474.947C245.749 481.209 255.902 481.2 262.148 474.926L476.074 260.053L229.79 13.7695L228.051 12.8498C191.553 -6.45843 147.791 -6.1128 111.603 13.7695L106.94 9.10665L-42.4314 158.478V166.871L12.9027 183.969C12.9027 216.61 24.632 263.945 48.8526 288.165L46.9858 290.032L55.3952 298.442L59.2529 294.584Z" fill="#E81828" fill-opacity="0.1" fill="none" stroke="#E81828" stroke-width="1.002"/>
</g>
<defs>
<clipPath id="clip0_85_1335">
<rect width="500" height="469.94" fill="white"/>
</clipPath>
</defs>
</svg>
