<svg width="500" height="470" viewBox="0 0 500 470" fill="none" xmlns="http://www.w3.org/2000/svg">
<g id="baltimore-memorial-stadium-1954" clip-path="url(#clip0_78_67)">
<g id="Infield">
<path d="M339.98 327.765C339.453 325.665 322.032 258.478 250.83 258.478C180.238 258.478 162.505 324.537 161.697 327.698C161.677 327.775 161.668 327.815 161.668 327.815L236.504 402.652C235.305 404.911 234.623 407.488 234.623 410.237C234.623 419.185 241.873 426.444 250.83 426.444C259.778 426.444 267.037 419.185 267.037 410.237C267.037 407.488 266.356 404.911 265.156 402.656L260.695 397.374C257.96 395.277 254.544 394.025 250.83 394.025C247.117 394.025 243.701 395.277 240.971 397.369L197.7 354.099C201.448 350.352 201.448 344.276 197.7 340.529C197.698 340.526 197.694 340.524 197.691 340.521L244.055 294.037C247.8 297.772 253.861 297.772 257.606 294.037L303.431 339.983C303.431 339.983 303.427 339.984 303.424 339.987C299.677 343.735 300.275 350.299 304.022 354.046L260.695 397.374L265.156 402.656L339.98 327.765Z" fill="#D2D2D2"/>
<path d="M259.91 345.705C259.91 350.72 255.845 354.786 250.83 354.786C245.815 354.786 241.75 350.72 241.75 345.705C241.75 340.69 245.815 336.625 250.83 336.625C255.845 336.625 259.91 340.69 259.91 345.705Z" fill="#D2D2D2"/>
</g>
<g id="Guides">
<g id="Home">
<circle id="Ellipse 1" cx="250.827" cy="410.42" r="16.0848" fill="#D2D2D2"/>
<circle id="Ellipse 1_2" cx="250.827" cy="410.42" r="1.62919" fill="black"/>
</g>
<g id="First">
<circle id="Ellipse 1_3" cx="311.125" cy="346.533" r="10.1878" fill="#D2D2D2"/>
<circle id="Ellipse 1_4" cx="311.125" cy="346.532" r="1.0319" fill="black"/>
</g>
<g id="Third">
<circle id="Ellipse 1_5" cx="190.34" cy="346.533" r="10.1878" fill="#D2D2D2"/>
<circle id="Ellipse 1_6" cx="190.34" cy="346.532" r="1.0319" fill="black"/>
</g>
<g id="Second">
<circle id="Ellipse 1_7" cx="250.827" cy="286.671" r="10.1878" fill="#D2D2D2"/>
<circle id="Ellipse 1_8" cx="250.827" cy="286.671" r="1.0319" fill="black"/>
</g>
<g id="Mound">
<circle id="Ellipse 1_9" cx="250.827" cy="345.929" r="9.08365" fill="#D2D2D2"/>
<circle id="Ellipse 1_10" cx="250.827" cy="345.929" r="0.920062" fill="black"/>
</g>
</g>
<path id="Foul Lines" d="M465.574 195.918L250.976 410.516L35.9658 195.506" fill="none" stroke="black" stroke-width="1.002"/>
<g id="Measurements">
<path id="405" d="M398.196 53.0439V51.6239H395.026V50.4539L398.006 45.9439H399.626V50.3839H400.466V51.6239H399.626V53.0439H398.196ZM396.366 50.3839H398.196V47.7339L396.366 50.3839ZM403.742 53.2039C402.142 53.2039 401.182 51.7939 401.182 49.5039C401.182 47.2039 402.142 45.7839 403.742 45.7839C405.342 45.7839 406.302 47.2039 406.302 49.5039C406.302 51.7939 405.342 53.2039 403.742 53.2039ZM402.642 49.5039C402.642 49.9339 402.672 50.3039 402.732 50.6139L404.422 47.4239C404.242 47.1739 404.012 47.0439 403.742 47.0439C403.052 47.0439 402.642 47.8639 402.642 49.5039ZM403.742 51.9439C404.432 51.9439 404.842 51.1339 404.842 49.5039C404.842 49.0739 404.812 48.6939 404.752 48.3739L403.062 51.5639C403.242 51.8139 403.472 51.9439 403.742 51.9439ZM409.728 53.2039C408.228 53.2039 407.318 52.3139 407.218 51.1439L408.678 51.0639C408.768 51.6439 409.118 51.9439 409.728 51.9439C410.388 51.9439 410.798 51.5239 410.798 50.7139C410.798 49.9239 410.378 49.4639 409.738 49.4639C409.298 49.4639 408.928 49.7239 408.788 50.0839L407.318 50.0139L407.738 45.9439H411.928V47.2239H408.908L408.728 48.7539C409.058 48.4739 409.498 48.3139 409.978 48.3139C411.388 48.3139 412.258 49.3339 412.258 50.7239C412.258 52.1939 411.258 53.2039 409.728 53.2039Z" fill="black"/>
<path id="405_2" d="M92.4901 53.0439V51.6239H89.3201V50.4539L92.3001 45.9439H93.9201V50.3839H94.7601V51.6239H93.9201V53.0439H92.4901ZM90.6601 50.3839H92.4901V47.7339L90.6601 50.3839ZM98.0362 53.2039C96.4362 53.2039 95.4762 51.7939 95.4762 49.5039C95.4762 47.2039 96.4362 45.7839 98.0362 45.7839C99.6362 45.7839 100.596 47.2039 100.596 49.5039C100.596 51.7939 99.6362 53.2039 98.0362 53.2039ZM96.9362 49.5039C96.9362 49.9339 96.9662 50.3039 97.0262 50.6139L98.7162 47.4239C98.5362 47.1739 98.3062 47.0439 98.0362 47.0439C97.3462 47.0439 96.9362 47.8639 96.9362 49.5039ZM98.0362 51.9439C98.7262 51.9439 99.1362 51.1339 99.1362 49.5039C99.1362 49.0739 99.1062 48.6939 99.0462 48.3739L97.3562 51.5639C97.5362 51.8139 97.7662 51.9439 98.0362 51.9439ZM104.022 53.2039C102.522 53.2039 101.612 52.3139 101.512 51.1439L102.972 51.0639C103.062 51.6439 103.412 51.9439 104.022 51.9439C104.682 51.9439 105.092 51.5239 105.092 50.7139C105.092 49.9239 104.672 49.4639 104.032 49.4639C103.592 49.4639 103.222 49.7239 103.082 50.0839L101.612 50.0139L102.032 45.9439H106.222V47.2239H103.202L103.022 48.7539C103.352 48.4739 103.792 48.3139 104.272 48.3139C105.682 48.3139 106.552 49.3339 106.552 50.7239C106.552 52.1939 105.552 53.2039 104.022 53.2039Z" fill="black"/>
<path id="309" d="M443.938 195.666C442.308 195.666 441.498 194.836 441.428 193.546L442.868 193.476C442.928 194.166 443.388 194.406 443.968 194.406C444.598 194.406 445.088 194.106 445.088 193.406C445.088 192.726 444.638 192.366 443.898 192.366H443.368V191.236H443.898C444.458 191.236 444.868 190.986 444.868 190.376C444.868 189.786 444.518 189.496 443.958 189.496C443.338 189.496 443.038 189.806 442.978 190.296L441.538 190.226C441.678 189.016 442.508 188.246 443.968 188.246C445.428 188.246 446.328 188.966 446.328 190.186C446.328 190.956 445.928 191.466 445.178 191.706C446.048 191.956 446.548 192.606 446.548 193.506C446.548 194.846 445.538 195.666 443.938 195.666ZM449.984 195.666C448.384 195.666 447.424 194.256 447.424 191.966C447.424 189.666 448.384 188.246 449.984 188.246C451.584 188.246 452.544 189.666 452.544 191.966C452.544 194.256 451.584 195.666 449.984 195.666ZM448.884 191.966C448.884 192.396 448.914 192.766 448.974 193.076L450.664 189.886C450.484 189.636 450.254 189.506 449.984 189.506C449.294 189.506 448.884 190.326 448.884 191.966ZM449.984 194.406C450.674 194.406 451.084 193.596 451.084 191.966C451.084 191.536 451.054 191.156 450.994 190.836L449.304 194.026C449.484 194.276 449.714 194.406 449.984 194.406ZM455.96 188.246C457.69 188.246 458.6 189.416 458.6 191.476C458.6 193.826 457.79 195.666 455.7 195.666C454.3 195.666 453.65 194.906 453.39 193.886L454.83 193.786C454.93 194.146 455.16 194.406 455.7 194.406C456.44 194.406 456.96 193.896 457.12 192.676C456.78 192.976 456.3 193.196 455.67 193.196C454.26 193.196 453.36 192.246 453.36 190.816C453.36 189.236 454.39 188.246 455.96 188.246ZM455.99 189.526C455.24 189.526 454.82 189.966 454.82 190.766C454.82 191.506 455.2 191.986 455.93 191.986C456.67 191.986 457.14 191.496 457.14 190.756C457.14 190.076 456.72 189.526 455.99 189.526Z" fill="black"/>
<path id="309_2" d="M45.4554 195.666C43.8254 195.666 43.0154 194.836 42.9454 193.546L44.3854 193.476C44.4454 194.166 44.9054 194.406 45.4854 194.406C46.1154 194.406 46.6054 194.106 46.6054 193.406C46.6054 192.726 46.1554 192.366 45.4154 192.366H44.8854V191.236H45.4154C45.9754 191.236 46.3854 190.986 46.3854 190.376C46.3854 189.786 46.0354 189.496 45.4754 189.496C44.8554 189.496 44.5554 189.806 44.4954 190.296L43.0554 190.226C43.1954 189.016 44.0254 188.246 45.4854 188.246C46.9454 188.246 47.8454 188.966 47.8454 190.186C47.8454 190.956 47.4454 191.466 46.6954 191.706C47.5654 191.956 48.0654 192.606 48.0654 193.506C48.0654 194.846 47.0554 195.666 45.4554 195.666ZM51.5015 195.666C49.9015 195.666 48.9415 194.256 48.9415 191.966C48.9415 189.666 49.9015 188.246 51.5015 188.246C53.1015 188.246 54.0615 189.666 54.0615 191.966C54.0615 194.256 53.1015 195.666 51.5015 195.666ZM50.4015 191.966C50.4015 192.396 50.4315 192.766 50.4915 193.076L52.1815 189.886C52.0015 189.636 51.7715 189.506 51.5015 189.506C50.8115 189.506 50.4015 190.326 50.4015 191.966ZM51.5015 194.406C52.1915 194.406 52.6015 193.596 52.6015 191.966C52.6015 191.536 52.5715 191.156 52.5115 190.836L50.8215 194.026C51.0015 194.276 51.2315 194.406 51.5015 194.406ZM57.4776 188.246C59.2076 188.246 60.1176 189.416 60.1176 191.476C60.1176 193.826 59.3076 195.666 57.2176 195.666C55.8176 195.666 55.1676 194.906 54.9076 193.886L56.3476 193.786C56.4476 194.146 56.6776 194.406 57.2176 194.406C57.9576 194.406 58.4776 193.896 58.6376 192.676C58.2976 192.976 57.8176 193.196 57.1876 193.196C55.7776 193.196 54.8776 192.246 54.8776 190.816C54.8776 189.236 55.9076 188.246 57.4776 188.246ZM57.5076 189.526C56.7576 189.526 56.3376 189.966 56.3376 190.766C56.3376 191.506 56.7176 191.986 57.4476 191.986C58.1876 191.986 58.6576 191.496 58.6576 190.756C58.6576 190.076 58.2376 189.526 57.5076 189.526Z" fill="black"/>
</g>
<path id="field" d="M250.829 -24.5791H250.83H341.884C401.284 9.71503 466.41 96.8717 466.41 220.116H446.803C446.803 372.972 322.758 492.215 250.829 492.215H250.83C178.901 492.215 54.8561 372.972 54.8561 220.116H35.249C35.249 96.8717 100.375 9.71503 159.775 -24.5791H250.829Z" fill="#DF4601" fill-opacity="0.1" fill="none" stroke="#DF4601" stroke-width="1.002"/>
</g>
<defs>
<clipPath id="clip0_78_67">
<rect width="500" height="469.94" fill="white"/>
</clipPath>
</defs>
</svg>
