<svg width="500" height="470" viewBox="0 0 500 470" fill="none" xmlns="http://www.w3.org/2000/svg">
<g id="baltimore-memorial-stadium-1964" clip-path="url(#clip0_78_94)">
<g id="Guides">
<g id="Home">
<circle id="Ellipse 1" cx="250.827" cy="410.42" r="16.0848" fill="#D2D2D2"/>
<circle id="Ellipse 1_2" cx="250.827" cy="410.42" r="1.62919" fill="black"/>
</g>
<g id="First">
<circle id="Ellipse 1_3" cx="311.125" cy="346.533" r="10.1878" fill="#D2D2D2"/>
<circle id="Ellipse 1_4" cx="311.125" cy="346.532" r="1.0319" fill="black"/>
</g>
<g id="Third">
<circle id="Ellipse 1_5" cx="190.34" cy="346.533" r="10.1878" fill="#D2D2D2"/>
<circle id="Ellipse 1_6" cx="190.34" cy="346.532" r="1.0319" fill="black"/>
</g>
<g id="Second">
<circle id="Ellipse 1_7" cx="250.827" cy="286.671" r="10.1878" fill="#D2D2D2"/>
<circle id="Ellipse 1_8" cx="250.827" cy="286.671" r="1.0319" fill="black"/>
</g>
<g id="Mound">
<circle id="Ellipse 1_9" cx="250.827" cy="345.929" r="9.08365" fill="#D2D2D2"/>
<circle id="Ellipse 1_10" cx="250.827" cy="345.929" r="0.920062" fill="black"/>
</g>
</g>
<g id="Infield">
<path d="M339.98 327.765C339.453 325.665 322.032 258.478 250.83 258.478C180.238 258.478 162.505 324.537 161.697 327.698C161.677 327.775 161.668 327.815 161.668 327.815L236.504 402.652C235.305 404.911 234.623 407.488 234.623 410.237C234.623 419.185 241.873 426.444 250.83 426.444C259.778 426.444 267.037 419.185 267.037 410.237C267.037 407.488 266.356 404.911 265.156 402.656L260.695 397.374C257.96 395.277 254.544 394.025 250.83 394.025C247.117 394.025 243.701 395.277 240.971 397.369L197.7 354.099C201.448 350.352 201.448 344.276 197.7 340.529C197.698 340.526 197.694 340.524 197.691 340.521L244.055 294.037C247.8 297.772 253.861 297.772 257.606 294.037L303.431 339.983C303.431 339.983 303.427 339.984 303.424 339.987C299.677 343.735 300.275 350.299 304.022 354.046L260.695 397.374L265.156 402.656L339.98 327.765Z" fill="#D2D2D2"/>
<path d="M259.91 345.705C259.91 350.72 255.845 354.786 250.83 354.786C245.815 354.786 241.75 350.72 241.75 345.705C241.75 340.69 245.815 336.625 250.83 336.625C255.845 336.625 259.91 340.69 259.91 345.705Z" fill="#D2D2D2"/>
</g>
<path id="Foul Lines" d="M464.783 196.709L250.976 410.516L36.9972 196.538" fill="none" stroke="black" stroke-width="1.002"/>
<g id="Measurements">
<path id="410" d="M246.203 4.69922V3.27922H243.033V2.10922L246.013 -2.40078H247.633V2.03922H248.473V3.27922H247.633V4.69922H246.203ZM244.373 2.03922H246.203V-0.610781L244.373 2.03922ZM249.229 4.69922V3.41922H251.269V0.0392185H249.529V-1.14078H250.309C251.109 -1.14078 251.449 -1.48078 251.449 -2.40078H252.689V3.41922H254.269V4.69922H249.229ZM257.745 4.85922C256.145 4.85922 255.185 3.44922 255.185 1.15922C255.185 -1.14078 256.145 -2.56078 257.745 -2.56078C259.345 -2.56078 260.305 -1.14078 260.305 1.15922C260.305 3.44922 259.345 4.85922 257.745 4.85922ZM256.645 1.15922C256.645 1.58922 256.675 1.95922 256.735 2.26922L258.425 -0.920782C258.245 -1.17078 258.015 -1.30078 257.745 -1.30078C257.055 -1.30078 256.645 -0.480781 256.645 1.15922ZM257.745 3.59922C258.435 3.59922 258.845 2.78922 258.845 1.15922C258.845 0.729219 258.815 0.349218 258.755 0.0292187L257.065 3.21922C257.245 3.46922 257.475 3.59922 257.745 3.59922Z" fill="black"/>
<path id="380" d="M82.1855 66.9217C80.5555 66.9217 79.7455 66.0917 79.6755 64.8017L81.1155 64.7317C81.1755 65.4217 81.6355 65.6617 82.2155 65.6617C82.8455 65.6617 83.3355 65.3617 83.3355 64.6617C83.3355 63.9817 82.8855 63.6217 82.1455 63.6217H81.6155V62.4917H82.1455C82.7055 62.4917 83.1155 62.2417 83.1155 61.6317C83.1155 61.0417 82.7655 60.7517 82.2055 60.7517C81.5855 60.7517 81.2855 61.0617 81.2255 61.5517L79.7855 61.4817C79.9255 60.2717 80.7555 59.5017 82.2155 59.5017C83.6755 59.5017 84.5755 60.2217 84.5755 61.4417C84.5755 62.2117 84.1755 62.7217 83.4255 62.9617C84.2955 63.2117 84.7955 63.8617 84.7955 64.7617C84.7955 66.1017 83.7855 66.9217 82.1855 66.9217ZM88.2316 66.9217C86.6616 66.9217 85.6116 66.2017 85.6116 64.8217C85.6116 63.8917 86.1516 63.2317 87.0216 62.9517C86.3516 62.6917 85.9016 62.2017 85.9016 61.4617C85.9016 60.3217 86.8316 59.5017 88.2316 59.5017C89.6316 59.5017 90.5616 60.3217 90.5616 61.4617C90.5616 62.2017 90.1116 62.6917 89.4316 62.9517C90.3116 63.2317 90.8516 63.8917 90.8516 64.8217C90.8516 66.2017 89.8016 66.9217 88.2316 66.9217ZM88.2316 62.3817C88.7416 62.3817 89.0916 62.1117 89.0916 61.5517C89.0916 61.0517 88.7516 60.7617 88.2316 60.7617C87.7116 60.7617 87.3716 61.0517 87.3716 61.5517C87.3716 62.1117 87.7216 62.3817 88.2316 62.3817ZM88.2316 65.6617C88.8716 65.6617 89.3916 65.3817 89.3916 64.6817C89.3916 64.0117 88.9616 63.5917 88.2316 63.5917C87.5016 63.5917 87.0716 64.0117 87.0716 64.6817C87.0716 65.3817 87.5916 65.6617 88.2316 65.6617ZM94.2277 66.9217C92.6277 66.9217 91.6677 65.5117 91.6677 63.2217C91.6677 60.9217 92.6277 59.5017 94.2277 59.5017C95.8277 59.5017 96.7877 60.9217 96.7877 63.2217C96.7877 65.5117 95.8277 66.9217 94.2277 66.9217ZM93.1277 63.2217C93.1277 63.6517 93.1577 64.0217 93.2177 64.3317L94.9077 61.1417C94.7277 60.8917 94.4977 60.7617 94.2277 60.7617C93.5377 60.7617 93.1277 61.5817 93.1277 63.2217ZM94.2277 65.6617C94.9177 65.6617 95.3277 64.8517 95.3277 63.2217C95.3277 62.7917 95.2977 62.4117 95.2377 62.0917L93.5477 65.2817C93.7277 65.5317 93.9577 65.6617 94.2277 65.6617Z" fill="black"/>
<path id="380_2" d="M407.454 66.9217C405.824 66.9217 405.014 66.0917 404.944 64.8017L406.384 64.7317C406.444 65.4217 406.904 65.6617 407.484 65.6617C408.114 65.6617 408.604 65.3617 408.604 64.6617C408.604 63.9817 408.154 63.6217 407.414 63.6217H406.884V62.4917H407.414C407.974 62.4917 408.384 62.2417 408.384 61.6317C408.384 61.0417 408.034 60.7517 407.474 60.7517C406.854 60.7517 406.554 61.0617 406.494 61.5517L405.054 61.4817C405.194 60.2717 406.024 59.5017 407.484 59.5017C408.944 59.5017 409.844 60.2217 409.844 61.4417C409.844 62.2117 409.444 62.7217 408.694 62.9617C409.564 63.2117 410.064 63.8617 410.064 64.7617C410.064 66.1017 409.054 66.9217 407.454 66.9217ZM413.5 66.9217C411.93 66.9217 410.88 66.2017 410.88 64.8217C410.88 63.8917 411.42 63.2317 412.29 62.9517C411.62 62.6917 411.17 62.2017 411.17 61.4617C411.17 60.3217 412.1 59.5017 413.5 59.5017C414.9 59.5017 415.83 60.3217 415.83 61.4617C415.83 62.2017 415.38 62.6917 414.7 62.9517C415.58 63.2317 416.12 63.8917 416.12 64.8217C416.12 66.2017 415.07 66.9217 413.5 66.9217ZM413.5 62.3817C414.01 62.3817 414.36 62.1117 414.36 61.5517C414.36 61.0517 414.02 60.7617 413.5 60.7617C412.98 60.7617 412.64 61.0517 412.64 61.5517C412.64 62.1117 412.99 62.3817 413.5 62.3817ZM413.5 65.6617C414.14 65.6617 414.66 65.3817 414.66 64.6817C414.66 64.0117 414.23 63.5917 413.5 63.5917C412.77 63.5917 412.34 64.0117 412.34 64.6817C412.34 65.3817 412.86 65.6617 413.5 65.6617ZM419.496 66.9217C417.896 66.9217 416.936 65.5117 416.936 63.2217C416.936 60.9217 417.896 59.5017 419.496 59.5017C421.096 59.5017 422.056 60.9217 422.056 63.2217C422.056 65.5117 421.096 66.9217 419.496 66.9217ZM418.396 63.2217C418.396 63.6517 418.426 64.0217 418.486 64.3317L420.176 61.1417C419.996 60.8917 419.766 60.7617 419.496 60.7617C418.806 60.7617 418.396 61.5817 418.396 63.2217ZM419.496 65.6617C420.186 65.6617 420.596 64.8517 420.596 63.2217C420.596 62.7917 420.566 62.4117 420.506 62.0917L418.816 65.2817C418.996 65.5317 419.226 65.6617 419.496 65.6617Z" fill="black"/>
<path id="309" d="M443.938 195.666C442.308 195.666 441.498 194.836 441.428 193.546L442.868 193.476C442.928 194.166 443.388 194.406 443.968 194.406C444.598 194.406 445.088 194.106 445.088 193.406C445.088 192.726 444.638 192.366 443.898 192.366H443.368V191.236H443.898C444.458 191.236 444.868 190.986 444.868 190.376C444.868 189.786 444.518 189.496 443.958 189.496C443.338 189.496 443.038 189.806 442.978 190.296L441.538 190.226C441.678 189.016 442.508 188.246 443.968 188.246C445.428 188.246 446.328 188.966 446.328 190.186C446.328 190.956 445.928 191.466 445.178 191.706C446.048 191.956 446.548 192.606 446.548 193.506C446.548 194.846 445.538 195.666 443.938 195.666ZM449.984 195.666C448.384 195.666 447.424 194.256 447.424 191.966C447.424 189.666 448.384 188.246 449.984 188.246C451.584 188.246 452.544 189.666 452.544 191.966C452.544 194.256 451.584 195.666 449.984 195.666ZM448.884 191.966C448.884 192.396 448.914 192.766 448.974 193.076L450.664 189.886C450.484 189.636 450.254 189.506 449.984 189.506C449.294 189.506 448.884 190.326 448.884 191.966ZM449.984 194.406C450.674 194.406 451.084 193.596 451.084 191.966C451.084 191.536 451.054 191.156 450.994 190.836L449.304 194.026C449.484 194.276 449.714 194.406 449.984 194.406ZM455.96 188.246C457.69 188.246 458.6 189.416 458.6 191.476C458.6 193.826 457.79 195.666 455.7 195.666C454.3 195.666 453.65 194.906 453.39 193.886L454.83 193.786C454.93 194.146 455.16 194.406 455.7 194.406C456.44 194.406 456.96 193.896 457.12 192.676C456.78 192.976 456.3 193.196 455.67 193.196C454.26 193.196 453.36 192.246 453.36 190.816C453.36 189.236 454.39 188.246 455.96 188.246ZM455.99 189.526C455.24 189.526 454.82 189.966 454.82 190.766C454.82 191.506 455.2 191.986 455.93 191.986C456.67 191.986 457.14 191.496 457.14 190.756C457.14 190.076 456.72 189.526 455.99 189.526Z" fill="black"/>
<path id="309_2" d="M45.4554 195.666C43.8254 195.666 43.0154 194.836 42.9454 193.546L44.3854 193.476C44.4454 194.166 44.9054 194.406 45.4854 194.406C46.1154 194.406 46.6054 194.106 46.6054 193.406C46.6054 192.726 46.1554 192.366 45.4154 192.366H44.8854V191.236H45.4154C45.9754 191.236 46.3854 190.986 46.3854 190.376C46.3854 189.786 46.0354 189.496 45.4754 189.496C44.8554 189.496 44.5554 189.806 44.4954 190.296L43.0554 190.226C43.1954 189.016 44.0254 188.246 45.4854 188.246C46.9454 188.246 47.8454 188.966 47.8454 190.186C47.8454 190.956 47.4454 191.466 46.6954 191.706C47.5654 191.956 48.0654 192.606 48.0654 193.506C48.0654 194.846 47.0554 195.666 45.4554 195.666ZM51.5015 195.666C49.9015 195.666 48.9415 194.256 48.9415 191.966C48.9415 189.666 49.9015 188.246 51.5015 188.246C53.1015 188.246 54.0615 189.666 54.0615 191.966C54.0615 194.256 53.1015 195.666 51.5015 195.666ZM50.4015 191.966C50.4015 192.396 50.4315 192.766 50.4915 193.076L52.1815 189.886C52.0015 189.636 51.7715 189.506 51.5015 189.506C50.8115 189.506 50.4015 190.326 50.4015 191.966ZM51.5015 194.406C52.1915 194.406 52.6015 193.596 52.6015 191.966C52.6015 191.536 52.5715 191.156 52.5115 190.836L50.8215 194.026C51.0015 194.276 51.2315 194.406 51.5015 194.406ZM57.4776 188.246C59.2076 188.246 60.1176 189.416 60.1176 191.476C60.1176 193.826 59.3076 195.666 57.2176 195.666C55.8176 195.666 55.1676 194.906 54.9076 193.886L56.3476 193.786C56.4476 194.146 56.6776 194.406 57.2176 194.406C57.9576 194.406 58.4776 193.896 58.6376 192.676C58.2976 192.976 57.8176 193.196 57.1876 193.196C55.7776 193.196 54.8776 192.246 54.8776 190.816C54.8776 189.236 55.9076 188.246 57.4776 188.246ZM57.5076 189.526C56.7576 189.526 56.3376 189.966 56.3376 190.766C56.3376 191.506 56.7176 191.986 57.4476 191.986C58.1876 191.986 58.6576 191.496 58.6576 190.756C58.6576 190.076 58.2376 189.526 57.5076 189.526Z" fill="black"/>
</g>
<path id="field" d="M256.628 9.4209C262.758 9.4209 268.85 10.3928 274.676 12.3004L331.94 31.0502C337.064 32.7278 341.978 34.9476 346.73 37.4942C367.775 48.772 401.052 64.2323 425.003 83.1801C451.862 104.428 464.722 170.569 464.722 200.635L422.8 247.116C422.8 335.972 314.755 469.215 250.826 469.215H250.83C186.901 469.215 78.8561 335.972 78.8561 247.116L36.9343 200.635C36.9343 170.569 49.7939 104.428 76.6525 83.1801C100.604 64.2323 133.881 48.772 154.926 37.4942C159.678 34.9476 164.592 32.7278 169.716 31.0502L226.98 12.3004C232.806 10.3928 238.898 9.4209 245.028 9.4209H256.628Z" fill="#DF4601" fill-opacity="0.1" fill="none" stroke="#DF4601" stroke-width="1.002"/>
</g>
<defs>
<clipPath id="clip0_78_94">
<rect width="500" height="469.94" fill="white"/>
</clipPath>
</defs>
</svg>
