<svg width="500" height="470" viewBox="0 0 500 470" fill="none" xmlns="http://www.w3.org/2000/svg">
<g id="baltimore-memorial-stadium-1986" clip-path="url(#clip0_78_122)">
<g id="Guides">
<g id="Home">
<circle id="Ellipse 1" cx="250.827" cy="410.42" r="16.0848" fill="#D2D2D2"/>
<circle id="Ellipse 1_2" cx="250.827" cy="410.42" r="1.62919" fill="black"/>
</g>
<g id="First">
<circle id="Ellipse 1_3" cx="311.125" cy="346.533" r="10.1878" fill="#D2D2D2"/>
<circle id="Ellipse 1_4" cx="311.125" cy="346.532" r="1.0319" fill="black"/>
</g>
<g id="Third">
<circle id="Ellipse 1_5" cx="190.34" cy="346.533" r="10.1878" fill="#D2D2D2"/>
<circle id="Ellipse 1_6" cx="190.34" cy="346.532" r="1.0319" fill="black"/>
</g>
<g id="Second">
<circle id="Ellipse 1_7" cx="250.827" cy="286.671" r="10.1878" fill="#D2D2D2"/>
<circle id="Ellipse 1_8" cx="250.827" cy="286.671" r="1.0319" fill="black"/>
</g>
<g id="Mound">
<circle id="Ellipse 1_9" cx="250.827" cy="345.929" r="9.08365" fill="#D2D2D2"/>
<circle id="Ellipse 1_10" cx="250.827" cy="345.929" r="0.920062" fill="black"/>
</g>
</g>
<g id="Infield">
<path d="M339.98 327.765C339.453 325.665 322.032 258.478 250.83 258.478C180.238 258.478 162.505 324.537 161.697 327.698C161.677 327.775 161.668 327.815 161.668 327.815L236.504 402.652C235.305 404.911 234.623 407.488 234.623 410.237C234.623 419.185 241.873 426.444 250.83 426.444C259.778 426.444 267.037 419.185 267.037 410.237C267.037 407.488 266.356 404.911 265.157 402.656L260.695 397.374C257.96 395.277 254.544 394.025 250.83 394.025C247.117 394.025 243.701 395.277 240.971 397.369L197.7 354.099C201.448 350.352 201.448 344.276 197.7 340.529C197.698 340.526 197.694 340.524 197.691 340.521L244.055 294.037C247.8 297.772 253.861 297.772 257.606 294.037L303.431 339.983C303.431 339.983 303.427 339.984 303.424 339.987C299.677 343.735 300.275 350.299 304.022 354.046L260.695 397.374L265.157 402.656L339.98 327.765Z" fill="#D2D2D2"/>
<path d="M259.91 345.705C259.91 350.72 255.845 354.786 250.83 354.786C245.815 354.786 241.75 350.72 241.75 345.705C241.75 340.69 245.815 336.625 250.83 336.625C255.845 336.625 259.91 340.69 259.91 345.705Z" fill="#D2D2D2"/>
</g>
<path id="Foul Lines" d="M464.783 196.709L250.976 410.516L36.9972 196.538" fill="none" stroke="black" stroke-width="1.002"/>
<g id="Measurements">
<path id="405" d="M246.203 8.69922V7.27922H243.033V6.10922L246.013 1.59922H247.633V6.03922H248.473V7.27922H247.633V8.69922H246.203ZM244.373 6.03922H246.203V3.38922L244.373 6.03922ZM251.749 8.85922C250.149 8.85922 249.189 7.44922 249.189 5.15922C249.189 2.85922 250.149 1.43922 251.749 1.43922C253.349 1.43922 254.309 2.85922 254.309 5.15922C254.309 7.44922 253.349 8.85922 251.749 8.85922ZM250.649 5.15922C250.649 5.58922 250.679 5.95922 250.739 6.26922L252.429 3.07922C252.249 2.82922 252.019 2.69922 251.749 2.69922C251.059 2.69922 250.649 3.51922 250.649 5.15922ZM251.749 7.59922C252.439 7.59922 252.849 6.78922 252.849 5.15922C252.849 4.72922 252.819 4.34922 252.759 4.02922L251.069 7.21922C251.249 7.46922 251.479 7.59922 251.749 7.59922ZM257.735 8.85922C256.235 8.85922 255.325 7.96922 255.225 6.79922L256.685 6.71922C256.775 7.29922 257.125 7.59922 257.735 7.59922C258.395 7.59922 258.805 7.17922 258.805 6.36922C258.805 5.57922 258.385 5.11922 257.745 5.11922C257.305 5.11922 256.935 5.37922 256.795 5.73922L255.325 5.66922L255.745 1.59922H259.935V2.87922H256.915L256.735 4.40922C257.065 4.12922 257.505 3.96922 257.985 3.96922C259.395 3.96922 260.265 4.98922 260.265 6.37922C260.265 7.84922 259.265 8.85922 257.735 8.85922Z" fill="black"/>
<path id="376" d="M106.389 66.9217C104.759 66.9217 103.949 66.0917 103.879 64.8017L105.319 64.7317C105.379 65.4217 105.839 65.6617 106.419 65.6617C107.049 65.6617 107.539 65.3617 107.539 64.6617C107.539 63.9817 107.089 63.6217 106.349 63.6217H105.819V62.4917H106.349C106.909 62.4917 107.319 62.2417 107.319 61.6317C107.319 61.0417 106.969 60.7517 106.409 60.7517C105.789 60.7517 105.489 61.0617 105.429 61.5517L103.989 61.4817C104.129 60.2717 104.959 59.5017 106.419 59.5017C107.879 59.5017 108.779 60.2217 108.779 61.4417C108.779 62.2117 108.379 62.7217 107.629 62.9617C108.499 63.2117 108.999 63.8617 108.999 64.7617C108.999 66.1017 107.989 66.9217 106.389 66.9217ZM111.105 66.7617C111.105 64.6117 112.005 62.6517 113.475 60.9417H109.975V59.6617H114.895V60.8717C113.265 62.7317 112.595 64.3217 112.595 66.7617H111.105ZM118.451 66.9217C116.721 66.9217 115.811 65.7517 115.811 63.6917C115.811 61.3417 116.621 59.5017 118.711 59.5017C120.111 59.5017 120.761 60.2617 121.021 61.2817L119.581 61.3817C119.481 61.0217 119.251 60.7617 118.711 60.7617C117.971 60.7617 117.451 61.2717 117.291 62.4917C117.631 62.1917 118.111 61.9717 118.741 61.9717C120.151 61.9717 121.051 62.9217 121.051 64.3517C121.051 65.9317 120.021 66.9217 118.451 66.9217ZM118.421 65.6417C119.171 65.6417 119.591 65.2017 119.591 64.4017C119.591 63.6617 119.211 63.1817 118.481 63.1817C117.741 63.1817 117.271 63.6717 117.271 64.4117C117.271 65.0917 117.691 65.6417 118.421 65.6417Z" fill="black"/>
<path id="376_2" d="M386.478 66.9217C384.848 66.9217 384.038 66.0917 383.968 64.8017L385.408 64.7317C385.468 65.4217 385.928 65.6617 386.508 65.6617C387.138 65.6617 387.628 65.3617 387.628 64.6617C387.628 63.9817 387.178 63.6217 386.438 63.6217H385.908V62.4917H386.438C386.998 62.4917 387.408 62.2417 387.408 61.6317C387.408 61.0417 387.058 60.7517 386.498 60.7517C385.878 60.7517 385.578 61.0617 385.518 61.5517L384.078 61.4817C384.218 60.2717 385.048 59.5017 386.508 59.5017C387.968 59.5017 388.868 60.2217 388.868 61.4417C388.868 62.2117 388.468 62.7217 387.718 62.9617C388.588 63.2117 389.088 63.8617 389.088 64.7617C389.088 66.1017 388.078 66.9217 386.478 66.9217ZM391.194 66.7617C391.194 64.6117 392.094 62.6517 393.564 60.9417H390.064V59.6617H394.984V60.8717C393.354 62.7317 392.684 64.3217 392.684 66.7617H391.194ZM398.54 66.9217C396.81 66.9217 395.9 65.7517 395.9 63.6917C395.9 61.3417 396.71 59.5017 398.8 59.5017C400.2 59.5017 400.85 60.2617 401.11 61.2817L399.67 61.3817C399.57 61.0217 399.34 60.7617 398.8 60.7617C398.06 60.7617 397.54 61.2717 397.38 62.4917C397.72 62.1917 398.2 61.9717 398.83 61.9717C400.24 61.9717 401.14 62.9217 401.14 64.3517C401.14 65.9317 400.11 66.9217 398.54 66.9217ZM398.51 65.6417C399.26 65.6417 399.68 65.2017 399.68 64.4017C399.68 63.6617 399.3 63.1817 398.57 63.1817C397.83 63.1817 397.36 63.6717 397.36 64.4117C397.36 65.0917 397.78 65.6417 398.51 65.6417Z" fill="black"/>
<path id="309" d="M443.938 195.666C442.308 195.666 441.498 194.836 441.428 193.546L442.868 193.476C442.928 194.166 443.388 194.406 443.968 194.406C444.598 194.406 445.088 194.106 445.088 193.406C445.088 192.726 444.638 192.366 443.898 192.366H443.368V191.236H443.898C444.458 191.236 444.868 190.986 444.868 190.376C444.868 189.786 444.518 189.496 443.958 189.496C443.338 189.496 443.038 189.806 442.978 190.296L441.538 190.226C441.678 189.016 442.508 188.246 443.968 188.246C445.428 188.246 446.328 188.966 446.328 190.186C446.328 190.956 445.928 191.466 445.178 191.706C446.048 191.956 446.548 192.606 446.548 193.506C446.548 194.846 445.538 195.666 443.938 195.666ZM449.984 195.666C448.384 195.666 447.424 194.256 447.424 191.966C447.424 189.666 448.384 188.246 449.984 188.246C451.584 188.246 452.544 189.666 452.544 191.966C452.544 194.256 451.584 195.666 449.984 195.666ZM448.884 191.966C448.884 192.396 448.914 192.766 448.974 193.076L450.664 189.886C450.484 189.636 450.254 189.506 449.984 189.506C449.294 189.506 448.884 190.326 448.884 191.966ZM449.984 194.406C450.674 194.406 451.084 193.596 451.084 191.966C451.084 191.536 451.054 191.156 450.994 190.836L449.304 194.026C449.484 194.276 449.714 194.406 449.984 194.406ZM455.96 188.246C457.69 188.246 458.6 189.416 458.6 191.476C458.6 193.826 457.79 195.666 455.7 195.666C454.3 195.666 453.65 194.906 453.39 193.886L454.83 193.786C454.93 194.146 455.16 194.406 455.7 194.406C456.44 194.406 456.96 193.896 457.12 192.676C456.78 192.976 456.3 193.196 455.67 193.196C454.26 193.196 453.36 192.246 453.36 190.816C453.36 189.236 454.39 188.246 455.96 188.246ZM455.99 189.526C455.24 189.526 454.82 189.966 454.82 190.766C454.82 191.506 455.2 191.986 455.93 191.986C456.67 191.986 457.14 191.496 457.14 190.756C457.14 190.076 456.72 189.526 455.99 189.526Z" fill="black"/>
<path id="309_2" d="M45.4554 195.666C43.8254 195.666 43.0154 194.836 42.9454 193.546L44.3854 193.476C44.4454 194.166 44.9054 194.406 45.4854 194.406C46.1154 194.406 46.6054 194.106 46.6054 193.406C46.6054 192.726 46.1554 192.366 45.4154 192.366H44.8854V191.236H45.4154C45.9754 191.236 46.3854 190.986 46.3854 190.376C46.3854 189.786 46.0354 189.496 45.4754 189.496C44.8554 189.496 44.5554 189.806 44.4954 190.296L43.0554 190.226C43.1954 189.016 44.0254 188.246 45.4854 188.246C46.9454 188.246 47.8454 188.966 47.8454 190.186C47.8454 190.956 47.4454 191.466 46.6954 191.706C47.5654 191.956 48.0654 192.606 48.0654 193.506C48.0654 194.846 47.0554 195.666 45.4554 195.666ZM51.5015 195.666C49.9015 195.666 48.9415 194.256 48.9415 191.966C48.9415 189.666 49.9015 188.246 51.5015 188.246C53.1015 188.246 54.0615 189.666 54.0615 191.966C54.0615 194.256 53.1015 195.666 51.5015 195.666ZM50.4015 191.966C50.4015 192.396 50.4315 192.766 50.4915 193.076L52.1815 189.886C52.0015 189.636 51.7715 189.506 51.5015 189.506C50.8115 189.506 50.4015 190.326 50.4015 191.966ZM51.5015 194.406C52.1915 194.406 52.6015 193.596 52.6015 191.966C52.6015 191.536 52.5715 191.156 52.5115 190.836L50.8215 194.026C51.0015 194.276 51.2315 194.406 51.5015 194.406ZM57.4776 188.246C59.2076 188.246 60.1176 189.416 60.1176 191.476C60.1176 193.826 59.3076 195.666 57.2176 195.666C55.8176 195.666 55.1676 194.906 54.9076 193.886L56.3476 193.786C56.4476 194.146 56.6776 194.406 57.2176 194.406C57.9576 194.406 58.4776 193.896 58.6376 192.676C58.2976 192.976 57.8176 193.196 57.1876 193.196C55.7776 193.196 54.8776 192.246 54.8776 190.816C54.8776 189.236 55.9076 188.246 57.4776 188.246ZM57.5076 189.526C56.7576 189.526 56.3376 189.966 56.3376 190.766C56.3376 191.506 56.7176 191.986 57.4476 191.986C58.1876 191.986 58.6576 191.496 58.6576 190.756C58.6576 190.076 58.2376 189.526 57.5076 189.526Z" fill="black"/>
</g>
<path id="field" d="M80.8561 248.116L36.9343 200.635C36.9343 164.973 48.2178 127.268 53.9957 117.261C57.2756 111.58 66.2996 102.065 73.7752 94.3313C79.0061 88.9198 85.2074 84.5198 92.0662 81.4209L238.843 15.1061C241.301 13.9954 243.968 13.4209 246.666 13.4209H254.99C257.688 13.4209 260.354 13.9954 262.813 15.1061L409.59 81.4209C416.449 84.5198 422.65 88.9198 427.881 94.3313C435.356 102.065 444.38 111.58 447.66 117.261C453.438 127.268 464.722 164.973 464.722 200.635L420.8 248.116C420.8 336.972 314.755 469.215 250.826 469.215H250.83C186.901 469.215 80.8561 336.972 80.8561 248.116Z" fill="#DF4601" fill-opacity="0.1" fill="none" stroke="#DF4601" stroke-width="1.002"/>
</g>
<defs>
<clipPath id="clip0_78_122">
<rect width="500" height="469.94" fill="white"/>
</clipPath>
</defs>
</svg>
