<svg width="500" height="470" viewBox="0 0 500 470" fill="none" xmlns="http://www.w3.org/2000/svg">
<g id="braves-field-1929" clip-path="url(#clip0_100_3383)">
<g id="Infield">
<path d="M339.98 327.766C339.453 325.666 322.032 258.479 250.83 258.479C180.238 258.479 162.505 324.538 161.697 327.699C161.677 327.776 161.668 327.816 161.668 327.816L236.504 402.653C235.305 404.912 234.623 407.489 234.623 410.238C234.623 419.186 241.873 426.445 250.83 426.445C259.778 426.445 267.037 419.186 267.037 410.238C267.037 407.489 266.356 404.912 265.156 402.657L260.695 397.375C257.96 395.278 254.544 394.026 250.83 394.026C247.117 394.026 243.701 395.278 240.971 397.37L197.7 354.1C201.448 350.353 201.448 344.277 197.7 340.53C197.698 340.527 197.694 340.525 197.691 340.522L244.055 294.038C247.8 297.773 253.861 297.773 257.606 294.038L303.431 339.984C303.431 339.984 303.427 339.985 303.424 339.988C299.677 343.736 300.275 350.3 304.022 354.047L260.695 397.375L265.156 402.657L339.98 327.766Z" fill="#D2D2D2"/>
<path d="M259.91 345.706C259.91 350.721 255.845 354.787 250.83 354.787C245.815 354.787 241.75 350.721 241.75 345.706C241.75 340.691 245.815 336.626 250.83 336.626C255.845 336.626 259.91 340.691 259.91 345.706Z" fill="#D2D2D2"/>
</g>
<g id="Guides">
<g id="Home">
<circle id="Ellipse 1" cx="250.827" cy="410.419" r="16.0848" fill="#D2D2D2"/>
<circle id="Ellipse 1_2" cx="250.827" cy="410.418" r="1.62919" fill="black"/>
</g>
<g id="First">
<circle id="Ellipse 1_3" cx="311.125" cy="346.532" r="10.1878" fill="#D2D2D2"/>
<circle id="Ellipse 1_4" cx="311.125" cy="346.532" r="1.0319" fill="black"/>
</g>
<g id="Third">
<circle id="Ellipse 1_5" cx="190.34" cy="346.532" r="10.1878" fill="#D2D2D2"/>
<circle id="Ellipse 1_6" cx="190.34" cy="346.532" r="1.0319" fill="black"/>
</g>
<g id="Second">
<circle id="Ellipse 1_7" cx="250.827" cy="286.67" r="10.1878" fill="#D2D2D2"/>
<circle id="Ellipse 1_8" cx="250.827" cy="286.671" r="1.0319" fill="black"/>
</g>
<g id="Mound">
<circle id="Ellipse 1_9" cx="250.827" cy="345.929" r="9.08365" fill="#D2D2D2"/>
<circle id="Ellipse 1_10" cx="250.827" cy="345.93" r="0.920062" fill="black"/>
</g>
</g>
<path id="Foul Lines" d="M462.338 199.154L250.976 410.515L6.61258 166.152" fill="none" stroke="black" stroke-width="1.002"/>
<g id="Measurements">
<path id="387" d="M201.703 28.8592C200.073 28.8592 199.263 28.0292 199.193 26.7392L200.633 26.6692C200.693 27.3592 201.153 27.5992 201.733 27.5992C202.363 27.5992 202.853 27.2992 202.853 26.5992C202.853 25.9192 202.403 25.5592 201.663 25.5592H201.133V24.4292H201.663C202.223 24.4292 202.633 24.1792 202.633 23.5692C202.633 22.9792 202.283 22.6892 201.723 22.6892C201.103 22.6892 200.803 22.9992 200.743 23.4892L199.303 23.4192C199.443 22.2092 200.273 21.4392 201.733 21.4392C203.193 21.4392 204.093 22.1592 204.093 23.3792C204.093 24.1492 203.693 24.6592 202.943 24.8992C203.813 25.1492 204.313 25.7992 204.313 26.6992C204.313 28.0392 203.303 28.8592 201.703 28.8592ZM207.749 28.8592C206.179 28.8592 205.129 28.1392 205.129 26.7592C205.129 25.8292 205.669 25.1692 206.539 24.8892C205.869 24.6292 205.419 24.1392 205.419 23.3992C205.419 22.2592 206.349 21.4392 207.749 21.4392C209.149 21.4392 210.079 22.2592 210.079 23.3992C210.079 24.1392 209.629 24.6292 208.949 24.8892C209.829 25.1692 210.369 25.8292 210.369 26.7592C210.369 28.1392 209.319 28.8592 207.749 28.8592ZM207.749 24.3192C208.259 24.3192 208.609 24.0492 208.609 23.4892C208.609 22.9892 208.269 22.6992 207.749 22.6992C207.229 22.6992 206.889 22.9892 206.889 23.4892C206.889 24.0492 207.239 24.3192 207.749 24.3192ZM207.749 27.5992C208.389 27.5992 208.909 27.3192 208.909 26.6192C208.909 25.9492 208.479 25.5292 207.749 25.5292C207.019 25.5292 206.589 25.9492 206.589 26.6192C206.589 27.3192 207.109 27.5992 207.749 27.5992ZM212.415 28.6992C212.415 26.5492 213.315 24.5892 214.785 22.8792H211.285V21.5992H216.205V22.8092C214.575 24.6692 213.905 26.2592 213.905 28.6992H212.415Z" fill="black"/>
<path id="297" d="M441.974 197.695C441.974 195.965 442.554 194.955 444.534 193.935C445.264 193.555 445.624 193.275 445.624 192.625C445.624 192.055 445.294 191.695 444.664 191.695C443.944 191.695 443.594 192.115 443.474 192.875L442.004 192.785C442.144 191.335 443.054 190.435 444.684 190.435C446.274 190.435 447.094 191.285 447.094 192.545C447.094 193.685 446.604 194.245 445.204 195.005C444.054 195.625 443.644 196.055 443.604 196.415H447.094V197.695H441.974ZM450.51 190.435C452.24 190.435 453.15 191.605 453.15 193.665C453.15 196.015 452.34 197.855 450.25 197.855C448.85 197.855 448.2 197.095 447.94 196.075L449.38 195.975C449.48 196.335 449.71 196.595 450.25 196.595C450.99 196.595 451.51 196.085 451.67 194.865C451.33 195.165 450.85 195.385 450.22 195.385C448.81 195.385 447.91 194.435 447.91 193.005C447.91 191.425 448.94 190.435 450.51 190.435ZM450.54 191.715C449.79 191.715 449.37 192.155 449.37 192.955C449.37 193.695 449.75 194.175 450.48 194.175C451.22 194.175 451.69 193.685 451.69 192.945C451.69 192.265 451.27 191.715 450.54 191.715ZM455.196 197.695C455.196 195.545 456.096 193.585 457.566 191.875H454.066V190.595H458.986V191.805C457.356 193.665 456.686 195.255 456.686 197.695H455.196Z" fill="black"/>
<path id="353" d="M20.9617 170.355C19.3317 170.355 18.5217 169.525 18.4517 168.235L19.8917 168.165C19.9517 168.855 20.4117 169.095 20.9917 169.095C21.6217 169.095 22.1117 168.795 22.1117 168.095C22.1117 167.415 21.6617 167.055 20.9217 167.055H20.3917V165.925H20.9217C21.4817 165.925 21.8917 165.675 21.8917 165.065C21.8917 164.475 21.5417 164.185 20.9817 164.185C20.3617 164.185 20.0617 164.495 20.0017 164.985L18.5617 164.915C18.7017 163.705 19.5317 162.935 20.9917 162.935C22.4517 162.935 23.3517 163.655 23.3517 164.875C23.3517 165.645 22.9517 166.155 22.2017 166.395C23.0717 166.645 23.5717 167.295 23.5717 168.195C23.5717 169.535 22.5617 170.355 20.9617 170.355ZM26.9978 170.355C25.4978 170.355 24.5878 169.465 24.4878 168.295L25.9478 168.215C26.0378 168.795 26.3878 169.095 26.9978 169.095C27.6578 169.095 28.0678 168.675 28.0678 167.865C28.0678 167.075 27.6478 166.615 27.0078 166.615C26.5678 166.615 26.1978 166.875 26.0578 167.235L24.5878 167.165L25.0078 163.095H29.1978V164.375H26.1778L25.9978 165.905C26.3278 165.625 26.7678 165.465 27.2478 165.465C28.6578 165.465 29.5278 166.485 29.5278 167.875C29.5278 169.345 28.5278 170.355 26.9978 170.355ZM32.9539 170.355C31.3239 170.355 30.5139 169.525 30.4439 168.235L31.8839 168.165C31.9439 168.855 32.4039 169.095 32.9839 169.095C33.6139 169.095 34.1039 168.795 34.1039 168.095C34.1039 167.415 33.6539 167.055 32.9139 167.055H32.3839V165.925H32.9139C33.4739 165.925 33.8839 165.675 33.8839 165.065C33.8839 164.475 33.5339 164.185 32.9739 164.185C32.3539 164.185 32.0539 164.495 31.9939 164.985L30.5539 164.915C30.6939 163.705 31.5239 162.935 32.9839 162.935C34.4439 162.935 35.3439 163.655 35.3439 164.875C35.3439 165.645 34.9439 166.155 34.1939 166.395C35.0639 166.645 35.5639 167.295 35.5639 168.195C35.5639 169.535 34.5539 170.355 32.9539 170.355Z" fill="black"/>
</g>
<path id="field" d="M5.67297 166.703L207.995 32.5156L386.099 41.1515L481.897 136.679L473.262 144.235L441.419 303.719L289.469 454.319C271.898 471.734 244.49 474.358 223.933 460.595L40.415 337.721L5.67297 166.703Z" fill="#0C2340" fill-opacity="0.1" fill="none" stroke="#0C2340" stroke-width="1.002"/>
</g>
<defs>
<clipPath id="clip0_100_3383">
<rect width="500" height="469.94" fill="white"/>
</clipPath>
</defs>
</svg>
