<svg width="500" height="470" viewBox="0 0 500 470" fill="none" xmlns="http://www.w3.org/2000/svg">
<g id="braves-field-1937" clip-path="url(#clip0_100_3439)">
<g id="Infield">
<path d="M339.98 327.766C339.453 325.666 322.032 258.479 250.83 258.479C180.238 258.479 162.505 324.538 161.697 327.699C161.677 327.776 161.668 327.816 161.668 327.816L236.504 402.653C235.305 404.912 234.623 407.489 234.623 410.238C234.623 419.186 241.873 426.445 250.83 426.445C259.778 426.445 267.037 419.186 267.037 410.238C267.037 407.489 266.356 404.912 265.157 402.657L260.695 397.375C257.96 395.278 254.544 394.026 250.83 394.026C247.117 394.026 243.701 395.278 240.971 397.37L197.7 354.1C201.448 350.353 201.448 344.277 197.7 340.53C197.698 340.527 197.694 340.525 197.691 340.522L244.055 294.038C247.8 297.773 253.861 297.773 257.606 294.038L303.431 339.984C303.431 339.984 303.427 339.985 303.424 339.988C299.677 343.736 300.275 350.3 304.022 354.047L260.695 397.375L265.157 402.657L339.98 327.766Z" fill="#D2D2D2"/>
<path d="M259.91 345.706C259.91 350.721 255.845 354.787 250.83 354.787C245.815 354.787 241.75 350.721 241.75 345.706C241.75 340.691 245.815 336.626 250.83 336.626C255.845 336.626 259.91 340.691 259.91 345.706Z" fill="#D2D2D2"/>
</g>
<g id="Guides">
<g id="Home">
<circle id="Ellipse 1" cx="250.827" cy="410.419" r="16.0848" fill="#D2D2D2"/>
<circle id="Ellipse 1_2" cx="250.827" cy="410.418" r="1.62919" fill="black"/>
</g>
<g id="First">
<circle id="Ellipse 1_3" cx="311.125" cy="346.532" r="10.1878" fill="#D2D2D2"/>
<circle id="Ellipse 1_4" cx="311.125" cy="346.532" r="1.0319" fill="black"/>
</g>
<g id="Third">
<circle id="Ellipse 1_5" cx="190.34" cy="346.532" r="10.1878" fill="#D2D2D2"/>
<circle id="Ellipse 1_6" cx="190.34" cy="346.532" r="1.0319" fill="black"/>
</g>
<g id="Second">
<circle id="Ellipse 1_7" cx="250.827" cy="286.67" r="10.1878" fill="#D2D2D2"/>
<circle id="Ellipse 1_8" cx="250.827" cy="286.671" r="1.0319" fill="black"/>
</g>
<g id="Mound">
<circle id="Ellipse 1_9" cx="250.827" cy="345.929" r="9.08365" fill="#D2D2D2"/>
<circle id="Ellipse 1_10" cx="250.827" cy="345.93" r="0.920062" fill="black"/>
</g>
</g>
<path id="Foul Lines" d="M469.576 191.915L250.976 410.515L0.117004 159.656" fill="none" stroke="black" stroke-width="1.002"/>
<g id="Measurements">
<path id="407" d="M340.168 19.9863V18.5663H336.998V17.3963L339.978 12.8863H341.598V17.3263H342.438V18.5663H341.598V19.9863H340.168ZM338.338 17.3263H340.168V14.6763L338.338 17.3263ZM345.714 20.1463C344.114 20.1463 343.154 18.7363 343.154 16.4463C343.154 14.1463 344.114 12.7263 345.714 12.7263C347.314 12.7263 348.274 14.1463 348.274 16.4463C348.274 18.7363 347.314 20.1463 345.714 20.1463ZM344.614 16.4463C344.614 16.8763 344.644 17.2463 344.704 17.5563L346.394 14.3663C346.214 14.1163 345.984 13.9863 345.714 13.9863C345.024 13.9863 344.614 14.8063 344.614 16.4463ZM345.714 18.8863C346.404 18.8863 346.814 18.0763 346.814 16.4463C346.814 16.0163 346.784 15.6363 346.724 15.3163L345.034 18.5063C345.214 18.7563 345.444 18.8863 345.714 18.8863ZM350.38 19.9863C350.38 17.8363 351.28 15.8763 352.75 14.1663H349.25V12.8863H354.17V14.0963C352.54 15.9563 351.87 17.5463 351.87 19.9863H350.38Z" fill="black"/>
<path id="376" d="M488.502 151.685C486.872 151.685 486.062 150.855 485.992 149.565L487.432 149.495C487.492 150.185 487.952 150.425 488.532 150.425C489.162 150.425 489.652 150.125 489.652 149.425C489.652 148.745 489.202 148.385 488.462 148.385H487.932V147.255H488.462C489.022 147.255 489.432 147.005 489.432 146.395C489.432 145.805 489.082 145.515 488.522 145.515C487.902 145.515 487.602 145.825 487.542 146.315L486.102 146.245C486.242 145.035 487.072 144.265 488.532 144.265C489.992 144.265 490.892 144.985 490.892 146.205C490.892 146.975 490.492 147.485 489.742 147.725C490.612 147.975 491.112 148.625 491.112 149.525C491.112 150.865 490.102 151.685 488.502 151.685ZM493.218 151.525C493.218 149.375 494.118 147.415 495.588 145.705H492.088V144.425H497.008V145.635C495.378 147.495 494.708 149.085 494.708 151.525H493.218ZM500.564 151.685C498.834 151.685 497.924 150.515 497.924 148.455C497.924 146.105 498.734 144.265 500.824 144.265C502.224 144.265 502.874 145.025 503.134 146.045L501.694 146.145C501.594 145.785 501.364 145.525 500.824 145.525C500.084 145.525 499.564 146.035 499.404 147.255C499.744 146.955 500.224 146.735 500.854 146.735C502.264 146.735 503.164 147.685 503.164 149.115C503.164 150.695 502.134 151.685 500.564 151.685ZM500.534 150.405C501.284 150.405 501.704 149.965 501.704 149.165C501.704 148.425 501.324 147.945 500.594 147.945C499.854 147.945 499.384 148.435 499.384 149.175C499.384 149.855 499.804 150.405 500.534 150.405Z" fill="black"/>
<path id="360" d="M9.96172 164.355C8.33172 164.355 7.52172 163.525 7.45172 162.235L8.89172 162.165C8.95172 162.855 9.41172 163.095 9.99172 163.095C10.6217 163.095 11.1117 162.795 11.1117 162.095C11.1117 161.415 10.6617 161.055 9.92172 161.055H9.39172V159.925H9.92172C10.4817 159.925 10.8917 159.675 10.8917 159.065C10.8917 158.475 10.5417 158.185 9.98172 158.185C9.36172 158.185 9.06172 158.495 9.00172 158.985L7.56172 158.915C7.70172 157.705 8.53172 156.935 9.99172 156.935C11.4517 156.935 12.3517 157.655 12.3517 158.875C12.3517 159.645 11.9517 160.155 11.2017 160.395C12.0717 160.645 12.5717 161.295 12.5717 162.195C12.5717 163.535 11.5617 164.355 9.96172 164.355ZM16.0278 164.355C14.2978 164.355 13.3878 163.185 13.3878 161.125C13.3878 158.775 14.1978 156.935 16.2878 156.935C17.6878 156.935 18.3378 157.695 18.5978 158.715L17.1578 158.815C17.0578 158.455 16.8278 158.195 16.2878 158.195C15.5478 158.195 15.0278 158.705 14.8678 159.925C15.2078 159.625 15.6878 159.405 16.3178 159.405C17.7278 159.405 18.6278 160.355 18.6278 161.785C18.6278 163.365 17.5978 164.355 16.0278 164.355ZM15.9978 163.075C16.7478 163.075 17.1678 162.635 17.1678 161.835C17.1678 161.095 16.7878 160.615 16.0578 160.615C15.3178 160.615 14.8478 161.105 14.8478 161.845C14.8478 162.525 15.2678 163.075 15.9978 163.075ZM22.0039 164.355C20.4039 164.355 19.4439 162.945 19.4439 160.655C19.4439 158.355 20.4039 156.935 22.0039 156.935C23.6039 156.935 24.5639 158.355 24.5639 160.655C24.5639 162.945 23.6039 164.355 22.0039 164.355ZM20.9039 160.655C20.9039 161.085 20.9339 161.455 20.9939 161.765L22.6839 158.575C22.5039 158.325 22.2739 158.195 22.0039 158.195C21.3139 158.195 20.9039 159.015 20.9039 160.655ZM22.0039 163.095C22.6939 163.095 23.1039 162.285 23.1039 160.655C23.1039 160.225 23.0739 159.845 23.0139 159.525L21.3239 162.715C21.5039 162.965 21.7339 163.095 22.0039 163.095Z" fill="black"/>
</g>
<path id="field" d="M-11.4356 174.964L-15.5837 170.1L212.315 18.2949L390.445 27.2235L510.761 147.762L464.777 197.094L445.262 289.559L289.469 440.318C271.898 457.733 244.49 460.358 223.934 446.594L44.1729 323.946L-11.4356 174.964Z" fill="#0C2340" fill-opacity="0.1" fill="none" stroke="#0C2340" stroke-width="1.002"/>
</g>
<defs>
<clipPath id="clip0_100_3439">
<rect width="500" height="469.94" fill="white"/>
</clipPath>
</defs>
</svg>
