<svg width="500" height="470" viewBox="0 0 500 470" fill="none" xmlns="http://www.w3.org/2000/svg">
<g id="braves-field-1915" clip-path="url(#clip0_99_3329)">
<g id="Infield">
<path d="M339.98 327.766C339.453 325.666 322.032 258.479 250.83 258.479C180.238 258.479 162.505 324.538 161.697 327.699C161.677 327.776 161.668 327.816 161.668 327.816L236.504 402.653C235.305 404.912 234.623 407.489 234.623 410.238C234.623 419.186 241.873 426.445 250.83 426.445C259.778 426.445 267.037 419.186 267.037 410.238C267.037 407.489 266.356 404.912 265.156 402.657L260.695 397.375C257.96 395.278 254.544 394.026 250.83 394.026C247.117 394.026 243.701 395.278 240.971 397.37L197.7 354.1C201.448 350.353 201.448 344.277 197.7 340.53C197.698 340.527 197.694 340.525 197.691 340.522L244.055 294.038C247.8 297.773 253.861 297.773 257.606 294.038L303.431 339.984C303.431 339.984 303.427 339.985 303.424 339.988C299.677 343.736 300.275 350.3 304.022 354.047L260.695 397.375L265.156 402.657L339.98 327.766Z" fill="#D2D2D2"/>
<path d="M259.91 345.706C259.91 350.721 255.845 354.787 250.83 354.787C245.815 354.787 241.75 350.721 241.75 345.706C241.75 340.691 245.815 336.626 250.83 336.626C255.845 336.626 259.91 340.691 259.91 345.706Z" fill="#D2D2D2"/>
</g>
<g id="Guides">
<g id="Home">
<circle id="Ellipse 1" cx="250.827" cy="410.419" r="16.0848" fill="#D2D2D2"/>
<circle id="Ellipse 1_2" cx="250.827" cy="410.418" r="1.62919" fill="black"/>
</g>
<g id="First">
<circle id="Ellipse 1_3" cx="311.125" cy="346.532" r="10.1878" fill="#D2D2D2"/>
<circle id="Ellipse 1_4" cx="311.125" cy="346.532" r="1.0319" fill="black"/>
</g>
<g id="Third">
<circle id="Ellipse 1_5" cx="190.34" cy="346.532" r="10.1878" fill="#D2D2D2"/>
<circle id="Ellipse 1_6" cx="190.34" cy="346.532" r="1.0319" fill="black"/>
</g>
<g id="Second">
<circle id="Ellipse 1_7" cx="250.827" cy="286.67" r="10.1878" fill="#D2D2D2"/>
<circle id="Ellipse 1_8" cx="250.827" cy="286.671" r="1.0319" fill="black"/>
</g>
<g id="Mound">
<circle id="Ellipse 1_9" cx="250.827" cy="345.929" r="9.08365" fill="#D2D2D2"/>
<circle id="Ellipse 1_10" cx="250.827" cy="345.93" r="0.920062" fill="black"/>
</g>
</g>
<path id="Foul Lines" d="M502.371 159.121L250.975 410.516L-27.8227 131.719" fill="none" stroke="black" stroke-width="1.002"/>
<g id="Measurements">
<path id="355" d="M477.484 167.855C475.854 167.855 475.044 167.025 474.974 165.735L476.414 165.665C476.474 166.355 476.934 166.595 477.514 166.595C478.144 166.595 478.634 166.295 478.634 165.595C478.634 164.915 478.184 164.555 477.444 164.555H476.914V163.425H477.444C478.004 163.425 478.414 163.175 478.414 162.565C478.414 161.975 478.064 161.685 477.504 161.685C476.884 161.685 476.584 161.995 476.524 162.485L475.084 162.415C475.224 161.205 476.054 160.435 477.514 160.435C478.974 160.435 479.874 161.155 479.874 162.375C479.874 163.145 479.474 163.655 478.724 163.895C479.594 164.145 480.094 164.795 480.094 165.695C480.094 167.035 479.084 167.855 477.484 167.855ZM483.52 167.855C482.02 167.855 481.11 166.965 481.01 165.795L482.47 165.715C482.56 166.295 482.91 166.595 483.52 166.595C484.18 166.595 484.59 166.175 484.59 165.365C484.59 164.575 484.17 164.115 483.53 164.115C483.09 164.115 482.72 164.375 482.58 164.735L481.11 164.665L481.53 160.595H485.72V161.875H482.7L482.52 163.405C482.85 163.125 483.29 162.965 483.77 162.965C485.18 162.965 486.05 163.985 486.05 165.375C486.05 166.845 485.05 167.855 483.52 167.855ZM489.516 167.855C488.016 167.855 487.106 166.965 487.006 165.795L488.466 165.715C488.556 166.295 488.906 166.595 489.516 166.595C490.176 166.595 490.586 166.175 490.586 165.365C490.586 164.575 490.166 164.115 489.526 164.115C489.086 164.115 488.716 164.375 488.576 164.735L487.106 164.665L487.526 160.595H491.716V161.875H488.696L488.516 163.405C488.846 163.125 489.286 162.965 489.766 162.965C491.176 162.965 492.046 163.985 492.046 165.375C492.046 166.845 491.046 167.855 489.516 167.855Z" fill="black"/>
</g>
<path id="field" d="M5.67299 166.704L-28.5273 131.98C159.207 5.49707 276.894 -41.1378 392.479 -69.4277L483.826 42.8396L438.489 80.2696L503.286 159.513L494.476 167.689L448.679 322.486L284.19 459.228C265.138 475.066 237.558 475.263 218.282 459.699L46.67 321.139L5.67299 166.704Z" fill="#0C2340" fill-opacity="0.1" fill="none" stroke="#0C2340" stroke-width="1.002"/>
</g>
<defs>
<clipPath id="clip0_99_3329">
<rect width="500" height="469.94" fill="white"/>
</clipPath>
</defs>
</svg>
