<svg width="500" height="470" viewBox="0 0 500 470" fill="none" xmlns="http://www.w3.org/2000/svg">
<g id="braves-field-1946" clip-path="url(#clip0_100_3466)">
<path id="field" d="M139.073 404.791L146.781 391.439L54.1397 328.798L8.92886 208.406L-6.20621 213.368L-10.6722 201.955L108.92 93.0322C163.753 38.1986 223.797 30.0096 250.346 30.0096C276.894 30.0096 324.036 23.8071 387.058 86.8289L478.486 197.777L457.565 221.495L455.984 231.347L440.658 228.427L426.047 298.71L346.643 378.115L356.725 388.197L285.519 455.792C269.01 471.463 243.884 473.702 224.864 461.197L139.073 404.791Z" fill="#0C2340" fill-opacity="0.1" fill="none" stroke="#0C2340" stroke-width="1.002"/>
<g id="Infield">
<path d="M339.98 327.766C339.453 325.666 322.032 258.479 250.83 258.479C180.238 258.479 162.505 324.538 161.697 327.699C161.677 327.776 161.668 327.816 161.668 327.816L236.504 402.653C235.305 404.912 234.623 407.489 234.623 410.238C234.623 419.186 241.873 426.445 250.83 426.445C259.778 426.445 267.037 419.186 267.037 410.238C267.037 407.489 266.356 404.912 265.157 402.657L260.695 397.375C257.96 395.278 254.544 394.026 250.83 394.026C247.117 394.026 243.701 395.278 240.971 397.37L197.7 354.1C201.448 350.353 201.448 344.277 197.7 340.53C197.698 340.527 197.694 340.525 197.691 340.522L244.055 294.038C247.8 297.773 253.861 297.773 257.606 294.038L303.431 339.984C303.431 339.984 303.427 339.985 303.424 339.988C299.677 343.736 300.275 350.3 304.022 354.047L260.695 397.375L265.157 402.657L339.98 327.766Z" fill="#D2D2D2"/>
<path d="M259.91 345.706C259.91 350.721 255.845 354.787 250.83 354.787C245.815 354.787 241.75 350.721 241.75 345.706C241.75 340.691 245.815 336.626 250.83 336.626C255.845 336.626 259.91 340.691 259.91 345.706Z" fill="#D2D2D2"/>
</g>
<g id="Guides">
<g id="Home">
<circle id="Ellipse 1" cx="250.827" cy="410.419" r="16.0848" fill="#D2D2D2"/>
<circle id="Ellipse 1_2" cx="250.827" cy="410.418" r="1.62919" fill="black"/>
</g>
<g id="First">
<circle id="Ellipse 1_3" cx="311.125" cy="346.532" r="10.1878" fill="#D2D2D2"/>
<circle id="Ellipse 1_4" cx="311.125" cy="346.532" r="1.0319" fill="black"/>
</g>
<g id="Third">
<circle id="Ellipse 1_5" cx="190.34" cy="346.532" r="10.1878" fill="#D2D2D2"/>
<circle id="Ellipse 1_6" cx="190.34" cy="346.532" r="1.0319" fill="black"/>
</g>
<g id="Second">
<circle id="Ellipse 1_7" cx="250.827" cy="286.67" r="10.1878" fill="#D2D2D2"/>
<circle id="Ellipse 1_8" cx="250.827" cy="286.671" r="1.0319" fill="black"/>
</g>
<g id="Mound">
<circle id="Ellipse 1_9" cx="250.827" cy="345.929" r="9.08365" fill="#D2D2D2"/>
<circle id="Ellipse 1_10" cx="250.827" cy="345.93" r="0.920062" fill="black"/>
</g>
</g>
<path id="Foul Lines" d="M471.692 189.798L250.976 410.515L16.9825 176.521" fill="none" stroke="black" stroke-width="1.002"/>
<g id="Measurements">
<path id="390" d="M276.41 27.0018C274.78 27.0018 273.97 26.1718 273.9 24.8818L275.34 24.8118C275.4 25.5018 275.86 25.7418 276.44 25.7418C277.07 25.7418 277.56 25.4418 277.56 24.7418C277.56 24.0618 277.11 23.7018 276.37 23.7018H275.84V22.5718H276.37C276.93 22.5718 277.34 22.3218 277.34 21.7118C277.34 21.1218 276.99 20.8318 276.43 20.8318C275.81 20.8318 275.51 21.1418 275.45 21.6318L274.01 21.5618C274.15 20.3518 274.98 19.5818 276.44 19.5818C277.9 19.5818 278.8 20.3018 278.8 21.5218C278.8 22.2918 278.4 22.8018 277.65 23.0418C278.52 23.2918 279.02 23.9418 279.02 24.8418C279.02 26.1818 278.01 27.0018 276.41 27.0018ZM282.436 19.5818C284.166 19.5818 285.076 20.7518 285.076 22.8118C285.076 25.1618 284.266 27.0018 282.176 27.0018C280.776 27.0018 280.126 26.2418 279.866 25.2218L281.306 25.1218C281.406 25.4818 281.636 25.7418 282.176 25.7418C282.916 25.7418 283.436 25.2318 283.596 24.0118C283.256 24.3118 282.776 24.5318 282.146 24.5318C280.736 24.5318 279.836 23.5818 279.836 22.1518C279.836 20.5718 280.866 19.5818 282.436 19.5818ZM282.466 20.8618C281.716 20.8618 281.296 21.3018 281.296 22.1018C281.296 22.8418 281.676 23.3218 282.406 23.3218C283.146 23.3218 283.616 22.8318 283.616 22.0918C283.616 21.4118 283.196 20.8618 282.466 20.8618ZM288.452 27.0018C286.852 27.0018 285.892 25.5918 285.892 23.3018C285.892 21.0018 286.852 19.5818 288.452 19.5818C290.052 19.5818 291.012 21.0018 291.012 23.3018C291.012 25.5918 290.052 27.0018 288.452 27.0018ZM287.352 23.3018C287.352 23.7318 287.382 24.1018 287.442 24.4118L289.132 21.2218C288.952 20.9718 288.722 20.8418 288.452 20.8418C287.762 20.8418 287.352 21.6618 287.352 23.3018ZM288.452 25.7418C289.142 25.7418 289.552 24.9318 289.552 23.3018C289.552 22.8718 289.522 22.4918 289.462 22.1718L287.772 25.3618C287.952 25.6118 288.182 25.7418 288.452 25.7418Z" fill="black"/>
<path id="320" d="M447.85 193.619C446.22 193.619 445.41 192.789 445.34 191.499L446.78 191.429C446.84 192.119 447.3 192.359 447.88 192.359C448.51 192.359 449 192.059 449 191.359C449 190.679 448.55 190.319 447.81 190.319H447.28V189.189H447.81C448.37 189.189 448.78 188.939 448.78 188.329C448.78 187.739 448.43 187.449 447.87 187.449C447.25 187.449 446.95 187.759 446.89 188.249L445.45 188.179C445.59 186.969 446.42 186.199 447.88 186.199C449.34 186.199 450.24 186.919 450.24 188.139C450.24 188.909 449.84 189.419 449.09 189.659C449.96 189.909 450.46 190.559 450.46 191.459C450.46 192.799 449.45 193.619 447.85 193.619ZM451.336 193.459C451.336 191.729 451.916 190.719 453.896 189.699C454.626 189.319 454.986 189.039 454.986 188.389C454.986 187.819 454.656 187.459 454.026 187.459C453.306 187.459 452.956 187.879 452.836 188.639L451.366 188.549C451.506 187.099 452.416 186.199 454.046 186.199C455.636 186.199 456.456 187.049 456.456 188.309C456.456 189.449 455.966 190.009 454.566 190.769C453.416 191.389 453.006 191.819 452.966 192.179H456.456V193.459H451.336ZM459.892 193.619C458.292 193.619 457.332 192.209 457.332 189.919C457.332 187.619 458.292 186.199 459.892 186.199C461.492 186.199 462.452 187.619 462.452 189.919C462.452 192.209 461.492 193.619 459.892 193.619ZM458.792 189.919C458.792 190.349 458.822 190.719 458.882 191.029L460.572 187.839C460.392 187.589 460.162 187.459 459.892 187.459C459.202 187.459 458.792 188.279 458.792 189.919ZM459.892 192.359C460.582 192.359 460.992 191.549 460.992 189.919C460.992 189.489 460.962 189.109 460.902 188.789L459.212 191.979C459.392 192.229 459.622 192.359 459.892 192.359Z" fill="black"/>
<path id="337" d="M27.9617 180.355C26.3317 180.355 25.5217 179.525 25.4517 178.235L26.8917 178.165C26.9517 178.855 27.4117 179.095 27.9917 179.095C28.6217 179.095 29.1117 178.795 29.1117 178.095C29.1117 177.415 28.6617 177.055 27.9217 177.055H27.3917V175.925H27.9217C28.4817 175.925 28.8917 175.675 28.8917 175.065C28.8917 174.475 28.5417 174.185 27.9817 174.185C27.3617 174.185 27.0617 174.495 27.0017 174.985L25.5617 174.915C25.7017 173.705 26.5317 172.935 27.9917 172.935C29.4517 172.935 30.3517 173.655 30.3517 174.875C30.3517 175.645 29.9517 176.155 29.2017 176.395C30.0717 176.645 30.5717 177.295 30.5717 178.195C30.5717 179.535 29.5617 180.355 27.9617 180.355ZM33.9578 180.355C32.3278 180.355 31.5178 179.525 31.4478 178.235L32.8878 178.165C32.9478 178.855 33.4078 179.095 33.9878 179.095C34.6178 179.095 35.1078 178.795 35.1078 178.095C35.1078 177.415 34.6578 177.055 33.9178 177.055H33.3878V175.925H33.9178C34.4778 175.925 34.8878 175.675 34.8878 175.065C34.8878 174.475 34.5378 174.185 33.9778 174.185C33.3578 174.185 33.0578 174.495 32.9978 174.985L31.5578 174.915C31.6978 173.705 32.5278 172.935 33.9878 172.935C35.4478 172.935 36.3478 173.655 36.3478 174.875C36.3478 175.645 35.9478 176.155 35.1978 176.395C36.0678 176.645 36.5678 177.295 36.5678 178.195C36.5678 179.535 35.5578 180.355 33.9578 180.355ZM38.6739 180.195C38.6739 178.045 39.5739 176.085 41.0439 174.375H37.5439V173.095H42.4639V174.305C40.8339 176.165 40.1639 177.755 40.1639 180.195H38.6739Z" fill="black"/>
<path id="355" d="M91.4861 92.2088C89.8561 92.2088 89.0461 91.3788 88.9761 90.0888L90.4161 90.0188C90.4761 90.7088 90.9361 90.9488 91.5161 90.9488C92.1461 90.9488 92.6361 90.6488 92.6361 89.9488C92.6361 89.2688 92.1861 88.9088 91.4461 88.9088H90.9161V87.7788H91.4461C92.0061 87.7788 92.4161 87.5288 92.4161 86.9188C92.4161 86.3288 92.0661 86.0388 91.5061 86.0388C90.8861 86.0388 90.5861 86.3488 90.5261 86.8388L89.0861 86.7688C89.2261 85.5588 90.0561 84.7888 91.5161 84.7888C92.9761 84.7888 93.8761 85.5088 93.8761 86.7288C93.8761 87.4988 93.4761 88.0088 92.7261 88.2488C93.5961 88.4988 94.0961 89.1488 94.0961 90.0488C94.0961 91.3888 93.0861 92.2088 91.4861 92.2088ZM97.5222 92.2088C96.0222 92.2088 95.1122 91.3188 95.0122 90.1488L96.4722 90.0688C96.5622 90.6488 96.9122 90.9488 97.5222 90.9488C98.1822 90.9488 98.5922 90.5288 98.5922 89.7188C98.5922 88.9288 98.1722 88.4688 97.5322 88.4688C97.0922 88.4688 96.7222 88.7288 96.5822 89.0888L95.1122 89.0188L95.5322 84.9488H99.7222V86.2288H96.7022L96.5222 87.7588C96.8522 87.4788 97.2922 87.3188 97.7722 87.3188C99.1822 87.3188 100.052 88.3388 100.052 89.7288C100.052 91.1988 99.0522 92.2088 97.5222 92.2088ZM103.518 92.2088C102.018 92.2088 101.108 91.3188 101.008 90.1488L102.468 90.0688C102.558 90.6488 102.908 90.9488 103.518 90.9488C104.178 90.9488 104.588 90.5288 104.588 89.7188C104.588 88.9288 104.168 88.4688 103.528 88.4688C103.088 88.4688 102.718 88.7288 102.578 89.0888L101.108 89.0188L101.528 84.9488H105.718V86.2288H102.698L102.518 87.7588C102.848 87.4788 103.288 87.3188 103.768 87.3188C105.178 87.3188 106.048 88.3388 106.048 89.7288C106.048 91.1988 105.048 92.2088 103.518 92.2088Z" fill="black"/>
<path id="355_2" d="M397.003 92.2088C395.373 92.2088 394.563 91.3788 394.493 90.0888L395.933 90.0188C395.993 90.7088 396.453 90.9488 397.033 90.9488C397.663 90.9488 398.153 90.6488 398.153 89.9488C398.153 89.2688 397.703 88.9088 396.963 88.9088H396.433V87.7788H396.963C397.523 87.7788 397.933 87.5288 397.933 86.9188C397.933 86.3288 397.583 86.0388 397.023 86.0388C396.403 86.0388 396.103 86.3488 396.043 86.8388L394.603 86.7688C394.743 85.5588 395.573 84.7888 397.033 84.7888C398.493 84.7888 399.393 85.5088 399.393 86.7288C399.393 87.4988 398.993 88.0088 398.243 88.2488C399.113 88.4988 399.613 89.1488 399.613 90.0488C399.613 91.3888 398.603 92.2088 397.003 92.2088ZM403.039 92.2088C401.539 92.2088 400.629 91.3188 400.529 90.1488L401.989 90.0688C402.079 90.6488 402.429 90.9488 403.039 90.9488C403.699 90.9488 404.109 90.5288 404.109 89.7188C404.109 88.9288 403.689 88.4688 403.049 88.4688C402.609 88.4688 402.239 88.7288 402.099 89.0888L400.629 89.0188L401.049 84.9488H405.239V86.2288H402.219L402.039 87.7588C402.369 87.4788 402.809 87.3188 403.289 87.3188C404.699 87.3188 405.569 88.3388 405.569 89.7288C405.569 91.1988 404.569 92.2088 403.039 92.2088ZM409.035 92.2088C407.535 92.2088 406.625 91.3188 406.525 90.1488L407.985 90.0688C408.075 90.6488 408.425 90.9488 409.035 90.9488C409.695 90.9488 410.105 90.5288 410.105 89.7188C410.105 88.9288 409.685 88.4688 409.045 88.4688C408.605 88.4688 408.235 88.7288 408.095 89.0888L406.625 89.0188L407.045 84.9488H411.235V86.2288H408.215L408.035 87.7588C408.365 87.4788 408.805 87.3188 409.285 87.3188C410.695 87.3188 411.565 88.3388 411.565 89.7288C411.565 91.1988 410.565 92.2088 409.035 92.2088Z" fill="black"/>
</g>
</g>
<defs>
<clipPath id="clip0_100_3466">
<rect width="500" height="469.94" fill="white"/>
</clipPath>
</defs>
</svg>
