<svg width="500" height="470" viewBox="0 0 500 470" fill="none" xmlns="http://www.w3.org/2000/svg">
<g id="busch-stadium-iii-2006" clip-path="url(#clip0_73_1179)">
<g id="Infield">
<path d="M339.98 327.765C339.453 325.666 322.032 258.478 250.83 258.478C180.238 258.478 162.505 324.538 161.697 327.699C161.677 327.776 161.668 327.816 161.668 327.816L236.504 402.652C235.305 404.912 234.623 407.488 234.623 410.237C234.623 419.185 241.873 426.444 250.83 426.444C259.778 426.444 267.037 419.185 267.037 410.237C267.037 407.488 266.356 404.912 265.156 402.657L260.695 397.374C257.96 395.278 254.544 394.025 250.83 394.025C247.117 394.025 243.701 395.278 240.971 397.37L197.7 354.1C201.448 350.352 201.448 344.277 197.7 340.529C197.698 340.526 197.694 340.524 197.691 340.521L244.055 294.037C247.8 297.773 253.861 297.773 257.606 294.037L303.431 339.983C303.431 339.983 303.427 339.985 303.424 339.988C299.677 343.735 300.275 350.299 304.022 354.047L260.695 397.374L265.156 402.657L339.98 327.765Z" fill="#D2D2D2"/>
<path d="M259.91 345.706C259.91 350.721 255.845 354.786 250.83 354.786C245.815 354.786 241.75 350.721 241.75 345.706C241.75 340.691 245.815 336.625 250.83 336.625C255.845 336.625 259.91 340.691 259.91 345.706Z" fill="#D2D2D2"/>
</g>
<g id="Guides">
<g id="Home">
<circle id="Ellipse 1" cx="250.827" cy="410.42" r="16.0848" fill="#D2D2D2"/>
<circle id="Ellipse 1_2" cx="250.827" cy="410.42" r="1.62919" fill="black"/>
</g>
<g id="First">
<circle id="Ellipse 1_3" cx="311.125" cy="346.533" r="10.1878" fill="#D2D2D2"/>
<circle id="Ellipse 1_4" cx="311.125" cy="346.532" r="1.0319" fill="black"/>
</g>
<g id="Third">
<circle id="Ellipse 1_5" cx="190.34" cy="346.533" r="10.1878" fill="#D2D2D2"/>
<circle id="Ellipse 1_6" cx="190.34" cy="346.532" r="1.0319" fill="black"/>
</g>
<g id="Second">
<circle id="Ellipse 1_7" cx="250.827" cy="286.671" r="10.1878" fill="#D2D2D2"/>
<circle id="Ellipse 1_8" cx="250.827" cy="286.671" r="1.0319" fill="black"/>
</g>
<g id="Mound">
<circle id="Ellipse 1_9" cx="250.827" cy="345.929" r="9.08365" fill="#D2D2D2"/>
<circle id="Ellipse 1_10" cx="250.827" cy="345.929" r="0.920062" fill="black"/>
</g>
</g>
<path id="Foul Lines" d="M479.699 181.792L250.976 410.516L16.0828 175.623" fill="none" stroke="black" stroke-width="1.002"/>
<g id="Measurements">
<path id="400" d="M246.203 15.6411V14.2211H243.033V13.0511L246.013 8.54111H247.633V12.9811H248.473V14.2211H247.633V15.6411H246.203ZM244.373 12.9811H246.203V10.3311L244.373 12.9811ZM251.749 15.8011C250.149 15.8011 249.189 14.3911 249.189 12.1011C249.189 9.80111 250.149 8.38111 251.749 8.38111C253.349 8.38111 254.309 9.80111 254.309 12.1011C254.309 14.3911 253.349 15.8011 251.749 15.8011ZM250.649 12.1011C250.649 12.5311 250.679 12.9011 250.739 13.2111L252.429 10.0211C252.249 9.77111 252.019 9.64111 251.749 9.64111C251.059 9.64111 250.649 10.4611 250.649 12.1011ZM251.749 14.5411C252.439 14.5411 252.849 13.7311 252.849 12.1011C252.849 11.6711 252.819 11.2911 252.759 10.9711L251.069 14.1611C251.249 14.4111 251.479 14.5411 251.749 14.5411ZM257.745 15.8011C256.145 15.8011 255.185 14.3911 255.185 12.1011C255.185 9.80111 256.145 8.38111 257.745 8.38111C259.345 8.38111 260.305 9.80111 260.305 12.1011C260.305 14.3911 259.345 15.8011 257.745 15.8011ZM256.645 12.1011C256.645 12.5311 256.675 12.9011 256.735 13.2111L258.425 10.0211C258.245 9.77111 258.015 9.64111 257.745 9.64111C257.055 9.64111 256.645 10.4611 256.645 12.1011ZM257.745 14.5411C258.435 14.5411 258.845 13.7311 258.845 12.1011C258.845 11.6711 258.815 11.2911 258.755 10.9711L257.065 14.1611C257.245 14.4111 257.475 14.5411 257.745 14.5411Z" fill="black"/>
<path id="375" d="M85.2828 75.0882C83.6528 75.0882 82.8428 74.2582 82.7728 72.9682L84.2128 72.8982C84.2728 73.5882 84.7328 73.8282 85.3128 73.8282C85.9428 73.8282 86.4328 73.5282 86.4328 72.8282C86.4328 72.1482 85.9828 71.7882 85.2428 71.7882H84.7128V70.6582H85.2428C85.8028 70.6582 86.2128 70.4082 86.2128 69.7982C86.2128 69.2082 85.8628 68.9182 85.3028 68.9182C84.6828 68.9182 84.3828 69.2282 84.3228 69.7182L82.8828 69.6482C83.0228 68.4382 83.8528 67.6682 85.3128 67.6682C86.7728 67.6682 87.6728 68.3882 87.6728 69.6082C87.6728 70.3782 87.2728 70.8882 86.5228 71.1282C87.3928 71.3782 87.8928 72.0282 87.8928 72.9282C87.8928 74.2682 86.8828 75.0882 85.2828 75.0882ZM89.9989 74.9282C89.9989 72.7782 90.8989 70.8182 92.3689 69.1082H88.8689V67.8282H93.7889V69.0382C92.1589 70.8982 91.4889 72.4882 91.4889 74.9282H89.9989ZM97.315 75.0882C95.815 75.0882 94.905 74.1982 94.805 73.0282L96.265 72.9482C96.355 73.5282 96.705 73.8282 97.315 73.8282C97.975 73.8282 98.385 73.4082 98.385 72.5982C98.385 71.8082 97.965 71.3482 97.325 71.3482C96.885 71.3482 96.515 71.6082 96.375 71.9682L94.905 71.8982L95.325 67.8282H99.515V69.1082H96.495L96.315 70.6382C96.645 70.3582 97.085 70.1982 97.565 70.1982C98.975 70.1982 99.845 71.2182 99.845 72.6082C99.845 74.0782 98.845 75.0882 97.315 75.0882Z" fill="black"/>
<path id="375_2" d="M402.593 75.0882C400.963 75.0882 400.153 74.2582 400.083 72.9682L401.523 72.8982C401.583 73.5882 402.043 73.8282 402.623 73.8282C403.253 73.8282 403.743 73.5282 403.743 72.8282C403.743 72.1482 403.293 71.7882 402.553 71.7882H402.023V70.6582H402.553C403.113 70.6582 403.523 70.4082 403.523 69.7982C403.523 69.2082 403.173 68.9182 402.613 68.9182C401.993 68.9182 401.693 69.2282 401.633 69.7182L400.193 69.6482C400.333 68.4382 401.163 67.6682 402.623 67.6682C404.083 67.6682 404.983 68.3882 404.983 69.6082C404.983 70.3782 404.583 70.8882 403.833 71.1282C404.703 71.3782 405.203 72.0282 405.203 72.9282C405.203 74.2682 404.193 75.0882 402.593 75.0882ZM407.309 74.9282C407.309 72.7782 408.209 70.8182 409.679 69.1082H406.179V67.8282H411.099V69.0382C409.469 70.8982 408.799 72.4882 408.799 74.9282H407.309ZM414.625 75.0882C413.125 75.0882 412.215 74.1982 412.115 73.0282L413.575 72.9482C413.665 73.5282 414.015 73.8282 414.625 73.8282C415.285 73.8282 415.695 73.4082 415.695 72.5982C415.695 71.8082 415.275 71.3482 414.635 71.3482C414.195 71.3482 413.825 71.6082 413.685 71.9682L412.215 71.8982L412.635 67.8282H416.825V69.1082H413.805L413.625 70.6382C413.955 70.3582 414.395 70.1982 414.875 70.1982C416.285 70.1982 417.155 71.2182 417.155 72.6082C417.155 74.0782 416.155 75.0882 414.625 75.0882Z" fill="black"/>
<path id="335" d="M460.938 181.098C459.308 181.098 458.498 180.268 458.428 178.978L459.868 178.908C459.928 179.598 460.388 179.838 460.968 179.838C461.598 179.838 462.088 179.538 462.088 178.838C462.088 178.158 461.638 177.798 460.898 177.798H460.368V176.668H460.898C461.458 176.668 461.868 176.418 461.868 175.808C461.868 175.218 461.518 174.928 460.958 174.928C460.338 174.928 460.038 175.238 459.978 175.728L458.538 175.658C458.678 174.448 459.508 173.678 460.968 173.678C462.428 173.678 463.328 174.398 463.328 175.618C463.328 176.388 462.928 176.898 462.178 177.138C463.048 177.388 463.548 178.038 463.548 178.938C463.548 180.278 462.538 181.098 460.938 181.098ZM466.934 181.098C465.304 181.098 464.494 180.268 464.424 178.978L465.864 178.908C465.924 179.598 466.384 179.838 466.964 179.838C467.594 179.838 468.084 179.538 468.084 178.838C468.084 178.158 467.634 177.798 466.894 177.798H466.364V176.668H466.894C467.454 176.668 467.864 176.418 467.864 175.808C467.864 175.218 467.514 174.928 466.954 174.928C466.334 174.928 466.034 175.238 465.974 175.728L464.534 175.658C464.674 174.448 465.504 173.678 466.964 173.678C468.424 173.678 469.324 174.398 469.324 175.618C469.324 176.388 468.924 176.898 468.174 177.138C469.044 177.388 469.544 178.038 469.544 178.938C469.544 180.278 468.534 181.098 466.934 181.098ZM472.97 181.098C471.47 181.098 470.56 180.208 470.46 179.038L471.92 178.958C472.01 179.538 472.36 179.838 472.97 179.838C473.63 179.838 474.04 179.418 474.04 178.608C474.04 177.818 473.62 177.358 472.98 177.358C472.54 177.358 472.17 177.618 472.03 177.978L470.56 177.908L470.98 173.838H475.17V175.118H472.15L471.97 176.648C472.3 176.368 472.74 176.208 473.22 176.208C474.63 176.208 475.5 177.228 475.5 178.618C475.5 180.088 474.5 181.098 472.97 181.098Z" fill="black"/>
<path id="336" d="M23.5783 173.598C21.9483 173.598 21.1383 172.768 21.0683 171.478L22.5083 171.408C22.5683 172.098 23.0283 172.338 23.6083 172.338C24.2383 172.338 24.7283 172.038 24.7283 171.338C24.7283 170.658 24.2783 170.298 23.5383 170.298H23.0083V169.168H23.5383C24.0983 169.168 24.5083 168.918 24.5083 168.308C24.5083 167.718 24.1583 167.428 23.5983 167.428C22.9783 167.428 22.6783 167.738 22.6183 168.228L21.1783 168.158C21.3183 166.948 22.1483 166.178 23.6083 166.178C25.0683 166.178 25.9683 166.898 25.9683 168.118C25.9683 168.888 25.5683 169.398 24.8183 169.638C25.6883 169.888 26.1883 170.538 26.1883 171.438C26.1883 172.778 25.1783 173.598 23.5783 173.598ZM29.5744 173.598C27.9444 173.598 27.1344 172.768 27.0644 171.478L28.5044 171.408C28.5644 172.098 29.0244 172.338 29.6044 172.338C30.2344 172.338 30.7244 172.038 30.7244 171.338C30.7244 170.658 30.2744 170.298 29.5344 170.298H29.0044V169.168H29.5344C30.0944 169.168 30.5044 168.918 30.5044 168.308C30.5044 167.718 30.1544 167.428 29.5944 167.428C28.9744 167.428 28.6744 167.738 28.6144 168.228L27.1744 168.158C27.3144 166.948 28.1444 166.178 29.6044 166.178C31.0644 166.178 31.9644 166.898 31.9644 168.118C31.9644 168.888 31.5644 169.398 30.8144 169.638C31.6844 169.888 32.1844 170.538 32.1844 171.438C32.1844 172.778 31.1744 173.598 29.5744 173.598ZM35.6405 173.598C33.9105 173.598 33.0005 172.428 33.0005 170.368C33.0005 168.018 33.8105 166.178 35.9005 166.178C37.3005 166.178 37.9505 166.938 38.2105 167.958L36.7705 168.058C36.6705 167.698 36.4405 167.438 35.9005 167.438C35.1605 167.438 34.6405 167.948 34.4805 169.168C34.8205 168.868 35.3005 168.648 35.9305 168.648C37.3405 168.648 38.2405 169.598 38.2405 171.028C38.2405 172.608 37.2105 173.598 35.6405 173.598ZM35.6105 172.318C36.3605 172.318 36.7805 171.878 36.7805 171.078C36.7805 170.338 36.4005 169.858 35.6705 169.858C34.9305 169.858 34.4605 170.348 34.4605 171.088C34.4605 171.768 34.8805 172.318 35.6105 172.318Z" fill="black"/>
</g>
<path id="field" d="M296.757 20.2637H205.518L130.728 47.8641L14.1468 164.446L17.9445 188.415L80.2838 250.754L100.114 335.485L211.159 446.354C233.062 468.223 268.551 468.176 290.397 446.25L384.655 351.642L451.239 234.561V219.047L479.674 190.612V156.947L370.592 47.8641L296.757 20.2637Z" fill="#BA0021" fill-opacity="0.1" fill="none" stroke="#BA0021" stroke-width="1.002"/>
</g>
<defs>
<clipPath id="clip0_73_1179">
<rect width="500" height="469.94" fill="white"/>
</clipPath>
</defs>
</svg>
