<svg width="500" height="470" viewBox="0 0 500 470" fill="none" xmlns="http://www.w3.org/2000/svg">
<g id="busch-stadium-ii-1966" clip-path="url(#clip0_73_1071)">
<g id="Infield">
<path d="M339.98 327.765C339.453 325.665 322.032 258.478 250.83 258.478C180.238 258.478 162.505 324.537 161.697 327.698C161.677 327.775 161.668 327.815 161.668 327.815L236.504 402.652C235.305 404.911 234.623 407.488 234.623 410.237C234.623 419.185 241.873 426.444 250.83 426.444C259.778 426.444 267.037 419.185 267.037 410.237C267.037 407.488 266.356 404.911 265.156 402.656L260.695 397.374C257.96 395.277 254.544 394.025 250.83 394.025C247.117 394.025 243.701 395.277 240.971 397.369L197.7 354.099C201.448 350.352 201.448 344.276 197.7 340.529C197.698 340.526 197.694 340.524 197.691 340.521L244.055 294.037C247.8 297.772 253.861 297.772 257.606 294.037L303.431 339.983C303.431 339.983 303.427 339.984 303.424 339.987C299.677 343.735 300.275 350.299 304.022 354.046L260.695 397.374L265.156 402.656L339.98 327.765Z" fill="#D2D2D2"/>
<path d="M259.91 345.705C259.91 350.72 255.845 354.786 250.83 354.786C245.815 354.786 241.75 350.72 241.75 345.705C241.75 340.69 245.815 336.625 250.83 336.625C255.845 336.625 259.91 340.69 259.91 345.705Z" fill="#D2D2D2"/>
</g>
<g id="Guides">
<g id="Home">
<circle id="Ellipse 1" cx="250.827" cy="410.42" r="16.0848" fill="#D2D2D2"/>
<circle id="Ellipse 1_2" cx="250.827" cy="410.42" r="1.62919" fill="black"/>
</g>
<g id="First">
<circle id="Ellipse 1_3" cx="311.125" cy="346.533" r="10.1878" fill="#D2D2D2"/>
<circle id="Ellipse 1_4" cx="311.125" cy="346.532" r="1.0319" fill="black"/>
</g>
<g id="Third">
<circle id="Ellipse 1_5" cx="190.34" cy="346.533" r="10.1878" fill="#D2D2D2"/>
<circle id="Ellipse 1_6" cx="190.34" cy="346.532" r="1.0319" fill="black"/>
</g>
<g id="Second">
<circle id="Ellipse 1_7" cx="250.827" cy="286.671" r="10.1878" fill="#D2D2D2"/>
<circle id="Ellipse 1_8" cx="250.827" cy="286.671" r="1.0319" fill="black"/>
</g>
<g id="Mound">
<circle id="Ellipse 1_9" cx="250.827" cy="345.929" r="9.08365" fill="#D2D2D2"/>
<circle id="Ellipse 1_10" cx="250.827" cy="345.929" r="0.920062" fill="black"/>
</g>
</g>
<path id="Foul Lines" d="M480.264 181.228L250.976 410.516L21.6873 181.228" fill="none" stroke="black" stroke-width="1.002"/>
<g id="Measurements">
<path id="414" d="M246.203 1.69922V0.279219H243.033V-0.890781L246.013 -5.40078H247.633V-0.960781H248.473V0.279219H247.633V1.69922H246.203ZM244.373 -0.960781H246.203V-3.61078L244.373 -0.960781ZM249.229 1.69922V0.419219H251.269V-2.96078H249.529V-4.14078H250.309C251.109 -4.14078 251.449 -4.48078 251.449 -5.40078H252.689V0.419219H254.269V1.69922H249.229ZM258.195 1.69922V0.279219H255.025V-0.890781L258.005 -5.40078H259.625V-0.960781H260.465V0.279219H259.625V1.69922H258.195ZM256.365 -0.960781H258.195V-3.61078L256.365 -0.960781Z" fill="black"/>
<path id="386" d="M75.1923 68.7254C73.5623 68.7254 72.7523 67.8954 72.6823 66.6054L74.1223 66.5354C74.1823 67.2254 74.6423 67.4654 75.2223 67.4654C75.8523 67.4654 76.3423 67.1654 76.3423 66.4654C76.3423 65.7854 75.8923 65.4254 75.1523 65.4254H74.6223V64.2954H75.1523C75.7123 64.2954 76.1223 64.0454 76.1223 63.4354C76.1223 62.8454 75.7723 62.5554 75.2123 62.5554C74.5923 62.5554 74.2923 62.8654 74.2323 63.3554L72.7923 63.2854C72.9323 62.0754 73.7623 61.3054 75.2223 61.3054C76.6823 61.3054 77.5823 62.0254 77.5823 63.2454C77.5823 64.0154 77.1823 64.5254 76.4323 64.7654C77.3023 65.0154 77.8023 65.6654 77.8023 66.5654C77.8023 67.9054 76.7923 68.7254 75.1923 68.7254ZM81.2384 68.7254C79.6684 68.7254 78.6184 68.0054 78.6184 66.6254C78.6184 65.6954 79.1584 65.0354 80.0284 64.7554C79.3584 64.4954 78.9084 64.0054 78.9084 63.2654C78.9084 62.1254 79.8384 61.3054 81.2384 61.3054C82.6384 61.3054 83.5684 62.1254 83.5684 63.2654C83.5684 64.0054 83.1184 64.4954 82.4384 64.7554C83.3184 65.0354 83.8584 65.6954 83.8584 66.6254C83.8584 68.0054 82.8084 68.7254 81.2384 68.7254ZM81.2384 64.1854C81.7484 64.1854 82.0984 63.9154 82.0984 63.3554C82.0984 62.8554 81.7584 62.5654 81.2384 62.5654C80.7184 62.5654 80.3784 62.8554 80.3784 63.3554C80.3784 63.9154 80.7284 64.1854 81.2384 64.1854ZM81.2384 67.4654C81.8784 67.4654 82.3984 67.1854 82.3984 66.4854C82.3984 65.8154 81.9684 65.3954 81.2384 65.3954C80.5084 65.3954 80.0784 65.8154 80.0784 66.4854C80.0784 67.1854 80.5984 67.4654 81.2384 67.4654ZM87.2545 68.7254C85.5245 68.7254 84.6145 67.5554 84.6145 65.4954C84.6145 63.1454 85.4245 61.3054 87.5145 61.3054C88.9145 61.3054 89.5645 62.0654 89.8245 63.0854L88.3845 63.1854C88.2845 62.8254 88.0545 62.5654 87.5145 62.5654C86.7745 62.5654 86.2545 63.0754 86.0945 64.2954C86.4345 63.9954 86.9145 63.7754 87.5445 63.7754C88.9545 63.7754 89.8545 64.7254 89.8545 66.1554C89.8545 67.7354 88.8245 68.7254 87.2545 68.7254ZM87.2245 67.4454C87.9745 67.4454 88.3945 67.0054 88.3945 66.2054C88.3945 65.4654 88.0145 64.9854 87.2845 64.9854C86.5445 64.9854 86.0745 65.4754 86.0745 66.2154C86.0745 66.8954 86.4945 67.4454 87.2245 67.4454Z" fill="black"/>
<path id="386_2" d="M414.653 68.7254C413.023 68.7254 412.213 67.8954 412.143 66.6054L413.583 66.5354C413.643 67.2254 414.103 67.4654 414.683 67.4654C415.313 67.4654 415.803 67.1654 415.803 66.4654C415.803 65.7854 415.353 65.4254 414.613 65.4254H414.083V64.2954H414.613C415.173 64.2954 415.583 64.0454 415.583 63.4354C415.583 62.8454 415.233 62.5554 414.673 62.5554C414.053 62.5554 413.753 62.8654 413.693 63.3554L412.253 63.2854C412.393 62.0754 413.223 61.3054 414.683 61.3054C416.143 61.3054 417.043 62.0254 417.043 63.2454C417.043 64.0154 416.643 64.5254 415.893 64.7654C416.763 65.0154 417.263 65.6654 417.263 66.5654C417.263 67.9054 416.253 68.7254 414.653 68.7254ZM420.699 68.7254C419.129 68.7254 418.079 68.0054 418.079 66.6254C418.079 65.6954 418.619 65.0354 419.489 64.7554C418.819 64.4954 418.369 64.0054 418.369 63.2654C418.369 62.1254 419.299 61.3054 420.699 61.3054C422.099 61.3054 423.029 62.1254 423.029 63.2654C423.029 64.0054 422.579 64.4954 421.899 64.7554C422.779 65.0354 423.319 65.6954 423.319 66.6254C423.319 68.0054 422.269 68.7254 420.699 68.7254ZM420.699 64.1854C421.209 64.1854 421.559 63.9154 421.559 63.3554C421.559 62.8554 421.219 62.5654 420.699 62.5654C420.179 62.5654 419.839 62.8554 419.839 63.3554C419.839 63.9154 420.189 64.1854 420.699 64.1854ZM420.699 67.4654C421.339 67.4654 421.859 67.1854 421.859 66.4854C421.859 65.8154 421.429 65.3954 420.699 65.3954C419.969 65.3954 419.539 65.8154 419.539 66.4854C419.539 67.1854 420.059 67.4654 420.699 67.4654ZM426.715 68.7254C424.985 68.7254 424.075 67.5554 424.075 65.4954C424.075 63.1454 424.885 61.3054 426.975 61.3054C428.375 61.3054 429.025 62.0654 429.285 63.0854L427.845 63.1854C427.745 62.8254 427.515 62.5654 426.975 62.5654C426.235 62.5654 425.715 63.0754 425.555 64.2954C425.895 63.9954 426.375 63.7754 427.005 63.7754C428.415 63.7754 429.315 64.7254 429.315 66.1554C429.315 67.7354 428.285 68.7254 426.715 68.7254ZM426.685 67.4454C427.435 67.4454 427.855 67.0054 427.855 66.2054C427.855 65.4654 427.475 64.9854 426.745 64.9854C426.005 64.9854 425.535 65.4754 425.535 66.2154C425.535 66.8954 425.955 67.4454 426.685 67.4454Z" fill="black"/>
<path id="330" d="M457.938 182.098C456.308 182.098 455.498 181.268 455.428 179.978L456.868 179.908C456.928 180.598 457.388 180.838 457.968 180.838C458.598 180.838 459.088 180.538 459.088 179.838C459.088 179.158 458.638 178.798 457.898 178.798H457.368V177.668H457.898C458.458 177.668 458.868 177.418 458.868 176.808C458.868 176.218 458.518 175.928 457.958 175.928C457.338 175.928 457.038 176.238 456.978 176.728L455.538 176.658C455.678 175.448 456.508 174.678 457.968 174.678C459.428 174.678 460.328 175.398 460.328 176.618C460.328 177.388 459.928 177.898 459.178 178.138C460.048 178.388 460.548 179.038 460.548 179.938C460.548 181.278 459.538 182.098 457.938 182.098ZM463.934 182.098C462.304 182.098 461.494 181.268 461.424 179.978L462.864 179.908C462.924 180.598 463.384 180.838 463.964 180.838C464.594 180.838 465.084 180.538 465.084 179.838C465.084 179.158 464.634 178.798 463.894 178.798H463.364V177.668H463.894C464.454 177.668 464.864 177.418 464.864 176.808C464.864 176.218 464.514 175.928 463.954 175.928C463.334 175.928 463.034 176.238 462.974 176.728L461.534 176.658C461.674 175.448 462.504 174.678 463.964 174.678C465.424 174.678 466.324 175.398 466.324 176.618C466.324 177.388 465.924 177.898 465.174 178.138C466.044 178.388 466.544 179.038 466.544 179.938C466.544 181.278 465.534 182.098 463.934 182.098ZM469.98 182.098C468.38 182.098 467.42 180.688 467.42 178.398C467.42 176.098 468.38 174.678 469.98 174.678C471.58 174.678 472.54 176.098 472.54 178.398C472.54 180.688 471.58 182.098 469.98 182.098ZM468.88 178.398C468.88 178.828 468.91 179.198 468.97 179.508L470.66 176.318C470.48 176.068 470.25 175.938 469.98 175.938C469.29 175.938 468.88 176.758 468.88 178.398ZM469.98 180.838C470.67 180.838 471.08 180.028 471.08 178.398C471.08 177.968 471.05 177.588 470.99 177.268L469.3 180.458C469.48 180.708 469.71 180.838 469.98 180.838Z" fill="black"/>
<path id="330_2" d="M30.5783 182.098C28.9483 182.098 28.1383 181.268 28.0683 179.978L29.5083 179.908C29.5683 180.598 30.0283 180.838 30.6083 180.838C31.2383 180.838 31.7283 180.538 31.7283 179.838C31.7283 179.158 31.2783 178.798 30.5383 178.798H30.0083V177.668H30.5383C31.0983 177.668 31.5083 177.418 31.5083 176.808C31.5083 176.218 31.1583 175.928 30.5983 175.928C29.9783 175.928 29.6783 176.238 29.6183 176.728L28.1783 176.658C28.3183 175.448 29.1483 174.678 30.6083 174.678C32.0683 174.678 32.9683 175.398 32.9683 176.618C32.9683 177.388 32.5683 177.898 31.8183 178.138C32.6883 178.388 33.1883 179.038 33.1883 179.938C33.1883 181.278 32.1783 182.098 30.5783 182.098ZM36.5744 182.098C34.9444 182.098 34.1344 181.268 34.0644 179.978L35.5044 179.908C35.5644 180.598 36.0244 180.838 36.6044 180.838C37.2344 180.838 37.7244 180.538 37.7244 179.838C37.7244 179.158 37.2744 178.798 36.5344 178.798H36.0044V177.668H36.5344C37.0944 177.668 37.5044 177.418 37.5044 176.808C37.5044 176.218 37.1544 175.928 36.5944 175.928C35.9744 175.928 35.6744 176.238 35.6144 176.728L34.1744 176.658C34.3144 175.448 35.1444 174.678 36.6044 174.678C38.0644 174.678 38.9644 175.398 38.9644 176.618C38.9644 177.388 38.5644 177.898 37.8144 178.138C38.6844 178.388 39.1844 179.038 39.1844 179.938C39.1844 181.278 38.1744 182.098 36.5744 182.098ZM42.6205 182.098C41.0205 182.098 40.0605 180.688 40.0605 178.398C40.0605 176.098 41.0205 174.678 42.6205 174.678C44.2205 174.678 45.1805 176.098 45.1805 178.398C45.1805 180.688 44.2205 182.098 42.6205 182.098ZM41.5205 178.398C41.5205 178.828 41.5505 179.198 41.6105 179.508L43.3005 176.318C43.1205 176.068 42.8905 175.938 42.6205 175.938C41.9305 175.938 41.5205 176.758 41.5205 178.398ZM42.6205 180.838C43.3105 180.838 43.7205 180.028 43.7205 178.398C43.7205 177.968 43.6905 177.588 43.6305 177.268L41.9405 180.458C42.1205 180.708 42.3505 180.838 42.6205 180.838Z" fill="black"/>
</g>
<path id="Field" d="M18.9382 197.2C18.9382 159.291 96.3752 6.03711 250.83 6.03711H250.833C405.288 6.03711 482.725 159.291 482.725 197.2L455.509 230.248L322.343 445.387C308.191 469.898 278.05 473.9 250.833 473.9H250.83C223.614 473.9 193.472 469.898 179.32 445.387L46.1545 230.248L18.9382 197.2Z" fill="#BA0021" fill-opacity="0.1" fill="none" stroke="#BA0021" stroke-width="1.002"/>
</g>
<defs>
<clipPath id="clip0_73_1071">
<rect width="500" height="469.94" fill="white"/>
</clipPath>
</defs>
</svg>
