<svg width="500" height="470" viewBox="0 0 500 470" fill="none" xmlns="http://www.w3.org/2000/svg">
<g id="busch-stadium-ii-1997">
<g id="Infield">
<path d="M339.98 327.765C339.453 325.665 322.032 258.478 250.83 258.478C180.238 258.478 162.505 324.537 161.697 327.698C161.677 327.775 161.668 327.815 161.668 327.815L236.504 402.652C235.305 404.911 234.623 407.488 234.623 410.237C234.623 419.185 241.873 426.444 250.83 426.444C259.778 426.444 267.037 419.185 267.037 410.237C267.037 407.488 266.356 404.911 265.157 402.656L260.695 397.374C257.96 395.277 254.544 394.025 250.83 394.025C247.117 394.025 243.701 395.277 240.971 397.369L197.7 354.099C201.448 350.352 201.448 344.276 197.7 340.529C197.698 340.526 197.694 340.524 197.691 340.521L244.055 294.037C247.8 297.772 253.861 297.772 257.606 294.037L303.431 339.983C303.431 339.983 303.427 339.984 303.424 339.987C299.677 343.735 300.275 350.299 304.022 354.046L260.695 397.374L265.157 402.656L339.98 327.765Z" fill="#D2D2D2"/>
<path d="M259.91 345.705C259.91 350.72 255.845 354.786 250.83 354.786C245.815 354.786 241.75 350.72 241.75 345.705C241.75 340.69 245.815 336.625 250.83 336.625C255.845 336.625 259.91 340.69 259.91 345.705Z" fill="#D2D2D2"/>
</g>
<g id="Guides">
<g id="Home">
<circle id="Ellipse 1" cx="250.827" cy="410.42" r="16.0848" fill="#D2D2D2"/>
<circle id="Ellipse 1_2" cx="250.827" cy="410.42" r="1.62919" fill="black"/>
</g>
<g id="First">
<circle id="Ellipse 1_3" cx="311.125" cy="346.533" r="10.1878" fill="#D2D2D2"/>
<circle id="Ellipse 1_4" cx="311.125" cy="346.532" r="1.0319" fill="black"/>
</g>
<g id="Third">
<circle id="Ellipse 1_5" cx="190.34" cy="346.533" r="10.1878" fill="#D2D2D2"/>
<circle id="Ellipse 1_6" cx="190.34" cy="346.532" r="1.0319" fill="black"/>
</g>
<g id="Second">
<circle id="Ellipse 1_7" cx="250.827" cy="286.671" r="10.1878" fill="#D2D2D2"/>
<circle id="Ellipse 1_8" cx="250.827" cy="286.671" r="1.0319" fill="black"/>
</g>
<g id="Mound">
<circle id="Ellipse 1_9" cx="250.827" cy="345.929" r="9.08365" fill="#D2D2D2"/>
<circle id="Ellipse 1_10" cx="250.827" cy="345.929" r="0.920062" fill="black"/>
</g>
</g>
<path id="Foul Lines" d="M480.039 181.453L250.976 410.516L21.6874 181.228" fill="none" stroke="black" stroke-width="1.002"/>
<g id="Measurements">
<path id="402" d="M244.758 13.6992V12.2792H241.588V11.1092L244.568 6.59922H246.188V11.0392H247.028V12.2792H246.188V13.6992H244.758ZM242.928 11.0392H244.758V8.38922L242.928 11.0392ZM250.304 13.8592C248.704 13.8592 247.744 12.4492 247.744 10.1592C247.744 7.85922 248.704 6.43922 250.304 6.43922C251.904 6.43922 252.864 7.85922 252.864 10.1592C252.864 12.4492 251.904 13.8592 250.304 13.8592ZM249.204 10.1592C249.204 10.5892 249.234 10.9592 249.294 11.2692L250.984 8.07922C250.804 7.82922 250.574 7.69922 250.304 7.69922C249.614 7.69922 249.204 8.51922 249.204 10.1592ZM250.304 12.5992C250.994 12.5992 251.404 11.7892 251.404 10.1592C251.404 9.72922 251.374 9.34922 251.314 9.02922L249.624 12.2192C249.804 12.4692 250.034 12.5992 250.304 12.5992ZM253.741 13.6992C253.741 11.9692 254.321 10.9592 256.301 9.93922C257.031 9.55922 257.391 9.27922 257.391 8.62922C257.391 8.05922 257.061 7.69922 256.431 7.69922C255.711 7.69922 255.361 8.11922 255.241 8.87922L253.771 8.78922C253.911 7.33922 254.821 6.43922 256.451 6.43922C258.041 6.43922 258.861 7.28922 258.861 8.54922C258.861 9.68922 258.371 10.2492 256.971 11.0092C255.821 11.6292 255.411 12.0592 255.371 12.4192H258.861V13.6992H253.741Z" fill="black"/>
<path id="372" d="M81.4046 78.7254C79.7746 78.7254 78.9646 77.8954 78.8946 76.6054L80.3346 76.5354C80.3946 77.2254 80.8546 77.4654 81.4346 77.4654C82.0646 77.4654 82.5546 77.1654 82.5546 76.4654C82.5546 75.7854 82.1046 75.4254 81.3646 75.4254H80.8346V74.2954H81.3646C81.9246 74.2954 82.3346 74.0454 82.3346 73.4354C82.3346 72.8454 81.9846 72.5554 81.4246 72.5554C80.8046 72.5554 80.5046 72.8654 80.4446 73.3554L79.0046 73.2854C79.1446 72.0754 79.9746 71.3054 81.4346 71.3054C82.8946 71.3054 83.7946 72.0254 83.7946 73.2454C83.7946 74.0154 83.3946 74.5254 82.6446 74.7654C83.5146 75.0154 84.0146 75.6654 84.0146 76.5654C84.0146 77.9054 83.0046 78.7254 81.4046 78.7254ZM86.1207 78.5654C86.1207 76.4154 87.0207 74.4554 88.4907 72.7454H84.9907V71.4654H89.9107V72.6754C88.2807 74.5354 87.6107 76.1254 87.6107 78.5654H86.1207ZM90.8868 78.5654C90.8868 76.8354 91.4668 75.8254 93.4468 74.8054C94.1768 74.4254 94.5368 74.1454 94.5368 73.4954C94.5368 72.9254 94.2068 72.5654 93.5768 72.5654C92.8568 72.5654 92.5068 72.9854 92.3868 73.7454L90.9168 73.6554C91.0568 72.2054 91.9668 71.3054 93.5968 71.3054C95.1868 71.3054 96.0068 72.1554 96.0068 73.4154C96.0068 74.5554 95.5168 75.1154 94.1168 75.8754C92.9668 76.4954 92.5568 76.9254 92.5168 77.2854H96.0068V78.5654H90.8868Z" fill="black"/>
<path id="372_2" d="M408.581 78.7254C406.951 78.7254 406.141 77.8954 406.071 76.6054L407.511 76.5354C407.571 77.2254 408.031 77.4654 408.611 77.4654C409.241 77.4654 409.731 77.1654 409.731 76.4654C409.731 75.7854 409.281 75.4254 408.541 75.4254H408.011V74.2954H408.541C409.101 74.2954 409.511 74.0454 409.511 73.4354C409.511 72.8454 409.161 72.5554 408.601 72.5554C407.981 72.5554 407.681 72.8654 407.621 73.3554L406.181 73.2854C406.321 72.0754 407.151 71.3054 408.611 71.3054C410.071 71.3054 410.971 72.0254 410.971 73.2454C410.971 74.0154 410.571 74.5254 409.821 74.7654C410.691 75.0154 411.191 75.6654 411.191 76.5654C411.191 77.9054 410.181 78.7254 408.581 78.7254ZM413.298 78.5654C413.298 76.4154 414.198 74.4554 415.668 72.7454H412.168V71.4654H417.088V72.6754C415.458 74.5354 414.788 76.1254 414.788 78.5654H413.298ZM418.064 78.5654C418.064 76.8354 418.644 75.8254 420.624 74.8054C421.354 74.4254 421.714 74.1454 421.714 73.4954C421.714 72.9254 421.384 72.5654 420.754 72.5654C420.034 72.5654 419.684 72.9854 419.564 73.7454L418.094 73.6554C418.234 72.2054 419.144 71.3054 420.774 71.3054C422.364 71.3054 423.184 72.1554 423.184 73.4154C423.184 74.5554 422.694 75.1154 421.294 75.8754C420.144 76.4954 419.734 76.9254 419.694 77.2854H423.184V78.5654H418.064Z" fill="black"/>
<path id="330" d="M457.938 182.098C456.308 182.098 455.498 181.268 455.428 179.978L456.868 179.908C456.928 180.598 457.388 180.838 457.968 180.838C458.598 180.838 459.088 180.538 459.088 179.838C459.088 179.158 458.638 178.798 457.898 178.798H457.368V177.668H457.898C458.458 177.668 458.868 177.418 458.868 176.808C458.868 176.218 458.518 175.928 457.958 175.928C457.338 175.928 457.038 176.238 456.978 176.728L455.538 176.658C455.678 175.448 456.508 174.678 457.968 174.678C459.428 174.678 460.328 175.398 460.328 176.618C460.328 177.388 459.928 177.898 459.178 178.138C460.048 178.388 460.548 179.038 460.548 179.938C460.548 181.278 459.538 182.098 457.938 182.098ZM463.934 182.098C462.304 182.098 461.494 181.268 461.424 179.978L462.864 179.908C462.924 180.598 463.384 180.838 463.964 180.838C464.594 180.838 465.084 180.538 465.084 179.838C465.084 179.158 464.634 178.798 463.894 178.798H463.364V177.668H463.894C464.454 177.668 464.864 177.418 464.864 176.808C464.864 176.218 464.514 175.928 463.954 175.928C463.334 175.928 463.034 176.238 462.974 176.728L461.534 176.658C461.674 175.448 462.504 174.678 463.964 174.678C465.424 174.678 466.324 175.398 466.324 176.618C466.324 177.388 465.924 177.898 465.174 178.138C466.044 178.388 466.544 179.038 466.544 179.938C466.544 181.278 465.534 182.098 463.934 182.098ZM469.98 182.098C468.38 182.098 467.42 180.688 467.42 178.398C467.42 176.098 468.38 174.678 469.98 174.678C471.58 174.678 472.54 176.098 472.54 178.398C472.54 180.688 471.58 182.098 469.98 182.098ZM468.88 178.398C468.88 178.828 468.91 179.198 468.97 179.508L470.66 176.318C470.48 176.068 470.25 175.938 469.98 175.938C469.29 175.938 468.88 176.758 468.88 178.398ZM469.98 180.838C470.67 180.838 471.08 180.028 471.08 178.398C471.08 177.968 471.05 177.588 470.99 177.268L469.3 180.458C469.48 180.708 469.71 180.838 469.98 180.838Z" fill="black"/>
<path id="330_2" d="M30.5783 182.098C28.9483 182.098 28.1383 181.268 28.0683 179.978L29.5083 179.908C29.5683 180.598 30.0283 180.838 30.6083 180.838C31.2383 180.838 31.7283 180.538 31.7283 179.838C31.7283 179.158 31.2783 178.798 30.5383 178.798H30.0083V177.668H30.5383C31.0983 177.668 31.5083 177.418 31.5083 176.808C31.5083 176.218 31.1583 175.928 30.5983 175.928C29.9783 175.928 29.6783 176.238 29.6183 176.728L28.1783 176.658C28.3183 175.448 29.1483 174.678 30.6083 174.678C32.0683 174.678 32.9683 175.398 32.9683 176.618C32.9683 177.388 32.5683 177.898 31.8183 178.138C32.6883 178.388 33.1883 179.038 33.1883 179.938C33.1883 181.278 32.1783 182.098 30.5783 182.098ZM36.5744 182.098C34.9444 182.098 34.1344 181.268 34.0644 179.978L35.5044 179.908C35.5644 180.598 36.0244 180.838 36.6044 180.838C37.2344 180.838 37.7244 180.538 37.7244 179.838C37.7244 179.158 37.2744 178.798 36.5344 178.798H36.0044V177.668H36.5344C37.0944 177.668 37.5044 177.418 37.5044 176.808C37.5044 176.218 37.1544 175.928 36.5944 175.928C35.9744 175.928 35.6744 176.238 35.6144 176.728L34.1744 176.658C34.3144 175.448 35.1444 174.678 36.6044 174.678C38.0644 174.678 38.9644 175.398 38.9644 176.618C38.9644 177.388 38.5644 177.898 37.8144 178.138C38.6844 178.388 39.1844 179.038 39.1844 179.938C39.1844 181.278 38.1744 182.098 36.5744 182.098ZM42.6205 182.098C41.0205 182.098 40.0605 180.688 40.0605 178.398C40.0605 176.098 41.0205 174.678 42.6205 174.678C44.2205 174.678 45.1805 176.098 45.1805 178.398C45.1805 180.688 44.2205 182.098 42.6205 182.098ZM41.5205 178.398C41.5205 178.828 41.5505 179.198 41.6105 179.508L43.3005 176.318C43.1205 176.068 42.8905 175.938 42.6205 175.938C41.9305 175.938 41.5205 176.758 41.5205 178.398ZM42.6205 180.838C43.3105 180.838 43.7205 180.028 43.7205 178.398C43.7205 177.968 43.6905 177.588 43.6305 177.268L41.9405 180.458C42.1205 180.708 42.3505 180.838 42.6205 180.838Z" fill="black"/>
</g>
<path id="Field" d="M250.833 18.0371H250.83C208.953 18.0371 172.738 28.4205 142.193 44.3125C133.631 48.767 125.88 54.5871 118.61 60.9352L72.1211 101.529C65.1606 107.607 58.632 114.197 53.1758 121.654C33.858 148.059 22.7092 173.468 19.7439 189.476L80.5641 250.603V267.392L182.32 429.387C194.613 448.411 208.881 462.633 250.83 462.633C292.779 462.633 308.099 448.863 319.343 429.387L420.424 267.447V250.85L481.949 189.636C479.028 173.638 467.87 148.147 448.487 121.655C443.031 114.197 436.503 107.607 429.542 101.529L383.053 60.9352C375.784 54.5872 368.032 48.767 359.47 44.3125C328.925 28.4205 292.71 18.0371 250.833 18.0371Z" fill="#BA0021" fill-opacity="0.1" fill="none" stroke="#BA0021" stroke-width="1.002"/>
</g>
</svg>
