<svg width="500" height="470" viewBox="0 0 500 470" fill="none" xmlns="http://www.w3.org/2000/svg">
<g id="busch-stadium-ii-1973" clip-path="url(#clip0_73_1098)">
<g id="Infield">
<path d="M339.98 327.765C339.453 325.665 322.032 258.478 250.83 258.478C180.238 258.478 162.505 324.537 161.697 327.698C161.677 327.775 161.668 327.815 161.668 327.815L236.504 402.652C235.305 404.911 234.623 407.488 234.623 410.237C234.623 419.185 241.873 426.444 250.83 426.444C259.778 426.444 267.037 419.185 267.037 410.237C267.037 407.488 266.356 404.911 265.156 402.656L260.695 397.374C257.96 395.277 254.544 394.025 250.83 394.025C247.117 394.025 243.701 395.277 240.971 397.369L197.7 354.099C201.448 350.352 201.448 344.276 197.7 340.529C197.698 340.526 197.694 340.524 197.691 340.521L244.055 294.037C247.8 297.772 253.861 297.772 257.606 294.037L303.431 339.983C303.431 339.983 303.427 339.984 303.424 339.987C299.677 343.735 300.275 350.299 304.022 354.046L260.695 397.374L265.156 402.656L339.98 327.765Z" fill="#D2D2D2"/>
<path d="M259.91 345.705C259.91 350.72 255.845 354.786 250.83 354.786C245.815 354.786 241.75 350.72 241.75 345.705C241.75 340.69 245.815 336.625 250.83 336.625C255.845 336.625 259.91 340.69 259.91 345.705Z" fill="#D2D2D2"/>
</g>
<g id="Guides">
<g id="Home">
<circle id="Ellipse 1" cx="250.827" cy="410.42" r="16.0848" fill="#D2D2D2"/>
<circle id="Ellipse 1_2" cx="250.827" cy="410.42" r="1.62919" fill="black"/>
</g>
<g id="First">
<circle id="Ellipse 1_3" cx="311.125" cy="346.533" r="10.1878" fill="#D2D2D2"/>
<circle id="Ellipse 1_4" cx="311.125" cy="346.532" r="1.0319" fill="black"/>
</g>
<g id="Third">
<circle id="Ellipse 1_5" cx="190.34" cy="346.533" r="10.1878" fill="#D2D2D2"/>
<circle id="Ellipse 1_6" cx="190.34" cy="346.532" r="1.0319" fill="black"/>
</g>
<g id="Second">
<circle id="Ellipse 1_7" cx="250.827" cy="286.671" r="10.1878" fill="#D2D2D2"/>
<circle id="Ellipse 1_8" cx="250.827" cy="286.671" r="1.0319" fill="black"/>
</g>
<g id="Mound">
<circle id="Ellipse 1_9" cx="250.827" cy="345.929" r="9.08365" fill="#D2D2D2"/>
<circle id="Ellipse 1_10" cx="250.827" cy="345.929" r="0.920062" fill="black"/>
</g>
</g>
<path id="Foul Lines" d="M480.264 181.228L250.976 410.516L21.6873 181.228" fill="none" stroke="black" stroke-width="1.002"/>
<g id="Measurements">
<path id="376" d="M83.1923 71.7254C81.5623 71.7254 80.7523 70.8954 80.6823 69.6054L82.1223 69.5354C82.1823 70.2254 82.6423 70.4654 83.2223 70.4654C83.8523 70.4654 84.3423 70.1654 84.3423 69.4654C84.3423 68.7854 83.8923 68.4254 83.1523 68.4254H82.6223V67.2954H83.1523C83.7123 67.2954 84.1223 67.0454 84.1223 66.4354C84.1223 65.8454 83.7723 65.5554 83.2123 65.5554C82.5923 65.5554 82.2923 65.8654 82.2323 66.3554L80.7923 66.2854C80.9323 65.0754 81.7623 64.3054 83.2223 64.3054C84.6823 64.3054 85.5823 65.0254 85.5823 66.2454C85.5823 67.0154 85.1823 67.5254 84.4323 67.7654C85.3023 68.0154 85.8023 68.6654 85.8023 69.5654C85.8023 70.9054 84.7923 71.7254 83.1923 71.7254ZM87.9084 71.5654C87.9084 69.4154 88.8084 67.4554 90.2784 65.7454H86.7784V64.4654H91.6984V65.6754C90.0684 67.5354 89.3984 69.1254 89.3984 71.5654H87.9084ZM95.2545 71.7254C93.5245 71.7254 92.6145 70.5554 92.6145 68.4954C92.6145 66.1454 93.4245 64.3054 95.5145 64.3054C96.9145 64.3054 97.5645 65.0654 97.8245 66.0854L96.3845 66.1854C96.2845 65.8254 96.0545 65.5654 95.5145 65.5654C94.7745 65.5654 94.2545 66.0754 94.0945 67.2954C94.4345 66.9954 94.9145 66.7754 95.5445 66.7754C96.9545 66.7754 97.8545 67.7254 97.8545 69.1554C97.8545 70.7354 96.8245 71.7254 95.2545 71.7254ZM95.2245 70.4454C95.9745 70.4454 96.3945 70.0054 96.3945 69.2054C96.3945 68.4654 96.0145 67.9854 95.2845 67.9854C94.5445 67.9854 94.0745 68.4754 94.0745 69.2154C94.0745 69.8954 94.4945 70.4454 95.2245 70.4454Z" fill="black"/>
<path id="376_2" d="M406.653 71.7254C405.023 71.7254 404.213 70.8954 404.143 69.6054L405.583 69.5354C405.643 70.2254 406.103 70.4654 406.683 70.4654C407.313 70.4654 407.803 70.1654 407.803 69.4654C407.803 68.7854 407.353 68.4254 406.613 68.4254H406.083V67.2954H406.613C407.173 67.2954 407.583 67.0454 407.583 66.4354C407.583 65.8454 407.233 65.5554 406.673 65.5554C406.053 65.5554 405.753 65.8654 405.693 66.3554L404.253 66.2854C404.393 65.0754 405.223 64.3054 406.683 64.3054C408.143 64.3054 409.043 65.0254 409.043 66.2454C409.043 67.0154 408.643 67.5254 407.893 67.7654C408.763 68.0154 409.263 68.6654 409.263 69.5654C409.263 70.9054 408.253 71.7254 406.653 71.7254ZM411.369 71.5654C411.369 69.4154 412.269 67.4554 413.739 65.7454H410.239V64.4654H415.159V65.6754C413.529 67.5354 412.859 69.1254 412.859 71.5654H411.369ZM418.715 71.7254C416.985 71.7254 416.075 70.5554 416.075 68.4954C416.075 66.1454 416.885 64.3054 418.975 64.3054C420.375 64.3054 421.025 65.0654 421.285 66.0854L419.845 66.1854C419.745 65.8254 419.515 65.5654 418.975 65.5654C418.235 65.5654 417.715 66.0754 417.555 67.2954C417.895 66.9954 418.375 66.7754 419.005 66.7754C420.415 66.7754 421.315 67.7254 421.315 69.1554C421.315 70.7354 420.285 71.7254 418.715 71.7254ZM418.685 70.4454C419.435 70.4454 419.855 70.0054 419.855 69.2054C419.855 68.4654 419.475 67.9854 418.745 67.9854C418.005 67.9854 417.535 68.4754 417.535 69.2154C417.535 69.8954 417.955 70.4454 418.685 70.4454Z" fill="black"/>
<path id="330" d="M457.938 182.098C456.308 182.098 455.498 181.268 455.428 179.978L456.868 179.908C456.928 180.598 457.388 180.838 457.968 180.838C458.598 180.838 459.088 180.538 459.088 179.838C459.088 179.158 458.638 178.798 457.898 178.798H457.368V177.668H457.898C458.458 177.668 458.868 177.418 458.868 176.808C458.868 176.218 458.518 175.928 457.958 175.928C457.338 175.928 457.038 176.238 456.978 176.728L455.538 176.658C455.678 175.448 456.508 174.678 457.968 174.678C459.428 174.678 460.328 175.398 460.328 176.618C460.328 177.388 459.928 177.898 459.178 178.138C460.048 178.388 460.548 179.038 460.548 179.938C460.548 181.278 459.538 182.098 457.938 182.098ZM463.934 182.098C462.304 182.098 461.494 181.268 461.424 179.978L462.864 179.908C462.924 180.598 463.384 180.838 463.964 180.838C464.594 180.838 465.084 180.538 465.084 179.838C465.084 179.158 464.634 178.798 463.894 178.798H463.364V177.668H463.894C464.454 177.668 464.864 177.418 464.864 176.808C464.864 176.218 464.514 175.928 463.954 175.928C463.334 175.928 463.034 176.238 462.974 176.728L461.534 176.658C461.674 175.448 462.504 174.678 463.964 174.678C465.424 174.678 466.324 175.398 466.324 176.618C466.324 177.388 465.924 177.898 465.174 178.138C466.044 178.388 466.544 179.038 466.544 179.938C466.544 181.278 465.534 182.098 463.934 182.098ZM469.98 182.098C468.38 182.098 467.42 180.688 467.42 178.398C467.42 176.098 468.38 174.678 469.98 174.678C471.58 174.678 472.54 176.098 472.54 178.398C472.54 180.688 471.58 182.098 469.98 182.098ZM468.88 178.398C468.88 178.828 468.91 179.198 468.97 179.508L470.66 176.318C470.48 176.068 470.25 175.938 469.98 175.938C469.29 175.938 468.88 176.758 468.88 178.398ZM469.98 180.838C470.67 180.838 471.08 180.028 471.08 178.398C471.08 177.968 471.05 177.588 470.99 177.268L469.3 180.458C469.48 180.708 469.71 180.838 469.98 180.838Z" fill="black"/>
<path id="330_2" d="M30.5783 182.098C28.9483 182.098 28.1383 181.268 28.0683 179.978L29.5083 179.908C29.5683 180.598 30.0283 180.838 30.6083 180.838C31.2383 180.838 31.7283 180.538 31.7283 179.838C31.7283 179.158 31.2783 178.798 30.5383 178.798H30.0083V177.668H30.5383C31.0983 177.668 31.5083 177.418 31.5083 176.808C31.5083 176.218 31.1583 175.928 30.5983 175.928C29.9783 175.928 29.6783 176.238 29.6183 176.728L28.1783 176.658C28.3183 175.448 29.1483 174.678 30.6083 174.678C32.0683 174.678 32.9683 175.398 32.9683 176.618C32.9683 177.388 32.5683 177.898 31.8183 178.138C32.6883 178.388 33.1883 179.038 33.1883 179.938C33.1883 181.278 32.1783 182.098 30.5783 182.098ZM36.5744 182.098C34.9444 182.098 34.1344 181.268 34.0644 179.978L35.5044 179.908C35.5644 180.598 36.0244 180.838 36.6044 180.838C37.2344 180.838 37.7244 180.538 37.7244 179.838C37.7244 179.158 37.2744 178.798 36.5344 178.798H36.0044V177.668H36.5344C37.0944 177.668 37.5044 177.418 37.5044 176.808C37.5044 176.218 37.1544 175.928 36.5944 175.928C35.9744 175.928 35.6744 176.238 35.6144 176.728L34.1744 176.658C34.3144 175.448 35.1444 174.678 36.6044 174.678C38.0644 174.678 38.9644 175.398 38.9644 176.618C38.9644 177.388 38.5644 177.898 37.8144 178.138C38.6844 178.388 39.1844 179.038 39.1844 179.938C39.1844 181.278 38.1744 182.098 36.5744 182.098ZM42.6205 182.098C41.0205 182.098 40.0605 180.688 40.0605 178.398C40.0605 176.098 41.0205 174.678 42.6205 174.678C44.2205 174.678 45.1805 176.098 45.1805 178.398C45.1805 180.688 44.2205 182.098 42.6205 182.098ZM41.5205 178.398C41.5205 178.828 41.5505 179.198 41.6105 179.508L43.3005 176.318C43.1205 176.068 42.8905 175.938 42.6205 175.938C41.9305 175.938 41.5205 176.758 41.5205 178.398ZM42.6205 180.838C43.3105 180.838 43.7205 180.028 43.7205 178.398C43.7205 177.968 43.6905 177.588 43.6305 177.268L41.9405 180.458C42.1205 180.708 42.3505 180.838 42.6205 180.838Z" fill="black"/>
<path id="404" d="M246.203 9.69922V8.27922H243.033V7.10922L246.013 2.59922H247.633V7.03922H248.473V8.27922H247.633V9.69922H246.203ZM244.373 7.03922H246.203V4.38922L244.373 7.03922ZM251.749 9.85922C250.149 9.85922 249.189 8.44922 249.189 6.15922C249.189 3.85922 250.149 2.43922 251.749 2.43922C253.349 2.43922 254.309 3.85922 254.309 6.15922C254.309 8.44922 253.349 9.85922 251.749 9.85922ZM250.649 6.15922C250.649 6.58922 250.679 6.95922 250.739 7.26922L252.429 4.07922C252.249 3.82922 252.019 3.69922 251.749 3.69922C251.059 3.69922 250.649 4.51922 250.649 6.15922ZM251.749 8.59922C252.439 8.59922 252.849 7.78922 252.849 6.15922C252.849 5.72922 252.819 5.34922 252.759 5.02922L251.069 8.21922C251.249 8.46922 251.479 8.59922 251.749 8.59922ZM258.195 9.69922V8.27922H255.025V7.10922L258.005 2.59922H259.625V7.03922H260.465V8.27922H259.625V9.69922H258.195ZM256.365 7.03922H258.195V4.38922L256.365 7.03922Z" fill="black"/>
</g>
<path id="Field" d="M18.9382 197.2C18.9382 159.291 96.3752 17.0371 250.83 17.0371H250.833C405.288 17.0371 482.725 159.291 482.725 197.2L455.509 230.248L322.343 445.387C308.191 469.898 278.05 473.9 250.833 473.9H250.83C223.614 473.9 193.472 469.898 179.32 445.387L46.1545 230.248L18.9382 197.2Z" fill="#BA0021" fill-opacity="0.1" fill="none" stroke="#BA0021" stroke-width="1.002"/>
</g>
<defs>
<clipPath id="clip0_73_1098">
<rect width="500" height="469.94" fill="white"/>
</clipPath>
</defs>
</svg>
