<svg width="500" height="470" viewBox="0 0 500 470" fill="none" xmlns="http://www.w3.org/2000/svg">
<g id="candlestick-park-1961" clip-path="url(#clip0_82_1128)">
<g id="Infield">
<path d="M339.98 327.765C339.453 325.665 322.032 258.478 250.83 258.478C180.238 258.478 162.505 324.537 161.697 327.698C161.677 327.775 161.668 327.815 161.668 327.815L236.504 402.652C235.305 404.911 234.623 407.488 234.623 410.237C234.623 419.185 241.873 426.444 250.83 426.444C259.778 426.444 267.037 419.185 267.037 410.237C267.037 407.488 266.356 404.911 265.156 402.656L260.695 397.374C257.96 395.277 254.544 394.025 250.83 394.025C247.117 394.025 243.701 395.277 240.971 397.369L197.7 354.099C201.448 350.352 201.448 344.276 197.7 340.529C197.698 340.526 197.694 340.524 197.691 340.521L244.055 294.037C247.8 297.772 253.861 297.772 257.606 294.037L303.431 339.983C303.431 339.983 303.427 339.984 303.424 339.987C299.677 343.735 300.275 350.299 304.022 354.046L260.695 397.374L265.156 402.656L339.98 327.765Z" fill="#D2D2D2"/>
<path d="M259.91 345.705C259.91 350.72 255.845 354.786 250.83 354.786C245.815 354.786 241.75 350.72 241.75 345.705C241.75 340.69 245.815 336.625 250.83 336.625C255.845 336.625 259.91 340.69 259.91 345.705Z" fill="#D2D2D2"/>
</g>
<g id="Guides">
<g id="Home">
<circle id="Ellipse 1" cx="250.827" cy="410.42" r="16.0848" fill="#D2D2D2"/>
<circle id="Ellipse 1_2" cx="250.827" cy="410.42" r="1.62919" fill="black"/>
</g>
<g id="First">
<circle id="Ellipse 1_3" cx="311.125" cy="346.532" r="10.1878" fill="#D2D2D2"/>
<circle id="Ellipse 1_4" cx="311.125" cy="346.532" r="1.0319" fill="black"/>
</g>
<g id="Third">
<circle id="Ellipse 1_5" cx="190.34" cy="346.532" r="10.1878" fill="#D2D2D2"/>
<circle id="Ellipse 1_6" cx="190.34" cy="346.532" r="1.0319" fill="black"/>
</g>
<g id="Second">
<circle id="Ellipse 1_7" cx="250.827" cy="286.67" r="10.1878" fill="#D2D2D2"/>
<circle id="Ellipse 1_8" cx="250.827" cy="286.671" r="1.0319" fill="black"/>
</g>
<g id="Mound">
<circle id="Ellipse 1_9" cx="250.827" cy="345.928" r="9.08365" fill="#D2D2D2"/>
<circle id="Ellipse 1_10" cx="250.827" cy="345.929" r="0.920062" fill="black"/>
</g>
</g>
<path id="Foul Lines" d="M474.236 187.255L250.976 410.516L27.9866 187.527" fill="none" stroke="black" stroke-width="1.002"/>
<g id="Measurements">
<path id="410" d="M253.258 16.6992V15.2792H250.088V14.1092L253.068 9.59922H254.688V14.0392H255.528V15.2792H254.688V16.6992H253.258ZM251.428 14.0392H253.258V11.3892L251.428 14.0392ZM256.284 16.6992V15.4192H258.324V12.0392H256.584V10.8592H257.364C258.164 10.8592 258.504 10.5192 258.504 9.59922H259.744V15.4192H261.324V16.6992H256.284ZM264.8 16.8592C263.2 16.8592 262.24 15.4492 262.24 13.1592C262.24 10.8592 263.2 9.43922 264.8 9.43922C266.4 9.43922 267.36 10.8592 267.36 13.1592C267.36 15.4492 266.4 16.8592 264.8 16.8592ZM263.7 13.1592C263.7 13.5892 263.73 13.9592 263.79 14.2692L265.48 11.0792C265.3 10.8292 265.07 10.6992 264.8 10.6992C264.11 10.6992 263.7 11.5192 263.7 13.1592ZM264.8 15.5992C265.49 15.5992 265.9 14.7892 265.9 13.1592C265.9 12.7292 265.87 12.3492 265.81 12.0292L264.12 15.2192C264.3 15.4692 264.53 15.5992 264.8 15.5992Z" fill="black"/>
<path id="365" d="M111.166 83.7938C109.536 83.7938 108.726 82.9638 108.656 81.6738L110.096 81.6038C110.156 82.2938 110.616 82.5338 111.196 82.5338C111.826 82.5338 112.316 82.2338 112.316 81.5338C112.316 80.8538 111.866 80.4938 111.126 80.4938H110.596V79.3638H111.126C111.686 79.3638 112.096 79.1138 112.096 78.5038C112.096 77.9138 111.746 77.6238 111.186 77.6238C110.566 77.6238 110.266 77.9338 110.206 78.4238L108.766 78.3538C108.906 77.1438 109.736 76.3738 111.196 76.3738C112.656 76.3738 113.556 77.0938 113.556 78.3138C113.556 79.0838 113.156 79.5938 112.406 79.8338C113.276 80.0838 113.776 80.7338 113.776 81.6338C113.776 82.9738 112.766 83.7938 111.166 83.7938ZM117.232 83.7938C115.502 83.7938 114.592 82.6238 114.592 80.5638C114.592 78.2138 115.402 76.3738 117.492 76.3738C118.892 76.3738 119.542 77.1338 119.802 78.1538L118.362 78.2538C118.262 77.8938 118.032 77.6338 117.492 77.6338C116.752 77.6338 116.232 78.1438 116.072 79.3638C116.412 79.0638 116.892 78.8438 117.522 78.8438C118.932 78.8438 119.832 79.7938 119.832 81.2238C119.832 82.8038 118.802 83.7938 117.232 83.7938ZM117.202 82.5138C117.952 82.5138 118.372 82.0738 118.372 81.2738C118.372 80.5338 117.992 80.0538 117.262 80.0538C116.522 80.0538 116.052 80.5438 116.052 81.2838C116.052 81.9638 116.472 82.5138 117.202 82.5138ZM123.198 83.7938C121.698 83.7938 120.788 82.9038 120.688 81.7338L122.148 81.6538C122.238 82.2338 122.588 82.5338 123.198 82.5338C123.858 82.5338 124.268 82.1138 124.268 81.3038C124.268 80.5138 123.848 80.0538 123.208 80.0538C122.768 80.0538 122.398 80.3138 122.258 80.6738L120.788 80.6038L121.208 76.5338H125.398V77.8138H122.378L122.198 79.3438C122.528 79.0638 122.968 78.9038 123.448 78.9038C124.858 78.9038 125.728 79.9238 125.728 81.3138C125.728 82.7838 124.728 83.7938 123.198 83.7938Z" fill="black"/>
<path id="375" d="M397.402 80.7938C395.772 80.7938 394.962 79.9638 394.892 78.6738L396.332 78.6038C396.392 79.2938 396.852 79.5338 397.432 79.5338C398.062 79.5338 398.552 79.2338 398.552 78.5338C398.552 77.8538 398.102 77.4938 397.362 77.4938H396.832V76.3638H397.362C397.922 76.3638 398.332 76.1138 398.332 75.5038C398.332 74.9138 397.982 74.6238 397.422 74.6238C396.802 74.6238 396.502 74.9338 396.442 75.4238L395.002 75.3538C395.142 74.1438 395.972 73.3738 397.432 73.3738C398.892 73.3738 399.792 74.0938 399.792 75.3138C399.792 76.0838 399.392 76.5938 398.642 76.8338C399.512 77.0838 400.012 77.7338 400.012 78.6338C400.012 79.9738 399.002 80.7938 397.402 80.7938ZM402.118 80.6338C402.118 78.4838 403.018 76.5238 404.488 74.8138H400.988V73.5338H405.908V74.7438C404.278 76.6038 403.608 78.1938 403.608 80.6338H402.118ZM409.434 80.7938C407.934 80.7938 407.024 79.9038 406.924 78.7338L408.384 78.6538C408.474 79.2338 408.824 79.5338 409.434 79.5338C410.094 79.5338 410.504 79.1138 410.504 78.3038C410.504 77.5138 410.084 77.0538 409.444 77.0538C409.004 77.0538 408.634 77.3138 408.494 77.6738L407.024 77.6038L407.444 73.5338H411.634V74.8138H408.614L408.434 76.3438C408.764 76.0638 409.204 75.9038 409.684 75.9038C411.094 75.9038 411.964 76.9238 411.964 78.3138C411.964 79.7838 410.964 80.7938 409.434 80.7938Z" fill="black"/>
<path id="335" d="M451.938 190.038C450.308 190.038 449.498 189.208 449.428 187.918L450.868 187.848C450.928 188.538 451.388 188.778 451.968 188.778C452.598 188.778 453.088 188.478 453.088 187.778C453.088 187.098 452.638 186.738 451.898 186.738H451.368V185.608H451.898C452.458 185.608 452.868 185.358 452.868 184.748C452.868 184.158 452.518 183.868 451.958 183.868C451.338 183.868 451.038 184.178 450.978 184.668L449.538 184.598C449.678 183.388 450.508 182.618 451.968 182.618C453.428 182.618 454.328 183.338 454.328 184.558C454.328 185.328 453.928 185.838 453.178 186.078C454.048 186.328 454.548 186.978 454.548 187.878C454.548 189.218 453.538 190.038 451.938 190.038ZM457.934 190.038C456.304 190.038 455.494 189.208 455.424 187.918L456.864 187.848C456.924 188.538 457.384 188.778 457.964 188.778C458.594 188.778 459.084 188.478 459.084 187.778C459.084 187.098 458.634 186.738 457.894 186.738H457.364V185.608H457.894C458.454 185.608 458.864 185.358 458.864 184.748C458.864 184.158 458.514 183.868 457.954 183.868C457.334 183.868 457.034 184.178 456.974 184.668L455.534 184.598C455.674 183.388 456.504 182.618 457.964 182.618C459.424 182.618 460.324 183.338 460.324 184.558C460.324 185.328 459.924 185.838 459.174 186.078C460.044 186.328 460.544 186.978 460.544 187.878C460.544 189.218 459.534 190.038 457.934 190.038ZM463.97 190.038C462.47 190.038 461.56 189.148 461.46 187.978L462.92 187.898C463.01 188.478 463.36 188.778 463.97 188.778C464.63 188.778 465.04 188.358 465.04 187.548C465.04 186.758 464.62 186.298 463.98 186.298C463.54 186.298 463.17 186.558 463.03 186.918L461.56 186.848L461.98 182.778H466.17V184.058H463.15L462.97 185.588C463.3 185.308 463.74 185.148 464.22 185.148C465.63 185.148 466.5 186.168 466.5 187.558C466.5 189.028 465.5 190.038 463.97 190.038Z" fill="black"/>
<path id="335_2" d="M37.2615 190.038C35.6315 190.038 34.8215 189.208 34.7515 187.918L36.1915 187.848C36.2515 188.538 36.7115 188.778 37.2915 188.778C37.9215 188.778 38.4115 188.478 38.4115 187.778C38.4115 187.098 37.9615 186.738 37.2215 186.738H36.6915V185.608H37.2215C37.7815 185.608 38.1915 185.358 38.1915 184.748C38.1915 184.158 37.8415 183.868 37.2815 183.868C36.6615 183.868 36.3615 184.178 36.3015 184.668L34.8615 184.598C35.0015 183.388 35.8315 182.618 37.2915 182.618C38.7515 182.618 39.6515 183.338 39.6515 184.558C39.6515 185.328 39.2515 185.838 38.5015 186.078C39.3715 186.328 39.8715 186.978 39.8715 187.878C39.8715 189.218 38.8615 190.038 37.2615 190.038ZM43.2576 190.038C41.6276 190.038 40.8176 189.208 40.7476 187.918L42.1876 187.848C42.2476 188.538 42.7076 188.778 43.2876 188.778C43.9176 188.778 44.4076 188.478 44.4076 187.778C44.4076 187.098 43.9576 186.738 43.2176 186.738H42.6876V185.608H43.2176C43.7776 185.608 44.1876 185.358 44.1876 184.748C44.1876 184.158 43.8376 183.868 43.2776 183.868C42.6576 183.868 42.3576 184.178 42.2976 184.668L40.8576 184.598C40.9976 183.388 41.8276 182.618 43.2876 182.618C44.7476 182.618 45.6476 183.338 45.6476 184.558C45.6476 185.328 45.2476 185.838 44.4976 186.078C45.3676 186.328 45.8676 186.978 45.8676 187.878C45.8676 189.218 44.8576 190.038 43.2576 190.038ZM49.2937 190.038C47.7937 190.038 46.8837 189.148 46.7837 187.978L48.2437 187.898C48.3337 188.478 48.6837 188.778 49.2937 188.778C49.9537 188.778 50.3637 188.358 50.3637 187.548C50.3637 186.758 49.9437 186.298 49.3037 186.298C48.8637 186.298 48.4937 186.558 48.3537 186.918L46.8837 186.848L47.3037 182.778H51.4937V184.058H48.4737L48.2937 185.588C48.6237 185.308 49.0637 185.148 49.5437 185.148C50.9537 185.148 51.8237 186.168 51.8237 187.558C51.8237 189.028 50.8237 190.038 49.2937 190.038Z" fill="black"/>
</g>
<path id="field" d="M63.923 233.654L23.0971 192.828L141.706 71.8534C212.521 -0.373051 330.637 5.89708 393.406 85.2148L478.568 192.828L437.742 233.654L362.535 404.908C319.822 502.168 181.839 502.168 139.128 404.907L63.923 233.654Z" fill="#FD5A1E" fill-opacity="0.1" fill="none" stroke="#FD5A1E" stroke-width="1.002"/>
</g>
<defs>
<clipPath id="clip0_82_1128">
<rect width="500" height="469.94" fill="white"/>
</clipPath>
</defs>
</svg>
