<svg width="500" height="470" viewBox="0 0 500 470" fill="none" xmlns="http://www.w3.org/2000/svg">
<g id="candlestick-park-1960" clip-path="url(#clip0_82_1101)">
<g id="Infield">
<path d="M339.98 327.765C339.453 325.665 322.032 258.478 250.83 258.478C180.238 258.478 162.505 324.537 161.697 327.698C161.677 327.775 161.668 327.815 161.668 327.815L236.504 402.652C235.305 404.911 234.623 407.488 234.623 410.237C234.623 419.185 241.873 426.444 250.83 426.444C259.778 426.444 267.037 419.185 267.037 410.237C267.037 407.488 266.356 404.911 265.156 402.656L260.695 397.374C257.96 395.277 254.544 394.025 250.83 394.025C247.117 394.025 243.701 395.277 240.971 397.369L197.7 354.099C201.448 350.352 201.448 344.276 197.7 340.529C197.698 340.526 197.694 340.524 197.691 340.521L244.055 294.037C247.8 297.772 253.861 297.772 257.606 294.037L303.431 339.983C303.431 339.983 303.427 339.984 303.424 339.987C299.677 343.735 300.275 350.299 304.022 354.046L260.695 397.374L265.156 402.656L339.98 327.765Z" fill="#D2D2D2"/>
<path d="M259.91 345.705C259.91 350.72 255.845 354.786 250.83 354.786C245.815 354.786 241.75 350.72 241.75 345.705C241.75 340.69 245.815 336.625 250.83 336.625C255.845 336.625 259.91 340.69 259.91 345.705Z" fill="#D2D2D2"/>
</g>
<g id="Guides">
<g id="Home">
<circle id="Ellipse 1" cx="250.827" cy="410.42" r="16.0848" fill="#D2D2D2"/>
<circle id="Ellipse 1_2" cx="250.827" cy="410.42" r="1.62919" fill="black"/>
</g>
<g id="First">
<circle id="Ellipse 1_3" cx="311.125" cy="346.532" r="10.1878" fill="#D2D2D2"/>
<circle id="Ellipse 1_4" cx="311.125" cy="346.532" r="1.0319" fill="black"/>
</g>
<g id="Third">
<circle id="Ellipse 1_5" cx="190.34" cy="346.532" r="10.1878" fill="#D2D2D2"/>
<circle id="Ellipse 1_6" cx="190.34" cy="346.532" r="1.0319" fill="black"/>
</g>
<g id="Second">
<circle id="Ellipse 1_7" cx="250.827" cy="286.67" r="10.1878" fill="#D2D2D2"/>
<circle id="Ellipse 1_8" cx="250.827" cy="286.671" r="1.0319" fill="black"/>
</g>
<g id="Mound">
<circle id="Ellipse 1_9" cx="250.827" cy="345.928" r="9.08365" fill="#D2D2D2"/>
<circle id="Ellipse 1_10" cx="250.827" cy="345.929" r="0.920062" fill="black"/>
</g>
</g>
<path id="Foul Lines" d="M474.954 186.538L250.976 410.516L26.838 186.378" fill="none" stroke="black" stroke-width="1.002"/>
<g id="Measurements">
<path id="420" d="M245.258 7.69922V6.27922H242.088V5.10922L245.068 0.599218H246.688V5.03922H247.528V6.27922H246.688V7.69922H245.258ZM243.428 5.03922H245.258V2.38922L243.428 5.03922ZM248.244 7.69922C248.244 5.96922 248.824 4.95922 250.804 3.93922C251.534 3.55922 251.894 3.27922 251.894 2.62922C251.894 2.05922 251.564 1.69922 250.934 1.69922C250.214 1.69922 249.864 2.11922 249.744 2.87922L248.274 2.78922C248.414 1.33922 249.324 0.439219 250.954 0.439219C252.544 0.439219 253.364 1.28922 253.364 2.54922C253.364 3.68922 252.874 4.24922 251.474 5.00922C250.324 5.62922 249.914 6.05922 249.874 6.41922H253.364V7.69922H248.244ZM256.8 7.85922C255.2 7.85922 254.24 6.44922 254.24 4.15922C254.24 1.85922 255.2 0.439219 256.8 0.439219C258.4 0.439219 259.36 1.85922 259.36 4.15922C259.36 6.44922 258.4 7.85922 256.8 7.85922ZM255.7 4.15922C255.7 4.58922 255.73 4.95922 255.79 5.26922L257.48 2.07922C257.3 1.82922 257.07 1.69922 256.8 1.69922C256.11 1.69922 255.7 2.51922 255.7 4.15922ZM256.8 6.59922C257.49 6.59922 257.9 5.78922 257.9 4.15922C257.9 3.72922 257.87 3.34922 257.81 3.02922L256.12 6.21922C256.3 6.46922 256.53 6.59922 256.8 6.59922Z" fill="black"/>
<path id="397" d="M88.1656 62.7938C86.5356 62.7938 85.7256 61.9638 85.6556 60.6738L87.0956 60.6038C87.1556 61.2938 87.6156 61.5338 88.1956 61.5338C88.8256 61.5338 89.3156 61.2338 89.3156 60.5338C89.3156 59.8538 88.8656 59.4938 88.1256 59.4938H87.5956V58.3638H88.1256C88.6856 58.3638 89.0956 58.1138 89.0956 57.5038C89.0956 56.9138 88.7456 56.6238 88.1856 56.6238C87.5656 56.6238 87.2656 56.9338 87.2056 57.4238L85.7656 57.3538C85.9056 56.1438 86.7356 55.3738 88.1956 55.3738C89.6556 55.3738 90.5556 56.0938 90.5556 57.3138C90.5556 58.0838 90.1556 58.5938 89.4056 58.8338C90.2756 59.0838 90.7756 59.7338 90.7756 60.6338C90.7756 61.9738 89.7656 62.7938 88.1656 62.7938ZM94.1917 55.3738C95.9217 55.3738 96.8317 56.5438 96.8317 58.6038C96.8317 60.9538 96.0217 62.7938 93.9317 62.7938C92.5317 62.7938 91.8817 62.0338 91.6217 61.0138L93.0617 60.9138C93.1617 61.2738 93.3917 61.5338 93.9317 61.5338C94.6717 61.5338 95.1917 61.0238 95.3517 59.8038C95.0117 60.1038 94.5317 60.3238 93.9017 60.3238C92.4917 60.3238 91.5917 59.3738 91.5917 57.9438C91.5917 56.3638 92.6217 55.3738 94.1917 55.3738ZM94.2217 56.6538C93.4717 56.6538 93.0517 57.0938 93.0517 57.8938C93.0517 58.6338 93.4317 59.1138 94.1617 59.1138C94.9017 59.1138 95.3717 58.6238 95.3717 57.8838C95.3717 57.2038 94.9517 56.6538 94.2217 56.6538ZM98.8778 62.6338C98.8778 60.4838 99.7778 58.5238 101.248 56.8138H97.7478V55.5338H102.668V56.7438C101.038 58.6038 100.368 60.1938 100.368 62.6338H98.8778Z" fill="black"/>
<path id="397_2" d="M402.402 62.7938C400.772 62.7938 399.962 61.9638 399.892 60.6738L401.332 60.6038C401.392 61.2938 401.852 61.5338 402.432 61.5338C403.062 61.5338 403.552 61.2338 403.552 60.5338C403.552 59.8538 403.102 59.4938 402.362 59.4938H401.832V58.3638H402.362C402.922 58.3638 403.332 58.1138 403.332 57.5038C403.332 56.9138 402.982 56.6238 402.422 56.6238C401.802 56.6238 401.502 56.9338 401.442 57.4238L400.002 57.3538C400.142 56.1438 400.972 55.3738 402.432 55.3738C403.892 55.3738 404.792 56.0938 404.792 57.3138C404.792 58.0838 404.392 58.5938 403.642 58.8338C404.512 59.0838 405.012 59.7338 405.012 60.6338C405.012 61.9738 404.002 62.7938 402.402 62.7938ZM408.428 55.3738C410.158 55.3738 411.068 56.5438 411.068 58.6038C411.068 60.9538 410.258 62.7938 408.168 62.7938C406.768 62.7938 406.118 62.0338 405.858 61.0138L407.298 60.9138C407.398 61.2738 407.628 61.5338 408.168 61.5338C408.908 61.5338 409.428 61.0238 409.588 59.8038C409.248 60.1038 408.768 60.3238 408.138 60.3238C406.728 60.3238 405.828 59.3738 405.828 57.9438C405.828 56.3638 406.858 55.3738 408.428 55.3738ZM408.458 56.6538C407.708 56.6538 407.288 57.0938 407.288 57.8938C407.288 58.6338 407.668 59.1138 408.398 59.1138C409.138 59.1138 409.608 58.6238 409.608 57.8838C409.608 57.2038 409.188 56.6538 408.458 56.6538ZM413.114 62.6338C413.114 60.4838 414.014 58.5238 415.484 56.8138H411.984V55.5338H416.904V56.7438C415.274 58.6038 414.604 60.1938 414.604 62.6338H413.114Z" fill="black"/>
<path id="335" d="M455.938 187.098C454.308 187.098 453.498 186.268 453.428 184.978L454.868 184.908C454.928 185.598 455.388 185.838 455.968 185.838C456.598 185.838 457.088 185.538 457.088 184.838C457.088 184.158 456.638 183.798 455.898 183.798H455.368V182.668H455.898C456.458 182.668 456.868 182.418 456.868 181.808C456.868 181.218 456.518 180.928 455.958 180.928C455.338 180.928 455.038 181.238 454.978 181.728L453.538 181.658C453.678 180.448 454.508 179.678 455.968 179.678C457.428 179.678 458.328 180.398 458.328 181.618C458.328 182.388 457.928 182.898 457.178 183.138C458.048 183.388 458.548 184.038 458.548 184.938C458.548 186.278 457.538 187.098 455.938 187.098ZM461.934 187.098C460.304 187.098 459.494 186.268 459.424 184.978L460.864 184.908C460.924 185.598 461.384 185.838 461.964 185.838C462.594 185.838 463.084 185.538 463.084 184.838C463.084 184.158 462.634 183.798 461.894 183.798H461.364V182.668H461.894C462.454 182.668 462.864 182.418 462.864 181.808C462.864 181.218 462.514 180.928 461.954 180.928C461.334 180.928 461.034 181.238 460.974 181.728L459.534 181.658C459.674 180.448 460.504 179.678 461.964 179.678C463.424 179.678 464.324 180.398 464.324 181.618C464.324 182.388 463.924 182.898 463.174 183.138C464.044 183.388 464.544 184.038 464.544 184.938C464.544 186.278 463.534 187.098 461.934 187.098ZM467.97 187.098C466.47 187.098 465.56 186.208 465.46 185.038L466.92 184.958C467.01 185.538 467.36 185.838 467.97 185.838C468.63 185.838 469.04 185.418 469.04 184.608C469.04 183.818 468.62 183.358 467.98 183.358C467.54 183.358 467.17 183.618 467.03 183.978L465.56 183.908L465.98 179.838H470.17V181.118H467.15L466.97 182.648C467.3 182.368 467.74 182.208 468.22 182.208C469.63 182.208 470.5 183.228 470.5 184.618C470.5 186.088 469.5 187.098 467.97 187.098Z" fill="black"/>
<path id="335_2" d="M33.5783 187.098C31.9483 187.098 31.1383 186.268 31.0683 184.978L32.5083 184.908C32.5683 185.598 33.0283 185.838 33.6083 185.838C34.2383 185.838 34.7283 185.538 34.7283 184.838C34.7283 184.158 34.2783 183.798 33.5383 183.798H33.0083V182.668H33.5383C34.0983 182.668 34.5083 182.418 34.5083 181.808C34.5083 181.218 34.1583 180.928 33.5983 180.928C32.9783 180.928 32.6783 181.238 32.6183 181.728L31.1783 181.658C31.3183 180.448 32.1483 179.678 33.6083 179.678C35.0683 179.678 35.9683 180.398 35.9683 181.618C35.9683 182.388 35.5683 182.898 34.8183 183.138C35.6883 183.388 36.1883 184.038 36.1883 184.938C36.1883 186.278 35.1783 187.098 33.5783 187.098ZM39.5744 187.098C37.9444 187.098 37.1344 186.268 37.0644 184.978L38.5044 184.908C38.5644 185.598 39.0244 185.838 39.6044 185.838C40.2344 185.838 40.7244 185.538 40.7244 184.838C40.7244 184.158 40.2744 183.798 39.5344 183.798H39.0044V182.668H39.5344C40.0944 182.668 40.5044 182.418 40.5044 181.808C40.5044 181.218 40.1544 180.928 39.5944 180.928C38.9744 180.928 38.6744 181.238 38.6144 181.728L37.1744 181.658C37.3144 180.448 38.1444 179.678 39.6044 179.678C41.0644 179.678 41.9644 180.398 41.9644 181.618C41.9644 182.388 41.5644 182.898 40.8144 183.138C41.6844 183.388 42.1844 184.038 42.1844 184.938C42.1844 186.278 41.1744 187.098 39.5744 187.098ZM45.6105 187.098C44.1105 187.098 43.2005 186.208 43.1005 185.038L44.5605 184.958C44.6505 185.538 45.0005 185.838 45.6105 185.838C46.2705 185.838 46.6805 185.418 46.6805 184.608C46.6805 183.818 46.2605 183.358 45.6205 183.358C45.1805 183.358 44.8105 183.618 44.6705 183.978L43.2005 183.908L43.6205 179.838H47.8105V181.118H44.7905L44.6105 182.648C44.9405 182.368 45.3805 182.208 45.8605 182.208C47.2705 182.208 48.1405 183.228 48.1405 184.618C48.1405 186.088 47.1405 187.098 45.6105 187.098Z" fill="black"/>
</g>
<path id="field" d="M250.83 11.4268C96.8437 11.4268 26.0392 151.594 26.0392 195.771L63.923 233.654L139.128 404.907C181.839 502.168 319.822 502.169 362.535 404.908L437.742 233.654L475.625 195.771C475.625 151.594 404.821 11.4268 250.835 11.4268H250.83Z" fill="#FD5A1E" fill-opacity="0.1" fill="none" stroke="#FD5A1E" stroke-width="1.002"/>
</g>
<defs>
<clipPath id="clip0_82_1101">
<rect width="500" height="469.94" fill="white"/>
</clipPath>
</defs>
</svg>
