<svg width="500" height="470" viewBox="0 0 500 470" fill="none" xmlns="http://www.w3.org/2000/svg">
<g id="chase-field-1998" clip-path="url(#clip0_80_474)">
<g id="Infield">
<path d="M339.98 327.765C339.453 325.665 322.032 258.478 250.83 258.478C180.238 258.478 162.505 324.537 161.697 327.698C161.677 327.775 161.668 327.815 161.668 327.815L236.504 402.652C235.305 404.911 234.623 407.488 234.623 410.237C234.623 419.185 241.873 426.444 250.83 426.444C259.778 426.444 267.037 419.185 267.037 410.237C267.037 407.488 266.356 404.911 265.156 402.656L260.695 397.374C257.96 395.277 254.544 394.025 250.83 394.025C247.117 394.025 243.701 395.277 240.971 397.369L197.7 354.099C201.448 350.352 201.448 344.276 197.7 340.529C197.698 340.526 197.694 340.524 197.691 340.521L244.055 294.037C247.8 297.772 253.861 297.772 257.606 294.037L303.431 339.983C303.431 339.983 303.427 339.984 303.424 339.987C299.677 343.735 300.275 350.299 304.022 354.046L260.695 397.374L265.156 402.656L339.98 327.765Z" fill="#D2D2D2"/>
<path d="M259.91 345.705C259.91 350.72 255.845 354.786 250.83 354.786C245.815 354.786 241.75 350.72 241.75 345.705C241.75 340.69 245.815 336.625 250.83 336.625C255.845 336.625 259.91 340.69 259.91 345.705Z" fill="#D2D2D2"/>
</g>
<g id="Guides">
<g id="Home">
<circle id="Ellipse 1" cx="250.827" cy="410.42" r="16.0848" fill="#D2D2D2"/>
<circle id="Ellipse 1_2" cx="250.827" cy="410.42" r="1.62919" fill="black"/>
</g>
<g id="First">
<circle id="Ellipse 1_3" cx="311.125" cy="346.533" r="10.1878" fill="#D2D2D2"/>
<circle id="Ellipse 1_4" cx="311.125" cy="346.532" r="1.0319" fill="black"/>
</g>
<g id="Third">
<circle id="Ellipse 1_5" cx="190.34" cy="346.533" r="10.1878" fill="#D2D2D2"/>
<circle id="Ellipse 1_6" cx="190.34" cy="346.532" r="1.0319" fill="black"/>
</g>
<g id="Second">
<circle id="Ellipse 1_7" cx="250.827" cy="286.671" r="10.1878" fill="#D2D2D2"/>
<circle id="Ellipse 1_8" cx="250.827" cy="286.671" r="1.0319" fill="black"/>
</g>
<g id="Mound">
<circle id="Ellipse 1_9" cx="250.827" cy="345.929" r="9.08365" fill="#D2D2D2"/>
<circle id="Ellipse 1_10" cx="250.827" cy="345.929" r="0.920062" fill="black"/>
</g>
</g>
<path id="Foul Lines" d="M482.11 179.381L250.976 410.516L22.0294 181.57" fill="none" stroke="black" stroke-width="1.002"/>
<g id="Measurements">
<path id="407" d="M246.203 8.69922V7.27922H243.033V6.10922L246.013 1.59922H247.633V6.03922H248.473V7.27922H247.633V8.69922H246.203ZM244.373 6.03922H246.203V3.38922L244.373 6.03922ZM251.749 8.85922C250.149 8.85922 249.189 7.44922 249.189 5.15922C249.189 2.85922 250.149 1.43922 251.749 1.43922C253.349 1.43922 254.309 2.85922 254.309 5.15922C254.309 7.44922 253.349 8.85922 251.749 8.85922ZM250.649 5.15922C250.649 5.58922 250.679 5.95922 250.739 6.26922L252.429 3.07922C252.249 2.82922 252.019 2.69922 251.749 2.69922C251.059 2.69922 250.649 3.51922 250.649 5.15922ZM251.749 7.59922C252.439 7.59922 252.849 6.78922 252.849 5.15922C252.849 4.72922 252.819 4.34922 252.759 4.02922L251.069 7.21922C251.249 7.46922 251.479 7.59922 251.749 7.59922ZM256.415 8.69922C256.415 6.54922 257.315 4.58922 258.785 2.87922H255.285V1.59922H260.205V2.80922C258.575 4.66922 257.905 6.25922 257.905 8.69922H256.415Z" fill="black"/>
<path id="376" d="M396.451 68.1893C394.821 68.1893 394.011 67.3593 393.941 66.0693L395.381 65.9993C395.441 66.6893 395.901 66.9293 396.481 66.9293C397.111 66.9293 397.601 66.6293 397.601 65.9293C397.601 65.2493 397.151 64.8893 396.411 64.8893H395.881V63.7593H396.411C396.971 63.7593 397.381 63.5093 397.381 62.8993C397.381 62.3093 397.031 62.0193 396.471 62.0193C395.851 62.0193 395.551 62.3293 395.491 62.8193L394.051 62.7493C394.191 61.5393 395.021 60.7693 396.481 60.7693C397.941 60.7693 398.841 61.4893 398.841 62.7093C398.841 63.4793 398.441 63.9893 397.691 64.2293C398.561 64.4793 399.061 65.1293 399.061 66.0293C399.061 67.3693 398.051 68.1893 396.451 68.1893ZM401.167 68.0293C401.167 65.8793 402.067 63.9193 403.537 62.2093H400.037V60.9293H404.957V62.1393C403.327 63.9993 402.657 65.5893 402.657 68.0293H401.167ZM408.513 68.1893C406.783 68.1893 405.873 67.0193 405.873 64.9593C405.873 62.6093 406.683 60.7693 408.773 60.7693C410.173 60.7693 410.823 61.5293 411.083 62.5493L409.643 62.6493C409.543 62.2893 409.313 62.0293 408.773 62.0293C408.033 62.0293 407.513 62.5393 407.353 63.7593C407.693 63.4593 408.173 63.2393 408.803 63.2393C410.213 63.2393 411.113 64.1893 411.113 65.6193C411.113 67.1993 410.083 68.1893 408.513 68.1893ZM408.483 66.9093C409.233 66.9093 409.653 66.4693 409.653 65.6693C409.653 64.9293 409.273 64.4493 408.543 64.4493C407.803 64.4493 407.333 64.9393 407.333 65.6793C407.333 66.3593 407.753 66.9093 408.483 66.9093Z" fill="black"/>
<path id="376_2" d="M94.9901 68.1893C93.3601 68.1893 92.5501 67.3593 92.4801 66.0693L93.9201 65.9993C93.9801 66.6893 94.4401 66.9293 95.0201 66.9293C95.6501 66.9293 96.1401 66.6293 96.1401 65.9293C96.1401 65.2493 95.6901 64.8893 94.9501 64.8893H94.4201V63.7593H94.9501C95.5101 63.7593 95.9201 63.5093 95.9201 62.8993C95.9201 62.3093 95.5701 62.0193 95.0101 62.0193C94.3901 62.0193 94.0901 62.3293 94.0301 62.8193L92.5901 62.7493C92.7301 61.5393 93.5601 60.7693 95.0201 60.7693C96.4801 60.7693 97.3801 61.4893 97.3801 62.7093C97.3801 63.4793 96.9801 63.9893 96.2301 64.2293C97.1001 64.4793 97.6001 65.1293 97.6001 66.0293C97.6001 67.3693 96.5901 68.1893 94.9901 68.1893ZM99.7062 68.0293C99.7062 65.8793 100.606 63.9193 102.076 62.2093H98.5762V60.9293H103.496V62.1393C101.866 63.9993 101.196 65.5893 101.196 68.0293H99.7062ZM107.052 68.1893C105.322 68.1893 104.412 67.0193 104.412 64.9593C104.412 62.6093 105.222 60.7693 107.312 60.7693C108.712 60.7693 109.362 61.5293 109.622 62.5493L108.182 62.6493C108.082 62.2893 107.852 62.0293 107.312 62.0293C106.572 62.0293 106.052 62.5393 105.892 63.7593C106.232 63.4593 106.712 63.2393 107.342 63.2393C108.752 63.2393 109.652 64.1893 109.652 65.6193C109.652 67.1993 108.622 68.1893 107.052 68.1893ZM107.022 66.9093C107.772 66.9093 108.192 66.4693 108.192 65.6693C108.192 64.9293 107.812 64.4493 107.082 64.4493C106.342 64.4493 105.872 64.9393 105.872 65.6793C105.872 66.3593 106.292 66.9093 107.022 66.9093Z" fill="black"/>
<path id="335" d="M464.196 179.283C462.566 179.283 461.756 178.453 461.686 177.163L463.126 177.093C463.186 177.783 463.646 178.023 464.226 178.023C464.856 178.023 465.346 177.723 465.346 177.023C465.346 176.343 464.896 175.983 464.156 175.983H463.626V174.853H464.156C464.716 174.853 465.126 174.603 465.126 173.993C465.126 173.403 464.776 173.113 464.216 173.113C463.596 173.113 463.296 173.423 463.236 173.913L461.796 173.843C461.936 172.633 462.766 171.863 464.226 171.863C465.686 171.863 466.586 172.583 466.586 173.803C466.586 174.573 466.186 175.083 465.436 175.323C466.306 175.573 466.806 176.223 466.806 177.123C466.806 178.463 465.796 179.283 464.196 179.283ZM470.192 179.283C468.562 179.283 467.752 178.453 467.682 177.163L469.122 177.093C469.182 177.783 469.642 178.023 470.222 178.023C470.852 178.023 471.342 177.723 471.342 177.023C471.342 176.343 470.892 175.983 470.152 175.983H469.622V174.853H470.152C470.712 174.853 471.122 174.603 471.122 173.993C471.122 173.403 470.772 173.113 470.212 173.113C469.592 173.113 469.292 173.423 469.232 173.913L467.792 173.843C467.932 172.633 468.762 171.863 470.222 171.863C471.682 171.863 472.582 172.583 472.582 173.803C472.582 174.573 472.182 175.083 471.432 175.323C472.302 175.573 472.802 176.223 472.802 177.123C472.802 178.463 471.792 179.283 470.192 179.283ZM476.228 179.283C474.728 179.283 473.818 178.393 473.718 177.223L475.178 177.143C475.268 177.723 475.618 178.023 476.228 178.023C476.888 178.023 477.298 177.603 477.298 176.793C477.298 176.003 476.878 175.543 476.238 175.543C475.798 175.543 475.428 175.803 475.288 176.163L473.818 176.093L474.238 172.023H478.428V173.303H475.408L475.228 174.833C475.558 174.553 475.998 174.393 476.478 174.393C477.888 174.393 478.758 175.413 478.758 176.803C478.758 178.273 477.758 179.283 476.228 179.283Z" fill="black"/>
<path id="330" d="M28.5783 178.598C26.9483 178.598 26.1383 177.768 26.0683 176.478L27.5083 176.408C27.5683 177.098 28.0283 177.338 28.6083 177.338C29.2383 177.338 29.7283 177.038 29.7283 176.338C29.7283 175.658 29.2783 175.298 28.5383 175.298H28.0083V174.168H28.5383C29.0983 174.168 29.5083 173.918 29.5083 173.308C29.5083 172.718 29.1583 172.428 28.5983 172.428C27.9783 172.428 27.6783 172.738 27.6183 173.228L26.1783 173.158C26.3183 171.948 27.1483 171.178 28.6083 171.178C30.0683 171.178 30.9683 171.898 30.9683 173.118C30.9683 173.888 30.5683 174.398 29.8183 174.638C30.6883 174.888 31.1883 175.538 31.1883 176.438C31.1883 177.778 30.1783 178.598 28.5783 178.598ZM34.5744 178.598C32.9444 178.598 32.1344 177.768 32.0644 176.478L33.5044 176.408C33.5644 177.098 34.0244 177.338 34.6044 177.338C35.2344 177.338 35.7244 177.038 35.7244 176.338C35.7244 175.658 35.2744 175.298 34.5344 175.298H34.0044V174.168H34.5344C35.0944 174.168 35.5044 173.918 35.5044 173.308C35.5044 172.718 35.1544 172.428 34.5944 172.428C33.9744 172.428 33.6744 172.738 33.6144 173.228L32.1744 173.158C32.3144 171.948 33.1444 171.178 34.6044 171.178C36.0644 171.178 36.9644 171.898 36.9644 173.118C36.9644 173.888 36.5644 174.398 35.8144 174.638C36.6844 174.888 37.1844 175.538 37.1844 176.438C37.1844 177.778 36.1744 178.598 34.5744 178.598ZM40.6205 178.598C39.0205 178.598 38.0605 177.188 38.0605 174.898C38.0605 172.598 39.0205 171.178 40.6205 171.178C42.2205 171.178 43.1805 172.598 43.1805 174.898C43.1805 177.188 42.2205 178.598 40.6205 178.598ZM39.5205 174.898C39.5205 175.328 39.5505 175.698 39.6105 176.008L41.3005 172.818C41.1205 172.568 40.8905 172.438 40.6205 172.438C39.9305 172.438 39.5205 173.258 39.5205 174.898ZM40.6205 177.338C41.3105 177.338 41.7205 176.528 41.7205 174.898C41.7205 174.468 41.6905 174.088 41.6305 173.768L39.9405 176.958C40.1205 177.208 40.3505 177.338 40.6205 177.338Z" fill="black"/>
</g>
<path id="field" d="M176.261 12.4104L326.254 12.4102L471.679 143.749H481.957V184.319L475.598 190.679V211.381L435.173 250.193L379.109 349.973L284.607 452.221C266.397 471.923 235.26 471.925 217.048 452.226L122.515 349.973L66.4652 250.193L26.0934 211.381V190.679L21.9717 186.557V138.039H36.1666L176.261 12.4104Z" fill="#A71930" fill-opacity="0.1" fill="none" stroke="#A71930" stroke-width="1.002"/>
</g>
<defs>
<clipPath id="clip0_80_474">
<rect width="500" height="469.94" fill="white"/>
</clipPath>
</defs>
</svg>
