<svg width="500" height="470" viewBox="0 0 500 470" fill="none" xmlns="http://www.w3.org/2000/svg">
<g id="citi-field-2009" clip-path="url(#clip0_81_748)">
<g id="Infield">
<path d="M339.98 327.765C339.453 325.665 322.032 258.478 250.83 258.478C180.238 258.478 162.505 324.537 161.697 327.698C161.677 327.775 161.668 327.815 161.668 327.815L236.504 402.652C235.305 404.911 234.623 407.488 234.623 410.237C234.623 419.185 241.873 426.444 250.83 426.444C259.778 426.444 267.037 419.185 267.037 410.237C267.037 407.488 266.356 404.911 265.156 402.656L260.695 397.374C257.96 395.277 254.544 394.025 250.83 394.025C247.117 394.025 243.701 395.277 240.971 397.369L197.7 354.099C201.448 350.352 201.448 344.276 197.7 340.529C197.698 340.526 197.694 340.524 197.691 340.521L244.055 294.037C247.8 297.772 253.861 297.772 257.606 294.037L303.431 339.983C303.431 339.983 303.427 339.984 303.424 339.987C299.677 343.735 300.275 350.299 304.022 354.046L260.695 397.374L265.156 402.656L339.98 327.765Z" fill="#D2D2D2"/>
<path d="M259.91 345.705C259.91 350.72 255.845 354.786 250.83 354.786C245.815 354.786 241.75 350.72 241.75 345.705C241.75 340.69 245.815 336.625 250.83 336.625C255.845 336.625 259.91 340.69 259.91 345.705Z" fill="#D2D2D2"/>
</g>
<g id="Guides">
<g id="Home">
<circle id="Ellipse 1" cx="250.827" cy="410.42" r="16.0848" fill="#D2D2D2"/>
<circle id="Ellipse 1_2" cx="250.827" cy="410.42" r="1.62919" fill="black"/>
</g>
<g id="First">
<circle id="Ellipse 1_3" cx="311.125" cy="346.532" r="10.1878" fill="#D2D2D2"/>
<circle id="Ellipse 1_4" cx="311.125" cy="346.532" r="1.0319" fill="black"/>
</g>
<g id="Third">
<circle id="Ellipse 1_5" cx="190.34" cy="346.532" r="10.1878" fill="#D2D2D2"/>
<circle id="Ellipse 1_6" cx="190.34" cy="346.532" r="1.0319" fill="black"/>
</g>
<g id="Second">
<circle id="Ellipse 1_7" cx="250.827" cy="286.67" r="10.1878" fill="#D2D2D2"/>
<circle id="Ellipse 1_8" cx="250.827" cy="286.671" r="1.0319" fill="black"/>
</g>
<g id="Mound">
<circle id="Ellipse 1_9" cx="250.827" cy="345.928" r="9.08365" fill="#D2D2D2"/>
<circle id="Ellipse 1_10" cx="250.827" cy="345.929" r="0.920062" fill="black"/>
</g>
</g>
<path id="Foul Lines" d="M479.159 182.333L250.976 410.516L18.6837 178.224" fill="none" stroke="black" stroke-width="1.002"/>
<g id="Measurements">
<path id="408" d="M246.203 7.69922V6.27922H243.033V5.10922L246.013 0.599218H247.633V5.03922H248.473V6.27922H247.633V7.69922H246.203ZM244.373 5.03922H246.203V2.38922L244.373 5.03922ZM251.749 7.85922C250.149 7.85922 249.189 6.44922 249.189 4.15922C249.189 1.85922 250.149 0.439219 251.749 0.439219C253.349 0.439219 254.309 1.85922 254.309 4.15922C254.309 6.44922 253.349 7.85922 251.749 7.85922ZM250.649 4.15922C250.649 4.58922 250.679 4.95922 250.739 5.26922L252.429 2.07922C252.249 1.82922 252.019 1.69922 251.749 1.69922C251.059 1.69922 250.649 2.51922 250.649 4.15922ZM251.749 6.59922C252.439 6.59922 252.849 5.78922 252.849 4.15922C252.849 3.72922 252.819 3.34922 252.759 3.02922L251.069 6.21922C251.249 6.46922 251.479 6.59922 251.749 6.59922ZM257.745 7.85922C256.175 7.85922 255.125 7.13922 255.125 5.75922C255.125 4.82922 255.665 4.16922 256.535 3.88922C255.865 3.62922 255.415 3.13922 255.415 2.39922C255.415 1.25922 256.345 0.439219 257.745 0.439219C259.145 0.439219 260.075 1.25922 260.075 2.39922C260.075 3.13922 259.625 3.62922 258.945 3.88922C259.825 4.16922 260.365 4.82922 260.365 5.75922C260.365 7.13922 259.315 7.85922 257.745 7.85922ZM257.745 3.31922C258.255 3.31922 258.605 3.04922 258.605 2.48922C258.605 1.98922 258.265 1.69922 257.745 1.69922C257.225 1.69922 256.885 1.98922 256.885 2.48922C256.885 3.04922 257.235 3.31922 257.745 3.31922ZM257.745 6.59922C258.385 6.59922 258.905 6.31922 258.905 5.61922C258.905 4.94922 258.475 4.52922 257.745 4.52922C257.015 4.52922 256.585 4.94922 256.585 5.61922C256.585 6.31922 257.105 6.59922 257.745 6.59922Z" fill="black"/>
<path id="378" d="M400.317 68.2205C398.687 68.2205 397.877 67.3905 397.807 66.1005L399.247 66.0305C399.307 66.7205 399.767 66.9605 400.347 66.9605C400.977 66.9605 401.467 66.6605 401.467 65.9605C401.467 65.2805 401.017 64.9205 400.277 64.9205H399.747V63.7905H400.277C400.837 63.7905 401.247 63.5405 401.247 62.9305C401.247 62.3405 400.897 62.0505 400.337 62.0505C399.717 62.0505 399.417 62.3605 399.357 62.8505L397.917 62.7805C398.057 61.5705 398.887 60.8005 400.347 60.8005C401.807 60.8005 402.707 61.5205 402.707 62.7405C402.707 63.5105 402.307 64.0205 401.557 64.2605C402.427 64.5105 402.927 65.1605 402.927 66.0605C402.927 67.4005 401.917 68.2205 400.317 68.2205ZM405.033 68.0605C405.033 65.9105 405.933 63.9505 407.403 62.2405H403.903V60.9605H408.823V62.1705C407.193 64.0305 406.523 65.6205 406.523 68.0605H405.033ZM412.359 68.2205C410.789 68.2205 409.739 67.5005 409.739 66.1205C409.739 65.1905 410.279 64.5305 411.149 64.2505C410.479 63.9905 410.029 63.5005 410.029 62.7605C410.029 61.6205 410.959 60.8005 412.359 60.8005C413.759 60.8005 414.689 61.6205 414.689 62.7605C414.689 63.5005 414.239 63.9905 413.559 64.2505C414.439 64.5305 414.979 65.1905 414.979 66.1205C414.979 67.5005 413.929 68.2205 412.359 68.2205ZM412.359 63.6805C412.869 63.6805 413.219 63.4105 413.219 62.8505C413.219 62.3505 412.879 62.0605 412.359 62.0605C411.839 62.0605 411.499 62.3505 411.499 62.8505C411.499 63.4105 411.849 63.6805 412.359 63.6805ZM412.359 66.9605C412.999 66.9605 413.519 66.6805 413.519 65.9805C413.519 65.3105 413.089 64.8905 412.359 64.8905C411.629 64.8905 411.199 65.3105 411.199 65.9805C411.199 66.6805 411.719 66.9605 412.359 66.9605Z" fill="black"/>
<path id="384" d="M125.284 47.995C123.654 47.995 122.844 47.165 122.774 45.875L124.214 45.805C124.274 46.495 124.734 46.735 125.314 46.735C125.944 46.735 126.434 46.435 126.434 45.735C126.434 45.055 125.984 44.695 125.244 44.695H124.714V43.565H125.244C125.804 43.565 126.214 43.315 126.214 42.705C126.214 42.115 125.864 41.825 125.304 41.825C124.684 41.825 124.384 42.135 124.324 42.625L122.884 42.555C123.024 41.345 123.854 40.575 125.314 40.575C126.774 40.575 127.674 41.295 127.674 42.515C127.674 43.285 127.274 43.795 126.524 44.035C127.394 44.285 127.894 44.935 127.894 45.835C127.894 47.175 126.884 47.995 125.284 47.995ZM131.33 47.995C129.76 47.995 128.71 47.275 128.71 45.895C128.71 44.965 129.25 44.305 130.12 44.025C129.45 43.765 129 43.275 129 42.535C129 41.395 129.93 40.575 131.33 40.575C132.73 40.575 133.66 41.395 133.66 42.535C133.66 43.275 133.21 43.765 132.53 44.025C133.41 44.305 133.95 44.965 133.95 45.895C133.95 47.275 132.9 47.995 131.33 47.995ZM131.33 43.455C131.84 43.455 132.19 43.185 132.19 42.625C132.19 42.125 131.85 41.835 131.33 41.835C130.81 41.835 130.47 42.125 130.47 42.625C130.47 43.185 130.82 43.455 131.33 43.455ZM131.33 46.735C131.97 46.735 132.49 46.455 132.49 45.755C132.49 45.085 132.06 44.665 131.33 44.665C130.6 44.665 130.17 45.085 130.17 45.755C130.17 46.455 130.69 46.735 131.33 46.735ZM137.776 47.835V46.415H134.606V45.245L137.586 40.735H139.206V45.175H140.046V46.415H139.206V47.835H137.776ZM135.946 45.175H137.776V42.525L135.946 45.175Z" fill="black"/>
<path id="330" d="M455.938 185.098C454.308 185.098 453.498 184.268 453.428 182.978L454.868 182.908C454.928 183.598 455.388 183.838 455.968 183.838C456.598 183.838 457.088 183.538 457.088 182.838C457.088 182.158 456.638 181.798 455.898 181.798H455.368V180.668H455.898C456.458 180.668 456.868 180.418 456.868 179.808C456.868 179.218 456.518 178.928 455.958 178.928C455.338 178.928 455.038 179.238 454.978 179.728L453.538 179.658C453.678 178.448 454.508 177.678 455.968 177.678C457.428 177.678 458.328 178.398 458.328 179.618C458.328 180.388 457.928 180.898 457.178 181.138C458.048 181.388 458.548 182.038 458.548 182.938C458.548 184.278 457.538 185.098 455.938 185.098ZM461.934 185.098C460.304 185.098 459.494 184.268 459.424 182.978L460.864 182.908C460.924 183.598 461.384 183.838 461.964 183.838C462.594 183.838 463.084 183.538 463.084 182.838C463.084 182.158 462.634 181.798 461.894 181.798H461.364V180.668H461.894C462.454 180.668 462.864 180.418 462.864 179.808C462.864 179.218 462.514 178.928 461.954 178.928C461.334 178.928 461.034 179.238 460.974 179.728L459.534 179.658C459.674 178.448 460.504 177.678 461.964 177.678C463.424 177.678 464.324 178.398 464.324 179.618C464.324 180.388 463.924 180.898 463.174 181.138C464.044 181.388 464.544 182.038 464.544 182.938C464.544 184.278 463.534 185.098 461.934 185.098ZM467.98 185.098C466.38 185.098 465.42 183.688 465.42 181.398C465.42 179.098 466.38 177.678 467.98 177.678C469.58 177.678 470.54 179.098 470.54 181.398C470.54 183.688 469.58 185.098 467.98 185.098ZM466.88 181.398C466.88 181.828 466.91 182.198 466.97 182.508L468.66 179.318C468.48 179.068 468.25 178.938 467.98 178.938C467.29 178.938 466.88 179.758 466.88 181.398ZM467.98 183.838C468.67 183.838 469.08 183.028 469.08 181.398C469.08 180.968 469.05 180.588 468.99 180.268L467.3 183.458C467.48 183.708 467.71 183.838 467.98 183.838Z" fill="black"/>
<path id="335" d="M28.5783 180.598C26.9483 180.598 26.1383 179.768 26.0683 178.478L27.5083 178.408C27.5683 179.098 28.0283 179.338 28.6083 179.338C29.2383 179.338 29.7283 179.038 29.7283 178.338C29.7283 177.658 29.2783 177.298 28.5383 177.298H28.0083V176.168H28.5383C29.0983 176.168 29.5083 175.918 29.5083 175.308C29.5083 174.718 29.1583 174.428 28.5983 174.428C27.9783 174.428 27.6783 174.738 27.6183 175.228L26.1783 175.158C26.3183 173.948 27.1483 173.178 28.6083 173.178C30.0683 173.178 30.9683 173.898 30.9683 175.118C30.9683 175.888 30.5683 176.398 29.8183 176.638C30.6883 176.888 31.1883 177.538 31.1883 178.438C31.1883 179.778 30.1783 180.598 28.5783 180.598ZM34.5744 180.598C32.9444 180.598 32.1344 179.768 32.0644 178.478L33.5044 178.408C33.5644 179.098 34.0244 179.338 34.6044 179.338C35.2344 179.338 35.7244 179.038 35.7244 178.338C35.7244 177.658 35.2744 177.298 34.5344 177.298H34.0044V176.168H34.5344C35.0944 176.168 35.5044 175.918 35.5044 175.308C35.5044 174.718 35.1544 174.428 34.5944 174.428C33.9744 174.428 33.6744 174.738 33.6144 175.228L32.1744 175.158C32.3144 173.948 33.1444 173.178 34.6044 173.178C36.0644 173.178 36.9644 173.898 36.9644 175.118C36.9644 175.888 36.5644 176.398 35.8144 176.638C36.6844 176.888 37.1844 177.538 37.1844 178.438C37.1844 179.778 36.1744 180.598 34.5744 180.598ZM40.6105 180.598C39.1105 180.598 38.2005 179.708 38.1005 178.538L39.5605 178.458C39.6505 179.038 40.0005 179.338 40.6105 179.338C41.2705 179.338 41.6805 178.918 41.6805 178.108C41.6805 177.318 41.2605 176.858 40.6205 176.858C40.1805 176.858 39.8105 177.118 39.6705 177.478L38.2005 177.408L38.6205 173.338H42.8105V174.618H39.7905L39.6105 176.148C39.9405 175.868 40.3805 175.708 40.8605 175.708C42.2705 175.708 43.1405 176.728 43.1405 178.118C43.1405 179.588 42.1405 180.598 40.6105 180.598Z" fill="black"/>
</g>
<path id="field" d="M194.378 438.155L197.905 440.975C228.87 465.735 272.841 465.799 303.878 441.129L307.52 438.234C313.252 433.678 318.267 428.284 322.394 422.235L384.789 330.802L400.945 270.509L483.21 188.243L465.741 163.538L460.743 117.748L438.794 85.1118L393.475 72.9688L363.126 28.5057L329.336 10.3105H201.971L51.791 111.682L15.4012 185.04L100.871 270.509L117.026 330.802L179.734 422.383C183.809 428.335 188.744 433.65 194.378 438.155Z" fill="#FF5910" fill-opacity="0.1" fill="none" stroke="#FF5910" stroke-width="1.002"/>
</g>
<defs>
<clipPath id="clip0_81_748">
<rect width="500" height="469.94" fill="white"/>
</clipPath>
</defs>
</svg>
