<svg width="500" height="470" viewBox="0 0 500 470" fill="none" xmlns="http://www.w3.org/2000/svg">
<g id="citizens-bank-park-2004">
<g id="Infield">
<path d="M339.98 327.765C339.453 325.665 322.032 258.478 250.83 258.478C180.238 258.478 162.505 324.537 161.697 327.698C161.677 327.775 161.668 327.815 161.668 327.815L236.504 402.652C235.305 404.911 234.623 407.488 234.623 410.237C234.623 419.185 241.873 426.444 250.83 426.444C259.778 426.444 267.037 419.185 267.037 410.237C267.037 407.488 266.356 404.911 265.156 402.656L260.695 397.374C257.96 395.277 254.544 394.025 250.83 394.025C247.117 394.025 243.701 395.277 240.971 397.369L197.7 354.099C201.448 350.352 201.448 344.276 197.7 340.529C197.698 340.526 197.694 340.524 197.691 340.521L244.055 294.037C247.8 297.772 253.861 297.772 257.606 294.037L303.431 339.983C303.431 339.983 303.427 339.984 303.424 339.987C299.677 343.735 300.275 350.299 304.022 354.046L260.695 397.374L265.156 402.656L339.98 327.765Z" fill="#D2D2D2"/>
<path d="M259.91 345.705C259.91 350.72 255.845 354.786 250.83 354.786C245.815 354.786 241.75 350.72 241.75 345.705C241.75 340.69 245.815 336.625 250.83 336.625C255.845 336.625 259.91 340.69 259.91 345.705Z" fill="#D2D2D2"/>
</g>
<g id="Guides">
<g id="Home">
<circle id="Ellipse 1" cx="250.827" cy="410.42" r="16.0848" fill="#D2D2D2"/>
<circle id="Ellipse 1_2" cx="250.827" cy="410.42" r="1.62919" fill="black"/>
</g>
<g id="First">
<circle id="Ellipse 1_3" cx="311.125" cy="346.532" r="10.1878" fill="#D2D2D2"/>
<circle id="Ellipse 1_4" cx="311.125" cy="346.532" r="1.0319" fill="black"/>
</g>
<g id="Third">
<circle id="Ellipse 1_5" cx="190.34" cy="346.532" r="10.1878" fill="#D2D2D2"/>
<circle id="Ellipse 1_6" cx="190.34" cy="346.532" r="1.0319" fill="black"/>
</g>
<g id="Second">
<circle id="Ellipse 1_7" cx="250.827" cy="286.67" r="10.1878" fill="#D2D2D2"/>
<circle id="Ellipse 1_8" cx="250.827" cy="286.671" r="1.0319" fill="black"/>
</g>
<g id="Mound">
<circle id="Ellipse 1_9" cx="250.827" cy="345.928" r="9.08365" fill="#D2D2D2"/>
<circle id="Ellipse 1_10" cx="250.827" cy="345.929" r="0.920062" fill="black"/>
</g>
</g>
<path id="Foul Lines" d="M478.207 183.284L250.976 410.516L22.7088 184.562" fill="none" stroke="black" stroke-width="1.002"/>
<g id="Measurements">
<path id="401" d="M256.45 16.5V15.08H253.28V13.91L256.26 9.4H257.88V13.84H258.72V15.08H257.88V16.5H256.45ZM254.62 13.84H256.45V11.19L254.62 13.84ZM261.996 16.66C260.396 16.66 259.436 15.25 259.436 12.96C259.436 10.66 260.396 9.24 261.996 9.24C263.596 9.24 264.556 10.66 264.556 12.96C264.556 15.25 263.596 16.66 261.996 16.66ZM260.896 12.96C260.896 13.39 260.926 13.76 260.986 14.07L262.676 10.88C262.496 10.63 262.266 10.5 261.996 10.5C261.306 10.5 260.896 11.32 260.896 12.96ZM261.996 15.4C262.686 15.4 263.096 14.59 263.096 12.96C263.096 12.53 263.066 12.15 263.006 11.83L261.316 15.02C261.496 15.27 261.726 15.4 261.996 15.4ZM265.472 16.5V15.22H267.512V11.84H265.772V10.66H266.552C267.352 10.66 267.692 10.32 267.692 9.4H268.932V15.22H270.512V16.5H265.472Z" fill="black"/>
<path id="398" d="M329.045 26.66C327.415 26.66 326.605 25.83 326.535 24.54L327.975 24.47C328.035 25.16 328.495 25.4 329.075 25.4C329.705 25.4 330.195 25.1 330.195 24.4C330.195 23.72 329.745 23.36 329.005 23.36H328.475V22.23H329.005C329.565 22.23 329.975 21.98 329.975 21.37C329.975 20.78 329.625 20.49 329.065 20.49C328.445 20.49 328.145 20.8 328.085 21.29L326.645 21.22C326.785 20.01 327.615 19.24 329.075 19.24C330.535 19.24 331.435 19.96 331.435 21.18C331.435 21.95 331.035 22.46 330.285 22.7C331.155 22.95 331.655 23.6 331.655 24.5C331.655 25.84 330.645 26.66 329.045 26.66ZM335.071 19.24C336.801 19.24 337.711 20.41 337.711 22.47C337.711 24.82 336.901 26.66 334.811 26.66C333.411 26.66 332.761 25.9 332.501 24.88L333.941 24.78C334.041 25.14 334.271 25.4 334.811 25.4C335.551 25.4 336.071 24.89 336.231 23.67C335.891 23.97 335.411 24.19 334.781 24.19C333.371 24.19 332.471 23.24 332.471 21.81C332.471 20.23 333.501 19.24 335.071 19.24ZM335.101 20.52C334.351 20.52 333.931 20.96 333.931 21.76C333.931 22.5 334.311 22.98 335.041 22.98C335.781 22.98 336.251 22.49 336.251 21.75C336.251 21.07 335.831 20.52 335.101 20.52ZM341.087 26.66C339.517 26.66 338.467 25.94 338.467 24.56C338.467 23.63 339.007 22.97 339.877 22.69C339.207 22.43 338.757 21.94 338.757 21.2C338.757 20.06 339.687 19.24 341.087 19.24C342.487 19.24 343.417 20.06 343.417 21.2C343.417 21.94 342.967 22.43 342.287 22.69C343.167 22.97 343.707 23.63 343.707 24.56C343.707 25.94 342.657 26.66 341.087 26.66ZM341.087 22.12C341.597 22.12 341.947 21.85 341.947 21.29C341.947 20.79 341.607 20.5 341.087 20.5C340.567 20.5 340.227 20.79 340.227 21.29C340.227 21.85 340.577 22.12 341.087 22.12ZM341.087 25.4C341.727 25.4 342.247 25.12 342.247 24.42C342.247 23.75 341.817 23.33 341.087 23.33C340.357 23.33 339.927 23.75 339.927 24.42C339.927 25.12 340.447 25.4 341.087 25.4Z" fill="black"/>
<path id="387" d="M160.565 36.8114C158.935 36.8114 158.125 35.9814 158.055 34.6914L159.495 34.6214C159.555 35.3114 160.015 35.5514 160.595 35.5514C161.225 35.5514 161.715 35.2514 161.715 34.5514C161.715 33.8714 161.265 33.5114 160.525 33.5114H159.995V32.3814H160.525C161.085 32.3814 161.495 32.1314 161.495 31.5214C161.495 30.9314 161.145 30.6414 160.585 30.6414C159.965 30.6414 159.665 30.9514 159.605 31.4414L158.165 31.3714C158.305 30.1614 159.135 29.3914 160.595 29.3914C162.055 29.3914 162.955 30.1114 162.955 31.3314C162.955 32.1014 162.555 32.6114 161.805 32.8514C162.675 33.1014 163.175 33.7514 163.175 34.6514C163.175 35.9914 162.165 36.8114 160.565 36.8114ZM166.611 36.8114C165.041 36.8114 163.991 36.0914 163.991 34.7114C163.991 33.7814 164.531 33.1214 165.401 32.8414C164.731 32.5814 164.281 32.0914 164.281 31.3514C164.281 30.2114 165.211 29.3914 166.611 29.3914C168.011 29.3914 168.941 30.2114 168.941 31.3514C168.941 32.0914 168.491 32.5814 167.811 32.8414C168.691 33.1214 169.231 33.7814 169.231 34.7114C169.231 36.0914 168.181 36.8114 166.611 36.8114ZM166.611 32.2714C167.121 32.2714 167.471 32.0014 167.471 31.4414C167.471 30.9414 167.131 30.6514 166.611 30.6514C166.091 30.6514 165.751 30.9414 165.751 31.4414C165.751 32.0014 166.101 32.2714 166.611 32.2714ZM166.611 35.5514C167.251 35.5514 167.771 35.2714 167.771 34.5714C167.771 33.9014 167.341 33.4814 166.611 33.4814C165.881 33.4814 165.451 33.9014 165.451 34.5714C165.451 35.2714 165.971 35.5514 166.611 35.5514ZM171.277 36.6514C171.277 34.5014 172.177 32.5414 173.647 30.8314H170.147V29.5514H175.067V30.7614C173.437 32.6214 172.767 34.2114 172.767 36.6514H171.277Z" fill="black"/>
<path id="409" d="M200.847 10V8.58H197.677V7.41L200.657 2.9H202.277V7.34H203.117V8.58H202.277V10H200.847ZM199.017 7.34H200.847V4.69L199.017 7.34ZM206.393 10.16C204.793 10.16 203.833 8.75 203.833 6.46C203.833 4.16 204.793 2.74 206.393 2.74C207.993 2.74 208.953 4.16 208.953 6.46C208.953 8.75 207.993 10.16 206.393 10.16ZM205.293 6.46C205.293 6.89 205.323 7.26 205.383 7.57L207.073 4.38C206.893 4.13 206.663 4 206.393 4C205.703 4 205.293 4.82 205.293 6.46ZM206.393 8.9C207.083 8.9 207.493 8.09 207.493 6.46C207.493 6.03 207.463 5.65 207.403 5.33L205.713 8.52C205.893 8.77 206.123 8.9 206.393 8.9ZM212.369 2.74C214.099 2.74 215.009 3.91 215.009 5.97C215.009 8.32 214.199 10.16 212.109 10.16C210.709 10.16 210.059 9.4 209.799 8.38L211.239 8.28C211.339 8.64 211.569 8.9 212.109 8.9C212.849 8.9 213.369 8.39 213.529 7.17C213.189 7.47 212.709 7.69 212.079 7.69C210.669 7.69 209.769 6.74 209.769 5.31C209.769 3.73 210.799 2.74 212.369 2.74ZM212.399 4.02C211.649 4.02 211.229 4.46 211.229 5.26C211.229 6 211.609 6.48 212.339 6.48C213.079 6.48 213.549 5.99 213.549 5.25C213.549 4.57 213.129 4.02 212.399 4.02Z" fill="black"/>
<path id="330" d="M454.583 186.944C452.953 186.944 452.143 186.114 452.073 184.824L453.513 184.754C453.573 185.444 454.033 185.684 454.613 185.684C455.243 185.684 455.733 185.384 455.733 184.684C455.733 184.004 455.283 183.644 454.543 183.644H454.013V182.514H454.543C455.103 182.514 455.513 182.264 455.513 181.654C455.513 181.064 455.163 180.774 454.603 180.774C453.983 180.774 453.683 181.084 453.623 181.574L452.183 181.504C452.323 180.294 453.153 179.524 454.613 179.524C456.073 179.524 456.973 180.244 456.973 181.464C456.973 182.234 456.573 182.744 455.823 182.984C456.693 183.234 457.193 183.884 457.193 184.784C457.193 186.124 456.183 186.944 454.583 186.944ZM460.579 186.944C458.949 186.944 458.139 186.114 458.069 184.824L459.509 184.754C459.569 185.444 460.029 185.684 460.609 185.684C461.239 185.684 461.729 185.384 461.729 184.684C461.729 184.004 461.279 183.644 460.539 183.644H460.009V182.514H460.539C461.099 182.514 461.509 182.264 461.509 181.654C461.509 181.064 461.159 180.774 460.599 180.774C459.979 180.774 459.679 181.084 459.619 181.574L458.179 181.504C458.319 180.294 459.149 179.524 460.609 179.524C462.069 179.524 462.969 180.244 462.969 181.464C462.969 182.234 462.569 182.744 461.819 182.984C462.689 183.234 463.189 183.884 463.189 184.784C463.189 186.124 462.179 186.944 460.579 186.944ZM466.625 186.944C465.025 186.944 464.065 185.534 464.065 183.244C464.065 180.944 465.025 179.524 466.625 179.524C468.225 179.524 469.185 180.944 469.185 183.244C469.185 185.534 468.225 186.944 466.625 186.944ZM465.525 183.244C465.525 183.674 465.555 184.044 465.615 184.354L467.305 181.164C467.125 180.914 466.895 180.784 466.625 180.784C465.935 180.784 465.525 181.604 465.525 183.244ZM466.625 185.684C467.315 185.684 467.725 184.874 467.725 183.244C467.725 182.814 467.695 182.434 467.635 182.114L465.945 185.304C466.125 185.554 466.355 185.684 466.625 185.684Z" fill="black"/>
<path id="334" d="M30.5783 184.598C28.9483 184.598 28.1383 183.768 28.0683 182.478L29.5083 182.408C29.5683 183.098 30.0283 183.338 30.6083 183.338C31.2383 183.338 31.7283 183.038 31.7283 182.338C31.7283 181.658 31.2783 181.298 30.5383 181.298H30.0083V180.168H30.5383C31.0983 180.168 31.5083 179.918 31.5083 179.308C31.5083 178.718 31.1583 178.428 30.5983 178.428C29.9783 178.428 29.6783 178.738 29.6183 179.228L28.1783 179.158C28.3183 177.948 29.1483 177.178 30.6083 177.178C32.0683 177.178 32.9683 177.898 32.9683 179.118C32.9683 179.888 32.5683 180.398 31.8183 180.638C32.6883 180.888 33.1883 181.538 33.1883 182.438C33.1883 183.778 32.1783 184.598 30.5783 184.598ZM36.5744 184.598C34.9444 184.598 34.1344 183.768 34.0644 182.478L35.5044 182.408C35.5644 183.098 36.0244 183.338 36.6044 183.338C37.2344 183.338 37.7244 183.038 37.7244 182.338C37.7244 181.658 37.2744 181.298 36.5344 181.298H36.0044V180.168H36.5344C37.0944 180.168 37.5044 179.918 37.5044 179.308C37.5044 178.718 37.1544 178.428 36.5944 178.428C35.9744 178.428 35.6744 178.738 35.6144 179.228L34.1744 179.158C34.3144 177.948 35.1444 177.178 36.6044 177.178C38.0644 177.178 38.9644 177.898 38.9644 179.118C38.9644 179.888 38.5644 180.398 37.8144 180.638C38.6844 180.888 39.1844 181.538 39.1844 182.438C39.1844 183.778 38.1744 184.598 36.5744 184.598ZM43.0705 184.438V183.018H39.9005V181.848L42.8805 177.338H44.5005V181.778H45.3405V183.018H44.5005V184.438H43.0705ZM41.2405 181.778H43.0705V179.128L41.2405 181.778Z" fill="black"/>
</g>
<path id="field" d="M179.407 40.804L206.338 13.208L322.976 27.7196L478.507 183.798V195.896L423.1 251.06V267.513L389.242 352.689L280.696 461.234H217.582L112.229 351.829L77.6022 267.964V250.773L22.8382 196.132L22.8382 178.573L160.58 40.804H179.407Z" fill="#E81828" fill-opacity="0.1" fill="none" stroke="#E81828" stroke-width="1.002"/>
</g>
</svg>
