<svg width="500" height="470" viewBox="0 0 500 470" fill="none" xmlns="http://www.w3.org/2000/svg">
<g id="citi-field-2023" clip-path="url(#clip0_81_829)">
<g id="Infield">
<path d="M339.98 327.765C339.453 325.665 322.032 258.478 250.83 258.478C180.238 258.478 162.505 324.537 161.697 327.698C161.677 327.775 161.668 327.815 161.668 327.815L236.504 402.652C235.305 404.911 234.623 407.488 234.623 410.237C234.623 419.185 241.873 426.444 250.83 426.444C259.778 426.444 267.037 419.185 267.037 410.237C267.037 407.488 266.356 404.911 265.157 402.656L260.695 397.374C257.96 395.277 254.544 394.025 250.83 394.025C247.117 394.025 243.701 395.277 240.971 397.369L197.7 354.099C201.448 350.352 201.448 344.276 197.7 340.529C197.698 340.526 197.694 340.524 197.691 340.521L244.055 294.037C247.8 297.772 253.861 297.772 257.606 294.037L303.431 339.983C303.431 339.983 303.427 339.984 303.424 339.987C299.677 343.735 300.275 350.299 304.022 354.046L260.695 397.374L265.157 402.656L339.98 327.765Z" fill="#D2D2D2"/>
<path d="M259.91 345.705C259.91 350.72 255.845 354.786 250.83 354.786C245.815 354.786 241.75 350.72 241.75 345.705C241.75 340.69 245.815 336.625 250.83 336.625C255.845 336.625 259.91 340.69 259.91 345.705Z" fill="#D2D2D2"/>
</g>
<g id="Guides">
<g id="Home">
<circle id="Ellipse 1" cx="250.827" cy="410.42" r="16.0848" fill="#D2D2D2"/>
<circle id="Ellipse 1_2" cx="250.827" cy="410.42" r="1.62919" fill="black"/>
</g>
<g id="First">
<circle id="Ellipse 1_3" cx="311.125" cy="346.532" r="10.1878" fill="#D2D2D2"/>
<circle id="Ellipse 1_4" cx="311.125" cy="346.532" r="1.0319" fill="black"/>
</g>
<g id="Third">
<circle id="Ellipse 1_5" cx="190.34" cy="346.532" r="10.1878" fill="#D2D2D2"/>
<circle id="Ellipse 1_6" cx="190.34" cy="346.532" r="1.0319" fill="black"/>
</g>
<g id="Second">
<circle id="Ellipse 1_7" cx="250.827" cy="286.67" r="10.1878" fill="#D2D2D2"/>
<circle id="Ellipse 1_8" cx="250.827" cy="286.671" r="1.0319" fill="black"/>
</g>
<g id="Mound">
<circle id="Ellipse 1_9" cx="250.827" cy="345.928" r="9.08365" fill="#D2D2D2"/>
<circle id="Ellipse 1_10" cx="250.827" cy="345.929" r="0.920062" fill="black"/>
</g>
</g>
<path id="Foul Lines" d="M479.159 182.333L250.976 410.516L18.6837 178.224" fill="none" stroke="black" stroke-width="1.002"/>
<g id="Measurements">
<path id="408" d="M246.203 7.69922V6.27922H243.033V5.10922L246.013 0.599218H247.633V5.03922H248.473V6.27922H247.633V7.69922H246.203ZM244.373 5.03922H246.203V2.38922L244.373 5.03922ZM251.749 7.85922C250.149 7.85922 249.189 6.44922 249.189 4.15922C249.189 1.85922 250.149 0.439219 251.749 0.439219C253.349 0.439219 254.309 1.85922 254.309 4.15922C254.309 6.44922 253.349 7.85922 251.749 7.85922ZM250.649 4.15922C250.649 4.58922 250.679 4.95922 250.739 5.26922L252.429 2.07922C252.249 1.82922 252.019 1.69922 251.749 1.69922C251.059 1.69922 250.649 2.51922 250.649 4.15922ZM251.749 6.59922C252.439 6.59922 252.849 5.78922 252.849 4.15922C252.849 3.72922 252.819 3.34922 252.759 3.02922L251.069 6.21922C251.249 6.46922 251.479 6.59922 251.749 6.59922ZM257.745 7.85922C256.175 7.85922 255.125 7.13922 255.125 5.75922C255.125 4.82922 255.665 4.16922 256.535 3.88922C255.865 3.62922 255.415 3.13922 255.415 2.39922C255.415 1.25922 256.345 0.439219 257.745 0.439219C259.145 0.439219 260.075 1.25922 260.075 2.39922C260.075 3.13922 259.625 3.62922 258.945 3.88922C259.825 4.16922 260.365 4.82922 260.365 5.75922C260.365 7.13922 259.315 7.85922 257.745 7.85922ZM257.745 3.31922C258.255 3.31922 258.605 3.04922 258.605 2.48922C258.605 1.98922 258.265 1.69922 257.745 1.69922C257.225 1.69922 256.885 1.98922 256.885 2.48922C256.885 3.04922 257.235 3.31922 257.745 3.31922ZM257.745 6.59922C258.385 6.59922 258.905 6.31922 258.905 5.61922C258.905 4.94922 258.475 4.52922 257.745 4.52922C257.015 4.52922 256.585 4.94922 256.585 5.61922C256.585 6.31922 257.105 6.59922 257.745 6.59922Z" fill="black"/>
<path id="370" d="M406.317 78.2205C404.687 78.2205 403.877 77.3905 403.807 76.1005L405.247 76.0305C405.307 76.7205 405.767 76.9605 406.347 76.9605C406.977 76.9605 407.467 76.6605 407.467 75.9605C407.467 75.2805 407.017 74.9205 406.277 74.9205H405.747V73.7905H406.277C406.837 73.7905 407.247 73.5405 407.247 72.9305C407.247 72.3405 406.897 72.0505 406.337 72.0505C405.717 72.0505 405.417 72.3605 405.357 72.8505L403.917 72.7805C404.057 71.5705 404.887 70.8005 406.347 70.8005C407.807 70.8005 408.707 71.5205 408.707 72.7405C408.707 73.5105 408.307 74.0205 407.557 74.2605C408.427 74.5105 408.927 75.1605 408.927 76.0605C408.927 77.4005 407.917 78.2205 406.317 78.2205ZM411.033 78.0605C411.033 75.9105 411.933 73.9505 413.403 72.2405H409.903V70.9605H414.823V72.1705C413.193 74.0305 412.523 75.6205 412.523 78.0605H411.033ZM418.359 78.2205C416.759 78.2205 415.799 76.8105 415.799 74.5205C415.799 72.2205 416.759 70.8005 418.359 70.8005C419.959 70.8005 420.919 72.2205 420.919 74.5205C420.919 76.8105 419.959 78.2205 418.359 78.2205ZM417.259 74.5205C417.259 74.9505 417.289 75.3205 417.349 75.6305L419.039 72.4405C418.859 72.1905 418.629 72.0605 418.359 72.0605C417.669 72.0605 417.259 72.8805 417.259 74.5205ZM418.359 76.9605C419.049 76.9605 419.459 76.1505 419.459 74.5205C419.459 74.0905 419.429 73.7105 419.369 73.3905L417.679 76.5805C417.859 76.8305 418.089 76.9605 418.359 76.9605Z" fill="black"/>
<path id="370_2" d="M138.284 57.995C136.654 57.995 135.844 57.165 135.774 55.875L137.214 55.805C137.274 56.495 137.734 56.735 138.314 56.735C138.944 56.735 139.434 56.435 139.434 55.735C139.434 55.055 138.984 54.695 138.244 54.695H137.714V53.565H138.244C138.804 53.565 139.214 53.315 139.214 52.705C139.214 52.115 138.864 51.825 138.304 51.825C137.684 51.825 137.384 52.135 137.324 52.625L135.884 52.555C136.024 51.345 136.854 50.575 138.314 50.575C139.774 50.575 140.674 51.295 140.674 52.515C140.674 53.285 140.274 53.795 139.524 54.035C140.394 54.285 140.894 54.935 140.894 55.835C140.894 57.175 139.884 57.995 138.284 57.995ZM143 57.835C143 55.685 143.9 53.725 145.37 52.015H141.87V50.735H146.79V51.945C145.16 53.805 144.49 55.395 144.49 57.835H143ZM150.326 57.995C148.726 57.995 147.766 56.585 147.766 54.295C147.766 51.995 148.726 50.575 150.326 50.575C151.926 50.575 152.886 51.995 152.886 54.295C152.886 56.585 151.926 57.995 150.326 57.995ZM149.226 54.295C149.226 54.725 149.256 55.095 149.316 55.405L151.006 52.215C150.826 51.965 150.596 51.835 150.326 51.835C149.636 51.835 149.226 52.655 149.226 54.295ZM150.326 56.735C151.016 56.735 151.426 55.925 151.426 54.295C151.426 53.865 151.396 53.485 151.336 53.165L149.646 56.355C149.826 56.605 150.056 56.735 150.326 56.735Z" fill="black"/>
<path id="330" d="M455.938 185.098C454.308 185.098 453.498 184.268 453.428 182.978L454.868 182.908C454.928 183.598 455.388 183.838 455.968 183.838C456.598 183.838 457.088 183.538 457.088 182.838C457.088 182.158 456.638 181.798 455.898 181.798H455.368V180.668H455.898C456.458 180.668 456.868 180.418 456.868 179.808C456.868 179.218 456.518 178.928 455.958 178.928C455.338 178.928 455.038 179.238 454.978 179.728L453.538 179.658C453.678 178.448 454.508 177.678 455.968 177.678C457.428 177.678 458.328 178.398 458.328 179.618C458.328 180.388 457.928 180.898 457.178 181.138C458.048 181.388 458.548 182.038 458.548 182.938C458.548 184.278 457.538 185.098 455.938 185.098ZM461.934 185.098C460.304 185.098 459.494 184.268 459.424 182.978L460.864 182.908C460.924 183.598 461.384 183.838 461.964 183.838C462.594 183.838 463.084 183.538 463.084 182.838C463.084 182.158 462.634 181.798 461.894 181.798H461.364V180.668H461.894C462.454 180.668 462.864 180.418 462.864 179.808C462.864 179.218 462.514 178.928 461.954 178.928C461.334 178.928 461.034 179.238 460.974 179.728L459.534 179.658C459.674 178.448 460.504 177.678 461.964 177.678C463.424 177.678 464.324 178.398 464.324 179.618C464.324 180.388 463.924 180.898 463.174 181.138C464.044 181.388 464.544 182.038 464.544 182.938C464.544 184.278 463.534 185.098 461.934 185.098ZM467.98 185.098C466.38 185.098 465.42 183.688 465.42 181.398C465.42 179.098 466.38 177.678 467.98 177.678C469.58 177.678 470.54 179.098 470.54 181.398C470.54 183.688 469.58 185.098 467.98 185.098ZM466.88 181.398C466.88 181.828 466.91 182.198 466.97 182.508L468.66 179.318C468.48 179.068 468.25 178.938 467.98 178.938C467.29 178.938 466.88 179.758 466.88 181.398ZM467.98 183.838C468.67 183.838 469.08 183.028 469.08 181.398C469.08 180.968 469.05 180.588 468.99 180.268L467.3 183.458C467.48 183.708 467.71 183.838 467.98 183.838Z" fill="black"/>
<path id="335" d="M28.5783 180.598C26.9483 180.598 26.1383 179.768 26.0683 178.478L27.5083 178.408C27.5683 179.098 28.0283 179.338 28.6083 179.338C29.2383 179.338 29.7283 179.038 29.7283 178.338C29.7283 177.658 29.2783 177.298 28.5383 177.298H28.0083V176.168H28.5383C29.0983 176.168 29.5083 175.918 29.5083 175.308C29.5083 174.718 29.1583 174.428 28.5983 174.428C27.9783 174.428 27.6783 174.738 27.6183 175.228L26.1783 175.158C26.3183 173.948 27.1483 173.178 28.6083 173.178C30.0683 173.178 30.9683 173.898 30.9683 175.118C30.9683 175.888 30.5683 176.398 29.8183 176.638C30.6883 176.888 31.1883 177.538 31.1883 178.438C31.1883 179.778 30.1783 180.598 28.5783 180.598ZM34.5744 180.598C32.9444 180.598 32.1344 179.768 32.0644 178.478L33.5044 178.408C33.5644 179.098 34.0244 179.338 34.6044 179.338C35.2344 179.338 35.7244 179.038 35.7244 178.338C35.7244 177.658 35.2744 177.298 34.5344 177.298H34.0044V176.168H34.5344C35.0944 176.168 35.5044 175.918 35.5044 175.308C35.5044 174.718 35.1544 174.428 34.5944 174.428C33.9744 174.428 33.6744 174.738 33.6144 175.228L32.1744 175.158C32.3144 173.948 33.1444 173.178 34.6044 173.178C36.0644 173.178 36.9644 173.898 36.9644 175.118C36.9644 175.888 36.5644 176.398 35.8144 176.638C36.6844 176.888 37.1844 177.538 37.1844 178.438C37.1844 179.778 36.1744 180.598 34.5744 180.598ZM40.6105 180.598C39.1105 180.598 38.2005 179.708 38.1005 178.538L39.5605 178.458C39.6505 179.038 40.0005 179.338 40.6105 179.338C41.2705 179.338 41.6805 178.918 41.6805 178.108C41.6805 177.318 41.2605 176.858 40.6205 176.858C40.1805 176.858 39.8105 177.118 39.6705 177.478L38.2005 177.408L38.6205 173.338H42.8105V174.618H39.7905L39.6105 176.148C39.9405 175.868 40.3805 175.708 40.8605 175.708C42.2705 175.708 43.1405 176.728 43.1405 178.118C43.1405 179.588 42.1405 180.598 40.6105 180.598Z" fill="black"/>
</g>
<path id="field" d="M194.378 438.155L197.905 440.975C228.87 465.735 272.841 465.799 303.878 441.129L307.519 438.234C313.252 433.678 318.267 428.284 322.394 422.236L384.789 330.802L400.945 270.51L483.21 188.244L465.741 163.538L412.752 85.5916L386.815 77.8245L281.459 10.3105L224.797 10.3108L126.719 77.8245L46.7409 123.286L15.4011 185.04L100.871 270.51L117.026 330.802L179.734 422.384C183.809 428.335 188.744 433.65 194.378 438.155Z" fill="#FF5910" fill-opacity="0.1" fill="none" stroke="#FF5910" stroke-width="1.002"/>
</g>
<defs>
<clipPath id="clip0_81_829">
<rect width="500" height="469.94" fill="white"/>
</clipPath>
</defs>
</svg>
