<svg width="500" height="470" viewBox="0 0 500 470" fill="none" xmlns="http://www.w3.org/2000/svg">
<g id="cleveland-stadium-1954" clip-path="url(#clip0_123_6289)">
<g id="Infield">
<path d="M339.98 327.764C339.453 325.664 322.032 258.477 250.83 258.477C180.238 258.477 162.505 324.536 161.697 327.697C161.677 327.775 161.668 327.814 161.668 327.814L236.504 402.651C235.305 404.91 234.623 407.487 234.623 410.236C234.623 419.184 241.873 426.443 250.83 426.443C259.778 426.443 267.037 419.184 267.037 410.236C267.037 407.487 266.356 404.91 265.156 402.655L260.695 397.373C257.96 395.276 254.544 394.024 250.83 394.024C247.117 394.024 243.701 395.276 240.971 397.368L197.7 354.098C201.448 350.351 201.448 344.275 197.7 340.528C197.698 340.525 197.694 340.523 197.691 340.52L244.055 294.036C247.8 297.772 253.861 297.772 257.606 294.036L303.431 339.982C303.431 339.982 303.427 339.983 303.424 339.986C299.677 343.734 300.275 350.298 304.022 354.045L260.695 397.373L265.156 402.655L339.98 327.764Z" fill="#D2D2D2"/>
<path d="M259.91 345.704C259.91 350.719 255.845 354.785 250.83 354.785C245.815 354.785 241.75 350.719 241.75 345.704C241.75 340.689 245.815 336.624 250.83 336.624C255.845 336.624 259.91 340.689 259.91 345.704Z" fill="#D2D2D2"/>
</g>
<g id="Guides">
<g id="Home">
<circle id="Ellipse 1" cx="250.827" cy="410.421" r="16.0848" fill="#D2D2D2"/>
<circle id="Ellipse 1_2" cx="250.827" cy="410.422" r="1.62919" fill="black"/>
</g>
<g id="First">
<circle id="Ellipse 1_3" cx="311.125" cy="346.535" r="10.1878" fill="#D2D2D2"/>
<circle id="Ellipse 1_4" cx="311.125" cy="346.536" r="1.0319" fill="black"/>
</g>
<g id="Third">
<circle id="Ellipse 1_5" cx="190.34" cy="346.535" r="10.1878" fill="#D2D2D2"/>
<circle id="Ellipse 1_6" cx="190.34" cy="346.536" r="1.0319" fill="black"/>
</g>
<g id="Second">
<circle id="Ellipse 1_7" cx="250.827" cy="286.672" r="10.1878" fill="#D2D2D2"/>
<circle id="Ellipse 1_8" cx="250.827" cy="286.673" r="1.0319" fill="black"/>
</g>
<g id="Mound">
<circle id="Ellipse 1_9" cx="250.827" cy="345.931" r="9.08365" fill="#D2D2D2"/>
<circle id="Ellipse 1_10" cx="250.827" cy="345.932" r="0.920062" fill="black"/>
</g>
</g>
<path id="Foul Lines" d="M472.515 188.975L250.976 410.514L29.1182 188.66" fill="none" stroke="black" stroke-width="1.002"/>
<g id="Measurements">
<path id="410" d="M245.986 3.69922V2.27922H242.816V1.10922L245.796 -3.40078H247.416V1.03922H248.256V2.27922H247.416V3.69922H245.986ZM244.156 1.03922H245.986V-1.61078L244.156 1.03922ZM249.012 3.69922V2.41922H251.052V-0.960781H249.312V-2.14078H250.092C250.892 -2.14078 251.232 -2.48078 251.232 -3.40078H252.472V2.41922H254.052V3.69922H249.012ZM257.528 3.85922C255.928 3.85922 254.968 2.44922 254.968 0.159219C254.968 -2.14078 255.928 -3.56078 257.528 -3.56078C259.128 -3.56078 260.088 -2.14078 260.088 0.159219C260.088 2.44922 259.128 3.85922 257.528 3.85922ZM256.428 0.159219C256.428 0.589219 256.458 0.959219 256.518 1.26922L258.208 -1.92078C258.028 -2.17078 257.798 -2.30078 257.528 -2.30078C256.838 -2.30078 256.428 -1.48078 256.428 0.159219ZM257.528 2.59922C258.218 2.59922 258.628 1.78922 258.628 0.159219C258.628 -0.270781 258.598 -0.650782 258.538 -0.970781L256.848 2.21922C257.028 2.46922 257.258 2.59922 257.528 2.59922Z" fill="black"/>
<path id="380" d="M101.232 65.4959C99.6021 65.4959 98.7921 64.6659 98.7221 63.3759L100.162 63.3059C100.222 63.9959 100.682 64.2359 101.262 64.2359C101.892 64.2359 102.382 63.9359 102.382 63.2359C102.382 62.5559 101.932 62.1959 101.192 62.1959H100.662V61.0659H101.192C101.752 61.0659 102.162 60.8159 102.162 60.2059C102.162 59.6159 101.812 59.3259 101.252 59.3259C100.632 59.3259 100.332 59.6359 100.272 60.1259L98.8321 60.0559C98.9721 58.8459 99.8021 58.0759 101.262 58.0759C102.722 58.0759 103.622 58.7959 103.622 60.0159C103.622 60.7859 103.222 61.2959 102.472 61.5359C103.342 61.7859 103.842 62.4359 103.842 63.3359C103.842 64.6759 102.832 65.4959 101.232 65.4959ZM107.278 65.4959C105.708 65.4959 104.658 64.7759 104.658 63.3959C104.658 62.4659 105.198 61.8059 106.068 61.5259C105.398 61.2659 104.948 60.7759 104.948 60.0359C104.948 58.8959 105.878 58.0759 107.278 58.0759C108.678 58.0759 109.608 58.8959 109.608 60.0359C109.608 60.7759 109.158 61.2659 108.478 61.5259C109.358 61.8059 109.898 62.4659 109.898 63.3959C109.898 64.7759 108.848 65.4959 107.278 65.4959ZM107.278 60.9559C107.788 60.9559 108.138 60.6859 108.138 60.1259C108.138 59.6259 107.798 59.3359 107.278 59.3359C106.758 59.3359 106.418 59.6259 106.418 60.1259C106.418 60.6859 106.768 60.9559 107.278 60.9559ZM107.278 64.2359C107.918 64.2359 108.438 63.9559 108.438 63.2559C108.438 62.5859 108.008 62.1659 107.278 62.1659C106.548 62.1659 106.118 62.5859 106.118 63.2559C106.118 63.9559 106.638 64.2359 107.278 64.2359ZM113.274 65.4959C111.674 65.4959 110.714 64.0859 110.714 61.7959C110.714 59.4959 111.674 58.0759 113.274 58.0759C114.874 58.0759 115.834 59.4959 115.834 61.7959C115.834 64.0859 114.874 65.4959 113.274 65.4959ZM112.174 61.7959C112.174 62.2259 112.204 62.5959 112.264 62.9059L113.954 59.7159C113.774 59.4659 113.544 59.3359 113.274 59.3359C112.584 59.3359 112.174 60.1559 112.174 61.7959ZM113.274 64.2359C113.964 64.2359 114.374 63.4259 114.374 61.7959C114.374 61.3659 114.344 60.9859 114.284 60.6659L112.594 63.8559C112.774 64.1059 113.004 64.2359 113.274 64.2359Z" fill="black"/>
<path id="380_2" d="M386.746 65.4959C385.116 65.4959 384.306 64.6659 384.236 63.3759L385.676 63.3059C385.736 63.9959 386.196 64.2359 386.776 64.2359C387.406 64.2359 387.896 63.9359 387.896 63.2359C387.896 62.5559 387.446 62.1959 386.706 62.1959H386.176V61.0659H386.706C387.266 61.0659 387.676 60.8159 387.676 60.2059C387.676 59.6159 387.326 59.3259 386.766 59.3259C386.146 59.3259 385.846 59.6359 385.786 60.1259L384.346 60.0559C384.486 58.8459 385.316 58.0759 386.776 58.0759C388.236 58.0759 389.136 58.7959 389.136 60.0159C389.136 60.7859 388.736 61.2959 387.986 61.5359C388.856 61.7859 389.356 62.4359 389.356 63.3359C389.356 64.6759 388.346 65.4959 386.746 65.4959ZM392.792 65.4959C391.222 65.4959 390.172 64.7759 390.172 63.3959C390.172 62.4659 390.712 61.8059 391.582 61.5259C390.912 61.2659 390.462 60.7759 390.462 60.0359C390.462 58.8959 391.392 58.0759 392.792 58.0759C394.192 58.0759 395.122 58.8959 395.122 60.0359C395.122 60.7759 394.672 61.2659 393.992 61.5259C394.872 61.8059 395.412 62.4659 395.412 63.3959C395.412 64.7759 394.362 65.4959 392.792 65.4959ZM392.792 60.9559C393.302 60.9559 393.652 60.6859 393.652 60.1259C393.652 59.6259 393.312 59.3359 392.792 59.3359C392.272 59.3359 391.932 59.6259 391.932 60.1259C391.932 60.6859 392.282 60.9559 392.792 60.9559ZM392.792 64.2359C393.432 64.2359 393.952 63.9559 393.952 63.2559C393.952 62.5859 393.522 62.1659 392.792 62.1659C392.062 62.1659 391.632 62.5859 391.632 63.2559C391.632 63.9559 392.152 64.2359 392.792 64.2359ZM398.788 65.4959C397.188 65.4959 396.228 64.0859 396.228 61.7959C396.228 59.4959 397.188 58.0759 398.788 58.0759C400.388 58.0759 401.348 59.4959 401.348 61.7959C401.348 64.0859 400.388 65.4959 398.788 65.4959ZM397.688 61.7959C397.688 62.2259 397.718 62.5959 397.778 62.9059L399.468 59.7159C399.288 59.4659 399.058 59.3359 398.788 59.3359C398.098 59.3359 397.688 60.1559 397.688 61.7959ZM398.788 64.2359C399.478 64.2359 399.888 63.4259 399.888 61.7959C399.888 61.3659 399.858 60.9859 399.798 60.6659L398.108 63.8559C398.288 64.1059 398.518 64.2359 398.788 64.2359Z" fill="black"/>
<path id="320" d="M454.938 188.098C453.308 188.098 452.498 187.267 452.428 185.977L453.868 185.907C453.928 186.597 454.388 186.837 454.968 186.837C455.598 186.837 456.088 186.537 456.088 185.837C456.088 185.157 455.638 184.797 454.898 184.797H454.368V183.667H454.898C455.458 183.667 455.868 183.417 455.868 182.807C455.868 182.217 455.518 181.927 454.958 181.927C454.338 181.927 454.038 182.237 453.978 182.727L452.538 182.658C452.678 181.447 453.508 180.677 454.968 180.677C456.428 180.677 457.328 181.397 457.328 182.617C457.328 183.387 456.928 183.897 456.178 184.137C457.048 184.387 457.548 185.037 457.548 185.937C457.548 187.278 456.538 188.098 454.938 188.098ZM458.424 187.938C458.424 186.207 459.004 185.197 460.984 184.177C461.714 183.797 462.074 183.517 462.074 182.867C462.074 182.297 461.744 181.937 461.114 181.937C460.394 181.937 460.044 182.357 459.924 183.117L458.454 183.027C458.594 181.577 459.504 180.677 461.134 180.677C462.724 180.677 463.544 181.527 463.544 182.787C463.544 183.927 463.054 184.487 461.654 185.247C460.504 185.867 460.094 186.297 460.054 186.657H463.544V187.938H458.424ZM466.98 188.098C465.38 188.098 464.42 186.688 464.42 184.397C464.42 182.097 465.38 180.677 466.98 180.677C468.58 180.677 469.54 182.097 469.54 184.397C469.54 186.688 468.58 188.098 466.98 188.098ZM465.88 184.397C465.88 184.827 465.91 185.197 465.97 185.507L467.66 182.317C467.48 182.067 467.25 181.937 466.98 181.937C466.29 181.937 465.88 182.757 465.88 184.397ZM466.98 186.837C467.67 186.837 468.08 186.027 468.08 184.397C468.08 183.967 468.05 183.587 467.99 183.267L466.3 186.457C466.48 186.707 466.71 186.837 466.98 186.837Z" fill="black"/>
<path id="320_2" d="M36.0344 188.098C34.4044 188.098 33.5944 187.267 33.5244 185.977L34.9644 185.907C35.0244 186.597 35.4844 186.837 36.0644 186.837C36.6944 186.837 37.1844 186.537 37.1844 185.837C37.1844 185.157 36.7344 184.797 35.9944 184.797H35.4644V183.667H35.9944C36.5544 183.667 36.9644 183.417 36.9644 182.807C36.9644 182.217 36.6144 181.927 36.0544 181.927C35.4344 181.927 35.1344 182.237 35.0744 182.727L33.6344 182.658C33.7744 181.447 34.6044 180.677 36.0644 180.677C37.5244 180.677 38.4244 181.397 38.4244 182.617C38.4244 183.387 38.0244 183.897 37.2744 184.137C38.1444 184.387 38.6444 185.037 38.6444 185.937C38.6444 187.278 37.6344 188.098 36.0344 188.098ZM39.5204 187.938C39.5204 186.207 40.1004 185.197 42.0804 184.177C42.8104 183.797 43.1704 183.517 43.1704 182.867C43.1704 182.297 42.8404 181.937 42.2104 181.937C41.4904 181.937 41.1404 182.357 41.0204 183.117L39.5504 183.027C39.6904 181.577 40.6004 180.677 42.2304 180.677C43.8204 180.677 44.6404 181.527 44.6404 182.787C44.6404 183.927 44.1504 184.487 42.7504 185.247C41.6004 185.867 41.1904 186.297 41.1504 186.657H44.6404V187.938H39.5204ZM48.0765 188.098C46.4765 188.098 45.5165 186.688 45.5165 184.397C45.5165 182.097 46.4765 180.677 48.0765 180.677C49.6765 180.677 50.6365 182.097 50.6365 184.397C50.6365 186.688 49.6765 188.098 48.0765 188.098ZM46.9765 184.397C46.9765 184.827 47.0065 185.197 47.0665 185.507L48.7565 182.317C48.5765 182.067 48.3465 181.937 48.0765 181.937C47.3865 181.937 46.9765 182.757 46.9765 184.397ZM48.0765 186.837C48.7665 186.837 49.1765 186.027 49.1765 184.397C49.1765 183.967 49.1465 183.587 49.0865 183.267L47.3965 186.457C47.5765 186.707 47.8065 186.837 48.0765 186.837Z" fill="black"/>
</g>
<path id="field" d="M71.1052 293.493L51.9856 300.663C38.3298 262.701 23.1135 193.371 30.3223 130.302L164.341 35.7254C216.193 -0.86661 285.462 -0.866804 337.315 35.7249L471.335 130.302C478.544 193.371 463.328 262.701 449.672 300.663L430.552 293.493C408.438 353.125 341.168 469.951 250.827 469.951H250.83C160.49 469.951 93.2198 353.125 71.1052 293.493Z" fill="#00385D" fill-opacity="0.1" fill="none" stroke="#00385D" stroke-width="1.002"/>
</g>
<defs>
<clipPath id="clip0_123_6289">
<rect width="500" height="469.94" fill="white"/>
</clipPath>
</defs>
</svg>
