<svg width="500" height="470" viewBox="0 0 500 470" fill="none" xmlns="http://www.w3.org/2000/svg">
<g id="cleveland-stadium-1932" clip-path="url(#clip0_123_6262)">
<g id="Infield">
<path d="M339.98 327.764C339.453 325.664 322.032 258.477 250.83 258.477C180.238 258.477 162.505 324.536 161.697 327.697C161.677 327.775 161.668 327.814 161.668 327.814L236.504 402.651C235.305 404.91 234.623 407.487 234.623 410.236C234.623 419.184 241.873 426.443 250.83 426.443C259.778 426.443 267.037 419.184 267.037 410.236C267.037 407.487 266.356 404.91 265.156 402.655L260.695 397.373C257.96 395.276 254.544 394.024 250.83 394.024C247.117 394.024 243.701 395.276 240.971 397.368L197.7 354.098C201.448 350.351 201.448 344.275 197.7 340.528C197.698 340.525 197.694 340.523 197.691 340.52L244.055 294.036C247.8 297.772 253.861 297.772 257.606 294.036L303.431 339.982C303.431 339.982 303.427 339.983 303.424 339.986C299.677 343.734 300.275 350.298 304.022 354.045L260.695 397.373L265.156 402.655L339.98 327.764Z" fill="#D2D2D2"/>
<path d="M259.91 345.704C259.91 350.719 255.845 354.785 250.83 354.785C245.815 354.785 241.75 350.719 241.75 345.704C241.75 340.689 245.815 336.624 250.83 336.624C255.845 336.624 259.91 340.689 259.91 345.704Z" fill="#D2D2D2"/>
</g>
<g id="Guides">
<g id="Home">
<circle id="Ellipse 1" cx="250.827" cy="410.421" r="16.0848" fill="#D2D2D2"/>
<circle id="Ellipse 1_2" cx="250.827" cy="410.422" r="1.62919" fill="black"/>
</g>
<g id="First">
<circle id="Ellipse 1_3" cx="311.125" cy="346.535" r="10.1878" fill="#D2D2D2"/>
<circle id="Ellipse 1_4" cx="311.125" cy="346.536" r="1.0319" fill="black"/>
</g>
<g id="Third">
<circle id="Ellipse 1_5" cx="190.34" cy="346.535" r="10.1878" fill="#D2D2D2"/>
<circle id="Ellipse 1_6" cx="190.34" cy="346.536" r="1.0319" fill="black"/>
</g>
<g id="Second">
<circle id="Ellipse 1_7" cx="250.827" cy="286.672" r="10.1878" fill="#D2D2D2"/>
<circle id="Ellipse 1_8" cx="250.827" cy="286.673" r="1.0319" fill="black"/>
</g>
<g id="Mound">
<circle id="Ellipse 1_9" cx="250.827" cy="345.931" r="9.08365" fill="#D2D2D2"/>
<circle id="Ellipse 1_10" cx="250.827" cy="345.932" r="0.920062" fill="black"/>
</g>
</g>
<path id="Foul Lines" d="M472.515 188.975L250.976 410.514L29.1182 188.66" fill="none" stroke="black" stroke-width="1.002"/>
<g id="Measurements">
<path id="435" d="M420.123 14.6992V13.2792H416.953V12.1092L419.933 7.59922H421.553V12.0392H422.393V13.2792H421.553V14.6992H420.123ZM418.293 12.0392H420.123V9.38922L418.293 12.0392ZM425.619 14.8592C423.989 14.8592 423.179 14.0292 423.109 12.7392L424.549 12.6692C424.609 13.3592 425.069 13.5992 425.649 13.5992C426.279 13.5992 426.769 13.2992 426.769 12.5992C426.769 11.9192 426.319 11.5592 425.579 11.5592H425.049V10.4292H425.579C426.139 10.4292 426.549 10.1792 426.549 9.56922C426.549 8.97922 426.199 8.68922 425.639 8.68922C425.019 8.68922 424.719 8.99922 424.659 9.48922L423.219 9.41922C423.359 8.20922 424.189 7.43922 425.649 7.43922C427.109 7.43922 428.009 8.15922 428.009 9.37922C428.009 10.1492 427.609 10.6592 426.859 10.8992C427.729 11.1492 428.229 11.7992 428.229 12.6992C428.229 14.0392 427.219 14.8592 425.619 14.8592ZM431.655 14.8592C430.155 14.8592 429.245 13.9692 429.145 12.7992L430.605 12.7192C430.695 13.2992 431.045 13.5992 431.655 13.5992C432.315 13.5992 432.725 13.1792 432.725 12.3692C432.725 11.5792 432.305 11.1192 431.665 11.1192C431.225 11.1192 430.855 11.3792 430.715 11.7392L429.245 11.6692L429.665 7.59922H433.855V8.87922H430.835L430.655 10.4092C430.985 10.1292 431.425 9.96922 431.905 9.96922C433.315 9.96922 434.185 10.9892 434.185 12.3792C434.185 13.8492 433.185 14.8592 431.655 14.8592Z" fill="black"/>
<path id="435_2" d="M72.2829 14.6992V13.2792H69.1129V12.1092L72.0929 7.59922H73.7129V12.0392H74.5529V13.2792H73.7129V14.6992H72.2829ZM70.4529 12.0392H72.2829V9.38922L70.4529 12.0392ZM77.779 14.8592C76.149 14.8592 75.339 14.0292 75.269 12.7392L76.709 12.6692C76.769 13.3592 77.229 13.5992 77.809 13.5992C78.439 13.5992 78.929 13.2992 78.929 12.5992C78.929 11.9192 78.479 11.5592 77.739 11.5592H77.209V10.4292H77.739C78.299 10.4292 78.709 10.1792 78.709 9.56922C78.709 8.97922 78.359 8.68922 77.799 8.68922C77.179 8.68922 76.879 8.99922 76.819 9.48922L75.379 9.41922C75.519 8.20922 76.349 7.43922 77.809 7.43922C79.269 7.43922 80.169 8.15922 80.169 9.37922C80.169 10.1492 79.769 10.6592 79.019 10.8992C79.889 11.1492 80.389 11.7992 80.389 12.6992C80.389 14.0392 79.379 14.8592 77.779 14.8592ZM83.8151 14.8592C82.3151 14.8592 81.4051 13.9692 81.3051 12.7992L82.7651 12.7192C82.8551 13.2992 83.2051 13.5992 83.8151 13.5992C84.4751 13.5992 84.8851 13.1792 84.8851 12.3692C84.8851 11.5792 84.4651 11.1192 83.8251 11.1192C83.3851 11.1192 83.0151 11.3792 82.8751 11.7392L81.4051 11.6692L81.8251 7.59922H86.0151V8.87922H82.9951L82.8151 10.4092C83.1451 10.1292 83.5851 9.96922 84.0651 9.96922C85.4751 9.96922 86.3451 10.9892 86.3451 12.3792C86.3451 13.8492 85.3451 14.8592 83.8151 14.8592Z" fill="black"/>
<path id="320" d="M454.938 188.098C453.308 188.098 452.498 187.267 452.428 185.977L453.868 185.907C453.928 186.597 454.388 186.837 454.968 186.837C455.598 186.837 456.088 186.537 456.088 185.837C456.088 185.157 455.638 184.797 454.898 184.797H454.368V183.667H454.898C455.458 183.667 455.868 183.417 455.868 182.807C455.868 182.217 455.518 181.927 454.958 181.927C454.338 181.927 454.038 182.237 453.978 182.727L452.538 182.658C452.678 181.447 453.508 180.677 454.968 180.677C456.428 180.677 457.328 181.397 457.328 182.617C457.328 183.387 456.928 183.897 456.178 184.137C457.048 184.387 457.548 185.037 457.548 185.937C457.548 187.278 456.538 188.098 454.938 188.098ZM458.424 187.938C458.424 186.207 459.004 185.197 460.984 184.177C461.714 183.797 462.074 183.517 462.074 182.867C462.074 182.297 461.744 181.937 461.114 181.937C460.394 181.937 460.044 182.357 459.924 183.117L458.454 183.027C458.594 181.577 459.504 180.677 461.134 180.677C462.724 180.677 463.544 181.527 463.544 182.787C463.544 183.927 463.054 184.487 461.654 185.247C460.504 185.867 460.094 186.297 460.054 186.657H463.544V187.938H458.424ZM466.98 188.098C465.38 188.098 464.42 186.688 464.42 184.397C464.42 182.097 465.38 180.677 466.98 180.677C468.58 180.677 469.54 182.097 469.54 184.397C469.54 186.688 468.58 188.098 466.98 188.098ZM465.88 184.397C465.88 184.827 465.91 185.197 465.97 185.507L467.66 182.317C467.48 182.067 467.25 181.937 466.98 181.937C466.29 181.937 465.88 182.757 465.88 184.397ZM466.98 186.837C467.67 186.837 468.08 186.027 468.08 184.397C468.08 183.967 468.05 183.587 467.99 183.267L466.3 186.457C466.48 186.707 466.71 186.837 466.98 186.837Z" fill="black"/>
<path id="320_2" d="M36.0344 188.098C34.4044 188.098 33.5944 187.267 33.5244 185.977L34.9644 185.907C35.0244 186.597 35.4844 186.837 36.0644 186.837C36.6944 186.837 37.1844 186.537 37.1844 185.837C37.1844 185.157 36.7344 184.797 35.9944 184.797H35.4644V183.667H35.9944C36.5544 183.667 36.9644 183.417 36.9644 182.807C36.9644 182.217 36.6144 181.927 36.0544 181.927C35.4344 181.927 35.1344 182.237 35.0744 182.727L33.6344 182.658C33.7744 181.447 34.6044 180.677 36.0644 180.677C37.5244 180.677 38.4244 181.397 38.4244 182.617C38.4244 183.387 38.0244 183.897 37.2744 184.137C38.1444 184.387 38.6444 185.037 38.6444 185.937C38.6444 187.278 37.6344 188.098 36.0344 188.098ZM39.5205 187.938C39.5205 186.207 40.1005 185.197 42.0805 184.177C42.8105 183.797 43.1705 183.517 43.1705 182.867C43.1705 182.297 42.8405 181.937 42.2105 181.937C41.4905 181.937 41.1405 182.357 41.0205 183.117L39.5505 183.027C39.6905 181.577 40.6005 180.677 42.2305 180.677C43.8205 180.677 44.6405 181.527 44.6405 182.787C44.6405 183.927 44.1505 184.487 42.7505 185.247C41.6005 185.867 41.1905 186.297 41.1505 186.657H44.6405V187.938H39.5205ZM48.0766 188.098C46.4766 188.098 45.5166 186.688 45.5166 184.397C45.5166 182.097 46.4766 180.677 48.0766 180.677C49.6766 180.677 50.6366 182.097 50.6366 184.397C50.6366 186.688 49.6766 188.098 48.0766 188.098ZM46.9766 184.397C46.9766 184.827 47.0066 185.197 47.0666 185.507L48.7566 182.317C48.5766 182.067 48.3466 181.937 48.0766 181.937C47.3866 181.937 46.9766 182.757 46.9766 184.397ZM48.0766 186.837C48.7666 186.837 49.1766 186.027 49.1766 184.397C49.1766 183.967 49.1466 183.587 49.0866 183.267L47.3966 186.457C47.5766 186.707 47.8066 186.837 48.0766 186.837Z" fill="black"/>
</g>
<path id="field" d="M51.9856 300.664C28.086 234.224 -0.593475 71.7051 94.5269 14.8242L80.6251 -9.25441C157.144 -51.6172 198.251 -51.0621 250.83 -51.0621L250.827 -51.0621C303.407 -51.0621 344.514 -51.6172 421.032 -9.25441L407.131 14.8242C502.251 71.7051 473.571 234.224 449.672 300.664L430.552 293.494C408.438 353.125 341.168 469.952 250.827 469.952H250.83C160.49 469.952 93.2198 353.125 71.1053 293.494L51.9856 300.664Z" fill="#00385D" fill-opacity="0.1" fill="none" stroke="#00385D" stroke-width="1.002"/>
</g>
<defs>
<clipPath id="clip0_123_6262">
<rect width="500" height="469.94" fill="white"/>
</clipPath>
</defs>
</svg>
