<svg width="500" height="470" viewBox="0 0 500 470" fill="none" xmlns="http://www.w3.org/2000/svg">
<g id="cleveland-stadium-1970" clip-path="url(#clip0_123_6316)">
<g id="Infield">
<path d="M339.98 327.764C339.453 325.664 322.032 258.477 250.83 258.477C180.238 258.477 162.505 324.536 161.697 327.697C161.677 327.775 161.668 327.814 161.668 327.814L236.504 402.651C235.305 404.91 234.623 407.487 234.623 410.236C234.623 419.184 241.873 426.443 250.83 426.443C259.778 426.443 267.037 419.184 267.037 410.236C267.037 407.487 266.356 404.91 265.157 402.655L260.695 397.373C257.96 395.276 254.544 394.024 250.83 394.024C247.117 394.024 243.701 395.276 240.971 397.368L197.7 354.098C201.448 350.351 201.448 344.275 197.7 340.528C197.698 340.525 197.694 340.523 197.691 340.52L244.055 294.036C247.8 297.772 253.861 297.772 257.606 294.036L303.431 339.982C303.431 339.982 303.427 339.983 303.424 339.986C299.677 343.734 300.275 350.298 304.022 354.045L260.695 397.373L265.157 402.655L339.98 327.764Z" fill="#D2D2D2"/>
<path d="M259.91 345.704C259.91 350.719 255.845 354.785 250.83 354.785C245.815 354.785 241.75 350.719 241.75 345.704C241.75 340.689 245.815 336.624 250.83 336.624C255.845 336.624 259.91 340.689 259.91 345.704Z" fill="#D2D2D2"/>
</g>
<g id="Guides">
<g id="Home">
<circle id="Ellipse 1" cx="250.827" cy="410.421" r="16.0848" fill="#D2D2D2"/>
<circle id="Ellipse 1_2" cx="250.827" cy="410.422" r="1.62919" fill="black"/>
</g>
<g id="First">
<circle id="Ellipse 1_3" cx="311.125" cy="346.535" r="10.1878" fill="#D2D2D2"/>
<circle id="Ellipse 1_4" cx="311.125" cy="346.536" r="1.0319" fill="black"/>
</g>
<g id="Third">
<circle id="Ellipse 1_5" cx="190.34" cy="346.535" r="10.1878" fill="#D2D2D2"/>
<circle id="Ellipse 1_6" cx="190.34" cy="346.536" r="1.0319" fill="black"/>
</g>
<g id="Second">
<circle id="Ellipse 1_7" cx="250.827" cy="286.672" r="10.1878" fill="#D2D2D2"/>
<circle id="Ellipse 1_8" cx="250.827" cy="286.673" r="1.0319" fill="black"/>
</g>
<g id="Mound">
<circle id="Ellipse 1_9" cx="250.827" cy="345.931" r="9.08365" fill="#D2D2D2"/>
<circle id="Ellipse 1_10" cx="250.827" cy="345.932" r="0.920062" fill="black"/>
</g>
</g>
<path id="Foul Lines" d="M472.515 188.975L250.976 410.514L29.1182 188.66" fill="none" stroke="black" stroke-width="1.002"/>
<g id="Measurements">
<path id="400" d="M245.986 15.6992V14.2792H242.816V13.1092L245.796 8.59922H247.416V13.0392H248.256V14.2792H247.416V15.6992H245.986ZM244.156 13.0392H245.986V10.3892L244.156 13.0392ZM251.532 15.8592C249.932 15.8592 248.972 14.4492 248.972 12.1592C248.972 9.85922 249.932 8.43922 251.532 8.43922C253.132 8.43922 254.092 9.85922 254.092 12.1592C254.092 14.4492 253.132 15.8592 251.532 15.8592ZM250.432 12.1592C250.432 12.5892 250.462 12.9592 250.522 13.2692L252.212 10.0792C252.032 9.82922 251.802 9.69922 251.532 9.69922C250.842 9.69922 250.432 10.5192 250.432 12.1592ZM251.532 14.5992C252.222 14.5992 252.632 13.7892 252.632 12.1592C252.632 11.7292 252.602 11.3492 252.542 11.0292L250.852 14.2192C251.032 14.4692 251.262 14.5992 251.532 14.5992ZM257.528 15.8592C255.928 15.8592 254.968 14.4492 254.968 12.1592C254.968 9.85922 255.928 8.43922 257.528 8.43922C259.128 8.43922 260.088 9.85922 260.088 12.1592C260.088 14.4492 259.128 15.8592 257.528 15.8592ZM256.428 12.1592C256.428 12.5892 256.458 12.9592 256.518 13.2692L258.208 10.0792C258.028 9.82922 257.798 9.69922 257.528 9.69922C256.838 9.69922 256.428 10.5192 256.428 12.1592ZM257.528 14.5992C258.218 14.5992 258.628 13.7892 258.628 12.1592C258.628 11.7292 258.598 11.3492 258.538 11.0292L256.848 14.2192C257.028 14.4692 257.258 14.5992 257.528 14.5992Z" fill="black"/>
<path id="385" d="M95.7105 61.4373C94.0805 61.4373 93.2705 60.6073 93.2005 59.3173L94.6405 59.2473C94.7005 59.9373 95.1605 60.1773 95.7405 60.1773C96.3705 60.1773 96.8605 59.8773 96.8605 59.1773C96.8605 58.4973 96.4105 58.1373 95.6705 58.1373H95.1405V57.0073H95.6705C96.2305 57.0073 96.6405 56.7573 96.6405 56.1473C96.6405 55.5573 96.2905 55.2673 95.7305 55.2673C95.1105 55.2673 94.8105 55.5773 94.7505 56.0673L93.3105 55.9973C93.4505 54.7873 94.2805 54.0173 95.7405 54.0173C97.2005 54.0173 98.1005 54.7373 98.1005 55.9573C98.1005 56.7273 97.7005 57.2373 96.9505 57.4773C97.8205 57.7273 98.3205 58.3773 98.3205 59.2773C98.3205 60.6173 97.3105 61.4373 95.7105 61.4373ZM101.757 61.4373C100.187 61.4373 99.1366 60.7173 99.1366 59.3373C99.1366 58.4073 99.6766 57.7473 100.547 57.4673C99.8766 57.2073 99.4266 56.7173 99.4266 55.9773C99.4266 54.8373 100.357 54.0173 101.757 54.0173C103.157 54.0173 104.087 54.8373 104.087 55.9773C104.087 56.7173 103.637 57.2073 102.957 57.4673C103.837 57.7473 104.377 58.4073 104.377 59.3373C104.377 60.7173 103.327 61.4373 101.757 61.4373ZM101.757 56.8973C102.267 56.8973 102.617 56.6273 102.617 56.0673C102.617 55.5673 102.277 55.2773 101.757 55.2773C101.237 55.2773 100.897 55.5673 100.897 56.0673C100.897 56.6273 101.247 56.8973 101.757 56.8973ZM101.757 60.1773C102.397 60.1773 102.917 59.8973 102.917 59.1973C102.917 58.5273 102.487 58.1073 101.757 58.1073C101.027 58.1073 100.597 58.5273 100.597 59.1973C100.597 59.8973 101.117 60.1773 101.757 60.1773ZM107.743 61.4373C106.243 61.4373 105.333 60.5473 105.233 59.3773L106.693 59.2973C106.783 59.8773 107.133 60.1773 107.743 60.1773C108.403 60.1773 108.813 59.7573 108.813 58.9473C108.813 58.1573 108.393 57.6973 107.753 57.6973C107.313 57.6973 106.943 57.9573 106.803 58.3173L105.333 58.2473L105.753 54.1773H109.943V55.4573H106.923L106.743 56.9873C107.073 56.7073 107.513 56.5473 107.993 56.5473C109.403 56.5473 110.273 57.5673 110.273 58.9573C110.273 60.4273 109.273 61.4373 107.743 61.4373Z" fill="black"/>
<path id="385_2" d="M392.078 61.4373C390.448 61.4373 389.638 60.6073 389.568 59.3173L391.008 59.2473C391.068 59.9373 391.528 60.1773 392.108 60.1773C392.738 60.1773 393.228 59.8773 393.228 59.1773C393.228 58.4973 392.778 58.1373 392.038 58.1373H391.508V57.0073H392.038C392.598 57.0073 393.008 56.7573 393.008 56.1473C393.008 55.5573 392.658 55.2673 392.098 55.2673C391.478 55.2673 391.178 55.5773 391.118 56.0673L389.678 55.9973C389.818 54.7873 390.648 54.0173 392.108 54.0173C393.568 54.0173 394.468 54.7373 394.468 55.9573C394.468 56.7273 394.068 57.2373 393.318 57.4773C394.188 57.7273 394.688 58.3773 394.688 59.2773C394.688 60.6173 393.678 61.4373 392.078 61.4373ZM398.124 61.4373C396.554 61.4373 395.504 60.7173 395.504 59.3373C395.504 58.4073 396.044 57.7473 396.914 57.4673C396.244 57.2073 395.794 56.7173 395.794 55.9773C395.794 54.8373 396.724 54.0173 398.124 54.0173C399.524 54.0173 400.454 54.8373 400.454 55.9773C400.454 56.7173 400.004 57.2073 399.324 57.4673C400.204 57.7473 400.744 58.4073 400.744 59.3373C400.744 60.7173 399.694 61.4373 398.124 61.4373ZM398.124 56.8973C398.634 56.8973 398.984 56.6273 398.984 56.0673C398.984 55.5673 398.644 55.2773 398.124 55.2773C397.604 55.2773 397.264 55.5673 397.264 56.0673C397.264 56.6273 397.614 56.8973 398.124 56.8973ZM398.124 60.1773C398.764 60.1773 399.284 59.8973 399.284 59.1973C399.284 58.5273 398.854 58.1073 398.124 58.1073C397.394 58.1073 396.964 58.5273 396.964 59.1973C396.964 59.8973 397.484 60.1773 398.124 60.1773ZM404.11 61.4373C402.61 61.4373 401.7 60.5473 401.6 59.3773L403.06 59.2973C403.15 59.8773 403.5 60.1773 404.11 60.1773C404.77 60.1773 405.18 59.7573 405.18 58.9473C405.18 58.1573 404.76 57.6973 404.12 57.6973C403.68 57.6973 403.31 57.9573 403.17 58.3173L401.7 58.2473L402.12 54.1773H406.31V55.4573H403.29L403.11 56.9873C403.44 56.7073 403.88 56.5473 404.36 56.5473C405.77 56.5473 406.64 57.5673 406.64 58.9573C406.64 60.4273 405.64 61.4373 404.11 61.4373Z" fill="black"/>
<path id="320" d="M454.938 188.098C453.308 188.098 452.498 187.267 452.428 185.977L453.868 185.907C453.928 186.597 454.388 186.837 454.968 186.837C455.598 186.837 456.088 186.537 456.088 185.837C456.088 185.157 455.638 184.797 454.898 184.797H454.368V183.667H454.898C455.458 183.667 455.868 183.417 455.868 182.807C455.868 182.217 455.518 181.927 454.958 181.927C454.338 181.927 454.038 182.237 453.978 182.727L452.538 182.658C452.678 181.447 453.508 180.677 454.968 180.677C456.428 180.677 457.328 181.397 457.328 182.617C457.328 183.387 456.928 183.897 456.178 184.137C457.048 184.387 457.548 185.037 457.548 185.937C457.548 187.278 456.538 188.098 454.938 188.098ZM458.424 187.938C458.424 186.207 459.004 185.197 460.984 184.177C461.714 183.797 462.074 183.517 462.074 182.867C462.074 182.297 461.744 181.937 461.114 181.937C460.394 181.937 460.044 182.357 459.924 183.117L458.454 183.027C458.594 181.577 459.504 180.677 461.134 180.677C462.724 180.677 463.544 181.527 463.544 182.787C463.544 183.927 463.054 184.487 461.654 185.247C460.504 185.867 460.094 186.297 460.054 186.657H463.544V187.938H458.424ZM466.98 188.098C465.38 188.098 464.42 186.688 464.42 184.397C464.42 182.097 465.38 180.677 466.98 180.677C468.58 180.677 469.54 182.097 469.54 184.397C469.54 186.688 468.58 188.098 466.98 188.098ZM465.88 184.397C465.88 184.827 465.91 185.197 465.97 185.507L467.66 182.317C467.48 182.067 467.25 181.937 466.98 181.937C466.29 181.937 465.88 182.757 465.88 184.397ZM466.98 186.837C467.67 186.837 468.08 186.027 468.08 184.397C468.08 183.967 468.05 183.587 467.99 183.267L466.3 186.457C466.48 186.707 466.71 186.837 466.98 186.837Z" fill="black"/>
<path id="320_2" d="M36.0344 188.098C34.4044 188.098 33.5944 187.267 33.5244 185.977L34.9644 185.907C35.0244 186.597 35.4844 186.837 36.0644 186.837C36.6944 186.837 37.1844 186.537 37.1844 185.837C37.1844 185.157 36.7344 184.797 35.9944 184.797H35.4644V183.667H35.9944C36.5544 183.667 36.9644 183.417 36.9644 182.807C36.9644 182.217 36.6144 181.927 36.0544 181.927C35.4344 181.927 35.1344 182.237 35.0744 182.727L33.6344 182.658C33.7744 181.447 34.6044 180.677 36.0644 180.677C37.5244 180.677 38.4244 181.397 38.4244 182.617C38.4244 183.387 38.0244 183.897 37.2744 184.137C38.1444 184.387 38.6444 185.037 38.6444 185.937C38.6444 187.278 37.6344 188.098 36.0344 188.098ZM39.5204 187.938C39.5204 186.207 40.1004 185.197 42.0804 184.177C42.8104 183.797 43.1704 183.517 43.1704 182.867C43.1704 182.297 42.8404 181.937 42.2104 181.937C41.4904 181.937 41.1404 182.357 41.0204 183.117L39.5504 183.027C39.6904 181.577 40.6004 180.677 42.2304 180.677C43.8204 180.677 44.6404 181.527 44.6404 182.787C44.6404 183.927 44.1504 184.487 42.7504 185.247C41.6004 185.867 41.1904 186.297 41.1504 186.657H44.6404V187.938H39.5204ZM48.0765 188.098C46.4765 188.098 45.5165 186.688 45.5165 184.397C45.5165 182.097 46.4765 180.677 48.0765 180.677C49.6765 180.677 50.6365 182.097 50.6365 184.397C50.6365 186.688 49.6765 188.098 48.0765 188.098ZM46.9765 184.397C46.9765 184.827 47.0065 185.197 47.0665 185.507L48.7565 182.317C48.5765 182.067 48.3465 181.937 48.0765 181.937C47.3865 181.937 46.9765 182.757 46.9765 184.397ZM48.0765 186.837C48.7665 186.837 49.1765 186.027 49.1765 184.397C49.1765 183.967 49.1465 183.587 49.0865 183.267L47.3965 186.457C47.5765 186.707 47.8065 186.837 48.0765 186.837Z" fill="black"/>
</g>
<path id="field" d="M79.4258 289.719L51.9856 300.663C38.3298 262.7 23.1135 193.37 30.3223 130.301L68.2466 95.4024L102.964 69.7442C113.718 61.796 125.383 55.1603 137.71 49.978L169.244 36.7218C180.451 32.0106 192.136 28.5298 204.094 26.3404L219.775 23.4695C240.299 19.7119 261.343 19.8103 281.83 23.7598L296.272 26.5437C306.935 28.5992 317.373 31.6836 327.44 35.7536L362.642 49.985C375.446 55.1614 387.563 61.897 398.718 70.0392L433.467 95.4024L471.335 130.301C478.544 193.37 463.328 262.7 449.672 300.663L423.296 289.719L307.531 442.034C279.065 479.488 222.705 479.404 194.351 441.866L79.4258 289.719Z" fill="#00385D" fill-opacity="0.1" fill="none" stroke="#00385D" stroke-width="1.002"/>
</g>
<defs>
<clipPath id="clip0_123_6316">
<rect width="500" height="469.94" fill="white"/>
</clipPath>
</defs>
</svg>
