<svg width="500" height="470" viewBox="0 0 500 470" fill="none" xmlns="http://www.w3.org/2000/svg">
<g id="cleveland-stadium-1980" clip-path="url(#clip0_123_6343)">
<g id="Infield">
<path d="M339.98 327.764C339.453 325.664 322.032 258.477 250.83 258.477C180.238 258.477 162.505 324.536 161.697 327.697C161.677 327.775 161.668 327.814 161.668 327.814L236.504 402.651C235.305 404.91 234.623 407.487 234.623 410.236C234.623 419.184 241.873 426.443 250.83 426.443C259.778 426.443 267.037 419.184 267.037 410.236C267.037 407.487 266.356 404.91 265.157 402.655L260.695 397.373C257.96 395.276 254.544 394.024 250.83 394.024C247.117 394.024 243.701 395.276 240.971 397.368L197.7 354.098C201.448 350.351 201.448 344.275 197.7 340.528C197.698 340.525 197.694 340.523 197.691 340.52L244.055 294.036C247.8 297.772 253.861 297.772 257.606 294.036L303.431 339.982C303.431 339.982 303.427 339.983 303.424 339.986C299.677 343.734 300.275 350.298 304.022 354.045L260.695 397.373L265.157 402.655L339.98 327.764Z" fill="#D2D2D2"/>
<path d="M259.91 345.704C259.91 350.719 255.845 354.785 250.83 354.785C245.815 354.785 241.75 350.719 241.75 345.704C241.75 340.689 245.815 336.624 250.83 336.624C255.845 336.624 259.91 340.689 259.91 345.704Z" fill="#D2D2D2"/>
</g>
<g id="Guides">
<g id="Home">
<circle id="Ellipse 1" cx="250.827" cy="410.421" r="16.0848" fill="#D2D2D2"/>
<circle id="Ellipse 1_2" cx="250.827" cy="410.422" r="1.62919" fill="black"/>
</g>
<g id="First">
<circle id="Ellipse 1_3" cx="311.125" cy="346.535" r="10.1878" fill="#D2D2D2"/>
<circle id="Ellipse 1_4" cx="311.125" cy="346.536" r="1.0319" fill="black"/>
</g>
<g id="Third">
<circle id="Ellipse 1_5" cx="190.34" cy="346.535" r="10.1878" fill="#D2D2D2"/>
<circle id="Ellipse 1_6" cx="190.34" cy="346.536" r="1.0319" fill="black"/>
</g>
<g id="Second">
<circle id="Ellipse 1_7" cx="250.827" cy="286.672" r="10.1878" fill="#D2D2D2"/>
<circle id="Ellipse 1_8" cx="250.827" cy="286.673" r="1.0319" fill="black"/>
</g>
<g id="Mound">
<circle id="Ellipse 1_9" cx="250.827" cy="345.931" r="9.08365" fill="#D2D2D2"/>
<circle id="Ellipse 1_10" cx="250.827" cy="345.932" r="0.920062" fill="black"/>
</g>
</g>
<path id="Foul Lines" d="M472.515 188.975L250.975 410.514L29.1182 188.66" fill="none" stroke="black" stroke-width="1.002"/>
<g id="Measurements">
<path id="400" d="M245.986 15.6992V14.2792H242.816V13.1092L245.796 8.59922H247.416V13.0392H248.256V14.2792H247.416V15.6992H245.986ZM244.156 13.0392H245.986V10.3892L244.156 13.0392ZM251.532 15.8592C249.932 15.8592 248.972 14.4492 248.972 12.1592C248.972 9.85922 249.932 8.43922 251.532 8.43922C253.132 8.43922 254.092 9.85922 254.092 12.1592C254.092 14.4492 253.132 15.8592 251.532 15.8592ZM250.432 12.1592C250.432 12.5892 250.462 12.9592 250.522 13.2692L252.212 10.0792C252.032 9.82922 251.802 9.69922 251.532 9.69922C250.842 9.69922 250.432 10.5192 250.432 12.1592ZM251.532 14.5992C252.222 14.5992 252.632 13.7892 252.632 12.1592C252.632 11.7292 252.602 11.3492 252.542 11.0292L250.852 14.2192C251.032 14.4692 251.262 14.5992 251.532 14.5992ZM257.528 15.8592C255.928 15.8592 254.968 14.4492 254.968 12.1592C254.968 9.85922 255.928 8.43922 257.528 8.43922C259.128 8.43922 260.088 9.85922 260.088 12.1592C260.088 14.4492 259.128 15.8592 257.528 15.8592ZM256.428 12.1592C256.428 12.5892 256.458 12.9592 256.518 13.2692L258.208 10.0792C258.028 9.82922 257.798 9.69922 257.528 9.69922C256.838 9.69922 256.428 10.5192 256.428 12.1592ZM257.528 14.5992C258.218 14.5992 258.628 13.7892 258.628 12.1592C258.628 11.7292 258.598 11.3492 258.538 11.0292L256.848 14.2192C257.028 14.4692 257.258 14.5992 257.528 14.5992Z" fill="black"/>
<path id="377" d="M111.378 63.4608C109.748 63.4608 108.938 62.6308 108.868 61.3408L110.308 61.2708C110.368 61.9608 110.828 62.2008 111.408 62.2008C112.038 62.2008 112.528 61.9008 112.528 61.2008C112.528 60.5208 112.078 60.1608 111.338 60.1608H110.808V59.0308H111.338C111.898 59.0308 112.308 58.7808 112.308 58.1708C112.308 57.5808 111.958 57.2908 111.398 57.2908C110.778 57.2908 110.478 57.6008 110.418 58.0908L108.978 58.0208C109.118 56.8108 109.948 56.0408 111.408 56.0408C112.868 56.0408 113.768 56.7608 113.768 57.9808C113.768 58.7508 113.368 59.2608 112.618 59.5008C113.488 59.7508 113.988 60.4008 113.988 61.3008C113.988 62.6408 112.978 63.4608 111.378 63.4608ZM116.094 63.3008C116.094 61.1508 116.994 59.1908 118.464 57.4808H114.964V56.2008H119.884V57.4108C118.254 59.2708 117.584 60.8608 117.584 63.3008H116.094ZM122.09 63.3008C122.09 61.1508 122.99 59.1908 124.46 57.4808H120.96V56.2008H125.88V57.4108C124.25 59.2708 123.58 60.8608 123.58 63.3008H122.09Z" fill="black"/>
<path id="387" d="M159.645 37.4334C158.015 37.4334 157.205 36.6034 157.135 35.3134L158.575 35.2434C158.635 35.9334 159.095 36.1734 159.675 36.1734C160.305 36.1734 160.795 35.8734 160.795 35.1734C160.795 34.4934 160.345 34.1334 159.605 34.1334H159.075V33.0034H159.605C160.165 33.0034 160.575 32.7534 160.575 32.1434C160.575 31.5534 160.225 31.2634 159.665 31.2634C159.045 31.2634 158.745 31.5734 158.685 32.0634L157.245 31.9934C157.385 30.7834 158.215 30.0134 159.675 30.0134C161.135 30.0134 162.035 30.7334 162.035 31.9534C162.035 32.7234 161.635 33.2334 160.885 33.4734C161.755 33.7234 162.255 34.3734 162.255 35.2734C162.255 36.6134 161.245 37.4334 159.645 37.4334ZM165.691 37.4334C164.121 37.4334 163.071 36.7134 163.071 35.3334C163.071 34.4034 163.611 33.7434 164.481 33.4634C163.811 33.2034 163.361 32.7134 163.361 31.9734C163.361 30.8334 164.291 30.0134 165.691 30.0134C167.091 30.0134 168.021 30.8334 168.021 31.9734C168.021 32.7134 167.571 33.2034 166.891 33.4634C167.771 33.7434 168.311 34.4034 168.311 35.3334C168.311 36.7134 167.261 37.4334 165.691 37.4334ZM165.691 32.8934C166.201 32.8934 166.551 32.6234 166.551 32.0634C166.551 31.5634 166.211 31.2734 165.691 31.2734C165.171 31.2734 164.831 31.5634 164.831 32.0634C164.831 32.6234 165.181 32.8934 165.691 32.8934ZM165.691 36.1734C166.331 36.1734 166.851 35.8934 166.851 35.1934C166.851 34.5234 166.421 34.1034 165.691 34.1034C164.961 34.1034 164.531 34.5234 164.531 35.1934C164.531 35.8934 165.051 36.1734 165.691 36.1734ZM170.357 37.2734C170.357 35.1234 171.257 33.1634 172.727 31.4534H169.227V30.1734H174.147V31.3834C172.517 33.2434 171.847 34.8334 171.847 37.2734H170.357Z" fill="black"/>
<path id="385" d="M389.551 58.4373C387.921 58.4373 387.111 57.6073 387.041 56.3173L388.481 56.2473C388.541 56.9373 389.001 57.1773 389.581 57.1773C390.211 57.1773 390.701 56.8773 390.701 56.1773C390.701 55.4973 390.251 55.1373 389.511 55.1373H388.981V54.0073H389.511C390.071 54.0073 390.481 53.7573 390.481 53.1473C390.481 52.5573 390.131 52.2673 389.571 52.2673C388.951 52.2673 388.651 52.5773 388.591 53.0673L387.151 52.9973C387.291 51.7873 388.121 51.0173 389.581 51.0173C391.041 51.0173 391.941 51.7373 391.941 52.9573C391.941 53.7273 391.541 54.2373 390.791 54.4773C391.661 54.7273 392.161 55.3773 392.161 56.2773C392.161 57.6173 391.151 58.4373 389.551 58.4373ZM395.597 58.4373C394.027 58.4373 392.977 57.7173 392.977 56.3373C392.977 55.4073 393.517 54.7473 394.387 54.4673C393.717 54.2073 393.267 53.7173 393.267 52.9773C393.267 51.8373 394.197 51.0173 395.597 51.0173C396.997 51.0173 397.927 51.8373 397.927 52.9773C397.927 53.7173 397.477 54.2073 396.797 54.4673C397.677 54.7473 398.217 55.4073 398.217 56.3373C398.217 57.7173 397.167 58.4373 395.597 58.4373ZM395.597 53.8973C396.107 53.8973 396.457 53.6273 396.457 53.0673C396.457 52.5673 396.117 52.2773 395.597 52.2773C395.077 52.2773 394.737 52.5673 394.737 53.0673C394.737 53.6273 395.087 53.8973 395.597 53.8973ZM395.597 57.1773C396.237 57.1773 396.757 56.8973 396.757 56.1973C396.757 55.5273 396.327 55.1073 395.597 55.1073C394.867 55.1073 394.437 55.5273 394.437 56.1973C394.437 56.8973 394.957 57.1773 395.597 57.1773ZM401.583 58.4373C400.083 58.4373 399.173 57.5473 399.073 56.3773L400.533 56.2973C400.623 56.8773 400.973 57.1773 401.583 57.1773C402.243 57.1773 402.653 56.7573 402.653 55.9473C402.653 55.1573 402.233 54.6973 401.593 54.6973C401.153 54.6973 400.783 54.9573 400.643 55.3173L399.173 55.2473L399.593 51.1773H403.783V52.4573H400.763L400.583 53.9873C400.913 53.7073 401.353 53.5473 401.833 53.5473C403.243 53.5473 404.113 54.5673 404.113 55.9573C404.113 57.4273 403.113 58.4373 401.583 58.4373Z" fill="black"/>
<path id="395" d="M319.552 28.8592C317.922 28.8592 317.112 28.0292 317.042 26.7392L318.482 26.6692C318.542 27.3592 319.002 27.5992 319.582 27.5992C320.212 27.5992 320.702 27.2992 320.702 26.5992C320.702 25.9192 320.252 25.5592 319.512 25.5592H318.982V24.4292H319.512C320.072 24.4292 320.482 24.1792 320.482 23.5692C320.482 22.9792 320.132 22.6892 319.572 22.6892C318.952 22.6892 318.652 22.9992 318.592 23.4892L317.152 23.4192C317.292 22.2092 318.122 21.4392 319.582 21.4392C321.042 21.4392 321.942 22.1592 321.942 23.3792C321.942 24.1492 321.542 24.6592 320.792 24.8992C321.662 25.1492 322.162 25.7992 322.162 26.6992C322.162 28.0392 321.152 28.8592 319.552 28.8592ZM325.578 21.4392C327.308 21.4392 328.218 22.6092 328.218 24.6692C328.218 27.0192 327.408 28.8592 325.318 28.8592C323.918 28.8592 323.268 28.0992 323.008 27.0792L324.448 26.9792C324.548 27.3392 324.778 27.5992 325.318 27.5992C326.058 27.5992 326.578 27.0892 326.738 25.8692C326.398 26.1692 325.918 26.3892 325.288 26.3892C323.878 26.3892 322.978 25.4392 322.978 24.0092C322.978 22.4292 324.008 21.4392 325.578 21.4392ZM325.608 22.7192C324.858 22.7192 324.438 23.1592 324.438 23.9592C324.438 24.6992 324.818 25.1792 325.548 25.1792C326.288 25.1792 326.758 24.6892 326.758 23.9492C326.758 23.2692 326.338 22.7192 325.608 22.7192ZM331.584 28.8592C330.084 28.8592 329.174 27.9692 329.074 26.7992L330.534 26.7192C330.624 27.2992 330.974 27.5992 331.584 27.5992C332.244 27.5992 332.654 27.1792 332.654 26.3692C332.654 25.5792 332.234 25.1192 331.594 25.1192C331.154 25.1192 330.784 25.3792 330.644 25.7392L329.174 25.6692L329.594 21.5992H333.784V22.8792H330.764L330.584 24.4092C330.914 24.1292 331.354 23.9692 331.834 23.9692C333.244 23.9692 334.114 24.9892 334.114 26.3792C334.114 27.8492 333.114 28.8592 331.584 28.8592Z" fill="black"/>
<path id="320" d="M454.938 188.098C453.308 188.098 452.498 187.267 452.428 185.977L453.868 185.907C453.928 186.597 454.388 186.837 454.968 186.837C455.598 186.837 456.088 186.537 456.088 185.837C456.088 185.157 455.638 184.797 454.898 184.797H454.368V183.667H454.898C455.458 183.667 455.868 183.417 455.868 182.807C455.868 182.217 455.518 181.927 454.958 181.927C454.338 181.927 454.038 182.237 453.978 182.727L452.538 182.658C452.678 181.447 453.508 180.677 454.968 180.677C456.428 180.677 457.328 181.397 457.328 182.617C457.328 183.387 456.928 183.897 456.178 184.137C457.048 184.387 457.548 185.037 457.548 185.937C457.548 187.278 456.538 188.098 454.938 188.098ZM458.424 187.938C458.424 186.207 459.004 185.197 460.984 184.177C461.714 183.797 462.074 183.517 462.074 182.867C462.074 182.297 461.744 181.937 461.114 181.937C460.394 181.937 460.044 182.357 459.924 183.117L458.454 183.027C458.594 181.577 459.504 180.677 461.134 180.677C462.724 180.677 463.544 181.527 463.544 182.787C463.544 183.927 463.054 184.487 461.654 185.247C460.504 185.867 460.094 186.297 460.054 186.657H463.544V187.938H458.424ZM466.98 188.098C465.38 188.098 464.42 186.688 464.42 184.397C464.42 182.097 465.38 180.677 466.98 180.677C468.58 180.677 469.54 182.097 469.54 184.397C469.54 186.688 468.58 188.098 466.98 188.098ZM465.88 184.397C465.88 184.827 465.91 185.197 465.97 185.507L467.66 182.317C467.48 182.067 467.25 181.937 466.98 181.937C466.29 181.937 465.88 182.757 465.88 184.397ZM466.98 186.837C467.67 186.837 468.08 186.027 468.08 184.397C468.08 183.967 468.05 183.587 467.99 183.267L466.3 186.457C466.48 186.707 466.71 186.837 466.98 186.837Z" fill="black"/>
<path id="320_2" d="M36.0344 188.098C34.4044 188.098 33.5944 187.267 33.5244 185.977L34.9644 185.907C35.0244 186.597 35.4844 186.837 36.0644 186.837C36.6944 186.837 37.1844 186.537 37.1844 185.837C37.1844 185.157 36.7344 184.797 35.9944 184.797H35.4644V183.667H35.9944C36.5544 183.667 36.9644 183.417 36.9644 182.807C36.9644 182.217 36.6144 181.927 36.0544 181.927C35.4344 181.927 35.1344 182.237 35.0744 182.727L33.6344 182.658C33.7744 181.447 34.6044 180.677 36.0644 180.677C37.5244 180.677 38.4244 181.397 38.4244 182.617C38.4244 183.387 38.0244 183.897 37.2744 184.137C38.1444 184.387 38.6444 185.037 38.6444 185.937C38.6444 187.278 37.6344 188.098 36.0344 188.098ZM39.5204 187.938C39.5204 186.207 40.1004 185.197 42.0804 184.177C42.8104 183.797 43.1704 183.517 43.1704 182.867C43.1704 182.297 42.8404 181.937 42.2104 181.937C41.4904 181.937 41.1404 182.357 41.0204 183.117L39.5504 183.027C39.6904 181.577 40.6004 180.677 42.2304 180.677C43.8204 180.677 44.6404 181.527 44.6404 182.787C44.6404 183.927 44.1504 184.487 42.7504 185.247C41.6004 185.867 41.1904 186.297 41.1504 186.657H44.6404V187.938H39.5204ZM48.0765 188.098C46.4765 188.098 45.5165 186.688 45.5165 184.397C45.5165 182.097 46.4765 180.677 48.0765 180.677C49.6765 180.677 50.6365 182.097 50.6365 184.397C50.6365 186.688 49.6765 188.098 48.0765 188.098ZM46.9765 184.397C46.9765 184.827 47.0065 185.197 47.0665 185.507L48.7565 182.317C48.5765 182.067 48.3465 181.937 48.0765 181.937C47.3865 181.937 46.9765 182.757 46.9765 184.397ZM48.0765 186.837C48.7665 186.837 49.1765 186.027 49.1765 184.397C49.1765 183.967 49.1465 183.587 49.0865 183.267L47.3965 186.457C47.5765 186.707 47.8065 186.837 48.0765 186.837Z" fill="black"/>
</g>
<g id="field">
<path d="M79.4257 289.721L51.9855 300.664C42.1704 273.379 31.5491 229.889 29.0278 184.166C28.948 182.72 28.8764 181.272 28.8132 179.822C27.9355 159.702 28.6719 139.236 31.775 119.607L54.8365 109.137C58.467 107.489 61.974 105.581 65.3303 103.429L132.044 60.6455C135.751 58.2684 139.641 56.19 143.678 54.4301L194.917 32.0898C199.518 30.0841 204.29 28.4998 209.176 27.3563L234.097 21.5243C245.316 18.8989 256.958 18.638 268.284 20.7583L304.536 27.5453C309.97 28.5626 315.288 30.1203 320.412 32.1951L371.871 53.0306C378.5 55.7151 384.755 59.2452 390.48 63.5333L461.703 116.883C464.064 118.651 466.933 119.607 469.883 119.607C470.442 123.147 470.925 126.715 471.335 130.303C473.588 150.012 473.651 170.332 472.255 190.116C469.186 233.64 459.06 274.565 449.672 300.664L423.296 289.721L307.531 442.036C279.065 479.49 222.705 479.406 194.351 441.868L79.4257 289.721Z" fill="#00385D" fill-opacity="0.1"/>
<path d="M30.3222 130.303C23.1134 193.372 38.3297 262.702 51.9855 300.664L79.4257 289.721L194.351 441.868C222.705 479.406 279.065 479.49 307.531 442.036L423.296 289.721L449.672 300.664C463.328 262.702 478.544 193.372 471.335 130.303M51.9856 300.666C37.5529 260.543 21.377 185.382 31.775 119.607L54.8365 109.137C58.467 107.489 61.974 105.581 65.3303 103.429L132.044 60.6455C135.751 58.2684 139.641 56.19 143.678 54.4301L194.917 32.0898C199.518 30.0841 204.29 28.4998 209.176 27.3563L234.097 21.5243C245.316 18.8989 256.958 18.638 268.284 20.7583L304.536 27.5453C309.97 28.5626 315.288 30.1203 320.412 32.1951L371.871 53.0306C378.5 55.7151 384.755 59.2452 390.48 63.5333L461.703 116.883C464.064 118.651 466.933 119.607 469.883 119.607C480.281 185.382 464.105 260.543 449.672 300.666" fill="none" stroke="#00385D" stroke-width="1.002"/>
</g>
</g>
<defs>
<clipPath id="clip0_123_6343">
<rect width="500" height="469.94" fill="white"/>
</clipPath>
</defs>
</svg>
