<svg width="500" height="470" viewBox="0 0 500 470" fill="none" xmlns="http://www.w3.org/2000/svg">
<g id="colt-stadium-1962" clip-path="url(#clip0_95_2633)">
<g id="Infield">
<path d="M339.98 327.766C339.453 325.666 322.032 258.479 250.83 258.479C180.238 258.479 162.505 324.538 161.697 327.699C161.677 327.776 161.668 327.816 161.668 327.816L236.504 402.653C235.305 404.912 234.623 407.489 234.623 410.238C234.623 419.186 241.873 426.445 250.83 426.445C259.778 426.445 267.037 419.186 267.037 410.238C267.037 407.489 266.356 404.912 265.156 402.657L260.695 397.375C257.96 395.278 254.544 394.026 250.83 394.026C247.117 394.026 243.701 395.278 240.971 397.37L197.7 354.1C201.448 350.353 201.448 344.277 197.7 340.53C197.698 340.527 197.694 340.525 197.691 340.522L244.055 294.038C247.8 297.773 253.861 297.773 257.606 294.038L303.431 339.984C303.431 339.984 303.427 339.985 303.424 339.988C299.677 343.736 300.275 350.3 304.022 354.047L260.695 397.375L265.156 402.657L339.98 327.766Z" fill="#D2D2D2"/>
<path d="M259.91 345.706C259.91 350.721 255.845 354.787 250.83 354.787C245.815 354.787 241.75 350.721 241.75 345.706C241.75 340.691 245.815 336.626 250.83 336.626C255.845 336.626 259.91 340.691 259.91 345.706Z" fill="#D2D2D2"/>
</g>
<g id="Guides">
<g id="Home">
<circle id="Ellipse 1" cx="250.827" cy="410.419" r="16.0848" fill="#D2D2D2"/>
<circle id="Ellipse 1_2" cx="250.827" cy="410.418" r="1.62919" fill="black"/>
</g>
<g id="First">
<circle id="Ellipse 1_3" cx="311.125" cy="346.532" r="10.1878" fill="#D2D2D2"/>
<circle id="Ellipse 1_4" cx="311.125" cy="346.532" r="1.0319" fill="black"/>
</g>
<g id="Third">
<circle id="Ellipse 1_5" cx="190.34" cy="346.532" r="10.1878" fill="#D2D2D2"/>
<circle id="Ellipse 1_6" cx="190.34" cy="346.532" r="1.0319" fill="black"/>
</g>
<g id="Second">
<circle id="Ellipse 1_7" cx="250.827" cy="286.67" r="10.1878" fill="#D2D2D2"/>
<circle id="Ellipse 1_8" cx="250.827" cy="286.671" r="1.0319" fill="black"/>
</g>
<g id="Mound">
<circle id="Ellipse 1_9" cx="250.827" cy="345.929" r="9.08365" fill="#D2D2D2"/>
<circle id="Ellipse 1_10" cx="250.827" cy="345.93" r="0.920062" fill="black"/>
</g>
</g>
<path id="Foul Lines" d="M499.464 162.028L250.976 410.517L2.07849 161.619" fill="none" stroke="black" stroke-width="1.002"/>
<g id="Measurements">
<path id="395" d="M96.9901 50.2049C95.3601 50.2049 94.5501 49.3749 94.4801 48.0849L95.9201 48.0149C95.9801 48.7049 96.4401 48.9449 97.0201 48.9449C97.6501 48.9449 98.1401 48.6449 98.1401 47.9449C98.1401 47.2649 97.6901 46.9049 96.9501 46.9049H96.4201V45.7749H96.9501C97.5101 45.7749 97.9201 45.5249 97.9201 44.9149C97.9201 44.3249 97.5701 44.0349 97.0101 44.0349C96.3901 44.0349 96.0901 44.3449 96.0301 44.8349L94.5901 44.7649C94.7301 43.5549 95.5601 42.7849 97.0201 42.7849C98.4801 42.7849 99.3801 43.5049 99.3801 44.7249C99.3801 45.4949 98.9801 46.0049 98.2301 46.2449C99.1001 46.4949 99.6001 47.1449 99.6001 48.0449C99.6001 49.3849 98.5901 50.2049 96.9901 50.2049ZM103.016 42.7849C104.746 42.7849 105.656 43.9549 105.656 46.0149C105.656 48.3649 104.846 50.2049 102.756 50.2049C101.356 50.2049 100.706 49.4449 100.446 48.4249L101.886 48.3249C101.986 48.6849 102.216 48.9449 102.756 48.9449C103.496 48.9449 104.016 48.4349 104.176 47.2149C103.836 47.5149 103.356 47.7349 102.726 47.7349C101.316 47.7349 100.416 46.7849 100.416 45.3549C100.416 43.7749 101.446 42.7849 103.016 42.7849ZM103.046 44.0649C102.296 44.0649 101.876 44.5049 101.876 45.3049C101.876 46.0449 102.256 46.5249 102.986 46.5249C103.726 46.5249 104.196 46.0349 104.196 45.2949C104.196 44.6149 103.776 44.0649 103.046 44.0649ZM109.022 50.2049C107.522 50.2049 106.612 49.3149 106.512 48.1449L107.972 48.0649C108.062 48.6449 108.412 48.9449 109.022 48.9449C109.682 48.9449 110.092 48.5249 110.092 47.7149C110.092 46.9249 109.672 46.4649 109.032 46.4649C108.592 46.4649 108.222 46.7249 108.082 47.0849L106.612 47.0149L107.032 42.9449H111.222V44.2249H108.202L108.022 45.7549C108.352 45.4749 108.792 45.3149 109.272 45.3149C110.682 45.3149 111.552 46.3349 111.552 47.7249C111.552 49.1949 110.552 50.2049 109.022 50.2049Z" fill="black"/>
<path id="395_2" d="M392.57 50.2049C390.94 50.2049 390.13 49.3749 390.06 48.0849L391.5 48.0149C391.56 48.7049 392.02 48.9449 392.6 48.9449C393.23 48.9449 393.72 48.6449 393.72 47.9449C393.72 47.2649 393.27 46.9049 392.53 46.9049H392V45.7749H392.53C393.09 45.7749 393.5 45.5249 393.5 44.9149C393.5 44.3249 393.15 44.0349 392.59 44.0349C391.97 44.0349 391.67 44.3449 391.61 44.8349L390.17 44.7649C390.31 43.5549 391.14 42.7849 392.6 42.7849C394.06 42.7849 394.96 43.5049 394.96 44.7249C394.96 45.4949 394.56 46.0049 393.81 46.2449C394.68 46.4949 395.18 47.1449 395.18 48.0449C395.18 49.3849 394.17 50.2049 392.57 50.2049ZM398.596 42.7849C400.326 42.7849 401.236 43.9549 401.236 46.0149C401.236 48.3649 400.426 50.2049 398.336 50.2049C396.936 50.2049 396.286 49.4449 396.026 48.4249L397.466 48.3249C397.566 48.6849 397.796 48.9449 398.336 48.9449C399.076 48.9449 399.596 48.4349 399.756 47.2149C399.416 47.5149 398.936 47.7349 398.306 47.7349C396.896 47.7349 395.996 46.7849 395.996 45.3549C395.996 43.7749 397.026 42.7849 398.596 42.7849ZM398.626 44.0649C397.876 44.0649 397.456 44.5049 397.456 45.3049C397.456 46.0449 397.836 46.5249 398.566 46.5249C399.306 46.5249 399.776 46.0349 399.776 45.2949C399.776 44.6149 399.356 44.0649 398.626 44.0649ZM404.602 50.2049C403.102 50.2049 402.192 49.3149 402.092 48.1449L403.552 48.0649C403.642 48.6449 403.992 48.9449 404.602 48.9449C405.262 48.9449 405.672 48.5249 405.672 47.7149C405.672 46.9249 405.252 46.4649 404.612 46.4649C404.172 46.4649 403.802 46.7249 403.662 47.0849L402.192 47.0149L402.612 42.9449H406.802V44.2249H403.782L403.602 45.7549C403.932 45.4749 404.372 45.3149 404.852 45.3149C406.262 45.3149 407.132 46.3349 407.132 47.7249C407.132 49.1949 406.132 50.2049 404.602 50.2049Z" fill="black"/>
<path id="360" d="M475.938 164.098C474.308 164.098 473.498 163.267 473.428 161.977L474.868 161.907C474.928 162.597 475.388 162.837 475.968 162.837C476.598 162.837 477.088 162.537 477.088 161.837C477.088 161.157 476.638 160.797 475.898 160.797H475.368V159.667H475.898C476.458 159.667 476.868 159.417 476.868 158.807C476.868 158.217 476.518 157.927 475.958 157.927C475.338 157.927 475.038 158.237 474.978 158.727L473.538 158.658C473.678 157.447 474.508 156.677 475.968 156.677C477.428 156.677 478.328 157.397 478.328 158.617C478.328 159.387 477.928 159.897 477.178 160.137C478.048 160.387 478.548 161.037 478.548 161.937C478.548 163.278 477.538 164.098 475.938 164.098ZM482.004 164.098C480.274 164.098 479.364 162.927 479.364 160.867C479.364 158.517 480.174 156.677 482.264 156.677C483.664 156.677 484.314 157.437 484.574 158.457L483.134 158.557C483.034 158.197 482.804 157.937 482.264 157.937C481.524 157.937 481.004 158.447 480.844 159.667C481.184 159.367 481.664 159.147 482.294 159.147C483.704 159.147 484.604 160.097 484.604 161.527C484.604 163.107 483.574 164.098 482.004 164.098ZM481.974 162.817C482.724 162.817 483.144 162.377 483.144 161.577C483.144 160.837 482.764 160.357 482.034 160.357C481.294 160.357 480.824 160.847 480.824 161.587C480.824 162.267 481.244 162.817 481.974 162.817ZM487.98 164.098C486.38 164.098 485.42 162.688 485.42 160.397C485.42 158.097 486.38 156.677 487.98 156.677C489.58 156.677 490.54 158.097 490.54 160.397C490.54 162.688 489.58 164.098 487.98 164.098ZM486.88 160.397C486.88 160.827 486.91 161.197 486.97 161.507L488.66 158.317C488.48 158.067 488.25 157.937 487.98 157.937C487.29 157.937 486.88 158.757 486.88 160.397ZM487.98 162.837C488.67 162.837 489.08 162.027 489.08 160.397C489.08 159.967 489.05 159.587 488.99 159.267L487.3 162.457C487.48 162.707 487.71 162.837 487.98 162.837Z" fill="black"/>
<path id="360_2" d="M12.5783 164.098C10.9483 164.098 10.1383 163.267 10.0683 161.977L11.5083 161.907C11.5683 162.597 12.0283 162.837 12.6083 162.837C13.2383 162.837 13.7283 162.537 13.7283 161.837C13.7283 161.157 13.2783 160.797 12.5383 160.797H12.0083V159.667H12.5383C13.0983 159.667 13.5083 159.417 13.5083 158.807C13.5083 158.217 13.1583 157.927 12.5983 157.927C11.9783 157.927 11.6783 158.237 11.6183 158.727L10.1783 158.658C10.3183 157.447 11.1483 156.677 12.6083 156.677C14.0683 156.677 14.9683 157.397 14.9683 158.617C14.9683 159.387 14.5683 159.897 13.8183 160.137C14.6883 160.387 15.1883 161.037 15.1883 161.937C15.1883 163.278 14.1783 164.098 12.5783 164.098ZM18.6444 164.098C16.9144 164.098 16.0044 162.927 16.0044 160.867C16.0044 158.517 16.8144 156.677 18.9044 156.677C20.3044 156.677 20.9544 157.437 21.2144 158.457L19.7744 158.557C19.6744 158.197 19.4444 157.937 18.9044 157.937C18.1644 157.937 17.6444 158.447 17.4844 159.667C17.8244 159.367 18.3044 159.147 18.9344 159.147C20.3444 159.147 21.2444 160.097 21.2444 161.527C21.2444 163.107 20.2144 164.098 18.6444 164.098ZM18.6144 162.817C19.3644 162.817 19.7844 162.377 19.7844 161.577C19.7844 160.837 19.4044 160.357 18.6744 160.357C17.9344 160.357 17.4644 160.847 17.4644 161.587C17.4644 162.267 17.8844 162.817 18.6144 162.817ZM24.6205 164.098C23.0205 164.098 22.0605 162.688 22.0605 160.397C22.0605 158.097 23.0205 156.677 24.6205 156.677C26.2205 156.677 27.1805 158.097 27.1805 160.397C27.1805 162.688 26.2205 164.098 24.6205 164.098ZM23.5205 160.397C23.5205 160.827 23.5505 161.197 23.6105 161.507L25.3005 158.317C25.1205 158.067 24.8905 157.937 24.6205 157.937C23.9305 157.937 23.5205 158.757 23.5205 160.397ZM24.6205 162.837C25.3105 162.837 25.7205 162.027 25.7205 160.397C25.7205 159.967 25.6905 159.587 25.6305 159.267L23.9405 162.457C24.1205 162.707 24.3505 162.837 24.6205 162.837Z" fill="black"/>
</g>
<path id="field" d="M-0.593567 164.627L165.05 -1.64258H336.73L502.514 164.627L327.712 441.952L290.255 470.739H210.831L174.068 441.952L-0.593567 164.627Z" fill="#002D62" fill-opacity="0.1" fill="none" stroke="#002D62" stroke-width="1.002"/>
</g>
<defs>
<clipPath id="clip0_95_2633">
<rect width="500" height="469.94" fill="white"/>
</clipPath>
</defs>
</svg>
