<svg width="500" height="470" viewBox="0 0 500 470" fill="none" xmlns="http://www.w3.org/2000/svg">
<g id="comerica-park-2014" clip-path="url(#clip0_92_2398)">
<g id="Infield">
<path d="M339.98 327.548C339.453 325.449 322.032 258.261 250.83 258.261C180.238 258.261 162.505 324.32 161.697 327.481C161.677 327.559 161.668 327.599 161.668 327.599L236.504 402.435C235.305 404.694 234.623 407.271 234.623 410.02C234.623 418.968 241.873 426.227 250.83 426.227C259.778 426.227 267.037 418.968 267.037 410.02C267.037 407.271 266.356 404.694 265.157 402.44L260.695 397.157C257.96 395.06 254.544 393.808 250.83 393.808C247.117 393.808 243.701 395.06 240.971 397.152L197.7 353.882C201.448 350.135 201.448 344.059 197.7 340.312C197.698 340.309 197.694 340.307 197.691 340.304L244.055 293.82C247.8 297.556 253.861 297.556 257.606 293.82L303.431 339.766C303.431 339.766 303.427 339.768 303.424 339.771C299.677 343.518 300.275 350.082 304.022 353.829L260.695 397.157L265.157 402.44L339.98 327.548Z" fill="#D2D2D2"/>
<path d="M259.91 345.488C259.91 350.503 255.845 354.569 250.83 354.569C245.815 354.569 241.75 350.503 241.75 345.488C241.75 340.474 245.815 336.408 250.83 336.408C255.845 336.408 259.91 340.474 259.91 345.488Z" fill="#D2D2D2"/>
</g>
<g id="Guides">
<g id="Home">
<circle id="Ellipse 1" cx="250.827" cy="410.203" r="16.0848" fill="#D2D2D2"/>
<circle id="Ellipse 1_2" cx="250.827" cy="410.203" r="1.62919" fill="black"/>
</g>
<g id="First">
<circle id="Ellipse 1_3" cx="311.125" cy="346.315" r="10.1878" fill="#D2D2D2"/>
<circle id="Ellipse 1_4" cx="311.125" cy="346.315" r="1.0319" fill="black"/>
</g>
<g id="Third">
<circle id="Ellipse 1_5" cx="190.34" cy="346.315" r="10.1878" fill="#D2D2D2"/>
<circle id="Ellipse 1_6" cx="190.34" cy="346.315" r="1.0319" fill="black"/>
</g>
<g id="Second">
<circle id="Ellipse 1_7" cx="250.827" cy="286.453" r="10.1878" fill="#D2D2D2"/>
<circle id="Ellipse 1_8" cx="250.827" cy="286.454" r="1.0319" fill="black"/>
</g>
<g id="Mound">
<circle id="Ellipse 1_9" cx="250.827" cy="345.712" r="9.08365" fill="#D2D2D2"/>
<circle id="Ellipse 1_10" cx="250.827" cy="345.712" r="0.920062" fill="black"/>
</g>
</g>
<path id="Foul Lines" d="M478.974 182.301L250.976 410.299L14.2265 173.55" fill="none" stroke="black" stroke-width="1.002"/>
<g id="Measurements">
<path id="412" d="M242.758 4.48242V3.06242H239.588V1.89242L242.568 -2.61758H244.188V1.82242H245.028V3.06242H244.188V4.48242H242.758ZM240.928 1.82242H242.758V-0.827578L240.928 1.82242ZM245.784 4.48242V3.20242H247.824V-0.177578H246.084V-1.35758H246.864C247.664 -1.35758 248.004 -1.69758 248.004 -2.61758H249.244V3.20242H250.824V4.48242H245.784ZM251.74 4.48242C251.74 2.75242 252.32 1.74242 254.3 0.722422C255.03 0.342422 255.39 0.0624216 255.39 -0.587578C255.39 -1.15758 255.06 -1.51758 254.43 -1.51758C253.71 -1.51758 253.36 -1.09758 253.24 -0.337578L251.77 -0.427578C251.91 -1.87758 252.82 -2.77758 254.45 -2.77758C256.04 -2.77758 256.86 -1.92758 256.86 -0.667579C256.86 0.472422 256.37 1.03242 254.97 1.79242C253.82 2.41242 253.41 2.84242 253.37 3.20242H256.86V4.48242H251.74Z" fill="black"/>
<path id="365" d="M395.696 86.9871C394.066 86.9871 393.256 86.1571 393.186 84.8671L394.626 84.7971C394.686 85.4871 395.146 85.7271 395.726 85.7271C396.356 85.7271 396.846 85.4271 396.846 84.7271C396.846 84.0471 396.396 83.6871 395.656 83.6871H395.126V82.5571H395.656C396.216 82.5571 396.626 82.3071 396.626 81.6971C396.626 81.1071 396.276 80.8171 395.716 80.8171C395.096 80.8171 394.796 81.1271 394.736 81.6171L393.296 81.5471C393.436 80.3371 394.266 79.5671 395.726 79.5671C397.186 79.5671 398.086 80.2871 398.086 81.5071C398.086 82.2771 397.686 82.7871 396.936 83.0271C397.806 83.2771 398.306 83.9271 398.306 84.8271C398.306 86.1671 397.296 86.9871 395.696 86.9871ZM401.762 86.9871C400.032 86.9871 399.122 85.8171 399.122 83.7571C399.122 81.4071 399.932 79.5671 402.022 79.5671C403.422 79.5671 404.072 80.3271 404.332 81.3471L402.892 81.4471C402.792 81.0871 402.562 80.8271 402.022 80.8271C401.282 80.8271 400.762 81.3371 400.602 82.5571C400.942 82.2571 401.422 82.0371 402.052 82.0371C403.462 82.0371 404.362 82.9871 404.362 84.4171C404.362 85.9971 403.332 86.9871 401.762 86.9871ZM401.732 85.7071C402.482 85.7071 402.902 85.2671 402.902 84.4671C402.902 83.7271 402.522 83.2471 401.792 83.2471C401.052 83.2471 400.582 83.7371 400.582 84.4771C400.582 85.1571 401.002 85.7071 401.732 85.7071ZM407.728 86.9871C406.228 86.9871 405.318 86.0971 405.218 84.9271L406.678 84.8471C406.768 85.4271 407.118 85.7271 407.728 85.7271C408.388 85.7271 408.798 85.3071 408.798 84.4971C408.798 83.7071 408.378 83.2471 407.738 83.2471C407.298 83.2471 406.928 83.5071 406.788 83.8671L405.318 83.7971L405.738 79.7271H409.928V81.0071H406.908L406.728 82.5371C407.058 82.2571 407.498 82.0971 407.978 82.0971C409.388 82.0971 410.258 83.1171 410.258 84.5071C410.258 85.9771 409.258 86.9871 407.728 86.9871Z" fill="black"/>
<path id="370" d="M84.6425 86.9871C83.0125 86.9871 82.2025 86.1571 82.1325 84.8671L83.5725 84.7971C83.6325 85.4871 84.0925 85.7271 84.6725 85.7271C85.3025 85.7271 85.7925 85.4271 85.7925 84.7271C85.7925 84.0471 85.3425 83.6871 84.6025 83.6871H84.0725V82.5571H84.6025C85.1625 82.5571 85.5725 82.3071 85.5725 81.6971C85.5725 81.1071 85.2225 80.8171 84.6625 80.8171C84.0425 80.8171 83.7425 81.1271 83.6825 81.6171L82.2425 81.5471C82.3825 80.3371 83.2125 79.5671 84.6725 79.5671C86.1325 79.5671 87.0325 80.2871 87.0325 81.5071C87.0325 82.2771 86.6325 82.7871 85.8825 83.0271C86.7525 83.2771 87.2525 83.9271 87.2525 84.8271C87.2525 86.1671 86.2425 86.9871 84.6425 86.9871ZM89.3586 86.8271C89.3586 84.6771 90.2586 82.7171 91.7286 81.0071H88.2286V79.7271H93.1486V80.9371C91.5186 82.7971 90.8486 84.3871 90.8486 86.8271H89.3586ZM96.6847 86.9871C95.0847 86.9871 94.1247 85.5771 94.1247 83.2871C94.1247 80.9871 95.0847 79.5671 96.6847 79.5671C98.2847 79.5671 99.2447 80.9871 99.2447 83.2871C99.2447 85.5771 98.2847 86.9871 96.6847 86.9871ZM95.5847 83.2871C95.5847 83.7171 95.6147 84.0871 95.6747 84.3971L97.3647 81.2071C97.1847 80.9571 96.9547 80.8271 96.6847 80.8271C95.9947 80.8271 95.5847 81.6471 95.5847 83.2871ZM96.6847 85.7271C97.3747 85.7271 97.7847 84.9171 97.7847 83.2871C97.7847 82.8571 97.7547 82.4771 97.6947 82.1571L96.0047 85.3471C96.1847 85.5971 96.4147 85.7271 96.6847 85.7271Z" fill="black"/>
<path id="330" d="M458.938 183.882C457.308 183.882 456.498 183.052 456.428 181.762L457.868 181.692C457.928 182.382 458.388 182.622 458.968 182.622C459.598 182.622 460.088 182.322 460.088 181.622C460.088 180.942 459.638 180.582 458.898 180.582H458.368V179.452H458.898C459.458 179.452 459.868 179.202 459.868 178.592C459.868 178.002 459.518 177.712 458.958 177.712C458.338 177.712 458.038 178.022 457.978 178.512L456.538 178.442C456.678 177.232 457.508 176.462 458.968 176.462C460.428 176.462 461.328 177.182 461.328 178.402C461.328 179.172 460.928 179.682 460.178 179.922C461.048 180.172 461.548 180.822 461.548 181.722C461.548 183.062 460.538 183.882 458.938 183.882ZM464.934 183.882C463.304 183.882 462.494 183.052 462.424 181.762L463.864 181.692C463.924 182.382 464.384 182.622 464.964 182.622C465.594 182.622 466.084 182.322 466.084 181.622C466.084 180.942 465.634 180.582 464.894 180.582H464.364V179.452H464.894C465.454 179.452 465.864 179.202 465.864 178.592C465.864 178.002 465.514 177.712 464.954 177.712C464.334 177.712 464.034 178.022 463.974 178.512L462.534 178.442C462.674 177.232 463.504 176.462 464.964 176.462C466.424 176.462 467.324 177.182 467.324 178.402C467.324 179.172 466.924 179.682 466.174 179.922C467.044 180.172 467.544 180.822 467.544 181.722C467.544 183.062 466.534 183.882 464.934 183.882ZM470.98 183.882C469.38 183.882 468.42 182.472 468.42 180.182C468.42 177.882 469.38 176.462 470.98 176.462C472.58 176.462 473.54 177.882 473.54 180.182C473.54 182.472 472.58 183.882 470.98 183.882ZM469.88 180.182C469.88 180.612 469.91 180.982 469.97 181.292L471.66 178.102C471.48 177.852 471.25 177.722 470.98 177.722C470.29 177.722 469.88 178.542 469.88 180.182ZM470.98 182.622C471.67 182.622 472.08 181.812 472.08 180.182C472.08 179.752 472.05 179.372 471.99 179.052L470.3 182.242C470.48 182.492 470.71 182.622 470.98 182.622Z" fill="black"/>
<path id="342" d="M22.6636 176.445C21.0336 176.445 20.2236 175.615 20.1536 174.325L21.5936 174.255C21.6536 174.945 22.1136 175.185 22.6936 175.185C23.3236 175.185 23.8136 174.885 23.8136 174.185C23.8136 173.505 23.3636 173.145 22.6236 173.145H22.0936V172.015H22.6236C23.1836 172.015 23.5936 171.765 23.5936 171.155C23.5936 170.565 23.2436 170.275 22.6836 170.275C22.0636 170.275 21.7636 170.585 21.7036 171.075L20.2636 171.005C20.4036 169.795 21.2336 169.025 22.6936 169.025C24.1536 169.025 25.0536 169.745 25.0536 170.965C25.0536 171.735 24.6536 172.245 23.9036 172.485C24.7736 172.735 25.2736 173.385 25.2736 174.285C25.2736 175.625 24.2636 176.445 22.6636 176.445ZM29.1597 176.285V174.865H25.9897V173.695L28.9697 169.185H30.5897V173.625H31.4297V174.865H30.5897V176.285H29.1597ZM27.3297 173.625H29.1597V170.975L27.3297 173.625ZM32.1458 176.285C32.1458 174.555 32.7258 173.545 34.7058 172.525C35.4358 172.145 35.7958 171.865 35.7958 171.215C35.7958 170.645 35.4658 170.285 34.8358 170.285C34.1158 170.285 33.7658 170.705 33.6458 171.465L32.1758 171.375C32.3158 169.925 33.2258 169.025 34.8558 169.025C36.4458 169.025 37.2658 169.875 37.2658 171.135C37.2658 172.275 36.7758 172.835 35.3758 173.595C34.2258 174.215 33.8158 174.645 33.7758 175.005H37.2658V176.285H32.1458Z" fill="black"/>
</g>
<path id="field" d="M12.895 175.444L165.545 22.1283C174.741 12.8929 187.236 7.70116 200.269 7.70117L301.999 7.70124C314.749 7.70125 326.997 12.6707 336.142 21.5546L387.647 71.5883L389.823 88.683L478.921 177.567V195.816L435.338 239.399V270.315L364.703 372.5L285.425 451.723C266.308 470.826 235.334 470.845 216.194 451.764L136.686 372.5L49.0787 232.729V224.128L12.895 187.997L12.895 175.444Z" fill="#FA4616" fill-opacity="0.1" fill="none" stroke="#FA4616" stroke-width="1.002"/>
</g>
<defs>
<clipPath id="clip0_92_2398">
<rect width="500" height="469.94" fill="white"/>
</clipPath>
</defs>
</svg>
