<svg width="500" height="470" viewBox="0 0 500 470" fill="none" xmlns="http://www.w3.org/2000/svg">
<g id="comerica-park-2000" clip-path="url(#clip0_92_2371)">
<g id="Infield">
<path d="M339.98 327.548C339.453 325.449 322.032 258.261 250.83 258.261C180.238 258.261 162.505 324.32 161.697 327.481C161.677 327.559 161.668 327.599 161.668 327.599L236.504 402.435C235.305 404.694 234.623 407.271 234.623 410.02C234.623 418.968 241.873 426.227 250.83 426.227C259.778 426.227 267.037 418.968 267.037 410.02C267.037 407.271 266.356 404.694 265.157 402.44L260.695 397.157C257.96 395.06 254.544 393.808 250.83 393.808C247.117 393.808 243.701 395.06 240.971 397.152L197.7 353.882C201.448 350.135 201.448 344.059 197.7 340.312C197.698 340.309 197.694 340.307 197.691 340.304L244.055 293.82C247.8 297.556 253.861 297.556 257.606 293.82L303.431 339.766C303.431 339.766 303.427 339.768 303.424 339.771C299.677 343.518 300.275 350.082 304.022 353.829L260.695 397.157L265.157 402.44L339.98 327.548Z" fill="#D2D2D2"/>
<path d="M259.91 345.488C259.91 350.503 255.845 354.569 250.83 354.569C245.815 354.569 241.75 350.503 241.75 345.488C241.75 340.474 245.815 336.408 250.83 336.408C255.845 336.408 259.91 340.474 259.91 345.488Z" fill="#D2D2D2"/>
</g>
<g id="Guides">
<g id="Home">
<circle id="Ellipse 1" cx="250.827" cy="410.203" r="16.0848" fill="#D2D2D2"/>
<circle id="Ellipse 1_2" cx="250.827" cy="410.203" r="1.62919" fill="black"/>
</g>
<g id="First">
<circle id="Ellipse 1_3" cx="311.125" cy="346.315" r="10.1878" fill="#D2D2D2"/>
<circle id="Ellipse 1_4" cx="311.125" cy="346.315" r="1.0319" fill="black"/>
</g>
<g id="Third">
<circle id="Ellipse 1_5" cx="190.34" cy="346.315" r="10.1878" fill="#D2D2D2"/>
<circle id="Ellipse 1_6" cx="190.34" cy="346.315" r="1.0319" fill="black"/>
</g>
<g id="Second">
<circle id="Ellipse 1_7" cx="250.827" cy="286.453" r="10.1878" fill="#D2D2D2"/>
<circle id="Ellipse 1_8" cx="250.827" cy="286.454" r="1.0319" fill="black"/>
</g>
<g id="Mound">
<circle id="Ellipse 1_9" cx="250.827" cy="345.712" r="9.08365" fill="#D2D2D2"/>
<circle id="Ellipse 1_10" cx="250.827" cy="345.712" r="0.920062" fill="black"/>
</g>
</g>
<path id="Foul Lines" d="M478.974 182.301L250.976 410.299L11.8898 171.213" fill="none" stroke="black" stroke-width="1.002"/>
<g id="Measurements">
<path id="420" d="M242.758 4.48242V3.06242H239.588V1.89242L242.568 -2.61758H244.188V1.82242H245.028V3.06242H244.188V4.48242H242.758ZM240.928 1.82242H242.758V-0.827578L240.928 1.82242ZM245.744 4.48242C245.744 2.75242 246.324 1.74242 248.304 0.722422C249.034 0.342422 249.394 0.0624216 249.394 -0.587578C249.394 -1.15758 249.064 -1.51758 248.434 -1.51758C247.714 -1.51758 247.364 -1.09758 247.244 -0.337578L245.774 -0.427578C245.914 -1.87758 246.824 -2.77758 248.454 -2.77758C250.044 -2.77758 250.864 -1.92758 250.864 -0.667579C250.864 0.472422 250.374 1.03242 248.974 1.79242C247.824 2.41242 247.414 2.84242 247.374 3.20242H250.864V4.48242H245.744ZM254.3 4.64242C252.7 4.64242 251.74 3.23242 251.74 0.942422C251.74 -1.35758 252.7 -2.77758 254.3 -2.77758C255.9 -2.77758 256.86 -1.35758 256.86 0.942422C256.86 3.23242 255.9 4.64242 254.3 4.64242ZM253.2 0.942422C253.2 1.37242 253.23 1.74242 253.29 2.05242L254.98 -1.13758C254.8 -1.38758 254.57 -1.51758 254.3 -1.51758C253.61 -1.51758 253.2 -0.697578 253.2 0.942422ZM254.3 3.38242C254.99 3.38242 255.4 2.57242 255.4 0.942422C255.4 0.512422 255.37 0.132422 255.31 -0.187578L253.62 3.00242C253.8 3.25242 254.03 3.38242 254.3 3.38242Z" fill="black"/>
<path id="365" d="M395.696 86.9871C394.066 86.9871 393.256 86.1571 393.186 84.8671L394.626 84.7971C394.686 85.4871 395.146 85.7271 395.726 85.7271C396.356 85.7271 396.846 85.4271 396.846 84.7271C396.846 84.0471 396.396 83.6871 395.656 83.6871H395.126V82.5571H395.656C396.216 82.5571 396.626 82.3071 396.626 81.6971C396.626 81.1071 396.276 80.8171 395.716 80.8171C395.096 80.8171 394.796 81.1271 394.736 81.6171L393.296 81.5471C393.436 80.3371 394.266 79.5671 395.726 79.5671C397.186 79.5671 398.086 80.2871 398.086 81.5071C398.086 82.2771 397.686 82.7871 396.936 83.0271C397.806 83.2771 398.306 83.9271 398.306 84.8271C398.306 86.1671 397.296 86.9871 395.696 86.9871ZM401.762 86.9871C400.032 86.9871 399.122 85.8171 399.122 83.7571C399.122 81.4071 399.932 79.5671 402.022 79.5671C403.422 79.5671 404.072 80.3271 404.332 81.3471L402.892 81.4471C402.792 81.0871 402.562 80.8271 402.022 80.8271C401.282 80.8271 400.762 81.3371 400.602 82.5571C400.942 82.2571 401.422 82.0371 402.052 82.0371C403.462 82.0371 404.362 82.9871 404.362 84.4171C404.362 85.9971 403.332 86.9871 401.762 86.9871ZM401.732 85.7071C402.482 85.7071 402.902 85.2671 402.902 84.4671C402.902 83.7271 402.522 83.2471 401.792 83.2471C401.052 83.2471 400.582 83.7371 400.582 84.4771C400.582 85.1571 401.002 85.7071 401.732 85.7071ZM407.728 86.9871C406.228 86.9871 405.318 86.0971 405.218 84.9271L406.678 84.8471C406.768 85.4271 407.118 85.7271 407.728 85.7271C408.388 85.7271 408.798 85.3071 408.798 84.4971C408.798 83.7071 408.378 83.2471 407.738 83.2471C407.298 83.2471 406.928 83.5071 406.788 83.8671L405.318 83.7971L405.738 79.7271H409.928V81.0071H406.908L406.728 82.5371C407.058 82.2571 407.498 82.0971 407.978 82.0971C409.388 82.0971 410.258 83.1171 410.258 84.5071C410.258 85.9771 409.258 86.9871 407.728 86.9871Z" fill="black"/>
<path id="395" d="M70.9901 61.9871C69.3601 61.9871 68.5501 61.1571 68.4801 59.8671L69.9201 59.7971C69.9801 60.4871 70.4401 60.7271 71.0201 60.7271C71.6501 60.7271 72.1401 60.4271 72.1401 59.7271C72.1401 59.0471 71.6901 58.6871 70.9501 58.6871H70.4201V57.5571H70.9501C71.5101 57.5571 71.9201 57.3071 71.9201 56.6971C71.9201 56.1071 71.5701 55.8171 71.0101 55.8171C70.3901 55.8171 70.0901 56.1271 70.0301 56.6171L68.5901 56.5471C68.7301 55.3371 69.5601 54.5671 71.0201 54.5671C72.4801 54.5671 73.3801 55.2871 73.3801 56.5071C73.3801 57.2771 72.9801 57.7871 72.2301 58.0271C73.1001 58.2771 73.6001 58.9271 73.6001 59.8271C73.6001 61.1671 72.5901 61.9871 70.9901 61.9871ZM77.0162 54.5671C78.7462 54.5671 79.6562 55.7371 79.6562 57.7971C79.6562 60.1471 78.8462 61.9871 76.7562 61.9871C75.3562 61.9871 74.7062 61.2271 74.4462 60.2071L75.8862 60.1071C75.9862 60.4671 76.2162 60.7271 76.7562 60.7271C77.4962 60.7271 78.0162 60.2171 78.1762 58.9971C77.8362 59.2971 77.3562 59.5171 76.7262 59.5171C75.3162 59.5171 74.4162 58.5671 74.4162 57.1371C74.4162 55.5571 75.4462 54.5671 77.0162 54.5671ZM77.0462 55.8471C76.2962 55.8471 75.8762 56.2871 75.8762 57.0871C75.8762 57.8271 76.2562 58.3071 76.9862 58.3071C77.7262 58.3071 78.1962 57.8171 78.1962 57.0771C78.1962 56.3971 77.7762 55.8471 77.0462 55.8471ZM83.0223 61.9871C81.5223 61.9871 80.6123 61.0971 80.5123 59.9271L81.9723 59.8471C82.0623 60.4271 82.4123 60.7271 83.0223 60.7271C83.6823 60.7271 84.0923 60.3071 84.0923 59.4971C84.0923 58.7071 83.6723 58.2471 83.0323 58.2471C82.5923 58.2471 82.2223 58.5071 82.0823 58.8671L80.6123 58.7971L81.0323 54.7271H85.2223V56.0071H82.2023L82.0223 57.5371C82.3523 57.2571 82.7923 57.0971 83.2723 57.0971C84.6823 57.0971 85.5523 58.1171 85.5523 59.5071C85.5523 60.9771 84.5523 61.9871 83.0223 61.9871Z" fill="black"/>
<path id="330" d="M458.938 183.882C457.308 183.882 456.498 183.052 456.428 181.762L457.868 181.692C457.928 182.382 458.388 182.622 458.968 182.622C459.598 182.622 460.088 182.322 460.088 181.622C460.088 180.942 459.638 180.582 458.898 180.582H458.368V179.452H458.898C459.458 179.452 459.868 179.202 459.868 178.592C459.868 178.002 459.518 177.712 458.958 177.712C458.338 177.712 458.038 178.022 457.978 178.512L456.538 178.442C456.678 177.232 457.508 176.462 458.968 176.462C460.428 176.462 461.328 177.182 461.328 178.402C461.328 179.172 460.928 179.682 460.178 179.922C461.048 180.172 461.548 180.822 461.548 181.722C461.548 183.062 460.538 183.882 458.938 183.882ZM464.934 183.882C463.304 183.882 462.494 183.052 462.424 181.762L463.864 181.692C463.924 182.382 464.384 182.622 464.964 182.622C465.594 182.622 466.084 182.322 466.084 181.622C466.084 180.942 465.634 180.582 464.894 180.582H464.364V179.452H464.894C465.454 179.452 465.864 179.202 465.864 178.592C465.864 178.002 465.514 177.712 464.954 177.712C464.334 177.712 464.034 178.022 463.974 178.512L462.534 178.442C462.674 177.232 463.504 176.462 464.964 176.462C466.424 176.462 467.324 177.182 467.324 178.402C467.324 179.172 466.924 179.682 466.174 179.922C467.044 180.172 467.544 180.822 467.544 181.722C467.544 183.062 466.534 183.882 464.934 183.882ZM470.98 183.882C469.38 183.882 468.42 182.472 468.42 180.182C468.42 177.882 469.38 176.462 470.98 176.462C472.58 176.462 473.54 177.882 473.54 180.182C473.54 182.472 472.58 183.882 470.98 183.882ZM469.88 180.182C469.88 180.612 469.91 180.982 469.97 181.292L471.66 178.102C471.48 177.852 471.25 177.722 470.98 177.722C470.29 177.722 469.88 178.542 469.88 180.182ZM470.98 182.622C471.67 182.622 472.08 181.812 472.08 180.182C472.08 179.752 472.05 179.372 471.99 179.052L470.3 182.242C470.48 182.492 470.71 182.622 470.98 182.622Z" fill="black"/>
<path id="345" d="M17.5783 170.382C15.9483 170.382 15.1383 169.552 15.0683 168.262L16.5083 168.192C16.5683 168.882 17.0283 169.122 17.6083 169.122C18.2383 169.122 18.7283 168.822 18.7283 168.122C18.7283 167.442 18.2783 167.082 17.5383 167.082H17.0083V165.952H17.5383C18.0983 165.952 18.5083 165.702 18.5083 165.092C18.5083 164.502 18.1583 164.212 17.5983 164.212C16.9783 164.212 16.6783 164.522 16.6183 165.012L15.1783 164.942C15.3183 163.732 16.1483 162.962 17.6083 162.962C19.0683 162.962 19.9683 163.682 19.9683 164.902C19.9683 165.672 19.5683 166.182 18.8183 166.422C19.6883 166.672 20.1883 167.322 20.1883 168.222C20.1883 169.562 19.1783 170.382 17.5783 170.382ZM24.0744 170.222V168.802H20.9044V167.632L23.8844 163.122H25.5044V167.562H26.3444V168.802H25.5044V170.222H24.0744ZM22.2444 167.562H24.0744V164.912L22.2444 167.562ZM29.6105 170.382C28.1105 170.382 27.2005 169.492 27.1005 168.322L28.5605 168.242C28.6505 168.822 29.0005 169.122 29.6105 169.122C30.2705 169.122 30.6805 168.702 30.6805 167.892C30.6805 167.102 30.2605 166.642 29.6205 166.642C29.1805 166.642 28.8105 166.902 28.6705 167.262L27.2005 167.192L27.6205 163.122H31.8105V164.402H28.7905L28.6105 165.932C28.9405 165.652 29.3805 165.492 29.8605 165.492C31.2705 165.492 32.1405 166.512 32.1405 167.902C32.1405 169.372 31.1405 170.382 29.6105 170.382Z" fill="black"/>
</g>
<path id="field" d="M13.7589 136.323L156.02 -5.13867H313.177L388.105 69.1459L389.823 88.6832L478.921 177.567V195.816L435.338 239.399V270.315L364.703 372.5L285.425 451.723C266.308 470.826 235.334 470.845 216.194 451.764L136.686 372.5L49.0788 232.729V224.128L11.071 185.96L13.7589 136.323Z" fill="#FA4616" fill-opacity="0.1" fill="none" stroke="#FA4616" stroke-width="1.002"/>
</g>
<defs>
<clipPath id="clip0_92_2371">
<rect width="500" height="469.94" fill="white"/>
</clipPath>
</defs>
</svg>
