<svg width="500" height="470" viewBox="0 0 500 470" fill="none" xmlns="http://www.w3.org/2000/svg">
<g id="comiskey-park-1969" clip-path="url(#clip0_125_6752)">
<g id="Infield">
<path d="M339.98 327.764C339.453 325.664 322.032 258.477 250.83 258.477C180.238 258.477 162.505 324.536 161.697 327.697C161.677 327.775 161.668 327.814 161.668 327.814L236.504 402.651C235.305 404.91 234.623 407.487 234.623 410.236C234.623 419.184 241.873 426.443 250.83 426.443C259.778 426.443 267.037 419.184 267.037 410.236C267.037 407.487 266.356 404.91 265.157 402.655L260.695 397.373C257.96 395.276 254.544 394.024 250.83 394.024C247.117 394.024 243.701 395.276 240.971 397.368L197.7 354.098C201.448 350.351 201.448 344.275 197.7 340.528C197.698 340.525 197.694 340.523 197.691 340.52L244.055 294.036C247.8 297.772 253.861 297.772 257.606 294.036L303.431 339.982C303.431 339.982 303.427 339.983 303.424 339.986C299.677 343.734 300.275 350.298 304.022 354.045L260.695 397.373L265.157 402.655L339.98 327.764Z" fill="#D2D2D2"/>
<path d="M259.91 345.704C259.91 350.719 255.845 354.785 250.83 354.785C245.815 354.785 241.75 350.719 241.75 345.704C241.75 340.689 245.815 336.624 250.83 336.624C255.845 336.624 259.91 340.689 259.91 345.704Z" fill="#D2D2D2"/>
</g>
<g id="Guides">
<g id="Home">
<circle id="Ellipse 1" cx="250.827" cy="410.421" r="16.0848" fill="#D2D2D2"/>
<circle id="Ellipse 1_2" cx="250.827" cy="410.422" r="1.62919" fill="black"/>
</g>
<g id="First">
<circle id="Ellipse 1_3" cx="311.125" cy="346.535" r="10.1878" fill="#D2D2D2"/>
<circle id="Ellipse 1_4" cx="311.125" cy="346.536" r="1.0319" fill="black"/>
</g>
<g id="Third">
<circle id="Ellipse 1_5" cx="190.34" cy="346.535" r="10.1878" fill="#D2D2D2"/>
<circle id="Ellipse 1_6" cx="190.34" cy="346.536" r="1.0319" fill="black"/>
</g>
<g id="Second">
<circle id="Ellipse 1_7" cx="250.827" cy="286.672" r="10.1878" fill="#D2D2D2"/>
<circle id="Ellipse 1_8" cx="250.827" cy="286.673" r="1.0319" fill="black"/>
</g>
<g id="Mound">
<circle id="Ellipse 1_9" cx="250.827" cy="345.931" r="9.08365" fill="#D2D2D2"/>
<circle id="Ellipse 1_10" cx="250.827" cy="345.932" r="0.920062" fill="black"/>
</g>
</g>
<path id="Foul Lines" d="M481.984 179.505L250.976 410.515L19.5532 179.094" fill="none" stroke="black" stroke-width="1.002"/>
<g id="Measurements">
<path id="335" d="M459.938 182.812C458.308 182.812 457.498 181.982 457.428 180.692L458.868 180.622C458.928 181.312 459.388 181.552 459.968 181.552C460.598 181.552 461.088 181.252 461.088 180.552C461.088 179.872 460.638 179.512 459.898 179.512H459.368V178.382H459.898C460.458 178.382 460.868 178.132 460.868 177.522C460.868 176.932 460.518 176.642 459.958 176.642C459.338 176.642 459.038 176.952 458.978 177.442L457.538 177.372C457.678 176.162 458.508 175.392 459.968 175.392C461.428 175.392 462.328 176.112 462.328 177.332C462.328 178.102 461.928 178.612 461.178 178.852C462.048 179.102 462.548 179.752 462.548 180.652C462.548 181.992 461.538 182.812 459.938 182.812ZM465.934 182.812C464.304 182.812 463.494 181.982 463.424 180.692L464.864 180.622C464.924 181.312 465.384 181.552 465.964 181.552C466.594 181.552 467.084 181.252 467.084 180.552C467.084 179.872 466.634 179.512 465.894 179.512H465.364V178.382H465.894C466.454 178.382 466.864 178.132 466.864 177.522C466.864 176.932 466.514 176.642 465.954 176.642C465.334 176.642 465.034 176.952 464.974 177.442L463.534 177.372C463.674 176.162 464.504 175.392 465.964 175.392C467.424 175.392 468.324 176.112 468.324 177.332C468.324 178.102 467.924 178.612 467.174 178.852C468.044 179.102 468.544 179.752 468.544 180.652C468.544 181.992 467.534 182.812 465.934 182.812ZM471.97 182.812C470.47 182.812 469.56 181.922 469.46 180.752L470.92 180.672C471.01 181.252 471.36 181.552 471.97 181.552C472.63 181.552 473.04 181.132 473.04 180.322C473.04 179.532 472.62 179.072 471.98 179.072C471.54 179.072 471.17 179.332 471.03 179.692L469.56 179.622L469.98 175.552H474.17V176.832H471.15L470.97 178.362C471.3 178.082 471.74 177.922 472.22 177.922C473.63 177.922 474.5 178.942 474.5 180.332C474.5 181.802 473.5 182.812 471.97 182.812Z" fill="black"/>
<path id="335_2" d="M30.2581 182.812C28.6281 182.812 27.8181 181.982 27.7481 180.692L29.1881 180.622C29.2481 181.312 29.7081 181.552 30.2881 181.552C30.9181 181.552 31.4081 181.252 31.4081 180.552C31.4081 179.872 30.9581 179.512 30.2181 179.512H29.6881V178.382H30.2181C30.7781 178.382 31.1881 178.132 31.1881 177.522C31.1881 176.932 30.8381 176.642 30.2781 176.642C29.6581 176.642 29.3581 176.952 29.2981 177.442L27.8581 177.372C27.9981 176.162 28.8281 175.392 30.2881 175.392C31.7481 175.392 32.6481 176.112 32.6481 177.332C32.6481 178.102 32.2481 178.612 31.4981 178.852C32.3681 179.102 32.8681 179.752 32.8681 180.652C32.8681 181.992 31.8581 182.812 30.2581 182.812ZM36.2542 182.812C34.6242 182.812 33.8142 181.982 33.7442 180.692L35.1842 180.622C35.2442 181.312 35.7042 181.552 36.2842 181.552C36.9142 181.552 37.4042 181.252 37.4042 180.552C37.4042 179.872 36.9542 179.512 36.2142 179.512H35.6842V178.382H36.2142C36.7742 178.382 37.1842 178.132 37.1842 177.522C37.1842 176.932 36.8342 176.642 36.2742 176.642C35.6542 176.642 35.3542 176.952 35.2942 177.442L33.8542 177.372C33.9942 176.162 34.8242 175.392 36.2842 175.392C37.7442 175.392 38.6442 176.112 38.6442 177.332C38.6442 178.102 38.2442 178.612 37.4942 178.852C38.3642 179.102 38.8642 179.752 38.8642 180.652C38.8642 181.992 37.8542 182.812 36.2542 182.812ZM42.2903 182.812C40.7903 182.812 39.8803 181.922 39.7803 180.752L41.2403 180.672C41.3303 181.252 41.6803 181.552 42.2903 181.552C42.9503 181.552 43.3603 181.132 43.3603 180.322C43.3603 179.532 42.9403 179.072 42.3003 179.072C41.8603 179.072 41.4903 179.332 41.3503 179.692L39.8803 179.622L40.3003 175.552H44.4903V176.832H41.4703L41.2903 178.362C41.6203 178.082 42.0603 177.922 42.5403 177.922C43.9503 177.922 44.8203 178.942 44.8203 180.332C44.8203 181.802 43.8203 182.812 42.2903 182.812Z" fill="black"/>
<path id="370" d="M91.4393 79.6405C89.8093 79.6405 88.9993 78.8105 88.9293 77.5205L90.3693 77.4505C90.4293 78.1405 90.8893 78.3805 91.4693 78.3805C92.0993 78.3805 92.5893 78.0805 92.5893 77.3805C92.5893 76.7005 92.1393 76.3405 91.3993 76.3405H90.8693V75.2105H91.3993C91.9593 75.2105 92.3693 74.9605 92.3693 74.3505C92.3693 73.7605 92.0193 73.4705 91.4593 73.4705C90.8393 73.4705 90.5393 73.7805 90.4793 74.2705L89.0393 74.2005C89.1793 72.9905 90.0093 72.2205 91.4693 72.2205C92.9293 72.2205 93.8293 72.9405 93.8293 74.1605C93.8293 74.9305 93.4293 75.4405 92.6793 75.6805C93.5493 75.9305 94.0493 76.5805 94.0493 77.4805C94.0493 78.8205 93.0393 79.6405 91.4393 79.6405ZM96.1554 79.4805C96.1554 77.3305 97.0554 75.3705 98.5254 73.6605H95.0254V72.3805H99.9454V73.5905C98.3154 75.4505 97.6454 77.0405 97.6454 79.4805H96.1554ZM103.481 79.6405C101.881 79.6405 100.921 78.2305 100.921 75.9405C100.921 73.6405 101.881 72.2205 103.481 72.2205C105.081 72.2205 106.041 73.6405 106.041 75.9405C106.041 78.2305 105.081 79.6405 103.481 79.6405ZM102.381 75.9405C102.381 76.3705 102.411 76.7405 102.471 77.0505L104.161 73.8605C103.981 73.6105 103.751 73.4805 103.481 73.4805C102.791 73.4805 102.381 74.3005 102.381 75.9405ZM103.481 78.3805C104.171 78.3805 104.581 77.5705 104.581 75.9405C104.581 75.5105 104.551 75.1305 104.491 74.8105L102.801 78.0005C102.981 78.2505 103.211 78.3805 103.481 78.3805Z" fill="black"/>
<path id="400" d="M245.128 18.4531V17.0331H241.958V15.8631L244.938 11.3531H246.558V15.7931H247.398V17.0331H246.558V18.4531H245.128ZM243.298 15.7931H245.128V13.1431L243.298 15.7931ZM250.674 18.6131C249.074 18.6131 248.114 17.2031 248.114 14.9131C248.114 12.6131 249.074 11.1931 250.674 11.1931C252.274 11.1931 253.234 12.6131 253.234 14.9131C253.234 17.2031 252.274 18.6131 250.674 18.6131ZM249.574 14.9131C249.574 15.3431 249.604 15.7131 249.664 16.0231L251.354 12.8331C251.174 12.5831 250.944 12.4531 250.674 12.4531C249.984 12.4531 249.574 13.2731 249.574 14.9131ZM250.674 17.3531C251.364 17.3531 251.774 16.5431 251.774 14.9131C251.774 14.4831 251.744 14.1031 251.684 13.7831L249.994 16.9731C250.174 17.2231 250.404 17.3531 250.674 17.3531ZM256.67 18.6131C255.07 18.6131 254.11 17.2031 254.11 14.9131C254.11 12.6131 255.07 11.1931 256.67 11.1931C258.27 11.1931 259.23 12.6131 259.23 14.9131C259.23 17.2031 258.27 18.6131 256.67 18.6131ZM255.57 14.9131C255.57 15.3431 255.6 15.7131 255.66 16.0231L257.35 12.8331C257.17 12.5831 256.94 12.4531 256.67 12.4531C255.98 12.4531 255.57 13.2731 255.57 14.9131ZM256.67 17.3531C257.36 17.3531 257.77 16.5431 257.77 14.9131C257.77 14.4831 257.74 14.1031 257.68 13.7831L255.99 16.9731C256.17 17.2231 256.4 17.3531 256.67 17.3531Z" fill="black"/>
<path id="370_2" d="M397.361 79.6405C395.731 79.6405 394.921 78.8105 394.851 77.5205L396.291 77.4505C396.351 78.1405 396.811 78.3805 397.391 78.3805C398.021 78.3805 398.511 78.0805 398.511 77.3805C398.511 76.7005 398.061 76.3405 397.321 76.3405H396.791V75.2105H397.321C397.881 75.2105 398.291 74.9605 398.291 74.3505C398.291 73.7605 397.941 73.4705 397.381 73.4705C396.761 73.4705 396.461 73.7805 396.401 74.2705L394.961 74.2005C395.101 72.9905 395.931 72.2205 397.391 72.2205C398.851 72.2205 399.751 72.9405 399.751 74.1605C399.751 74.9305 399.351 75.4405 398.601 75.6805C399.471 75.9305 399.971 76.5805 399.971 77.4805C399.971 78.8205 398.961 79.6405 397.361 79.6405ZM402.077 79.4805C402.077 77.3305 402.977 75.3705 404.447 73.6605H400.947V72.3805H405.867V73.5905C404.237 75.4505 403.567 77.0405 403.567 79.4805H402.077ZM409.403 79.6405C407.803 79.6405 406.843 78.2305 406.843 75.9405C406.843 73.6405 407.803 72.2205 409.403 72.2205C411.003 72.2205 411.963 73.6405 411.963 75.9405C411.963 78.2305 411.003 79.6405 409.403 79.6405ZM408.303 75.9405C408.303 76.3705 408.333 76.7405 408.393 77.0505L410.083 73.8605C409.903 73.6105 409.673 73.4805 409.403 73.4805C408.713 73.4805 408.303 74.3005 408.303 75.9405ZM409.403 78.3805C410.093 78.3805 410.503 77.5705 410.503 75.9405C410.503 75.5105 410.473 75.1305 410.413 74.8105L408.723 78.0005C408.903 78.2505 409.133 78.3805 409.403 78.3805Z" fill="black"/>
</g>
<path id="field" d="M14.6797 185.564L52.8204 135.65L168.254 20.1391L333.392 20.1367L452.45 139.59L486.664 185.472L327.129 443.583C292.451 500.25 210.161 500.321 175.384 443.715L14.6797 185.564Z" fill="#27251F" fill-opacity="0.1" fill="none" stroke="#27251F" stroke-width="1.002"/>
</g>
<defs>
<clipPath id="clip0_125_6752">
<rect width="500" height="469.94" fill="white"/>
</clipPath>
</defs>
</svg>
