<svg width="500" height="470" viewBox="0 0 500 470" fill="none" xmlns="http://www.w3.org/2000/svg">
<g id="comiskey-park-1986" clip-path="url(#clip0_125_6806)">
<g id="Infield">
<path d="M339.98 327.764C339.453 325.664 322.032 258.477 250.83 258.477C180.238 258.477 162.505 324.536 161.697 327.697C161.677 327.775 161.668 327.814 161.668 327.814L236.504 402.651C235.305 404.91 234.623 407.487 234.623 410.236C234.623 419.184 241.873 426.443 250.83 426.443C259.778 426.443 267.037 419.184 267.037 410.236C267.037 407.487 266.356 404.91 265.157 402.655L260.695 397.373C257.96 395.276 254.544 394.024 250.83 394.024C247.117 394.024 243.701 395.276 240.971 397.368L197.7 354.098C201.448 350.351 201.448 344.275 197.7 340.528C197.698 340.525 197.694 340.523 197.691 340.52L244.055 294.036C247.8 297.772 253.861 297.772 257.606 294.036L303.431 339.982C303.431 339.982 303.427 339.983 303.424 339.986C299.677 343.734 300.275 350.298 304.022 354.045L260.695 397.373L265.157 402.655L339.98 327.764Z" fill="#D2D2D2"/>
<path d="M259.91 345.704C259.91 350.719 255.845 354.785 250.83 354.785C245.815 354.785 241.75 350.719 241.75 345.704C241.75 340.689 245.815 336.624 250.83 336.624C255.845 336.624 259.91 340.689 259.91 345.704Z" fill="#D2D2D2"/>
</g>
<g id="Guides">
<g id="Home">
<circle id="Ellipse 1" cx="250.827" cy="410.421" r="16.0848" fill="#D2D2D2"/>
<circle id="Ellipse 1_2" cx="250.827" cy="410.422" r="1.62919" fill="black"/>
</g>
<g id="First">
<circle id="Ellipse 1_3" cx="311.125" cy="346.535" r="10.1878" fill="#D2D2D2"/>
<circle id="Ellipse 1_4" cx="311.125" cy="346.536" r="1.0319" fill="black"/>
</g>
<g id="Third">
<circle id="Ellipse 1_5" cx="190.34" cy="346.535" r="10.1878" fill="#D2D2D2"/>
<circle id="Ellipse 1_6" cx="190.34" cy="346.536" r="1.0319" fill="black"/>
</g>
<g id="Second">
<circle id="Ellipse 1_7" cx="250.827" cy="286.672" r="10.1878" fill="#D2D2D2"/>
<circle id="Ellipse 1_8" cx="250.827" cy="286.673" r="1.0319" fill="black"/>
</g>
<g id="Mound">
<circle id="Ellipse 1_9" cx="250.827" cy="345.931" r="9.08365" fill="#D2D2D2"/>
<circle id="Ellipse 1_10" cx="250.827" cy="345.932" r="0.920062" fill="black"/>
</g>
</g>
<path id="Foul Lines" d="M490.98 170.509L250.976 410.512L10.6663 170.203" fill="none" stroke="black" stroke-width="1.002"/>
<g id="Measurements">
<path id="409" d="M331.168 15.4531V14.0331H327.998V12.8631L330.978 8.35312H332.598V12.7931H333.438V14.0331H332.598V15.4531H331.168ZM329.338 12.7931H331.168V10.1431L329.338 12.7931ZM336.714 15.6131C335.114 15.6131 334.154 14.2031 334.154 11.9131C334.154 9.61312 335.114 8.19312 336.714 8.19312C338.314 8.19312 339.274 9.61312 339.274 11.9131C339.274 14.2031 338.314 15.6131 336.714 15.6131ZM335.614 11.9131C335.614 12.3431 335.644 12.7131 335.704 13.0231L337.394 9.83312C337.214 9.58312 336.984 9.45312 336.714 9.45312C336.024 9.45312 335.614 10.2731 335.614 11.9131ZM336.714 14.3531C337.404 14.3531 337.814 13.5431 337.814 11.9131C337.814 11.4831 337.784 11.1031 337.724 10.7831L336.034 13.9731C336.214 14.2231 336.444 14.3531 336.714 14.3531ZM342.69 8.19312C344.42 8.19312 345.33 9.36312 345.33 11.4231C345.33 13.7731 344.52 15.6131 342.43 15.6131C341.03 15.6131 340.38 14.8531 340.12 13.8331L341.56 13.7331C341.66 14.0931 341.89 14.3531 342.43 14.3531C343.17 14.3531 343.69 13.8431 343.85 12.6231C343.51 12.9231 343.03 13.1431 342.4 13.1431C340.99 13.1431 340.09 12.1931 340.09 10.7631C340.09 9.18312 341.12 8.19312 342.69 8.19312ZM342.72 9.47312C341.97 9.47312 341.55 9.91312 341.55 10.7131C341.55 11.4531 341.93 11.9331 342.66 11.9331C343.4 11.9331 343.87 11.4431 343.87 10.7031C343.87 10.0231 343.45 9.47312 342.72 9.47312Z" fill="black"/>
<path id="347" d="M468.938 174.098C467.308 174.098 466.498 173.267 466.428 171.977L467.868 171.907C467.928 172.597 468.388 172.837 468.968 172.837C469.598 172.837 470.088 172.537 470.088 171.837C470.088 171.157 469.638 170.797 468.898 170.797H468.368V169.667H468.898C469.458 169.667 469.868 169.417 469.868 168.807C469.868 168.217 469.518 167.927 468.958 167.927C468.338 167.927 468.038 168.237 467.978 168.727L466.538 168.658C466.678 167.447 467.508 166.677 468.968 166.677C470.428 166.677 471.328 167.397 471.328 168.617C471.328 169.387 470.928 169.897 470.178 170.137C471.048 170.387 471.548 171.037 471.548 171.937C471.548 173.278 470.538 174.098 468.938 174.098ZM475.434 173.938V172.517H472.264V171.347L475.244 166.837H476.864V171.277H477.704V172.517H476.864V173.938H475.434ZM473.604 171.277H475.434V168.627L473.604 171.277ZM479.65 173.938C479.65 171.787 480.55 169.827 482.02 168.117H478.52V166.837H483.44V168.047C481.81 169.907 481.14 171.497 481.14 173.938H479.65Z" fill="black"/>
<path id="347_2" d="M19.3938 174.098C17.7638 174.098 16.9538 173.267 16.8838 171.977L18.3238 171.907C18.3838 172.597 18.8438 172.837 19.4238 172.837C20.0538 172.837 20.5438 172.537 20.5438 171.837C20.5438 171.157 20.0938 170.797 19.3538 170.797H18.8238V169.667H19.3538C19.9138 169.667 20.3238 169.417 20.3238 168.807C20.3238 168.217 19.9738 167.927 19.4138 167.927C18.7938 167.927 18.4938 168.237 18.4338 168.727L16.9938 168.658C17.1338 167.447 17.9638 166.677 19.4238 166.677C20.8838 166.677 21.7838 167.397 21.7838 168.617C21.7838 169.387 21.3838 169.897 20.6338 170.137C21.5038 170.387 22.0038 171.037 22.0038 171.937C22.0038 173.278 20.9938 174.098 19.3938 174.098ZM25.8899 173.938V172.517H22.7199V171.347L25.6999 166.837H27.3199V171.277H28.1599V172.517H27.3199V173.938H25.8899ZM24.0599 171.277H25.8899V168.627L24.0599 171.277ZM30.106 173.938C30.106 171.787 31.006 169.827 32.476 168.117H28.976V166.837H33.896V168.047C32.266 169.907 31.596 171.497 31.596 173.938H30.106Z" fill="black"/>
<path id="375" d="M91.5862 72.0936C89.9562 72.0936 89.1462 71.2636 89.0762 69.9736L90.5162 69.9036C90.5762 70.5936 91.0362 70.8336 91.6162 70.8336C92.2462 70.8336 92.7362 70.5336 92.7362 69.8336C92.7362 69.1536 92.2862 68.7936 91.5462 68.7936H91.0162V67.6636H91.5462C92.1062 67.6636 92.5162 67.4136 92.5162 66.8036C92.5162 66.2136 92.1662 65.9236 91.6062 65.9236C90.9862 65.9236 90.6862 66.2336 90.6262 66.7236L89.1862 66.6536C89.3262 65.4436 90.1562 64.6736 91.6162 64.6736C93.0762 64.6736 93.9762 65.3936 93.9762 66.6136C93.9762 67.3836 93.5762 67.8936 92.8262 68.1336C93.6962 68.3836 94.1962 69.0336 94.1962 69.9336C94.1962 71.2736 93.1862 72.0936 91.5862 72.0936ZM96.3023 71.9336C96.3023 69.7836 97.2023 67.8236 98.6723 66.1136H95.1723V64.8336H100.092V66.0436C98.4623 67.9036 97.7923 69.4936 97.7923 71.9336H96.3023ZM103.618 72.0936C102.118 72.0936 101.208 71.2036 101.108 70.0336L102.568 69.9536C102.658 70.5336 103.008 70.8336 103.618 70.8336C104.278 70.8336 104.688 70.4136 104.688 69.6036C104.688 68.8136 104.268 68.3536 103.628 68.3536C103.188 68.3536 102.818 68.6136 102.678 68.9736L101.208 68.9036L101.628 64.8336H105.818V66.1136H102.798L102.618 67.6436C102.948 67.3636 103.388 67.2036 103.868 67.2036C105.278 67.2036 106.148 68.2236 106.148 69.6136C106.148 71.0836 105.148 72.0936 103.618 72.0936Z" fill="black"/>
<path id="375_2" d="M398.5 72.0936C396.87 72.0936 396.06 71.2636 395.99 69.9736L397.43 69.9036C397.49 70.5936 397.95 70.8336 398.53 70.8336C399.16 70.8336 399.65 70.5336 399.65 69.8336C399.65 69.1536 399.2 68.7936 398.46 68.7936H397.93V67.6636H398.46C399.02 67.6636 399.43 67.4136 399.43 66.8036C399.43 66.2136 399.08 65.9236 398.52 65.9236C397.9 65.9236 397.6 66.2336 397.54 66.7236L396.1 66.6536C396.24 65.4436 397.07 64.6736 398.53 64.6736C399.99 64.6736 400.89 65.3936 400.89 66.6136C400.89 67.3836 400.49 67.8936 399.74 68.1336C400.61 68.3836 401.11 69.0336 401.11 69.9336C401.11 71.2736 400.1 72.0936 398.5 72.0936ZM403.216 71.9336C403.216 69.7836 404.116 67.8236 405.586 66.1136H402.086V64.8336H407.006V66.0436C405.376 67.9036 404.706 69.4936 404.706 71.9336H403.216ZM410.532 72.0936C409.032 72.0936 408.122 71.2036 408.022 70.0336L409.482 69.9536C409.572 70.5336 409.922 70.8336 410.532 70.8336C411.192 70.8336 411.602 70.4136 411.602 69.6036C411.602 68.8136 411.182 68.3536 410.542 68.3536C410.102 68.3536 409.732 68.6136 409.592 68.9736L408.122 68.9036L408.542 64.8336H412.732V66.1136H409.712L409.532 67.6436C409.862 67.3636 410.302 67.2036 410.782 67.2036C412.192 67.2036 413.062 68.2236 413.062 69.6136C413.062 71.0836 412.062 72.0936 410.532 72.0936Z" fill="black"/>
<path id="409_2" d="M159.006 15.4531V14.0331H155.836V12.8631L158.816 8.35312H160.436V12.7931H161.276V14.0331H160.436V15.4531H159.006ZM157.176 12.7931H159.006V10.1431L157.176 12.7931ZM164.552 15.6131C162.952 15.6131 161.992 14.2031 161.992 11.9131C161.992 9.61312 162.952 8.19312 164.552 8.19312C166.152 8.19312 167.112 9.61312 167.112 11.9131C167.112 14.2031 166.152 15.6131 164.552 15.6131ZM163.452 11.9131C163.452 12.3431 163.482 12.7131 163.542 13.0231L165.232 9.83312C165.052 9.58312 164.822 9.45312 164.552 9.45312C163.862 9.45312 163.452 10.2731 163.452 11.9131ZM164.552 14.3531C165.242 14.3531 165.652 13.5431 165.652 11.9131C165.652 11.4831 165.622 11.1031 165.562 10.7831L163.872 13.9731C164.052 14.2231 164.282 14.3531 164.552 14.3531ZM170.528 8.19312C172.258 8.19312 173.168 9.36312 173.168 11.4231C173.168 13.7731 172.358 15.6131 170.268 15.6131C168.868 15.6131 168.218 14.8531 167.958 13.8331L169.398 13.7331C169.498 14.0931 169.728 14.3531 170.268 14.3531C171.008 14.3531 171.528 13.8431 171.688 12.6231C171.348 12.9231 170.868 13.1431 170.238 13.1431C168.828 13.1431 167.928 12.1931 167.928 10.7631C167.928 9.18312 168.958 8.19312 170.528 8.19312ZM170.558 9.47312C169.808 9.47312 169.388 9.91312 169.388 10.7131C169.388 11.4531 169.768 11.9331 170.498 11.9331C171.238 11.9331 171.708 11.4431 171.708 10.7031C171.708 10.0231 171.288 9.47312 170.558 9.47312Z" fill="black"/>
</g>
<path id="field" d="M7.75879 172.975L163.24 17.9375H338.025L494.113 173.773L397.533 332.278L390.949 330.834L336.863 419.426L331.955 416.853L310.128 447.484C281.063 488.273 220.493 488.347 191.33 447.629L169.287 416.853L165.487 419.426L108.788 330.834L104.6 332.278L7.75879 172.975Z" fill="#27251F" fill-opacity="0.1" fill="none" stroke="#27251F" stroke-width="1.002"/>
</g>
<defs>
<clipPath id="clip0_125_6806">
<rect width="500" height="469.94" fill="white"/>
</clipPath>
</defs>
</svg>
