<svg width="500" height="470" viewBox="0 0 500 470" fill="none" xmlns="http://www.w3.org/2000/svg">
<g id="comiskey-park-1927" clip-path="url(#clip0_125_6671)">
<g id="Infield">
<path d="M339.98 327.764C339.453 325.664 322.032 258.477 250.83 258.477C180.238 258.477 162.505 324.536 161.697 327.697C161.677 327.775 161.668 327.814 161.668 327.814L236.504 402.651C235.305 404.91 234.623 407.487 234.623 410.236C234.623 419.184 241.873 426.443 250.83 426.443C259.778 426.443 267.037 419.184 267.037 410.236C267.037 407.487 266.356 404.91 265.156 402.655L260.695 397.373C257.96 395.276 254.544 394.024 250.83 394.024C247.117 394.024 243.701 395.276 240.971 397.368L197.7 354.098C201.448 350.351 201.448 344.275 197.7 340.528C197.698 340.525 197.694 340.523 197.691 340.52L244.055 294.036C247.8 297.772 253.861 297.772 257.606 294.036L303.431 339.982C303.431 339.982 303.427 339.983 303.424 339.986C299.677 343.734 300.275 350.298 304.022 354.045L260.695 397.373L265.156 402.655L339.98 327.764Z" fill="#D2D2D2"/>
<path d="M259.91 345.704C259.91 350.719 255.845 354.785 250.83 354.785C245.815 354.785 241.75 350.719 241.75 345.704C241.75 340.689 245.815 336.624 250.83 336.624C255.845 336.624 259.91 340.689 259.91 345.704Z" fill="#D2D2D2"/>
</g>
<g id="Guides">
<g id="Home">
<circle id="Ellipse 1" cx="250.827" cy="410.421" r="16.0848" fill="#D2D2D2"/>
<circle id="Ellipse 1_2" cx="250.827" cy="410.422" r="1.62919" fill="black"/>
</g>
<g id="First">
<circle id="Ellipse 1_3" cx="311.125" cy="346.535" r="10.1878" fill="#D2D2D2"/>
<circle id="Ellipse 1_4" cx="311.125" cy="346.536" r="1.0319" fill="black"/>
</g>
<g id="Third">
<circle id="Ellipse 1_5" cx="190.34" cy="346.535" r="10.1878" fill="#D2D2D2"/>
<circle id="Ellipse 1_6" cx="190.34" cy="346.536" r="1.0319" fill="black"/>
</g>
<g id="Second">
<circle id="Ellipse 1_7" cx="250.827" cy="286.672" r="10.1878" fill="#D2D2D2"/>
<circle id="Ellipse 1_8" cx="250.827" cy="286.673" r="1.0319" fill="black"/>
</g>
<g id="Mound">
<circle id="Ellipse 1_9" cx="250.827" cy="345.931" r="9.08365" fill="#D2D2D2"/>
<circle id="Ellipse 1_10" cx="250.827" cy="345.932" r="0.920062" fill="black"/>
</g>
</g>
<path id="Foul Lines" d="M492.754 168.736L250.976 410.515L8.98834 168.527" fill="none" stroke="black" stroke-width="1.002"/>
<g id="Measurements">
<path id="365" d="M466.938 171.098C465.308 171.098 464.498 170.267 464.428 168.977L465.868 168.907C465.928 169.597 466.388 169.837 466.968 169.837C467.598 169.837 468.088 169.537 468.088 168.837C468.088 168.157 467.638 167.797 466.898 167.797H466.368V166.667H466.898C467.458 166.667 467.868 166.417 467.868 165.807C467.868 165.217 467.518 164.927 466.958 164.927C466.338 164.927 466.038 165.237 465.978 165.727L464.538 165.658C464.678 164.447 465.508 163.677 466.968 163.677C468.428 163.677 469.328 164.397 469.328 165.617C469.328 166.387 468.928 166.897 468.178 167.137C469.048 167.387 469.548 168.037 469.548 168.937C469.548 170.278 468.538 171.098 466.938 171.098ZM473.004 171.098C471.274 171.098 470.364 169.927 470.364 167.867C470.364 165.517 471.174 163.677 473.264 163.677C474.664 163.677 475.314 164.437 475.574 165.457L474.134 165.557C474.034 165.197 473.804 164.937 473.264 164.937C472.524 164.937 472.004 165.447 471.844 166.667C472.184 166.367 472.664 166.147 473.294 166.147C474.704 166.147 475.604 167.097 475.604 168.527C475.604 170.107 474.574 171.098 473.004 171.098ZM472.974 169.817C473.724 169.817 474.144 169.377 474.144 168.577C474.144 167.837 473.764 167.357 473.034 167.357C472.294 167.357 471.824 167.847 471.824 168.587C471.824 169.267 472.244 169.817 472.974 169.817ZM478.97 171.098C477.47 171.098 476.56 170.207 476.46 169.037L477.92 168.957C478.01 169.537 478.36 169.837 478.97 169.837C479.63 169.837 480.04 169.417 480.04 168.607C480.04 167.817 479.62 167.357 478.98 167.357C478.54 167.357 478.17 167.617 478.03 167.977L476.56 167.907L476.98 163.837H481.17V165.117H478.15L477.97 166.647C478.3 166.367 478.74 166.207 479.22 166.207C480.63 166.207 481.5 167.227 481.5 168.617C481.5 170.087 480.5 171.098 478.97 171.098Z" fill="black"/>
<path id="365_2" d="M20.3939 171.098C18.7639 171.098 17.9539 170.267 17.8839 168.977L19.3239 168.907C19.3839 169.597 19.8439 169.837 20.4239 169.837C21.0539 169.837 21.5439 169.537 21.5439 168.837C21.5439 168.157 21.0939 167.797 20.3539 167.797H19.8239V166.667H20.3539C20.9139 166.667 21.3239 166.417 21.3239 165.807C21.3239 165.217 20.9739 164.927 20.4139 164.927C19.7939 164.927 19.4939 165.237 19.4339 165.727L17.9939 165.658C18.1339 164.447 18.9639 163.677 20.4239 163.677C21.8839 163.677 22.7839 164.397 22.7839 165.617C22.7839 166.387 22.3839 166.897 21.6339 167.137C22.5039 167.387 23.0039 168.037 23.0039 168.937C23.0039 170.278 21.9939 171.098 20.3939 171.098ZM26.46 171.098C24.73 171.098 23.82 169.927 23.82 167.867C23.82 165.517 24.63 163.677 26.72 163.677C28.12 163.677 28.77 164.437 29.03 165.457L27.59 165.557C27.49 165.197 27.26 164.937 26.72 164.937C25.98 164.937 25.46 165.447 25.3 166.667C25.64 166.367 26.12 166.147 26.75 166.147C28.16 166.147 29.06 167.097 29.06 168.527C29.06 170.107 28.03 171.098 26.46 171.098ZM26.43 169.817C27.18 169.817 27.6 169.377 27.6 168.577C27.6 167.837 27.22 167.357 26.49 167.357C25.75 167.357 25.28 167.847 25.28 168.587C25.28 169.267 25.7 169.817 26.43 169.817ZM32.4261 171.098C30.9261 171.098 30.0161 170.207 29.9161 169.037L31.3761 168.957C31.4661 169.537 31.8161 169.837 32.4261 169.837C33.0861 169.837 33.4961 169.417 33.4961 168.607C33.4961 167.817 33.0761 167.357 32.4361 167.357C31.9961 167.357 31.6261 167.617 31.4861 167.977L30.0161 167.907L30.4361 163.837H34.6261V165.117H31.6061L31.4261 166.647C31.7561 166.367 32.1961 166.207 32.6761 166.207C34.0861 166.207 34.9561 167.227 34.9561 168.617C34.9561 170.087 33.9561 171.098 32.4261 171.098Z" fill="black"/>
<path id="395" d="M102.64 57.0663C101.01 57.0663 100.2 56.2362 100.13 54.9462L101.57 54.8762C101.63 55.5662 102.09 55.8062 102.67 55.8062C103.3 55.8062 103.79 55.5062 103.79 54.8062C103.79 54.1262 103.34 53.7662 102.6 53.7662H102.07V52.6362H102.6C103.16 52.6362 103.57 52.3862 103.57 51.7762C103.57 51.1862 103.22 50.8962 102.66 50.8962C102.04 50.8962 101.74 51.2062 101.68 51.6962L100.24 51.6263C100.38 50.4162 101.21 49.6462 102.67 49.6462C104.13 49.6462 105.03 50.3662 105.03 51.5862C105.03 52.3562 104.63 52.8662 103.88 53.1062C104.75 53.3562 105.25 54.0062 105.25 54.9062C105.25 56.2463 104.24 57.0663 102.64 57.0663ZM108.666 49.6462C110.396 49.6462 111.306 50.8162 111.306 52.8762C111.306 55.2262 110.496 57.0663 108.406 57.0663C107.006 57.0663 106.356 56.3062 106.096 55.2862L107.536 55.1862C107.636 55.5462 107.866 55.8062 108.406 55.8062C109.146 55.8062 109.666 55.2962 109.826 54.0762C109.486 54.3762 109.006 54.5962 108.376 54.5962C106.966 54.5962 106.066 53.6462 106.066 52.2162C106.066 50.6362 107.096 49.6462 108.666 49.6462ZM108.696 50.9262C107.946 50.9262 107.526 51.3662 107.526 52.1662C107.526 52.9062 107.906 53.3862 108.636 53.3862C109.376 53.3862 109.846 52.8962 109.846 52.1562C109.846 51.4762 109.426 50.9262 108.696 50.9262ZM114.672 57.0663C113.172 57.0663 112.262 56.1762 112.162 55.0062L113.622 54.9262C113.712 55.5062 114.062 55.8062 114.672 55.8062C115.332 55.8062 115.742 55.3862 115.742 54.5762C115.742 53.7862 115.322 53.3262 114.682 53.3262C114.242 53.3262 113.872 53.5862 113.732 53.9462L112.262 53.8762L112.682 49.8062H116.872V51.0862H113.852L113.672 52.6162C114.002 52.3362 114.442 52.1762 114.922 52.1762C116.332 52.1762 117.202 53.1962 117.202 54.5862C117.202 56.0562 116.202 57.0663 114.672 57.0663Z" fill="black"/>
<path id="395_2" d="M386.093 57.0663C384.463 57.0663 383.653 56.2362 383.583 54.9462L385.023 54.8762C385.083 55.5662 385.543 55.8062 386.123 55.8062C386.753 55.8062 387.243 55.5062 387.243 54.8062C387.243 54.1262 386.793 53.7662 386.053 53.7662H385.523V52.6362H386.053C386.613 52.6362 387.023 52.3862 387.023 51.7762C387.023 51.1862 386.673 50.8962 386.113 50.8962C385.493 50.8962 385.193 51.2062 385.133 51.6962L383.693 51.6263C383.833 50.4162 384.663 49.6462 386.123 49.6462C387.583 49.6462 388.483 50.3662 388.483 51.5862C388.483 52.3562 388.083 52.8662 387.333 53.1062C388.203 53.3562 388.703 54.0062 388.703 54.9062C388.703 56.2463 387.693 57.0663 386.093 57.0663ZM392.119 49.6462C393.849 49.6462 394.759 50.8162 394.759 52.8762C394.759 55.2262 393.949 57.0663 391.859 57.0663C390.459 57.0663 389.809 56.3062 389.549 55.2862L390.989 55.1862C391.089 55.5462 391.319 55.8062 391.859 55.8062C392.599 55.8062 393.119 55.2962 393.279 54.0762C392.939 54.3762 392.459 54.5962 391.829 54.5962C390.419 54.5962 389.519 53.6462 389.519 52.2162C389.519 50.6362 390.549 49.6462 392.119 49.6462ZM392.149 50.9262C391.399 50.9262 390.979 51.3662 390.979 52.1662C390.979 52.9062 391.359 53.3862 392.089 53.3862C392.829 53.3862 393.299 52.8962 393.299 52.1562C393.299 51.4762 392.879 50.9262 392.149 50.9262ZM398.125 57.0663C396.625 57.0663 395.715 56.1762 395.615 55.0062L397.075 54.9262C397.165 55.5062 397.515 55.8062 398.125 55.8062C398.785 55.8062 399.195 55.3862 399.195 54.5762C399.195 53.7862 398.775 53.3262 398.135 53.3262C397.695 53.3262 397.325 53.5862 397.185 53.9462L395.715 53.8762L396.135 49.8062H400.325V51.0862H397.305L397.125 52.6162C397.455 52.3362 397.895 52.1762 398.375 52.1762C399.785 52.1762 400.655 53.1962 400.655 54.5862C400.655 56.0562 399.655 57.0663 398.125 57.0663Z" fill="black"/>
</g>
<path id="field" d="M6.7782 170.568L197.186 -20.5039H304.904L494.364 169.959L327.129 443.583C292.451 500.25 210.161 500.322 175.384 443.716L6.7782 170.568Z" fill="#27251F" fill-opacity="0.1" fill="none" stroke="#27251F" stroke-width="1.002"/>
</g>
<defs>
<clipPath id="clip0_125_6671">
<rect width="500" height="469.94" fill="white"/>
</clipPath>
</defs>
</svg>
