<svg width="500" height="470" viewBox="0 0 500 470" fill="none" xmlns="http://www.w3.org/2000/svg">
<g id="comiskey-park-1937" clip-path="url(#clip0_125_6698)">
<g id="Infield">
<path d="M339.98 327.764C339.453 325.664 322.032 258.477 250.83 258.477C180.238 258.477 162.505 324.536 161.697 327.697C161.677 327.775 161.668 327.814 161.668 327.814L236.504 402.651C235.305 404.91 234.623 407.487 234.623 410.236C234.623 419.184 241.873 426.443 250.83 426.443C259.778 426.443 267.037 419.184 267.037 410.236C267.037 407.487 266.356 404.91 265.157 402.655L260.695 397.373C257.96 395.276 254.544 394.024 250.83 394.024C247.117 394.024 243.701 395.276 240.971 397.368L197.7 354.098C201.448 350.351 201.448 344.275 197.7 340.528C197.698 340.525 197.694 340.523 197.691 340.52L244.055 294.036C247.8 297.772 253.861 297.772 257.606 294.036L303.431 339.982C303.431 339.982 303.427 339.983 303.424 339.986C299.677 343.734 300.275 350.298 304.022 354.045L260.695 397.373L265.157 402.655L339.98 327.764Z" fill="#D2D2D2"/>
<path d="M259.91 345.704C259.91 350.719 255.845 354.785 250.83 354.785C245.815 354.785 241.75 350.719 241.75 345.704C241.75 340.689 245.815 336.624 250.83 336.624C255.845 336.624 259.91 340.689 259.91 345.704Z" fill="#D2D2D2"/>
</g>
<g id="Guides">
<g id="Home">
<circle id="Ellipse 1" cx="250.827" cy="410.421" r="16.0848" fill="#D2D2D2"/>
<circle id="Ellipse 1_2" cx="250.827" cy="410.422" r="1.62919" fill="black"/>
</g>
<g id="First">
<circle id="Ellipse 1_3" cx="311.125" cy="346.535" r="10.1878" fill="#D2D2D2"/>
<circle id="Ellipse 1_4" cx="311.125" cy="346.536" r="1.0319" fill="black"/>
</g>
<g id="Third">
<circle id="Ellipse 1_5" cx="190.34" cy="346.535" r="10.1878" fill="#D2D2D2"/>
<circle id="Ellipse 1_6" cx="190.34" cy="346.536" r="1.0319" fill="black"/>
</g>
<g id="Second">
<circle id="Ellipse 1_7" cx="250.827" cy="286.672" r="10.1878" fill="#D2D2D2"/>
<circle id="Ellipse 1_8" cx="250.827" cy="286.673" r="1.0319" fill="black"/>
</g>
<g id="Mound">
<circle id="Ellipse 1_9" cx="250.827" cy="345.931" r="9.08365" fill="#D2D2D2"/>
<circle id="Ellipse 1_10" cx="250.827" cy="345.932" r="0.920062" fill="black"/>
</g>
</g>
<path id="Foul Lines" d="M492.754 168.736L250.976 410.515L8.98834 168.527" fill="none" stroke="black" stroke-width="1.002"/>
<g id="Measurements">
<path id="352" d="M466.938 171.098C465.308 171.098 464.498 170.267 464.428 168.977L465.868 168.907C465.928 169.597 466.388 169.837 466.968 169.837C467.598 169.837 468.088 169.537 468.088 168.837C468.088 168.157 467.638 167.797 466.898 167.797H466.368V166.667H466.898C467.458 166.667 467.868 166.417 467.868 165.807C467.868 165.217 467.518 164.927 466.958 164.927C466.338 164.927 466.038 165.237 465.978 165.727L464.538 165.658C464.678 164.447 465.508 163.677 466.968 163.677C468.428 163.677 469.328 164.397 469.328 165.617C469.328 166.387 468.928 166.897 468.178 167.137C469.048 167.387 469.548 168.037 469.548 168.937C469.548 170.278 468.538 171.098 466.938 171.098ZM472.974 171.098C471.474 171.098 470.564 170.207 470.464 169.037L471.924 168.957C472.014 169.537 472.364 169.837 472.974 169.837C473.634 169.837 474.044 169.417 474.044 168.607C474.044 167.817 473.624 167.357 472.984 167.357C472.544 167.357 472.174 167.617 472.034 167.977L470.564 167.907L470.984 163.837H475.174V165.117H472.154L471.974 166.647C472.304 166.367 472.744 166.207 473.224 166.207C474.634 166.207 475.504 167.227 475.504 168.617C475.504 170.087 474.504 171.098 472.974 171.098ZM476.42 170.938C476.42 169.207 477 168.197 478.98 167.177C479.71 166.797 480.07 166.517 480.07 165.867C480.07 165.297 479.74 164.937 479.11 164.937C478.39 164.937 478.04 165.357 477.92 166.117L476.45 166.027C476.59 164.577 477.5 163.677 479.13 163.677C480.72 163.677 481.54 164.527 481.54 165.787C481.54 166.927 481.05 167.487 479.65 168.247C478.5 168.867 478.09 169.297 478.05 169.657H481.54V170.938H476.42Z" fill="black"/>
<path id="352_2" d="M20.394 171.098C18.764 171.098 17.954 170.267 17.884 168.977L19.324 168.907C19.384 169.597 19.844 169.837 20.424 169.837C21.054 169.837 21.544 169.537 21.544 168.837C21.544 168.157 21.094 167.797 20.354 167.797H19.824V166.667H20.354C20.914 166.667 21.324 166.417 21.324 165.807C21.324 165.217 20.974 164.927 20.414 164.927C19.794 164.927 19.494 165.237 19.434 165.727L17.994 165.658C18.134 164.447 18.964 163.677 20.424 163.677C21.884 163.677 22.784 164.397 22.784 165.617C22.784 166.387 22.384 166.897 21.634 167.137C22.504 167.387 23.004 168.037 23.004 168.937C23.004 170.278 21.994 171.098 20.394 171.098ZM26.4301 171.098C24.9301 171.098 24.0201 170.207 23.9201 169.037L25.3801 168.957C25.4701 169.537 25.8201 169.837 26.4301 169.837C27.0901 169.837 27.5001 169.417 27.5001 168.607C27.5001 167.817 27.0801 167.357 26.4401 167.357C26.0001 167.357 25.6301 167.617 25.4901 167.977L24.0201 167.907L24.4401 163.837H28.6301V165.117H25.6101L25.4301 166.647C25.7601 166.367 26.2001 166.207 26.6801 166.207C28.0901 166.207 28.9601 167.227 28.9601 168.617C28.9601 170.087 27.9601 171.098 26.4301 171.098ZM29.8762 170.938C29.8762 169.207 30.4562 168.197 32.4362 167.177C33.1662 166.797 33.5262 166.517 33.5262 165.867C33.5262 165.297 33.1962 164.937 32.5662 164.937C31.8462 164.937 31.4962 165.357 31.3762 166.117L29.9062 166.027C30.0462 164.577 30.9562 163.677 32.5862 163.677C34.1762 163.677 34.9962 164.527 34.9962 165.787C34.9962 166.927 34.5062 167.487 33.1062 168.247C31.9562 168.867 31.5462 169.297 31.5062 169.657H34.9962V170.938H29.8762Z" fill="black"/>
<path id="382" d="M102.64 57.0663C101.01 57.0663 100.2 56.2362 100.13 54.9462L101.57 54.8762C101.63 55.5662 102.09 55.8062 102.67 55.8062C103.3 55.8062 103.79 55.5062 103.79 54.8062C103.79 54.1262 103.34 53.7662 102.6 53.7662H102.07V52.6362H102.6C103.16 52.6362 103.57 52.3862 103.57 51.7762C103.57 51.1862 103.22 50.8962 102.66 50.8962C102.04 50.8962 101.74 51.2062 101.68 51.6962L100.24 51.6263C100.38 50.4162 101.21 49.6462 102.67 49.6462C104.13 49.6462 105.03 50.3662 105.03 51.5862C105.03 52.3562 104.63 52.8662 103.88 53.1062C104.75 53.3562 105.25 54.0062 105.25 54.9062C105.25 56.2463 104.24 57.0663 102.64 57.0663ZM108.686 57.0663C107.116 57.0663 106.066 56.3462 106.066 54.9662C106.066 54.0362 106.606 53.3762 107.476 53.0962C106.806 52.8362 106.356 52.3462 106.356 51.6062C106.356 50.4662 107.286 49.6462 108.686 49.6462C110.086 49.6462 111.016 50.4662 111.016 51.6062C111.016 52.3462 110.566 52.8362 109.886 53.0962C110.766 53.3762 111.306 54.0362 111.306 54.9662C111.306 56.3462 110.256 57.0663 108.686 57.0663ZM108.686 52.5262C109.196 52.5262 109.546 52.2562 109.546 51.6962C109.546 51.1962 109.206 50.9062 108.686 50.9062C108.166 50.9062 107.826 51.1962 107.826 51.6962C107.826 52.2562 108.176 52.5262 108.686 52.5262ZM108.686 55.8062C109.326 55.8062 109.846 55.5262 109.846 54.8262C109.846 54.1562 109.416 53.7362 108.686 53.7362C107.956 53.7362 107.526 54.1562 107.526 54.8262C107.526 55.5262 108.046 55.8062 108.686 55.8062ZM112.122 56.9062C112.122 55.1762 112.702 54.1662 114.682 53.1462C115.412 52.7662 115.772 52.4862 115.772 51.8362C115.772 51.2662 115.442 50.9062 114.812 50.9062C114.092 50.9062 113.742 51.3262 113.622 52.0862L112.152 51.9962C112.292 50.5462 113.202 49.6462 114.832 49.6462C116.422 49.6462 117.242 50.4962 117.242 51.7562C117.242 52.8962 116.752 53.4562 115.352 54.2162C114.202 54.8362 113.792 55.2662 113.752 55.6262H117.242V56.9062H112.122Z" fill="black"/>
<path id="382_2" d="M386.093 57.0663C384.463 57.0663 383.653 56.2362 383.583 54.9462L385.023 54.8762C385.083 55.5662 385.543 55.8062 386.123 55.8062C386.753 55.8062 387.243 55.5062 387.243 54.8062C387.243 54.1262 386.793 53.7662 386.053 53.7662H385.523V52.6362H386.053C386.613 52.6362 387.023 52.3862 387.023 51.7762C387.023 51.1862 386.673 50.8962 386.113 50.8962C385.493 50.8962 385.193 51.2062 385.133 51.6962L383.693 51.6263C383.833 50.4162 384.663 49.6462 386.123 49.6462C387.583 49.6462 388.483 50.3662 388.483 51.5862C388.483 52.3562 388.083 52.8662 387.333 53.1062C388.203 53.3562 388.703 54.0062 388.703 54.9062C388.703 56.2463 387.693 57.0663 386.093 57.0663ZM392.139 57.0663C390.569 57.0663 389.519 56.3462 389.519 54.9662C389.519 54.0362 390.059 53.3762 390.929 53.0962C390.259 52.8362 389.809 52.3462 389.809 51.6062C389.809 50.4662 390.739 49.6462 392.139 49.6462C393.539 49.6462 394.469 50.4662 394.469 51.6062C394.469 52.3462 394.019 52.8362 393.339 53.0962C394.219 53.3762 394.759 54.0362 394.759 54.9662C394.759 56.3462 393.709 57.0663 392.139 57.0663ZM392.139 52.5262C392.649 52.5262 392.999 52.2562 392.999 51.6962C392.999 51.1962 392.659 50.9062 392.139 50.9062C391.619 50.9062 391.279 51.1962 391.279 51.6962C391.279 52.2562 391.629 52.5262 392.139 52.5262ZM392.139 55.8062C392.779 55.8062 393.299 55.5262 393.299 54.8262C393.299 54.1562 392.869 53.7362 392.139 53.7362C391.409 53.7362 390.979 54.1562 390.979 54.8262C390.979 55.5262 391.499 55.8062 392.139 55.8062ZM395.575 56.9062C395.575 55.1762 396.155 54.1662 398.135 53.1462C398.865 52.7662 399.225 52.4862 399.225 51.8362C399.225 51.2662 398.895 50.9062 398.265 50.9062C397.545 50.9062 397.195 51.3262 397.075 52.0862L395.605 51.9962C395.745 50.5462 396.655 49.6462 398.285 49.6462C399.875 49.6462 400.695 50.4962 400.695 51.7562C400.695 52.8962 400.205 53.4562 398.805 54.2162C397.655 54.8362 397.245 55.2662 397.205 55.6262H400.695V56.9062H395.575Z" fill="black"/>
</g>
<path id="field" d="M6.7782 170.568L197.186 -18.5039H304.904L494.364 169.959L327.129 443.583C292.451 500.25 210.161 500.322 175.384 443.716L6.7782 170.568Z" fill="#27251F" fill-opacity="0.1" fill="none" stroke="#27251F" stroke-width="1.002"/>
</g>
<defs>
<clipPath id="clip0_125_6698">
<rect width="500" height="469.94" fill="white"/>
</clipPath>
</defs>
</svg>
