<svg width="500" height="470" viewBox="0 0 500 470" fill="none" xmlns="http://www.w3.org/2000/svg">
<g id="comiskey-park-1910" clip-path="url(#clip0_125_6644)">
<g id="Infield">
<path d="M339.98 327.764C339.453 325.664 322.032 258.477 250.83 258.477C180.238 258.477 162.505 324.536 161.697 327.697C161.677 327.775 161.668 327.814 161.668 327.814L236.504 402.651C235.305 404.91 234.623 407.487 234.623 410.236C234.623 419.184 241.873 426.443 250.83 426.443C259.778 426.443 267.037 419.184 267.037 410.236C267.037 407.487 266.356 404.91 265.156 402.655L260.695 397.373C257.96 395.276 254.544 394.024 250.83 394.024C247.117 394.024 243.701 395.276 240.971 397.368L197.7 354.098C201.448 350.351 201.448 344.275 197.7 340.528C197.698 340.525 197.694 340.523 197.691 340.52L244.055 294.036C247.8 297.772 253.861 297.772 257.606 294.036L303.431 339.982C303.431 339.982 303.427 339.983 303.424 339.986C299.677 343.734 300.275 350.298 304.022 354.045L260.695 397.373L265.156 402.655L339.98 327.764Z" fill="#D2D2D2"/>
<path d="M259.91 345.704C259.91 350.719 255.845 354.785 250.83 354.785C245.815 354.785 241.75 350.719 241.75 345.704C241.75 340.689 245.815 336.624 250.83 336.624C255.845 336.624 259.91 340.689 259.91 345.704Z" fill="#D2D2D2"/>
</g>
<g id="Guides">
<g id="Home">
<circle id="Ellipse 1" cx="250.827" cy="410.421" r="16.0848" fill="#D2D2D2"/>
<circle id="Ellipse 1_2" cx="250.827" cy="410.422" r="1.62919" fill="black"/>
</g>
<g id="First">
<circle id="Ellipse 1_3" cx="311.125" cy="346.535" r="10.1878" fill="#D2D2D2"/>
<circle id="Ellipse 1_4" cx="311.125" cy="346.536" r="1.0319" fill="black"/>
</g>
<g id="Third">
<circle id="Ellipse 1_5" cx="190.34" cy="346.535" r="10.1878" fill="#D2D2D2"/>
<circle id="Ellipse 1_6" cx="190.34" cy="346.536" r="1.0319" fill="black"/>
</g>
<g id="Second">
<circle id="Ellipse 1_7" cx="250.827" cy="286.672" r="10.1878" fill="#D2D2D2"/>
<circle id="Ellipse 1_8" cx="250.827" cy="286.673" r="1.0319" fill="black"/>
</g>
<g id="Mound">
<circle id="Ellipse 1_9" cx="250.827" cy="345.931" r="9.08365" fill="#D2D2D2"/>
<circle id="Ellipse 1_10" cx="250.827" cy="345.932" r="0.920062" fill="black"/>
</g>
</g>
<path id="Foul Lines" d="M500.321 161.172L250.976 410.516L1.96143 161.504" fill="none" stroke="black" stroke-width="1.002"/>
<g id="Measurements">
<path id="362" d="M474.938 165.098C473.308 165.098 472.498 164.267 472.428 162.977L473.868 162.907C473.928 163.597 474.388 163.837 474.968 163.837C475.598 163.837 476.088 163.537 476.088 162.837C476.088 162.157 475.638 161.797 474.898 161.797H474.368V160.667H474.898C475.458 160.667 475.868 160.417 475.868 159.807C475.868 159.217 475.518 158.927 474.958 158.927C474.338 158.927 474.038 159.237 473.978 159.727L472.538 159.658C472.678 158.447 473.508 157.677 474.968 157.677C476.428 157.677 477.328 158.397 477.328 159.617C477.328 160.387 476.928 160.897 476.178 161.137C477.048 161.387 477.548 162.037 477.548 162.937C477.548 164.278 476.538 165.098 474.938 165.098ZM481.004 165.098C479.274 165.098 478.364 163.927 478.364 161.867C478.364 159.517 479.174 157.677 481.264 157.677C482.664 157.677 483.314 158.437 483.574 159.457L482.134 159.557C482.034 159.197 481.804 158.937 481.264 158.937C480.524 158.937 480.004 159.447 479.844 160.667C480.184 160.367 480.664 160.147 481.294 160.147C482.704 160.147 483.604 161.097 483.604 162.527C483.604 164.107 482.574 165.098 481.004 165.098ZM480.974 163.817C481.724 163.817 482.144 163.377 482.144 162.577C482.144 161.837 481.764 161.357 481.034 161.357C480.294 161.357 479.824 161.847 479.824 162.587C479.824 163.267 480.244 163.817 480.974 163.817ZM484.42 164.938C484.42 163.207 485 162.197 486.98 161.177C487.71 160.797 488.07 160.517 488.07 159.867C488.07 159.297 487.74 158.937 487.11 158.937C486.39 158.937 486.04 159.357 485.92 160.117L484.45 160.027C484.59 158.577 485.5 157.677 487.13 157.677C488.72 157.677 489.54 158.527 489.54 159.787C489.54 160.927 489.05 161.487 487.65 162.247C486.5 162.867 486.09 163.297 486.05 163.657H489.54V164.938H484.42Z" fill="black"/>
<path id="362_2" d="M14.3939 165.098C12.7639 165.098 11.9539 164.267 11.8839 162.977L13.3239 162.907C13.3839 163.597 13.8439 163.837 14.4239 163.837C15.0539 163.837 15.5439 163.537 15.5439 162.837C15.5439 162.157 15.0939 161.797 14.3539 161.797H13.8239V160.667H14.3539C14.9139 160.667 15.3239 160.417 15.3239 159.807C15.3239 159.217 14.9739 158.927 14.4139 158.927C13.7939 158.927 13.4939 159.237 13.4339 159.727L11.9939 159.658C12.1339 158.447 12.9639 157.677 14.4239 157.677C15.8839 157.677 16.7839 158.397 16.7839 159.617C16.7839 160.387 16.3839 160.897 15.6339 161.137C16.5039 161.387 17.0039 162.037 17.0039 162.937C17.0039 164.278 15.9939 165.098 14.3939 165.098ZM20.46 165.098C18.73 165.098 17.82 163.927 17.82 161.867C17.82 159.517 18.63 157.677 20.72 157.677C22.12 157.677 22.77 158.437 23.03 159.457L21.59 159.557C21.49 159.197 21.26 158.937 20.72 158.937C19.98 158.937 19.46 159.447 19.3 160.667C19.64 160.367 20.12 160.147 20.75 160.147C22.16 160.147 23.06 161.097 23.06 162.527C23.06 164.107 22.03 165.098 20.46 165.098ZM20.43 163.817C21.18 163.817 21.6 163.377 21.6 162.577C21.6 161.837 21.22 161.357 20.49 161.357C19.75 161.357 19.28 161.847 19.28 162.587C19.28 163.267 19.7 163.817 20.43 163.817ZM23.8761 164.938C23.8761 163.207 24.4561 162.197 26.4361 161.177C27.1661 160.797 27.5261 160.517 27.5261 159.867C27.5261 159.297 27.1961 158.937 26.5661 158.937C25.8461 158.937 25.4961 159.357 25.3761 160.117L23.9061 160.027C24.0461 158.577 24.9561 157.677 26.5861 157.677C28.1761 157.677 28.9961 158.527 28.9961 159.787C28.9961 160.927 28.5061 161.487 27.1061 162.247C25.9561 162.867 25.5461 163.297 25.5061 163.657H28.9961V164.938H23.8761Z" fill="black"/>
</g>
<path id="field" d="M-2.74643 164.772L199.58 -0.574219H304.093L504.811 164.235L327.129 454.581C292.451 511.248 210.161 511.32 175.384 454.714L-2.74643 164.772Z" fill="#27251F" fill-opacity="0.1" fill="none" stroke="#27251F" stroke-width="1.002"/>
</g>
<defs>
<clipPath id="clip0_125_6644">
<rect width="500" height="469.94" fill="white"/>
</clipPath>
</defs>
</svg>
