<svg width="500" height="470" viewBox="0 0 500 470" fill="none" xmlns="http://www.w3.org/2000/svg">
<g id="comiskey-park-1983" clip-path="url(#clip0_125_6779)">
<g id="Infield">
<path d="M339.98 327.764C339.453 325.664 322.032 258.477 250.83 258.477C180.238 258.477 162.505 324.536 161.697 327.697C161.677 327.775 161.668 327.814 161.668 327.814L236.504 402.651C235.305 404.91 234.623 407.487 234.623 410.236C234.623 419.184 241.873 426.443 250.83 426.443C259.778 426.443 267.037 419.184 267.037 410.236C267.037 407.487 266.356 404.91 265.157 402.655L260.695 397.373C257.96 395.276 254.544 394.024 250.83 394.024C247.117 394.024 243.701 395.276 240.971 397.368L197.7 354.098C201.448 350.351 201.448 344.275 197.7 340.528C197.698 340.525 197.694 340.523 197.691 340.52L244.055 294.036C247.8 297.772 253.861 297.772 257.606 294.036L303.431 339.982C303.431 339.982 303.427 339.983 303.424 339.986C299.677 343.734 300.275 350.298 304.022 354.045L260.695 397.373L265.157 402.655L339.98 327.764Z" fill="#D2D2D2"/>
<path d="M259.91 345.704C259.91 350.719 255.845 354.785 250.83 354.785C245.815 354.785 241.75 350.719 241.75 345.704C241.75 340.689 245.815 336.624 250.83 336.624C255.845 336.624 259.91 340.689 259.91 345.704Z" fill="#D2D2D2"/>
</g>
<g id="Guides">
<g id="Home">
<circle id="Ellipse 1" cx="250.827" cy="410.421" r="16.0848" fill="#D2D2D2"/>
<circle id="Ellipse 1_2" cx="250.827" cy="410.422" r="1.62919" fill="black"/>
</g>
<g id="First">
<circle id="Ellipse 1_3" cx="311.125" cy="346.535" r="10.1878" fill="#D2D2D2"/>
<circle id="Ellipse 1_4" cx="311.125" cy="346.536" r="1.0319" fill="black"/>
</g>
<g id="Third">
<circle id="Ellipse 1_5" cx="190.34" cy="346.535" r="10.1878" fill="#D2D2D2"/>
<circle id="Ellipse 1_6" cx="190.34" cy="346.536" r="1.0319" fill="black"/>
</g>
<g id="Second">
<circle id="Ellipse 1_7" cx="250.827" cy="286.672" r="10.1878" fill="#D2D2D2"/>
<circle id="Ellipse 1_8" cx="250.827" cy="286.673" r="1.0319" fill="black"/>
</g>
<g id="Mound">
<circle id="Ellipse 1_9" cx="250.827" cy="345.931" r="9.08365" fill="#D2D2D2"/>
<circle id="Ellipse 1_10" cx="250.827" cy="345.932" r="0.920062" fill="black"/>
</g>
</g>
<path id="Foul Lines" d="M492.754 168.734L250.976 410.513L15.4636 175.003" fill="none" stroke="black" stroke-width="1.002"/>
<g id="Measurements">
<path id="401" d="M331.168 24.4531V23.0331H327.998V21.8631L330.978 17.3531H332.598V21.7931H333.438V23.0331H332.598V24.4531H331.168ZM329.338 21.7931H331.168V19.1431L329.338 21.7931ZM336.714 24.6131C335.114 24.6131 334.154 23.2031 334.154 20.9131C334.154 18.6131 335.114 17.1931 336.714 17.1931C338.314 17.1931 339.274 18.6131 339.274 20.9131C339.274 23.2031 338.314 24.6131 336.714 24.6131ZM335.614 20.9131C335.614 21.3431 335.644 21.7131 335.704 22.0231L337.394 18.8331C337.214 18.5831 336.984 18.4531 336.714 18.4531C336.024 18.4531 335.614 19.2731 335.614 20.9131ZM336.714 23.3531C337.404 23.3531 337.814 22.5431 337.814 20.9131C337.814 20.4831 337.784 20.1031 337.724 19.7831L336.034 22.9731C336.214 23.2231 336.444 23.3531 336.714 23.3531ZM340.19 24.4531V23.1731H342.23V19.7931H340.49V18.6131H341.27C342.07 18.6131 342.41 18.2731 342.41 17.3531H343.65V23.1731H345.23V24.4531H340.19Z" fill="black"/>
<path id="341" d="M464.938 178.098C463.308 178.098 462.498 177.267 462.428 175.977L463.868 175.907C463.928 176.597 464.388 176.837 464.968 176.837C465.598 176.837 466.088 176.537 466.088 175.837C466.088 175.157 465.638 174.797 464.898 174.797H464.368V173.667H464.898C465.458 173.667 465.868 173.417 465.868 172.807C465.868 172.217 465.518 171.927 464.958 171.927C464.338 171.927 464.038 172.237 463.978 172.727L462.538 172.658C462.678 171.447 463.508 170.677 464.968 170.677C466.428 170.677 467.328 171.397 467.328 172.617C467.328 173.387 466.928 173.897 466.178 174.137C467.048 174.387 467.548 175.037 467.548 175.937C467.548 177.278 466.538 178.098 464.938 178.098ZM471.434 177.938V176.517H468.264V175.347L471.244 170.837H472.864V175.277H473.704V176.517H472.864V177.938H471.434ZM469.604 175.277H471.434V172.627L469.604 175.277ZM474.46 177.938V176.657H476.5V173.277H474.76V172.097H475.54C476.34 172.097 476.68 171.757 476.68 170.837H477.92V176.657H479.5V177.938H474.46Z" fill="black"/>
<path id="341_2" d="M25.3938 178.098C23.7638 178.098 22.9538 177.267 22.8838 175.977L24.3238 175.907C24.3838 176.597 24.8438 176.837 25.4238 176.837C26.0538 176.837 26.5438 176.537 26.5438 175.837C26.5438 175.157 26.0938 174.797 25.3538 174.797H24.8238V173.667H25.3538C25.9138 173.667 26.3238 173.417 26.3238 172.807C26.3238 172.217 25.9738 171.927 25.4138 171.927C24.7938 171.927 24.4938 172.237 24.4338 172.727L22.9938 172.658C23.1338 171.447 23.9638 170.677 25.4238 170.677C26.8838 170.677 27.7838 171.397 27.7838 172.617C27.7838 173.387 27.3838 173.897 26.6338 174.137C27.5038 174.387 28.0038 175.037 28.0038 175.937C28.0038 177.278 26.9938 178.098 25.3938 178.098ZM31.8899 177.938V176.517H28.7199V175.347L31.6999 170.837H33.3199V175.277H34.1599V176.517H33.3199V177.938H31.8899ZM30.0599 175.277H31.8899V172.627L30.0599 175.277ZM34.916 177.938V176.657H36.956V173.277H35.216V172.097H35.996C36.796 172.097 37.136 171.757 37.136 170.837H38.376V176.657H39.956V177.938H34.916Z" fill="black"/>
<path id="374" d="M91.5862 78.5936C89.9562 78.5936 89.1462 77.7636 89.0762 76.4736L90.5162 76.4036C90.5762 77.0936 91.0362 77.3336 91.6162 77.3336C92.2462 77.3336 92.7362 77.0336 92.7362 76.3336C92.7362 75.6536 92.2862 75.2936 91.5462 75.2936H91.0162V74.1636H91.5462C92.1062 74.1636 92.5162 73.9136 92.5162 73.3036C92.5162 72.7136 92.1662 72.4236 91.6062 72.4236C90.9862 72.4236 90.6862 72.7336 90.6262 73.2236L89.1862 73.1536C89.3262 71.9436 90.1562 71.1736 91.6162 71.1736C93.0762 71.1736 93.9762 71.8936 93.9762 73.1136C93.9762 73.8836 93.5762 74.3936 92.8262 74.6336C93.6962 74.8836 94.1962 75.5336 94.1962 76.4336C94.1962 77.7736 93.1862 78.5936 91.5862 78.5936ZM96.3023 78.4336C96.3023 76.2836 97.2023 74.3236 98.6723 72.6136H95.1723V71.3336H100.092V72.5436C98.4623 74.4036 97.7923 75.9936 97.7923 78.4336H96.3023ZM104.078 78.4336V77.0136H100.908V75.8436L103.888 71.3336H105.508V75.7736H106.348V77.0136H105.508V78.4336H104.078ZM102.248 75.7736H104.078V73.1236L102.248 75.7736Z" fill="black"/>
<path id="374_2" d="M395.093 78.5936C393.463 78.5936 392.653 77.7636 392.583 76.4736L394.023 76.4036C394.083 77.0936 394.543 77.3336 395.123 77.3336C395.753 77.3336 396.243 77.0336 396.243 76.3336C396.243 75.6536 395.793 75.2936 395.053 75.2936H394.523V74.1636H395.053C395.613 74.1636 396.023 73.9136 396.023 73.3036C396.023 72.7136 395.673 72.4236 395.113 72.4236C394.493 72.4236 394.193 72.7336 394.133 73.2236L392.693 73.1536C392.833 71.9436 393.663 71.1736 395.123 71.1736C396.583 71.1736 397.483 71.8936 397.483 73.1136C397.483 73.8836 397.083 74.3936 396.333 74.6336C397.203 74.8836 397.703 75.5336 397.703 76.4336C397.703 77.7736 396.693 78.5936 395.093 78.5936ZM399.809 78.4336C399.809 76.2836 400.709 74.3236 402.179 72.6136H398.679V71.3336H403.599V72.5436C401.969 74.4036 401.299 75.9936 401.299 78.4336H399.809ZM407.585 78.4336V77.0136H404.415V75.8436L407.395 71.3336H409.015V75.7736H409.855V77.0136H409.015V78.4336H407.585ZM405.755 75.7736H407.585V73.1236L405.755 75.7736Z" fill="black"/>
<path id="401_2" d="M159.006 24.4531V23.0331H155.836V21.8631L158.816 17.3531H160.436V21.7931H161.276V23.0331H160.436V24.4531H159.006ZM157.176 21.7931H159.006V19.1431L157.176 21.7931ZM164.552 24.6131C162.952 24.6131 161.992 23.2031 161.992 20.9131C161.992 18.6131 162.952 17.1931 164.552 17.1931C166.152 17.1931 167.112 18.6131 167.112 20.9131C167.112 23.2031 166.152 24.6131 164.552 24.6131ZM163.452 20.9131C163.452 21.3431 163.482 21.7131 163.542 22.0231L165.232 18.8331C165.052 18.5831 164.822 18.4531 164.552 18.4531C163.862 18.4531 163.452 19.2731 163.452 20.9131ZM164.552 23.3531C165.242 23.3531 165.652 22.5431 165.652 20.9131C165.652 20.4831 165.622 20.1031 165.562 19.7831L163.872 22.9731C164.052 23.2231 164.282 23.3531 164.552 23.3531ZM168.028 24.4531V23.1731H170.068V19.7931H168.328V18.6131H169.108C169.908 18.6131 170.248 18.2731 170.248 17.3531H171.488V23.1731H173.068V24.4531H168.028Z" fill="black"/>
</g>
<path id="field" d="M6.96826 183.566L162.263 28.5159L339.68 28.5156L494.589 182.858L336.863 428.425L331.955 425.853L310.128 456.484C281.063 497.272 220.494 497.346 191.33 456.628L169.287 425.853L165.487 428.425L6.96826 183.566Z" fill="#27251F" fill-opacity="0.1" fill="none" stroke="#27251F" stroke-width="1.002"/>
</g>
<defs>
<clipPath id="clip0_125_6779">
<rect width="500" height="469.94" fill="white"/>
</clipPath>
</defs>
</svg>
