<svg width="500" height="470" viewBox="0 0 500 470" fill="none" xmlns="http://www.w3.org/2000/svg">
<g id="coors-field-2014" clip-path="url(#clip0_93_2576)">
<g id="Infield">
<path d="M339.98 327.766C339.453 325.666 322.032 258.479 250.83 258.479C180.238 258.479 162.505 324.538 161.697 327.699C161.677 327.776 161.668 327.816 161.668 327.816L236.504 402.653C235.305 404.912 234.623 407.489 234.623 410.238C234.623 419.186 241.873 426.445 250.83 426.445C259.778 426.445 267.037 419.186 267.037 410.238C267.037 407.489 266.356 404.912 265.156 402.657L260.695 397.375C257.96 395.278 254.544 394.026 250.83 394.026C247.117 394.026 243.701 395.278 240.971 397.37L197.7 354.1C201.448 350.353 201.448 344.277 197.7 340.53C197.698 340.527 197.694 340.525 197.691 340.522L244.055 294.038C247.8 297.773 253.861 297.773 257.606 294.038L303.431 339.984C303.431 339.984 303.427 339.985 303.424 339.988C299.677 343.736 300.275 350.3 304.022 354.047L260.695 397.375L265.156 402.657L339.98 327.766Z" fill="#D2D2D2"/>
<path d="M259.91 345.706C259.91 350.721 255.845 354.787 250.83 354.787C245.815 354.787 241.75 350.721 241.75 345.706C241.75 340.691 245.815 336.626 250.83 336.626C255.845 336.626 259.91 340.691 259.91 345.706Z" fill="#D2D2D2"/>
</g>
<g id="Guides">
<g id="Home">
<circle id="Ellipse 1" cx="250.827" cy="410.419" r="16.0848" fill="#D2D2D2"/>
<circle id="Ellipse 1_2" cx="250.827" cy="410.418" r="1.62919" fill="black"/>
</g>
<g id="First">
<circle id="Ellipse 1_3" cx="311.125" cy="346.532" r="10.1878" fill="#D2D2D2"/>
<circle id="Ellipse 1_4" cx="311.125" cy="346.532" r="1.0319" fill="black"/>
</g>
<g id="Third">
<circle id="Ellipse 1_5" cx="190.34" cy="346.532" r="10.1878" fill="#D2D2D2"/>
<circle id="Ellipse 1_6" cx="190.34" cy="346.532" r="1.0319" fill="black"/>
</g>
<g id="Second">
<circle id="Ellipse 1_7" cx="250.827" cy="286.67" r="10.1878" fill="#D2D2D2"/>
<circle id="Ellipse 1_8" cx="250.827" cy="286.671" r="1.0319" fill="black"/>
</g>
<g id="Mound">
<circle id="Ellipse 1_9" cx="250.827" cy="345.929" r="9.08365" fill="#D2D2D2"/>
<circle id="Ellipse 1_10" cx="250.827" cy="345.93" r="0.920062" fill="black"/>
</g>
</g>
<path id="Foul Lines" d="M494.486 167.006L250.976 410.516L10.2837 169.825" fill="none" stroke="black" stroke-width="1.002"/>
<g id="Measurements">
<path id="415" d="M237.203 0.699219V-0.720781H234.033V-1.89078L237.013 -6.40078H238.633V-1.96078H239.473V-0.720781H238.633V0.699219H237.203ZM235.373 -1.96078H237.203V-4.61078L235.373 -1.96078ZM240.229 0.699219V-0.580781H242.269V-3.96078H240.529V-5.14078H241.309C242.109 -5.14078 242.449 -5.48078 242.449 -6.40078H243.689V-0.580781H245.269V0.699219H240.229ZM248.735 0.859219C247.235 0.859219 246.325 -0.0307813 246.225 -1.20078L247.685 -1.28078C247.775 -0.700781 248.125 -0.400781 248.735 -0.400781C249.395 -0.400781 249.805 -0.820781 249.805 -1.63078C249.805 -2.42078 249.385 -2.88078 248.745 -2.88078C248.305 -2.88078 247.935 -2.62078 247.795 -2.26078L246.325 -2.33078L246.745 -6.40078H250.935V-5.12078H247.915L247.735 -3.59078C248.065 -3.87078 248.505 -4.03078 248.985 -4.03078C250.395 -4.03078 251.265 -3.01078 251.265 -1.62078C251.265 -0.150781 250.265 0.859219 248.735 0.859219Z" fill="black"/>
<path id="375" d="M404.696 69.2049C403.066 69.2049 402.256 68.3749 402.186 67.0849L403.626 67.0149C403.686 67.7049 404.146 67.9449 404.726 67.9449C405.356 67.9449 405.846 67.6449 405.846 66.9449C405.846 66.2649 405.396 65.9049 404.656 65.9049H404.126V64.7749H404.656C405.216 64.7749 405.626 64.5249 405.626 63.9149C405.626 63.3249 405.276 63.0349 404.716 63.0349C404.096 63.0349 403.796 63.3449 403.736 63.8349L402.296 63.7649C402.436 62.5549 403.266 61.7849 404.726 61.7849C406.186 61.7849 407.086 62.5049 407.086 63.7249C407.086 64.4949 406.686 65.0049 405.936 65.2449C406.806 65.4949 407.306 66.1449 407.306 67.0449C407.306 68.3849 406.296 69.2049 404.696 69.2049ZM409.412 69.0449C409.412 66.8949 410.312 64.9349 411.782 63.2249H408.282V61.9449H413.202V63.1549C411.572 65.0149 410.902 66.6049 410.902 69.0449H409.412ZM416.728 69.2049C415.228 69.2049 414.318 68.3149 414.218 67.1449L415.678 67.0649C415.768 67.6449 416.118 67.9449 416.728 67.9449C417.388 67.9449 417.798 67.5249 417.798 66.7149C417.798 65.9249 417.378 65.4649 416.738 65.4649C416.298 65.4649 415.928 65.7249 415.788 66.0849L414.318 66.0149L414.738 61.9449H418.928V63.2249H415.908L415.728 64.7549C416.058 64.4749 416.498 64.3149 416.978 64.3149C418.388 64.3149 419.258 65.3349 419.258 66.7249C419.258 68.1949 418.258 69.2049 416.728 69.2049Z" fill="black"/>
<path id="390" d="M96.9901 50.2049C95.3601 50.2049 94.5501 49.3749 94.4801 48.0849L95.9201 48.0149C95.9801 48.7049 96.4401 48.9449 97.0201 48.9449C97.6501 48.9449 98.1401 48.6449 98.1401 47.9449C98.1401 47.2649 97.6901 46.9049 96.9501 46.9049H96.4201V45.7749H96.9501C97.5101 45.7749 97.9201 45.5249 97.9201 44.9149C97.9201 44.3249 97.5701 44.0349 97.0101 44.0349C96.3901 44.0349 96.0901 44.3449 96.0301 44.8349L94.5901 44.7649C94.7301 43.5549 95.5601 42.7849 97.0201 42.7849C98.4801 42.7849 99.3801 43.5049 99.3801 44.7249C99.3801 45.4949 98.9801 46.0049 98.2301 46.2449C99.1001 46.4949 99.6001 47.1449 99.6001 48.0449C99.6001 49.3849 98.5901 50.2049 96.9901 50.2049ZM103.016 42.7849C104.746 42.7849 105.656 43.9549 105.656 46.0149C105.656 48.3649 104.846 50.2049 102.756 50.2049C101.356 50.2049 100.706 49.4449 100.446 48.4249L101.886 48.3249C101.986 48.6849 102.216 48.9449 102.756 48.9449C103.496 48.9449 104.016 48.4349 104.176 47.2149C103.836 47.5149 103.356 47.7349 102.726 47.7349C101.316 47.7349 100.416 46.7849 100.416 45.3549C100.416 43.7749 101.446 42.7849 103.016 42.7849ZM103.046 44.0649C102.296 44.0649 101.876 44.5049 101.876 45.3049C101.876 46.0449 102.256 46.5249 102.986 46.5249C103.726 46.5249 104.196 46.0349 104.196 45.2949C104.196 44.6149 103.776 44.0649 103.046 44.0649ZM109.032 50.2049C107.432 50.2049 106.472 48.7949 106.472 46.5049C106.472 44.2049 107.432 42.7849 109.032 42.7849C110.632 42.7849 111.592 44.2049 111.592 46.5049C111.592 48.7949 110.632 50.2049 109.032 50.2049ZM107.932 46.5049C107.932 46.9349 107.962 47.3049 108.022 47.6149L109.712 44.4249C109.532 44.1749 109.302 44.0449 109.032 44.0449C108.342 44.0449 107.932 44.8649 107.932 46.5049ZM109.032 48.9449C109.722 48.9449 110.132 48.1349 110.132 46.5049C110.132 46.0749 110.102 45.6949 110.042 45.3749L108.352 48.5649C108.532 48.8149 108.762 48.9449 109.032 48.9449Z" fill="black"/>
<path id="350" d="M475.938 164.098C474.308 164.098 473.498 163.267 473.428 161.977L474.868 161.907C474.928 162.597 475.388 162.837 475.968 162.837C476.598 162.837 477.088 162.537 477.088 161.837C477.088 161.157 476.638 160.797 475.898 160.797H475.368V159.667H475.898C476.458 159.667 476.868 159.417 476.868 158.807C476.868 158.217 476.518 157.927 475.958 157.927C475.338 157.927 475.038 158.237 474.978 158.727L473.538 158.658C473.678 157.447 474.508 156.677 475.968 156.677C477.428 156.677 478.328 157.397 478.328 158.617C478.328 159.387 477.928 159.897 477.178 160.137C478.048 160.387 478.548 161.037 478.548 161.937C478.548 163.278 477.538 164.098 475.938 164.098ZM481.974 164.098C480.474 164.098 479.564 163.207 479.464 162.037L480.924 161.957C481.014 162.537 481.364 162.837 481.974 162.837C482.634 162.837 483.044 162.417 483.044 161.607C483.044 160.817 482.624 160.357 481.984 160.357C481.544 160.357 481.174 160.617 481.034 160.977L479.564 160.907L479.984 156.837H484.174V158.117H481.154L480.974 159.647C481.304 159.367 481.744 159.207 482.224 159.207C483.634 159.207 484.504 160.227 484.504 161.617C484.504 163.087 483.504 164.098 481.974 164.098ZM487.98 164.098C486.38 164.098 485.42 162.688 485.42 160.397C485.42 158.097 486.38 156.677 487.98 156.677C489.58 156.677 490.54 158.097 490.54 160.397C490.54 162.688 489.58 164.098 487.98 164.098ZM486.88 160.397C486.88 160.827 486.91 161.197 486.97 161.507L488.66 158.317C488.48 158.067 488.25 157.937 487.98 157.937C487.29 157.937 486.88 158.757 486.88 160.397ZM487.98 162.837C488.67 162.837 489.08 162.027 489.08 160.397C489.08 159.967 489.05 159.587 488.99 159.267L487.3 162.457C487.48 162.707 487.71 162.837 487.98 162.837Z" fill="black"/>
<path id="347" d="M20.5783 171.598C18.9483 171.598 18.1383 170.767 18.0683 169.477L19.5083 169.407C19.5683 170.097 20.0283 170.337 20.6083 170.337C21.2383 170.337 21.7283 170.037 21.7283 169.337C21.7283 168.657 21.2783 168.297 20.5383 168.297H20.0083V167.167H20.5383C21.0983 167.167 21.5083 166.917 21.5083 166.307C21.5083 165.717 21.1583 165.427 20.5983 165.427C19.9783 165.427 19.6783 165.737 19.6183 166.227L18.1783 166.158C18.3183 164.947 19.1483 164.177 20.6083 164.177C22.0683 164.177 22.9683 164.897 22.9683 166.117C22.9683 166.887 22.5683 167.397 21.8183 167.637C22.6883 167.887 23.1883 168.537 23.1883 169.437C23.1883 170.778 22.1783 171.598 20.5783 171.598ZM27.0744 171.438V170.017H23.9044V168.847L26.8844 164.337H28.5044V168.777H29.3444V170.017H28.5044V171.438H27.0744ZM25.2444 168.777H27.0744V166.127L25.2444 168.777ZM31.2905 171.438C31.2905 169.287 32.1905 167.327 33.6605 165.617H30.1605V164.337H35.0805V165.547C33.4505 167.407 32.7805 168.997 32.7805 171.438H31.2905Z" fill="black"/>
</g>
<path id="field" d="M3.51508 177.317L150.735 8.83398L321.529 1.81055L493.833 152.876L495.119 180.962L448.167 227.485V238.419L401.429 324.177L291.684 445.776L288.838 442.929C268.532 465.428 233.203 465.36 212.985 442.783L210.15 445.618L98.7057 321.175L42.5347 217.838L3.51508 177.317Z" fill="#333366" fill-opacity="0.1" fill="none" stroke="#333366" stroke-width="1.002"/>
</g>
<defs>
<clipPath id="clip0_93_2576">
<rect width="500" height="469.94" fill="white"/>
</clipPath>
</defs>
</svg>
