<svg width="500" height="470" viewBox="0 0 500 470" fill="none" xmlns="http://www.w3.org/2000/svg">
<g id="crosley-field-1939" clip-path="url(#clip0_114_5219)">
<path id="field" d="M21.845 190.155L98.6937 69.4688H107.353L146.454 45.7918V39.9752L308.976 33.9531L514.481 166.129V190.744L509.678 191.464L490.038 226.342L473.773 217.305L430.93 258.475L375.79 363.995L323.322 445.563L329.654 450.357L306.885 483.181L300.675 477.562C277.306 508.097 231.126 507.521 208.527 476.412L204.421 470.761L198.655 476.083L176.625 442.964L184.313 437.493L105.729 316.658L24.145 239.403L43.4925 211.667L21.845 190.155Z" fill="#BA0021" fill-opacity="0.1" fill="none" stroke="#BA0021" stroke-width="1.002"/>
<g id="Infield">
<path d="M339.98 327.764C339.453 325.664 322.032 258.477 250.83 258.477C180.238 258.477 162.505 324.536 161.697 327.697C161.677 327.775 161.668 327.814 161.668 327.814L236.504 402.651C235.305 404.91 234.623 407.487 234.623 410.236C234.623 419.184 241.873 426.443 250.83 426.443C259.778 426.443 267.037 419.184 267.037 410.236C267.037 407.487 266.356 404.91 265.157 402.655L260.695 397.373C257.96 395.276 254.544 394.024 250.83 394.024C247.117 394.024 243.701 395.276 240.971 397.368L197.7 354.098C201.448 350.351 201.448 344.275 197.7 340.528C197.698 340.525 197.694 340.523 197.691 340.52L244.055 294.036C247.8 297.772 253.861 297.772 257.606 294.036L303.431 339.982C303.431 339.982 303.427 339.983 303.424 339.986C299.677 343.734 300.275 350.298 304.022 354.045L260.695 397.373L265.157 402.655L339.98 327.764Z" fill="#D2D2D2"/>
<path d="M259.91 345.704C259.91 350.719 255.845 354.785 250.83 354.785C245.815 354.785 241.75 350.719 241.75 345.704C241.75 340.689 245.815 336.624 250.83 336.624C255.845 336.624 259.91 340.689 259.91 345.704Z" fill="#D2D2D2"/>
</g>
<g id="Guides">
<g id="Home">
<circle id="Ellipse 1" cx="250.827" cy="410.421" r="16.0848" fill="#D2D2D2"/>
<circle id="Ellipse 1_2" cx="250.827" cy="410.422" r="1.62919" fill="black"/>
</g>
<g id="First">
<circle id="Ellipse 1_3" cx="311.125" cy="346.535" r="10.1878" fill="#D2D2D2"/>
<circle id="Ellipse 1_4" cx="311.125" cy="346.536" r="1.0319" fill="black"/>
</g>
<g id="Third">
<circle id="Ellipse 1_5" cx="190.34" cy="346.535" r="10.1878" fill="#D2D2D2"/>
<circle id="Ellipse 1_6" cx="190.34" cy="346.536" r="1.0319" fill="black"/>
</g>
<g id="Second">
<circle id="Ellipse 1_7" cx="250.827" cy="286.672" r="10.1878" fill="#D2D2D2"/>
<circle id="Ellipse 1_8" cx="250.827" cy="286.673" r="1.0319" fill="black"/>
</g>
<g id="Mound">
<circle id="Ellipse 1_9" cx="250.827" cy="345.931" r="9.08365" fill="#D2D2D2"/>
<circle id="Ellipse 1_10" cx="250.827" cy="345.932" r="0.920062" fill="black"/>
</g>
</g>
<path id="Foul Lines" d="M502.802 158.688L250.976 410.513L25.3157 184.854" fill="none" stroke="black" stroke-width="1.002"/>
<g id="Measurements">
<path id="387" d="M292.893 30.6717C291.263 30.6717 290.453 29.8417 290.383 28.5517L291.823 28.4817C291.883 29.1717 292.343 29.4117 292.923 29.4117C293.553 29.4117 294.043 29.1117 294.043 28.4117C294.043 27.7317 293.593 27.3717 292.853 27.3717H292.323V26.2417H292.853C293.413 26.2417 293.823 25.9917 293.823 25.3817C293.823 24.7917 293.473 24.5017 292.913 24.5017C292.293 24.5017 291.993 24.8117 291.933 25.3017L290.493 25.2317C290.633 24.0217 291.463 23.2517 292.923 23.2517C294.383 23.2517 295.283 23.9717 295.283 25.1917C295.283 25.9617 294.883 26.4717 294.133 26.7117C295.003 26.9617 295.503 27.6117 295.503 28.5117C295.503 29.8517 294.493 30.6717 292.893 30.6717ZM298.939 30.6717C297.369 30.6717 296.319 29.9517 296.319 28.5717C296.319 27.6417 296.859 26.9817 297.729 26.7017C297.059 26.4417 296.609 25.9517 296.609 25.2117C296.609 24.0717 297.539 23.2517 298.939 23.2517C300.339 23.2517 301.269 24.0717 301.269 25.2117C301.269 25.9517 300.819 26.4417 300.139 26.7017C301.019 26.9817 301.559 27.6417 301.559 28.5717C301.559 29.9517 300.509 30.6717 298.939 30.6717ZM298.939 26.1317C299.449 26.1317 299.799 25.8617 299.799 25.3017C299.799 24.8017 299.459 24.5117 298.939 24.5117C298.419 24.5117 298.079 24.8017 298.079 25.3017C298.079 25.8617 298.429 26.1317 298.939 26.1317ZM298.939 29.4117C299.579 29.4117 300.099 29.1317 300.099 28.4317C300.099 27.7617 299.669 27.3417 298.939 27.3417C298.209 27.3417 297.779 27.7617 297.779 28.4317C297.779 29.1317 298.299 29.4117 298.939 29.4117ZM303.605 30.5117C303.605 28.3617 304.505 26.4017 305.975 24.6917H302.475V23.4117H307.395V24.6217C305.765 26.4817 305.095 28.0717 305.095 30.5117H303.605Z" fill="black"/>
<path id="382" d="M79.1868 74.9569C77.5568 74.9569 76.7468 74.1269 76.6768 72.8369L78.1168 72.7669C78.1768 73.4569 78.6368 73.6969 79.2168 73.6969C79.8468 73.6969 80.3368 73.3969 80.3368 72.6969C80.3368 72.0169 79.8868 71.6569 79.1468 71.6569H78.6168V70.5269H79.1468C79.7068 70.5269 80.1168 70.2769 80.1168 69.6669C80.1168 69.0769 79.7668 68.7869 79.2068 68.7869C78.5868 68.7869 78.2868 69.0969 78.2268 69.5869L76.7868 69.5169C76.9268 68.3069 77.7568 67.5369 79.2168 67.5369C80.6768 67.5369 81.5768 68.2569 81.5768 69.4769C81.5768 70.2469 81.1768 70.7569 80.4268 70.9969C81.2968 71.2469 81.7968 71.8969 81.7968 72.7969C81.7968 74.1369 80.7868 74.9569 79.1868 74.9569ZM85.2329 74.9569C83.6629 74.9569 82.6129 74.2369 82.6129 72.8569C82.6129 71.9269 83.1529 71.2669 84.0229 70.9869C83.3529 70.7269 82.9029 70.2369 82.9029 69.4969C82.9029 68.3569 83.8329 67.5369 85.2329 67.5369C86.6329 67.5369 87.5629 68.3569 87.5629 69.4969C87.5629 70.2369 87.1129 70.7269 86.4329 70.9869C87.3129 71.2669 87.8529 71.9269 87.8529 72.8569C87.8529 74.2369 86.8029 74.9569 85.2329 74.9569ZM85.2329 70.4169C85.7429 70.4169 86.0929 70.1469 86.0929 69.5869C86.0929 69.0869 85.7529 68.7969 85.2329 68.7969C84.7129 68.7969 84.3729 69.0869 84.3729 69.5869C84.3729 70.1469 84.7229 70.4169 85.2329 70.4169ZM85.2329 73.6969C85.8729 73.6969 86.3929 73.4169 86.3929 72.7169C86.3929 72.0469 85.9629 71.6269 85.2329 71.6269C84.5029 71.6269 84.0729 72.0469 84.0729 72.7169C84.0729 73.4169 84.5929 73.6969 85.2329 73.6969ZM88.669 74.7969C88.669 73.0669 89.249 72.0569 91.229 71.0369C91.959 70.6569 92.319 70.3769 92.319 69.7269C92.319 69.1569 91.989 68.7969 91.359 68.7969C90.639 68.7969 90.289 69.2169 90.169 69.9769L88.699 69.8869C88.839 68.4369 89.749 67.5369 91.379 67.5369C92.969 67.5369 93.789 68.3869 93.789 69.6469C93.789 70.7869 93.299 71.3469 91.899 72.1069C90.749 72.7269 90.339 73.1569 90.299 73.5169H93.789V74.7969H88.669Z" fill="black"/>
<path id="366" d="M478.938 164.098C477.308 164.098 476.498 163.267 476.428 161.977L477.868 161.907C477.928 162.597 478.388 162.837 478.968 162.837C479.598 162.837 480.088 162.537 480.088 161.837C480.088 161.157 479.638 160.797 478.898 160.797H478.368V159.667H478.898C479.458 159.667 479.868 159.417 479.868 158.807C479.868 158.217 479.518 157.927 478.958 157.927C478.338 157.927 478.038 158.237 477.978 158.727L476.538 158.658C476.678 157.447 477.508 156.677 478.968 156.677C480.428 156.677 481.328 157.397 481.328 158.617C481.328 159.387 480.928 159.897 480.178 160.137C481.048 160.387 481.548 161.037 481.548 161.937C481.548 163.278 480.538 164.098 478.938 164.098ZM485.004 164.098C483.274 164.098 482.364 162.927 482.364 160.867C482.364 158.517 483.174 156.677 485.264 156.677C486.664 156.677 487.314 157.437 487.574 158.457L486.134 158.557C486.034 158.197 485.804 157.937 485.264 157.937C484.524 157.937 484.004 158.447 483.844 159.667C484.184 159.367 484.664 159.147 485.294 159.147C486.704 159.147 487.604 160.097 487.604 161.527C487.604 163.107 486.574 164.098 485.004 164.098ZM484.974 162.817C485.724 162.817 486.144 162.377 486.144 161.577C486.144 160.837 485.764 160.357 485.034 160.357C484.294 160.357 483.824 160.847 483.824 161.587C483.824 162.267 484.244 162.817 484.974 162.817ZM491 164.098C489.27 164.098 488.36 162.927 488.36 160.867C488.36 158.517 489.17 156.677 491.26 156.677C492.66 156.677 493.31 157.437 493.57 158.457L492.13 158.557C492.03 158.197 491.8 157.937 491.26 157.937C490.52 157.937 490 158.447 489.84 159.667C490.18 159.367 490.66 159.147 491.29 159.147C492.7 159.147 493.6 160.097 493.6 161.527C493.6 163.107 492.57 164.098 491 164.098ZM490.97 162.817C491.72 162.817 492.14 162.377 492.14 161.577C492.14 160.837 491.76 160.357 491.03 160.357C490.29 160.357 489.82 160.847 489.82 161.587C489.82 162.267 490.24 162.817 490.97 162.817Z" fill="black"/>
<path id="328" d="M32.776 187.187C31.146 187.187 30.336 186.357 30.266 185.067L31.706 184.997C31.766 185.687 32.226 185.927 32.806 185.927C33.4361 185.927 33.9261 185.627 33.9261 184.927C33.9261 184.247 33.476 183.887 32.736 183.887H32.206V182.757H32.736C33.296 182.757 33.706 182.507 33.706 181.897C33.706 181.307 33.356 181.017 32.7961 181.017C32.176 181.017 31.876 181.327 31.816 181.817L30.376 181.747C30.516 180.537 31.346 179.767 32.806 179.767C34.2661 179.767 35.1661 180.487 35.1661 181.707C35.1661 182.477 34.766 182.987 34.0161 183.227C34.8861 183.477 35.3861 184.127 35.3861 185.027C35.3861 186.367 34.376 187.187 32.776 187.187ZM36.2621 187.027C36.2621 185.297 36.8421 184.287 38.8221 183.267C39.5521 182.887 39.9121 182.607 39.9121 181.957C39.9121 181.387 39.5821 181.027 38.9521 181.027C38.2321 181.027 37.8821 181.447 37.7621 182.207L36.2921 182.117C36.4321 180.667 37.3421 179.767 38.9721 179.767C40.5621 179.767 41.3821 180.617 41.3821 181.877C41.3821 183.017 40.8921 183.577 39.4921 184.337C38.3421 184.957 37.9321 185.387 37.8921 185.747H41.3821V187.027H36.2621ZM44.8182 187.187C43.2482 187.187 42.1982 186.467 42.1982 185.087C42.1982 184.157 42.7382 183.497 43.6082 183.217C42.9382 182.957 42.4882 182.467 42.4882 181.727C42.4882 180.587 43.4182 179.767 44.8182 179.767C46.2182 179.767 47.1482 180.587 47.1482 181.727C47.1482 182.467 46.6982 182.957 46.0182 183.217C46.8982 183.497 47.4382 184.157 47.4382 185.087C47.4382 186.467 46.3882 187.187 44.8182 187.187ZM44.8182 182.647C45.3282 182.647 45.6782 182.377 45.6782 181.817C45.6782 181.317 45.3382 181.027 44.8182 181.027C44.2982 181.027 43.9582 181.317 43.9582 181.817C43.9582 182.377 44.3082 182.647 44.8182 182.647ZM44.8182 185.927C45.4582 185.927 45.9782 185.647 45.9782 184.947C45.9782 184.277 45.5482 183.857 44.8182 183.857C44.0882 183.857 43.6582 184.277 43.6582 184.947C43.6582 185.647 44.1782 185.927 44.8182 185.927Z" fill="black"/>
</g>
</g>
<defs>
<clipPath id="clip0_114_5219">
<rect width="500" height="469.94" fill="white"/>
</clipPath>
</defs>
</svg>
