<svg width="500" height="470" viewBox="0 0 500 470" fill="none" xmlns="http://www.w3.org/2000/svg">
<g id="crosley-field-1942" clip-path="url(#clip0_114_5246)">
<g id="Infield">
<path d="M339.98 327.764C339.453 325.664 322.032 258.477 250.83 258.477C180.238 258.477 162.505 324.536 161.697 327.697C161.677 327.775 161.668 327.814 161.668 327.814L236.504 402.651C235.305 404.91 234.623 407.487 234.623 410.236C234.623 419.184 241.873 426.443 250.83 426.443C259.778 426.443 267.037 419.184 267.037 410.236C267.037 407.487 266.356 404.91 265.157 402.655L260.695 397.373C257.96 395.276 254.544 394.024 250.83 394.024C247.117 394.024 243.701 395.276 240.971 397.368L197.7 354.098C201.448 350.351 201.448 344.275 197.7 340.528C197.698 340.525 197.694 340.523 197.691 340.52L244.055 294.036C247.8 297.772 253.861 297.772 257.606 294.036L303.431 339.982C303.431 339.982 303.427 339.983 303.424 339.986C299.677 343.734 300.275 350.298 304.022 354.045L260.695 397.373L265.157 402.655L339.98 327.764Z" fill="#D2D2D2"/>
<path d="M259.91 345.704C259.91 350.719 255.845 354.785 250.83 354.785C245.815 354.785 241.75 350.719 241.75 345.704C241.75 340.689 245.815 336.624 250.83 336.624C255.845 336.624 259.91 340.689 259.91 345.704Z" fill="#D2D2D2"/>
</g>
<g id="Guides">
<g id="Home">
<circle id="Ellipse 1" cx="250.827" cy="410.421" r="16.0848" fill="#D2D2D2"/>
<circle id="Ellipse 1_2" cx="250.827" cy="410.422" r="1.62919" fill="black"/>
</g>
<g id="First">
<circle id="Ellipse 1_3" cx="311.125" cy="346.535" r="10.1878" fill="#D2D2D2"/>
<circle id="Ellipse 1_4" cx="311.125" cy="346.536" r="1.0319" fill="black"/>
</g>
<g id="Third">
<circle id="Ellipse 1_5" cx="190.34" cy="346.535" r="10.1878" fill="#D2D2D2"/>
<circle id="Ellipse 1_6" cx="190.34" cy="346.536" r="1.0319" fill="black"/>
</g>
<g id="Second">
<circle id="Ellipse 1_7" cx="250.827" cy="286.672" r="10.1878" fill="#D2D2D2"/>
<circle id="Ellipse 1_8" cx="250.827" cy="286.673" r="1.0319" fill="black"/>
</g>
<g id="Mound">
<circle id="Ellipse 1_9" cx="250.827" cy="345.931" r="9.08365" fill="#D2D2D2"/>
<circle id="Ellipse 1_10" cx="250.827" cy="345.932" r="0.920062" fill="black"/>
</g>
</g>
<path id="Foul Lines" d="M487.859 173.629L250.976 410.513L25.3157 184.853" fill="none" stroke="black" stroke-width="1.002"/>
<g id="Measurements">
<path id="387" d="M279.568 33.0077C277.938 33.0077 277.128 32.1777 277.058 30.8877L278.498 30.8177C278.558 31.5077 279.018 31.7477 279.598 31.7477C280.228 31.7477 280.718 31.4477 280.718 30.7477C280.718 30.0677 280.268 29.7077 279.528 29.7077H278.998V28.5777H279.528C280.088 28.5777 280.498 28.3277 280.498 27.7177C280.498 27.1277 280.148 26.8377 279.588 26.8377C278.968 26.8377 278.668 27.1477 278.608 27.6377L277.168 27.5677C277.308 26.3577 278.138 25.5877 279.598 25.5877C281.058 25.5877 281.958 26.3077 281.958 27.5277C281.958 28.2977 281.558 28.8077 280.808 29.0477C281.678 29.2977 282.178 29.9477 282.178 30.8477C282.178 32.1877 281.168 33.0077 279.568 33.0077ZM285.614 33.0077C284.044 33.0077 282.994 32.2877 282.994 30.9077C282.994 29.9777 283.534 29.3177 284.404 29.0377C283.734 28.7777 283.284 28.2877 283.284 27.5477C283.284 26.4077 284.214 25.5877 285.614 25.5877C287.014 25.5877 287.944 26.4077 287.944 27.5477C287.944 28.2877 287.494 28.7777 286.814 29.0377C287.694 29.3177 288.234 29.9777 288.234 30.9077C288.234 32.2877 287.184 33.0077 285.614 33.0077ZM285.614 28.4677C286.124 28.4677 286.474 28.1977 286.474 27.6377C286.474 27.1377 286.134 26.8477 285.614 26.8477C285.094 26.8477 284.754 27.1377 284.754 27.6377C284.754 28.1977 285.104 28.4677 285.614 28.4677ZM285.614 31.7477C286.254 31.7477 286.774 31.4677 286.774 30.7677C286.774 30.0977 286.344 29.6777 285.614 29.6777C284.884 29.6777 284.454 30.0977 284.454 30.7677C284.454 31.4677 284.974 31.7477 285.614 31.7477ZM290.28 32.8477C290.28 30.6977 291.18 28.7377 292.65 27.0277H289.15V25.7477H294.07V26.9577C292.44 28.8177 291.77 30.4077 291.77 32.8477H290.28Z" fill="black"/>
<path id="383" d="M174.27 34.6952C172.64 34.6952 171.83 33.8652 171.76 32.5752L173.2 32.5052C173.26 33.1952 173.72 33.4352 174.3 33.4352C174.93 33.4352 175.42 33.1352 175.42 32.4352C175.42 31.7552 174.97 31.3952 174.23 31.3952H173.7V30.2652H174.23C174.79 30.2652 175.2 30.0152 175.2 29.4052C175.2 28.8152 174.85 28.5252 174.29 28.5252C173.67 28.5252 173.37 28.8352 173.31 29.3252L171.87 29.2552C172.01 28.0452 172.84 27.2752 174.3 27.2752C175.76 27.2752 176.66 27.9952 176.66 29.2152C176.66 29.9852 176.26 30.4952 175.51 30.7352C176.38 30.9852 176.88 31.6352 176.88 32.5352C176.88 33.8752 175.87 34.6952 174.27 34.6952ZM180.316 34.6952C178.746 34.6952 177.696 33.9752 177.696 32.5952C177.696 31.6652 178.236 31.0052 179.106 30.7252C178.436 30.4652 177.986 29.9752 177.986 29.2352C177.986 28.0952 178.916 27.2752 180.316 27.2752C181.716 27.2752 182.646 28.0952 182.646 29.2352C182.646 29.9752 182.196 30.4652 181.516 30.7252C182.396 31.0052 182.936 31.6652 182.936 32.5952C182.936 33.9752 181.886 34.6952 180.316 34.6952ZM180.316 30.1552C180.826 30.1552 181.176 29.8852 181.176 29.3252C181.176 28.8252 180.836 28.5352 180.316 28.5352C179.796 28.5352 179.456 28.8252 179.456 29.3252C179.456 29.8852 179.806 30.1552 180.316 30.1552ZM180.316 33.4352C180.956 33.4352 181.476 33.1552 181.476 32.4552C181.476 31.7852 181.046 31.3652 180.316 31.3652C179.586 31.3652 179.156 31.7852 179.156 32.4552C179.156 33.1552 179.676 33.4352 180.316 33.4352ZM186.262 34.6952C184.632 34.6952 183.822 33.8652 183.752 32.5752L185.192 32.5052C185.252 33.1952 185.712 33.4352 186.292 33.4352C186.922 33.4352 187.412 33.1352 187.412 32.4352C187.412 31.7552 186.962 31.3952 186.222 31.3952H185.692V30.2652H186.222C186.782 30.2652 187.192 30.0152 187.192 29.4052C187.192 28.8152 186.842 28.5252 186.282 28.5252C185.662 28.5252 185.362 28.8352 185.302 29.3252L183.862 29.2552C184.002 28.0452 184.832 27.2752 186.292 27.2752C187.752 27.2752 188.652 27.9952 188.652 29.2152C188.652 29.9852 188.252 30.4952 187.502 30.7352C188.372 30.9852 188.872 31.6352 188.872 32.5352C188.872 33.8752 187.862 34.6952 186.262 34.6952Z" fill="black"/>
<path id="382" d="M79.1868 74.9569C77.5568 74.9569 76.7468 74.1269 76.6768 72.8369L78.1168 72.7669C78.1768 73.4569 78.6368 73.6969 79.2168 73.6969C79.8468 73.6969 80.3368 73.3969 80.3368 72.6969C80.3368 72.0169 79.8868 71.6569 79.1468 71.6569H78.6168V70.5269H79.1468C79.7068 70.5269 80.1168 70.2769 80.1168 69.6669C80.1168 69.0769 79.7668 68.7869 79.2068 68.7869C78.5868 68.7869 78.2868 69.0969 78.2268 69.5869L76.7868 69.5169C76.9268 68.3069 77.7568 67.5369 79.2168 67.5369C80.6768 67.5369 81.5768 68.2569 81.5768 69.4769C81.5768 70.2469 81.1768 70.7569 80.4268 70.9969C81.2968 71.2469 81.7968 71.8969 81.7968 72.7969C81.7968 74.1369 80.7868 74.9569 79.1868 74.9569ZM85.2329 74.9569C83.6629 74.9569 82.6129 74.2369 82.6129 72.8569C82.6129 71.9269 83.1529 71.2669 84.0229 70.9869C83.3529 70.7269 82.9029 70.2369 82.9029 69.4969C82.9029 68.3569 83.8329 67.5369 85.2329 67.5369C86.6329 67.5369 87.5629 68.3569 87.5629 69.4969C87.5629 70.2369 87.1129 70.7269 86.4329 70.9869C87.3129 71.2669 87.8529 71.9269 87.8529 72.8569C87.8529 74.2369 86.8029 74.9569 85.2329 74.9569ZM85.2329 70.4169C85.7429 70.4169 86.0929 70.1469 86.0929 69.5869C86.0929 69.0869 85.7529 68.7969 85.2329 68.7969C84.7129 68.7969 84.3729 69.0869 84.3729 69.5869C84.3729 70.1469 84.7229 70.4169 85.2329 70.4169ZM85.2329 73.6969C85.8729 73.6969 86.3929 73.4169 86.3929 72.7169C86.3929 72.0469 85.9629 71.6269 85.2329 71.6269C84.5029 71.6269 84.0729 72.0469 84.0729 72.7169C84.0729 73.4169 84.5929 73.6969 85.2329 73.6969ZM88.669 74.7969C88.669 73.0669 89.249 72.0569 91.229 71.0369C91.959 70.6569 92.319 70.3769 92.319 69.7269C92.319 69.1569 91.989 68.7969 91.359 68.7969C90.639 68.7969 90.289 69.2169 90.169 69.9769L88.699 69.8869C88.839 68.4369 89.749 67.5369 91.379 67.5369C92.969 67.5369 93.789 68.3869 93.789 69.6469C93.789 70.7869 93.299 71.3469 91.899 72.1069C90.749 72.7269 90.339 73.1569 90.299 73.5169H93.789V74.7969H88.669Z" fill="black"/>
<path id="342" d="M463.014 180.687C461.384 180.687 460.574 179.857 460.504 178.567L461.944 178.497C462.004 179.187 462.464 179.427 463.044 179.427C463.674 179.427 464.164 179.127 464.164 178.427C464.164 177.747 463.714 177.387 462.974 177.387H462.444V176.257H462.974C463.534 176.257 463.944 176.007 463.944 175.397C463.944 174.807 463.594 174.517 463.034 174.517C462.414 174.517 462.114 174.827 462.054 175.317L460.614 175.247C460.754 174.037 461.584 173.267 463.044 173.267C464.504 173.267 465.404 173.987 465.404 175.207C465.404 175.977 465.004 176.487 464.254 176.727C465.124 176.977 465.624 177.627 465.624 178.527C465.624 179.867 464.614 180.687 463.014 180.687ZM469.51 180.527V179.107H466.34V177.937L469.32 173.427H470.94V177.867H471.78V179.107H470.94V180.527H469.51ZM467.68 177.867H469.51V175.217L467.68 177.867ZM472.496 180.527C472.496 178.797 473.076 177.787 475.056 176.767C475.786 176.387 476.146 176.107 476.146 175.457C476.146 174.887 475.816 174.527 475.186 174.527C474.466 174.527 474.116 174.947 473.996 175.707L472.526 175.617C472.666 174.167 473.576 173.267 475.206 173.267C476.796 173.267 477.616 174.117 477.616 175.377C477.616 176.517 477.126 177.077 475.726 177.837C474.576 178.457 474.166 178.887 474.126 179.247H477.616V180.527H472.496Z" fill="black"/>
<path id="328" d="M32.7762 187.187C31.1462 187.187 30.3362 186.357 30.2662 185.067L31.7062 184.997C31.7662 185.687 32.2262 185.927 32.8062 185.927C33.4362 185.927 33.9262 185.627 33.9262 184.927C33.9262 184.247 33.4762 183.887 32.7362 183.887H32.2062V182.757H32.7362C33.2962 182.757 33.7062 182.507 33.7062 181.897C33.7062 181.307 33.3562 181.017 32.7962 181.017C32.1762 181.017 31.8762 181.327 31.8162 181.817L30.3762 181.747C30.5162 180.537 31.3462 179.767 32.8062 179.767C34.2662 179.767 35.1662 180.487 35.1662 181.707C35.1662 182.477 34.7662 182.987 34.0162 183.227C34.8862 183.477 35.3862 184.127 35.3862 185.027C35.3862 186.367 34.3762 187.187 32.7762 187.187ZM36.2623 187.027C36.2623 185.297 36.8423 184.287 38.8223 183.267C39.5523 182.887 39.9123 182.607 39.9123 181.957C39.9123 181.387 39.5823 181.027 38.9523 181.027C38.2323 181.027 37.8823 181.447 37.7623 182.207L36.2923 182.117C36.4323 180.667 37.3423 179.767 38.9723 179.767C40.5623 179.767 41.3823 180.617 41.3823 181.877C41.3823 183.017 40.8923 183.577 39.4923 184.337C38.3423 184.957 37.9323 185.387 37.8923 185.747H41.3823V187.027H36.2623ZM44.8184 187.187C43.2484 187.187 42.1984 186.467 42.1984 185.087C42.1984 184.157 42.7384 183.497 43.6084 183.217C42.9384 182.957 42.4884 182.467 42.4884 181.727C42.4884 180.587 43.4184 179.767 44.8184 179.767C46.2184 179.767 47.1484 180.587 47.1484 181.727C47.1484 182.467 46.6984 182.957 46.0184 183.217C46.8984 183.497 47.4384 184.157 47.4384 185.087C47.4384 186.467 46.3884 187.187 44.8184 187.187ZM44.8184 182.647C45.3284 182.647 45.6784 182.377 45.6784 181.817C45.6784 181.317 45.3384 181.027 44.8184 181.027C44.2984 181.027 43.9584 181.317 43.9584 181.817C43.9584 182.377 44.3084 182.647 44.8184 182.647ZM44.8184 185.927C45.4584 185.927 45.9784 185.647 45.9784 184.947C45.9784 184.277 45.5484 183.857 44.8184 183.857C44.0884 183.857 43.6584 184.277 43.6584 184.947C43.6584 185.647 44.1784 185.927 44.8184 185.927Z" fill="black"/>
</g>
<path id="field" d="M21.845 190.153L98.6937 69.4672H107.353L146.454 45.7902V39.9737L293.689 35.8477L510.846 190.153L490.038 226.341L473.773 217.304L430.93 258.473L375.79 363.994L323.322 445.561L329.654 450.355L306.885 483.179L300.675 477.56C277.306 508.096 231.126 507.52 208.527 476.411L204.421 470.759L198.655 476.082L176.625 442.962L184.313 437.492L105.729 316.656L24.145 239.402L43.4925 211.666L21.845 190.153Z" fill="#BA0021" fill-opacity="0.1" fill="none" stroke="#BA0021" stroke-width="1.002"/>
</g>
<defs>
<clipPath id="clip0_114_5246">
<rect width="500" height="469.94" fill="white"/>
</clipPath>
</defs>
</svg>
