<svg width="500" height="470" viewBox="0 0 500 470" fill="none" xmlns="http://www.w3.org/2000/svg">
<g id="crosley-field-1958" clip-path="url(#clip0_114_5273)">
<g id="Infield">
<path d="M339.98 327.764C339.453 325.664 322.032 258.477 250.83 258.477C180.238 258.477 162.505 324.536 161.697 327.697C161.677 327.775 161.668 327.814 161.668 327.814L236.504 402.651C235.305 404.91 234.623 407.487 234.623 410.236C234.623 419.184 241.873 426.443 250.83 426.443C259.778 426.443 267.037 419.184 267.037 410.236C267.037 407.487 266.356 404.91 265.157 402.655L260.695 397.373C257.96 395.276 254.544 394.024 250.83 394.024C247.117 394.024 243.701 395.276 240.971 397.368L197.7 354.098C201.448 350.351 201.448 344.275 197.7 340.528C197.698 340.525 197.694 340.523 197.691 340.52L244.055 294.036C247.8 297.772 253.861 297.772 257.606 294.036L303.431 339.982C303.431 339.982 303.427 339.983 303.424 339.986C299.677 343.734 300.275 350.298 304.022 354.045L260.695 397.373L265.157 402.655L339.98 327.764Z" fill="#D2D2D2"/>
<path d="M259.91 345.704C259.91 350.719 255.845 354.785 250.83 354.785C245.815 354.785 241.75 350.719 241.75 345.704C241.75 340.689 245.815 336.624 250.83 336.624C255.845 336.624 259.91 340.689 259.91 345.704Z" fill="#D2D2D2"/>
</g>
<g id="Guides">
<g id="Home">
<circle id="Ellipse 1" cx="250.827" cy="410.421" r="16.0848" fill="#D2D2D2"/>
<circle id="Ellipse 1_2" cx="250.827" cy="410.422" r="1.62919" fill="black"/>
</g>
<g id="First">
<circle id="Ellipse 1_3" cx="311.125" cy="346.535" r="10.1878" fill="#D2D2D2"/>
<circle id="Ellipse 1_4" cx="311.125" cy="346.536" r="1.0319" fill="black"/>
</g>
<g id="Third">
<circle id="Ellipse 1_5" cx="190.34" cy="346.535" r="10.1878" fill="#D2D2D2"/>
<circle id="Ellipse 1_6" cx="190.34" cy="346.536" r="1.0319" fill="black"/>
</g>
<g id="Second">
<circle id="Ellipse 1_7" cx="250.827" cy="286.672" r="10.1878" fill="#D2D2D2"/>
<circle id="Ellipse 1_8" cx="250.827" cy="286.673" r="1.0319" fill="black"/>
</g>
<g id="Mound">
<circle id="Ellipse 1_9" cx="250.827" cy="345.931" r="9.08365" fill="#D2D2D2"/>
<circle id="Ellipse 1_10" cx="250.827" cy="345.932" r="0.920062" fill="black"/>
</g>
</g>
<path id="Foul Lines" d="M502.097 159.395L250.976 410.515L25.3157 184.855" fill="none" stroke="black" stroke-width="1.002"/>
<g id="Measurements">
<path id="390" d="M288.568 31.0077C286.938 31.0077 286.128 30.1777 286.058 28.8877L287.498 28.8177C287.558 29.5077 288.018 29.7477 288.598 29.7477C289.228 29.7477 289.718 29.4477 289.718 28.7477C289.718 28.0677 289.268 27.7077 288.528 27.7077H287.998V26.5777H288.528C289.088 26.5777 289.498 26.3277 289.498 25.7177C289.498 25.1277 289.148 24.8377 288.588 24.8377C287.968 24.8377 287.668 25.1477 287.608 25.6377L286.168 25.5677C286.308 24.3577 287.138 23.5877 288.598 23.5877C290.058 23.5877 290.958 24.3077 290.958 25.5277C290.958 26.2977 290.558 26.8077 289.808 27.0477C290.678 27.2977 291.178 27.9477 291.178 28.8477C291.178 30.1877 290.168 31.0077 288.568 31.0077ZM294.594 23.5877C296.324 23.5877 297.234 24.7577 297.234 26.8177C297.234 29.1677 296.424 31.0077 294.334 31.0077C292.934 31.0077 292.284 30.2477 292.024 29.2277L293.464 29.1277C293.564 29.4877 293.794 29.7477 294.334 29.7477C295.074 29.7477 295.594 29.2377 295.754 28.0177C295.414 28.3177 294.934 28.5377 294.304 28.5377C292.894 28.5377 291.994 27.5877 291.994 26.1577C291.994 24.5777 293.024 23.5877 294.594 23.5877ZM294.624 24.8677C293.874 24.8677 293.454 25.3077 293.454 26.1077C293.454 26.8477 293.834 27.3277 294.564 27.3277C295.304 27.3277 295.774 26.8377 295.774 26.0977C295.774 25.4177 295.354 24.8677 294.624 24.8677ZM300.61 31.0077C299.01 31.0077 298.05 29.5977 298.05 27.3077C298.05 25.0077 299.01 23.5877 300.61 23.5877C302.21 23.5877 303.17 25.0077 303.17 27.3077C303.17 29.5977 302.21 31.0077 300.61 31.0077ZM299.51 27.3077C299.51 27.7377 299.54 28.1077 299.6 28.4177L301.29 25.2277C301.11 24.9777 300.88 24.8477 300.61 24.8477C299.92 24.8477 299.51 25.6677 299.51 27.3077ZM300.61 29.7477C301.3 29.7477 301.71 28.9377 301.71 27.3077C301.71 26.8777 301.68 26.4977 301.62 26.1777L299.93 29.3677C300.11 29.6177 300.34 29.7477 300.61 29.7477Z" fill="black"/>
<path id="360" d="M395.034 86.3827C393.404 86.3827 392.594 85.5527 392.524 84.2627L393.964 84.1927C394.024 84.8827 394.484 85.1227 395.064 85.1227C395.694 85.1227 396.184 84.8227 396.184 84.1227C396.184 83.4427 395.734 83.0827 394.994 83.0827H394.464V81.9527H394.994C395.554 81.9527 395.964 81.7027 395.964 81.0927C395.964 80.5027 395.614 80.2127 395.054 80.2127C394.434 80.2127 394.134 80.5227 394.074 81.0127L392.634 80.9427C392.774 79.7327 393.604 78.9627 395.064 78.9627C396.524 78.9627 397.424 79.6827 397.424 80.9027C397.424 81.6727 397.024 82.1827 396.274 82.4227C397.144 82.6727 397.644 83.3227 397.644 84.2227C397.644 85.5627 396.634 86.3827 395.034 86.3827ZM401.1 86.3827C399.37 86.3827 398.46 85.2127 398.46 83.1527C398.46 80.8027 399.27 78.9627 401.36 78.9627C402.76 78.9627 403.41 79.7227 403.67 80.7427L402.23 80.8427C402.13 80.4827 401.9 80.2227 401.36 80.2227C400.62 80.2227 400.1 80.7327 399.94 81.9527C400.28 81.6527 400.76 81.4327 401.39 81.4327C402.8 81.4327 403.7 82.3827 403.7 83.8127C403.7 85.3927 402.67 86.3827 401.1 86.3827ZM401.07 85.1027C401.82 85.1027 402.24 84.6627 402.24 83.8627C402.24 83.1227 401.86 82.6427 401.13 82.6427C400.39 82.6427 399.92 83.1327 399.92 83.8727C399.92 84.5527 400.34 85.1027 401.07 85.1027ZM407.076 86.3827C405.476 86.3827 404.516 84.9727 404.516 82.6827C404.516 80.3827 405.476 78.9627 407.076 78.9627C408.676 78.9627 409.636 80.3827 409.636 82.6827C409.636 84.9727 408.676 86.3827 407.076 86.3827ZM405.976 82.6827C405.976 83.1127 406.006 83.4827 406.066 83.7927L407.756 80.6027C407.576 80.3527 407.346 80.2227 407.076 80.2227C406.386 80.2227 405.976 81.0427 405.976 82.6827ZM407.076 85.1227C407.766 85.1227 408.176 84.3127 408.176 82.6827C408.176 82.2527 408.146 81.8727 408.086 81.5527L406.396 84.7427C406.576 84.9927 406.806 85.1227 407.076 85.1227Z" fill="black"/>
<path id="383" d="M174.27 34.6952C172.64 34.6952 171.83 33.8652 171.76 32.5752L173.2 32.5052C173.26 33.1952 173.72 33.4352 174.3 33.4352C174.93 33.4352 175.42 33.1352 175.42 32.4352C175.42 31.7552 174.97 31.3952 174.23 31.3952H173.7V30.2652H174.23C174.79 30.2652 175.2 30.0152 175.2 29.4052C175.2 28.8152 174.85 28.5252 174.29 28.5252C173.67 28.5252 173.37 28.8352 173.31 29.3252L171.87 29.2552C172.01 28.0452 172.84 27.2752 174.3 27.2752C175.76 27.2752 176.66 27.9952 176.66 29.2152C176.66 29.9852 176.26 30.4952 175.51 30.7352C176.38 30.9852 176.88 31.6352 176.88 32.5352C176.88 33.8752 175.87 34.6952 174.27 34.6952ZM180.316 34.6952C178.746 34.6952 177.696 33.9752 177.696 32.5952C177.696 31.6652 178.236 31.0052 179.106 30.7252C178.436 30.4652 177.986 29.9752 177.986 29.2352C177.986 28.0952 178.916 27.2752 180.316 27.2752C181.716 27.2752 182.646 28.0952 182.646 29.2352C182.646 29.9752 182.196 30.4652 181.516 30.7252C182.396 31.0052 182.936 31.6652 182.936 32.5952C182.936 33.9752 181.886 34.6952 180.316 34.6952ZM180.316 30.1552C180.826 30.1552 181.176 29.8852 181.176 29.3252C181.176 28.8252 180.836 28.5352 180.316 28.5352C179.796 28.5352 179.456 28.8252 179.456 29.3252C179.456 29.8852 179.806 30.1552 180.316 30.1552ZM180.316 33.4352C180.956 33.4352 181.476 33.1552 181.476 32.4552C181.476 31.7852 181.046 31.3652 180.316 31.3652C179.586 31.3652 179.156 31.7852 179.156 32.4552C179.156 33.1552 179.676 33.4352 180.316 33.4352ZM186.262 34.6952C184.632 34.6952 183.822 33.8652 183.752 32.5752L185.192 32.5052C185.252 33.1952 185.712 33.4352 186.292 33.4352C186.922 33.4352 187.412 33.1352 187.412 32.4352C187.412 31.7552 186.962 31.3952 186.222 31.3952H185.692V30.2652H186.222C186.782 30.2652 187.192 30.0152 187.192 29.4052C187.192 28.8152 186.842 28.5252 186.282 28.5252C185.662 28.5252 185.362 28.8352 185.302 29.3252L183.862 29.2552C184.002 28.0452 184.832 27.2752 186.292 27.2752C187.752 27.2752 188.652 27.9952 188.652 29.2152C188.652 29.9852 188.252 30.4952 187.502 30.7352C188.372 30.9852 188.872 31.6352 188.872 32.5352C188.872 33.8752 187.862 34.6952 186.262 34.6952Z" fill="black"/>
<path id="366" d="M478.014 163.687C476.384 163.687 475.574 162.857 475.504 161.567L476.944 161.497C477.004 162.187 477.464 162.427 478.044 162.427C478.674 162.427 479.164 162.127 479.164 161.427C479.164 160.747 478.714 160.387 477.974 160.387H477.444V159.257H477.974C478.534 159.257 478.944 159.007 478.944 158.397C478.944 157.807 478.594 157.517 478.034 157.517C477.414 157.517 477.114 157.827 477.054 158.317L475.614 158.247C475.754 157.037 476.584 156.267 478.044 156.267C479.504 156.267 480.404 156.987 480.404 158.207C480.404 158.977 480.004 159.487 479.254 159.727C480.124 159.977 480.624 160.627 480.624 161.527C480.624 162.867 479.614 163.687 478.014 163.687ZM484.08 163.687C482.35 163.687 481.44 162.517 481.44 160.457C481.44 158.107 482.25 156.267 484.34 156.267C485.74 156.267 486.39 157.027 486.65 158.047L485.21 158.147C485.11 157.787 484.88 157.527 484.34 157.527C483.6 157.527 483.08 158.037 482.92 159.257C483.26 158.957 483.74 158.737 484.37 158.737C485.78 158.737 486.68 159.687 486.68 161.117C486.68 162.697 485.65 163.687 484.08 163.687ZM484.05 162.407C484.8 162.407 485.22 161.967 485.22 161.167C485.22 160.427 484.84 159.947 484.11 159.947C483.37 159.947 482.9 160.437 482.9 161.177C482.9 161.857 483.32 162.407 484.05 162.407ZM490.076 163.687C488.346 163.687 487.436 162.517 487.436 160.457C487.436 158.107 488.246 156.267 490.336 156.267C491.736 156.267 492.386 157.027 492.646 158.047L491.206 158.147C491.106 157.787 490.876 157.527 490.336 157.527C489.596 157.527 489.076 158.037 488.916 159.257C489.256 158.957 489.736 158.737 490.366 158.737C491.776 158.737 492.676 159.687 492.676 161.117C492.676 162.697 491.646 163.687 490.076 163.687ZM490.046 162.407C490.796 162.407 491.216 161.967 491.216 161.167C491.216 160.427 490.836 159.947 490.106 159.947C489.366 159.947 488.896 160.437 488.896 161.177C488.896 161.857 489.316 162.407 490.046 162.407Z" fill="black"/>
<path id="328" d="M32.7762 187.187C31.1462 187.187 30.3362 186.357 30.2662 185.067L31.7062 184.997C31.7662 185.687 32.2262 185.927 32.8062 185.927C33.4362 185.927 33.9262 185.627 33.9262 184.927C33.9262 184.247 33.4762 183.887 32.7362 183.887H32.2062V182.757H32.7362C33.2962 182.757 33.7062 182.507 33.7062 181.897C33.7062 181.307 33.3562 181.017 32.7962 181.017C32.1762 181.017 31.8762 181.327 31.8162 181.817L30.3762 181.747C30.5162 180.537 31.3462 179.767 32.8062 179.767C34.2662 179.767 35.1662 180.487 35.1662 181.707C35.1662 182.477 34.7662 182.987 34.0162 183.227C34.8862 183.477 35.3862 184.127 35.3862 185.027C35.3862 186.367 34.3762 187.187 32.7762 187.187ZM36.2623 187.027C36.2623 185.297 36.8423 184.287 38.8223 183.267C39.5523 182.887 39.9123 182.607 39.9123 181.957C39.9123 181.387 39.5823 181.027 38.9523 181.027C38.2323 181.027 37.8823 181.447 37.7623 182.207L36.2923 182.117C36.4323 180.667 37.3423 179.767 38.9723 179.767C40.5623 179.767 41.3823 180.617 41.3823 181.877C41.3823 183.017 40.8923 183.577 39.4923 184.337C38.3423 184.957 37.9323 185.387 37.8923 185.747H41.3823V187.027H36.2623ZM44.8184 187.187C43.2484 187.187 42.1984 186.467 42.1984 185.087C42.1984 184.157 42.7384 183.497 43.6084 183.217C42.9384 182.957 42.4884 182.467 42.4884 181.727C42.4884 180.587 43.4184 179.767 44.8184 179.767C46.2184 179.767 47.1484 180.587 47.1484 181.727C47.1484 182.467 46.6984 182.957 46.0184 183.217C46.8984 183.497 47.4384 184.157 47.4384 185.087C47.4384 186.467 46.3884 187.187 44.8184 187.187ZM44.8184 182.647C45.3284 182.647 45.6784 182.377 45.6784 181.817C45.6784 181.317 45.3384 181.027 44.8184 181.027C44.2984 181.027 43.9584 181.317 43.9584 181.817C43.9584 182.377 44.3084 182.647 44.8184 182.647ZM44.8184 185.927C45.4584 185.927 45.9784 185.647 45.9784 184.947C45.9784 184.277 45.5484 183.857 44.8184 183.857C44.0884 183.857 43.6584 184.277 43.6584 184.947C43.6584 185.647 44.1784 185.927 44.8184 185.927Z" fill="black"/>
</g>
<path id="field" d="M23.3604 188.036L91.8705 81.2838L178.04 40.3069L307.57 35.0898L515.225 167.343V192.964H509.612L486.431 181.496L459.346 208.581L375.789 363.992L323.322 445.559L329.654 450.354L306.885 483.177L300.675 477.559C277.306 508.094 231.126 507.518 208.527 476.409L204.421 470.758L198.655 476.08L176.625 442.961L184.313 437.49L23.3604 188.036Z" fill="#BA0021" fill-opacity="0.1" fill="none" stroke="#BA0021" stroke-width="1.002"/>
</g>
<defs>
<clipPath id="clip0_114_5273">
<rect width="500" height="469.94" fill="white"/>
</clipPath>
</defs>
</svg>
