<svg width="500" height="470" viewBox="0 0 500 470" fill="none" xmlns="http://www.w3.org/2000/svg">
<g id="crosley-field-1912" clip-path="url(#clip0_113_5138)">
<g id="Infield">
<path d="M339.98 327.764C339.453 325.664 322.032 258.477 250.83 258.477C180.238 258.477 162.505 324.536 161.697 327.697C161.677 327.775 161.668 327.814 161.668 327.814L236.504 402.651C235.305 404.91 234.623 407.487 234.623 410.236C234.623 419.184 241.873 426.443 250.83 426.443C259.778 426.443 267.037 419.184 267.037 410.236C267.037 407.487 266.356 404.91 265.156 402.655L260.695 397.373C257.96 395.276 254.544 394.024 250.83 394.024C247.117 394.024 243.701 395.276 240.971 397.368L197.7 354.098C201.448 350.351 201.448 344.275 197.7 340.528C197.698 340.525 197.694 340.523 197.691 340.52L244.055 294.036C247.8 297.772 253.861 297.772 257.606 294.036L303.431 339.982C303.431 339.982 303.427 339.983 303.424 339.986C299.677 343.734 300.275 350.298 304.022 354.045L260.695 397.373L265.156 402.655L339.98 327.764Z" fill="#D2D2D2"/>
<path d="M259.91 345.704C259.91 350.719 255.845 354.785 250.83 354.785C245.815 354.785 241.75 350.719 241.75 345.704C241.75 340.689 245.815 336.624 250.83 336.624C255.845 336.624 259.91 340.689 259.91 345.704Z" fill="#D2D2D2"/>
</g>
<g id="Guides">
<g id="Home">
<circle id="Ellipse 1" cx="250.827" cy="410.421" r="16.0848" fill="#D2D2D2"/>
<circle id="Ellipse 1_2" cx="250.827" cy="410.422" r="1.62919" fill="black"/>
</g>
<g id="First">
<circle id="Ellipse 1_3" cx="311.125" cy="346.535" r="10.1878" fill="#D2D2D2"/>
<circle id="Ellipse 1_4" cx="311.125" cy="346.536" r="1.0319" fill="black"/>
</g>
<g id="Third">
<circle id="Ellipse 1_5" cx="190.34" cy="346.535" r="10.1878" fill="#D2D2D2"/>
<circle id="Ellipse 1_6" cx="190.34" cy="346.536" r="1.0319" fill="black"/>
</g>
<g id="Second">
<circle id="Ellipse 1_7" cx="250.827" cy="286.672" r="10.1878" fill="#D2D2D2"/>
<circle id="Ellipse 1_8" cx="250.827" cy="286.673" r="1.0319" fill="black"/>
</g>
<g id="Mound">
<circle id="Ellipse 1_9" cx="250.827" cy="345.931" r="9.08365" fill="#D2D2D2"/>
<circle id="Ellipse 1_10" cx="250.827" cy="345.932" r="0.920062" fill="black"/>
</g>
</g>
<path id="Foul Lines" d="M524.494 137L250.976 410.516L6.09035 165.632" fill="none" stroke="black" stroke-width="1.002"/>
<g id="Measurements">
<path id="420" d="M246.203 5.69922V4.27922H243.033V3.10922L246.013 -1.40078H247.633V3.03922H248.473V4.27922H247.633V5.69922H246.203ZM244.373 3.03922H246.203V0.389219L244.373 3.03922ZM249.189 5.69922C249.189 3.96922 249.769 2.95922 251.749 1.93922C252.479 1.55922 252.839 1.27922 252.839 0.629218C252.839 0.0592186 252.509 -0.300781 251.879 -0.300781C251.159 -0.300781 250.809 0.119218 250.689 0.879219L249.219 0.789218C249.359 -0.660782 250.269 -1.56078 251.899 -1.56078C253.489 -1.56078 254.309 -0.710782 254.309 0.549218C254.309 1.68922 253.819 2.24922 252.419 3.00922C251.269 3.62922 250.859 4.05922 250.819 4.41922H254.309V5.69922H249.189ZM257.745 5.85922C256.145 5.85922 255.185 4.44922 255.185 2.15922C255.185 -0.140782 256.145 -1.56078 257.745 -1.56078C259.345 -1.56078 260.305 -0.140782 260.305 2.15922C260.305 4.44922 259.345 5.85922 257.745 5.85922ZM256.645 2.15922C256.645 2.58922 256.675 2.95922 256.735 3.26922L258.425 0.0792184C258.245 -0.170781 258.015 -0.300781 257.745 -0.300781C257.055 -0.300781 256.645 0.519219 256.645 2.15922ZM257.745 4.59922C258.435 4.59922 258.845 3.78922 258.845 2.15922C258.845 1.72922 258.815 1.34922 258.755 1.02922L257.065 4.21922C257.245 4.46922 257.475 4.59922 257.745 4.59922Z" fill="black"/>
<path id="400" d="M500.438 140.938V139.517H497.268V138.347L500.248 133.837H501.868V138.277H502.708V139.517H501.868V140.938H500.438ZM498.608 138.277H500.438V135.627L498.608 138.277ZM505.984 141.098C504.384 141.098 503.424 139.688 503.424 137.397C503.424 135.097 504.384 133.677 505.984 133.677C507.584 133.677 508.544 135.097 508.544 137.397C508.544 139.688 507.584 141.098 505.984 141.098ZM504.884 137.397C504.884 137.827 504.914 138.197 504.974 138.507L506.664 135.317C506.484 135.067 506.254 134.937 505.984 134.937C505.294 134.937 504.884 135.757 504.884 137.397ZM505.984 139.837C506.674 139.837 507.084 139.027 507.084 137.397C507.084 136.967 507.054 136.587 506.994 136.267L505.304 139.457C505.484 139.707 505.714 139.837 505.984 139.837ZM511.98 141.098C510.38 141.098 509.42 139.688 509.42 137.397C509.42 135.097 510.38 133.677 511.98 133.677C513.58 133.677 514.54 135.097 514.54 137.397C514.54 139.688 513.58 141.098 511.98 141.098ZM510.88 137.397C510.88 137.827 510.91 138.197 510.97 138.507L512.66 135.317C512.48 135.067 512.25 134.937 511.98 134.937C511.29 134.937 510.88 135.757 510.88 137.397ZM511.98 139.837C512.67 139.837 513.08 139.027 513.08 137.397C513.08 136.967 513.05 136.587 512.99 136.267L511.3 139.457C511.48 139.707 511.71 139.837 511.98 139.837Z" fill="black"/>
<path id="352" d="M17.6755 167.148C16.0455 167.148 15.2355 166.318 15.1655 165.028L16.6055 164.958C16.6655 165.648 17.1255 165.888 17.7055 165.888C18.3355 165.888 18.8255 165.588 18.8255 164.888C18.8255 164.208 18.3755 163.848 17.6355 163.848H17.1055V162.718H17.6355C18.1955 162.718 18.6055 162.468 18.6055 161.858C18.6055 161.268 18.2555 160.978 17.6955 160.978C17.0755 160.978 16.7755 161.288 16.7155 161.778L15.2755 161.708C15.4155 160.498 16.2455 159.728 17.7055 159.728C19.1655 159.728 20.0655 160.448 20.0655 161.668C20.0655 162.438 19.6655 162.948 18.9155 163.188C19.7855 163.438 20.2855 164.088 20.2855 164.988C20.2855 166.328 19.2755 167.148 17.6755 167.148ZM23.7116 167.148C22.2116 167.148 21.3016 166.258 21.2016 165.088L22.6616 165.008C22.7516 165.588 23.1016 165.888 23.7116 165.888C24.3716 165.888 24.7816 165.468 24.7816 164.658C24.7816 163.868 24.3616 163.408 23.7216 163.408C23.2816 163.408 22.9116 163.668 22.7716 164.028L21.3016 163.958L21.7216 159.888H25.9116V161.168H22.8916L22.7116 162.698C23.0416 162.418 23.4816 162.258 23.9616 162.258C25.3716 162.258 26.2416 163.278 26.2416 164.668C26.2416 166.138 25.2416 167.148 23.7116 167.148ZM27.1577 166.988C27.1577 165.258 27.7377 164.248 29.7177 163.228C30.4477 162.848 30.8077 162.568 30.8077 161.918C30.8077 161.348 30.4777 160.988 29.8477 160.988C29.1277 160.988 28.7777 161.408 28.6577 162.168L27.1877 162.078C27.3277 160.628 28.2377 159.728 29.8677 159.728C31.4577 159.728 32.2777 160.578 32.2777 161.838C32.2777 162.978 31.7877 163.538 30.3877 164.298C29.2377 164.918 28.8277 165.348 28.7877 165.708H32.2777V166.988H27.1577Z" fill="black"/>
</g>
<path id="field" d="M5.28867 166.419L125.636 -6.37561L319.713 -7.64062L528.232 139.308L406.774 337.416L327.705 450.044C287.979 506.63 203.041 503.182 168.032 443.563L5.28867 166.419Z" fill="#BA0021" fill-opacity="0.1" fill="none" stroke="#BA0021" stroke-width="1.002"/>
</g>
<defs>
<clipPath id="clip0_113_5138">
<rect width="500" height="469.94" fill="white"/>
</clipPath>
</defs>
</svg>
