<svg width="500" height="470" viewBox="0 0 500 470" fill="none" xmlns="http://www.w3.org/2000/svg">
<g id="crosley-field-1937" clip-path="url(#clip0_114_5192)">
<g id="Infield">
<path d="M339.98 327.764C339.453 325.664 322.032 258.477 250.83 258.477C180.238 258.477 162.505 324.536 161.697 327.697C161.677 327.775 161.668 327.814 161.668 327.814L236.504 402.651C235.305 404.91 234.623 407.487 234.623 410.236C234.623 419.184 241.873 426.443 250.83 426.443C259.778 426.443 267.037 419.184 267.037 410.236C267.037 407.487 266.356 404.91 265.157 402.655L260.695 397.373C257.96 395.276 254.544 394.024 250.83 394.024C247.117 394.024 243.701 395.276 240.971 397.368L197.7 354.098C201.448 350.351 201.448 344.275 197.7 340.528C197.698 340.525 197.694 340.523 197.691 340.52L244.055 294.036C247.8 297.772 253.861 297.772 257.606 294.036L303.431 339.982C303.431 339.982 303.427 339.983 303.424 339.986C299.677 343.734 300.275 350.298 304.022 354.045L260.695 397.373L265.157 402.655L339.98 327.764Z" fill="#D2D2D2"/>
<path d="M259.91 345.704C259.91 350.719 255.845 354.785 250.83 354.785C245.815 354.785 241.75 350.719 241.75 345.704C241.75 340.689 245.815 336.624 250.83 336.624C255.845 336.624 259.91 340.689 259.91 345.704Z" fill="#D2D2D2"/>
</g>
<g id="Guides">
<g id="Home">
<circle id="Ellipse 1" cx="250.827" cy="410.421" r="16.0848" fill="#D2D2D2"/>
<circle id="Ellipse 1_2" cx="250.827" cy="410.422" r="1.62919" fill="black"/>
</g>
<g id="First">
<circle id="Ellipse 1_3" cx="311.125" cy="346.535" r="10.1878" fill="#D2D2D2"/>
<circle id="Ellipse 1_4" cx="311.125" cy="346.536" r="1.0319" fill="black"/>
</g>
<g id="Third">
<circle id="Ellipse 1_5" cx="190.34" cy="346.535" r="10.1878" fill="#D2D2D2"/>
<circle id="Ellipse 1_6" cx="190.34" cy="346.536" r="1.0319" fill="black"/>
</g>
<g id="Second">
<circle id="Ellipse 1_7" cx="250.827" cy="286.672" r="10.1878" fill="#D2D2D2"/>
<circle id="Ellipse 1_8" cx="250.827" cy="286.673" r="1.0319" fill="black"/>
</g>
<g id="Mound">
<circle id="Ellipse 1_9" cx="250.827" cy="345.931" r="9.08365" fill="#D2D2D2"/>
<circle id="Ellipse 1_10" cx="250.827" cy="345.932" r="0.920062" fill="black"/>
</g>
</g>
<path id="Foul Lines" d="M511.111 150.379L250.976 410.515L17.7134 177.253" fill="none" stroke="black" stroke-width="1.002"/>
<g id="Measurements">
<path id="420" d="M296.393 14.5117V13.0917H293.223V11.9217L296.203 7.41172H297.823V11.8517H298.663V13.0917H297.823V14.5117H296.393ZM294.563 11.8517H296.393V9.20172L294.563 11.8517ZM299.379 14.5117C299.379 12.7817 299.959 11.7717 301.939 10.7517C302.669 10.3717 303.029 10.0917 303.029 9.44172C303.029 8.87172 302.699 8.51172 302.069 8.51172C301.349 8.51172 300.999 8.93172 300.879 9.69172L299.409 9.60172C299.549 8.15172 300.459 7.25172 302.089 7.25172C303.679 7.25172 304.499 8.10172 304.499 9.36172C304.499 10.5017 304.009 11.0617 302.609 11.8217C301.459 12.4417 301.049 12.8717 301.009 13.2317H304.499V14.5117H299.379ZM307.935 14.6717C306.335 14.6717 305.375 13.2617 305.375 10.9717C305.375 8.67172 306.335 7.25172 307.935 7.25172C309.535 7.25172 310.495 8.67172 310.495 10.9717C310.495 13.2617 309.535 14.6717 307.935 14.6717ZM306.835 10.9717C306.835 11.4017 306.865 11.7717 306.925 12.0817L308.615 8.89172C308.435 8.64172 308.205 8.51172 307.935 8.51172C307.245 8.51172 306.835 9.33172 306.835 10.9717ZM307.935 13.4117C308.625 13.4117 309.035 12.6017 309.035 10.9717C309.035 10.5417 309.005 10.1617 308.945 9.84172L307.255 13.0317C307.435 13.2817 307.665 13.4117 307.935 13.4117Z" fill="black"/>
<path id="402" d="M84.6636 49.2227V47.8027H81.4936V46.6327L84.4736 42.1227H86.0936V46.5627H86.9336V47.8027H86.0936V49.2227H84.6636ZM82.8336 46.5627H84.6636V43.9127L82.8336 46.5627ZM90.2097 49.3827C88.6097 49.3827 87.6497 47.9727 87.6497 45.6827C87.6497 43.3827 88.6097 41.9627 90.2097 41.9627C91.8097 41.9627 92.7697 43.3827 92.7697 45.6827C92.7697 47.9727 91.8097 49.3827 90.2097 49.3827ZM89.1097 45.6827C89.1097 46.1127 89.1397 46.4827 89.1997 46.7927L90.8897 43.6027C90.7097 43.3527 90.4797 43.2227 90.2097 43.2227C89.5197 43.2227 89.1097 44.0427 89.1097 45.6827ZM90.2097 48.1227C90.8997 48.1227 91.3097 47.3127 91.3097 45.6827C91.3097 45.2527 91.2797 44.8727 91.2197 44.5527L89.5297 47.7427C89.7097 47.9927 89.9397 48.1227 90.2097 48.1227ZM93.6458 49.2227C93.6458 47.4927 94.2258 46.4827 96.2058 45.4627C96.9358 45.0827 97.2958 44.8027 97.2958 44.1527C97.2958 43.5827 96.9658 43.2227 96.3358 43.2227C95.6158 43.2227 95.2658 43.6427 95.1458 44.4027L93.6758 44.3127C93.8158 42.8627 94.7258 41.9627 96.3558 41.9627C97.9458 41.9627 98.7658 42.8127 98.7658 44.0727C98.7658 45.2127 98.2758 45.7727 96.8758 46.5327C95.7258 47.1527 95.3158 47.5827 95.2758 47.9427H98.7658V49.2227H93.6458Z" fill="black"/>
<path id="377" d="M488.938 156.098C487.308 156.098 486.498 155.267 486.428 153.977L487.868 153.907C487.928 154.597 488.388 154.837 488.968 154.837C489.598 154.837 490.088 154.537 490.088 153.837C490.088 153.157 489.638 152.797 488.898 152.797H488.368V151.667H488.898C489.458 151.667 489.868 151.417 489.868 150.807C489.868 150.217 489.518 149.927 488.958 149.927C488.338 149.927 488.038 150.237 487.978 150.727L486.538 150.658C486.678 149.447 487.508 148.677 488.968 148.677C490.428 148.677 491.328 149.397 491.328 150.617C491.328 151.387 490.928 151.897 490.178 152.137C491.048 152.387 491.548 153.037 491.548 153.937C491.548 155.278 490.538 156.098 488.938 156.098ZM493.654 155.938C493.654 153.787 494.554 151.827 496.024 150.117H492.524V148.837H497.444V150.047C495.814 151.907 495.144 153.497 495.144 155.938H493.654ZM499.65 155.938C499.65 153.787 500.55 151.827 502.02 150.117H498.52V148.837H503.44V150.047C501.81 151.907 501.14 153.497 501.14 155.938H499.65Z" fill="black"/>
<path id="339" d="M28.0884 178.363C26.4584 178.363 25.6484 177.533 25.5784 176.243L27.0184 176.173C27.0784 176.863 27.5384 177.103 28.1184 177.103C28.7484 177.103 29.2384 176.803 29.2384 176.103C29.2384 175.423 28.7884 175.063 28.0484 175.063H27.5184V173.933H28.0484C28.6084 173.933 29.0184 173.683 29.0184 173.073C29.0184 172.483 28.6684 172.193 28.1084 172.193C27.4884 172.193 27.1884 172.503 27.1284 172.993L25.6884 172.923C25.8284 171.713 26.6584 170.943 28.1184 170.943C29.5784 170.943 30.4784 171.663 30.4784 172.883C30.4784 173.653 30.0784 174.163 29.3284 174.403C30.1984 174.653 30.6984 175.303 30.6984 176.203C30.6984 177.543 29.6884 178.363 28.0884 178.363ZM34.0845 178.363C32.4545 178.363 31.6445 177.533 31.5745 176.243L33.0145 176.173C33.0745 176.863 33.5345 177.103 34.1145 177.103C34.7445 177.103 35.2345 176.803 35.2345 176.103C35.2345 175.423 34.7845 175.063 34.0445 175.063H33.5145V173.933H34.0445C34.6045 173.933 35.0145 173.683 35.0145 173.073C35.0145 172.483 34.6645 172.193 34.1045 172.193C33.4845 172.193 33.1845 172.503 33.1245 172.993L31.6845 172.923C31.8245 171.713 32.6545 170.943 34.1145 170.943C35.5745 170.943 36.4745 171.663 36.4745 172.883C36.4745 173.653 36.0745 174.163 35.3245 174.403C36.1945 174.653 36.6945 175.303 36.6945 176.203C36.6945 177.543 35.6845 178.363 34.0845 178.363ZM40.1106 170.943C41.8406 170.943 42.7506 172.113 42.7506 174.173C42.7506 176.523 41.9406 178.363 39.8506 178.363C38.4506 178.363 37.8006 177.603 37.5406 176.583L38.9806 176.483C39.0806 176.843 39.3106 177.103 39.8506 177.103C40.5906 177.103 41.1106 176.593 41.2706 175.373C40.9306 175.673 40.4506 175.893 39.8206 175.893C38.4106 175.893 37.5106 174.943 37.5106 173.513C37.5106 171.933 38.5406 170.943 40.1106 170.943ZM40.1406 172.223C39.3906 172.223 38.9706 172.663 38.9706 173.463C38.9706 174.203 39.3506 174.683 40.0806 174.683C40.8206 174.683 41.2906 174.193 41.2906 173.453C41.2906 172.773 40.8706 172.223 40.1406 172.223Z" fill="black"/>
</g>
<path id="field" d="M4.01514 198.612L102.747 46.6953L108.373 51.8046L151.731 26.6336V21.6257L314.43 18.5117L517.783 154.923V178.465H511.399L491.429 213.933L475.274 205.316L431.969 246.267L374.521 348.643L320.322 428.565L326.654 433.359L303.885 466.182L297.675 460.564C274.306 491.099 228.126 490.523 205.527 459.414L201.421 453.763L195.655 459.085L173.625 425.966L181.313 420.495L102.747 294.627L24.2816 217.307L17.5336 222.93L4.01514 198.612Z" fill="#BA0021" fill-opacity="0.1" fill="none" stroke="#BA0021" stroke-width="1.002"/>
</g>
<defs>
<clipPath id="clip0_114_5192">
<rect width="500" height="469.94" fill="white"/>
</clipPath>
</defs>
</svg>
