<svg width="500" height="470" viewBox="0 0 500 470" fill="none" xmlns="http://www.w3.org/2000/svg">
<g id="daikin-park-2000" clip-path="url(#clip0_95_2716)">
<g id="Infield">
<path d="M339.98 327.766C339.453 325.666 322.032 258.479 250.83 258.479C180.238 258.479 162.505 324.538 161.697 327.699C161.677 327.776 161.668 327.816 161.668 327.816L236.504 402.653C235.305 404.912 234.623 407.489 234.623 410.238C234.623 419.186 241.873 426.445 250.83 426.445C259.778 426.445 267.037 419.186 267.037 410.238C267.037 407.489 266.356 404.912 265.156 402.657L260.695 397.375C257.96 395.278 254.544 394.026 250.83 394.026C247.117 394.026 243.701 395.278 240.971 397.37L197.7 354.1C201.448 350.353 201.448 344.277 197.7 340.53C197.698 340.527 197.694 340.525 197.691 340.522L244.055 294.038C247.8 297.773 253.861 297.773 257.606 294.038L303.431 339.984C303.431 339.984 303.427 339.985 303.424 339.988C299.677 343.736 300.275 350.3 304.022 354.047L260.695 397.375L265.156 402.657L339.98 327.766Z" fill="#D2D2D2"/>
<path d="M259.91 345.706C259.91 350.721 255.845 354.787 250.83 354.787C245.815 354.787 241.75 350.721 241.75 345.706C241.75 340.691 245.815 336.626 250.83 336.626C255.845 336.626 259.91 340.691 259.91 345.706Z" fill="#D2D2D2"/>
</g>
<g id="Guides">
<g id="Home">
<circle id="Ellipse 1" cx="250.827" cy="410.419" r="16.0848" fill="#D2D2D2"/>
<circle id="Ellipse 1_2" cx="250.827" cy="410.418" r="1.62919" fill="black"/>
</g>
<g id="First">
<circle id="Ellipse 1_3" cx="311.125" cy="346.532" r="10.1878" fill="#D2D2D2"/>
<circle id="Ellipse 1_4" cx="311.125" cy="346.532" r="1.0319" fill="black"/>
</g>
<g id="Third">
<circle id="Ellipse 1_5" cx="190.34" cy="346.532" r="10.1878" fill="#D2D2D2"/>
<circle id="Ellipse 1_6" cx="190.34" cy="346.532" r="1.0319" fill="black"/>
</g>
<g id="Second">
<circle id="Ellipse 1_7" cx="250.827" cy="286.67" r="10.1878" fill="#D2D2D2"/>
<circle id="Ellipse 1_8" cx="250.827" cy="286.671" r="1.0319" fill="black"/>
</g>
<g id="Mound">
<circle id="Ellipse 1_9" cx="250.827" cy="345.929" r="9.08365" fill="#D2D2D2"/>
<circle id="Ellipse 1_10" cx="250.827" cy="345.93" r="0.920062" fill="black"/>
</g>
</g>
<path id="Foul Lines" d="M475.975 185.516L250.976 410.515L32.1664 191.706" fill="none" stroke="black" stroke-width="1.002"/>
<g id="Measurements">
<path id="373" d="M373.86 62.3534C372.23 62.3534 371.42 61.5234 371.35 60.2334L372.79 60.1634C372.85 60.8534 373.31 61.0934 373.89 61.0934C374.52 61.0934 375.01 60.7934 375.01 60.0934C375.01 59.4134 374.56 59.0534 373.82 59.0534H373.29V57.9234H373.82C374.38 57.9234 374.79 57.6734 374.79 57.0634C374.79 56.4734 374.44 56.1834 373.88 56.1834C373.26 56.1834 372.96 56.4934 372.9 56.9834L371.46 56.9134C371.6 55.7034 372.43 54.9334 373.89 54.9334C375.35 54.9334 376.25 55.6534 376.25 56.8734C376.25 57.6434 375.85 58.1534 375.1 58.3934C375.97 58.6434 376.47 59.2934 376.47 60.1934C376.47 61.5334 375.46 62.3534 373.86 62.3534ZM378.576 62.1934C378.576 60.0434 379.476 58.0834 380.946 56.3734H377.446V55.0934H382.366V56.3034C380.736 58.1634 380.066 59.7534 380.066 62.1934H378.576ZM385.852 62.3534C384.222 62.3534 383.412 61.5234 383.342 60.2334L384.782 60.1634C384.842 60.8534 385.302 61.0934 385.882 61.0934C386.512 61.0934 387.002 60.7934 387.002 60.0934C387.002 59.4134 386.552 59.0534 385.812 59.0534H385.282V57.9234H385.812C386.372 57.9234 386.782 57.6734 386.782 57.0634C386.782 56.4734 386.432 56.1834 385.872 56.1834C385.252 56.1834 384.952 56.4934 384.892 56.9834L383.452 56.9134C383.592 55.7034 384.422 54.9334 385.882 54.9334C387.342 54.9334 388.242 55.6534 388.242 56.8734C388.242 57.6434 387.842 58.1534 387.092 58.3934C387.962 58.6434 388.462 59.2934 388.462 60.1934C388.462 61.5334 387.452 62.3534 385.852 62.3534Z" fill="black"/>
<path id="362" d="M105.441 82.2049C103.811 82.2049 103.001 81.3749 102.931 80.0849L104.371 80.0149C104.431 80.7049 104.891 80.9449 105.471 80.9449C106.101 80.9449 106.591 80.6449 106.591 79.9449C106.591 79.2649 106.141 78.9049 105.401 78.9049H104.871V77.7749H105.401C105.961 77.7749 106.371 77.5249 106.371 76.9149C106.371 76.3249 106.021 76.0349 105.461 76.0349C104.841 76.0349 104.541 76.3449 104.481 76.8349L103.041 76.7649C103.181 75.5549 104.011 74.7849 105.471 74.7849C106.931 74.7849 107.831 75.5049 107.831 76.7249C107.831 77.4949 107.431 78.0049 106.681 78.2449C107.551 78.4949 108.051 79.1449 108.051 80.0449C108.051 81.3849 107.041 82.2049 105.441 82.2049ZM111.508 82.2049C109.778 82.2049 108.868 81.0349 108.868 78.9749C108.868 76.6249 109.678 74.7849 111.768 74.7849C113.168 74.7849 113.818 75.5449 114.078 76.5649L112.638 76.6649C112.538 76.3049 112.308 76.0449 111.768 76.0449C111.028 76.0449 110.508 76.5549 110.348 77.7749C110.688 77.4749 111.168 77.2549 111.798 77.2549C113.208 77.2549 114.108 78.2049 114.108 79.6349C114.108 81.2149 113.078 82.2049 111.508 82.2049ZM111.478 80.9249C112.228 80.9249 112.648 80.4849 112.648 79.6849C112.648 78.9449 112.268 78.4649 111.538 78.4649C110.798 78.4649 110.328 78.9549 110.328 79.6949C110.328 80.3749 110.748 80.9249 111.478 80.9249ZM114.924 82.0449C114.924 80.3149 115.504 79.3049 117.484 78.2849C118.214 77.9049 118.574 77.6249 118.574 76.9749C118.574 76.4049 118.244 76.0449 117.614 76.0449C116.894 76.0449 116.544 76.4649 116.424 77.2249L114.954 77.1349C115.094 75.6849 116.004 74.7849 117.634 74.7849C119.224 74.7849 120.044 75.6349 120.044 76.8949C120.044 78.0349 119.554 78.5949 118.154 79.3549C117.004 79.9749 116.594 80.4049 116.554 80.7649H120.044V82.0449H114.924Z" fill="black"/>
<path id="326" d="M453.097 189.31C451.467 189.31 450.657 188.48 450.587 187.19L452.027 187.12C452.087 187.81 452.547 188.05 453.127 188.05C453.757 188.05 454.247 187.75 454.247 187.05C454.247 186.37 453.797 186.01 453.057 186.01H452.527V184.88H453.057C453.617 184.88 454.027 184.63 454.027 184.02C454.027 183.43 453.677 183.14 453.117 183.14C452.497 183.14 452.197 183.45 452.137 183.94L450.697 183.87C450.837 182.66 451.667 181.89 453.127 181.89C454.587 181.89 455.487 182.61 455.487 183.83C455.487 184.6 455.087 185.11 454.337 185.35C455.207 185.6 455.707 186.25 455.707 187.15C455.707 188.49 454.697 189.31 453.097 189.31ZM456.583 189.15C456.583 187.42 457.163 186.41 459.143 185.39C459.873 185.01 460.233 184.73 460.233 184.08C460.233 183.51 459.903 183.15 459.273 183.15C458.553 183.15 458.203 183.57 458.083 184.33L456.613 184.24C456.753 182.79 457.663 181.89 459.293 181.89C460.883 181.89 461.703 182.74 461.703 184C461.703 185.14 461.213 185.7 459.813 186.46C458.663 187.08 458.253 187.51 458.213 187.87H461.703V189.15H456.583ZM465.159 189.31C463.429 189.31 462.519 188.14 462.519 186.08C462.519 183.73 463.329 181.89 465.419 181.89C466.819 181.89 467.469 182.65 467.729 183.67L466.289 183.77C466.189 183.41 465.959 183.15 465.419 183.15C464.679 183.15 464.159 183.66 463.999 184.88C464.339 184.58 464.819 184.36 465.449 184.36C466.859 184.36 467.759 185.31 467.759 186.74C467.759 188.32 466.729 189.31 465.159 189.31ZM465.129 188.03C465.879 188.03 466.299 187.59 466.299 186.79C466.299 186.05 465.919 185.57 465.189 185.57C464.449 185.57 463.979 186.06 463.979 186.8C463.979 187.48 464.399 188.03 465.129 188.03Z" fill="black"/>
<path id="315" d="M44.105 195.81C42.475 195.81 41.665 194.98 41.595 193.69L43.035 193.62C43.095 194.31 43.555 194.55 44.135 194.55C44.765 194.55 45.255 194.25 45.255 193.55C45.255 192.87 44.805 192.51 44.065 192.51H43.535V191.38H44.065C44.625 191.38 45.035 191.13 45.035 190.52C45.035 189.93 44.685 189.64 44.125 189.64C43.505 189.64 43.205 189.95 43.145 190.44L41.705 190.37C41.845 189.16 42.675 188.39 44.135 188.39C45.595 188.39 46.495 189.11 46.495 190.33C46.495 191.1 46.095 191.61 45.345 191.85C46.215 192.1 46.715 192.75 46.715 193.65C46.715 194.99 45.705 195.81 44.105 195.81ZM47.6311 195.65V194.37H49.6711V190.99H47.9311V189.81H48.7111C49.5111 189.81 49.8511 189.47 49.8511 188.55H51.0911V194.37H52.6711V195.65H47.6311ZM56.1372 195.81C54.6372 195.81 53.7272 194.92 53.6272 193.75L55.0872 193.67C55.1772 194.25 55.5272 194.55 56.1372 194.55C56.7972 194.55 57.2072 194.13 57.2072 193.32C57.2072 192.53 56.7872 192.07 56.1472 192.07C55.7072 192.07 55.3372 192.33 55.1972 192.69L53.7272 192.62L54.1472 188.55H58.3372V189.83H55.3172L55.1372 191.36C55.4672 191.08 55.9072 190.92 56.3872 190.92C57.7972 190.92 58.6672 191.94 58.6672 193.33C58.6672 194.8 57.6672 195.81 56.1372 195.81Z" fill="black"/>
</g>
<path id="field" d="M123.456 81.7011L197.154 18.7562C205.993 18.7562 209.782 17.8079 212.39 15.1997C214.998 12.5915 220.282 6.90703 218.409 1.28941C234.995 -15.2959 244.357 -16.2324 272.178 -16.2324C294.434 -16.2324 309.12 -0.158525 313.68 7.87842L315.699 5.85916L366.459 66.3345H375.58L479.479 190.061L446.046 223.325C446.046 252.699 432.671 272.894 419.557 289.679C411.194 300.384 340.937 380.805 287.272 443.324C268.047 465.721 233.334 465.923 214.006 443.614L97.2295 308.825V266.076L27.9906 196.05L125.03 105.305L123.456 81.7011Z" fill="#002D62" fill-opacity="0.1" fill="none" stroke="#002D62" stroke-width="1.002"/>
</g>
<defs>
<clipPath id="clip0_95_2716">
<rect width="500" height="469.94" fill="white"/>
</clipPath>
</defs>
</svg>
