<svg width="500" height="470" viewBox="0 0 500 470" fill="none" xmlns="http://www.w3.org/2000/svg">
<g id="dodger-stadium-2005">
<g id="Infield">
<path d="M339.98 327.765C339.453 325.666 322.032 258.478 250.83 258.478C180.238 258.478 162.505 324.537 161.697 327.698C161.677 327.776 161.668 327.816 161.668 327.816L236.504 402.652C235.305 404.911 234.623 407.488 234.623 410.237C234.623 419.185 241.873 426.444 250.83 426.444C259.778 426.444 267.037 419.185 267.037 410.237C267.037 407.488 266.356 404.911 265.157 402.657L260.695 397.374C257.96 395.277 254.544 394.025 250.83 394.025C247.117 394.025 243.701 395.277 240.971 397.369L197.7 354.099C201.448 350.352 201.448 344.276 197.7 340.529C197.698 340.526 197.694 340.524 197.691 340.521L244.055 294.037C247.8 297.773 253.861 297.773 257.606 294.037L303.431 339.983C303.431 339.983 303.427 339.985 303.424 339.988C299.677 343.735 300.275 350.299 304.022 354.046L260.695 397.374L265.157 402.657L339.98 327.765Z" fill="#D2D2D2"/>
<path d="M259.91 345.706C259.91 350.72 255.845 354.786 250.83 354.786C245.815 354.786 241.75 350.72 241.75 345.706C241.75 340.691 245.815 336.625 250.83 336.625C255.845 336.625 259.91 340.691 259.91 345.706Z" fill="#D2D2D2"/>
</g>
<g id="Guides">
<g id="Home">
<circle id="Ellipse 1" cx="250.827" cy="410.42" r="16.0848" fill="#D2D2D2"/>
<circle id="Ellipse 1_2" cx="250.827" cy="410.42" r="1.62919" fill="black"/>
</g>
<g id="First">
<circle id="Ellipse 1_3" cx="311.125" cy="346.533" r="10.1878" fill="#D2D2D2"/>
<circle id="Ellipse 1_4" cx="311.125" cy="346.533" r="1.0319" fill="black"/>
</g>
<g id="Third">
<circle id="Ellipse 1_5" cx="190.34" cy="346.533" r="10.1878" fill="#D2D2D2"/>
<circle id="Ellipse 1_6" cx="190.34" cy="346.533" r="1.0319" fill="black"/>
</g>
<g id="Second">
<circle id="Ellipse 1_7" cx="250.827" cy="286.671" r="10.1878" fill="#D2D2D2"/>
<circle id="Ellipse 1_8" cx="250.827" cy="286.671" r="1.0319" fill="black"/>
</g>
<g id="Mound">
<circle id="Ellipse 1_9" cx="250.827" cy="345.929" r="9.08365" fill="#D2D2D2"/>
<circle id="Ellipse 1_10" cx="250.827" cy="345.929" r="0.920062" fill="black"/>
</g>
</g>
<path id="Foul Lines" d="M480.787 180.705L250.976 410.516L21.3666 180.907" fill="none" stroke="black" stroke-width="1.002"/>
<g id="Measurements">
<path id="395" d="M244.693 16.6336C243.063 16.6336 242.253 15.8036 242.183 14.5136L243.623 14.4436C243.683 15.1336 244.143 15.3736 244.723 15.3736C245.353 15.3736 245.843 15.0736 245.843 14.3736C245.843 13.6936 245.393 13.3336 244.653 13.3336H244.123V12.2036H244.653C245.213 12.2036 245.623 11.9536 245.623 11.3436C245.623 10.7536 245.273 10.4636 244.713 10.4636C244.093 10.4636 243.793 10.7736 243.733 11.2636L242.293 11.1936C242.433 9.98363 243.263 9.21363 244.723 9.21363C246.183 9.21363 247.083 9.93363 247.083 11.1536C247.083 11.9236 246.683 12.4336 245.933 12.6736C246.803 12.9236 247.303 13.5736 247.303 14.4736C247.303 15.8136 246.293 16.6336 244.693 16.6336ZM250.72 9.21363C252.45 9.21363 253.36 10.3836 253.36 12.4436C253.36 14.7936 252.55 16.6336 250.46 16.6336C249.06 16.6336 248.41 15.8736 248.15 14.8536L249.59 14.7536C249.69 15.1136 249.92 15.3736 250.46 15.3736C251.2 15.3736 251.72 14.8636 251.88 13.6436C251.54 13.9436 251.06 14.1636 250.43 14.1636C249.02 14.1636 248.12 13.2136 248.12 11.7836C248.12 10.2036 249.15 9.21363 250.72 9.21363ZM250.75 10.4936C250 10.4936 249.58 10.9336 249.58 11.7336C249.58 12.4736 249.96 12.9536 250.69 12.9536C251.43 12.9536 251.9 12.4636 251.9 11.7236C251.9 11.0436 251.48 10.4936 250.75 10.4936ZM256.726 16.6336C255.226 16.6336 254.316 15.7436 254.216 14.5736L255.676 14.4936C255.766 15.0736 256.116 15.3736 256.726 15.3736C257.386 15.3736 257.796 14.9536 257.796 14.1436C257.796 13.3536 257.376 12.8936 256.736 12.8936C256.296 12.8936 255.926 13.1536 255.786 13.5136L254.316 13.4436L254.736 9.37363H258.926V10.6536H255.906L255.726 12.1836C256.056 11.9036 256.496 11.7436 256.976 11.7436C258.386 11.7436 259.256 12.7636 259.256 14.1536C259.256 15.6236 258.256 16.6336 256.726 16.6336Z" fill="black"/>
<path id="375" d="M103.705 63.0284C102.075 63.0284 101.265 62.1984 101.195 60.9084L102.635 60.8384C102.695 61.5284 103.155 61.7684 103.735 61.7684C104.365 61.7684 104.855 61.4684 104.855 60.7684C104.855 60.0884 104.405 59.7284 103.665 59.7284H103.135V58.5984H103.665C104.225 58.5984 104.635 58.3484 104.635 57.7384C104.635 57.1484 104.285 56.8584 103.725 56.8584C103.105 56.8584 102.805 57.1684 102.745 57.6584L101.305 57.5884C101.445 56.3784 102.275 55.6084 103.735 55.6084C105.195 55.6084 106.095 56.3284 106.095 57.5484C106.095 58.3184 105.695 58.8284 104.945 59.0684C105.815 59.3184 106.315 59.9684 106.315 60.8684C106.315 62.2084 105.305 63.0284 103.705 63.0284ZM108.421 62.8684C108.421 60.7184 109.321 58.7584 110.791 57.0484H107.291V55.7684H112.211V56.9784C110.581 58.8384 109.911 60.4284 109.911 62.8684H108.421ZM115.738 63.0284C114.238 63.0284 113.328 62.1384 113.228 60.9684L114.688 60.8884C114.778 61.4684 115.128 61.7684 115.738 61.7684C116.398 61.7684 116.808 61.3484 116.808 60.5384C116.808 59.7484 116.388 59.2884 115.748 59.2884C115.308 59.2884 114.938 59.5484 114.798 59.9084L113.328 59.8384L113.748 55.7684H117.938V57.0484H114.918L114.738 58.5784C115.068 58.2984 115.508 58.1384 115.988 58.1384C117.398 58.1384 118.268 59.1584 118.268 60.5484C118.268 62.0184 117.268 63.0284 115.738 63.0284Z" fill="black"/>
<path id="375_2" d="M384.573 63.0284C382.943 63.0284 382.133 62.1984 382.063 60.9084L383.503 60.8384C383.563 61.5284 384.023 61.7684 384.603 61.7684C385.233 61.7684 385.723 61.4684 385.723 60.7684C385.723 60.0884 385.273 59.7284 384.533 59.7284H384.003V58.5984H384.533C385.093 58.5984 385.503 58.3484 385.503 57.7384C385.503 57.1484 385.153 56.8584 384.593 56.8584C383.973 56.8584 383.673 57.1684 383.613 57.6584L382.173 57.5884C382.313 56.3784 383.143 55.6084 384.603 55.6084C386.063 55.6084 386.963 56.3284 386.963 57.5484C386.963 58.3184 386.563 58.8284 385.813 59.0684C386.683 59.3184 387.183 59.9684 387.183 60.8684C387.183 62.2084 386.173 63.0284 384.573 63.0284ZM389.289 62.8684C389.289 60.7184 390.189 58.7584 391.659 57.0484H388.159V55.7684H393.079V56.9784C391.449 58.8384 390.779 60.4284 390.779 62.8684H389.289ZM396.605 63.0284C395.105 63.0284 394.195 62.1384 394.095 60.9684L395.555 60.8884C395.645 61.4684 395.995 61.7684 396.605 61.7684C397.265 61.7684 397.675 61.3484 397.675 60.5384C397.675 59.7484 397.255 59.2884 396.615 59.2884C396.175 59.2884 395.805 59.5484 395.665 59.9084L394.195 59.8384L394.615 55.7684H398.805V57.0484H395.785L395.605 58.5784C395.935 58.2984 396.375 58.1384 396.855 58.1384C398.265 58.1384 399.135 59.1584 399.135 60.5484C399.135 62.0184 398.135 63.0284 396.605 63.0284Z" fill="black"/>
<path id="330" d="M461.938 178.598C460.308 178.598 459.498 177.768 459.428 176.478L460.868 176.408C460.928 177.098 461.388 177.338 461.968 177.338C462.598 177.338 463.088 177.038 463.088 176.338C463.088 175.658 462.638 175.298 461.898 175.298H461.368V174.168H461.898C462.458 174.168 462.868 173.918 462.868 173.308C462.868 172.718 462.518 172.428 461.958 172.428C461.338 172.428 461.038 172.738 460.978 173.228L459.538 173.158C459.678 171.948 460.508 171.178 461.968 171.178C463.428 171.178 464.328 171.898 464.328 173.118C464.328 173.888 463.928 174.398 463.178 174.638C464.048 174.888 464.548 175.538 464.548 176.438C464.548 177.778 463.538 178.598 461.938 178.598ZM467.934 178.598C466.304 178.598 465.494 177.768 465.424 176.478L466.864 176.408C466.924 177.098 467.384 177.338 467.964 177.338C468.594 177.338 469.084 177.038 469.084 176.338C469.084 175.658 468.634 175.298 467.894 175.298H467.364V174.168H467.894C468.454 174.168 468.864 173.918 468.864 173.308C468.864 172.718 468.514 172.428 467.954 172.428C467.334 172.428 467.034 172.738 466.974 173.228L465.534 173.158C465.674 171.948 466.504 171.178 467.964 171.178C469.424 171.178 470.324 171.898 470.324 173.118C470.324 173.888 469.924 174.398 469.174 174.638C470.044 174.888 470.544 175.538 470.544 176.438C470.544 177.778 469.534 178.598 467.934 178.598ZM473.98 178.598C472.38 178.598 471.42 177.188 471.42 174.898C471.42 172.598 472.38 171.178 473.98 171.178C475.58 171.178 476.54 172.598 476.54 174.898C476.54 177.188 475.58 178.598 473.98 178.598ZM472.88 174.898C472.88 175.328 472.91 175.698 472.97 176.008L474.66 172.818C474.48 172.568 474.25 172.438 473.98 172.438C473.29 172.438 472.88 173.258 472.88 174.898ZM473.98 177.338C474.67 177.338 475.08 176.528 475.08 174.898C475.08 174.468 475.05 174.088 474.99 173.768L473.3 176.958C473.48 177.208 473.71 177.338 473.98 177.338Z" fill="black"/>
<path id="330_2" d="M28.5783 178.598C26.9483 178.598 26.1383 177.768 26.0683 176.478L27.5083 176.408C27.5683 177.098 28.0283 177.338 28.6083 177.338C29.2383 177.338 29.7283 177.038 29.7283 176.338C29.7283 175.658 29.2783 175.298 28.5383 175.298H28.0083V174.168H28.5383C29.0983 174.168 29.5083 173.918 29.5083 173.308C29.5083 172.718 29.1583 172.428 28.5983 172.428C27.9783 172.428 27.6783 172.738 27.6183 173.228L26.1783 173.158C26.3183 171.948 27.1483 171.178 28.6083 171.178C30.0683 171.178 30.9683 171.898 30.9683 173.118C30.9683 173.888 30.5683 174.398 29.8183 174.638C30.6883 174.888 31.1883 175.538 31.1883 176.438C31.1883 177.778 30.1783 178.598 28.5783 178.598ZM34.5744 178.598C32.9444 178.598 32.1344 177.768 32.0644 176.478L33.5044 176.408C33.5644 177.098 34.0244 177.338 34.6044 177.338C35.2344 177.338 35.7244 177.038 35.7244 176.338C35.7244 175.658 35.2744 175.298 34.5344 175.298H34.0044V174.168H34.5344C35.0944 174.168 35.5044 173.918 35.5044 173.308C35.5044 172.718 35.1544 172.428 34.5944 172.428C33.9744 172.428 33.6744 172.738 33.6144 173.228L32.1744 173.158C32.3144 171.948 33.1444 171.178 34.6044 171.178C36.0644 171.178 36.9644 171.898 36.9644 173.118C36.9644 173.888 36.5644 174.398 35.8144 174.638C36.6844 174.888 37.1844 175.538 37.1844 176.438C37.1844 177.778 36.1744 178.598 34.5744 178.598ZM40.6205 178.598C39.0205 178.598 38.0605 177.188 38.0605 174.898C38.0605 172.598 39.0205 171.178 40.6205 171.178C42.2205 171.178 43.1805 172.598 43.1805 174.898C43.1805 177.188 42.2205 178.598 40.6205 178.598ZM39.5205 174.898C39.5205 175.328 39.5505 175.698 39.6105 176.008L41.3005 172.818C41.1205 172.568 40.8905 172.438 40.6205 172.438C39.9305 172.438 39.5205 173.258 39.5205 174.898ZM40.6205 177.338C41.3105 177.338 41.7205 176.528 41.7205 174.898C41.7205 174.468 41.6905 174.088 41.6305 173.768L39.9405 176.958C40.1205 177.208 40.3505 177.338 40.6205 177.338Z" fill="black"/>
</g>
<path id="field" d="M250.3 464.385C266.953 464.385 291.368 458.67 305.102 432.364L403.029 278.808L473.634 206.879C475.074 205.412 476.16 203.62 476.727 201.644C487.303 164.753 474.98 142.523 463.541 129.577C451.465 115.906 341.611 19.4738 250.555 19.4738L250.541 19.4736C159.49 19.4736 55.6947 108.626 43.6009 122.297C32.1804 135.238 14.2459 164.352 24.4987 201.581C25.0552 203.602 26.1761 205.422 27.6583 206.904L96.8327 276.078L195.498 432.364C209.138 458.49 233.309 464.305 249.957 464.384L250.3 464.385Z" fill="#005A9C" fill-opacity="0.1" fill="none" stroke="#005A9C" stroke-width="1.002"/>
</g>
</svg>
