<svg width="500" height="470" viewBox="0 0 500 470" fill="none" xmlns="http://www.w3.org/2000/svg">
<g id="dodger-stadium-1962" clip-path="url(#clip0_72_894)">
<g id="Infield">
<path d="M339.98 327.765C339.453 325.666 322.032 258.478 250.83 258.478C180.238 258.478 162.505 324.537 161.697 327.698C161.677 327.776 161.668 327.816 161.668 327.816L236.504 402.652C235.305 404.911 234.623 407.488 234.623 410.237C234.623 419.185 241.873 426.444 250.83 426.444C259.778 426.444 267.037 419.185 267.037 410.237C267.037 407.488 266.356 404.911 265.156 402.657L260.695 397.374C257.96 395.277 254.544 394.025 250.83 394.025C247.117 394.025 243.701 395.277 240.971 397.369L197.7 354.099C201.448 350.352 201.448 344.276 197.7 340.529C197.698 340.526 197.694 340.524 197.691 340.521L244.055 294.037C247.8 297.773 253.861 297.773 257.606 294.037L303.431 339.983C303.431 339.983 303.427 339.985 303.424 339.988C299.677 343.735 300.275 350.299 304.022 354.046L260.695 397.374L265.156 402.657L339.98 327.765Z" fill="#D2D2D2"/>
<path d="M259.91 345.706C259.91 350.72 255.845 354.786 250.83 354.786C245.815 354.786 241.75 350.72 241.75 345.706C241.75 340.691 245.815 336.625 250.83 336.625C255.845 336.625 259.91 340.691 259.91 345.706Z" fill="#D2D2D2"/>
</g>
<g id="Guides">
<g id="Home">
<circle id="Ellipse 1" cx="250.827" cy="410.42" r="16.0848" fill="#D2D2D2"/>
<circle id="Ellipse 1_2" cx="250.827" cy="410.42" r="1.62919" fill="black"/>
</g>
<g id="First">
<circle id="Ellipse 1_3" cx="311.125" cy="346.533" r="10.1878" fill="#D2D2D2"/>
<circle id="Ellipse 1_4" cx="311.125" cy="346.533" r="1.0319" fill="black"/>
</g>
<g id="Third">
<circle id="Ellipse 1_5" cx="190.34" cy="346.533" r="10.1878" fill="#D2D2D2"/>
<circle id="Ellipse 1_6" cx="190.34" cy="346.533" r="1.0319" fill="black"/>
</g>
<g id="Second">
<circle id="Ellipse 1_7" cx="250.827" cy="286.671" r="10.1878" fill="#D2D2D2"/>
<circle id="Ellipse 1_8" cx="250.827" cy="286.671" r="1.0319" fill="black"/>
</g>
<g id="Mound">
<circle id="Ellipse 1_9" cx="250.827" cy="345.929" r="9.08365" fill="#D2D2D2"/>
<circle id="Ellipse 1_10" cx="250.827" cy="345.929" r="0.920062" fill="black"/>
</g>
</g>
<path id="Foul Lines" d="M480.787 180.705L250.976 410.516L20.6743 180.215" fill="none" stroke="black" stroke-width="1.002"/>
<g id="Measurements">
<path id="410" d="M245.193 6.89111V5.47111H242.023V4.30111L245.003 -0.208887H246.623V4.23111H247.463V5.47111H246.623V6.89111H245.193ZM243.363 4.23111H245.193V1.58111L243.363 4.23111ZM248.22 6.89111V5.61111H250.26V2.23111H248.52V1.05111H249.3C250.1 1.05111 250.44 0.711113 250.44 -0.208887H251.68V5.61111H253.26V6.89111H248.22ZM256.736 7.05111C255.136 7.05111 254.176 5.64111 254.176 3.35111C254.176 1.05111 255.136 -0.368887 256.736 -0.368887C258.336 -0.368887 259.296 1.05111 259.296 3.35111C259.296 5.64111 258.336 7.05111 256.736 7.05111ZM255.636 3.35111C255.636 3.78111 255.666 4.15111 255.726 4.46111L257.416 1.27111C257.236 1.02111 257.006 0.891113 256.736 0.891113C256.046 0.891113 255.636 1.71111 255.636 3.35111ZM256.736 5.79111C257.426 5.79111 257.836 4.98111 257.836 3.35111C257.836 2.92111 257.806 2.54111 257.746 2.22111L256.056 5.41111C256.236 5.66111 256.466 5.79111 256.736 5.79111Z" fill="black"/>
<path id="380" d="M84.0995 69.5284C82.4695 69.5284 81.6595 68.6984 81.5895 67.4084L83.0295 67.3384C83.0895 68.0284 83.5495 68.2684 84.1295 68.2684C84.7595 68.2684 85.2495 67.9684 85.2495 67.2684C85.2495 66.5884 84.7995 66.2284 84.0595 66.2284H83.5295V65.0984H84.0595C84.6195 65.0984 85.0295 64.8484 85.0295 64.2384C85.0295 63.6484 84.6795 63.3584 84.1195 63.3584C83.4995 63.3584 83.1995 63.6684 83.1395 64.1584L81.6995 64.0884C81.8395 62.8784 82.6695 62.1084 84.1295 62.1084C85.5895 62.1084 86.4895 62.8284 86.4895 64.0484C86.4895 64.8184 86.0895 65.3284 85.3395 65.5684C86.2095 65.8184 86.7095 66.4684 86.7095 67.3684C86.7095 68.7084 85.6995 69.5284 84.0995 69.5284ZM90.1456 69.5284C88.5756 69.5284 87.5256 68.8084 87.5256 67.4284C87.5256 66.4984 88.0656 65.8384 88.9356 65.5584C88.2656 65.2984 87.8156 64.8084 87.8156 64.0684C87.8156 62.9284 88.7456 62.1084 90.1456 62.1084C91.5456 62.1084 92.4756 62.9284 92.4756 64.0684C92.4756 64.8084 92.0256 65.2984 91.3456 65.5584C92.2256 65.8384 92.7656 66.4984 92.7656 67.4284C92.7656 68.8084 91.7156 69.5284 90.1456 69.5284ZM90.1456 64.9884C90.6556 64.9884 91.0056 64.7184 91.0056 64.1584C91.0056 63.6584 90.6656 63.3684 90.1456 63.3684C89.6256 63.3684 89.2856 63.6584 89.2856 64.1584C89.2856 64.7184 89.6356 64.9884 90.1456 64.9884ZM90.1456 68.2684C90.7856 68.2684 91.3056 67.9884 91.3056 67.2884C91.3056 66.6184 90.8756 66.1984 90.1456 66.1984C89.4156 66.1984 88.9856 66.6184 88.9856 67.2884C88.9856 67.9884 89.5056 68.2684 90.1456 68.2684ZM96.1417 69.5284C94.5417 69.5284 93.5817 68.1184 93.5817 65.8284C93.5817 63.5284 94.5417 62.1084 96.1417 62.1084C97.7417 62.1084 98.7017 63.5284 98.7017 65.8284C98.7017 68.1184 97.7417 69.5284 96.1417 69.5284ZM95.0417 65.8284C95.0417 66.2584 95.0717 66.6284 95.1317 66.9384L96.8217 63.7484C96.6417 63.4984 96.4117 63.3684 96.1417 63.3684C95.4517 63.3684 95.0417 64.1884 95.0417 65.8284ZM96.1417 68.2684C96.8317 68.2684 97.2417 67.4584 97.2417 65.8284C97.2417 65.3984 97.2117 65.0184 97.1517 64.6984L95.4617 67.8884C95.6417 68.1384 95.8717 68.2684 96.1417 68.2684Z" fill="black"/>
<path id="380_2" d="M404.843 69.5284C403.213 69.5284 402.403 68.6984 402.333 67.4084L403.773 67.3384C403.833 68.0284 404.293 68.2684 404.873 68.2684C405.503 68.2684 405.993 67.9684 405.993 67.2684C405.993 66.5884 405.543 66.2284 404.803 66.2284H404.273V65.0984H404.803C405.363 65.0984 405.773 64.8484 405.773 64.2384C405.773 63.6484 405.423 63.3584 404.863 63.3584C404.243 63.3584 403.943 63.6684 403.883 64.1584L402.443 64.0884C402.583 62.8784 403.413 62.1084 404.873 62.1084C406.333 62.1084 407.233 62.8284 407.233 64.0484C407.233 64.8184 406.833 65.3284 406.083 65.5684C406.953 65.8184 407.453 66.4684 407.453 67.3684C407.453 68.7084 406.443 69.5284 404.843 69.5284ZM410.889 69.5284C409.319 69.5284 408.269 68.8084 408.269 67.4284C408.269 66.4984 408.809 65.8384 409.679 65.5584C409.009 65.2984 408.559 64.8084 408.559 64.0684C408.559 62.9284 409.489 62.1084 410.889 62.1084C412.289 62.1084 413.219 62.9284 413.219 64.0684C413.219 64.8084 412.769 65.2984 412.089 65.5584C412.969 65.8384 413.509 66.4984 413.509 67.4284C413.509 68.8084 412.459 69.5284 410.889 69.5284ZM410.889 64.9884C411.399 64.9884 411.749 64.7184 411.749 64.1584C411.749 63.6584 411.409 63.3684 410.889 63.3684C410.369 63.3684 410.029 63.6584 410.029 64.1584C410.029 64.7184 410.379 64.9884 410.889 64.9884ZM410.889 68.2684C411.529 68.2684 412.049 67.9884 412.049 67.2884C412.049 66.6184 411.619 66.1984 410.889 66.1984C410.159 66.1984 409.729 66.6184 409.729 67.2884C409.729 67.9884 410.249 68.2684 410.889 68.2684ZM416.886 69.5284C415.286 69.5284 414.326 68.1184 414.326 65.8284C414.326 63.5284 415.286 62.1084 416.886 62.1084C418.486 62.1084 419.446 63.5284 419.446 65.8284C419.446 68.1184 418.486 69.5284 416.886 69.5284ZM415.786 65.8284C415.786 66.2584 415.816 66.6284 415.876 66.9384L417.566 63.7484C417.386 63.4984 417.156 63.3684 416.886 63.3684C416.196 63.3684 415.786 64.1884 415.786 65.8284ZM416.886 68.2684C417.576 68.2684 417.986 67.4584 417.986 65.8284C417.986 65.3984 417.956 65.0184 417.896 64.6984L416.206 67.8884C416.386 68.1384 416.616 68.2684 416.886 68.2684Z" fill="black"/>
<path id="330" d="M461.938 178.598C460.308 178.598 459.498 177.768 459.428 176.478L460.868 176.408C460.928 177.098 461.388 177.338 461.968 177.338C462.598 177.338 463.088 177.038 463.088 176.338C463.088 175.658 462.638 175.298 461.898 175.298H461.368V174.168H461.898C462.458 174.168 462.868 173.918 462.868 173.308C462.868 172.718 462.518 172.428 461.958 172.428C461.338 172.428 461.038 172.738 460.978 173.228L459.538 173.158C459.678 171.948 460.508 171.178 461.968 171.178C463.428 171.178 464.328 171.898 464.328 173.118C464.328 173.888 463.928 174.398 463.178 174.638C464.048 174.888 464.548 175.538 464.548 176.438C464.548 177.778 463.538 178.598 461.938 178.598ZM467.934 178.598C466.304 178.598 465.494 177.768 465.424 176.478L466.864 176.408C466.924 177.098 467.384 177.338 467.964 177.338C468.594 177.338 469.084 177.038 469.084 176.338C469.084 175.658 468.634 175.298 467.894 175.298H467.364V174.168H467.894C468.454 174.168 468.864 173.918 468.864 173.308C468.864 172.718 468.514 172.428 467.954 172.428C467.334 172.428 467.034 172.738 466.974 173.228L465.534 173.158C465.674 171.948 466.504 171.178 467.964 171.178C469.424 171.178 470.324 171.898 470.324 173.118C470.324 173.888 469.924 174.398 469.174 174.638C470.044 174.888 470.544 175.538 470.544 176.438C470.544 177.778 469.534 178.598 467.934 178.598ZM473.98 178.598C472.38 178.598 471.42 177.188 471.42 174.898C471.42 172.598 472.38 171.178 473.98 171.178C475.58 171.178 476.54 172.598 476.54 174.898C476.54 177.188 475.58 178.598 473.98 178.598ZM472.88 174.898C472.88 175.328 472.91 175.698 472.97 176.008L474.66 172.818C474.48 172.568 474.25 172.438 473.98 172.438C473.29 172.438 472.88 173.258 472.88 174.898ZM473.98 177.338C474.67 177.338 475.08 176.528 475.08 174.898C475.08 174.468 475.05 174.088 474.99 173.768L473.3 176.958C473.48 177.208 473.71 177.338 473.98 177.338Z" fill="black"/>
<path id="330_2" d="M28.5783 178.598C26.9483 178.598 26.1383 177.768 26.0683 176.478L27.5083 176.408C27.5683 177.098 28.0283 177.338 28.6083 177.338C29.2383 177.338 29.7283 177.038 29.7283 176.338C29.7283 175.658 29.2783 175.298 28.5383 175.298H28.0083V174.168H28.5383C29.0983 174.168 29.5083 173.918 29.5083 173.308C29.5083 172.718 29.1583 172.428 28.5983 172.428C27.9783 172.428 27.6783 172.738 27.6183 173.228L26.1783 173.158C26.3183 171.948 27.1483 171.178 28.6083 171.178C30.0683 171.178 30.9683 171.898 30.9683 173.118C30.9683 173.888 30.5683 174.398 29.8183 174.638C30.6883 174.888 31.1883 175.538 31.1883 176.438C31.1883 177.778 30.1783 178.598 28.5783 178.598ZM34.5744 178.598C32.9444 178.598 32.1344 177.768 32.0644 176.478L33.5044 176.408C33.5644 177.098 34.0244 177.338 34.6044 177.338C35.2344 177.338 35.7244 177.038 35.7244 176.338C35.7244 175.658 35.2744 175.298 34.5344 175.298H34.0044V174.168H34.5344C35.0944 174.168 35.5044 173.918 35.5044 173.308C35.5044 172.718 35.1544 172.428 34.5944 172.428C33.9744 172.428 33.6744 172.738 33.6144 173.228L32.1744 173.158C32.3144 171.948 33.1444 171.178 34.6044 171.178C36.0644 171.178 36.9644 171.898 36.9644 173.118C36.9644 173.888 36.5644 174.398 35.8144 174.638C36.6844 174.888 37.1844 175.538 37.1844 176.438C37.1844 177.778 36.1744 178.598 34.5744 178.598ZM40.6205 178.598C39.0205 178.598 38.0605 177.188 38.0605 174.898C38.0605 172.598 39.0205 171.178 40.6205 171.178C42.2205 171.178 43.1805 172.598 43.1805 174.898C43.1805 177.188 42.2205 178.598 40.6205 178.598ZM39.5205 174.898C39.5205 175.328 39.5505 175.698 39.6105 176.008L41.3005 172.818C41.1205 172.568 40.8905 172.438 40.6205 172.438C39.9305 172.438 39.5205 173.258 39.5205 174.898ZM40.6205 177.338C41.3105 177.338 41.7205 176.528 41.7205 174.898C41.7205 174.468 41.6905 174.088 41.6305 173.768L39.9405 176.958C40.1205 177.208 40.3505 177.338 40.6205 177.338Z" fill="black"/>
</g>
<path id="field" d="M465.787 121.915C476.537 134.081 486.187 160.866 478.439 194.984C476.969 201.456 473.968 207.457 470.308 212.995L321.474 438.18C287.864 489.032 213.233 489.021 179.638 438.159L30.9106 212.987C27.2562 207.455 24.251 201.461 22.8149 194.988C15.2455 160.868 25.9586 134.082 36.6967 121.915C48.7904 108.243 159.49 9.89111 250.541 9.89111H250.555C341.611 9.89111 453.712 108.243 465.787 121.915Z" fill="#005A9C" fill-opacity="0.1" fill="none" stroke="#005A9C" stroke-width="1.002"/>
</g>
<defs>
<clipPath id="clip0_72_894">
<rect width="500" height="469.94" fill="white"/>
</clipPath>
</defs>
</svg>
