<svg width="500" height="470" viewBox="0 0 500 470" fill="none" xmlns="http://www.w3.org/2000/svg">
<g id="dodger-stadium-1969" clip-path="url(#clip0_72_962)">
<g id="Infield">
<path d="M339.98 327.765C339.453 325.666 322.032 258.478 250.83 258.478C180.238 258.478 162.505 324.537 161.697 327.698C161.677 327.776 161.668 327.816 161.668 327.816L236.504 402.652C235.305 404.911 234.623 407.488 234.623 410.237C234.623 419.185 241.873 426.444 250.83 426.444C259.778 426.444 267.037 419.185 267.037 410.237C267.037 407.488 266.356 404.911 265.156 402.657L260.695 397.374C257.96 395.277 254.544 394.025 250.83 394.025C247.117 394.025 243.701 395.277 240.971 397.369L197.7 354.099C201.448 350.352 201.448 344.276 197.7 340.529C197.698 340.526 197.694 340.524 197.691 340.521L244.055 294.037C247.8 297.773 253.861 297.773 257.606 294.037L303.431 339.983C303.431 339.983 303.427 339.985 303.424 339.988C299.677 343.735 300.275 350.299 304.022 354.046L260.695 397.374L265.156 402.657L339.98 327.765Z" fill="#D2D2D2"/>
<path d="M259.91 345.706C259.91 350.72 255.845 354.786 250.83 354.786C245.815 354.786 241.75 350.72 241.75 345.706C241.75 340.691 245.815 336.625 250.83 336.625C255.845 336.625 259.91 340.691 259.91 345.706Z" fill="#D2D2D2"/>
</g>
<g id="Guides">
<g id="Home">
<circle id="Ellipse 1" cx="250.827" cy="410.42" r="16.0848" fill="#D2D2D2"/>
<circle id="Ellipse 1_2" cx="250.827" cy="410.42" r="1.62919" fill="black"/>
</g>
<g id="First">
<circle id="Ellipse 1_3" cx="311.125" cy="346.533" r="10.1878" fill="#D2D2D2"/>
<circle id="Ellipse 1_4" cx="311.125" cy="346.533" r="1.0319" fill="black"/>
</g>
<g id="Third">
<circle id="Ellipse 1_5" cx="190.34" cy="346.533" r="10.1878" fill="#D2D2D2"/>
<circle id="Ellipse 1_6" cx="190.34" cy="346.533" r="1.0319" fill="black"/>
</g>
<g id="Second">
<circle id="Ellipse 1_7" cx="250.827" cy="286.671" r="10.1878" fill="#D2D2D2"/>
<circle id="Ellipse 1_8" cx="250.827" cy="286.671" r="1.0319" fill="black"/>
</g>
<g id="Mound">
<circle id="Ellipse 1_9" cx="250.827" cy="345.929" r="9.08365" fill="#D2D2D2"/>
<circle id="Ellipse 1_10" cx="250.827" cy="345.929" r="0.920062" fill="black"/>
</g>
</g>
<path id="Foul Lines" d="M480.787 180.705L250.976 410.516L20.5317 180.072" fill="none" stroke="black" stroke-width="1.002"/>
<g id="Measurements">
<path id="395" d="M244.693 15.0511C243.063 15.0511 242.253 14.2211 242.183 12.9311L243.623 12.8611C243.683 13.5511 244.143 13.7911 244.723 13.7911C245.353 13.7911 245.843 13.4911 245.843 12.7911C245.843 12.1111 245.393 11.7511 244.653 11.7511H244.123V10.6211H244.653C245.213 10.6211 245.623 10.3711 245.623 9.76111C245.623 9.17111 245.273 8.88111 244.713 8.88111C244.093 8.88111 243.793 9.19111 243.733 9.68111L242.293 9.61111C242.433 8.40111 243.263 7.63111 244.723 7.63111C246.183 7.63111 247.083 8.35111 247.083 9.57111C247.083 10.3411 246.683 10.8511 245.933 11.0911C246.803 11.3411 247.303 11.9911 247.303 12.8911C247.303 14.2311 246.293 15.0511 244.693 15.0511ZM250.72 7.63111C252.45 7.63111 253.36 8.80111 253.36 10.8611C253.36 13.2111 252.55 15.0511 250.46 15.0511C249.06 15.0511 248.41 14.2911 248.15 13.2711L249.59 13.1711C249.69 13.5311 249.92 13.7911 250.46 13.7911C251.2 13.7911 251.72 13.2811 251.88 12.0611C251.54 12.3611 251.06 12.5811 250.43 12.5811C249.02 12.5811 248.12 11.6311 248.12 10.2011C248.12 8.62111 249.15 7.63111 250.72 7.63111ZM250.75 8.91111C250 8.91111 249.58 9.35111 249.58 10.1511C249.58 10.8911 249.96 11.3711 250.69 11.3711C251.43 11.3711 251.9 10.8811 251.9 10.1411C251.9 9.46111 251.48 8.91111 250.75 8.91111ZM256.726 15.0511C255.226 15.0511 254.316 14.1611 254.216 12.9911L255.676 12.9111C255.766 13.4911 256.116 13.7911 256.726 13.7911C257.386 13.7911 257.796 13.3711 257.796 12.5611C257.796 11.7711 257.376 11.3111 256.736 11.3111C256.296 11.3111 255.926 11.5711 255.786 11.9311L254.316 11.8611L254.736 7.79111H258.926V9.07111H255.906L255.726 10.6011C256.056 10.3211 256.496 10.1611 256.976 10.1611C258.386 10.1611 259.256 11.1811 259.256 12.5711C259.256 14.0411 258.256 15.0511 256.726 15.0511Z" fill="black"/>
<path id="370" d="M84.0995 69.5284C82.4695 69.5284 81.6595 68.6984 81.5895 67.4084L83.0295 67.3384C83.0895 68.0284 83.5495 68.2684 84.1295 68.2684C84.7595 68.2684 85.2495 67.9684 85.2495 67.2684C85.2495 66.5884 84.7995 66.2284 84.0595 66.2284H83.5295V65.0984H84.0595C84.6195 65.0984 85.0295 64.8484 85.0295 64.2384C85.0295 63.6484 84.6795 63.3584 84.1195 63.3584C83.4995 63.3584 83.1995 63.6684 83.1395 64.1584L81.6995 64.0884C81.8395 62.8784 82.6695 62.1084 84.1295 62.1084C85.5895 62.1084 86.4895 62.8284 86.4895 64.0484C86.4895 64.8184 86.0895 65.3284 85.3395 65.5684C86.2095 65.8184 86.7095 66.4684 86.7095 67.3684C86.7095 68.7084 85.6995 69.5284 84.0995 69.5284ZM88.8156 69.3684C88.8156 67.2184 89.7156 65.2584 91.1856 63.5484H87.6856V62.2684H92.6056V63.4784C90.9756 65.3384 90.3056 66.9284 90.3056 69.3684H88.8156ZM96.1417 69.5284C94.5417 69.5284 93.5817 68.1184 93.5817 65.8284C93.5817 63.5284 94.5417 62.1084 96.1417 62.1084C97.7417 62.1084 98.7017 63.5284 98.7017 65.8284C98.7017 68.1184 97.7417 69.5284 96.1417 69.5284ZM95.0417 65.8284C95.0417 66.2584 95.0717 66.6284 95.1317 66.9384L96.8217 63.7484C96.6417 63.4984 96.4117 63.3684 96.1417 63.3684C95.4517 63.3684 95.0417 64.1884 95.0417 65.8284ZM96.1417 68.2684C96.8317 68.2684 97.2417 67.4584 97.2417 65.8284C97.2417 65.3984 97.2117 65.0184 97.1517 64.6984L95.4617 67.8884C95.6417 68.1384 95.8717 68.2684 96.1417 68.2684Z" fill="black"/>
<path id="370_2" d="M404.843 69.5284C403.213 69.5284 402.403 68.6984 402.333 67.4084L403.773 67.3384C403.833 68.0284 404.293 68.2684 404.873 68.2684C405.503 68.2684 405.993 67.9684 405.993 67.2684C405.993 66.5884 405.543 66.2284 404.803 66.2284H404.273V65.0984H404.803C405.363 65.0984 405.773 64.8484 405.773 64.2384C405.773 63.6484 405.423 63.3584 404.863 63.3584C404.243 63.3584 403.943 63.6684 403.883 64.1584L402.443 64.0884C402.583 62.8784 403.413 62.1084 404.873 62.1084C406.333 62.1084 407.233 62.8284 407.233 64.0484C407.233 64.8184 406.833 65.3284 406.083 65.5684C406.953 65.8184 407.453 66.4684 407.453 67.3684C407.453 68.7084 406.443 69.5284 404.843 69.5284ZM409.559 69.3684C409.559 67.2184 410.459 65.2584 411.929 63.5484H408.429V62.2684H413.349V63.4784C411.719 65.3384 411.049 66.9284 411.049 69.3684H409.559ZM416.886 69.5284C415.286 69.5284 414.326 68.1184 414.326 65.8284C414.326 63.5284 415.286 62.1084 416.886 62.1084C418.486 62.1084 419.446 63.5284 419.446 65.8284C419.446 68.1184 418.486 69.5284 416.886 69.5284ZM415.786 65.8284C415.786 66.2584 415.816 66.6284 415.876 66.9384L417.566 63.7484C417.386 63.4984 417.156 63.3684 416.886 63.3684C416.196 63.3684 415.786 64.1884 415.786 65.8284ZM416.886 68.2684C417.576 68.2684 417.986 67.4584 417.986 65.8284C417.986 65.3984 417.956 65.0184 417.896 64.6984L416.206 67.8884C416.386 68.1384 416.616 68.2684 416.886 68.2684Z" fill="black"/>
<path id="330" d="M461.938 178.598C460.308 178.598 459.498 177.768 459.428 176.478L460.868 176.408C460.928 177.098 461.388 177.338 461.968 177.338C462.598 177.338 463.088 177.038 463.088 176.338C463.088 175.658 462.638 175.298 461.898 175.298H461.368V174.168H461.898C462.458 174.168 462.868 173.918 462.868 173.308C462.868 172.718 462.518 172.428 461.958 172.428C461.338 172.428 461.038 172.738 460.978 173.228L459.538 173.158C459.678 171.948 460.508 171.178 461.968 171.178C463.428 171.178 464.328 171.898 464.328 173.118C464.328 173.888 463.928 174.398 463.178 174.638C464.048 174.888 464.548 175.538 464.548 176.438C464.548 177.778 463.538 178.598 461.938 178.598ZM467.934 178.598C466.304 178.598 465.494 177.768 465.424 176.478L466.864 176.408C466.924 177.098 467.384 177.338 467.964 177.338C468.594 177.338 469.084 177.038 469.084 176.338C469.084 175.658 468.634 175.298 467.894 175.298H467.364V174.168H467.894C468.454 174.168 468.864 173.918 468.864 173.308C468.864 172.718 468.514 172.428 467.954 172.428C467.334 172.428 467.034 172.738 466.974 173.228L465.534 173.158C465.674 171.948 466.504 171.178 467.964 171.178C469.424 171.178 470.324 171.898 470.324 173.118C470.324 173.888 469.924 174.398 469.174 174.638C470.044 174.888 470.544 175.538 470.544 176.438C470.544 177.778 469.534 178.598 467.934 178.598ZM473.98 178.598C472.38 178.598 471.42 177.188 471.42 174.898C471.42 172.598 472.38 171.178 473.98 171.178C475.58 171.178 476.54 172.598 476.54 174.898C476.54 177.188 475.58 178.598 473.98 178.598ZM472.88 174.898C472.88 175.328 472.91 175.698 472.97 176.008L474.66 172.818C474.48 172.568 474.25 172.438 473.98 172.438C473.29 172.438 472.88 173.258 472.88 174.898ZM473.98 177.338C474.67 177.338 475.08 176.528 475.08 174.898C475.08 174.468 475.05 174.088 474.99 173.768L473.3 176.958C473.48 177.208 473.71 177.338 473.98 177.338Z" fill="black"/>
<path id="330_2" d="M28.5783 178.598C26.9483 178.598 26.1383 177.768 26.0683 176.478L27.5083 176.408C27.5683 177.098 28.0283 177.338 28.6083 177.338C29.2383 177.338 29.7283 177.038 29.7283 176.338C29.7283 175.658 29.2783 175.298 28.5383 175.298H28.0083V174.168H28.5383C29.0983 174.168 29.5083 173.918 29.5083 173.308C29.5083 172.718 29.1583 172.428 28.5983 172.428C27.9783 172.428 27.6783 172.738 27.6183 173.228L26.1783 173.158C26.3183 171.948 27.1483 171.178 28.6083 171.178C30.0683 171.178 30.9683 171.898 30.9683 173.118C30.9683 173.888 30.5683 174.398 29.8183 174.638C30.6883 174.888 31.1883 175.538 31.1883 176.438C31.1883 177.778 30.1783 178.598 28.5783 178.598ZM34.5744 178.598C32.9444 178.598 32.1344 177.768 32.0644 176.478L33.5044 176.408C33.5644 177.098 34.0244 177.338 34.6044 177.338C35.2344 177.338 35.7244 177.038 35.7244 176.338C35.7244 175.658 35.2744 175.298 34.5344 175.298H34.0044V174.168H34.5344C35.0944 174.168 35.5044 173.918 35.5044 173.308C35.5044 172.718 35.1544 172.428 34.5944 172.428C33.9744 172.428 33.6744 172.738 33.6144 173.228L32.1744 173.158C32.3144 171.948 33.1444 171.178 34.6044 171.178C36.0644 171.178 36.9644 171.898 36.9644 173.118C36.9644 173.888 36.5644 174.398 35.8144 174.638C36.6844 174.888 37.1844 175.538 37.1844 176.438C37.1844 177.778 36.1744 178.598 34.5744 178.598ZM40.6205 178.598C39.0205 178.598 38.0605 177.188 38.0605 174.898C38.0605 172.598 39.0205 171.178 40.6205 171.178C42.2205 171.178 43.1805 172.598 43.1805 174.898C43.1805 177.188 42.2205 178.598 40.6205 178.598ZM39.5205 174.898C39.5205 175.328 39.5505 175.698 39.6105 176.008L41.3005 172.818C41.1205 172.568 40.8905 172.438 40.6205 172.438C39.9305 172.438 39.5205 173.258 39.5205 174.898ZM40.6205 177.338C41.3105 177.338 41.7205 176.528 41.7205 174.898C41.7205 174.468 41.6905 174.088 41.6305 173.768L39.9405 176.958C40.1205 177.208 40.3505 177.338 40.6205 177.338Z" fill="black"/>
</g>
<path id="field" d="M465.322 129.645C476.072 141.812 486.187 160.866 478.439 194.984C476.969 201.456 473.968 207.457 470.308 212.995L321.474 438.18C287.864 489.032 213.233 489.021 179.638 438.159L30.9106 212.987C27.2562 207.455 24.251 201.461 22.8149 194.988C15.2455 160.868 25.6017 141.813 36.3398 129.645C48.4335 115.974 159.49 17.8911 250.541 17.8911H250.555C341.611 17.8911 453.247 115.974 465.322 129.645Z" fill="#005A9C" fill-opacity="0.1" fill="none" stroke="#005A9C" stroke-width="1.002"/>
</g>
<defs>
<clipPath id="clip0_72_962">
<rect width="500" height="469.94" fill="white"/>
</clipPath>
</defs>
</svg>
