<svg width="500" height="470" viewBox="0 0 500 470" fill="none" xmlns="http://www.w3.org/2000/svg">
<g id="ebbets-field-1913" clip-path="url(#clip0_71_788)">
<g id="Infield">
<path d="M339.98 327.765C339.453 325.666 322.032 258.478 250.83 258.478C180.238 258.478 162.505 324.537 161.697 327.698C161.677 327.776 161.668 327.816 161.668 327.816L236.504 402.652C235.305 404.911 234.623 407.488 234.623 410.237C234.623 419.185 241.873 426.444 250.83 426.444C259.778 426.444 267.037 419.185 267.037 410.237C267.037 407.488 266.356 404.911 265.156 402.657L260.695 397.374C257.96 395.277 254.544 394.025 250.83 394.025C247.117 394.025 243.701 395.277 240.971 397.369L197.7 354.099C201.448 350.352 201.448 344.276 197.7 340.529C197.698 340.526 197.694 340.524 197.691 340.521L244.055 294.037C247.8 297.773 253.861 297.773 257.606 294.037L303.431 339.983C303.431 339.983 303.427 339.985 303.424 339.988C299.677 343.735 300.275 350.299 304.022 354.046L260.695 397.374L265.156 402.657L339.98 327.765Z" fill="#D2D2D2"/>
<path d="M259.91 345.706C259.91 350.72 255.845 354.786 250.83 354.786C245.815 354.786 241.75 350.72 241.75 345.706C241.75 340.691 245.815 336.625 250.83 336.625C255.845 336.625 259.91 340.691 259.91 345.706Z" fill="#D2D2D2"/>
</g>
<g id="Guides">
<g id="Home">
<circle id="Ellipse 1" cx="250.827" cy="410.42" r="16.0848" fill="#D2D2D2"/>
<circle id="Ellipse 1_2" cx="250.827" cy="410.42" r="1.62919" fill="black"/>
</g>
<g id="First">
<circle id="Ellipse 1_3" cx="311.125" cy="346.533" r="10.1878" fill="#D2D2D2"/>
<circle id="Ellipse 1_4" cx="311.125" cy="346.533" r="1.0319" fill="black"/>
</g>
<g id="Third">
<circle id="Ellipse 1_5" cx="190.34" cy="346.533" r="10.1878" fill="#D2D2D2"/>
<circle id="Ellipse 1_6" cx="190.34" cy="346.533" r="1.0319" fill="black"/>
</g>
<g id="Second">
<circle id="Ellipse 1_7" cx="250.827" cy="286.671" r="10.1878" fill="#D2D2D2"/>
<circle id="Ellipse 1_8" cx="250.827" cy="286.671" r="1.0319" fill="black"/>
</g>
<g id="Mound">
<circle id="Ellipse 1_9" cx="250.827" cy="345.929" r="9.08365" fill="#D2D2D2"/>
<circle id="Ellipse 1_10" cx="250.827" cy="345.929" r="0.920062" fill="black"/>
</g>
</g>
<path id="Foul Lines" d="M459.618 201.873L250.976 410.516L-37.2613 122.279" fill="none" stroke="black" stroke-width="1.002"/>
<g id="Measurements">
<path id="301" d="M431.938 204.098C430.308 204.098 429.498 203.268 429.428 201.978L430.868 201.908C430.928 202.598 431.388 202.838 431.968 202.838C432.598 202.838 433.088 202.538 433.088 201.838C433.088 201.158 432.638 200.798 431.898 200.798H431.368V199.668H431.898C432.458 199.668 432.868 199.418 432.868 198.808C432.868 198.218 432.518 197.928 431.958 197.928C431.338 197.928 431.038 198.238 430.978 198.728L429.538 198.658C429.678 197.448 430.508 196.678 431.968 196.678C433.428 196.678 434.328 197.398 434.328 198.618C434.328 199.388 433.928 199.898 433.178 200.138C434.048 200.388 434.548 201.038 434.548 201.938C434.548 203.278 433.538 204.098 431.938 204.098ZM437.984 204.098C436.384 204.098 435.424 202.688 435.424 200.398C435.424 198.098 436.384 196.678 437.984 196.678C439.584 196.678 440.544 198.098 440.544 200.398C440.544 202.688 439.584 204.098 437.984 204.098ZM436.884 200.398C436.884 200.828 436.914 201.198 436.974 201.508L438.664 198.318C438.484 198.068 438.254 197.938 437.984 197.938C437.294 197.938 436.884 198.758 436.884 200.398ZM437.984 202.838C438.674 202.838 439.084 202.028 439.084 200.398C439.084 199.968 439.054 199.588 438.994 199.268L437.304 202.458C437.484 202.708 437.714 202.838 437.984 202.838ZM441.46 203.938V202.658H443.5V199.278H441.76V198.098H442.54C443.34 198.098 443.68 197.758 443.68 196.838H444.92V202.658H446.5V203.938H441.46Z" fill="black"/>
</g>
<path id="field" d="M250.946 -86.6189L471.908 219.636L284.148 481.814H218.317L-37.5632 122.322L250.946 -86.6189Z" fill="#005A9C" fill-opacity="0.1" stroke="#005A9C"/>
</g>
<defs>
<clipPath id="clip0_71_788">
<rect width="500" height="469.94" fill="white"/>
</clipPath>
</defs>
</svg>
