<svg width="500" height="470" viewBox="0 0 500 470" fill="none" xmlns="http://www.w3.org/2000/svg">
<g id="ebbets-field-1931" clip-path="url(#clip0_71_840)">
<g id="Infield">
<path d="M339.98 327.765C339.453 325.666 322.032 258.478 250.83 258.478C180.238 258.478 162.505 324.537 161.697 327.698C161.677 327.776 161.668 327.816 161.668 327.816L236.504 402.652C235.305 404.911 234.623 407.488 234.623 410.237C234.623 419.185 241.873 426.444 250.83 426.444C259.778 426.444 267.037 419.185 267.037 410.237C267.037 407.488 266.356 404.911 265.157 402.657L260.695 397.374C257.96 395.277 254.544 394.025 250.83 394.025C247.117 394.025 243.701 395.277 240.971 397.369L197.7 354.099C201.448 350.352 201.448 344.276 197.7 340.529C197.698 340.526 197.694 340.524 197.691 340.521L244.055 294.037C247.8 297.773 253.861 297.773 257.606 294.037L303.431 339.983C303.431 339.983 303.427 339.985 303.424 339.988C299.677 343.735 300.275 350.299 304.022 354.046L260.695 397.374L265.157 402.657L339.98 327.765Z" fill="#D2D2D2"/>
<path d="M259.91 345.706C259.91 350.72 255.845 354.786 250.83 354.786C245.815 354.786 241.75 350.72 241.75 345.706C241.75 340.691 245.815 336.625 250.83 336.625C255.845 336.625 259.91 340.691 259.91 345.706Z" fill="#D2D2D2"/>
</g>
<g id="Guides">
<g id="Home">
<circle id="Ellipse 1" cx="250.827" cy="410.42" r="16.0848" fill="#D2D2D2"/>
<circle id="Ellipse 1_2" cx="250.827" cy="410.42" r="1.62919" fill="black"/>
</g>
<g id="First">
<circle id="Ellipse 1_3" cx="311.125" cy="346.533" r="10.1878" fill="#D2D2D2"/>
<circle id="Ellipse 1_4" cx="311.125" cy="346.533" r="1.0319" fill="black"/>
</g>
<g id="Third">
<circle id="Ellipse 1_5" cx="190.34" cy="346.533" r="10.1878" fill="#D2D2D2"/>
<circle id="Ellipse 1_6" cx="190.34" cy="346.533" r="1.0319" fill="black"/>
</g>
<g id="Second">
<circle id="Ellipse 1_7" cx="250.827" cy="286.671" r="10.1878" fill="#D2D2D2"/>
<circle id="Ellipse 1_8" cx="250.827" cy="286.671" r="1.0319" fill="black"/>
</g>
<g id="Mound">
<circle id="Ellipse 1_9" cx="250.827" cy="345.929" r="9.08365" fill="#D2D2D2"/>
<circle id="Ellipse 1_10" cx="250.827" cy="345.929" r="0.920062" fill="black"/>
</g>
</g>
<path id="Foul Lines" d="M457.346 204.146L250.976 410.516L32.2629 194.068" fill="none" stroke="black" stroke-width="1.002"/>
<g id="Measurements">
<path id="297" d="M429.428 203.938C429.428 202.208 430.008 201.198 431.988 200.178C432.718 199.798 433.078 199.518 433.078 198.868C433.078 198.298 432.748 197.938 432.118 197.938C431.398 197.938 431.048 198.358 430.928 199.118L429.458 199.028C429.598 197.578 430.508 196.678 432.138 196.678C433.728 196.678 434.548 197.528 434.548 198.788C434.548 199.928 434.058 200.488 432.658 201.248C431.508 201.868 431.098 202.298 431.058 202.658H434.548V203.938H429.428ZM437.964 196.678C439.694 196.678 440.604 197.848 440.604 199.908C440.604 202.258 439.794 204.098 437.704 204.098C436.304 204.098 435.654 203.338 435.394 202.318L436.834 202.218C436.934 202.578 437.164 202.838 437.704 202.838C438.444 202.838 438.964 202.328 439.124 201.108C438.784 201.408 438.304 201.628 437.674 201.628C436.264 201.628 435.364 200.678 435.364 199.248C435.364 197.668 436.394 196.678 437.964 196.678ZM437.994 197.958C437.244 197.958 436.824 198.398 436.824 199.198C436.824 199.938 437.204 200.418 437.934 200.418C438.674 200.418 439.144 199.928 439.144 199.188C439.144 198.508 438.724 197.958 437.994 197.958ZM442.65 203.938C442.65 201.788 443.55 199.828 445.02 198.118H441.52V196.838H446.44V198.048C444.81 199.908 444.14 201.498 444.14 203.938H442.65Z" fill="black"/>
<path id="344" d="M386.043 97.0711C384.413 97.0711 383.603 96.2411 383.533 94.9511L384.973 94.8811C385.033 95.5711 385.493 95.8111 386.073 95.8111C386.703 95.8111 387.193 95.5111 387.193 94.8111C387.193 94.1311 386.743 93.7711 386.003 93.7711H385.473V92.6411H386.003C386.563 92.6411 386.973 92.3911 386.973 91.7811C386.973 91.1911 386.623 90.9011 386.063 90.9011C385.443 90.9011 385.143 91.2111 385.083 91.7011L383.643 91.6311C383.783 90.4211 384.613 89.6511 386.073 89.6511C387.533 89.6511 388.433 90.3711 388.433 91.5911C388.433 92.3611 388.033 92.8711 387.283 93.1111C388.153 93.3611 388.653 94.0111 388.653 94.9111C388.653 96.2511 387.643 97.0711 386.043 97.0711ZM392.539 96.9111V95.4911H389.369V94.3211L392.349 89.8111H393.969V94.2511H394.809V95.4911H393.969V96.9111H392.539ZM390.709 94.2511H392.539V91.6011L390.709 94.2511ZM398.535 96.9111V95.4911H395.365V94.3211L398.345 89.8111H399.965V94.2511H400.805V95.4911H399.965V96.9111H398.535ZM396.705 94.2511H398.535V91.6011L396.705 94.2511Z" fill="black"/>
<path id="356" d="M15.0103 169.965C13.3803 169.965 12.5703 169.135 12.5003 167.845L13.9403 167.775C14.0003 168.465 14.4603 168.705 15.0403 168.705C15.6703 168.705 16.1603 168.405 16.1603 167.705C16.1603 167.025 15.7103 166.665 14.9703 166.665H14.4403V165.535H14.9703C15.5303 165.535 15.9403 165.285 15.9403 164.675C15.9403 164.085 15.5903 163.795 15.0303 163.795C14.4103 163.795 14.1103 164.105 14.0503 164.595L12.6103 164.525C12.7503 163.315 13.5803 162.545 15.0403 162.545C16.5003 162.545 17.4003 163.265 17.4003 164.485C17.4003 165.255 17.0003 165.765 16.2503 166.005C17.1203 166.255 17.6203 166.905 17.6203 167.805C17.6203 169.145 16.6103 169.965 15.0103 169.965ZM21.0464 169.965C19.5464 169.965 18.6364 169.075 18.5364 167.905L19.9964 167.825C20.0864 168.405 20.4364 168.705 21.0464 168.705C21.7064 168.705 22.1164 168.285 22.1164 167.475C22.1164 166.685 21.6964 166.225 21.0564 166.225C20.6164 166.225 20.2464 166.485 20.1064 166.845L18.6364 166.775L19.0564 162.705H23.2464V163.985H20.2264L20.0464 165.515C20.3764 165.235 20.8164 165.075 21.2964 165.075C22.7064 165.075 23.5764 166.095 23.5764 167.485C23.5764 168.955 22.5764 169.965 21.0464 169.965ZM27.0725 169.965C25.3425 169.965 24.4325 168.795 24.4325 166.735C24.4325 164.385 25.2425 162.545 27.3325 162.545C28.7325 162.545 29.3825 163.305 29.6425 164.325L28.2025 164.425C28.1025 164.065 27.8725 163.805 27.3325 163.805C26.5925 163.805 26.0725 164.315 25.9125 165.535C26.2525 165.235 26.7325 165.015 27.3625 165.015C28.7725 165.015 29.6725 165.965 29.6725 167.395C29.6725 168.975 28.6425 169.965 27.0725 169.965ZM27.0425 168.685C27.7925 168.685 28.2125 168.245 28.2125 167.445C28.2125 166.705 27.8325 166.225 27.1025 166.225C26.3625 166.225 25.8925 166.715 25.8925 167.455C25.8925 168.135 26.3125 168.685 27.0425 168.685Z" fill="black"/>
<path id="407" d="M205.262 9.82031V8.40031H202.092V7.23031L205.072 2.72031H206.692V7.16031H207.532V8.40031H206.692V9.82031H205.262ZM203.432 7.16031H205.262V4.51031L203.432 7.16031ZM210.808 9.98031C209.208 9.98031 208.248 8.57031 208.248 6.28031C208.248 3.98031 209.208 2.56031 210.808 2.56031C212.408 2.56031 213.368 3.98031 213.368 6.28031C213.368 8.57031 212.408 9.98031 210.808 9.98031ZM209.708 6.28031C209.708 6.71031 209.738 7.08031 209.798 7.39031L211.488 4.20031C211.308 3.95031 211.078 3.82031 210.808 3.82031C210.118 3.82031 209.708 4.64031 209.708 6.28031ZM210.808 8.72031C211.498 8.72031 211.908 7.91031 211.908 6.28031C211.908 5.85031 211.878 5.47031 211.818 5.15031L210.128 8.34031C210.308 8.59031 210.538 8.72031 210.808 8.72031ZM215.474 9.82031C215.474 7.67031 216.374 5.71031 217.844 4.00031H214.344V2.72031H219.264V3.93031C217.634 5.79031 216.964 7.38031 216.964 9.82031H215.474Z" fill="black"/>
<path id="365" d="M82.8804 93.5711C81.2504 93.5711 80.4404 92.7411 80.3704 91.4511L81.8104 91.3811C81.8704 92.0711 82.3304 92.3111 82.9104 92.3111C83.5404 92.3111 84.0304 92.0111 84.0304 91.3111C84.0304 90.6311 83.5804 90.2711 82.8404 90.2711H82.3104V89.1411H82.8404C83.4004 89.1411 83.8104 88.8911 83.8104 88.2811C83.8104 87.6911 83.4604 87.4011 82.9004 87.4011C82.2804 87.4011 81.9804 87.7111 81.9204 88.2011L80.4804 88.1311C80.6204 86.9211 81.4504 86.1511 82.9104 86.1511C84.3704 86.1511 85.2704 86.8711 85.2704 88.0911C85.2704 88.8611 84.8704 89.3711 84.1204 89.6111C84.9904 89.8611 85.4904 90.5111 85.4904 91.4111C85.4904 92.7511 84.4804 93.5711 82.8804 93.5711ZM88.9465 93.5711C87.2165 93.5711 86.3065 92.4011 86.3065 90.3411C86.3065 87.9911 87.1165 86.1511 89.2065 86.1511C90.6065 86.1511 91.2565 86.9111 91.5165 87.9311L90.0765 88.0311C89.9765 87.6711 89.7465 87.4111 89.2065 87.4111C88.4665 87.4111 87.9465 87.9211 87.7865 89.1411C88.1265 88.8411 88.6065 88.6211 89.2365 88.6211C90.6465 88.6211 91.5465 89.5711 91.5465 91.0011C91.5465 92.5811 90.5165 93.5711 88.9465 93.5711ZM88.9165 92.2911C89.6665 92.2911 90.0865 91.8511 90.0865 91.0511C90.0865 90.3111 89.7065 89.8311 88.9765 89.8311C88.2365 89.8311 87.7665 90.3211 87.7665 91.0611C87.7665 91.7411 88.1865 92.2911 88.9165 92.2911ZM94.9125 93.5711C93.4125 93.5711 92.5025 92.6811 92.4025 91.5111L93.8625 91.4311C93.9525 92.0111 94.3025 92.3111 94.9125 92.3111C95.5725 92.3111 95.9825 91.8911 95.9825 91.0811C95.9825 90.2911 95.5625 89.8311 94.9225 89.8311C94.4825 89.8311 94.1125 90.0911 93.9725 90.4511L92.5025 90.3811L92.9225 86.3111H97.1125V87.5911H94.0925L93.9125 89.1211C94.2425 88.8411 94.6825 88.6811 95.1625 88.6811C96.5725 88.6811 97.4425 89.7011 97.4425 91.0911C97.4425 92.5611 96.4425 93.5711 94.9125 93.5711Z" fill="black"/>
</g>
<path id="field" d="M218.317 481.812L27.1066 214.443L32.3233 194.098L3.11017 164.885L211.254 12.8206L336.501 36.9698L469.652 221.635L284.148 481.812H218.317Z" fill="#005A9C" fill-opacity="0.1" stroke="#005A9C"/>
</g>
<defs>
<clipPath id="clip0_71_840">
<rect width="500" height="469.94" fill="white"/>
</clipPath>
</defs>
</svg>
