<svg width="500" height="470" viewBox="0 0 500 470" fill="none" xmlns="http://www.w3.org/2000/svg">
<g id="ebbets-field-1948" clip-path="url(#clip0_71_865)">
<g id="Infield">
<path d="M339.98 327.765C339.453 325.666 322.032 258.478 250.83 258.478C180.238 258.478 162.505 324.537 161.697 327.698C161.677 327.776 161.668 327.816 161.668 327.816L236.504 402.652C235.305 404.911 234.623 407.488 234.623 410.237C234.623 419.185 241.873 426.444 250.83 426.444C259.778 426.444 267.037 419.185 267.037 410.237C267.037 407.488 266.356 404.911 265.157 402.657L260.695 397.374C257.96 395.277 254.544 394.025 250.83 394.025C247.117 394.025 243.701 395.277 240.971 397.369L197.7 354.099C201.448 350.352 201.448 344.276 197.7 340.529C197.698 340.526 197.694 340.524 197.691 340.521L244.055 294.037C247.8 297.773 253.861 297.773 257.606 294.037L303.431 339.983C303.431 339.983 303.427 339.985 303.424 339.988C299.677 343.735 300.275 350.299 304.022 354.046L260.695 397.374L265.157 402.657L339.98 327.765Z" fill="#D2D2D2"/>
<path d="M259.91 345.706C259.91 350.72 255.845 354.786 250.83 354.786C245.815 354.786 241.75 350.72 241.75 345.706C241.75 340.691 245.815 336.625 250.83 336.625C255.845 336.625 259.91 340.691 259.91 345.706Z" fill="#D2D2D2"/>
</g>
<g id="Guides">
<g id="Home">
<circle id="Ellipse 1" cx="250.827" cy="410.42" r="16.0848" fill="#D2D2D2"/>
<circle id="Ellipse 1_2" cx="250.827" cy="410.42" r="1.62919" fill="black"/>
</g>
<g id="First">
<circle id="Ellipse 1_3" cx="311.125" cy="346.533" r="10.1878" fill="#D2D2D2"/>
<circle id="Ellipse 1_4" cx="311.125" cy="346.533" r="1.0319" fill="black"/>
</g>
<g id="Third">
<circle id="Ellipse 1_5" cx="190.34" cy="346.533" r="10.1878" fill="#D2D2D2"/>
<circle id="Ellipse 1_6" cx="190.34" cy="346.533" r="1.0319" fill="black"/>
</g>
<g id="Second">
<circle id="Ellipse 1_7" cx="250.827" cy="286.671" r="10.1878" fill="#D2D2D2"/>
<circle id="Ellipse 1_8" cx="250.827" cy="286.671" r="1.0319" fill="black"/>
</g>
<g id="Mound">
<circle id="Ellipse 1_9" cx="250.827" cy="345.929" r="9.08365" fill="#D2D2D2"/>
<circle id="Ellipse 1_10" cx="250.827" cy="345.929" r="0.920062" fill="black"/>
</g>
</g>
<path id="Foul Lines" d="M457.269 204.222L250.976 410.516L40.8259 200.366" fill="none" stroke="black" stroke-width="1.002"/>
<g id="Measurements">
<path id="297" d="M429.428 203.938C429.428 202.208 430.008 201.198 431.988 200.178C432.718 199.798 433.078 199.518 433.078 198.868C433.078 198.298 432.748 197.938 432.118 197.938C431.398 197.938 431.048 198.358 430.928 199.118L429.458 199.028C429.598 197.578 430.508 196.678 432.138 196.678C433.728 196.678 434.548 197.528 434.548 198.788C434.548 199.928 434.058 200.488 432.658 201.248C431.508 201.868 431.098 202.298 431.058 202.658H434.548V203.938H429.428ZM437.964 196.678C439.694 196.678 440.604 197.848 440.604 199.908C440.604 202.258 439.794 204.098 437.704 204.098C436.304 204.098 435.654 203.338 435.394 202.318L436.834 202.218C436.934 202.578 437.164 202.838 437.704 202.838C438.444 202.838 438.964 202.328 439.124 201.108C438.784 201.408 438.304 201.628 437.674 201.628C436.264 201.628 435.364 200.678 435.364 199.248C435.364 197.668 436.394 196.678 437.964 196.678ZM437.994 197.958C437.244 197.958 436.824 198.398 436.824 199.198C436.824 199.938 437.204 200.418 437.934 200.418C438.674 200.418 439.144 199.928 439.144 199.188C439.144 198.508 438.724 197.958 437.994 197.958ZM442.65 203.938C442.65 201.788 443.55 199.828 445.02 198.118H441.52V196.838H446.44V198.048C444.81 199.908 444.14 201.498 444.14 203.938H442.65Z" fill="black"/>
<path id="348" d="M24.5477 174.51C22.9177 174.51 22.1077 173.68 22.0377 172.39L23.4777 172.32C23.5377 173.01 23.9977 173.25 24.5777 173.25C25.2077 173.25 25.6977 172.95 25.6977 172.25C25.6977 171.57 25.2477 171.21 24.5077 171.21H23.9777V170.08H24.5077C25.0677 170.08 25.4777 169.83 25.4777 169.22C25.4777 168.63 25.1277 168.34 24.5677 168.34C23.9477 168.34 23.6477 168.65 23.5877 169.14L22.1477 169.07C22.2877 167.86 23.1177 167.09 24.5777 167.09C26.0377 167.09 26.9377 167.81 26.9377 169.03C26.9377 169.8 26.5377 170.31 25.7877 170.55C26.6577 170.8 27.1577 171.45 27.1577 172.35C27.1577 173.69 26.1477 174.51 24.5477 174.51ZM31.0438 174.35V172.93H27.8738V171.76L30.8538 167.25H32.4738V171.69H33.3138V172.93H32.4738V174.35H31.0438ZM29.2138 171.69H31.0438V169.04L29.2138 171.69ZM36.5898 174.51C35.0198 174.51 33.9698 173.79 33.9698 172.41C33.9698 171.48 34.5098 170.82 35.3798 170.54C34.7098 170.28 34.2598 169.79 34.2598 169.05C34.2598 167.91 35.1898 167.09 36.5898 167.09C37.9898 167.09 38.9198 167.91 38.9198 169.05C38.9198 169.79 38.4698 170.28 37.7898 170.54C38.6698 170.82 39.2098 171.48 39.2098 172.41C39.2098 173.79 38.1598 174.51 36.5898 174.51ZM36.5898 169.97C37.0998 169.97 37.4498 169.7 37.4498 169.14C37.4498 168.64 37.1098 168.35 36.5898 168.35C36.0698 168.35 35.7298 168.64 35.7298 169.14C35.7298 169.7 36.0798 169.97 36.5898 169.97ZM36.5898 173.25C37.2298 173.25 37.7498 172.97 37.7498 172.27C37.7498 171.6 37.3198 171.18 36.5898 171.18C35.8598 171.18 35.4298 171.6 35.4298 172.27C35.4298 172.97 35.9498 173.25 36.5898 173.25Z" fill="black"/>
</g>
<path id="393" d="M203.477 24.4259C201.847 24.4259 201.037 23.5959 200.967 22.3059L202.407 22.2359C202.467 22.9259 202.927 23.1659 203.507 23.1659C204.137 23.1659 204.627 22.8659 204.627 22.1659C204.627 21.4859 204.177 21.1259 203.437 21.1259H202.907V19.9959H203.437C203.997 19.9959 204.407 19.7459 204.407 19.1359C204.407 18.5459 204.057 18.2559 203.497 18.2559C202.877 18.2559 202.577 18.5659 202.517 19.0559L201.077 18.9859C201.217 17.7759 202.047 17.0059 203.507 17.0059C204.967 17.0059 205.867 17.7259 205.867 18.9459C205.867 19.7159 205.467 20.2259 204.717 20.4659C205.587 20.7159 206.087 21.3659 206.087 22.2659C206.087 23.6059 205.077 24.4259 203.477 24.4259ZM209.504 17.0059C211.234 17.0059 212.144 18.1759 212.144 20.2359C212.144 22.5859 211.334 24.4259 209.244 24.4259C207.844 24.4259 207.194 23.6659 206.934 22.6459L208.374 22.5459C208.474 22.9059 208.704 23.1659 209.244 23.1659C209.984 23.1659 210.504 22.6559 210.664 21.4359C210.324 21.7359 209.844 21.9559 209.214 21.9559C207.804 21.9559 206.904 21.0059 206.904 19.5759C206.904 17.9959 207.934 17.0059 209.504 17.0059ZM209.534 18.2859C208.784 18.2859 208.364 18.7259 208.364 19.5259C208.364 20.2659 208.744 20.7459 209.474 20.7459C210.214 20.7459 210.684 20.2559 210.684 19.5159C210.684 18.8359 210.264 18.2859 209.534 18.2859ZM215.47 24.4259C213.84 24.4259 213.03 23.5959 212.96 22.3059L214.4 22.2359C214.46 22.9259 214.92 23.1659 215.5 23.1659C216.13 23.1659 216.62 22.8659 216.62 22.1659C216.62 21.4859 216.17 21.1259 215.43 21.1259H214.9V19.9959H215.43C215.99 19.9959 216.4 19.7459 216.4 19.1359C216.4 18.5459 216.05 18.2559 215.49 18.2559C214.87 18.2559 214.57 18.5659 214.51 19.0559L213.07 18.9859C213.21 17.7759 214.04 17.0059 215.5 17.0059C216.96 17.0059 217.86 17.7259 217.86 18.9459C217.86 19.7159 217.46 20.2259 216.71 20.4659C217.58 20.7159 218.08 21.3659 218.08 22.2659C218.08 23.6059 217.07 24.4259 215.47 24.4259Z" fill="black"/>
<path id="351" d="M104.846 89.7227C103.216 89.7227 102.406 88.8927 102.336 87.6027L103.776 87.5327C103.836 88.2227 104.296 88.4627 104.876 88.4627C105.506 88.4627 105.996 88.1627 105.996 87.4627C105.996 86.7827 105.546 86.4227 104.806 86.4227H104.276V85.2927H104.806C105.366 85.2927 105.776 85.0427 105.776 84.4327C105.776 83.8427 105.426 83.5527 104.866 83.5527C104.246 83.5527 103.946 83.8627 103.886 84.3527L102.446 84.2827C102.586 83.0727 103.416 82.3027 104.876 82.3027C106.336 82.3027 107.236 83.0227 107.236 84.2427C107.236 85.0127 106.836 85.5227 106.086 85.7627C106.956 86.0127 107.456 86.6627 107.456 87.5627C107.456 88.9027 106.446 89.7227 104.846 89.7227ZM110.883 89.7227C109.383 89.7227 108.473 88.8327 108.373 87.6627L109.833 87.5827C109.923 88.1627 110.273 88.4627 110.883 88.4627C111.543 88.4627 111.953 88.0427 111.953 87.2327C111.953 86.4427 111.533 85.9827 110.893 85.9827C110.453 85.9827 110.083 86.2427 109.943 86.6027L108.473 86.5327L108.893 82.4627H113.083V83.7427H110.063L109.883 85.2727C110.213 84.9927 110.653 84.8327 111.133 84.8327C112.543 84.8327 113.413 85.8527 113.413 87.2427C113.413 88.7127 112.413 89.7227 110.883 89.7227ZM114.369 89.5627V88.2827H116.409V84.9027H114.669V83.7227H115.449C116.249 83.7227 116.589 83.3827 116.589 82.4627H117.829V88.2827H119.409V89.5627H114.369Z" fill="black"/>
<path id="344" d="M384.808 96.2227C383.178 96.2227 382.368 95.3927 382.298 94.1027L383.738 94.0327C383.798 94.7227 384.258 94.9627 384.838 94.9627C385.468 94.9627 385.958 94.6627 385.958 93.9627C385.958 93.2827 385.508 92.9227 384.768 92.9227H384.238V91.7927H384.768C385.328 91.7927 385.738 91.5427 385.738 90.9327C385.738 90.3427 385.388 90.0527 384.828 90.0527C384.208 90.0527 383.908 90.3627 383.848 90.8527L382.408 90.7827C382.548 89.5727 383.378 88.8027 384.838 88.8027C386.298 88.8027 387.198 89.5227 387.198 90.7427C387.198 91.5127 386.798 92.0227 386.048 92.2627C386.918 92.5127 387.418 93.1627 387.418 94.0627C387.418 95.4027 386.408 96.2227 384.808 96.2227ZM391.304 96.0627V94.6427H388.134V93.4727L391.114 88.9627H392.734V93.4027H393.574V94.6427H392.734V96.0627H391.304ZM389.474 93.4027H391.304V90.7527L389.474 93.4027ZM397.3 96.0627V94.6427H394.13V93.4727L397.11 88.9627H398.73V93.4027H399.57V94.6427H398.73V96.0627H397.3ZM395.47 93.4027H397.3V90.7527L395.47 93.4027Z" fill="black"/>
<path id="field" d="M233.506 481.812L40.0783 219.421L42.6346 202.186L10.8112 170.318L208.345 27.2659L320.197 49.4457L323.416 34.4467L336.501 36.9698L464.534 214.179L269.118 481.812H233.506Z" fill="#005A9C" fill-opacity="0.1" stroke="#005A9C"/>
</g>
<defs>
<clipPath id="clip0_71_865">
<rect width="500" height="469.94" fill="white"/>
</clipPath>
</defs>
</svg>
