<svg width="500" height="470" viewBox="0 0 500 470" fill="none" xmlns="http://www.w3.org/2000/svg">
<g id="exhibition-stadium-1977" clip-path="url(#clip0_132_7799)">
<g id="Infield">
<path d="M339.98 327.764C339.453 325.664 322.032 258.477 250.83 258.477C180.238 258.477 162.505 324.536 161.697 327.697C161.677 327.775 161.668 327.814 161.668 327.814L236.504 402.651C235.305 404.91 234.623 407.487 234.623 410.236C234.623 419.184 241.873 426.443 250.83 426.443C259.778 426.443 267.037 419.184 267.037 410.236C267.037 407.487 266.356 404.91 265.156 402.655L260.695 397.373C257.96 395.276 254.544 394.024 250.83 394.024C247.117 394.024 243.701 395.276 240.971 397.368L197.7 354.098C201.448 350.351 201.448 344.275 197.7 340.528C197.698 340.525 197.694 340.523 197.691 340.52L244.055 294.036C247.8 297.772 253.861 297.772 257.606 294.036L303.431 339.982C303.431 339.982 303.427 339.983 303.424 339.986C299.677 343.734 300.275 350.298 304.022 354.045L260.695 397.373L265.156 402.655L339.98 327.764Z" fill="#D2D2D2"/>
<path d="M259.91 345.704C259.91 350.719 255.845 354.785 250.83 354.785C245.815 354.785 241.75 350.719 241.75 345.704C241.75 340.689 245.815 336.624 250.83 336.624C255.845 336.624 259.91 340.689 259.91 345.704Z" fill="#D2D2D2"/>
</g>
<g id="Guides">
<g id="Home">
<circle id="Ellipse 1" cx="250.827" cy="410.421" r="16.0848" fill="#D2D2D2"/>
<circle id="Ellipse 1_2" cx="250.827" cy="410.422" r="1.62919" fill="black"/>
</g>
<g id="First">
<circle id="Ellipse 1_3" cx="311.125" cy="346.535" r="10.1878" fill="#D2D2D2"/>
<circle id="Ellipse 1_4" cx="311.125" cy="346.536" r="1.0319" fill="black"/>
</g>
<g id="Third">
<circle id="Ellipse 1_5" cx="190.34" cy="346.535" r="10.1878" fill="#D2D2D2"/>
<circle id="Ellipse 1_6" cx="190.34" cy="346.536" r="1.0319" fill="black"/>
</g>
<g id="Second">
<circle id="Ellipse 1_7" cx="250.827" cy="286.672" r="10.1878" fill="#D2D2D2"/>
<circle id="Ellipse 1_8" cx="250.827" cy="286.673" r="1.0319" fill="black"/>
</g>
<g id="Mound">
<circle id="Ellipse 1_9" cx="250.827" cy="345.931" r="9.08365" fill="#D2D2D2"/>
<circle id="Ellipse 1_10" cx="250.827" cy="345.932" r="0.920062" fill="black"/>
</g>
</g>
<path id="Foul Lines" d="M478.791 182.699L250.976 410.515L21.2464 180.789" fill="none" stroke="black" stroke-width="1.002"/>
<g id="Measurements">
<path id="400" d="M242.758 13.6992V12.2792H239.588V11.1092L242.568 6.59922H244.188V11.0392H245.028V12.2792H244.188V13.6992H242.758ZM240.928 11.0392H242.758V8.38922L240.928 11.0392ZM248.304 13.8592C246.704 13.8592 245.744 12.4492 245.744 10.1592C245.744 7.85922 246.704 6.43922 248.304 6.43922C249.904 6.43922 250.864 7.85922 250.864 10.1592C250.864 12.4492 249.904 13.8592 248.304 13.8592ZM247.204 10.1592C247.204 10.5892 247.234 10.9592 247.294 11.2692L248.984 8.07922C248.804 7.82922 248.574 7.69922 248.304 7.69922C247.614 7.69922 247.204 8.51922 247.204 10.1592ZM248.304 12.5992C248.994 12.5992 249.404 11.7892 249.404 10.1592C249.404 9.72922 249.374 9.34922 249.314 9.02922L247.624 12.2192C247.804 12.4692 248.034 12.5992 248.304 12.5992ZM254.3 13.8592C252.7 13.8592 251.74 12.4492 251.74 10.1592C251.74 7.85922 252.7 6.43922 254.3 6.43922C255.9 6.43922 256.86 7.85922 256.86 10.1592C256.86 12.4492 255.9 13.8592 254.3 13.8592ZM253.2 10.1592C253.2 10.5892 253.23 10.9592 253.29 11.2692L254.98 8.07922C254.8 7.82922 254.57 7.69922 254.3 7.69922C253.61 7.69922 253.2 8.51922 253.2 10.1592ZM254.3 12.5992C254.99 12.5992 255.4 11.7892 255.4 10.1592C255.4 9.72922 255.37 9.34922 255.31 9.02922L253.62 12.2192C253.8 12.4692 254.03 12.5992 254.3 12.5992Z" fill="black"/>
<path id="375" d="M105.668 70.0194C104.038 70.0194 103.228 69.1894 103.158 67.8994L104.598 67.8294C104.658 68.5194 105.118 68.7594 105.698 68.7594C106.328 68.7594 106.818 68.4594 106.818 67.7594C106.818 67.0794 106.368 66.7194 105.628 66.7194H105.098V65.5894H105.628C106.188 65.5894 106.598 65.3394 106.598 64.7294C106.598 64.1394 106.248 63.8494 105.688 63.8494C105.068 63.8494 104.768 64.1594 104.708 64.6494L103.268 64.5794C103.408 63.3694 104.238 62.5994 105.698 62.5994C107.158 62.5994 108.058 63.3194 108.058 64.5394C108.058 65.3094 107.658 65.8194 106.908 66.0594C107.778 66.3094 108.278 66.9594 108.278 67.8594C108.278 69.1994 107.268 70.0194 105.668 70.0194ZM110.384 69.8594C110.384 67.7094 111.284 65.7494 112.754 64.0394H109.254V62.7594H114.174V63.9694C112.544 65.8294 111.874 67.4194 111.874 69.8594H110.384ZM117.701 70.0194C116.201 70.0194 115.291 69.1294 115.191 67.9594L116.651 67.8794C116.741 68.4594 117.091 68.7594 117.701 68.7594C118.361 68.7594 118.771 68.3394 118.771 67.5294C118.771 66.7394 118.351 66.2794 117.711 66.2794C117.271 66.2794 116.901 66.5394 116.761 66.8994L115.291 66.8294L115.711 62.7594H119.901V64.0394H116.881L116.701 65.5694C117.031 65.2894 117.471 65.1294 117.951 65.1294C119.361 65.1294 120.231 66.1494 120.231 67.5394C120.231 69.0094 119.231 70.0194 117.701 70.0194Z" fill="black"/>
<path id="375_2" d="M384.096 70.0194C382.466 70.0194 381.656 69.1894 381.586 67.8994L383.026 67.8294C383.086 68.5194 383.546 68.7594 384.126 68.7594C384.756 68.7594 385.246 68.4594 385.246 67.7594C385.246 67.0794 384.796 66.7194 384.056 66.7194H383.526V65.5894H384.056C384.616 65.5894 385.026 65.3394 385.026 64.7294C385.026 64.1394 384.676 63.8494 384.116 63.8494C383.496 63.8494 383.196 64.1594 383.136 64.6494L381.696 64.5794C381.836 63.3694 382.666 62.5994 384.126 62.5994C385.586 62.5994 386.486 63.3194 386.486 64.5394C386.486 65.3094 386.086 65.8194 385.336 66.0594C386.206 66.3094 386.706 66.9594 386.706 67.8594C386.706 69.1994 385.696 70.0194 384.096 70.0194ZM388.813 69.8594C388.813 67.7094 389.713 65.7494 391.183 64.0394H387.683V62.7594H392.603V63.9694C390.973 65.8294 390.303 67.4194 390.303 69.8594H388.813ZM396.129 70.0194C394.629 70.0194 393.719 69.1294 393.619 67.9594L395.079 67.8794C395.169 68.4594 395.519 68.7594 396.129 68.7594C396.789 68.7594 397.199 68.3394 397.199 67.5294C397.199 66.7394 396.779 66.2794 396.139 66.2794C395.699 66.2794 395.329 66.5394 395.189 66.8994L393.719 66.8294L394.139 62.7594H398.329V64.0394H395.309L395.129 65.5694C395.459 65.2894 395.899 65.1294 396.379 65.1294C397.789 65.1294 398.659 66.1494 398.659 67.5394C398.659 69.0094 397.659 70.0194 396.129 70.0194Z" fill="black"/>
<path id="330" d="M31.0188 184.293C29.3888 184.293 28.5788 183.463 28.5088 182.173L29.9488 182.103C30.0088 182.793 30.4688 183.033 31.0488 183.033C31.6788 183.033 32.1688 182.733 32.1688 182.033C32.1688 181.353 31.7188 180.993 30.9788 180.993H30.4488V179.863H30.9788C31.5388 179.863 31.9488 179.613 31.9488 179.003C31.9488 178.413 31.5988 178.123 31.0388 178.123C30.4188 178.123 30.1188 178.433 30.0588 178.923L28.6188 178.853C28.7588 177.643 29.5888 176.873 31.0488 176.873C32.5088 176.873 33.4088 177.593 33.4088 178.813C33.4088 179.583 33.0088 180.093 32.2588 180.333C33.1288 180.583 33.6288 181.233 33.6288 182.133C33.6288 183.473 32.6188 184.293 31.0188 184.293ZM37.0149 184.293C35.3849 184.293 34.5749 183.463 34.5049 182.173L35.9449 182.103C36.0049 182.793 36.4649 183.033 37.0449 183.033C37.6749 183.033 38.1649 182.733 38.1649 182.033C38.1649 181.353 37.7149 180.993 36.9749 180.993H36.4449V179.863H36.9749C37.5349 179.863 37.9449 179.613 37.9449 179.003C37.9449 178.413 37.5949 178.123 37.0349 178.123C36.4149 178.123 36.1149 178.433 36.0549 178.923L34.6149 178.853C34.7549 177.643 35.5849 176.873 37.0449 176.873C38.5049 176.873 39.4049 177.593 39.4049 178.813C39.4049 179.583 39.0049 180.093 38.2549 180.333C39.1249 180.583 39.6249 181.233 39.6249 182.133C39.6249 183.473 38.6149 184.293 37.0149 184.293ZM43.061 184.293C41.461 184.293 40.501 182.883 40.501 180.593C40.501 178.293 41.461 176.873 43.061 176.873C44.661 176.873 45.621 178.293 45.621 180.593C45.621 182.883 44.661 184.293 43.061 184.293ZM41.961 180.593C41.961 181.023 41.991 181.393 42.051 181.703L43.741 178.513C43.561 178.263 43.331 178.133 43.061 178.133C42.371 178.133 41.961 178.953 41.961 180.593ZM43.061 183.033C43.751 183.033 44.161 182.223 44.161 180.593C44.161 180.163 44.131 179.783 44.071 179.463L42.381 182.653C42.561 182.903 42.791 183.033 43.061 183.033Z" fill="black"/>
<path id="330_2" d="M456.694 184.293C455.064 184.293 454.254 183.463 454.184 182.173L455.624 182.103C455.684 182.793 456.144 183.033 456.724 183.033C457.354 183.033 457.844 182.733 457.844 182.033C457.844 181.353 457.394 180.993 456.654 180.993H456.124V179.863H456.654C457.214 179.863 457.624 179.613 457.624 179.003C457.624 178.413 457.274 178.123 456.714 178.123C456.094 178.123 455.794 178.433 455.734 178.923L454.294 178.853C454.434 177.643 455.264 176.873 456.724 176.873C458.184 176.873 459.084 177.593 459.084 178.813C459.084 179.583 458.684 180.093 457.934 180.333C458.804 180.583 459.304 181.233 459.304 182.133C459.304 183.473 458.294 184.293 456.694 184.293ZM462.691 184.293C461.061 184.293 460.251 183.463 460.181 182.173L461.621 182.103C461.681 182.793 462.141 183.033 462.721 183.033C463.351 183.033 463.841 182.733 463.841 182.033C463.841 181.353 463.391 180.993 462.651 180.993H462.121V179.863H462.651C463.211 179.863 463.621 179.613 463.621 179.003C463.621 178.413 463.271 178.123 462.711 178.123C462.091 178.123 461.791 178.433 461.731 178.923L460.291 178.853C460.431 177.643 461.261 176.873 462.721 176.873C464.181 176.873 465.081 177.593 465.081 178.813C465.081 179.583 464.681 180.093 463.931 180.333C464.801 180.583 465.301 181.233 465.301 182.133C465.301 183.473 464.291 184.293 462.691 184.293ZM468.737 184.293C467.137 184.293 466.177 182.883 466.177 180.593C466.177 178.293 467.137 176.873 468.737 176.873C470.337 176.873 471.297 178.293 471.297 180.593C471.297 182.883 470.337 184.293 468.737 184.293ZM467.637 180.593C467.637 181.023 467.667 181.393 467.727 181.703L469.417 178.513C469.237 178.263 469.007 178.133 468.737 178.133C468.047 178.133 467.637 178.953 467.637 180.593ZM468.737 183.033C469.427 183.033 469.837 182.223 469.837 180.593C469.837 180.163 469.807 179.783 469.747 179.463L468.057 182.653C468.237 182.903 468.467 183.033 468.737 183.033Z" fill="black"/>
</g>
<path id="field" d="M386.94 79.4098L476.719 179.478C481.716 185.048 482.185 193.338 477.848 199.436L299.02 450.879C296.109 454.973 292.349 458.393 287.998 460.905L276.579 467.498C271.258 470.57 265.223 472.187 259.079 472.187H241.884C235.74 472.187 229.705 470.57 224.384 467.498L212.966 460.906C208.614 458.393 204.854 454.973 201.942 450.878L22.1973 198.104C17.8395 191.976 18.3373 183.64 23.3935 178.074L113.785 78.566C187.101 -2.14412 314.125 -1.75171 386.94 79.4098Z" fill="#0C2340" fill-opacity="0.1" fill="none" stroke="#0C2340" stroke-width="1.002"/>
</g>
<defs>
<clipPath id="clip0_132_7799">
<rect width="500" height="469.94" fill="white"/>
</clipPath>
</defs>
</svg>
