<svg width="500" height="470" viewBox="0 0 500 470" fill="none" xmlns="http://www.w3.org/2000/svg">
<g id="fenway-park-2011" clip-path="url(#clip0_97_2996)">
<g id="Infield">
<path d="M339.98 327.559C339.453 325.459 322.032 258.271 250.83 258.271C180.238 258.271 162.505 324.331 161.697 327.492C161.677 327.569 161.668 327.609 161.668 327.609L236.504 402.446C235.305 404.705 234.623 407.282 234.623 410.031C234.623 418.979 241.873 426.238 250.83 426.238C259.778 426.238 267.037 418.979 267.037 410.031C267.037 407.282 266.356 404.705 265.157 402.45L260.695 397.168C257.96 395.071 254.544 393.819 250.83 393.819C247.117 393.819 243.701 395.071 240.971 397.163L197.7 353.893C201.448 350.146 201.448 344.07 197.7 340.323C197.698 340.32 197.694 340.318 197.691 340.315L244.055 293.831C247.8 297.566 253.861 297.566 257.606 293.831L303.431 339.777C303.431 339.777 303.427 339.778 303.424 339.781C299.677 343.529 300.275 350.093 304.022 353.84L260.695 397.168L265.157 402.45L339.98 327.559Z" fill="#D2D2D2"/>
<path d="M259.91 345.499C259.91 350.514 255.845 354.58 250.83 354.58C245.815 354.58 241.75 350.514 241.75 345.499C241.75 340.484 245.815 336.419 250.83 336.419C255.845 336.419 259.91 340.484 259.91 345.499Z" fill="#D2D2D2"/>
</g>
<g id="Guides">
<g id="Home">
<circle id="Ellipse 1" cx="250.827" cy="410.212" r="16.0848" fill="#D2D2D2"/>
<circle id="Ellipse 1_2" cx="250.827" cy="410.211" r="1.62919" fill="black"/>
</g>
<g id="First">
<circle id="Ellipse 1_3" cx="311.125" cy="346.325" r="10.1878" fill="#D2D2D2"/>
<circle id="Ellipse 1_4" cx="311.125" cy="346.325" r="1.0319" fill="black"/>
</g>
<g id="Third">
<circle id="Ellipse 1_5" cx="190.34" cy="346.325" r="10.1878" fill="#D2D2D2"/>
<circle id="Ellipse 1_6" cx="190.34" cy="346.325" r="1.0319" fill="black"/>
</g>
<g id="Second">
<circle id="Ellipse 1_7" cx="250.827" cy="286.463" r="10.1878" fill="#D2D2D2"/>
<circle id="Ellipse 1_8" cx="250.827" cy="286.464" r="1.0319" fill="black"/>
</g>
<g id="Mound">
<circle id="Ellipse 1_9" cx="250.827" cy="345.722" r="9.08365" fill="#D2D2D2"/>
<circle id="Ellipse 1_10" cx="250.827" cy="345.723" r="0.920062" fill="black"/>
</g>
</g>
<path id="Foul Lines" d="M463.3 197.984L250.976 410.308L36.8159 196.148" fill="none" stroke="black" stroke-width="1.002"/>
<g id="Measurements">
<path id="302" d="M441.746 199.721C440.116 199.721 439.306 198.891 439.236 197.601L440.676 197.531C440.736 198.221 441.196 198.461 441.776 198.461C442.406 198.461 442.896 198.161 442.896 197.461C442.896 196.781 442.446 196.421 441.706 196.421H441.176V195.291H441.706C442.266 195.291 442.676 195.041 442.676 194.431C442.676 193.841 442.326 193.551 441.766 193.551C441.146 193.551 440.846 193.861 440.786 194.351L439.346 194.281C439.486 193.071 440.316 192.301 441.776 192.301C443.236 192.301 444.136 193.021 444.136 194.241C444.136 195.011 443.736 195.521 442.986 195.761C443.856 196.011 444.356 196.661 444.356 197.561C444.356 198.901 443.346 199.721 441.746 199.721ZM447.792 199.721C446.192 199.721 445.232 198.311 445.232 196.021C445.232 193.721 446.192 192.301 447.792 192.301C449.392 192.301 450.352 193.721 450.352 196.021C450.352 198.311 449.392 199.721 447.792 199.721ZM446.692 196.021C446.692 196.451 446.722 196.821 446.782 197.131L448.472 193.941C448.292 193.691 448.062 193.561 447.792 193.561C447.102 193.561 446.692 194.381 446.692 196.021ZM447.792 198.461C448.482 198.461 448.892 197.651 448.892 196.021C448.892 195.591 448.862 195.211 448.802 194.891L447.112 198.081C447.292 198.331 447.522 198.461 447.792 198.461ZM451.228 199.561C451.228 197.831 451.808 196.821 453.788 195.801C454.518 195.421 454.878 195.141 454.878 194.491C454.878 193.921 454.548 193.561 453.918 193.561C453.198 193.561 452.848 193.981 452.728 194.741L451.258 194.651C451.398 193.201 452.308 192.301 453.938 192.301C455.528 192.301 456.348 193.151 456.348 194.411C456.348 195.551 455.858 196.111 454.458 196.871C453.308 197.491 452.898 197.921 452.858 198.281H456.348V199.561H451.228Z" fill="black"/>
<path id="380" d="M458.718 95.5995C457.088 95.5995 456.278 94.7695 456.208 93.4795L457.648 93.4095C457.708 94.0995 458.168 94.3395 458.748 94.3395C459.378 94.3395 459.868 94.0395 459.868 93.3395C459.868 92.6595 459.418 92.2995 458.678 92.2995H458.148V91.1695H458.678C459.238 91.1695 459.648 90.9195 459.648 90.3095C459.648 89.7195 459.298 89.4295 458.738 89.4295C458.118 89.4295 457.818 89.7395 457.758 90.2295L456.318 90.1595C456.458 88.9495 457.288 88.1795 458.748 88.1795C460.208 88.1795 461.108 88.8995 461.108 90.1195C461.108 90.8895 460.708 91.3995 459.958 91.6395C460.828 91.8895 461.328 92.5395 461.328 93.4395C461.328 94.7795 460.318 95.5995 458.718 95.5995ZM464.764 95.5995C463.194 95.5995 462.144 94.8795 462.144 93.4995C462.144 92.5695 462.684 91.9095 463.554 91.6295C462.884 91.3695 462.434 90.8795 462.434 90.1395C462.434 88.9995 463.364 88.1795 464.764 88.1795C466.164 88.1795 467.094 88.9995 467.094 90.1395C467.094 90.8795 466.644 91.3695 465.964 91.6295C466.844 91.9095 467.384 92.5695 467.384 93.4995C467.384 94.8795 466.334 95.5995 464.764 95.5995ZM464.764 91.0595C465.274 91.0595 465.624 90.7895 465.624 90.2295C465.624 89.7295 465.284 89.4395 464.764 89.4395C464.244 89.4395 463.904 89.7295 463.904 90.2295C463.904 90.7895 464.254 91.0595 464.764 91.0595ZM464.764 94.3395C465.404 94.3395 465.924 94.0595 465.924 93.3595C465.924 92.6895 465.494 92.2695 464.764 92.2695C464.034 92.2695 463.604 92.6895 463.604 93.3595C463.604 94.0595 464.124 94.3395 464.764 94.3395ZM470.76 95.5995C469.16 95.5995 468.2 94.1895 468.2 91.8995C468.2 89.5995 469.16 88.1795 470.76 88.1795C472.36 88.1795 473.32 89.5995 473.32 91.8995C473.32 94.1895 472.36 95.5995 470.76 95.5995ZM469.66 91.8995C469.66 92.3295 469.69 92.6995 469.75 93.0095L471.44 89.8195C471.26 89.5695 471.03 89.4395 470.76 89.4395C470.07 89.4395 469.66 90.2595 469.66 91.8995ZM470.76 94.3395C471.45 94.3395 471.86 93.5295 471.86 91.8995C471.86 91.4695 471.83 91.0895 471.77 90.7695L470.08 93.9595C470.26 94.2095 470.49 94.3395 470.76 94.3395Z" fill="black"/>
<path id="315" d="M47.5784 200.39C45.9484 200.39 45.1384 199.56 45.0684 198.27L46.5084 198.2C46.5684 198.89 47.0284 199.13 47.6084 199.13C48.2384 199.13 48.7284 198.83 48.7284 198.13C48.7284 197.45 48.2784 197.09 47.5384 197.09H47.0084V195.96H47.5384C48.0984 195.96 48.5084 195.71 48.5084 195.1C48.5084 194.51 48.1584 194.22 47.5984 194.22C46.9784 194.22 46.6784 194.53 46.6184 195.02L45.1784 194.95C45.3184 193.74 46.1484 192.97 47.6084 192.97C49.0684 192.97 49.9684 193.69 49.9684 194.91C49.9684 195.68 49.5684 196.19 48.8184 196.43C49.6884 196.68 50.1884 197.33 50.1884 198.23C50.1884 199.57 49.1784 200.39 47.5784 200.39ZM51.1045 200.23V198.95H53.1445V195.57H51.4045V194.39H52.1845C52.9845 194.39 53.3245 194.05 53.3245 193.13H54.5645V198.95H56.1445V200.23H51.1045ZM59.6106 200.39C58.1106 200.39 57.2006 199.5 57.1006 198.33L58.5606 198.25C58.6506 198.83 59.0006 199.13 59.6106 199.13C60.2706 199.13 60.6806 198.71 60.6806 197.9C60.6806 197.11 60.2606 196.65 59.6206 196.65C59.1806 196.65 58.8106 196.91 58.6706 197.27L57.2006 197.2L57.6206 193.13H61.8106V194.41H58.7906L58.6106 195.94C58.9406 195.66 59.3806 195.5 59.8606 195.5C61.2706 195.5 62.1406 196.52 62.1406 197.91C62.1406 199.38 61.1406 200.39 59.6106 200.39Z" fill="black"/>
<path id="379" d="M181.882 36.4959C180.252 36.4959 179.442 35.6659 179.372 34.3759L180.812 34.3059C180.872 34.9959 181.332 35.2359 181.912 35.2359C182.542 35.2359 183.032 34.9359 183.032 34.2359C183.032 33.5559 182.582 33.1959 181.842 33.1959H181.312V32.0659H181.842C182.402 32.0659 182.812 31.8159 182.812 31.2059C182.812 30.6159 182.462 30.3259 181.902 30.3259C181.282 30.3259 180.982 30.6359 180.922 31.1259L179.482 31.0559C179.622 29.8459 180.452 29.0759 181.912 29.0759C183.372 29.0759 184.272 29.7959 184.272 31.0159C184.272 31.7859 183.872 32.2959 183.122 32.5359C183.992 32.7859 184.492 33.4359 184.492 34.3359C184.492 35.6759 183.482 36.4959 181.882 36.4959ZM186.598 36.3359C186.598 34.1859 187.498 32.2259 188.968 30.5159H185.468V29.2359H190.388V30.4459C188.758 32.3059 188.088 33.8959 188.088 36.3359H186.598ZM193.904 29.0759C195.634 29.0759 196.544 30.2459 196.544 32.3059C196.544 34.6559 195.734 36.4959 193.644 36.4959C192.244 36.4959 191.594 35.7359 191.334 34.7159L192.774 34.6159C192.874 34.9759 193.104 35.2359 193.644 35.2359C194.384 35.2359 194.904 34.7259 195.064 33.5059C194.724 33.8059 194.244 34.0259 193.614 34.0259C192.204 34.0259 191.304 33.0759 191.304 31.6459C191.304 30.0659 192.334 29.0759 193.904 29.0759ZM193.934 30.3559C193.184 30.3559 192.764 30.7959 192.764 31.5959C192.764 32.3359 193.144 32.8159 193.874 32.8159C194.614 32.8159 195.084 32.3259 195.084 31.5859C195.084 30.9059 194.664 30.3559 193.934 30.3559Z" fill="black"/>
<path id="420" d="M323.501 3.63477V2.21477H320.331V1.04477L323.311 -3.46523H324.931V0.974766H325.771V2.21477H324.931V3.63477H323.501ZM321.671 0.974766H323.501V-1.67523L321.671 0.974766ZM326.487 3.63477C326.487 1.90477 327.067 0.894765 329.047 -0.125235C329.777 -0.505235 330.137 -0.785235 330.137 -1.43523C330.137 -2.00523 329.807 -2.36523 329.177 -2.36523C328.457 -2.36523 328.107 -1.94523 327.987 -1.18523L326.517 -1.27523C326.657 -2.72523 327.567 -3.62523 329.197 -3.62523C330.787 -3.62523 331.607 -2.77523 331.607 -1.51523C331.607 -0.375235 331.117 0.184765 329.717 0.944765C328.567 1.56477 328.157 1.99477 328.117 2.35477H331.607V3.63477H326.487ZM335.043 3.79477C333.443 3.79477 332.483 2.38477 332.483 0.0947656C332.483 -2.20523 333.443 -3.62523 335.043 -3.62523C336.643 -3.62523 337.603 -2.20523 337.603 0.0947656C337.603 2.38477 336.643 3.79477 335.043 3.79477ZM333.943 0.0947656C333.943 0.524765 333.973 0.894765 334.033 1.20477L335.723 -1.98523C335.543 -2.23523 335.313 -2.36523 335.043 -2.36523C334.353 -2.36523 333.943 -1.54523 333.943 0.0947656ZM335.043 2.53477C335.733 2.53477 336.143 1.72477 336.143 0.0947656C336.143 -0.335235 336.113 -0.715235 336.053 -1.03523L334.363 2.15477C334.543 2.40477 334.773 2.53477 335.043 2.53477Z" fill="black"/>
</g>
<path id="field" d="M33.4099 199.856L195.102 38.1922L200.103 43.538L328.92 6.63477L337.62 41.4963L466.864 104.466C485.023 113.313 492.731 135.091 484.179 153.392L461.103 202.774L412.663 254.204L364.237 358.962L285.863 452.624L263.719 462.372H237.265L213.037 450.187L127.213 345.456L118.319 285.171L33.4099 199.856Z" fill="#BD3039" fill-opacity="0.1" fill="none" stroke="#BD3039" stroke-width="1.002"/>
</g>
<defs>
<clipPath id="clip0_97_2996">
<rect width="500" height="469.94" fill="white"/>
</clipPath>
</defs>
</svg>
