<svg width="500" height="470" viewBox="0 0 500 470" fill="none" xmlns="http://www.w3.org/2000/svg">
<g id="fenway-park-1926" clip-path="url(#clip0_97_2915)">
<g id="Infield">
<path d="M339.98 327.766C339.453 325.666 322.032 258.479 250.83 258.479C180.238 258.479 162.505 324.538 161.697 327.699C161.677 327.776 161.668 327.816 161.668 327.816L236.504 402.653C235.305 404.912 234.623 407.489 234.623 410.238C234.623 419.186 241.873 426.445 250.83 426.445C259.778 426.445 267.037 419.186 267.037 410.238C267.037 407.489 266.356 404.912 265.156 402.657L260.695 397.375C257.96 395.278 254.544 394.026 250.83 394.026C247.117 394.026 243.701 395.278 240.971 397.37L197.7 354.1C201.448 350.353 201.448 344.277 197.7 340.53C197.698 340.527 197.694 340.525 197.691 340.522L244.055 294.038C247.8 297.773 253.861 297.773 257.606 294.038L303.431 339.984C303.431 339.984 303.427 339.985 303.424 339.988C299.677 343.736 300.275 350.3 304.022 354.047L260.695 397.375L265.156 402.657L339.98 327.766Z" fill="#D2D2D2"/>
<path d="M259.91 345.706C259.91 350.721 255.845 354.787 250.83 354.787C245.815 354.787 241.75 350.721 241.75 345.706C241.75 340.691 245.815 336.626 250.83 336.626C255.845 336.626 259.91 340.691 259.91 345.706Z" fill="#D2D2D2"/>
</g>
<g id="Guides">
<g id="Home">
<circle id="Ellipse 1" cx="250.827" cy="410.419" r="16.0848" fill="#D2D2D2"/>
<circle id="Ellipse 1_2" cx="250.827" cy="410.418" r="1.62919" fill="black"/>
</g>
<g id="First">
<circle id="Ellipse 1_3" cx="311.125" cy="346.532" r="10.1878" fill="#D2D2D2"/>
<circle id="Ellipse 1_4" cx="311.125" cy="346.532" r="1.0319" fill="black"/>
</g>
<g id="Third">
<circle id="Ellipse 1_5" cx="190.34" cy="346.532" r="10.1878" fill="#D2D2D2"/>
<circle id="Ellipse 1_6" cx="190.34" cy="346.532" r="1.0319" fill="black"/>
</g>
<g id="Second">
<circle id="Ellipse 1_7" cx="250.827" cy="286.67" r="10.1878" fill="#D2D2D2"/>
<circle id="Ellipse 1_8" cx="250.827" cy="286.671" r="1.0319" fill="black"/>
</g>
<g id="Mound">
<circle id="Ellipse 1_9" cx="250.827" cy="345.929" r="9.08365" fill="#D2D2D2"/>
<circle id="Ellipse 1_10" cx="250.827" cy="345.93" r="0.920062" fill="black"/>
</g>
</g>
<path id="Foul Lines" d="M495.725 165.768L250.976 410.516L27.7631 187.304" fill="none" stroke="black" stroke-width="1.002"/>
<g id="Measurements">
<path id="421" d="M252.203 0.699219V-0.720781H249.033V-1.89078L252.013 -6.40078H253.633V-1.96078H254.473V-0.720781H253.633V0.699219H252.203ZM250.373 -1.96078H252.203V-4.61078L250.373 -1.96078ZM255.189 0.699219C255.189 -1.03078 255.769 -2.04078 257.749 -3.06078C258.479 -3.44078 258.839 -3.72078 258.839 -4.37078C258.839 -4.94078 258.509 -5.30078 257.879 -5.30078C257.159 -5.30078 256.809 -4.88078 256.689 -4.12078L255.219 -4.21078C255.359 -5.66078 256.269 -6.56078 257.899 -6.56078C259.489 -6.56078 260.309 -5.71078 260.309 -4.45078C260.309 -3.31078 259.819 -2.75078 258.419 -1.99078C257.269 -1.37078 256.859 -0.940781 256.819 -0.580781H260.309V0.699219H255.189ZM261.225 0.699219V-0.580781H263.265V-3.96078H261.525V-5.14078H262.305C263.105 -5.14078 263.445 -5.48078 263.445 -6.40078H264.685V-0.580781H266.265V0.699219H261.225Z" fill="black"/>
<path id="358" d="M474.938 168.098C473.308 168.098 472.498 167.267 472.428 165.977L473.868 165.907C473.928 166.597 474.388 166.837 474.968 166.837C475.598 166.837 476.088 166.537 476.088 165.837C476.088 165.157 475.638 164.797 474.898 164.797H474.368V163.667H474.898C475.458 163.667 475.868 163.417 475.868 162.807C475.868 162.217 475.518 161.927 474.958 161.927C474.338 161.927 474.038 162.237 473.978 162.727L472.538 162.658C472.678 161.447 473.508 160.677 474.968 160.677C476.428 160.677 477.328 161.397 477.328 162.617C477.328 163.387 476.928 163.897 476.178 164.137C477.048 164.387 477.548 165.037 477.548 165.937C477.548 167.278 476.538 168.098 474.938 168.098ZM480.974 168.098C479.474 168.098 478.564 167.207 478.464 166.037L479.924 165.957C480.014 166.537 480.364 166.837 480.974 166.837C481.634 166.837 482.044 166.417 482.044 165.607C482.044 164.817 481.624 164.357 480.984 164.357C480.544 164.357 480.174 164.617 480.034 164.977L478.564 164.907L478.984 160.837H483.174V162.117H480.154L479.974 163.647C480.304 163.367 480.744 163.207 481.224 163.207C482.634 163.207 483.504 164.227 483.504 165.617C483.504 167.087 482.504 168.098 480.974 168.098ZM486.98 168.098C485.41 168.098 484.36 167.377 484.36 165.997C484.36 165.067 484.9 164.407 485.77 164.127C485.1 163.867 484.65 163.377 484.65 162.637C484.65 161.497 485.58 160.677 486.98 160.677C488.38 160.677 489.31 161.497 489.31 162.637C489.31 163.377 488.86 163.867 488.18 164.127C489.06 164.407 489.6 165.067 489.6 165.997C489.6 167.377 488.55 168.098 486.98 168.098ZM486.98 163.557C487.49 163.557 487.84 163.287 487.84 162.727C487.84 162.227 487.5 161.937 486.98 161.937C486.46 161.937 486.12 162.227 486.12 162.727C486.12 163.287 486.47 163.557 486.98 163.557ZM486.98 166.837C487.62 166.837 488.14 166.557 488.14 165.857C488.14 165.187 487.71 164.767 486.98 164.767C486.25 164.767 485.82 165.187 485.82 165.857C485.82 166.557 486.34 166.837 486.98 166.837Z" fill="black"/>
<path id="320" d="M43.5783 195.598C41.9483 195.598 41.1383 194.767 41.0683 193.477L42.5083 193.407C42.5683 194.097 43.0283 194.337 43.6083 194.337C44.2383 194.337 44.7283 194.037 44.7283 193.337C44.7283 192.657 44.2783 192.297 43.5383 192.297H43.0083V191.167H43.5383C44.0983 191.167 44.5083 190.917 44.5083 190.307C44.5083 189.717 44.1583 189.427 43.5983 189.427C42.9783 189.427 42.6783 189.737 42.6183 190.227L41.1783 190.158C41.3183 188.947 42.1483 188.177 43.6083 188.177C45.0683 188.177 45.9683 188.897 45.9683 190.117C45.9683 190.887 45.5683 191.397 44.8183 191.637C45.6883 191.887 46.1883 192.537 46.1883 193.437C46.1883 194.778 45.1783 195.598 43.5783 195.598ZM47.0644 195.438C47.0644 193.707 47.6444 192.697 49.6244 191.677C50.3544 191.297 50.7144 191.017 50.7144 190.367C50.7144 189.797 50.3844 189.437 49.7544 189.437C49.0344 189.437 48.6844 189.857 48.5644 190.617L47.0944 190.527C47.2344 189.077 48.1444 188.177 49.7744 188.177C51.3644 188.177 52.1844 189.027 52.1844 190.287C52.1844 191.427 51.6944 191.987 50.2944 192.747C49.1444 193.367 48.7344 193.797 48.6944 194.157H52.1844V195.438H47.0644ZM55.6205 195.598C54.0205 195.598 53.0605 194.188 53.0605 191.897C53.0605 189.597 54.0205 188.177 55.6205 188.177C57.2205 188.177 58.1805 189.597 58.1805 191.897C58.1805 194.188 57.2205 195.598 55.6205 195.598ZM54.5205 191.897C54.5205 192.327 54.5505 192.697 54.6105 193.007L56.3005 189.817C56.1205 189.567 55.8905 189.437 55.6205 189.437C54.9305 189.437 54.5205 190.257 54.5205 191.897ZM55.6205 194.337C56.3105 194.337 56.7205 193.527 56.7205 191.897C56.7205 191.467 56.6905 191.087 56.6305 190.767L54.9405 193.957C55.1205 194.207 55.3505 194.337 55.6205 194.337Z" fill="black"/>
</g>
<path id="field" d="M23.6355 190.834L235.175 1.24023L303.498 11.5256L444.346 49.7078L496.343 166.382L422.996 297.688L410.799 291.584L375.36 354.219L372.724 369.896L284.306 467.172L253.545 480.752L220.725 478.871L191.692 461.865L103.238 343.19L102.467 324.493L48.0334 217.519L23.6355 190.834Z" fill="#BD3039" fill-opacity="0.1" fill="none" stroke="#BD3039" stroke-width="1.002"/>
</g>
<defs>
<clipPath id="clip0_97_2915">
<rect width="500" height="469.94" fill="white"/>
</clipPath>
</defs>
</svg>
