<svg width="500" height="470" viewBox="0 0 500 470" fill="none" xmlns="http://www.w3.org/2000/svg">
<g id="fenway-park-1912" clip-path="url(#clip0_97_2888)">
<g id="Infield">
<path d="M339.98 327.766C339.453 325.666 322.032 258.479 250.83 258.479C180.238 258.479 162.505 324.538 161.697 327.699C161.677 327.776 161.668 327.816 161.668 327.816L236.504 402.653C235.305 404.912 234.623 407.489 234.623 410.238C234.623 419.186 241.873 426.445 250.83 426.445C259.778 426.445 267.037 419.186 267.037 410.238C267.037 407.489 266.356 404.912 265.156 402.657L260.695 397.375C257.96 395.278 254.544 394.026 250.83 394.026C247.117 394.026 243.701 395.278 240.971 397.37L197.7 354.1C201.448 350.353 201.448 344.277 197.7 340.53C197.698 340.527 197.694 340.525 197.691 340.522L244.055 294.038C247.8 297.773 253.861 297.773 257.606 294.038L303.431 339.984C303.431 339.984 303.427 339.985 303.424 339.988C299.677 343.736 300.275 350.3 304.022 354.047L260.695 397.375L265.156 402.657L339.98 327.766Z" fill="#D2D2D2"/>
<path d="M259.91 345.706C259.91 350.721 255.845 354.787 250.83 354.787C245.815 354.787 241.75 350.721 241.75 345.706C241.75 340.691 245.815 336.626 250.83 336.626C255.845 336.626 259.91 340.691 259.91 345.706Z" fill="#D2D2D2"/>
</g>
<g id="Guides">
<g id="Home">
<circle id="Ellipse 1" cx="250.827" cy="410.419" r="16.0848" fill="#D2D2D2"/>
<circle id="Ellipse 1_2" cx="250.827" cy="410.418" r="1.62919" fill="black"/>
</g>
<g id="First">
<circle id="Ellipse 1_3" cx="311.125" cy="346.532" r="10.1878" fill="#D2D2D2"/>
<circle id="Ellipse 1_4" cx="311.125" cy="346.532" r="1.0319" fill="black"/>
</g>
<g id="Third">
<circle id="Ellipse 1_5" cx="190.34" cy="346.532" r="10.1878" fill="#D2D2D2"/>
<circle id="Ellipse 1_6" cx="190.34" cy="346.532" r="1.0319" fill="black"/>
</g>
<g id="Second">
<circle id="Ellipse 1_7" cx="250.827" cy="286.67" r="10.1878" fill="#D2D2D2"/>
<circle id="Ellipse 1_8" cx="250.827" cy="286.671" r="1.0319" fill="black"/>
</g>
<g id="Mound">
<circle id="Ellipse 1_9" cx="250.827" cy="345.929" r="9.08365" fill="#D2D2D2"/>
<circle id="Ellipse 1_10" cx="250.827" cy="345.93" r="0.920062" fill="black"/>
</g>
</g>
<path id="Foul Lines" d="M469.168 192.323L250.976 410.516L27.3282 186.869" fill="none" stroke="black" stroke-width="1.002"/>
<g id="Measurements">
<path id="314" d="M449.938 192.098C448.308 192.098 447.498 191.267 447.428 189.977L448.868 189.907C448.928 190.597 449.388 190.837 449.968 190.837C450.598 190.837 451.088 190.537 451.088 189.837C451.088 189.157 450.638 188.797 449.898 188.797H449.368V187.667H449.898C450.458 187.667 450.868 187.417 450.868 186.807C450.868 186.217 450.518 185.927 449.958 185.927C449.338 185.927 449.038 186.237 448.978 186.727L447.538 186.658C447.678 185.447 448.508 184.677 449.968 184.677C451.428 184.677 452.328 185.397 452.328 186.617C452.328 187.387 451.928 187.897 451.178 188.137C452.048 188.387 452.548 189.037 452.548 189.937C452.548 191.278 451.538 192.098 449.938 192.098ZM453.464 191.938V190.657H455.504V187.277H453.764V186.097H454.544C455.344 186.097 455.684 185.757 455.684 184.837H456.924V190.657H458.504V191.938H453.464ZM462.43 191.938V190.517H459.26V189.347L462.24 184.837H463.86V189.277H464.7V190.517H463.86V191.938H462.43ZM460.6 189.277H462.43V186.627L460.6 189.277Z" fill="black"/>
<path id="324" d="M38.5783 189.598C36.9483 189.598 36.1383 188.767 36.0683 187.477L37.5083 187.407C37.5683 188.097 38.0283 188.337 38.6083 188.337C39.2383 188.337 39.7283 188.037 39.7283 187.337C39.7283 186.657 39.2783 186.297 38.5383 186.297H38.0083V185.167H38.5383C39.0983 185.167 39.5083 184.917 39.5083 184.307C39.5083 183.717 39.1583 183.427 38.5983 183.427C37.9783 183.427 37.6783 183.737 37.6183 184.227L36.1783 184.158C36.3183 182.947 37.1483 182.177 38.6083 182.177C40.0683 182.177 40.9683 182.897 40.9683 184.117C40.9683 184.887 40.5683 185.397 39.8183 185.637C40.6883 185.887 41.1883 186.537 41.1883 187.437C41.1883 188.778 40.1783 189.598 38.5783 189.598ZM42.0644 189.438C42.0644 187.707 42.6444 186.697 44.6244 185.677C45.3544 185.297 45.7144 185.017 45.7144 184.367C45.7144 183.797 45.3844 183.437 44.7544 183.437C44.0344 183.437 43.6844 183.857 43.5644 184.617L42.0944 184.527C42.2344 183.077 43.1444 182.177 44.7744 182.177C46.3644 182.177 47.1844 183.027 47.1844 184.287C47.1844 185.427 46.6944 185.987 45.2944 186.747C44.1444 187.367 43.7344 187.797 43.6944 188.157H47.1844V189.438H42.0644ZM51.0705 189.438V188.017H47.9005V186.847L50.8805 182.337H52.5005V186.777H53.3405V188.017H52.5005V189.438H51.0705ZM49.2405 186.777H51.0705V184.127L49.2405 186.777Z" fill="black"/>
</g>
<path id="field" d="M19.1416 195.203L281.886 -66.1562H304.387L290.886 0.308701L435.586 29.0409L493.051 142.932L427.278 277.939L413.373 273.438L381.583 335.749V353.058L297.158 455.205L267.225 470.522H234.351L204.393 455.205L101.642 331.176L79.0293 246.783L19.1416 195.203Z" fill="#BD3039" fill-opacity="0.1" fill="none" stroke="#BD3039" stroke-width="1.002"/>
</g>
<defs>
<clipPath id="clip0_97_2888">
<rect width="500" height="469.94" fill="white"/>
</clipPath>
</defs>
</svg>
