<svg width="500" height="470" viewBox="0 0 500 470" fill="none" xmlns="http://www.w3.org/2000/svg">
<g id="fenway-park-1934" clip-path="url(#clip0_97_2942)">
<g id="Infield">
<path d="M339.98 327.559C339.453 325.459 322.032 258.271 250.83 258.271C180.238 258.271 162.505 324.331 161.697 327.492C161.677 327.569 161.668 327.609 161.668 327.609L236.504 402.446C235.305 404.705 234.623 407.282 234.623 410.031C234.623 418.979 241.873 426.238 250.83 426.238C259.778 426.238 267.037 418.979 267.037 410.031C267.037 407.282 266.356 404.705 265.157 402.45L260.695 397.168C257.96 395.071 254.544 393.819 250.83 393.819C247.117 393.819 243.701 395.071 240.971 397.163L197.7 353.893C201.448 350.146 201.448 344.07 197.7 340.323C197.698 340.32 197.694 340.318 197.691 340.315L244.055 293.831C247.8 297.566 253.861 297.566 257.606 293.831L303.431 339.777C303.431 339.777 303.427 339.778 303.424 339.781C299.677 343.529 300.275 350.093 304.022 353.84L260.695 397.168L265.157 402.45L339.98 327.559Z" fill="#D2D2D2"/>
<path d="M259.91 345.499C259.91 350.514 255.845 354.58 250.83 354.58C245.815 354.58 241.75 350.514 241.75 345.499C241.75 340.484 245.815 336.419 250.83 336.419C255.845 336.419 259.91 340.484 259.91 345.499Z" fill="#D2D2D2"/>
</g>
<g id="Guides">
<g id="Home">
<circle id="Ellipse 1" cx="250.827" cy="410.212" r="16.0848" fill="#D2D2D2"/>
<circle id="Ellipse 1_2" cx="250.827" cy="410.211" r="1.62919" fill="black"/>
</g>
<g id="First">
<circle id="Ellipse 1_3" cx="311.125" cy="346.325" r="10.1878" fill="#D2D2D2"/>
<circle id="Ellipse 1_4" cx="311.125" cy="346.325" r="1.0319" fill="black"/>
</g>
<g id="Third">
<circle id="Ellipse 1_5" cx="190.34" cy="346.325" r="10.1878" fill="#D2D2D2"/>
<circle id="Ellipse 1_6" cx="190.34" cy="346.325" r="1.0319" fill="black"/>
</g>
<g id="Second">
<circle id="Ellipse 1_7" cx="250.827" cy="286.463" r="10.1878" fill="#D2D2D2"/>
<circle id="Ellipse 1_8" cx="250.827" cy="286.464" r="1.0319" fill="black"/>
</g>
<g id="Mound">
<circle id="Ellipse 1_9" cx="250.827" cy="345.722" r="9.08365" fill="#D2D2D2"/>
<circle id="Ellipse 1_10" cx="250.827" cy="345.723" r="0.920062" fill="black"/>
</g>
</g>
<path id="Foul Lines" d="M483.903 177.381L250.975 410.308L36.8158 196.149" fill="none" stroke="black" stroke-width="1.002"/>
<g id="Measurements">
<path id="334" d="M465.746 175.721C464.116 175.721 463.306 174.891 463.236 173.601L464.676 173.531C464.736 174.221 465.196 174.461 465.776 174.461C466.406 174.461 466.896 174.161 466.896 173.461C466.896 172.781 466.446 172.421 465.706 172.421H465.176V171.291H465.706C466.266 171.291 466.676 171.041 466.676 170.431C466.676 169.841 466.326 169.551 465.766 169.551C465.146 169.551 464.846 169.861 464.786 170.351L463.346 170.281C463.486 169.071 464.316 168.301 465.776 168.301C467.236 168.301 468.136 169.021 468.136 170.241C468.136 171.011 467.736 171.521 466.986 171.761C467.856 172.011 468.356 172.661 468.356 173.561C468.356 174.901 467.346 175.721 465.746 175.721ZM471.742 175.721C470.112 175.721 469.302 174.891 469.232 173.601L470.672 173.531C470.732 174.221 471.192 174.461 471.772 174.461C472.402 174.461 472.892 174.161 472.892 173.461C472.892 172.781 472.442 172.421 471.702 172.421H471.172V171.291H471.702C472.262 171.291 472.672 171.041 472.672 170.431C472.672 169.841 472.322 169.551 471.762 169.551C471.142 169.551 470.842 169.861 470.782 170.351L469.342 170.281C469.482 169.071 470.312 168.301 471.772 168.301C473.232 168.301 474.132 169.021 474.132 170.241C474.132 171.011 473.732 171.521 472.982 171.761C473.852 172.011 474.352 172.661 474.352 173.561C474.352 174.901 473.342 175.721 471.742 175.721ZM478.238 175.561V174.141H475.068V172.971L478.048 168.461H479.668V172.901H480.508V174.141H479.668V175.561H478.238ZM476.408 172.901H478.238V170.251L476.408 172.901Z" fill="black"/>
<path id="315" d="M47.5783 200.39C45.9483 200.39 45.1383 199.56 45.0683 198.27L46.5083 198.2C46.5683 198.89 47.0283 199.13 47.6083 199.13C48.2383 199.13 48.7283 198.83 48.7283 198.13C48.7283 197.45 48.2783 197.09 47.5383 197.09H47.0083V195.96H47.5383C48.0983 195.96 48.5083 195.71 48.5083 195.1C48.5083 194.51 48.1583 194.22 47.5983 194.22C46.9783 194.22 46.6783 194.53 46.6183 195.02L45.1783 194.95C45.3183 193.74 46.1483 192.97 47.6083 192.97C49.0683 192.97 49.9683 193.69 49.9683 194.91C49.9683 195.68 49.5683 196.19 48.8183 196.43C49.6883 196.68 50.1883 197.33 50.1883 198.23C50.1883 199.57 49.1783 200.39 47.5783 200.39ZM51.1044 200.23V198.95H53.1444V195.57H51.4044V194.39H52.1844C52.9844 194.39 53.3244 194.05 53.3244 193.13H54.5644V198.95H56.1444V200.23H51.1044ZM59.6105 200.39C58.1105 200.39 57.2005 199.5 57.1005 198.33L58.5605 198.25C58.6505 198.83 59.0005 199.13 59.6105 199.13C60.2705 199.13 60.6805 198.71 60.6805 197.9C60.6805 197.11 60.2605 196.65 59.6205 196.65C59.1805 196.65 58.8105 196.91 58.6705 197.27L57.2005 197.2L57.6205 193.13H61.8105V194.41H58.7905L58.6105 195.94C58.9405 195.66 59.3805 195.5 59.8605 195.5C61.2705 195.5 62.1405 196.52 62.1405 197.91C62.1405 199.38 61.1405 200.39 59.6105 200.39Z" fill="black"/>
<path id="389" d="M236.703 26.9334C235.073 26.9334 234.263 26.1034 234.193 24.8134L235.633 24.7434C235.693 25.4334 236.153 25.6734 236.733 25.6734C237.363 25.6734 237.853 25.3734 237.853 24.6734C237.853 23.9934 237.403 23.6334 236.663 23.6334H236.133V22.5034H236.663C237.223 22.5034 237.633 22.2534 237.633 21.6434C237.633 21.0534 237.283 20.7634 236.723 20.7634C236.103 20.7634 235.803 21.0734 235.743 21.5634L234.303 21.4934C234.443 20.2834 235.273 19.5134 236.733 19.5134C238.193 19.5134 239.093 20.2334 239.093 21.4534C239.093 22.2234 238.693 22.7334 237.943 22.9734C238.813 23.2234 239.313 23.8734 239.313 24.7734C239.313 26.1134 238.303 26.9334 236.703 26.9334ZM242.749 26.9334C241.179 26.9334 240.129 26.2134 240.129 24.8334C240.129 23.9034 240.669 23.2434 241.539 22.9634C240.869 22.7034 240.419 22.2134 240.419 21.4734C240.419 20.3334 241.349 19.5134 242.749 19.5134C244.149 19.5134 245.079 20.3334 245.079 21.4734C245.079 22.2134 244.629 22.7034 243.949 22.9634C244.829 23.2434 245.369 23.9034 245.369 24.8334C245.369 26.2134 244.319 26.9334 242.749 26.9334ZM242.749 22.3934C243.259 22.3934 243.609 22.1234 243.609 21.5634C243.609 21.0634 243.269 20.7734 242.749 20.7734C242.229 20.7734 241.889 21.0634 241.889 21.5634C241.889 22.1234 242.239 22.3934 242.749 22.3934ZM242.749 25.6734C243.389 25.6734 243.909 25.3934 243.909 24.6934C243.909 24.0234 243.479 23.6034 242.749 23.6034C242.019 23.6034 241.589 24.0234 241.589 24.6934C241.589 25.3934 242.109 25.6734 242.749 25.6734ZM248.725 19.5134C250.455 19.5134 251.365 20.6834 251.365 22.7434C251.365 25.0934 250.555 26.9334 248.465 26.9334C247.065 26.9334 246.415 26.1734 246.155 25.1534L247.595 25.0534C247.695 25.4134 247.925 25.6734 248.465 25.6734C249.205 25.6734 249.725 25.1634 249.885 23.9434C249.545 24.2434 249.065 24.4634 248.435 24.4634C247.025 24.4634 246.125 23.5134 246.125 22.0834C246.125 20.5034 247.155 19.5134 248.725 19.5134ZM248.755 20.7934C248.005 20.7934 247.585 21.2334 247.585 22.0334C247.585 22.7734 247.965 23.2534 248.695 23.2534C249.435 23.2534 249.905 22.7634 249.905 22.0234C249.905 21.3434 249.485 20.7934 248.755 20.7934Z" fill="black"/>
<path id="420" d="M323.5 3.63477V2.21477H320.33V1.04477L323.31 -3.46523H324.93V0.974766H325.77V2.21477H324.93V3.63477H323.5ZM321.67 0.974766H323.5V-1.67523L321.67 0.974766ZM326.487 3.63477C326.487 1.90477 327.067 0.894765 329.047 -0.125235C329.777 -0.505235 330.137 -0.785235 330.137 -1.43523C330.137 -2.00523 329.807 -2.36523 329.177 -2.36523C328.457 -2.36523 328.107 -1.94523 327.987 -1.18523L326.517 -1.27523C326.657 -2.72523 327.567 -3.62523 329.197 -3.62523C330.787 -3.62523 331.607 -2.77523 331.607 -1.51523C331.607 -0.375235 331.117 0.184765 329.717 0.944765C328.567 1.56477 328.157 1.99477 328.117 2.35477H331.607V3.63477H326.487ZM335.043 3.79477C333.443 3.79477 332.483 2.38477 332.483 0.0947656C332.483 -2.20523 333.443 -3.62523 335.043 -3.62523C336.643 -3.62523 337.603 -2.20523 337.603 0.0947656C337.603 2.38477 336.643 3.79477 335.043 3.79477ZM333.943 0.0947656C333.943 0.524765 333.973 0.894765 334.033 1.20477L335.723 -1.98523C335.543 -2.23523 335.313 -2.36523 335.043 -2.36523C334.353 -2.36523 333.943 -1.54523 333.943 0.0947656ZM335.043 2.53477C335.733 2.53477 336.143 1.72477 336.143 0.0947656C336.143 -0.335235 336.113 -0.715235 336.053 -1.03523L334.363 2.15477C334.543 2.40477 334.773 2.53477 335.043 2.53477Z" fill="black"/>
</g>
<path id="field" d="M195.102 38.1922L33.4099 199.856L92.0433 258.489L102.467 345.507H122.435L213.037 458.187L237.265 470.372H263.719L285.863 460.624L365.536 363.63L404.481 285.017L425.937 294.573L507.574 129.071L496.343 94.0641L330.989 15.6011L328.92 6.63477L200.103 43.538L195.102 38.1922Z" fill="#BD3039" fill-opacity="0.1" fill="none" stroke="#BD3039" stroke-width="1.002"/>
</g>
<defs>
<clipPath id="clip0_97_2942">
<rect width="500" height="469.94" fill="white"/>
</clipPath>
</defs>
</svg>
