<svg width="500" height="470" viewBox="0 0 500 470" fill="none" xmlns="http://www.w3.org/2000/svg">
<g id="forbes-field-1959" clip-path="url(#clip0_120_6035)">
<g id="Infield">
<path d="M339.98 327.764C339.453 325.664 322.032 258.477 250.83 258.477C180.238 258.477 162.505 324.536 161.697 327.697C161.677 327.775 161.668 327.814 161.668 327.814L236.504 402.651C235.305 404.91 234.623 407.487 234.623 410.236C234.623 419.184 241.873 426.443 250.83 426.443C259.778 426.443 267.037 419.184 267.037 410.236C267.037 407.487 266.356 404.91 265.157 402.655L260.695 397.373C257.96 395.276 254.544 394.024 250.83 394.024C247.117 394.024 243.701 395.276 240.971 397.368L197.7 354.098C201.448 350.351 201.448 344.275 197.7 340.528C197.698 340.525 197.694 340.523 197.691 340.52L244.055 294.036C247.8 297.772 253.861 297.772 257.606 294.036L303.431 339.982C303.431 339.982 303.427 339.983 303.424 339.986C299.677 343.734 300.275 350.298 304.022 354.045L260.695 397.373L265.157 402.655L339.98 327.764Z" fill="#D2D2D2"/>
<path d="M259.91 345.704C259.91 350.719 255.845 354.785 250.83 354.785C245.815 354.785 241.75 350.719 241.75 345.704C241.75 340.689 245.815 336.624 250.83 336.624C255.845 336.624 259.91 340.689 259.91 345.704Z" fill="#D2D2D2"/>
</g>
<g id="Guides">
<g id="Home">
<circle id="Ellipse 1" cx="250.827" cy="410.421" r="16.0848" fill="#D2D2D2"/>
<circle id="Ellipse 1_2" cx="250.827" cy="410.422" r="1.62919" fill="black"/>
</g>
<g id="First">
<circle id="Ellipse 1_3" cx="311.125" cy="346.535" r="10.1878" fill="#D2D2D2"/>
<circle id="Ellipse 1_4" cx="311.125" cy="346.536" r="1.0319" fill="black"/>
</g>
<g id="Third">
<circle id="Ellipse 1_5" cx="190.34" cy="346.535" r="10.1878" fill="#D2D2D2"/>
<circle id="Ellipse 1_6" cx="190.34" cy="346.536" r="1.0319" fill="black"/>
</g>
<g id="Second">
<circle id="Ellipse 1_7" cx="250.827" cy="286.672" r="10.1878" fill="#D2D2D2"/>
<circle id="Ellipse 1_8" cx="250.827" cy="286.673" r="1.0319" fill="black"/>
</g>
<g id="Mound">
<circle id="Ellipse 1_9" cx="250.827" cy="345.931" r="9.08365" fill="#D2D2D2"/>
<circle id="Ellipse 1_10" cx="250.827" cy="345.932" r="0.920062" fill="black"/>
</g>
</g>
<path id="Foul Lines" d="M457.567 203.926L250.975 410.518L-2.02344 157.52" fill="none" stroke="black" stroke-width="1.002"/>
<g id="Measurements">
<path id="406" d="M115.724 33.3359V31.9159H112.554V30.7459L115.534 26.2359H117.154V30.6759H117.994V31.9159H117.154V33.3359H115.724ZM113.894 30.6759H115.724V28.0259L113.894 30.6759ZM121.27 33.4959C119.67 33.4959 118.71 32.0859 118.71 29.7959C118.71 27.4959 119.67 26.0759 121.27 26.0759C122.87 26.0759 123.83 27.4959 123.83 29.7959C123.83 32.0859 122.87 33.4959 121.27 33.4959ZM120.17 29.7959C120.17 30.2259 120.2 30.5959 120.26 30.9059L121.95 27.7159C121.77 27.4659 121.54 27.3359 121.27 27.3359C120.58 27.3359 120.17 28.1559 120.17 29.7959ZM121.27 32.2359C121.96 32.2359 122.37 31.4259 122.37 29.7959C122.37 29.3659 122.34 28.9859 122.28 28.6659L120.59 31.8559C120.77 32.1059 121 32.2359 121.27 32.2359ZM127.286 33.4959C125.556 33.4959 124.646 32.3259 124.646 30.2659C124.646 27.9159 125.456 26.0759 127.546 26.0759C128.946 26.0759 129.596 26.8359 129.856 27.8559L128.416 27.9559C128.316 27.5959 128.086 27.3359 127.546 27.3359C126.806 27.3359 126.286 27.8459 126.126 29.0659C126.466 28.7659 126.946 28.5459 127.576 28.5459C128.986 28.5459 129.886 29.4959 129.886 30.9259C129.886 32.5059 128.856 33.4959 127.286 33.4959ZM127.256 32.2159C128.006 32.2159 128.426 31.7759 128.426 30.9759C128.426 30.2359 128.046 29.7559 127.316 29.7559C126.576 29.7559 126.106 30.2459 126.106 30.9859C126.106 31.6659 126.526 32.2159 127.256 32.2159Z" fill="black"/>
<path id="436" d="M287.983 1.10938V-0.310625H284.813V-1.48063L287.793 -5.99063H289.413V-1.55063H290.253V-0.310625H289.413V1.10938H287.983ZM286.153 -1.55063H287.983V-4.20063L286.153 -1.55063ZM293.48 1.26938C291.85 1.26938 291.04 0.439375 290.97 -0.850625L292.41 -0.920625C292.47 -0.230625 292.93 0.00937493 293.51 0.00937493C294.14 0.00937493 294.63 -0.290625 294.63 -0.990625C294.63 -1.67063 294.18 -2.03063 293.44 -2.03063H292.91V-3.16063H293.44C294 -3.16063 294.41 -3.41063 294.41 -4.02063C294.41 -4.61063 294.06 -4.90063 293.5 -4.90063C292.88 -4.90063 292.58 -4.59063 292.52 -4.10063L291.08 -4.17062C291.22 -5.38063 292.05 -6.15063 293.51 -6.15063C294.97 -6.15063 295.87 -5.43063 295.87 -4.21063C295.87 -3.44063 295.47 -2.93063 294.72 -2.69063C295.59 -2.44063 296.09 -1.79063 296.09 -0.890625C296.09 0.449375 295.08 1.26938 293.48 1.26938ZM299.546 1.26938C297.816 1.26938 296.906 0.099375 296.906 -1.96063C296.906 -4.31063 297.716 -6.15063 299.806 -6.15063C301.206 -6.15063 301.856 -5.39063 302.116 -4.37063L300.676 -4.27063C300.576 -4.63063 300.346 -4.89063 299.806 -4.89063C299.066 -4.89063 298.546 -4.38063 298.386 -3.16063C298.726 -3.46063 299.206 -3.68063 299.836 -3.68063C301.246 -3.68063 302.146 -2.73063 302.146 -1.30063C302.146 0.279375 301.116 1.26938 299.546 1.26938ZM299.516 -0.010625C300.266 -0.010625 300.686 -0.450625 300.686 -1.25063C300.686 -1.99063 300.306 -2.47063 299.576 -2.47063C298.836 -2.47063 298.366 -1.98063 298.366 -1.24063C298.366 -0.560625 298.786 -0.010625 299.516 -0.010625Z" fill="black"/>
<path id="300" d="M437.928 204.031C436.298 204.031 435.488 203.201 435.418 201.911L436.858 201.841C436.918 202.531 437.378 202.771 437.958 202.771C438.588 202.771 439.078 202.471 439.078 201.771C439.078 201.091 438.628 200.731 437.888 200.731H437.358V199.601H437.888C438.448 199.601 438.858 199.351 438.858 198.741C438.858 198.151 438.508 197.861 437.948 197.861C437.328 197.861 437.028 198.171 436.968 198.661L435.528 198.591C435.668 197.381 436.498 196.611 437.958 196.611C439.418 196.611 440.318 197.331 440.318 198.551C440.318 199.321 439.918 199.831 439.168 200.071C440.038 200.321 440.538 200.971 440.538 201.871C440.538 203.211 439.528 204.031 437.928 204.031ZM443.974 204.031C442.374 204.031 441.414 202.621 441.414 200.331C441.414 198.031 442.374 196.611 443.974 196.611C445.574 196.611 446.534 198.031 446.534 200.331C446.534 202.621 445.574 204.031 443.974 204.031ZM442.874 200.331C442.874 200.761 442.904 201.131 442.964 201.441L444.654 198.251C444.474 198.001 444.244 197.871 443.974 197.871C443.284 197.871 442.874 198.691 442.874 200.331ZM443.974 202.771C444.664 202.771 445.074 201.961 445.074 200.331C445.074 199.901 445.044 199.521 444.984 199.201L443.294 202.391C443.474 202.641 443.704 202.771 443.974 202.771ZM449.97 204.031C448.37 204.031 447.41 202.621 447.41 200.331C447.41 198.031 448.37 196.611 449.97 196.611C451.57 196.611 452.53 198.031 452.53 200.331C452.53 202.621 451.57 204.031 449.97 204.031ZM448.87 200.331C448.87 200.761 448.9 201.131 448.96 201.441L450.65 198.251C450.47 198.001 450.24 197.871 449.97 197.871C449.28 197.871 448.87 198.691 448.87 200.331ZM449.97 202.771C450.66 202.771 451.07 201.961 451.07 200.331C451.07 199.901 451.04 199.521 450.98 199.201L449.29 202.391C449.47 202.641 449.7 202.771 449.97 202.771Z" fill="black"/>
<path id="375" d="M452.834 100.73C451.204 100.73 450.394 99.9003 450.324 98.6103L451.764 98.5403C451.824 99.2303 452.284 99.4703 452.864 99.4703C453.494 99.4703 453.984 99.1703 453.984 98.4703C453.984 97.7903 453.534 97.4303 452.794 97.4303H452.264V96.3003H452.794C453.354 96.3003 453.764 96.0503 453.764 95.4403C453.764 94.8503 453.414 94.5603 452.854 94.5603C452.234 94.5603 451.934 94.8703 451.874 95.3603L450.434 95.2903C450.574 94.0803 451.404 93.3103 452.864 93.3103C454.324 93.3103 455.224 94.0303 455.224 95.2503C455.224 96.0203 454.824 96.5303 454.074 96.7703C454.944 97.0203 455.444 97.6703 455.444 98.5703C455.444 99.9103 454.434 100.73 452.834 100.73ZM457.55 100.57C457.55 98.4203 458.45 96.4603 459.92 94.7503H456.42V93.4703H461.34V94.6803C459.71 96.5403 459.04 98.1303 459.04 100.57H457.55ZM464.866 100.73C463.366 100.73 462.456 99.8403 462.356 98.6703L463.816 98.5903C463.906 99.1703 464.256 99.4703 464.866 99.4703C465.526 99.4703 465.936 99.0503 465.936 98.2403C465.936 97.4503 465.516 96.9903 464.876 96.9903C464.436 96.9903 464.066 97.2503 463.926 97.6103L462.456 97.5403L462.876 93.4703H467.066V94.7503H464.046L463.866 96.2803C464.196 96.0003 464.636 95.8403 465.116 95.8403C466.526 95.8403 467.396 96.8603 467.396 98.2503C467.396 99.7203 466.396 100.73 464.866 100.73Z" fill="black"/>
<path id="365" d="M8.39189 160.996C6.76189 160.996 5.95189 160.166 5.88189 158.876L7.32189 158.806C7.38189 159.496 7.84189 159.736 8.42189 159.736C9.05189 159.736 9.54189 159.436 9.54189 158.736C9.54189 158.056 9.09189 157.696 8.35189 157.696H7.82189V156.566H8.35189C8.91189 156.566 9.32189 156.316 9.32189 155.706C9.32189 155.116 8.97189 154.826 8.41189 154.826C7.79189 154.826 7.49189 155.136 7.43189 155.626L5.99189 155.556C6.13189 154.346 6.96189 153.576 8.42189 153.576C9.88189 153.576 10.7819 154.296 10.7819 155.516C10.7819 156.286 10.3819 156.796 9.63189 157.036C10.5019 157.286 11.0019 157.936 11.0019 158.836C11.0019 160.176 9.99189 160.996 8.39189 160.996ZM14.458 160.996C12.728 160.996 11.818 159.826 11.818 157.766C11.818 155.416 12.628 153.576 14.718 153.576C16.118 153.576 16.768 154.336 17.028 155.356L15.588 155.456C15.488 155.096 15.258 154.836 14.718 154.836C13.978 154.836 13.458 155.346 13.298 156.566C13.638 156.266 14.118 156.046 14.748 156.046C16.158 156.046 17.058 156.996 17.058 158.426C17.058 160.006 16.028 160.996 14.458 160.996ZM14.428 159.716C15.178 159.716 15.598 159.276 15.598 158.476C15.598 157.736 15.218 157.256 14.488 157.256C13.748 157.256 13.278 157.746 13.278 158.486C13.278 159.166 13.698 159.716 14.428 159.716ZM20.4241 160.996C18.9241 160.996 18.0141 160.106 17.9141 158.936L19.3741 158.856C19.4641 159.436 19.8141 159.736 20.4241 159.736C21.0841 159.736 21.4941 159.316 21.4941 158.506C21.4941 157.716 21.0741 157.256 20.4341 157.256C19.9941 157.256 19.6241 157.516 19.4841 157.876L18.0141 157.806L18.4341 153.736H22.6241V155.016H19.6041L19.4241 156.546C19.7541 156.266 20.1941 156.106 20.6741 156.106C22.0841 156.106 22.9541 157.126 22.9541 158.516C22.9541 159.986 21.9541 160.996 20.4241 160.996Z" fill="black"/>
</g>
<path id="field" d="M418.855 293.147L458.878 221.062L447.899 102.122L356.137 2.61615L205.669 -35.2539L-2.58374 157.984L8.47778 178.963H12.2921L85.527 321.046L110.129 308.078L199.846 482.008L202.915 479.597L203.944 480.226C224.692 492.913 250.539 493.922 272.213 482.89L273.945 482.008H279.207L379.175 294.787L385.313 296.102L394.083 280.537L418.855 293.147Z" fill="#27251F" fill-opacity="0.1" fill="none" stroke="#27251F" stroke-width="1.002"/>
</g>
<defs>
<clipPath id="clip0_120_6035">
<rect width="500" height="469.94" fill="white"/>
</clipPath>
</defs>
</svg>
