<svg width="500" height="470" viewBox="0 0 500 470" fill="none" xmlns="http://www.w3.org/2000/svg">
<g id="forbes-field-1911" clip-path="url(#clip0_120_5954)">
<g id="Infield">
<path d="M339.98 327.764C339.453 325.664 322.032 258.477 250.83 258.477C180.238 258.477 162.505 324.536 161.697 327.697C161.677 327.775 161.668 327.814 161.668 327.814L236.504 402.651C235.305 404.91 234.623 407.487 234.623 410.236C234.623 419.184 241.873 426.443 250.83 426.443C259.778 426.443 267.037 419.184 267.037 410.236C267.037 407.487 266.356 404.91 265.156 402.655L260.695 397.373C257.96 395.276 254.544 394.024 250.83 394.024C247.117 394.024 243.701 395.276 240.971 397.368L197.7 354.098C201.448 350.351 201.448 344.275 197.7 340.528C197.698 340.525 197.694 340.523 197.691 340.52L244.055 294.036C247.8 297.772 253.861 297.772 257.606 294.036L303.431 339.982C303.431 339.982 303.427 339.983 303.424 339.986C299.677 343.734 300.275 350.298 304.022 354.045L260.695 397.373L265.156 402.655L339.98 327.764Z" fill="#D2D2D2"/>
<path d="M259.91 345.704C259.91 350.719 255.845 354.785 250.83 354.785C245.815 354.785 241.75 350.719 241.75 345.704C241.75 340.689 245.815 336.624 250.83 336.624C255.845 336.624 259.91 340.689 259.91 345.704Z" fill="#D2D2D2"/>
</g>
<g id="Guides">
<g id="Home">
<circle id="Ellipse 1" cx="250.827" cy="410.421" r="16.0848" fill="#D2D2D2"/>
<circle id="Ellipse 1_2" cx="250.827" cy="410.422" r="1.62919" fill="black"/>
</g>
<g id="First">
<circle id="Ellipse 1_3" cx="311.125" cy="346.535" r="10.1878" fill="#D2D2D2"/>
<circle id="Ellipse 1_4" cx="311.125" cy="346.536" r="1.0319" fill="black"/>
</g>
<g id="Third">
<circle id="Ellipse 1_5" cx="190.34" cy="346.535" r="10.1878" fill="#D2D2D2"/>
<circle id="Ellipse 1_6" cx="190.34" cy="346.536" r="1.0319" fill="black"/>
</g>
<g id="Second">
<circle id="Ellipse 1_7" cx="250.827" cy="286.672" r="10.1878" fill="#D2D2D2"/>
<circle id="Ellipse 1_8" cx="250.827" cy="286.673" r="1.0319" fill="black"/>
</g>
<g id="Mound">
<circle id="Ellipse 1_9" cx="250.827" cy="345.931" r="9.08365" fill="#D2D2D2"/>
<circle id="Ellipse 1_10" cx="250.827" cy="345.932" r="0.920062" fill="black"/>
</g>
</g>
<path id="Foul Lines" d="M510.897 150.598L250.976 410.518L4.19349 163.735" fill="none" stroke="black" stroke-width="1.002"/>
<g id="Measurements">
<path id="376" d="M489.96 152.625C488.33 152.625 487.52 151.795 487.45 150.505L488.89 150.435C488.95 151.125 489.41 151.365 489.99 151.365C490.62 151.365 491.11 151.065 491.11 150.365C491.11 149.685 490.66 149.325 489.92 149.325H489.39V148.195H489.92C490.48 148.195 490.89 147.945 490.89 147.335C490.89 146.745 490.54 146.455 489.98 146.455C489.36 146.455 489.06 146.765 489 147.255L487.56 147.185C487.7 145.975 488.53 145.205 489.99 145.205C491.45 145.205 492.35 145.925 492.35 147.145C492.35 147.915 491.95 148.425 491.2 148.665C492.07 148.915 492.57 149.565 492.57 150.465C492.57 151.805 491.56 152.625 489.96 152.625ZM494.676 152.465C494.676 150.315 495.576 148.355 497.046 146.645H493.546V145.365H498.466V146.575C496.836 148.435 496.166 150.025 496.166 152.465H494.676ZM502.022 152.625C500.292 152.625 499.382 151.455 499.382 149.395C499.382 147.045 500.192 145.205 502.282 145.205C503.682 145.205 504.332 145.965 504.592 146.985L503.152 147.085C503.052 146.725 502.822 146.465 502.282 146.465C501.542 146.465 501.022 146.975 500.862 148.195C501.202 147.895 501.682 147.675 502.312 147.675C503.722 147.675 504.622 148.625 504.622 150.055C504.622 151.635 503.592 152.625 502.022 152.625ZM501.992 151.345C502.742 151.345 503.162 150.905 503.162 150.105C503.162 149.365 502.782 148.885 502.052 148.885C501.312 148.885 500.842 149.375 500.842 150.115C500.842 150.795 501.262 151.345 501.992 151.345Z" fill="black"/>
<path id="360" d="M15.3918 166.996C13.7618 166.996 12.9518 166.166 12.8818 164.876L14.3218 164.806C14.3818 165.496 14.8418 165.736 15.4218 165.736C16.0518 165.736 16.5418 165.436 16.5418 164.736C16.5418 164.056 16.0918 163.696 15.3518 163.696H14.8218V162.566H15.3518C15.9118 162.566 16.3218 162.316 16.3218 161.706C16.3218 161.116 15.9718 160.826 15.4118 160.826C14.7918 160.826 14.4918 161.136 14.4318 161.626L12.9918 161.556C13.1318 160.346 13.9618 159.576 15.4218 159.576C16.8818 159.576 17.7818 160.296 17.7818 161.516C17.7818 162.286 17.3818 162.796 16.6318 163.036C17.5018 163.286 18.0018 163.936 18.0018 164.836C18.0018 166.176 16.9918 166.996 15.3918 166.996ZM21.4579 166.996C19.7279 166.996 18.8179 165.826 18.8179 163.766C18.8179 161.416 19.6279 159.576 21.7179 159.576C23.1179 159.576 23.7679 160.336 24.0279 161.356L22.5879 161.456C22.4879 161.096 22.2579 160.836 21.7179 160.836C20.9779 160.836 20.4579 161.346 20.2979 162.566C20.6379 162.266 21.1179 162.046 21.7479 162.046C23.1579 162.046 24.0579 162.996 24.0579 164.426C24.0579 166.006 23.0279 166.996 21.4579 166.996ZM21.4279 165.716C22.1779 165.716 22.5979 165.276 22.5979 164.476C22.5979 163.736 22.2179 163.256 21.4879 163.256C20.7479 163.256 20.2779 163.746 20.2779 164.486C20.2779 165.166 20.6979 165.716 21.4279 165.716ZM27.434 166.996C25.834 166.996 24.874 165.586 24.874 163.296C24.874 160.996 25.834 159.576 27.434 159.576C29.034 159.576 29.994 160.996 29.994 163.296C29.994 165.586 29.034 166.996 27.434 166.996ZM26.334 163.296C26.334 163.726 26.364 164.096 26.424 164.406L28.114 161.216C27.934 160.966 27.704 160.836 27.434 160.836C26.744 160.836 26.334 161.656 26.334 163.296ZM27.434 165.736C28.124 165.736 28.534 164.926 28.534 163.296C28.534 162.866 28.504 162.486 28.444 162.166L26.754 165.356C26.934 165.606 27.164 165.736 27.434 165.736Z" fill="black"/>
</g>
<path id="field" d="M434.298 282.555L516.83 165.179L493.337 104.333L477.449 125.46L337.571 14.6535L354.571 -5.6365L203.665 -37.5508L-8.3606 176.189L1.84529 192.998L19.8131 182.989L193.61 493.962L252.638 530.791L318.225 503.295L426.187 277.564L434.298 282.555Z" fill="#27251F" fill-opacity="0.1" fill="none" stroke="#27251F" stroke-width="1.002"/>
</g>
<defs>
<clipPath id="clip0_120_5954">
<rect width="500" height="469.94" fill="white"/>
</clipPath>
</defs>
</svg>
