<svg width="500" height="470" viewBox="0 0 500 470" fill="none" xmlns="http://www.w3.org/2000/svg">
<g id="forbes-field-1909" clip-path="url(#clip0_120_5900)">
<g id="Infield">
<path d="M339.98 327.764C339.453 325.664 322.032 258.477 250.83 258.477C180.238 258.477 162.505 324.536 161.697 327.697C161.677 327.775 161.668 327.814 161.668 327.814L236.504 402.651C235.305 404.91 234.623 407.487 234.623 410.236C234.623 419.184 241.873 426.443 250.83 426.443C259.778 426.443 267.037 419.184 267.037 410.236C267.037 407.487 266.356 404.91 265.156 402.655L260.695 397.373C257.96 395.276 254.544 394.024 250.83 394.024C247.117 394.024 243.701 395.276 240.971 397.368L197.7 354.098C201.448 350.351 201.448 344.275 197.7 340.528C197.698 340.525 197.694 340.523 197.691 340.52L244.055 294.036C247.8 297.772 253.861 297.772 257.606 294.036L303.431 339.982C303.431 339.982 303.427 339.983 303.424 339.986C299.677 343.734 300.275 350.298 304.022 354.045L260.695 397.373L265.156 402.655L339.98 327.764Z" fill="#D2D2D2"/>
<path d="M259.91 345.704C259.91 350.719 255.845 354.785 250.83 354.785C245.815 354.785 241.75 350.719 241.75 345.704C241.75 340.689 245.815 336.624 250.83 336.624C255.845 336.624 259.91 340.689 259.91 345.704Z" fill="#D2D2D2"/>
</g>
<g id="Guides">
<g id="Home">
<circle id="Ellipse 1" cx="250.827" cy="410.421" r="16.0848" fill="#D2D2D2"/>
<circle id="Ellipse 1_2" cx="250.827" cy="410.422" r="1.62919" fill="black"/>
</g>
<g id="First">
<circle id="Ellipse 1_3" cx="311.125" cy="346.535" r="10.1878" fill="#D2D2D2"/>
<circle id="Ellipse 1_4" cx="311.125" cy="346.536" r="1.0319" fill="black"/>
</g>
<g id="Third">
<circle id="Ellipse 1_5" cx="190.34" cy="346.535" r="10.1878" fill="#D2D2D2"/>
<circle id="Ellipse 1_6" cx="190.34" cy="346.536" r="1.0319" fill="black"/>
</g>
<g id="Second">
<circle id="Ellipse 1_7" cx="250.827" cy="286.672" r="10.1878" fill="#D2D2D2"/>
<circle id="Ellipse 1_8" cx="250.827" cy="286.673" r="1.0319" fill="black"/>
</g>
<g id="Mound">
<circle id="Ellipse 1_9" cx="250.827" cy="345.931" r="9.08365" fill="#D2D2D2"/>
<circle id="Ellipse 1_10" cx="250.827" cy="345.932" r="0.920062" fill="black"/>
</g>
</g>
<path id="Foul Lines" d="M510.897 150.598L250.976 410.518L38.7581 198.3" fill="none" stroke="black" stroke-width="1.002"/>
<g id="Measurements">
<path id="374" d="M228.569 51.2381C226.939 51.2381 226.129 50.4081 226.059 49.1181L227.499 49.0481C227.559 49.7381 228.019 49.9781 228.599 49.9781C229.229 49.9781 229.719 49.6781 229.719 48.9781C229.719 48.2981 229.269 47.9381 228.529 47.9381H227.999V46.8081H228.529C229.089 46.8081 229.499 46.5581 229.499 45.9481C229.499 45.3581 229.149 45.0681 228.589 45.0681C227.969 45.0681 227.669 45.3781 227.609 45.8681L226.169 45.7981C226.309 44.5881 227.139 43.8181 228.599 43.8181C230.059 43.8181 230.959 44.5381 230.959 45.7581C230.959 46.5281 230.559 47.0381 229.809 47.2781C230.679 47.5281 231.179 48.1781 231.179 49.0781C231.179 50.4181 230.169 51.2381 228.569 51.2381ZM233.285 51.0781C233.285 48.9281 234.185 46.9681 235.655 45.2581H232.155V43.9781H237.075V45.1881C235.445 47.0481 234.775 48.6381 234.775 51.0781H233.285ZM241.061 51.0781V49.6581H237.891V48.4881L240.871 43.9781H242.491V48.4181H243.331V49.6581H242.491V51.0781H241.061ZM239.231 48.4181H241.061V45.7681L239.231 48.4181Z" fill="black"/>
<path id="332" d="M120.966 103.203C119.336 103.203 118.526 102.373 118.456 101.083L119.896 101.013C119.956 101.703 120.416 101.943 120.996 101.943C121.626 101.943 122.116 101.643 122.116 100.943C122.116 100.263 121.666 99.903 120.926 99.903H120.396V98.773H120.926C121.486 98.773 121.896 98.523 121.896 97.913C121.896 97.323 121.546 97.033 120.986 97.033C120.366 97.033 120.066 97.343 120.006 97.833L118.566 97.763C118.706 96.553 119.536 95.783 120.996 95.783C122.456 95.783 123.356 96.503 123.356 97.723C123.356 98.493 122.956 99.003 122.206 99.243C123.076 99.493 123.576 100.143 123.576 101.043C123.576 102.383 122.566 103.203 120.966 103.203ZM126.962 103.203C125.332 103.203 124.522 102.373 124.452 101.083L125.892 101.013C125.952 101.703 126.412 101.943 126.992 101.943C127.622 101.943 128.112 101.643 128.112 100.943C128.112 100.263 127.662 99.903 126.922 99.903H126.392V98.773H126.922C127.482 98.773 127.892 98.523 127.892 97.913C127.892 97.323 127.542 97.033 126.982 97.033C126.362 97.033 126.062 97.343 126.002 97.833L124.562 97.763C124.702 96.553 125.532 95.783 126.992 95.783C128.452 95.783 129.352 96.503 129.352 97.723C129.352 98.493 128.952 99.003 128.202 99.243C129.072 99.493 129.572 100.143 129.572 101.043C129.572 102.383 128.562 103.203 126.962 103.203ZM130.448 103.043C130.448 101.313 131.028 100.303 133.008 99.283C133.738 98.903 134.098 98.623 134.098 97.973C134.098 97.403 133.768 97.043 133.138 97.043C132.418 97.043 132.068 97.463 131.948 98.223L130.478 98.133C130.618 96.683 131.528 95.783 133.158 95.783C134.748 95.783 135.568 96.633 135.568 97.893C135.568 99.033 135.078 99.593 133.678 100.353C132.528 100.973 132.118 101.403 132.078 101.763H135.568V103.043H130.448Z" fill="black"/>
<path id="376" d="M487.484 151.672C485.854 151.672 485.044 150.842 484.974 149.552L486.414 149.482C486.474 150.172 486.934 150.412 487.514 150.412C488.144 150.412 488.634 150.112 488.634 149.412C488.634 148.732 488.184 148.372 487.444 148.372H486.914V147.242H487.444C488.004 147.242 488.414 146.992 488.414 146.382C488.414 145.792 488.064 145.502 487.504 145.502C486.884 145.502 486.584 145.812 486.524 146.302L485.084 146.232C485.224 145.022 486.054 144.252 487.514 144.252C488.974 144.252 489.874 144.972 489.874 146.192C489.874 146.962 489.474 147.472 488.724 147.712C489.594 147.962 490.094 148.612 490.094 149.512C490.094 150.852 489.084 151.672 487.484 151.672ZM492.2 151.512C492.2 149.362 493.1 147.402 494.57 145.692H491.07V144.412H495.99V145.622C494.36 147.482 493.69 149.072 493.69 151.512H492.2ZM499.546 151.672C497.816 151.672 496.906 150.502 496.906 148.442C496.906 146.092 497.716 144.252 499.806 144.252C501.206 144.252 501.856 145.012 502.116 146.032L500.676 146.132C500.576 145.772 500.346 145.512 499.806 145.512C499.066 145.512 498.546 146.022 498.386 147.242C498.726 146.942 499.206 146.722 499.836 146.722C501.246 146.722 502.146 147.672 502.146 149.102C502.146 150.682 501.116 151.672 499.546 151.672ZM499.516 150.392C500.266 150.392 500.686 149.952 500.686 149.152C500.686 148.412 500.306 147.932 499.576 147.932C498.836 147.932 498.366 148.422 498.366 149.162C498.366 149.842 498.786 150.392 499.516 150.392Z" fill="black"/>
<path id="306" d="M43.7352 196.308C42.1052 196.308 41.2952 195.478 41.2252 194.188L42.6652 194.118C42.7252 194.808 43.1852 195.048 43.7652 195.048C44.3952 195.048 44.8852 194.748 44.8852 194.048C44.8852 193.368 44.4352 193.008 43.6952 193.008H43.1652V191.878H43.6952C44.2552 191.878 44.6652 191.628 44.6652 191.018C44.6652 190.428 44.3152 190.138 43.7552 190.138C43.1352 190.138 42.8352 190.448 42.7752 190.938L41.3352 190.868C41.4752 189.658 42.3052 188.888 43.7652 188.888C45.2252 188.888 46.1252 189.608 46.1252 190.828C46.1252 191.598 45.7252 192.108 44.9752 192.348C45.8452 192.598 46.3452 193.248 46.3452 194.148C46.3452 195.488 45.3352 196.308 43.7352 196.308ZM49.7813 196.308C48.1813 196.308 47.2213 194.898 47.2213 192.608C47.2213 190.308 48.1813 188.888 49.7813 188.888C51.3813 188.888 52.3413 190.308 52.3413 192.608C52.3413 194.898 51.3813 196.308 49.7813 196.308ZM48.6813 192.608C48.6813 193.038 48.7113 193.408 48.7713 193.718L50.4613 190.528C50.2813 190.278 50.0513 190.148 49.7813 190.148C49.0913 190.148 48.6813 190.968 48.6813 192.608ZM49.7813 195.048C50.4713 195.048 50.8813 194.238 50.8813 192.608C50.8813 192.178 50.8513 191.798 50.7913 191.478L49.1013 194.668C49.2813 194.918 49.5113 195.048 49.7813 195.048ZM55.7974 196.308C54.0674 196.308 53.1574 195.138 53.1574 193.078C53.1574 190.728 53.9674 188.888 56.0574 188.888C57.4574 188.888 58.1074 189.648 58.3674 190.668L56.9274 190.768C56.8274 190.408 56.5974 190.148 56.0574 190.148C55.3174 190.148 54.7974 190.658 54.6374 191.878C54.9774 191.578 55.4574 191.358 56.0874 191.358C57.4974 191.358 58.3974 192.308 58.3974 193.738C58.3974 195.318 57.3674 196.308 55.7974 196.308ZM55.7674 195.028C56.5174 195.028 56.9374 194.588 56.9374 193.788C56.9374 193.048 56.5574 192.568 55.8274 192.568C55.0874 192.568 54.6174 193.058 54.6174 193.798C54.6174 194.478 55.0374 195.028 55.7674 195.028Z" fill="black"/>
</g>
<path id="field" d="M178.157 483.375L21.4843 162.887L366.573 -5.67188L349.694 13.1791L483.067 131.37L499.349 113.37L518.789 174.86L430.196 286.348L422.14 281.42L301.928 499.292L235.677 524.468L178.157 483.375Z" fill="#27251F" fill-opacity="0.1" fill="none" stroke="#27251F" stroke-width="1.002"/>
</g>
<defs>
<clipPath id="clip0_120_5900">
<rect width="500" height="469.94" fill="white"/>
</clipPath>
</defs>
</svg>
