<svg width="500" height="470" viewBox="0 0 500 470" fill="none" xmlns="http://www.w3.org/2000/svg">
<g id="forbes-field-1947" clip-path="url(#clip0_120_6008)">
<g id="Infield">
<path d="M339.98 327.764C339.453 325.664 322.032 258.477 250.83 258.477C180.238 258.477 162.505 324.536 161.697 327.697C161.677 327.775 161.668 327.814 161.668 327.814L236.504 402.651C235.305 404.91 234.623 407.487 234.623 410.236C234.623 419.184 241.873 426.443 250.83 426.443C259.778 426.443 267.037 419.184 267.037 410.236C267.037 407.487 266.356 404.91 265.157 402.655L260.695 397.373C257.96 395.276 254.544 394.024 250.83 394.024C247.117 394.024 243.701 395.276 240.971 397.368L197.7 354.098C201.448 350.351 201.448 344.275 197.7 340.528C197.698 340.525 197.694 340.523 197.691 340.52L244.055 294.036C247.8 297.772 253.861 297.772 257.606 294.036L303.431 339.982C303.431 339.982 303.427 339.983 303.424 339.986C299.677 343.734 300.275 350.298 304.022 354.045L260.695 397.373L265.157 402.655L339.98 327.764Z" fill="#D2D2D2"/>
<path d="M259.91 345.704C259.91 350.719 255.845 354.785 250.83 354.785C245.815 354.785 241.75 350.719 241.75 345.704C241.75 340.689 245.815 336.624 250.83 336.624C255.845 336.624 259.91 340.689 259.91 345.704Z" fill="#D2D2D2"/>
</g>
<g id="Guides">
<g id="Home">
<circle id="Ellipse 1" cx="250.827" cy="410.421" r="16.0848" fill="#D2D2D2"/>
<circle id="Ellipse 1_2" cx="250.827" cy="410.422" r="1.62919" fill="black"/>
</g>
<g id="First">
<circle id="Ellipse 1_3" cx="311.125" cy="346.535" r="10.1878" fill="#D2D2D2"/>
<circle id="Ellipse 1_4" cx="311.125" cy="346.536" r="1.0319" fill="black"/>
</g>
<g id="Third">
<circle id="Ellipse 1_5" cx="190.34" cy="346.535" r="10.1878" fill="#D2D2D2"/>
<circle id="Ellipse 1_6" cx="190.34" cy="346.536" r="1.0319" fill="black"/>
</g>
<g id="Second">
<circle id="Ellipse 1_7" cx="250.827" cy="286.672" r="10.1878" fill="#D2D2D2"/>
<circle id="Ellipse 1_8" cx="250.827" cy="286.673" r="1.0319" fill="black"/>
</g>
<g id="Mound">
<circle id="Ellipse 1_9" cx="250.827" cy="345.931" r="9.08365" fill="#D2D2D2"/>
<circle id="Ellipse 1_10" cx="250.827" cy="345.932" r="0.920062" fill="black"/>
</g>
</g>
<path id="Foul Lines" d="M457.567 203.928L250.976 410.52L19.1412 178.684" fill="none" stroke="black" stroke-width="1.002"/>
<g id="Measurements">
<path id="355" d="M84.2525 99.3827C82.6225 99.3827 81.8125 98.5527 81.7425 97.2627L83.1825 97.1927C83.2425 97.8827 83.7025 98.1227 84.2825 98.1227C84.9125 98.1227 85.4025 97.8227 85.4025 97.1227C85.4025 96.4427 84.9525 96.0827 84.2125 96.0827H83.6825V94.9527H84.2125C84.7725 94.9527 85.1825 94.7027 85.1825 94.0927C85.1825 93.5027 84.8325 93.2127 84.2725 93.2127C83.6525 93.2127 83.3525 93.5227 83.2925 94.0127L81.8525 93.9427C81.9925 92.7327 82.8225 91.9627 84.2825 91.9627C85.7425 91.9627 86.6425 92.6827 86.6425 93.9027C86.6425 94.6727 86.2425 95.1827 85.4925 95.4227C86.3625 95.6727 86.8625 96.3227 86.8625 97.2227C86.8625 98.5627 85.8525 99.3827 84.2525 99.3827ZM90.2886 99.3827C88.7886 99.3827 87.8786 98.4927 87.7786 97.3227L89.2386 97.2427C89.3286 97.8227 89.6786 98.1227 90.2886 98.1227C90.9486 98.1227 91.3586 97.7027 91.3586 96.8927C91.3586 96.1027 90.9386 95.6427 90.2986 95.6427C89.8586 95.6427 89.4886 95.9027 89.3486 96.2627L87.8786 96.1927L88.2986 92.1227H92.4886V93.4027H89.4686L89.2886 94.9327C89.6186 94.6527 90.0586 94.4927 90.5386 94.4927C91.9486 94.4927 92.8186 95.5127 92.8186 96.9027C92.8186 98.3727 91.8186 99.3827 90.2886 99.3827ZM96.2847 99.3827C94.7847 99.3827 93.8747 98.4927 93.7747 97.3227L95.2347 97.2427C95.3247 97.8227 95.6747 98.1227 96.2847 98.1227C96.9447 98.1227 97.3547 97.7027 97.3547 96.8927C97.3547 96.1027 96.9347 95.6427 96.2947 95.6427C95.8547 95.6427 95.4847 95.9027 95.3447 96.2627L93.8747 96.1927L94.2947 92.1227H98.4847V93.4027H95.4647L95.2847 94.9327C95.6147 94.6527 96.0547 94.4927 96.5347 94.4927C97.9447 94.4927 98.8147 95.5127 98.8147 96.9027C98.8147 98.3727 97.8147 99.3827 96.2847 99.3827Z" fill="black"/>
<path id="436" d="M287.983 1.10938V-0.310625H284.813V-1.48063L287.793 -5.99063H289.413V-1.55063H290.253V-0.310625H289.413V1.10938H287.983ZM286.153 -1.55063H287.983V-4.20063L286.153 -1.55063ZM293.48 1.26938C291.85 1.26938 291.04 0.439375 290.97 -0.850625L292.41 -0.920625C292.47 -0.230625 292.93 0.00937493 293.51 0.00937493C294.14 0.00937493 294.63 -0.290625 294.63 -0.990625C294.63 -1.67063 294.18 -2.03063 293.44 -2.03063H292.91V-3.16063H293.44C294 -3.16063 294.41 -3.41063 294.41 -4.02063C294.41 -4.61063 294.06 -4.90063 293.5 -4.90063C292.88 -4.90063 292.58 -4.59063 292.52 -4.10063L291.08 -4.17062C291.22 -5.38063 292.05 -6.15063 293.51 -6.15063C294.97 -6.15063 295.87 -5.43063 295.87 -4.21063C295.87 -3.44063 295.47 -2.93063 294.72 -2.69063C295.59 -2.44063 296.09 -1.79063 296.09 -0.890625C296.09 0.449375 295.08 1.26938 293.48 1.26938ZM299.546 1.26938C297.816 1.26938 296.906 0.099375 296.906 -1.96063C296.906 -4.31063 297.716 -6.15063 299.806 -6.15063C301.206 -6.15063 301.856 -5.39063 302.116 -4.37063L300.676 -4.27063C300.576 -4.63063 300.346 -4.89063 299.806 -4.89063C299.066 -4.89063 298.546 -4.38063 298.386 -3.16063C298.726 -3.46063 299.206 -3.68063 299.836 -3.68063C301.246 -3.68063 302.146 -2.73063 302.146 -1.30063C302.146 0.279375 301.116 1.26938 299.546 1.26938ZM299.516 -0.010625C300.266 -0.010625 300.686 -0.450625 300.686 -1.25063C300.686 -1.99063 300.306 -2.47063 299.576 -2.47063C298.836 -2.47063 298.366 -1.98063 298.366 -1.24063C298.366 -0.560625 298.786 -0.010625 299.516 -0.010625Z" fill="black"/>
<path id="300" d="M437.928 204.031C436.298 204.031 435.488 203.201 435.418 201.911L436.858 201.841C436.918 202.531 437.378 202.771 437.958 202.771C438.588 202.771 439.078 202.471 439.078 201.771C439.078 201.091 438.628 200.731 437.888 200.731H437.358V199.601H437.888C438.448 199.601 438.858 199.351 438.858 198.741C438.858 198.151 438.508 197.861 437.948 197.861C437.328 197.861 437.028 198.171 436.968 198.661L435.528 198.591C435.668 197.381 436.498 196.611 437.958 196.611C439.418 196.611 440.318 197.331 440.318 198.551C440.318 199.321 439.918 199.831 439.168 200.071C440.038 200.321 440.538 200.971 440.538 201.871C440.538 203.211 439.528 204.031 437.928 204.031ZM443.974 204.031C442.374 204.031 441.414 202.621 441.414 200.331C441.414 198.031 442.374 196.611 443.974 196.611C445.574 196.611 446.534 198.031 446.534 200.331C446.534 202.621 445.574 204.031 443.974 204.031ZM442.874 200.331C442.874 200.761 442.904 201.131 442.964 201.441L444.654 198.251C444.474 198.001 444.244 197.871 443.974 197.871C443.284 197.871 442.874 198.691 442.874 200.331ZM443.974 202.771C444.664 202.771 445.074 201.961 445.074 200.331C445.074 199.901 445.044 199.521 444.984 199.201L443.294 202.391C443.474 202.641 443.704 202.771 443.974 202.771ZM449.97 204.031C448.37 204.031 447.41 202.621 447.41 200.331C447.41 198.031 448.37 196.611 449.97 196.611C451.57 196.611 452.53 198.031 452.53 200.331C452.53 202.621 451.57 204.031 449.97 204.031ZM448.87 200.331C448.87 200.761 448.9 201.131 448.96 201.441L450.65 198.251C450.47 198.001 450.24 197.871 449.97 197.871C449.28 197.871 448.87 198.691 448.87 200.331ZM449.97 202.771C450.66 202.771 451.07 201.961 451.07 200.331C451.07 199.901 451.04 199.521 450.98 199.201L449.29 202.391C449.47 202.641 449.7 202.771 449.97 202.771Z" fill="black"/>
<path id="375" d="M452.834 100.73C451.204 100.73 450.394 99.9003 450.324 98.6103L451.764 98.5403C451.824 99.2303 452.284 99.4703 452.864 99.4703C453.494 99.4703 453.984 99.1703 453.984 98.4703C453.984 97.7903 453.534 97.4303 452.794 97.4303H452.264V96.3003H452.794C453.354 96.3003 453.764 96.0503 453.764 95.4403C453.764 94.8503 453.414 94.5603 452.854 94.5603C452.234 94.5603 451.934 94.8703 451.874 95.3603L450.434 95.2903C450.574 94.0803 451.404 93.3103 452.864 93.3103C454.324 93.3103 455.224 94.0303 455.224 95.2503C455.224 96.0203 454.824 96.5303 454.074 96.7703C454.944 97.0203 455.444 97.6703 455.444 98.5703C455.444 99.9103 454.434 100.73 452.834 100.73ZM457.55 100.57C457.55 98.4203 458.45 96.4603 459.92 94.7503H456.42V93.4703H461.34V94.6803C459.71 96.5403 459.04 98.1303 459.04 100.57H457.55ZM464.866 100.73C463.366 100.73 462.456 99.8403 462.356 98.6703L463.816 98.5903C463.906 99.1703 464.256 99.4703 464.866 99.4703C465.526 99.4703 465.936 99.0503 465.936 98.2403C465.936 97.4503 465.516 96.9903 464.876 96.9903C464.436 96.9903 464.066 97.2503 463.926 97.6103L462.456 97.5403L462.876 93.4703H467.066V94.7503H464.046L463.866 96.2803C464.196 96.0003 464.636 95.8403 465.116 95.8403C466.526 95.8403 467.396 96.8603 467.396 98.2503C467.396 99.7203 466.396 100.73 464.866 100.73Z" fill="black"/>
<path id="335" d="M29.9783 182.582C28.3483 182.582 27.5383 181.752 27.4683 180.462L28.9083 180.392C28.9683 181.082 29.4283 181.322 30.0083 181.322C30.6383 181.322 31.1283 181.022 31.1283 180.322C31.1283 179.642 30.6783 179.282 29.9383 179.282H29.4083V178.152H29.9383C30.4983 178.152 30.9083 177.902 30.9083 177.292C30.9083 176.702 30.5583 176.412 29.9983 176.412C29.3783 176.412 29.0783 176.722 29.0183 177.212L27.5783 177.142C27.7183 175.932 28.5483 175.162 30.0083 175.162C31.4683 175.162 32.3683 175.882 32.3683 177.102C32.3683 177.872 31.9683 178.382 31.2183 178.622C32.0883 178.872 32.5883 179.522 32.5883 180.422C32.5883 181.762 31.5783 182.582 29.9783 182.582ZM35.9744 182.582C34.3444 182.582 33.5344 181.752 33.4644 180.462L34.9044 180.392C34.9644 181.082 35.4244 181.322 36.0044 181.322C36.6344 181.322 37.1244 181.022 37.1244 180.322C37.1244 179.642 36.6744 179.282 35.9344 179.282H35.4044V178.152H35.9344C36.4944 178.152 36.9044 177.902 36.9044 177.292C36.9044 176.702 36.5544 176.412 35.9944 176.412C35.3744 176.412 35.0744 176.722 35.0144 177.212L33.5744 177.142C33.7144 175.932 34.5444 175.162 36.0044 175.162C37.4644 175.162 38.3644 175.882 38.3644 177.102C38.3644 177.872 37.9644 178.382 37.2144 178.622C38.0844 178.872 38.5844 179.522 38.5844 180.422C38.5844 181.762 37.5744 182.582 35.9744 182.582ZM42.0105 182.582C40.5105 182.582 39.6005 181.692 39.5005 180.522L40.9605 180.442C41.0505 181.022 41.4005 181.322 42.0105 181.322C42.6705 181.322 43.0805 180.902 43.0805 180.092C43.0805 179.302 42.6605 178.842 42.0205 178.842C41.5805 178.842 41.2105 179.102 41.0705 179.462L39.6005 179.392L40.0205 175.322H44.2105V176.602H41.1905L41.0105 178.132C41.3405 177.852 41.7805 177.692 42.2605 177.692C43.6705 177.692 44.5405 178.712 44.5405 180.102C44.5405 181.572 43.5405 182.582 42.0105 182.582Z" fill="black"/>
</g>
<path id="field" d="M418.855 293.147L458.878 221.062L447.899 102.122L356.137 2.61572L204.025 -34.7539L180.451 -13.4431V-2.50465L165.552 10.1315L151.329 54.1408L18.0705 180.357L-2.58374 157.984L7.082 180.357H12.1425L85.527 321.046L110.129 308.077L199.846 482.008L202.915 479.596L203.944 480.226C224.692 492.913 250.539 493.921 272.213 482.89L273.945 482.008H279.207L379.175 294.786L385.313 296.102L394.083 280.536L418.855 293.147Z" fill="#27251F" fill-opacity="0.1" fill="none" stroke="#27251F" stroke-width="1.002"/>
</g>
<defs>
<clipPath id="clip0_120_6008">
<rect width="500" height="469.94" fill="white"/>
</clipPath>
</defs>
</svg>
