<svg width="500" height="470" viewBox="0 0 500 470" fill="none" xmlns="http://www.w3.org/2000/svg">
<g id="george-m-steinbrenner-field-2025" clip-path="url(#clip0_101_3866)">
<g id="Infield">
<path d="M339.98 327.766C339.453 325.666 322.032 258.479 250.83 258.479C180.238 258.479 162.505 324.538 161.697 327.699C161.677 327.776 161.668 327.816 161.668 327.816L236.504 402.653C235.305 404.912 234.623 407.489 234.623 410.238C234.623 419.186 241.873 426.445 250.83 426.445C259.778 426.445 267.037 419.186 267.037 410.238C267.037 407.489 266.356 404.912 265.156 402.657L260.695 397.375C257.96 395.278 254.544 394.026 250.83 394.026C247.117 394.026 243.701 395.278 240.971 397.37L197.7 354.1C201.448 350.353 201.448 344.277 197.7 340.53C197.698 340.527 197.694 340.525 197.691 340.522L244.055 294.038C247.8 297.773 253.861 297.773 257.606 294.038L303.431 339.984C303.431 339.984 303.427 339.985 303.424 339.988C299.677 343.736 300.275 350.3 304.022 354.047L260.695 397.375L265.156 402.657L339.98 327.766Z" fill="#D2D2D2"/>
<path d="M259.91 345.706C259.91 350.721 255.845 354.787 250.83 354.787C245.815 354.787 241.75 350.721 241.75 345.706C241.75 340.691 245.815 336.626 250.83 336.626C255.845 336.626 259.91 340.691 259.91 345.706Z" fill="#D2D2D2"/>
</g>
<g id="Guides">
<g id="Home">
<circle id="Ellipse 1" cx="250.827" cy="410.419" r="16.0848" fill="#D2D2D2"/>
<circle id="Ellipse 1_2" cx="250.827" cy="410.418" r="1.62919" fill="black"/>
</g>
<g id="First">
<circle id="Ellipse 1_3" cx="311.125" cy="346.532" r="10.1878" fill="#D2D2D2"/>
<circle id="Ellipse 1_4" cx="311.125" cy="346.532" r="1.0319" fill="black"/>
</g>
<g id="Third">
<circle id="Ellipse 1_5" cx="190.34" cy="346.532" r="10.1878" fill="#D2D2D2"/>
<circle id="Ellipse 1_6" cx="190.34" cy="346.532" r="1.0319" fill="black"/>
</g>
<g id="Second">
<circle id="Ellipse 1_7" cx="250.827" cy="286.67" r="10.1878" fill="#D2D2D2"/>
<circle id="Ellipse 1_8" cx="250.827" cy="286.671" r="1.0319" fill="black"/>
</g>
<g id="Mound">
<circle id="Ellipse 1_9" cx="250.827" cy="345.929" r="9.08365" fill="#D2D2D2"/>
<circle id="Ellipse 1_10" cx="250.827" cy="345.93" r="0.920062" fill="black"/>
</g>
</g>
<path id="Foul Lines" d="M468.16 193.331L250.976 410.517L30.9782 190.52" fill="none" stroke="black" stroke-width="1.002"/>
<g id="Measurements">
<path id="408" d="M243.758 7.69922V6.27922H240.588V5.10922L243.568 0.599218H245.188V5.03922H246.028V6.27922H245.188V7.69922H243.758ZM241.928 5.03922H243.758V2.38922L241.928 5.03922ZM249.304 7.85922C247.704 7.85922 246.744 6.44922 246.744 4.15922C246.744 1.85922 247.704 0.439219 249.304 0.439219C250.904 0.439219 251.864 1.85922 251.864 4.15922C251.864 6.44922 250.904 7.85922 249.304 7.85922ZM248.204 4.15922C248.204 4.58922 248.234 4.95922 248.294 5.26922L249.984 2.07922C249.804 1.82922 249.574 1.69922 249.304 1.69922C248.614 1.69922 248.204 2.51922 248.204 4.15922ZM249.304 6.59922C249.994 6.59922 250.404 5.78922 250.404 4.15922C250.404 3.72922 250.374 3.34922 250.314 3.02922L248.624 6.21922C248.804 6.46922 249.034 6.59922 249.304 6.59922ZM255.3 7.85922C253.73 7.85922 252.68 7.13922 252.68 5.75922C252.68 4.82922 253.22 4.16922 254.09 3.88922C253.42 3.62922 252.97 3.13922 252.97 2.39922C252.97 1.25922 253.9 0.439219 255.3 0.439219C256.7 0.439219 257.63 1.25922 257.63 2.39922C257.63 3.13922 257.18 3.62922 256.5 3.88922C257.38 4.16922 257.92 4.82922 257.92 5.75922C257.92 7.13922 256.87 7.85922 255.3 7.85922ZM255.3 3.31922C255.81 3.31922 256.16 3.04922 256.16 2.48922C256.16 1.98922 255.82 1.69922 255.3 1.69922C254.78 1.69922 254.44 1.98922 254.44 2.48922C254.44 3.04922 254.79 3.31922 255.3 3.31922ZM255.3 6.59922C255.94 6.59922 256.46 6.31922 256.46 5.61922C256.46 4.94922 256.03 4.52922 255.3 4.52922C254.57 4.52922 254.14 4.94922 254.14 5.61922C254.14 6.31922 254.66 6.59922 255.3 6.59922Z" fill="black"/>
<path id="385" d="M339.696 37.2049C338.066 37.2049 337.256 36.3749 337.186 35.0849L338.626 35.0149C338.686 35.7049 339.146 35.9449 339.726 35.9449C340.356 35.9449 340.846 35.6449 340.846 34.9449C340.846 34.2649 340.396 33.9049 339.656 33.9049H339.126V32.7749H339.656C340.216 32.7749 340.626 32.5249 340.626 31.9149C340.626 31.3249 340.276 31.0349 339.716 31.0349C339.096 31.0349 338.796 31.3449 338.736 31.8349L337.296 31.7649C337.436 30.5549 338.266 29.7849 339.726 29.7849C341.186 29.7849 342.086 30.5049 342.086 31.7249C342.086 32.4949 341.686 33.0049 340.936 33.2449C341.806 33.4949 342.306 34.1449 342.306 35.0449C342.306 36.3849 341.296 37.2049 339.696 37.2049ZM345.742 37.2049C344.172 37.2049 343.122 36.4849 343.122 35.1049C343.122 34.1749 343.662 33.5149 344.532 33.2349C343.862 32.9749 343.412 32.4849 343.412 31.7449C343.412 30.6049 344.342 29.7849 345.742 29.7849C347.142 29.7849 348.072 30.6049 348.072 31.7449C348.072 32.4849 347.622 32.9749 346.942 33.2349C347.822 33.5149 348.362 34.1749 348.362 35.1049C348.362 36.4849 347.312 37.2049 345.742 37.2049ZM345.742 32.6649C346.252 32.6649 346.602 32.3949 346.602 31.8349C346.602 31.3349 346.262 31.0449 345.742 31.0449C345.222 31.0449 344.882 31.3349 344.882 31.8349C344.882 32.3949 345.232 32.6649 345.742 32.6649ZM345.742 35.9449C346.382 35.9449 346.902 35.6649 346.902 34.9649C346.902 34.2949 346.472 33.8749 345.742 33.8749C345.012 33.8749 344.582 34.2949 344.582 34.9649C344.582 35.6649 345.102 35.9449 345.742 35.9449ZM351.728 37.2049C350.228 37.2049 349.318 36.3149 349.218 35.1449L350.678 35.0649C350.768 35.6449 351.118 35.9449 351.728 35.9449C352.388 35.9449 352.798 35.5249 352.798 34.7149C352.798 33.9249 352.378 33.4649 351.738 33.4649C351.298 33.4649 350.928 33.7249 350.788 34.0849L349.318 34.0149L349.738 29.9449H353.928V31.2249H350.908L350.728 32.7549C351.058 32.4749 351.498 32.3149 351.978 32.3149C353.388 32.3149 354.258 33.3349 354.258 34.7249C354.258 36.1949 353.258 37.2049 351.728 37.2049Z" fill="black"/>
<path id="399" d="M123.089 35.4022C121.459 35.4022 120.649 34.5722 120.579 33.2822L122.019 33.2122C122.079 33.9022 122.539 34.1422 123.119 34.1422C123.749 34.1422 124.239 33.8422 124.239 33.1422C124.239 32.4622 123.789 32.1022 123.049 32.1022H122.519V30.9722H123.049C123.609 30.9722 124.019 30.7222 124.019 30.1122C124.019 29.5222 123.669 29.2322 123.109 29.2322C122.489 29.2322 122.189 29.5422 122.129 30.0322L120.689 29.9622C120.829 28.7522 121.659 27.9822 123.119 27.9822C124.579 27.9822 125.479 28.7022 125.479 29.9222C125.479 30.6922 125.079 31.2022 124.329 31.4422C125.199 31.6922 125.699 32.3422 125.699 33.2422C125.699 34.5822 124.689 35.4022 123.089 35.4022ZM129.115 27.9822C130.845 27.9822 131.755 29.1522 131.755 31.2122C131.755 33.5622 130.945 35.4022 128.855 35.4022C127.455 35.4022 126.805 34.6422 126.545 33.6222L127.985 33.5222C128.085 33.8822 128.315 34.1422 128.855 34.1422C129.595 34.1422 130.115 33.6322 130.275 32.4122C129.935 32.7122 129.455 32.9322 128.825 32.9322C127.415 32.9322 126.515 31.9822 126.515 30.5522C126.515 28.9722 127.545 27.9822 129.115 27.9822ZM129.145 29.2622C128.395 29.2622 127.975 29.7022 127.975 30.5022C127.975 31.2422 128.355 31.7222 129.085 31.7222C129.825 31.7222 130.295 31.2322 130.295 30.4922C130.295 29.8122 129.875 29.2622 129.145 29.2622ZM135.112 27.9822C136.842 27.9822 137.752 29.1522 137.752 31.2122C137.752 33.5622 136.942 35.4022 134.852 35.4022C133.452 35.4022 132.802 34.6422 132.542 33.6222L133.982 33.5222C134.082 33.8822 134.312 34.1422 134.852 34.1422C135.592 34.1422 136.112 33.6322 136.272 32.4122C135.932 32.7122 135.452 32.9322 134.822 32.9322C133.412 32.9322 132.512 31.9822 132.512 30.5522C132.512 28.9722 133.542 27.9822 135.112 27.9822ZM135.142 29.2622C134.392 29.2622 133.972 29.7022 133.972 30.5022C133.972 31.2422 134.352 31.7222 135.082 31.7222C135.822 31.7222 136.292 31.2322 136.292 30.4922C136.292 29.8122 135.872 29.2622 135.142 29.2622Z" fill="black"/>
<path id="314" d="M447.938 193.098C446.308 193.098 445.498 192.267 445.428 190.977L446.868 190.907C446.928 191.597 447.388 191.837 447.968 191.837C448.598 191.837 449.088 191.537 449.088 190.837C449.088 190.157 448.638 189.797 447.898 189.797H447.368V188.667H447.898C448.458 188.667 448.868 188.417 448.868 187.807C448.868 187.217 448.518 186.927 447.958 186.927C447.338 186.927 447.038 187.237 446.978 187.727L445.538 187.658C445.678 186.447 446.508 185.677 447.968 185.677C449.428 185.677 450.328 186.397 450.328 187.617C450.328 188.387 449.928 188.897 449.178 189.137C450.048 189.387 450.548 190.037 450.548 190.937C450.548 192.278 449.538 193.098 447.938 193.098ZM451.464 192.938V191.657H453.504V188.277H451.764V187.097H452.544C453.344 187.097 453.684 186.757 453.684 185.837H454.924V191.657H456.504V192.938H451.464ZM460.43 192.938V191.517H457.26V190.347L460.24 185.837H461.86V190.277H462.7V191.517H461.86V192.938H460.43ZM458.6 190.277H460.43V187.627L458.6 190.277Z" fill="black"/>
<path id="318" d="M36.5783 189.598C34.9483 189.598 34.1383 188.767 34.0683 187.477L35.5083 187.407C35.5683 188.097 36.0283 188.337 36.6083 188.337C37.2383 188.337 37.7283 188.037 37.7283 187.337C37.7283 186.657 37.2783 186.297 36.5383 186.297H36.0083V185.167H36.5383C37.0983 185.167 37.5083 184.917 37.5083 184.307C37.5083 183.717 37.1583 183.427 36.5983 183.427C35.9783 183.427 35.6783 183.737 35.6183 184.227L34.1783 184.158C34.3183 182.947 35.1483 182.177 36.6083 182.177C38.0683 182.177 38.9683 182.897 38.9683 184.117C38.9683 184.887 38.5683 185.397 37.8183 185.637C38.6883 185.887 39.1883 186.537 39.1883 187.437C39.1883 188.778 38.1783 189.598 36.5783 189.598ZM40.1044 189.438V188.157H42.1444V184.777H40.4044V183.597H41.1844C41.9844 183.597 42.3244 183.257 42.3244 182.337H43.5644V188.157H45.1444V189.438H40.1044ZM48.6205 189.598C47.0505 189.598 46.0005 188.877 46.0005 187.497C46.0005 186.567 46.5405 185.907 47.4105 185.627C46.7405 185.367 46.2905 184.877 46.2905 184.137C46.2905 182.997 47.2205 182.177 48.6205 182.177C50.0205 182.177 50.9505 182.997 50.9505 184.137C50.9505 184.877 50.5005 185.367 49.8205 185.627C50.7005 185.907 51.2405 186.567 51.2405 187.497C51.2405 188.877 50.1905 189.598 48.6205 189.598ZM48.6205 185.057C49.1305 185.057 49.4805 184.787 49.4805 184.227C49.4805 183.727 49.1405 183.437 48.6205 183.437C48.1005 183.437 47.7605 183.727 47.7605 184.227C47.7605 184.787 48.1105 185.057 48.6205 185.057ZM48.6205 188.337C49.2605 188.337 49.7805 188.057 49.7805 187.357C49.7805 186.687 49.3505 186.267 48.6205 186.267C47.8905 186.267 47.4605 186.687 47.4605 187.357C47.4605 188.057 47.9805 188.337 48.6205 188.337Z" fill="black"/>
</g>
<path id="field" d="M96.0729 263.694L30.8606 201.821V178.008C30.8606 163.291 36.5173 136.948 49.615 123.85C62.7126 110.753 101.27 72.7854 127.024 47.0316C152.777 21.2778 196.869 11.123 250.83 11.123C304.791 11.123 339.823 41.4386 349.536 51.1514L451.374 152.989C467.386 169.001 469.093 192.215 467.945 201.821L405.647 263.694L309.283 422.267L304.791 419.217L294.475 435.074C273.952 466.621 227.751 466.594 207.265 435.022L197.011 419.217L191.826 422.267L96.0729 263.694Z" fill="#092C5C" fill-opacity="0.1" fill="none" stroke="#092C5C" stroke-width="1.002"/>
</g>
<defs>
<clipPath id="clip0_101_3866">
<rect width="500" height="469.94" fill="white"/>
</clipPath>
</defs>
</svg>
