<svg width="500" height="470" viewBox="0 0 500 470" fill="none" xmlns="http://www.w3.org/2000/svg">
<g id="globe-life-field-2020" clip-path="url(#clip0_102_3920)">
<g id="Infield">
<path d="M339.98 327.766C339.453 325.666 322.032 258.479 250.83 258.479C180.238 258.479 162.505 324.538 161.697 327.699C161.677 327.776 161.668 327.816 161.668 327.816L236.504 402.653C235.305 404.912 234.623 407.489 234.623 410.238C234.623 419.186 241.873 426.445 250.83 426.445C259.778 426.445 267.037 419.186 267.037 410.238C267.037 407.489 266.356 404.912 265.156 402.657L260.695 397.375C257.96 395.278 254.544 394.026 250.83 394.026C247.117 394.026 243.701 395.278 240.971 397.37L197.7 354.1C201.448 350.353 201.448 344.277 197.7 340.53C197.698 340.527 197.694 340.525 197.691 340.522L244.055 294.038C247.8 297.773 253.861 297.773 257.606 294.038L303.431 339.984C303.431 339.984 303.427 339.985 303.424 339.988C299.677 343.736 300.275 350.3 304.022 354.047L260.695 397.375L265.156 402.657L339.98 327.766Z" fill="#D2D2D2"/>
<path d="M259.91 345.706C259.91 350.721 255.845 354.787 250.83 354.787C245.815 354.787 241.75 350.721 241.75 345.706C241.75 340.691 245.815 336.626 250.83 336.626C255.845 336.626 259.91 340.691 259.91 345.706Z" fill="#D2D2D2"/>
</g>
<g id="Guides">
<g id="Home">
<circle id="Ellipse 1" cx="250.827" cy="410.419" r="16.0848" fill="#D2D2D2"/>
<circle id="Ellipse 1_2" cx="250.827" cy="410.418" r="1.62919" fill="black"/>
</g>
<g id="First">
<circle id="Ellipse 1_3" cx="311.125" cy="346.532" r="10.1878" fill="#D2D2D2"/>
<circle id="Ellipse 1_4" cx="311.125" cy="346.532" r="1.0319" fill="black"/>
</g>
<g id="Third">
<circle id="Ellipse 1_5" cx="190.34" cy="346.532" r="10.1878" fill="#D2D2D2"/>
<circle id="Ellipse 1_6" cx="190.34" cy="346.532" r="1.0319" fill="black"/>
</g>
<g id="Second">
<circle id="Ellipse 1_7" cx="250.827" cy="286.67" r="10.1878" fill="#D2D2D2"/>
<circle id="Ellipse 1_8" cx="250.827" cy="286.671" r="1.0319" fill="black"/>
</g>
<g id="Mound">
<circle id="Ellipse 1_9" cx="250.827" cy="345.929" r="9.08365" fill="#D2D2D2"/>
<circle id="Ellipse 1_10" cx="250.827" cy="345.93" r="0.920062" fill="black"/>
</g>
</g>
<path id="Foul Lines" d="M476.388 185.104L250.976 410.516L23.4368 182.977" fill="none" stroke="black" stroke-width="1.002"/>
<g id="Measurements">
<path id="407" d="M245.203 9.69922V8.27922H242.033V7.10922L245.013 2.59922H246.633V7.03922H247.473V8.27922H246.633V9.69922H245.203ZM243.373 7.03922H245.203V4.38922L243.373 7.03922ZM250.749 9.85922C249.149 9.85922 248.189 8.44922 248.189 6.15922C248.189 3.85922 249.149 2.43922 250.749 2.43922C252.349 2.43922 253.309 3.85922 253.309 6.15922C253.309 8.44922 252.349 9.85922 250.749 9.85922ZM249.649 6.15922C249.649 6.58922 249.679 6.95922 249.739 7.26922L251.429 4.07922C251.249 3.82922 251.019 3.69922 250.749 3.69922C250.059 3.69922 249.649 4.51922 249.649 6.15922ZM250.749 8.59922C251.439 8.59922 251.849 7.78922 251.849 6.15922C251.849 5.72922 251.819 5.34922 251.759 5.02922L250.069 8.21922C250.249 8.46922 250.479 8.59922 250.749 8.59922ZM255.415 9.69922C255.415 7.54922 256.315 5.58922 257.785 3.87922H254.285V2.59922H259.205V3.80922C257.575 5.66922 256.905 7.25922 256.905 9.69922H255.415Z" fill="black"/>
<path id="374" d="M363.294 59.0916C361.664 59.0916 360.854 58.2616 360.784 56.9716L362.224 56.9016C362.284 57.5916 362.744 57.8316 363.324 57.8316C363.954 57.8316 364.444 57.5316 364.444 56.8316C364.444 56.1516 363.994 55.7916 363.254 55.7916H362.724V54.6616H363.254C363.814 54.6616 364.224 54.4116 364.224 53.8016C364.224 53.2116 363.874 52.9216 363.314 52.9216C362.694 52.9216 362.394 53.2316 362.334 53.7216L360.894 53.6516C361.034 52.4416 361.864 51.6716 363.324 51.6716C364.784 51.6716 365.684 52.3916 365.684 53.6116C365.684 54.3816 365.284 54.8916 364.534 55.1316C365.404 55.3816 365.904 56.0316 365.904 56.9316C365.904 58.2716 364.894 59.0916 363.294 59.0916ZM368.011 58.9316C368.011 56.7816 368.911 54.8216 370.381 53.1116H366.881V51.8316H371.801V53.0416C370.171 54.9016 369.501 56.4916 369.501 58.9316H368.011ZM375.787 58.9316V57.5116H372.617V56.3416L375.597 51.8316H377.217V56.2716H378.057V57.5116H377.217V58.9316H375.787ZM373.957 56.2716H375.787V53.6216L373.957 56.2716Z" fill="black"/>
<path id="372" d="M94.9055 69.0916C93.2755 69.0916 92.4655 68.2616 92.3955 66.9716L93.8355 66.9016C93.8955 67.5916 94.3555 67.8316 94.9355 67.8316C95.5655 67.8316 96.0555 67.5316 96.0555 66.8316C96.0555 66.1516 95.6055 65.7916 94.8655 65.7916H94.3355V64.6616H94.8655C95.4255 64.6616 95.8355 64.4116 95.8355 63.8016C95.8355 63.2116 95.4855 62.9216 94.9255 62.9216C94.3055 62.9216 94.0055 63.2316 93.9455 63.7216L92.5055 63.6516C92.6455 62.4416 93.4755 61.6716 94.9355 61.6716C96.3955 61.6716 97.2955 62.3916 97.2955 63.6116C97.2955 64.3816 96.8955 64.8916 96.1455 65.1316C97.0155 65.3816 97.5155 66.0316 97.5155 66.9316C97.5155 68.2716 96.5055 69.0916 94.9055 69.0916ZM99.6216 68.9316C99.6216 66.7816 100.522 64.8216 101.992 63.1116H98.4916V61.8316H103.412V63.0416C101.782 64.9016 101.112 66.4916 101.112 68.9316H99.6216ZM104.388 68.9316C104.388 67.2016 104.968 66.1916 106.948 65.1716C107.678 64.7916 108.038 64.5116 108.038 63.8616C108.038 63.2916 107.708 62.9316 107.078 62.9316C106.358 62.9316 106.008 63.3516 105.888 64.1116L104.418 64.0216C104.558 62.5716 105.468 61.6716 107.098 61.6716C108.688 61.6716 109.508 62.5216 109.508 63.7816C109.508 64.9216 109.018 65.4816 107.618 66.2416C106.468 66.8616 106.058 67.2916 106.018 67.6516H109.508V68.9316H104.388Z" fill="black"/>
<path id="326" d="M457.938 185.098C456.308 185.098 455.498 184.267 455.428 182.977L456.868 182.907C456.928 183.597 457.388 183.837 457.968 183.837C458.598 183.837 459.088 183.537 459.088 182.837C459.088 182.157 458.638 181.797 457.898 181.797H457.368V180.667H457.898C458.458 180.667 458.868 180.417 458.868 179.807C458.868 179.217 458.518 178.927 457.958 178.927C457.338 178.927 457.038 179.237 456.978 179.727L455.538 179.658C455.678 178.447 456.508 177.677 457.968 177.677C459.428 177.677 460.328 178.397 460.328 179.617C460.328 180.387 459.928 180.897 459.178 181.137C460.048 181.387 460.548 182.037 460.548 182.937C460.548 184.278 459.538 185.098 457.938 185.098ZM461.424 184.938C461.424 183.207 462.004 182.197 463.984 181.177C464.714 180.797 465.074 180.517 465.074 179.867C465.074 179.297 464.744 178.937 464.114 178.937C463.394 178.937 463.044 179.357 462.924 180.117L461.454 180.027C461.594 178.577 462.504 177.677 464.134 177.677C465.724 177.677 466.544 178.527 466.544 179.787C466.544 180.927 466.054 181.487 464.654 182.247C463.504 182.867 463.094 183.297 463.054 183.657H466.544V184.938H461.424ZM470 185.098C468.27 185.098 467.36 183.927 467.36 181.867C467.36 179.517 468.17 177.677 470.26 177.677C471.66 177.677 472.31 178.437 472.57 179.457L471.13 179.557C471.03 179.197 470.8 178.937 470.26 178.937C469.52 178.937 469 179.447 468.84 180.667C469.18 180.367 469.66 180.147 470.29 180.147C471.7 180.147 472.6 181.097 472.6 182.527C472.6 184.107 471.57 185.098 470 185.098ZM469.97 183.817C470.72 183.817 471.14 183.377 471.14 182.577C471.14 181.837 470.76 181.357 470.03 181.357C469.29 181.357 468.82 181.847 468.82 182.587C468.82 183.267 469.24 183.817 469.97 183.817Z" fill="black"/>
<path id="329" d="M30.5783 181.598C28.9483 181.598 28.1383 180.767 28.0683 179.477L29.5083 179.407C29.5683 180.097 30.0283 180.337 30.6083 180.337C31.2383 180.337 31.7283 180.037 31.7283 179.337C31.7283 178.657 31.2783 178.297 30.5383 178.297H30.0083V177.167H30.5383C31.0983 177.167 31.5083 176.917 31.5083 176.307C31.5083 175.717 31.1583 175.427 30.5983 175.427C29.9783 175.427 29.6783 175.737 29.6183 176.227L28.1783 176.158C28.3183 174.947 29.1483 174.177 30.6083 174.177C32.0683 174.177 32.9683 174.897 32.9683 176.117C32.9683 176.887 32.5683 177.397 31.8183 177.637C32.6883 177.887 33.1883 178.537 33.1883 179.437C33.1883 180.778 32.1783 181.598 30.5783 181.598ZM34.0644 181.438C34.0644 179.707 34.6444 178.697 36.6244 177.677C37.3544 177.297 37.7144 177.017 37.7144 176.367C37.7144 175.797 37.3844 175.437 36.7544 175.437C36.0344 175.437 35.6844 175.857 35.5644 176.617L34.0944 176.527C34.2344 175.077 35.1444 174.177 36.7744 174.177C38.3644 174.177 39.1844 175.027 39.1844 176.287C39.1844 177.427 38.6944 177.987 37.2944 178.747C36.1444 179.367 35.7344 179.797 35.6944 180.157H39.1844V181.438H34.0644ZM42.6005 174.177C44.3305 174.177 45.2405 175.347 45.2405 177.407C45.2405 179.757 44.4305 181.598 42.3405 181.598C40.9405 181.598 40.2905 180.837 40.0305 179.817L41.4705 179.717C41.5705 180.077 41.8005 180.337 42.3405 180.337C43.0805 180.337 43.6005 179.827 43.7605 178.607C43.4205 178.907 42.9405 179.127 42.3105 179.127C40.9005 179.127 40.0005 178.177 40.0005 176.747C40.0005 175.167 41.0305 174.177 42.6005 174.177ZM42.6305 175.457C41.8805 175.457 41.4605 175.897 41.4605 176.697C41.4605 177.437 41.8405 177.917 42.5705 177.917C43.3105 177.917 43.7805 177.427 43.7805 176.687C43.7805 176.007 43.3605 175.457 42.6305 175.457Z" fill="black"/>
</g>
<path id="field" d="M35.9841 114.287L21.0168 196.608L87.3641 261.932L102.282 323.443L199.146 433.794L231.638 452.595H268.422L298.667 437.473L431.497 283.594L438.241 237.41L477.272 198.378L475.498 163.15L378.848 64.3962L360.554 67.7223L307.337 13.1191H201.457L131.609 54.1408L129.669 60.793L35.9841 114.287Z" fill="#003278" fill-opacity="0.1" fill="none" stroke="#003278" stroke-width="1.002"/>
</g>
<defs>
<clipPath id="clip0_102_3920">
<rect width="500" height="469.94" fill="white"/>
</clipPath>
</defs>
</svg>
