<svg width="500" height="470" viewBox="0 0 500 470" fill="none" xmlns="http://www.w3.org/2000/svg">
<g id="globe-life-park-1994">
<g id="Infield">
<path d="M339.98 327.826C339.453 325.727 322.032 258.539 250.83 258.539C180.238 258.539 162.505 324.599 161.697 327.76C161.677 327.837 161.668 327.877 161.668 327.877L236.504 402.713C235.305 404.973 234.623 407.549 234.623 410.298C234.623 419.246 241.873 426.505 250.83 426.505C259.778 426.505 267.037 419.246 267.037 410.298C267.037 407.549 266.356 404.973 265.156 402.718L260.695 397.435C257.96 395.339 254.544 394.087 250.83 394.087C247.117 394.087 243.701 395.339 240.971 397.431L197.7 354.161C201.448 350.413 201.448 344.338 197.7 340.59C197.698 340.587 197.694 340.585 197.691 340.582L244.055 294.098C247.8 297.834 253.861 297.834 257.606 294.098L303.431 340.044C303.431 340.044 303.427 340.046 303.424 340.049C299.677 343.796 300.275 350.36 304.022 354.108L260.695 397.435L265.156 402.718L339.98 327.826Z" fill="#D2D2D2"/>
<path d="M259.91 345.767C259.91 350.782 255.845 354.847 250.83 354.847C245.815 354.847 241.75 350.782 241.75 345.767C241.75 340.752 245.815 336.686 250.83 336.686C255.845 336.686 259.91 340.752 259.91 345.767Z" fill="#D2D2D2"/>
</g>
<g id="Guides">
<g id="Home">
<circle id="Ellipse 1" cx="250.827" cy="410.479" r="16.0848" fill="#D2D2D2"/>
<circle id="Ellipse 1_2" cx="250.827" cy="410.479" r="1.62919" fill="black"/>
</g>
<g id="First">
<circle id="Ellipse 1_3" cx="311.125" cy="346.592" r="10.1878" fill="#D2D2D2"/>
<circle id="Ellipse 1_4" cx="311.125" cy="346.592" r="1.0319" fill="black"/>
</g>
<g id="Third">
<circle id="Ellipse 1_5" cx="190.34" cy="346.592" r="10.1878" fill="#D2D2D2"/>
<circle id="Ellipse 1_6" cx="190.34" cy="346.592" r="1.0319" fill="black"/>
</g>
<g id="Second">
<circle id="Ellipse 1_7" cx="250.827" cy="286.731" r="10.1878" fill="#D2D2D2"/>
<circle id="Ellipse 1_8" cx="250.827" cy="286.731" r="1.0319" fill="black"/>
</g>
<g id="Mound">
<circle id="Ellipse 1_9" cx="250.827" cy="345.99" r="9.08365" fill="#D2D2D2"/>
<circle id="Ellipse 1_10" cx="250.827" cy="345.99" r="0.920062" fill="black"/>
</g>
</g>
<path id="Foul Lines" d="M477.383 184.17L250.976 410.578L20.0076 179.609" fill="none" stroke="black" stroke-width="1.002"/>
<g id="Measurements">
<path id="404" d="M188.49 16.3887V14.9687H185.32V13.7987L188.3 9.28867H189.92V13.7287H190.76V14.9687H189.92V16.3887H188.49ZM186.66 13.7287H188.49V11.0787L186.66 13.7287ZM194.036 16.5487C192.436 16.5487 191.476 15.1387 191.476 12.8487C191.476 10.5487 192.436 9.12867 194.036 9.12867C195.636 9.12867 196.596 10.5487 196.596 12.8487C196.596 15.1387 195.636 16.5487 194.036 16.5487ZM192.936 12.8487C192.936 13.2787 192.966 13.6487 193.026 13.9587L194.716 10.7687C194.536 10.5187 194.306 10.3887 194.036 10.3887C193.346 10.3887 192.936 11.2087 192.936 12.8487ZM194.036 15.2887C194.726 15.2887 195.136 14.4787 195.136 12.8487C195.136 12.4187 195.106 12.0387 195.046 11.7187L193.356 14.9087C193.536 15.1587 193.766 15.2887 194.036 15.2887ZM200.482 16.3887V14.9687H197.312V13.7987L200.292 9.28867H201.912V13.7287H202.752V14.9687H201.912V16.3887H200.482ZM198.652 13.7287H200.482V11.0787L198.652 13.7287Z" fill="black"/>
<path id="407" d="M318.437 16.3887V14.9687H315.267V13.7987L318.247 9.28867H319.867V13.7287H320.707V14.9687H319.867V16.3887H318.437ZM316.607 13.7287H318.437V11.0787L316.607 13.7287ZM323.983 16.5487C322.383 16.5487 321.423 15.1387 321.423 12.8487C321.423 10.5487 322.383 9.12867 323.983 9.12867C325.583 9.12867 326.543 10.5487 326.543 12.8487C326.543 15.1387 325.583 16.5487 323.983 16.5487ZM322.883 12.8487C322.883 13.2787 322.913 13.6487 322.973 13.9587L324.663 10.7687C324.483 10.5187 324.253 10.3887 323.983 10.3887C323.293 10.3887 322.883 11.2087 322.883 12.8487ZM323.983 15.2887C324.673 15.2887 325.083 14.4787 325.083 12.8487C325.083 12.4187 325.053 12.0387 324.993 11.7187L323.303 14.9087C323.483 15.1587 323.713 15.2887 323.983 15.2887ZM328.649 16.3887C328.649 14.2387 329.549 12.2787 331.019 10.5687H327.519V9.28867H332.439V10.4987C330.809 12.3587 330.139 13.9487 330.139 16.3887H328.649Z" fill="black"/>
<path id="377" d="M371.294 59.1522C369.664 59.1522 368.854 58.3222 368.784 57.0322L370.224 56.9622C370.284 57.6522 370.744 57.8922 371.324 57.8922C371.954 57.8922 372.444 57.5922 372.444 56.8922C372.444 56.2122 371.994 55.8522 371.254 55.8522H370.724V54.7222H371.254C371.814 54.7222 372.224 54.4722 372.224 53.8622C372.224 53.2722 371.874 52.9822 371.314 52.9822C370.694 52.9822 370.394 53.2922 370.334 53.7822L368.894 53.7122C369.034 52.5022 369.864 51.7322 371.324 51.7322C372.784 51.7322 373.684 52.4522 373.684 53.6722C373.684 54.4422 373.284 54.9522 372.534 55.1922C373.404 55.4422 373.904 56.0922 373.904 56.9922C373.904 58.3322 372.894 59.1522 371.294 59.1522ZM376.011 58.9922C376.011 56.8422 376.911 54.8822 378.381 53.1722H374.881V51.8922H379.801V53.1022C378.171 54.9622 377.501 56.5522 377.501 58.9922H376.011ZM382.007 58.9922C382.007 56.8422 382.907 54.8822 384.377 53.1722H380.877V51.8922H385.797V53.1022C384.167 54.9622 383.497 56.5522 383.497 58.9922H382.007Z" fill="black"/>
<path id="388" d="M102.303 49.1522C100.673 49.1522 99.8629 48.3222 99.7929 47.0322L101.233 46.9622C101.293 47.6522 101.753 47.8922 102.333 47.8922C102.963 47.8922 103.453 47.5922 103.453 46.8922C103.453 46.2122 103.003 45.8522 102.263 45.8522H101.733V44.7222H102.263C102.823 44.7222 103.233 44.4722 103.233 43.8622C103.233 43.2722 102.883 42.9822 102.323 42.9822C101.703 42.9822 101.403 43.2922 101.343 43.7822L99.9029 43.7122C100.043 42.5022 100.873 41.7322 102.333 41.7322C103.793 41.7322 104.693 42.4522 104.693 43.6722C104.693 44.4422 104.293 44.9522 103.543 45.1922C104.413 45.4422 104.913 46.0922 104.913 46.9922C104.913 48.3322 103.903 49.1522 102.303 49.1522ZM108.349 49.1522C106.779 49.1522 105.729 48.4322 105.729 47.0522C105.729 46.1222 106.269 45.4622 107.139 45.1822C106.469 44.9222 106.019 44.4322 106.019 43.6922C106.019 42.5522 106.949 41.7322 108.349 41.7322C109.749 41.7322 110.679 42.5522 110.679 43.6922C110.679 44.4322 110.229 44.9222 109.549 45.1822C110.429 45.4622 110.969 46.1222 110.969 47.0522C110.969 48.4322 109.919 49.1522 108.349 49.1522ZM108.349 44.6122C108.859 44.6122 109.209 44.3422 109.209 43.7822C109.209 43.2822 108.869 42.9922 108.349 42.9922C107.829 42.9922 107.489 43.2822 107.489 43.7822C107.489 44.3422 107.839 44.6122 108.349 44.6122ZM108.349 47.8922C108.989 47.8922 109.509 47.6122 109.509 46.9122C109.509 46.2422 109.079 45.8222 108.349 45.8222C107.619 45.8222 107.189 46.2422 107.189 46.9122C107.189 47.6122 107.709 47.8922 108.349 47.8922ZM114.345 49.1522C112.775 49.1522 111.725 48.4322 111.725 47.0522C111.725 46.1222 112.265 45.4622 113.135 45.1822C112.465 44.9222 112.015 44.4322 112.015 43.6922C112.015 42.5522 112.945 41.7322 114.345 41.7322C115.745 41.7322 116.675 42.5522 116.675 43.6922C116.675 44.4322 116.225 44.9222 115.545 45.1822C116.425 45.4622 116.965 46.1222 116.965 47.0522C116.965 48.4322 115.915 49.1522 114.345 49.1522ZM114.345 44.6122C114.855 44.6122 115.205 44.3422 115.205 43.7822C115.205 43.2822 114.865 42.9922 114.345 42.9922C113.825 42.9922 113.485 43.2822 113.485 43.7822C113.485 44.3422 113.835 44.6122 114.345 44.6122ZM114.345 47.8922C114.985 47.8922 115.505 47.6122 115.505 46.9122C115.505 46.2422 115.075 45.8222 114.345 45.8222C113.615 45.8222 113.185 46.2422 113.185 46.9122C113.185 47.6122 113.705 47.8922 114.345 47.8922Z" fill="black"/>
<path id="326" d="M457.938 185.158C456.308 185.158 455.498 184.328 455.428 183.038L456.868 182.968C456.928 183.658 457.388 183.898 457.968 183.898C458.598 183.898 459.088 183.598 459.088 182.898C459.088 182.218 458.638 181.858 457.898 181.858H457.368V180.728H457.898C458.458 180.728 458.868 180.478 458.868 179.868C458.868 179.278 458.518 178.988 457.958 178.988C457.338 178.988 457.038 179.298 456.978 179.788L455.538 179.718C455.678 178.508 456.508 177.738 457.968 177.738C459.428 177.738 460.328 178.458 460.328 179.678C460.328 180.448 459.928 180.958 459.178 181.198C460.048 181.448 460.548 182.098 460.548 182.998C460.548 184.338 459.538 185.158 457.938 185.158ZM461.424 184.998C461.424 183.268 462.004 182.258 463.984 181.238C464.714 180.858 465.074 180.578 465.074 179.928C465.074 179.358 464.744 178.998 464.114 178.998C463.394 178.998 463.044 179.418 462.924 180.178L461.454 180.088C461.594 178.638 462.504 177.738 464.134 177.738C465.724 177.738 466.544 178.588 466.544 179.848C466.544 180.988 466.054 181.548 464.654 182.308C463.504 182.928 463.094 183.358 463.054 183.718H466.544V184.998H461.424ZM470 185.158C468.27 185.158 467.36 183.988 467.36 181.928C467.36 179.578 468.17 177.738 470.26 177.738C471.66 177.738 472.31 178.498 472.57 179.518L471.13 179.618C471.03 179.258 470.8 178.998 470.26 178.998C469.52 178.998 469 179.508 468.84 180.728C469.18 180.428 469.66 180.208 470.29 180.208C471.7 180.208 472.6 181.158 472.6 182.588C472.6 184.168 471.57 185.158 470 185.158ZM469.97 183.878C470.72 183.878 471.14 183.438 471.14 182.638C471.14 181.898 470.76 181.418 470.03 181.418C469.29 181.418 468.82 181.908 468.82 182.648C468.82 183.328 469.24 183.878 469.97 183.878Z" fill="black"/>
<path id="324" d="M30.5783 179.658C28.9483 179.658 28.1383 178.828 28.0683 177.538L29.5083 177.468C29.5683 178.158 30.0283 178.398 30.6083 178.398C31.2383 178.398 31.7283 178.098 31.7283 177.398C31.7283 176.718 31.2783 176.358 30.5383 176.358H30.0083V175.228H30.5383C31.0983 175.228 31.5083 174.978 31.5083 174.368C31.5083 173.778 31.1583 173.488 30.5983 173.488C29.9783 173.488 29.6783 173.798 29.6183 174.288L28.1783 174.218C28.3183 173.008 29.1483 172.238 30.6083 172.238C32.0683 172.238 32.9683 172.958 32.9683 174.178C32.9683 174.948 32.5683 175.458 31.8183 175.698C32.6883 175.948 33.1883 176.598 33.1883 177.498C33.1883 178.838 32.1783 179.658 30.5783 179.658ZM34.0644 179.498C34.0644 177.768 34.6444 176.758 36.6244 175.738C37.3544 175.358 37.7144 175.078 37.7144 174.428C37.7144 173.858 37.3844 173.498 36.7544 173.498C36.0344 173.498 35.6844 173.918 35.5644 174.678L34.0944 174.588C34.2344 173.138 35.1444 172.238 36.7744 172.238C38.3644 172.238 39.1844 173.088 39.1844 174.348C39.1844 175.488 38.6944 176.048 37.2944 176.808C36.1444 177.428 35.7344 177.858 35.6944 178.218H39.1844V179.498H34.0644ZM43.0705 179.498V178.078H39.9005V176.908L42.8805 172.398H44.5005V176.838H45.3405V178.078H44.5005V179.498H43.0705ZM41.2405 176.838H43.0705V174.188L41.2405 176.838Z" fill="black"/>
</g>
<path id="field" d="M28.8158 142.556L16.9537 191.347L83.4261 257.596L84.5451 268.115L134.008 351.15L212.587 451.925C232.08 476.924 269.821 477.114 289.565 452.312L371.697 349.135L399.226 277.515L477.272 198.439V155.985L384.459 63.4314H369.778L325.736 19.3887L192.299 19.3887L124.564 46.1341L28.8158 142.556Z" fill="#003278" fill-opacity="0.1" fill="none" stroke="#003278" stroke-width="1.002"/>
</g>
</svg>
