<svg width="500" height="470" viewBox="0 0 500 470" fill="none" xmlns="http://www.w3.org/2000/svg">
<g id="great-american-ballpark-2003">
<g id="Infield">
<path d="M339.98 327.766C339.453 325.666 322.032 258.479 250.83 258.479C180.238 258.479 162.505 324.538 161.697 327.699C161.677 327.776 161.668 327.816 161.668 327.816L236.504 402.653C235.305 404.912 234.623 407.489 234.623 410.238C234.623 419.186 241.873 426.445 250.83 426.445C259.778 426.445 267.037 419.186 267.037 410.238C267.037 407.489 266.356 404.912 265.156 402.657L260.695 397.375C257.96 395.278 254.544 394.026 250.83 394.026C247.117 394.026 243.701 395.278 240.971 397.37L197.7 354.1C201.448 350.353 201.448 344.277 197.7 340.53C197.698 340.527 197.694 340.525 197.691 340.522L244.055 294.038C247.8 297.773 253.861 297.773 257.606 294.038L303.431 339.984C303.431 339.984 303.427 339.985 303.424 339.988C299.677 343.736 300.275 350.3 304.022 354.047L260.695 397.375L265.156 402.657L339.98 327.766Z" fill="#D2D2D2"/>
<path d="M259.91 345.706C259.91 350.721 255.845 354.787 250.83 354.787C245.815 354.787 241.75 350.721 241.75 345.706C241.75 340.691 245.815 336.626 250.83 336.626C255.845 336.626 259.91 340.691 259.91 345.706Z" fill="#D2D2D2"/>
</g>
<g id="Guides">
<g id="Home">
<circle id="Ellipse 1" cx="250.827" cy="410.419" r="16.0848" fill="#D2D2D2"/>
<circle id="Ellipse 1_2" cx="250.827" cy="410.418" r="1.62919" fill="black"/>
</g>
<g id="First">
<circle id="Ellipse 1_3" cx="311.125" cy="346.532" r="10.1878" fill="#D2D2D2"/>
<circle id="Ellipse 1_4" cx="311.125" cy="346.532" r="1.0319" fill="black"/>
</g>
<g id="Third">
<circle id="Ellipse 1_5" cx="190.34" cy="346.532" r="10.1878" fill="#D2D2D2"/>
<circle id="Ellipse 1_6" cx="190.34" cy="346.532" r="1.0319" fill="black"/>
</g>
<g id="Second">
<circle id="Ellipse 1_7" cx="250.827" cy="286.67" r="10.1878" fill="#D2D2D2"/>
<circle id="Ellipse 1_8" cx="250.827" cy="286.671" r="1.0319" fill="black"/>
</g>
<g id="Mound">
<circle id="Ellipse 1_9" cx="250.827" cy="345.929" r="9.08365" fill="#D2D2D2"/>
<circle id="Ellipse 1_10" cx="250.827" cy="345.93" r="0.920062" fill="black"/>
</g>
</g>
<path id="Foul Lines" d="M475.929 185.562L250.976 410.516L24.1295 183.67" fill="none" stroke="black" stroke-width="1.002"/>
<g id="Measurements">
<path id="404" d="M243.649 12.9062V11.4862H240.479V10.3162L243.459 5.80625H245.079V10.2462H245.919V11.4862H245.079V12.9062H243.649ZM241.819 10.2462H243.649V7.59625L241.819 10.2462ZM249.195 13.0663C247.595 13.0663 246.635 11.6562 246.635 9.36625C246.635 7.06625 247.595 5.64625 249.195 5.64625C250.795 5.64625 251.755 7.06625 251.755 9.36625C251.755 11.6562 250.795 13.0663 249.195 13.0663ZM248.095 9.36625C248.095 9.79625 248.125 10.1662 248.185 10.4762L249.875 7.28625C249.695 7.03625 249.465 6.90625 249.195 6.90625C248.505 6.90625 248.095 7.72625 248.095 9.36625ZM249.195 11.8062C249.885 11.8062 250.295 10.9962 250.295 9.36625C250.295 8.93625 250.265 8.55625 250.205 8.23625L248.515 11.4262C248.695 11.6762 248.925 11.8062 249.195 11.8062ZM255.642 12.9062V11.4862H252.472V10.3162L255.452 5.80625H257.072V10.2462H257.912V11.4862H257.072V12.9062H255.642ZM253.812 10.2462H255.642V7.59625L253.812 10.2462Z" fill="black"/>
<path id="370" d="M376.413 66.1209C374.783 66.1209 373.973 65.2909 373.903 64.0009L375.343 63.9309C375.403 64.6209 375.863 64.8609 376.443 64.8609C377.073 64.8609 377.563 64.5609 377.563 63.8609C377.563 63.1809 377.113 62.8209 376.373 62.8209H375.843V61.6909H376.373C376.933 61.6909 377.343 61.4409 377.343 60.8309C377.343 60.2409 376.993 59.9509 376.433 59.9509C375.813 59.9509 375.513 60.2609 375.453 60.7509L374.013 60.6809C374.153 59.4709 374.983 58.7009 376.443 58.7009C377.903 58.7009 378.803 59.4209 378.803 60.6409C378.803 61.4109 378.403 61.9209 377.653 62.1609C378.523 62.4109 379.023 63.0609 379.023 63.9609C379.023 65.3009 378.013 66.1209 376.413 66.1209ZM381.129 65.9609C381.129 63.8109 382.029 61.8509 383.499 60.1409H379.999V58.8609H384.919V60.0709C383.289 61.9309 382.619 63.5209 382.619 65.9609H381.129ZM388.455 66.1209C386.855 66.1209 385.895 64.7109 385.895 62.4209C385.895 60.1209 386.855 58.7009 388.455 58.7009C390.055 58.7009 391.015 60.1209 391.015 62.4209C391.015 64.7109 390.055 66.1209 388.455 66.1209ZM387.355 62.4209C387.355 62.8509 387.385 63.2209 387.445 63.5309L389.135 60.3409C388.955 60.0909 388.725 59.9609 388.455 59.9609C387.765 59.9609 387.355 60.7809 387.355 62.4209ZM388.455 64.8609C389.145 64.8609 389.555 64.0509 389.555 62.4209C389.555 61.9909 389.525 61.6109 389.465 61.2909L387.775 64.4809C387.955 64.7309 388.185 64.8609 388.455 64.8609Z" fill="black"/>
<path id="379" d="M110.733 63.1209C109.103 63.1209 108.293 62.2909 108.223 61.0009L109.663 60.9309C109.723 61.6209 110.183 61.8609 110.763 61.8609C111.393 61.8609 111.883 61.5609 111.883 60.8609C111.883 60.1809 111.433 59.8209 110.693 59.8209H110.163V58.6909H110.693C111.253 58.6909 111.663 58.4409 111.663 57.8309C111.663 57.2409 111.313 56.9509 110.753 56.9509C110.133 56.9509 109.833 57.2609 109.773 57.7509L108.333 57.6809C108.473 56.4709 109.303 55.7009 110.763 55.7009C112.223 55.7009 113.123 56.4209 113.123 57.6409C113.123 58.4109 112.723 58.9209 111.973 59.1609C112.843 59.4109 113.343 60.0609 113.343 60.9609C113.343 62.3009 112.333 63.1209 110.733 63.1209ZM115.449 62.9609C115.449 60.8109 116.349 58.8509 117.819 57.1409H114.319V55.8609H119.239V57.0709C117.609 58.9309 116.939 60.5209 116.939 62.9609H115.449ZM122.755 55.7009C124.485 55.7009 125.395 56.8709 125.395 58.9309C125.395 61.2809 124.585 63.1209 122.495 63.1209C121.095 63.1209 120.445 62.3609 120.185 61.3409L121.625 61.2409C121.725 61.6009 121.955 61.8609 122.495 61.8609C123.235 61.8609 123.755 61.3509 123.915 60.1309C123.575 60.4309 123.095 60.6509 122.465 60.6509C121.055 60.6509 120.155 59.7009 120.155 58.2709C120.155 56.6909 121.185 55.7009 122.755 55.7009ZM122.785 56.9809C122.035 56.9809 121.615 57.4209 121.615 58.2209C121.615 58.9609 121.995 59.4409 122.725 59.4409C123.465 59.4409 123.935 58.9509 123.935 58.2109C123.935 57.5309 123.515 56.9809 122.785 56.9809Z" fill="black"/>
<path id="325" d="M455.938 187.098C454.308 187.098 453.498 186.267 453.428 184.977L454.868 184.907C454.928 185.597 455.388 185.837 455.968 185.837C456.598 185.837 457.088 185.537 457.088 184.837C457.088 184.157 456.638 183.797 455.898 183.797H455.368V182.667H455.898C456.458 182.667 456.868 182.417 456.868 181.807C456.868 181.217 456.518 180.927 455.958 180.927C455.338 180.927 455.038 181.237 454.978 181.727L453.538 181.658C453.678 180.447 454.508 179.677 455.968 179.677C457.428 179.677 458.328 180.397 458.328 181.617C458.328 182.387 457.928 182.897 457.178 183.137C458.048 183.387 458.548 184.037 458.548 184.937C458.548 186.278 457.538 187.098 455.938 187.098ZM459.424 186.938C459.424 185.207 460.004 184.197 461.984 183.177C462.714 182.797 463.074 182.517 463.074 181.867C463.074 181.297 462.744 180.937 462.114 180.937C461.394 180.937 461.044 181.357 460.924 182.117L459.454 182.027C459.594 180.577 460.504 179.677 462.134 179.677C463.724 179.677 464.544 180.527 464.544 181.787C464.544 182.927 464.054 183.487 462.654 184.247C461.504 184.867 461.094 185.297 461.054 185.657H464.544V186.938H459.424ZM467.97 187.098C466.47 187.098 465.56 186.207 465.46 185.037L466.92 184.957C467.01 185.537 467.36 185.837 467.97 185.837C468.63 185.837 469.04 185.417 469.04 184.607C469.04 183.817 468.62 183.357 467.98 183.357C467.54 183.357 467.17 183.617 467.03 183.977L465.56 183.907L465.98 179.837H470.17V181.117H467.15L466.97 182.647C467.3 182.367 467.74 182.207 468.22 182.207C469.63 182.207 470.5 183.227 470.5 184.617C470.5 186.087 469.5 187.098 467.97 187.098Z" fill="black"/>
<path id="328" d="M30.9895 184.271C29.3595 184.271 28.5495 183.441 28.4795 182.151L29.9195 182.081C29.9795 182.771 30.4395 183.011 31.0195 183.011C31.6495 183.011 32.1395 182.711 32.1395 182.011C32.1395 181.331 31.6895 180.971 30.9495 180.971H30.4195V179.841H30.9495C31.5095 179.841 31.9195 179.591 31.9195 178.981C31.9195 178.391 31.5695 178.101 31.0095 178.101C30.3895 178.101 30.0895 178.411 30.0295 178.901L28.5895 178.831C28.7295 177.621 29.5595 176.851 31.0195 176.851C32.4795 176.851 33.3795 177.571 33.3795 178.791C33.3795 179.561 32.9795 180.071 32.2295 180.311C33.0995 180.561 33.5995 181.211 33.5995 182.111C33.5995 183.451 32.5895 184.271 30.9895 184.271ZM34.4756 184.111C34.4756 182.381 35.0556 181.371 37.0356 180.351C37.7656 179.971 38.1256 179.691 38.1256 179.041C38.1256 178.471 37.7956 178.111 37.1656 178.111C36.4456 178.111 36.0956 178.531 35.9756 179.291L34.5056 179.201C34.6456 177.751 35.5556 176.851 37.1856 176.851C38.7756 176.851 39.5956 177.701 39.5956 178.961C39.5956 180.101 39.1056 180.661 37.7056 181.421C36.5556 182.041 36.1456 182.471 36.1056 182.831H39.5956V184.111H34.4756ZM43.0317 184.271C41.4617 184.271 40.4117 183.551 40.4117 182.171C40.4117 181.241 40.9517 180.581 41.8217 180.301C41.1517 180.041 40.7017 179.551 40.7017 178.811C40.7017 177.671 41.6317 176.851 43.0317 176.851C44.4317 176.851 45.3617 177.671 45.3617 178.811C45.3617 179.551 44.9117 180.041 44.2317 180.301C45.1117 180.581 45.6517 181.241 45.6517 182.171C45.6517 183.551 44.6017 184.271 43.0317 184.271ZM43.0317 179.731C43.5417 179.731 43.8917 179.461 43.8917 178.901C43.8917 178.401 43.5517 178.111 43.0317 178.111C42.5117 178.111 42.1717 178.401 42.1717 178.901C42.1717 179.461 42.5217 179.731 43.0317 179.731ZM43.0317 183.011C43.6717 183.011 44.1917 182.731 44.1917 182.031C44.1917 181.361 43.7617 180.941 43.0317 180.941C42.3017 180.941 41.8717 181.361 41.8717 182.031C41.8717 182.731 42.3917 183.011 43.0317 183.011Z" fill="black"/>
</g>
<path id="field" d="M27.3851 164.196L22.2139 198.178L96.1792 270.502L122.944 352.336L182.1 429.182C216.705 474.136 284.59 473.857 318.824 428.62L364.447 368.334L392.443 317.265L421.361 252.967L476.173 198.178V186.357C451.265 122.461 337.251 18.7583 248.953 17.1746C244.894 17.1018 240.892 17.8792 237.038 19.156L140.413 51.1667L27.3851 164.196Z" fill="#C6011F" fill-opacity="0.1" fill="none" stroke="#C6011F" stroke-width="1.002"/>
</g>
</svg>
