<svg width="500" height="470" viewBox="0 0 500 470" fill="none" xmlns="http://www.w3.org/2000/svg">
<g id="griffith-stadium-1954" clip-path="url(#clip0_108_4138)">
<path id="field" d="M290.122 -14.8086L213.474 9.68014L44.6309 93.9494V111.3L-23.1047 145.836L114.035 357.551L143.398 386.581L136.053 393.826L177.7 435.473L182.245 430.928L223.524 472.207H276.944L318.223 430.928L322.768 435.473L364.415 393.826L358.116 387.106L386.614 358.057L443.748 224.653L457.102 231.536L474.036 193.814L399.867 42.0217L383.563 50.8229L351.821 -11.2188L305.388 12.2245L290.122 -14.8086Z" fill="#002B5C" fill-opacity="0.1" fill="none" stroke="#002B5C" stroke-width="1.002"/>
<g id="Infield">
<path d="M339.98 327.766C339.453 325.666 322.032 258.479 250.83 258.479C180.238 258.479 162.505 324.538 161.697 327.699C161.677 327.776 161.668 327.816 161.668 327.816L236.504 402.653C235.305 404.912 234.623 407.489 234.623 410.238C234.623 419.186 241.873 426.445 250.83 426.445C259.778 426.445 267.037 419.186 267.037 410.238C267.037 407.489 266.356 404.912 265.157 402.657L260.695 397.375C257.96 395.278 254.544 394.026 250.83 394.026C247.117 394.026 243.701 395.278 240.971 397.37L197.7 354.1C201.448 350.353 201.448 344.277 197.7 340.53C197.698 340.527 197.694 340.525 197.691 340.522L244.055 294.038C247.8 297.773 253.861 297.773 257.606 294.038L303.431 339.984C303.431 339.984 303.427 339.985 303.424 339.988C299.677 343.736 300.275 350.3 304.022 354.047L260.695 397.375L265.157 402.657L339.98 327.766Z" fill="#D2D2D2"/>
<path d="M259.91 345.706C259.91 350.721 255.845 354.787 250.83 354.787C245.815 354.787 241.75 350.721 241.75 345.706C241.75 340.691 245.815 336.626 250.83 336.626C255.845 336.626 259.91 340.691 259.91 345.706Z" fill="#D2D2D2"/>
</g>
<g id="Guides">
<g id="Home">
<circle id="Ellipse 1" cx="250.827" cy="410.419" r="16.0848" fill="#D2D2D2"/>
<circle id="Ellipse 1_2" cx="250.827" cy="410.418" r="1.62919" fill="black"/>
</g>
<g id="First">
<circle id="Ellipse 1_3" cx="311.125" cy="346.532" r="10.1878" fill="#D2D2D2"/>
<circle id="Ellipse 1_4" cx="311.125" cy="346.532" r="1.0319" fill="black"/>
</g>
<g id="Third">
<circle id="Ellipse 1_5" cx="190.34" cy="346.532" r="10.1878" fill="#D2D2D2"/>
<circle id="Ellipse 1_6" cx="190.34" cy="346.532" r="1.0319" fill="black"/>
</g>
<g id="Second">
<circle id="Ellipse 1_7" cx="250.827" cy="286.67" r="10.1878" fill="#D2D2D2"/>
<circle id="Ellipse 1_8" cx="250.827" cy="286.671" r="1.0319" fill="black"/>
</g>
<g id="Mound">
<circle id="Ellipse 1_9" cx="250.827" cy="345.929" r="9.08365" fill="#D2D2D2"/>
<circle id="Ellipse 1_10" cx="250.827" cy="345.93" r="0.920062" fill="black"/>
</g>
</g>
<path id="Foul Lines" d="M471.849 189.642L250.975 410.516L-16.7596 142.781" fill="none" stroke="black" stroke-width="1.002"/>
<g id="Measurements">
<path id="320" d="M448.991 191.207C447.361 191.207 446.551 190.377 446.481 189.087L447.921 189.017C447.981 189.707 448.441 189.947 449.021 189.947C449.651 189.947 450.141 189.647 450.141 188.947C450.141 188.267 449.691 187.907 448.951 187.907H448.421V186.777H448.951C449.511 186.777 449.921 186.527 449.921 185.917C449.921 185.327 449.571 185.037 449.011 185.037C448.391 185.037 448.091 185.347 448.031 185.837L446.591 185.767C446.731 184.557 447.561 183.787 449.021 183.787C450.481 183.787 451.381 184.507 451.381 185.727C451.381 186.497 450.981 187.007 450.231 187.247C451.101 187.497 451.601 188.147 451.601 189.047C451.601 190.387 450.591 191.207 448.991 191.207ZM452.477 191.047C452.477 189.317 453.057 188.307 455.037 187.287C455.767 186.907 456.127 186.627 456.127 185.977C456.127 185.407 455.797 185.047 455.167 185.047C454.447 185.047 454.097 185.467 453.977 186.227L452.507 186.137C452.647 184.687 453.557 183.787 455.187 183.787C456.777 183.787 457.597 184.637 457.597 185.897C457.597 187.037 457.107 187.597 455.707 188.357C454.557 188.977 454.147 189.407 454.107 189.767H457.597V191.047H452.477ZM461.033 191.207C459.433 191.207 458.473 189.797 458.473 187.507C458.473 185.207 459.433 183.787 461.033 183.787C462.633 183.787 463.593 185.207 463.593 187.507C463.593 189.797 462.633 191.207 461.033 191.207ZM459.933 187.507C459.933 187.937 459.963 188.307 460.023 188.617L461.713 185.427C461.533 185.177 461.303 185.047 461.033 185.047C460.343 185.047 459.933 185.867 459.933 187.507ZM461.033 189.947C461.723 189.947 462.133 189.137 462.133 187.507C462.133 187.077 462.103 186.697 462.043 186.377L460.353 189.567C460.533 189.817 460.763 189.947 461.033 189.947Z" fill="black"/>
<path id="373" d="M429.378 89.5741C427.748 89.5741 426.938 88.7441 426.868 87.4541L428.308 87.3841C428.368 88.0741 428.828 88.3141 429.408 88.3141C430.038 88.3141 430.528 88.0141 430.528 87.3141C430.528 86.6341 430.078 86.2741 429.338 86.2741H428.808V85.1441H429.338C429.898 85.1441 430.308 84.8941 430.308 84.2841C430.308 83.6941 429.958 83.4041 429.398 83.4041C428.778 83.4041 428.478 83.7141 428.418 84.2041L426.978 84.1341C427.118 82.9241 427.948 82.1541 429.408 82.1541C430.868 82.1541 431.768 82.8741 431.768 84.0941C431.768 84.8641 431.368 85.3741 430.618 85.6141C431.488 85.8641 431.988 86.5141 431.988 87.4141C431.988 88.7541 430.978 89.5741 429.378 89.5741ZM434.094 89.4141C434.094 87.2641 434.994 85.3041 436.464 83.5941H432.964V82.3141H437.884V83.5241C436.254 85.3841 435.584 86.9741 435.584 89.4141H434.094ZM441.371 89.5741C439.741 89.5741 438.931 88.7441 438.861 87.4541L440.301 87.3841C440.361 88.0741 440.821 88.3141 441.401 88.3141C442.031 88.3141 442.521 88.0141 442.521 87.3141C442.521 86.6341 442.071 86.2741 441.331 86.2741H440.801V85.1441H441.331C441.891 85.1441 442.301 84.8941 442.301 84.2841C442.301 83.6941 441.951 83.4041 441.391 83.4041C440.771 83.4041 440.471 83.7141 440.411 84.2041L438.971 84.1341C439.111 82.9241 439.941 82.1541 441.401 82.1541C442.861 82.1541 443.761 82.8741 443.761 84.0941C443.761 84.8641 443.361 85.3741 442.611 85.6141C443.481 85.8641 443.981 86.5141 443.981 87.4141C443.981 88.7541 442.971 89.5741 441.371 89.5741Z" fill="black"/>
<path id="388" d="M-3.54384 147.783C-5.17384 147.783 -5.98384 146.953 -6.05384 145.663L-4.61384 145.593C-4.55384 146.283 -4.09384 146.523 -3.51384 146.523C-2.88384 146.523 -2.39384 146.223 -2.39384 145.523C-2.39384 144.843 -2.84384 144.483 -3.58384 144.483H-4.11384V143.353H-3.58384C-3.02384 143.353 -2.61384 143.103 -2.61384 142.493C-2.61384 141.903 -2.96384 141.613 -3.52384 141.613C-4.14384 141.613 -4.44384 141.923 -4.50384 142.413L-5.94384 142.343C-5.80384 141.133 -4.97384 140.363 -3.51384 140.363C-2.05384 140.363 -1.15384 141.083 -1.15384 142.303C-1.15384 143.073 -1.55384 143.583 -2.30384 143.823C-1.43384 144.073 -0.933835 144.723 -0.933835 145.623C-0.933835 146.963 -1.94384 147.783 -3.54384 147.783ZM2.50226 147.783C0.932258 147.783 -0.117742 147.063 -0.117742 145.683C-0.117742 144.753 0.422258 144.093 1.29226 143.813C0.622258 143.553 0.172258 143.063 0.172258 142.323C0.172258 141.183 1.10226 140.363 2.50226 140.363C3.90226 140.363 4.83226 141.183 4.83226 142.323C4.83226 143.063 4.38226 143.553 3.70226 143.813C4.58226 144.093 5.12226 144.753 5.12226 145.683C5.12226 147.063 4.07226 147.783 2.50226 147.783ZM2.50226 143.243C3.01226 143.243 3.36226 142.973 3.36226 142.413C3.36226 141.913 3.02226 141.623 2.50226 141.623C1.98226 141.623 1.64226 141.913 1.64226 142.413C1.64226 142.973 1.99226 143.243 2.50226 143.243ZM2.50226 146.523C3.14226 146.523 3.66226 146.243 3.66226 145.543C3.66226 144.873 3.23226 144.453 2.50226 144.453C1.77226 144.453 1.34226 144.873 1.34226 145.543C1.34226 146.243 1.86226 146.523 2.50226 146.523ZM8.49835 147.783C6.92835 147.783 5.87835 147.063 5.87835 145.683C5.87835 144.753 6.41835 144.093 7.28835 143.813C6.61835 143.553 6.16835 143.063 6.16835 142.323C6.16835 141.183 7.09835 140.363 8.49835 140.363C9.89835 140.363 10.8284 141.183 10.8284 142.323C10.8284 143.063 10.3784 143.553 9.69835 143.813C10.5784 144.093 11.1184 144.753 11.1184 145.683C11.1184 147.063 10.0684 147.783 8.49835 147.783ZM8.49835 143.243C9.00835 143.243 9.35835 142.973 9.35835 142.413C9.35835 141.913 9.01835 141.623 8.49835 141.623C7.97835 141.623 7.63835 141.913 7.63835 142.413C7.63835 142.973 7.98835 143.243 8.49835 143.243ZM8.49835 146.523C9.13835 146.523 9.65835 146.243 9.65835 145.543C9.65835 144.873 9.22835 144.453 8.49835 144.453C7.76835 144.453 7.33835 144.873 7.33835 145.543C7.33835 146.243 7.85835 146.523 8.49835 146.523Z" fill="black"/>
</g>
<path id="391" d="M124.92 43.3143C123.29 43.3143 122.48 42.4843 122.41 41.1943L123.85 41.1243C123.91 41.8143 124.37 42.0543 124.95 42.0543C125.58 42.0543 126.07 41.7543 126.07 41.0543C126.07 40.3743 125.62 40.0143 124.88 40.0143H124.35V38.8843H124.88C125.44 38.8843 125.85 38.6343 125.85 38.0243C125.85 37.4343 125.5 37.1443 124.94 37.1443C124.32 37.1443 124.02 37.4543 123.96 37.9443L122.52 37.8743C122.66 36.6643 123.49 35.8943 124.95 35.8943C126.41 35.8943 127.31 36.6143 127.31 37.8343C127.31 38.6043 126.91 39.1143 126.16 39.3543C127.03 39.6043 127.53 40.2543 127.53 41.1543C127.53 42.4943 126.52 43.3143 124.92 43.3143ZM130.946 35.8943C132.676 35.8943 133.586 37.0643 133.586 39.1243C133.586 41.4743 132.776 43.3143 130.686 43.3143C129.286 43.3143 128.636 42.5543 128.376 41.5343L129.816 41.4343C129.916 41.7943 130.146 42.0543 130.686 42.0543C131.426 42.0543 131.946 41.5443 132.106 40.3243C131.766 40.6243 131.286 40.8443 130.656 40.8443C129.246 40.8443 128.346 39.8943 128.346 38.4643C128.346 36.8843 129.376 35.8943 130.946 35.8943ZM130.976 37.1743C130.226 37.1743 129.806 37.6143 129.806 38.4143C129.806 39.1543 130.186 39.6343 130.916 39.6343C131.656 39.6343 132.126 39.1443 132.126 38.4043C132.126 37.7243 131.706 37.1743 130.976 37.1743ZM134.442 43.1543V41.8743H136.482V38.4943H134.742V37.3143H135.522C136.322 37.3143 136.662 36.9743 136.662 36.0543H137.902V41.8743H139.482V43.1543H134.442Z" fill="black"/>
</g>
<defs>
<clipPath id="clip0_108_4138">
<rect width="500" height="469.94" fill="white"/>
</clipPath>
</defs>
</svg>
