<svg width="500" height="470" viewBox="0 0 500 470" fill="none" xmlns="http://www.w3.org/2000/svg">
<g id="griffith-stadium-1911" clip-path="url(#clip0_106_4084)">
<g id="Infield">
<path d="M339.98 327.766C339.453 325.666 322.032 258.479 250.83 258.479C180.238 258.479 162.505 324.538 161.697 327.699C161.677 327.776 161.668 327.816 161.668 327.816L236.504 402.653C235.305 404.912 234.623 407.489 234.623 410.238C234.623 419.186 241.873 426.445 250.83 426.445C259.778 426.445 267.037 419.186 267.037 410.238C267.037 407.489 266.356 404.912 265.156 402.657L260.695 397.375C257.96 395.278 254.544 394.026 250.83 394.026C247.117 394.026 243.701 395.278 240.971 397.37L197.7 354.1C201.448 350.353 201.448 344.277 197.7 340.53C197.698 340.527 197.694 340.525 197.691 340.522L244.055 294.038C247.8 297.773 253.861 297.773 257.606 294.038L303.431 339.984C303.431 339.984 303.427 339.985 303.424 339.988C299.677 343.736 300.275 350.3 304.022 354.047L260.695 397.375L265.156 402.657L339.98 327.766Z" fill="#D2D2D2"/>
<path d="M259.91 345.706C259.91 350.721 255.845 354.787 250.83 354.787C245.815 354.787 241.75 350.721 241.75 345.706C241.75 340.691 245.815 336.626 250.83 336.626C255.845 336.626 259.91 340.691 259.91 345.706Z" fill="#D2D2D2"/>
</g>
<g id="Guides">
<g id="Home">
<circle id="Ellipse 1" cx="250.827" cy="410.419" r="16.0848" fill="#D2D2D2"/>
<circle id="Ellipse 1_2" cx="250.827" cy="410.418" r="1.62919" fill="black"/>
</g>
<g id="First">
<circle id="Ellipse 1_3" cx="311.125" cy="346.532" r="10.1878" fill="#D2D2D2"/>
<circle id="Ellipse 1_4" cx="311.125" cy="346.532" r="1.0319" fill="black"/>
</g>
<g id="Third">
<circle id="Ellipse 1_5" cx="190.34" cy="346.532" r="10.1878" fill="#D2D2D2"/>
<circle id="Ellipse 1_6" cx="190.34" cy="346.532" r="1.0319" fill="black"/>
</g>
<g id="Second">
<circle id="Ellipse 1_7" cx="250.827" cy="286.67" r="10.1878" fill="#D2D2D2"/>
<circle id="Ellipse 1_8" cx="250.827" cy="286.671" r="1.0319" fill="black"/>
</g>
<g id="Mound">
<circle id="Ellipse 1_9" cx="250.827" cy="345.929" r="9.08365" fill="#D2D2D2"/>
<circle id="Ellipse 1_10" cx="250.827" cy="345.93" r="0.920062" fill="black"/>
</g>
</g>
<path id="Foul Lines" d="M444.417 217.075L250.975 410.517L-28.8394 130.701" fill="none" stroke="black" stroke-width="1.002"/>
<g id="Measurements">
<path id="280" d="M417.36 218.625C417.36 216.895 417.94 215.885 419.92 214.865C420.65 214.485 421.01 214.205 421.01 213.555C421.01 212.985 420.68 212.625 420.05 212.625C419.33 212.625 418.98 213.045 418.86 213.805L417.39 213.715C417.53 212.265 418.44 211.365 420.07 211.365C421.66 211.365 422.48 212.215 422.48 213.475C422.48 214.615 421.99 215.175 420.59 215.935C419.44 216.555 419.03 216.985 418.99 217.345H422.48V218.625H417.36ZM425.916 218.785C424.346 218.785 423.296 218.065 423.296 216.685C423.296 215.755 423.836 215.095 424.706 214.815C424.036 214.555 423.586 214.065 423.586 213.325C423.586 212.185 424.516 211.365 425.916 211.365C427.316 211.365 428.246 212.185 428.246 213.325C428.246 214.065 427.796 214.555 427.116 214.815C427.996 215.095 428.536 215.755 428.536 216.685C428.536 218.065 427.486 218.785 425.916 218.785ZM425.916 214.245C426.426 214.245 426.776 213.975 426.776 213.415C426.776 212.915 426.436 212.625 425.916 212.625C425.396 212.625 425.056 212.915 425.056 213.415C425.056 213.975 425.406 214.245 425.916 214.245ZM425.916 217.525C426.556 217.525 427.076 217.245 427.076 216.545C427.076 215.875 426.646 215.455 425.916 215.455C425.186 215.455 424.756 215.875 424.756 216.545C424.756 217.245 425.276 217.525 425.916 217.525ZM431.912 218.785C430.312 218.785 429.352 217.375 429.352 215.085C429.352 212.785 430.312 211.365 431.912 211.365C433.512 211.365 434.472 212.785 434.472 215.085C434.472 217.375 433.512 218.785 431.912 218.785ZM430.812 215.085C430.812 215.515 430.842 215.885 430.902 216.195L432.592 213.005C432.412 212.755 432.182 212.625 431.912 212.625C431.222 212.625 430.812 213.445 430.812 215.085ZM431.912 217.525C432.602 217.525 433.012 216.715 433.012 215.085C433.012 214.655 432.982 214.275 432.922 213.955L431.232 217.145C431.412 217.395 431.642 217.525 431.912 217.525Z" fill="black"/>
<path id="407" d="M-11.7781 137.176V135.756H-14.9481V134.586L-11.9681 130.076H-10.3481V134.516H-9.50815V135.756H-10.3481V137.176H-11.7781ZM-13.6081 134.516H-11.7781V131.866L-13.6081 134.516ZM-6.23206 137.336C-7.83206 137.336 -8.79206 135.926 -8.79206 133.636C-8.79206 131.336 -7.83206 129.916 -6.23206 129.916C-4.63206 129.916 -3.67206 131.336 -3.67206 133.636C-3.67206 135.926 -4.63206 137.336 -6.23206 137.336ZM-7.33206 133.636C-7.33206 134.066 -7.30206 134.436 -7.24206 134.746L-5.55206 131.556C-5.73206 131.306 -5.96206 131.176 -6.23206 131.176C-6.92206 131.176 -7.33206 131.996 -7.33206 133.636ZM-6.23206 136.076C-5.54206 136.076 -5.13206 135.266 -5.13206 133.636C-5.13206 133.206 -5.16206 132.826 -5.22206 132.506L-6.91206 135.696C-6.73206 135.946 -6.50206 136.076 -6.23206 136.076ZM-1.56596 137.176C-1.56596 135.026 -0.665962 133.066 0.804038 131.356H-2.69596V130.076H2.22404V131.286C0.594038 133.146 -0.0759618 134.736 -0.0759618 137.176H-1.56596Z" fill="black"/>
</g>
<path id="field" d="M-57.471 174.323L-33.9621 160.75L24.6873 249.75L33.8775 243.624L113.843 363.585L140.961 390.702L137.836 393.826L221.428 477.418V486.217H280.823V477.418L364.415 393.826L361.291 390.702L388.408 363.585L449.143 226.266L336.556 -2.40544L305.388 12.2245L290.122 -14.8086L213.474 9.68014L-70.5292 151.706L-57.471 174.323Z" fill="#002B5C" fill-opacity="0.1" fill="none" stroke="#002B5C" stroke-width="1.002"/>
</g>
<defs>
<clipPath id="clip0_106_4084">
<rect width="500" height="469.94" fill="white"/>
</clipPath>
</defs>
</svg>
