<svg width="500" height="470" viewBox="0 0 500 470" fill="none" xmlns="http://www.w3.org/2000/svg">
<g id="griffith-stadium-1921" clip-path="url(#clip0_108_4111)">
<path id="field" d="M-57.471 164.323L-33.9621 150.75L24.6873 239.75L33.8775 233.624L113.843 353.585L140.961 380.702L137.836 383.826L221.428 467.418V476.217H280.823V467.418L364.415 383.826L361.291 380.702L388.408 353.585L449.143 216.266L458.727 221.635L474.283 183.343L423.853 81.1149L305.388 2.22447L290.122 -24.8086L213.474 -0.319864L-70.5292 141.706L-57.471 164.323Z" fill="#002B5C" fill-opacity="0.1" fill="none" stroke="#002B5C" stroke-width="1.002"/>
<g id="Infield">
<path d="M339.98 327.766C339.453 325.666 322.032 258.479 250.83 258.479C180.238 258.479 162.505 324.538 161.697 327.699C161.677 327.776 161.668 327.816 161.668 327.816L236.504 402.653C235.305 404.912 234.623 407.489 234.623 410.238C234.623 419.186 241.873 426.445 250.83 426.445C259.778 426.445 267.037 419.186 267.037 410.238C267.037 407.489 266.356 404.912 265.156 402.657L260.695 397.375C257.96 395.278 254.544 394.026 250.83 394.026C247.117 394.026 243.701 395.278 240.971 397.37L197.7 354.1C201.448 350.353 201.448 344.277 197.7 340.53C197.698 340.527 197.694 340.525 197.691 340.522L244.055 294.038C247.8 297.773 253.861 297.773 257.606 294.038L303.431 339.984C303.431 339.984 303.427 339.985 303.424 339.988C299.677 343.736 300.275 350.3 304.022 354.047L260.695 397.375L265.156 402.657L339.98 327.766Z" fill="#D2D2D2"/>
<path d="M259.91 345.706C259.91 350.721 255.845 354.787 250.83 354.787C245.815 354.787 241.75 350.721 241.75 345.706C241.75 340.691 245.815 336.626 250.83 336.626C255.845 336.626 259.91 340.691 259.91 345.706Z" fill="#D2D2D2"/>
</g>
<g id="Guides">
<g id="Home">
<circle id="Ellipse 1" cx="250.827" cy="410.419" r="16.0848" fill="#D2D2D2"/>
<circle id="Ellipse 1_2" cx="250.827" cy="410.418" r="1.62919" fill="black"/>
</g>
<g id="First">
<circle id="Ellipse 1_3" cx="311.125" cy="346.532" r="10.1878" fill="#D2D2D2"/>
<circle id="Ellipse 1_4" cx="311.125" cy="346.532" r="1.0319" fill="black"/>
</g>
<g id="Third">
<circle id="Ellipse 1_5" cx="190.34" cy="346.532" r="10.1878" fill="#D2D2D2"/>
<circle id="Ellipse 1_6" cx="190.34" cy="346.532" r="1.0319" fill="black"/>
</g>
<g id="Second">
<circle id="Ellipse 1_7" cx="250.827" cy="286.67" r="10.1878" fill="#D2D2D2"/>
<circle id="Ellipse 1_8" cx="250.827" cy="286.671" r="1.0319" fill="black"/>
</g>
<g id="Mound">
<circle id="Ellipse 1_9" cx="250.827" cy="345.929" r="9.08365" fill="#D2D2D2"/>
<circle id="Ellipse 1_10" cx="250.827" cy="345.93" r="0.920062" fill="black"/>
</g>
</g>
<path id="Foul Lines" d="M472.16 189.332L250.976 410.517L-35.4992 124.043" fill="none" stroke="black" stroke-width="1.002"/>
<g id="Measurements">
<path id="326" d="M453.414 190.133C451.784 190.133 450.974 189.303 450.904 188.013L452.344 187.943C452.404 188.633 452.864 188.873 453.444 188.873C454.074 188.873 454.564 188.573 454.564 187.873C454.564 187.193 454.114 186.833 453.374 186.833H452.844V185.703H453.374C453.934 185.703 454.344 185.453 454.344 184.843C454.344 184.253 453.994 183.963 453.434 183.963C452.814 183.963 452.514 184.273 452.454 184.763L451.014 184.693C451.154 183.483 451.984 182.713 453.444 182.713C454.904 182.713 455.804 183.433 455.804 184.653C455.804 185.423 455.404 185.933 454.654 186.173C455.524 186.423 456.024 187.073 456.024 187.973C456.024 189.313 455.014 190.133 453.414 190.133ZM456.9 189.973C456.9 188.243 457.48 187.233 459.46 186.213C460.19 185.833 460.55 185.553 460.55 184.903C460.55 184.333 460.22 183.973 459.59 183.973C458.87 183.973 458.52 184.393 458.4 185.153L456.93 185.063C457.07 183.613 457.98 182.713 459.61 182.713C461.2 182.713 462.02 183.563 462.02 184.823C462.02 185.963 461.53 186.523 460.13 187.283C458.98 187.903 458.57 188.333 458.53 188.693H462.02V189.973H456.9ZM465.476 190.133C463.746 190.133 462.836 188.963 462.836 186.903C462.836 184.553 463.646 182.713 465.736 182.713C467.136 182.713 467.786 183.473 468.046 184.493L466.606 184.593C466.506 184.233 466.276 183.973 465.736 183.973C464.996 183.973 464.476 184.483 464.316 185.703C464.656 185.403 465.136 185.183 465.766 185.183C467.176 185.183 468.076 186.133 468.076 187.563C468.076 189.143 467.046 190.133 465.476 190.133ZM465.446 188.853C466.196 188.853 466.616 188.413 466.616 187.613C466.616 186.873 466.236 186.393 465.506 186.393C464.766 186.393 464.296 186.883 464.296 187.623C464.296 188.303 464.716 188.853 465.446 188.853Z" fill="black"/>
</g>
</g>
<defs>
<clipPath id="clip0_108_4111">
<rect width="500" height="469.94" fill="white"/>
</clipPath>
</defs>
</svg>
