<svg width="500" height="470" viewBox="0 0 500 470" fill="none" xmlns="http://www.w3.org/2000/svg">
<g id="griffith-stadium-1957" clip-path="url(#clip0_108_4165)">
<g id="Infield">
<path d="M339.98 327.766C339.453 325.666 322.032 258.479 250.83 258.479C180.238 258.479 162.505 324.538 161.697 327.699C161.677 327.776 161.668 327.816 161.668 327.816L236.504 402.653C235.305 404.912 234.623 407.489 234.623 410.238C234.623 419.186 241.873 426.445 250.83 426.445C259.778 426.445 267.037 419.186 267.037 410.238C267.037 407.489 266.356 404.912 265.157 402.657L260.695 397.375C257.96 395.278 254.544 394.026 250.83 394.026C247.117 394.026 243.701 395.278 240.971 397.37L197.7 354.1C201.448 350.353 201.448 344.277 197.7 340.53C197.698 340.527 197.694 340.525 197.691 340.522L244.055 294.038C247.8 297.773 253.861 297.773 257.606 294.038L303.431 339.984C303.431 339.984 303.427 339.985 303.424 339.988C299.677 343.736 300.275 350.3 304.022 354.047L260.695 397.375L265.157 402.657L339.98 327.766Z" fill="#D2D2D2"/>
<path d="M259.91 345.706C259.91 350.721 255.845 354.787 250.83 354.787C245.815 354.787 241.75 350.721 241.75 345.706C241.75 340.691 245.815 336.626 250.83 336.626C255.845 336.626 259.91 340.691 259.91 345.706Z" fill="#D2D2D2"/>
</g>
<g id="Guides">
<g id="Home">
<circle id="Ellipse 1" cx="250.827" cy="410.419" r="16.0848" fill="#D2D2D2"/>
<circle id="Ellipse 1_2" cx="250.827" cy="410.418" r="1.62919" fill="black"/>
</g>
<g id="First">
<circle id="Ellipse 1_3" cx="311.125" cy="346.532" r="10.1878" fill="#D2D2D2"/>
<circle id="Ellipse 1_4" cx="311.125" cy="346.532" r="1.0319" fill="black"/>
</g>
<g id="Third">
<circle id="Ellipse 1_5" cx="190.34" cy="346.532" r="10.1878" fill="#D2D2D2"/>
<circle id="Ellipse 1_6" cx="190.34" cy="346.532" r="1.0319" fill="black"/>
</g>
<g id="Second">
<circle id="Ellipse 1_7" cx="250.827" cy="286.67" r="10.1878" fill="#D2D2D2"/>
<circle id="Ellipse 1_8" cx="250.827" cy="286.671" r="1.0319" fill="black"/>
</g>
<g id="Mound">
<circle id="Ellipse 1_9" cx="250.827" cy="345.929" r="9.08365" fill="#D2D2D2"/>
<circle id="Ellipse 1_10" cx="250.827" cy="345.93" r="0.920062" fill="black"/>
</g>
</g>
<path id="Foul Lines" d="M471.849 189.643L250.975 410.516L8.84216 168.383" fill="none" stroke="black" stroke-width="1.002"/>
<g id="Measurements">
<path id="405" d="M235.095 13.6699V12.2499H231.925V11.0799L234.905 6.56992H236.525V11.0099H237.365V12.2499H236.525V13.6699H235.095ZM233.265 11.0099H235.095V8.35992L233.265 11.0099ZM240.641 13.8299C239.041 13.8299 238.081 12.4199 238.081 10.1299C238.081 7.82992 239.041 6.40992 240.641 6.40992C242.241 6.40992 243.201 7.82992 243.201 10.1299C243.201 12.4199 242.241 13.8299 240.641 13.8299ZM239.541 10.1299C239.541 10.5599 239.571 10.9299 239.631 11.2399L241.321 8.04992C241.141 7.79992 240.911 7.66992 240.641 7.66992C239.951 7.66992 239.541 8.48992 239.541 10.1299ZM240.641 12.5699C241.331 12.5699 241.741 11.7599 241.741 10.1299C241.741 9.69992 241.711 9.31992 241.651 8.99992L239.961 12.1899C240.141 12.4399 240.371 12.5699 240.641 12.5699ZM246.627 13.8299C245.127 13.8299 244.217 12.9399 244.117 11.7699L245.577 11.6899C245.667 12.2699 246.017 12.5699 246.627 12.5699C247.287 12.5699 247.697 12.1499 247.697 11.3399C247.697 10.5499 247.277 10.0899 246.637 10.0899C246.197 10.0899 245.827 10.3499 245.687 10.7099L244.217 10.6399L244.637 6.56992H248.827V7.84992H245.807L245.627 9.37992C245.957 9.09992 246.397 8.93992 246.877 8.93992C248.287 8.93992 249.157 9.95992 249.157 11.3499C249.157 12.8199 248.157 13.8299 246.627 13.8299Z" fill="black"/>
<path id="320" d="M448.991 191.207C447.361 191.207 446.551 190.377 446.481 189.087L447.921 189.017C447.981 189.707 448.441 189.947 449.021 189.947C449.651 189.947 450.141 189.647 450.141 188.947C450.141 188.267 449.691 187.907 448.951 187.907H448.421V186.777H448.951C449.511 186.777 449.921 186.527 449.921 185.917C449.921 185.327 449.571 185.037 449.011 185.037C448.391 185.037 448.091 185.347 448.031 185.837L446.591 185.767C446.731 184.557 447.561 183.787 449.021 183.787C450.481 183.787 451.381 184.507 451.381 185.727C451.381 186.497 450.981 187.007 450.231 187.247C451.101 187.497 451.601 188.147 451.601 189.047C451.601 190.387 450.591 191.207 448.991 191.207ZM452.477 191.047C452.477 189.317 453.057 188.307 455.037 187.287C455.767 186.907 456.127 186.627 456.127 185.977C456.127 185.407 455.797 185.047 455.167 185.047C454.447 185.047 454.097 185.467 453.977 186.227L452.507 186.137C452.647 184.687 453.557 183.787 455.187 183.787C456.777 183.787 457.597 184.637 457.597 185.897C457.597 187.037 457.107 187.597 455.707 188.357C454.557 188.977 454.147 189.407 454.107 189.767H457.597V191.047H452.477ZM461.033 191.207C459.433 191.207 458.473 189.797 458.473 187.507C458.473 185.207 459.433 183.787 461.033 183.787C462.633 183.787 463.593 185.207 463.593 187.507C463.593 189.797 462.633 191.207 461.033 191.207ZM459.933 187.507C459.933 187.937 459.963 188.307 460.023 188.617L461.713 185.427C461.533 185.177 461.303 185.047 461.033 185.047C460.343 185.047 459.933 185.867 459.933 187.507ZM461.033 189.947C461.723 189.947 462.133 189.137 462.133 187.507C462.133 187.077 462.103 186.697 462.043 186.377L460.353 189.567C460.533 189.817 460.763 189.947 461.033 189.947Z" fill="black"/>
<path id="373" d="M429.378 89.5741C427.748 89.5741 426.938 88.7441 426.868 87.4541L428.308 87.3841C428.368 88.0741 428.828 88.3141 429.408 88.3141C430.038 88.3141 430.528 88.0141 430.528 87.3141C430.528 86.6341 430.078 86.2741 429.338 86.2741H428.808V85.1441H429.338C429.898 85.1441 430.308 84.8941 430.308 84.2841C430.308 83.6941 429.958 83.4041 429.398 83.4041C428.778 83.4041 428.478 83.7141 428.418 84.2041L426.978 84.1341C427.118 82.9241 427.948 82.1541 429.408 82.1541C430.868 82.1541 431.768 82.8741 431.768 84.0941C431.768 84.8641 431.368 85.3741 430.618 85.6141C431.488 85.8641 431.988 86.5141 431.988 87.4141C431.988 88.7541 430.978 89.5741 429.378 89.5741ZM434.095 89.4141C434.095 87.2641 434.995 85.3041 436.465 83.5941H432.965V82.3141H437.885V83.5241C436.255 85.3841 435.585 86.9741 435.585 89.4141H434.095ZM441.371 89.5741C439.741 89.5741 438.931 88.7441 438.861 87.4541L440.301 87.3841C440.361 88.0741 440.821 88.3141 441.401 88.3141C442.031 88.3141 442.521 88.0141 442.521 87.3141C442.521 86.6341 442.071 86.2741 441.331 86.2741H440.801V85.1441H441.331C441.891 85.1441 442.301 84.8941 442.301 84.2841C442.301 83.6941 441.951 83.4041 441.391 83.4041C440.771 83.4041 440.471 83.7141 440.411 84.2041L438.971 84.1341C439.111 82.9241 439.941 82.1541 441.401 82.1541C442.861 82.1541 443.761 82.8741 443.761 84.0941C443.761 84.8641 443.361 85.3741 442.611 85.6141C443.481 85.8641 443.981 86.5141 443.981 87.4141C443.981 88.7541 442.971 89.5741 441.371 89.5741Z" fill="black"/>
<path id="350" d="M20.3716 171.652C18.7416 171.652 17.9316 170.822 17.8616 169.532L19.3016 169.462C19.3616 170.152 19.8216 170.392 20.4016 170.392C21.0316 170.392 21.5216 170.092 21.5216 169.392C21.5216 168.712 21.0716 168.352 20.3316 168.352H19.8016V167.222H20.3316C20.8916 167.222 21.3016 166.972 21.3016 166.362C21.3016 165.772 20.9516 165.482 20.3916 165.482C19.7716 165.482 19.4716 165.792 19.4116 166.282L17.9716 166.212C18.1116 165.002 18.9416 164.232 20.4016 164.232C21.8616 164.232 22.7616 164.952 22.7616 166.172C22.7616 166.942 22.3616 167.452 21.6116 167.692C22.4816 167.942 22.9816 168.592 22.9816 169.492C22.9816 170.832 21.9716 171.652 20.3716 171.652ZM26.4077 171.652C24.9077 171.652 23.9977 170.762 23.8977 169.592L25.3577 169.512C25.4477 170.092 25.7977 170.392 26.4077 170.392C27.0677 170.392 27.4777 169.972 27.4777 169.162C27.4777 168.372 27.0577 167.912 26.4177 167.912C25.9777 167.912 25.6077 168.172 25.4677 168.532L23.9977 168.462L24.4177 164.392H28.6077V165.672H25.5877L25.4077 167.202C25.7377 166.922 26.1777 166.762 26.6577 166.762C28.0677 166.762 28.9377 167.782 28.9377 169.172C28.9377 170.642 27.9377 171.652 26.4077 171.652ZM32.4138 171.652C30.8138 171.652 29.8538 170.242 29.8538 167.952C29.8538 165.652 30.8138 164.232 32.4138 164.232C34.0138 164.232 34.9738 165.652 34.9738 167.952C34.9738 170.242 34.0138 171.652 32.4138 171.652ZM31.3138 167.952C31.3138 168.382 31.3438 168.752 31.4038 169.062L33.0938 165.872C32.9138 165.622 32.6838 165.492 32.4138 165.492C31.7238 165.492 31.3138 166.312 31.3138 167.952ZM32.4138 170.392C33.1038 170.392 33.5138 169.582 33.5138 167.952C33.5138 167.522 33.4838 167.142 33.4238 166.822L31.7338 170.012C31.9138 170.262 32.1438 170.392 32.4138 170.392Z" fill="black"/>
</g>
<path id="380" d="M134.297 56.9549C132.667 56.9549 131.857 56.1249 131.787 54.8349L133.227 54.7649C133.287 55.4549 133.747 55.6949 134.327 55.6949C134.957 55.6949 135.447 55.3949 135.447 54.6949C135.447 54.0149 134.997 53.6549 134.257 53.6549H133.727V52.5249H134.257C134.817 52.5249 135.227 52.2749 135.227 51.6649C135.227 51.0749 134.877 50.7849 134.317 50.7849C133.697 50.7849 133.397 51.0949 133.337 51.5849L131.897 51.5149C132.037 50.3049 132.867 49.5349 134.327 49.5349C135.787 49.5349 136.687 50.2549 136.687 51.4749C136.687 52.2449 136.287 52.7549 135.537 52.9949C136.407 53.2449 136.907 53.8949 136.907 54.7949C136.907 56.1349 135.897 56.9549 134.297 56.9549ZM140.343 56.9549C138.773 56.9549 137.723 56.2349 137.723 54.8549C137.723 53.9249 138.263 53.2649 139.133 52.9849C138.463 52.7249 138.013 52.2349 138.013 51.4949C138.013 50.3549 138.943 49.5349 140.343 49.5349C141.743 49.5349 142.673 50.3549 142.673 51.4949C142.673 52.2349 142.223 52.7249 141.543 52.9849C142.423 53.2649 142.963 53.9249 142.963 54.8549C142.963 56.2349 141.913 56.9549 140.343 56.9549ZM140.343 52.4149C140.853 52.4149 141.203 52.1449 141.203 51.5849C141.203 51.0849 140.863 50.7949 140.343 50.7949C139.823 50.7949 139.483 51.0849 139.483 51.5849C139.483 52.1449 139.833 52.4149 140.343 52.4149ZM140.343 55.6949C140.983 55.6949 141.503 55.4149 141.503 54.7149C141.503 54.0449 141.073 53.6249 140.343 53.6249C139.613 53.6249 139.183 54.0449 139.183 54.7149C139.183 55.4149 139.703 55.6949 140.343 55.6949ZM146.339 56.9549C144.739 56.9549 143.779 55.5449 143.779 53.2549C143.779 50.9549 144.739 49.5349 146.339 49.5349C147.939 49.5349 148.899 50.9549 148.899 53.2549C148.899 55.5449 147.939 56.9549 146.339 56.9549ZM145.239 53.2549C145.239 53.6849 145.269 54.0549 145.329 54.3649L147.019 51.1749C146.839 50.9249 146.609 50.7949 146.339 50.7949C145.649 50.7949 145.239 51.6149 145.239 53.2549ZM146.339 55.6949C147.029 55.6949 147.439 54.8849 147.439 53.2549C147.439 52.8249 147.409 52.4449 147.349 52.1249L145.659 55.3149C145.839 55.5649 146.069 55.6949 146.339 55.6949Z" fill="black"/>
<path id="field" d="M298.734 0.107018L218.022 26.6541L81.1605 96.1997L-2.02118 179.381L114.035 357.551L143.398 386.581L136.053 393.826L177.7 435.473L182.245 430.928L223.524 472.207H276.944L318.223 430.928L322.768 435.473L364.415 393.826L358.116 387.106L386.614 358.057L443.748 224.653L457.102 231.536L474.036 193.814L399.867 42.0217L383.563 50.823L351.821 -11.2188L305.388 12.2246L298.734 0.107018Z" fill="#002B5C" fill-opacity="0.1" fill="none" stroke="#002B5C" stroke-width="1.002"/>
</g>
<defs>
<clipPath id="clip0_108_4165">
<rect width="500" height="469.94" fill="white"/>
</clipPath>
</defs>
</svg>
