<svg width="500" height="470" viewBox="0 0 500 470" fill="none" xmlns="http://www.w3.org/2000/svg">
<g id="hard-rock-stadium-1993" clip-path="url(#clip0_115_5545)">
<g id="Infield">
<path d="M339.98 327.764C339.453 325.664 322.032 258.477 250.83 258.477C180.238 258.477 162.505 324.536 161.697 327.697C161.677 327.775 161.668 327.814 161.668 327.814L236.504 402.651C235.305 404.91 234.623 407.487 234.623 410.236C234.623 419.184 241.873 426.443 250.83 426.443C259.778 426.443 267.037 419.184 267.037 410.236C267.037 407.487 266.356 404.91 265.156 402.655L260.695 397.373C257.96 395.276 254.544 394.024 250.83 394.024C247.117 394.024 243.701 395.276 240.971 397.368L197.7 354.098C201.448 350.351 201.448 344.275 197.7 340.528C197.698 340.525 197.694 340.523 197.691 340.52L244.055 294.036C247.8 297.772 253.861 297.772 257.606 294.036L303.431 339.982C303.431 339.982 303.427 339.983 303.424 339.986C299.677 343.734 300.275 350.298 304.022 354.045L260.695 397.373L265.156 402.655L339.98 327.764Z" fill="#D2D2D2"/>
<path d="M259.91 345.704C259.91 350.719 255.845 354.785 250.83 354.785C245.815 354.785 241.75 350.719 241.75 345.704C241.75 340.689 245.815 336.624 250.83 336.624C255.845 336.624 259.91 340.689 259.91 345.704Z" fill="#D2D2D2"/>
</g>
<g id="Guides">
<g id="Home">
<circle id="Ellipse 1" cx="250.827" cy="410.421" r="16.0848" fill="#D2D2D2"/>
<circle id="Ellipse 1_2" cx="250.827" cy="410.422" r="1.62919" fill="black"/>
</g>
<g id="First">
<circle id="Ellipse 1_3" cx="311.125" cy="346.535" r="10.1878" fill="#D2D2D2"/>
<circle id="Ellipse 1_4" cx="311.125" cy="346.536" r="1.0319" fill="black"/>
</g>
<g id="Third">
<circle id="Ellipse 1_5" cx="190.34" cy="346.535" r="10.1878" fill="#D2D2D2"/>
<circle id="Ellipse 1_6" cx="190.34" cy="346.536" r="1.0319" fill="black"/>
</g>
<g id="Second">
<circle id="Ellipse 1_7" cx="250.827" cy="286.672" r="10.1878" fill="#D2D2D2"/>
<circle id="Ellipse 1_8" cx="250.827" cy="286.673" r="1.0319" fill="black"/>
</g>
<g id="Mound">
<circle id="Ellipse 1_9" cx="250.827" cy="345.931" r="9.08365" fill="#D2D2D2"/>
<circle id="Ellipse 1_10" cx="250.827" cy="345.932" r="0.920062" fill="black"/>
</g>
</g>
<path id="Foul Lines" d="M487.009 174.484L250.976 410.518L29.2108 188.754" fill="none" stroke="black" stroke-width="1.002"/>
<g id="Measurements">
<path id="434" d="M201.046 5.33203V3.91203H197.876V2.74203L200.856 -1.76797H202.476V2.67203H203.316V3.91203H202.476V5.33203H201.046ZM199.216 2.67203H201.046V0.0220311L199.216 2.67203ZM206.542 5.49203C204.912 5.49203 204.102 4.66203 204.032 3.37203L205.472 3.30203C205.532 3.99203 205.992 4.23203 206.572 4.23203C207.202 4.23203 207.692 3.93203 207.692 3.23203C207.692 2.55203 207.242 2.19203 206.502 2.19203H205.972V1.06203H206.502C207.062 1.06203 207.472 0.812031 207.472 0.202031C207.472 -0.387969 207.122 -0.677969 206.562 -0.677969C205.942 -0.677969 205.642 -0.367969 205.582 0.122031L204.142 0.0520313C204.282 -1.15797 205.112 -1.92797 206.572 -1.92797C208.032 -1.92797 208.932 -1.20797 208.932 0.0120312C208.932 0.782031 208.532 1.29203 207.782 1.53203C208.652 1.78203 209.152 2.43203 209.152 3.33203C209.152 4.67203 208.142 5.49203 206.542 5.49203ZM213.038 5.33203V3.91203H209.868V2.74203L212.848 -1.76797H214.468V2.67203H215.308V3.91203H214.468V5.33203H213.038ZM211.208 2.67203H213.038V0.0220311L211.208 2.67203Z" fill="black"/>
<path id="385" d="M380.098 61.0077C378.468 61.0077 377.658 60.1777 377.588 58.8877L379.028 58.8177C379.088 59.5077 379.548 59.7477 380.128 59.7477C380.758 59.7477 381.248 59.4477 381.248 58.7477C381.248 58.0677 380.798 57.7077 380.058 57.7077H379.528V56.5777H380.058C380.618 56.5777 381.028 56.3277 381.028 55.7177C381.028 55.1277 380.678 54.8377 380.118 54.8377C379.498 54.8377 379.198 55.1477 379.138 55.6377L377.698 55.5677C377.838 54.3577 378.668 53.5877 380.128 53.5877C381.588 53.5877 382.488 54.3077 382.488 55.5277C382.488 56.2977 382.088 56.8077 381.338 57.0477C382.208 57.2977 382.708 57.9477 382.708 58.8477C382.708 60.1877 381.698 61.0077 380.098 61.0077ZM386.144 61.0077C384.574 61.0077 383.524 60.2877 383.524 58.9077C383.524 57.9777 384.064 57.3177 384.934 57.0377C384.264 56.7777 383.814 56.2877 383.814 55.5477C383.814 54.4077 384.744 53.5877 386.144 53.5877C387.544 53.5877 388.474 54.4077 388.474 55.5477C388.474 56.2877 388.024 56.7777 387.344 57.0377C388.224 57.3177 388.764 57.9777 388.764 58.9077C388.764 60.2877 387.714 61.0077 386.144 61.0077ZM386.144 56.4677C386.654 56.4677 387.004 56.1977 387.004 55.6377C387.004 55.1377 386.664 54.8477 386.144 54.8477C385.624 54.8477 385.284 55.1377 385.284 55.6377C385.284 56.1977 385.634 56.4677 386.144 56.4677ZM386.144 59.7477C386.784 59.7477 387.304 59.4677 387.304 58.7677C387.304 58.0977 386.874 57.6777 386.144 57.6777C385.414 57.6777 384.984 58.0977 384.984 58.7677C384.984 59.4677 385.504 59.7477 386.144 59.7477ZM392.13 61.0077C390.63 61.0077 389.72 60.1177 389.62 58.9477L391.08 58.8677C391.17 59.4477 391.52 59.7477 392.13 59.7477C392.79 59.7477 393.2 59.3277 393.2 58.5177C393.2 57.7277 392.78 57.2677 392.14 57.2677C391.7 57.2677 391.33 57.5277 391.19 57.8877L389.72 57.8177L390.14 53.7477H394.33V55.0277H391.31L391.13 56.5577C391.46 56.2777 391.9 56.1177 392.38 56.1177C393.79 56.1177 394.66 57.1377 394.66 58.5277C394.66 59.9977 393.66 61.0077 392.13 61.0077Z" fill="black"/>
<path id="404" d="M308.765 18.832V17.412H305.595V16.242L308.575 11.732H310.195V16.172H311.035V17.412H310.195V18.832H308.765ZM306.935 16.172H308.765V13.522L306.935 16.172ZM314.311 18.992C312.711 18.992 311.751 17.582 311.751 15.292C311.751 12.992 312.711 11.572 314.311 11.572C315.911 11.572 316.871 12.992 316.871 15.292C316.871 17.582 315.911 18.992 314.311 18.992ZM313.211 15.292C313.211 15.722 313.241 16.092 313.301 16.402L314.991 13.212C314.811 12.962 314.581 12.832 314.311 12.832C313.621 12.832 313.211 13.652 313.211 15.292ZM314.311 17.732C315.001 17.732 315.411 16.922 315.411 15.292C315.411 14.862 315.381 14.482 315.321 14.162L313.631 17.352C313.811 17.602 314.041 17.732 314.311 17.732ZM320.757 18.832V17.412H317.587V16.242L320.567 11.732H322.187V16.172H323.027V17.412H322.187V18.832H320.757ZM318.927 16.172H320.757V13.522L318.927 16.172Z" fill="black"/>
<path id="361" d="M104.99 94.203C103.36 94.203 102.55 93.373 102.48 92.083L103.92 92.013C103.98 92.703 104.44 92.943 105.02 92.943C105.65 92.943 106.14 92.643 106.14 91.943C106.14 91.263 105.69 90.903 104.95 90.903H104.42V89.773H104.95C105.51 89.773 105.92 89.523 105.92 88.913C105.92 88.323 105.57 88.033 105.01 88.033C104.39 88.033 104.09 88.343 104.03 88.833L102.59 88.763C102.73 87.553 103.56 86.783 105.02 86.783C106.48 86.783 107.38 87.503 107.38 88.723C107.38 89.493 106.98 90.003 106.23 90.243C107.1 90.493 107.6 91.143 107.6 92.043C107.6 93.383 106.59 94.203 104.99 94.203ZM111.056 94.203C109.326 94.203 108.416 93.033 108.416 90.973C108.416 88.623 109.226 86.783 111.316 86.783C112.716 86.783 113.366 87.543 113.626 88.563L112.186 88.663C112.086 88.303 111.856 88.043 111.316 88.043C110.576 88.043 110.056 88.553 109.896 89.773C110.236 89.473 110.716 89.253 111.346 89.253C112.756 89.253 113.656 90.203 113.656 91.633C113.656 93.213 112.626 94.203 111.056 94.203ZM111.026 92.923C111.776 92.923 112.196 92.483 112.196 91.683C112.196 90.943 111.816 90.463 111.086 90.463C110.346 90.463 109.876 90.953 109.876 91.693C109.876 92.373 110.296 92.923 111.026 92.923ZM114.512 94.043V92.763H116.552V89.383H114.812V88.203H115.592C116.392 88.203 116.732 87.863 116.732 86.943H117.972V92.763H119.552V94.043H114.512Z" fill="black"/>
<path id="345" d="M464.938 177.098C463.308 177.098 462.498 176.267 462.428 174.977L463.868 174.907C463.928 175.597 464.388 175.837 464.968 175.837C465.598 175.837 466.088 175.537 466.088 174.837C466.088 174.157 465.638 173.797 464.898 173.797H464.368V172.667H464.898C465.458 172.667 465.868 172.417 465.868 171.807C465.868 171.217 465.518 170.927 464.958 170.927C464.338 170.927 464.038 171.237 463.978 171.727L462.538 171.658C462.678 170.447 463.508 169.677 464.968 169.677C466.428 169.677 467.328 170.397 467.328 171.617C467.328 172.387 466.928 172.897 466.178 173.137C467.048 173.387 467.548 174.037 467.548 174.937C467.548 176.278 466.538 177.098 464.938 177.098ZM471.434 176.938V175.517H468.264V174.347L471.244 169.837H472.864V174.277H473.704V175.517H472.864V176.938H471.434ZM469.604 174.277H471.434V171.627L469.604 174.277ZM476.97 177.098C475.47 177.098 474.56 176.207 474.46 175.037L475.92 174.957C476.01 175.537 476.36 175.837 476.97 175.837C477.63 175.837 478.04 175.417 478.04 174.607C478.04 173.817 477.62 173.357 476.98 173.357C476.54 173.357 476.17 173.617 476.03 173.977L474.56 173.907L474.98 169.837H479.17V171.117H476.15L475.97 172.647C476.3 172.367 476.74 172.207 477.22 172.207C478.63 172.207 479.5 173.227 479.5 174.617C479.5 176.087 478.5 177.098 476.97 177.098Z" fill="black"/>
<path id="330" d="M38.2572 192.098C36.6272 192.098 35.8172 191.267 35.7472 189.977L37.1872 189.907C37.2472 190.597 37.7072 190.837 38.2872 190.837C38.9172 190.837 39.4072 190.537 39.4072 189.837C39.4072 189.157 38.9572 188.797 38.2172 188.797H37.6872V187.667H38.2172C38.7772 187.667 39.1872 187.417 39.1872 186.807C39.1872 186.217 38.8372 185.927 38.2772 185.927C37.6572 185.927 37.3572 186.237 37.2972 186.727L35.8572 186.658C35.9972 185.447 36.8272 184.677 38.2872 184.677C39.7472 184.677 40.6472 185.397 40.6472 186.617C40.6472 187.387 40.2472 187.897 39.4972 188.137C40.3672 188.387 40.8672 189.037 40.8672 189.937C40.8672 191.278 39.8572 192.098 38.2572 192.098ZM44.2533 192.098C42.6233 192.098 41.8133 191.267 41.7433 189.977L43.1833 189.907C43.2433 190.597 43.7033 190.837 44.2833 190.837C44.9133 190.837 45.4033 190.537 45.4033 189.837C45.4033 189.157 44.9533 188.797 44.2133 188.797H43.6833V187.667H44.2133C44.7733 187.667 45.1833 187.417 45.1833 186.807C45.1833 186.217 44.8333 185.927 44.2733 185.927C43.6533 185.927 43.3533 186.237 43.2933 186.727L41.8533 186.658C41.9933 185.447 42.8233 184.677 44.2833 184.677C45.7433 184.677 46.6433 185.397 46.6433 186.617C46.6433 187.387 46.2433 187.897 45.4933 188.137C46.3633 188.387 46.8633 189.037 46.8633 189.937C46.8633 191.278 45.8533 192.098 44.2533 192.098ZM50.2994 192.098C48.6994 192.098 47.7394 190.688 47.7394 188.397C47.7394 186.097 48.6994 184.677 50.2994 184.677C51.8994 184.677 52.8594 186.097 52.8594 188.397C52.8594 190.688 51.8994 192.098 50.2994 192.098ZM49.1994 188.397C49.1994 188.827 49.2294 189.197 49.2894 189.507L50.9794 186.317C50.7994 186.067 50.5694 185.937 50.2994 185.937C49.6094 185.937 49.1994 186.757 49.1994 188.397ZM50.2994 190.837C50.9894 190.837 51.3994 190.027 51.3994 188.397C51.3994 187.967 51.3694 187.587 51.3094 187.267L49.6194 190.457C49.7994 190.707 50.0294 190.837 50.2994 190.837Z" fill="black"/>
</g>
<path id="field" d="M19.3698 198.571L208.177 8.83203L222.57 22.2981H336.24L495.832 183.008L475.082 202.163V218.125L399.263 292.746L366.541 358.988L345.514 380.015L348.068 382.569L272.918 457.719H230.417L155.266 382.569L157.82 380.015L143.137 365.332L85.1547 264.903L19.3698 198.571Z" fill="#00A3E0" fill-opacity="0.1" fill="none" stroke="#00A3E0" stroke-width="1.002"/>
</g>
<defs>
<clipPath id="clip0_115_5545">
<rect width="500" height="469.94" fill="white"/>
</clipPath>
</defs>
</svg>
