<svg width="500" height="470" viewBox="0 0 500 470" fill="none" xmlns="http://www.w3.org/2000/svg">
<g id="hiram-bithorn-stadium-2001" clip-path="url(#clip0_111_4492)">
<g id="Infield">
<path d="M339.98 327.766C339.453 325.666 322.032 258.479 250.83 258.479C180.238 258.479 162.505 324.538 161.697 327.699C161.677 327.776 161.668 327.816 161.668 327.816L236.504 402.653C235.305 404.912 234.623 407.489 234.623 410.238C234.623 419.186 241.873 426.445 250.83 426.445C259.778 426.445 267.037 419.186 267.037 410.238C267.037 407.489 266.356 404.912 265.156 402.657L260.695 397.375C257.96 395.278 254.544 394.026 250.83 394.026C247.117 394.026 243.701 395.278 240.971 397.37L197.7 354.1C201.448 350.353 201.448 344.277 197.7 340.53C197.698 340.527 197.694 340.525 197.691 340.522L244.055 294.038C247.8 297.773 253.861 297.773 257.606 294.038L303.431 339.984C303.431 339.984 303.427 339.985 303.424 339.988C299.677 343.736 300.275 350.3 304.022 354.047L260.695 397.375L265.156 402.657L339.98 327.766Z" fill="#D2D2D2"/>
<path d="M259.91 345.706C259.91 350.721 255.845 354.787 250.83 354.787C245.815 354.787 241.75 350.721 241.75 345.706C241.75 340.691 245.815 336.626 250.83 336.626C255.845 336.626 259.91 340.691 259.91 345.706Z" fill="#D2D2D2"/>
</g>
<g id="Guides">
<g id="Home">
<circle id="Ellipse 1" cx="250.827" cy="410.419" r="16.0848" fill="#D2D2D2"/>
<circle id="Ellipse 1_2" cx="250.827" cy="410.418" r="1.62919" fill="black"/>
</g>
<g id="First">
<circle id="Ellipse 1_3" cx="311.125" cy="346.532" r="10.1878" fill="#D2D2D2"/>
<circle id="Ellipse 1_4" cx="311.125" cy="346.532" r="1.0319" fill="black"/>
</g>
<g id="Third">
<circle id="Ellipse 1_5" cx="190.34" cy="346.532" r="10.1878" fill="#D2D2D2"/>
<circle id="Ellipse 1_6" cx="190.34" cy="346.532" r="1.0319" fill="black"/>
</g>
<g id="Second">
<circle id="Ellipse 1_7" cx="250.827" cy="286.67" r="10.1878" fill="#D2D2D2"/>
<circle id="Ellipse 1_8" cx="250.827" cy="286.671" r="1.0319" fill="black"/>
</g>
<g id="Mound">
<circle id="Ellipse 1_9" cx="250.827" cy="345.929" r="9.08365" fill="#D2D2D2"/>
<circle id="Ellipse 1_10" cx="250.827" cy="345.93" r="0.920062" fill="black"/>
</g>
</g>
<path id="Foul Lines" d="M468.835 192.656L250.976 410.516L33.1156 192.657" fill="none" stroke="black" stroke-width="1.002"/>
<g id="Measurements">
<path id="399" d="M242.758 14.8592C241.128 14.8592 240.318 14.0292 240.248 12.7392L241.688 12.6692C241.748 13.3592 242.208 13.5992 242.788 13.5992C243.418 13.5992 243.908 13.2992 243.908 12.5992C243.908 11.9192 243.458 11.5592 242.718 11.5592H242.188V10.4292H242.718C243.278 10.4292 243.688 10.1792 243.688 9.56922C243.688 8.97922 243.338 8.68922 242.778 8.68922C242.158 8.68922 241.858 8.99922 241.798 9.48922L240.358 9.41922C240.498 8.20922 241.328 7.43922 242.788 7.43922C244.248 7.43922 245.148 8.15922 245.148 9.37922C245.148 10.1492 244.748 10.6592 243.998 10.8992C244.868 11.1492 245.368 11.7992 245.368 12.6992C245.368 14.0392 244.358 14.8592 242.758 14.8592ZM248.785 7.43922C250.515 7.43922 251.425 8.60922 251.425 10.6692C251.425 13.0192 250.615 14.8592 248.525 14.8592C247.125 14.8592 246.475 14.0992 246.215 13.0792L247.655 12.9792C247.755 13.3392 247.985 13.5992 248.525 13.5992C249.265 13.5992 249.785 13.0892 249.945 11.8692C249.605 12.1692 249.125 12.3892 248.495 12.3892C247.085 12.3892 246.185 11.4392 246.185 10.0092C246.185 8.42922 247.215 7.43922 248.785 7.43922ZM248.815 8.71922C248.065 8.71922 247.645 9.15922 247.645 9.95922C247.645 10.6992 248.025 11.1792 248.755 11.1792C249.495 11.1792 249.965 10.6892 249.965 9.94922C249.965 9.26922 249.545 8.71922 248.815 8.71922ZM254.781 7.43922C256.511 7.43922 257.421 8.60922 257.421 10.6692C257.421 13.0192 256.611 14.8592 254.521 14.8592C253.121 14.8592 252.471 14.0992 252.211 13.0792L253.651 12.9792C253.751 13.3392 253.981 13.5992 254.521 13.5992C255.261 13.5992 255.781 13.0892 255.941 11.8692C255.601 12.1692 255.121 12.3892 254.491 12.3892C253.081 12.3892 252.181 11.4392 252.181 10.0092C252.181 8.42922 253.211 7.43922 254.781 7.43922ZM254.811 8.71922C254.061 8.71922 253.641 9.15922 253.641 9.95922C253.641 10.6992 254.021 11.1792 254.751 11.1792C255.491 11.1792 255.961 10.6892 255.961 9.94922C255.961 9.26922 255.541 8.71922 254.811 8.71922Z" fill="black"/>
<path id="339" d="M386.919 104.588C385.289 104.588 384.479 103.758 384.409 102.468L385.849 102.398C385.909 103.088 386.369 103.328 386.949 103.328C387.579 103.328 388.069 103.028 388.069 102.328C388.069 101.648 387.619 101.288 386.879 101.288H386.349V100.158H386.879C387.439 100.158 387.849 99.9077 387.849 99.2977C387.849 98.7077 387.499 98.4177 386.939 98.4177C386.319 98.4177 386.019 98.7277 385.959 99.2177L384.519 99.1477C384.659 97.9377 385.489 97.1677 386.949 97.1677C388.409 97.1677 389.309 97.8877 389.309 99.1077C389.309 99.8777 388.909 100.388 388.159 100.628C389.029 100.878 389.529 101.528 389.529 102.428C389.529 103.768 388.519 104.588 386.919 104.588ZM392.915 104.588C391.285 104.588 390.475 103.758 390.405 102.468L391.845 102.398C391.905 103.088 392.365 103.328 392.945 103.328C393.575 103.328 394.065 103.028 394.065 102.328C394.065 101.648 393.615 101.288 392.875 101.288H392.345V100.158H392.875C393.435 100.158 393.845 99.9077 393.845 99.2977C393.845 98.7077 393.495 98.4177 392.935 98.4177C392.315 98.4177 392.015 98.7277 391.955 99.2177L390.515 99.1477C390.655 97.9377 391.485 97.1677 392.945 97.1677C394.405 97.1677 395.305 97.8877 395.305 99.1077C395.305 99.8777 394.905 100.388 394.155 100.628C395.025 100.878 395.525 101.528 395.525 102.428C395.525 103.768 394.515 104.588 392.915 104.588ZM398.941 97.1677C400.671 97.1677 401.581 98.3377 401.581 100.398C401.581 102.748 400.771 104.588 398.681 104.588C397.281 104.588 396.631 103.828 396.371 102.808L397.811 102.708C397.911 103.068 398.141 103.328 398.681 103.328C399.421 103.328 399.941 102.818 400.101 101.598C399.761 101.898 399.281 102.118 398.651 102.118C397.241 102.118 396.341 101.168 396.341 99.7377C396.341 98.1577 397.371 97.1677 398.941 97.1677ZM398.971 98.4477C398.221 98.4477 397.801 98.8877 397.801 99.6877C397.801 100.428 398.181 100.908 398.911 100.908C399.651 100.908 400.121 100.418 400.121 99.6777C400.121 98.9977 399.701 98.4477 398.971 98.4477Z" fill="black"/>
<path id="339_2" d="M105.548 104.588C103.918 104.588 103.108 103.758 103.038 102.468L104.478 102.398C104.538 103.088 104.998 103.328 105.578 103.328C106.208 103.328 106.698 103.028 106.698 102.328C106.698 101.648 106.248 101.288 105.508 101.288H104.978V100.158H105.508C106.068 100.158 106.478 99.9077 106.478 99.2977C106.478 98.7077 106.128 98.4177 105.568 98.4177C104.948 98.4177 104.648 98.7277 104.588 99.2177L103.148 99.1477C103.288 97.9377 104.118 97.1677 105.578 97.1677C107.038 97.1677 107.938 97.8877 107.938 99.1077C107.938 99.8777 107.538 100.388 106.788 100.628C107.658 100.878 108.158 101.528 108.158 102.428C108.158 103.768 107.148 104.588 105.548 104.588ZM111.544 104.588C109.914 104.588 109.104 103.758 109.034 102.468L110.474 102.398C110.534 103.088 110.994 103.328 111.574 103.328C112.204 103.328 112.694 103.028 112.694 102.328C112.694 101.648 112.244 101.288 111.504 101.288H110.974V100.158H111.504C112.064 100.158 112.474 99.9077 112.474 99.2977C112.474 98.7077 112.124 98.4177 111.564 98.4177C110.944 98.4177 110.644 98.7277 110.584 99.2177L109.144 99.1477C109.284 97.9377 110.114 97.1677 111.574 97.1677C113.034 97.1677 113.934 97.8877 113.934 99.1077C113.934 99.8777 113.534 100.388 112.784 100.628C113.654 100.878 114.154 101.528 114.154 102.428C114.154 103.768 113.144 104.588 111.544 104.588ZM117.57 97.1677C119.3 97.1677 120.21 98.3377 120.21 100.398C120.21 102.748 119.4 104.588 117.31 104.588C115.91 104.588 115.26 103.828 115 102.808L116.44 102.708C116.54 103.068 116.77 103.328 117.31 103.328C118.05 103.328 118.57 102.818 118.73 101.598C118.39 101.898 117.91 102.118 117.28 102.118C115.87 102.118 114.97 101.168 114.97 99.7377C114.97 98.1577 116 97.1677 117.57 97.1677ZM117.6 98.4477C116.85 98.4477 116.43 98.8877 116.43 99.6877C116.43 100.428 116.81 100.908 117.54 100.908C118.28 100.908 118.75 100.418 118.75 99.6777C118.75 98.9977 118.33 98.4477 117.6 98.4477Z" fill="black"/>
<path id="313" d="M446.939 196.316C445.309 196.316 444.499 195.486 444.429 194.196L445.869 194.126C445.929 194.816 446.389 195.056 446.969 195.056C447.599 195.056 448.089 194.756 448.089 194.056C448.089 193.376 447.639 193.016 446.899 193.016H446.369V191.886H446.899C447.459 191.886 447.869 191.636 447.869 191.026C447.869 190.436 447.519 190.146 446.959 190.146C446.339 190.146 446.039 190.456 445.979 190.946L444.539 190.876C444.679 189.666 445.509 188.896 446.969 188.896C448.429 188.896 449.329 189.616 449.329 190.836C449.329 191.606 448.929 192.116 448.179 192.356C449.049 192.606 449.549 193.256 449.549 194.156C449.549 195.496 448.539 196.316 446.939 196.316ZM450.465 196.156V194.876H452.505V191.496H450.765V190.316H451.545C452.345 190.316 452.685 189.976 452.685 189.056H453.925V194.876H455.505V196.156H450.465ZM458.931 196.316C457.301 196.316 456.491 195.486 456.421 194.196L457.861 194.126C457.921 194.816 458.381 195.056 458.961 195.056C459.591 195.056 460.081 194.756 460.081 194.056C460.081 193.376 459.631 193.016 458.891 193.016H458.361V191.886H458.891C459.451 191.886 459.861 191.636 459.861 191.026C459.861 190.436 459.511 190.146 458.951 190.146C458.331 190.146 458.031 190.456 457.971 190.946L456.531 190.876C456.671 189.666 457.501 188.896 458.961 188.896C460.421 188.896 461.321 189.616 461.321 190.836C461.321 191.606 460.921 192.116 460.171 192.356C461.041 192.606 461.541 193.256 461.541 194.156C461.541 195.496 460.531 196.316 458.931 196.316Z" fill="black"/>
<path id="315" d="M44.5783 195.598C42.9483 195.598 42.1383 194.767 42.0683 193.477L43.5083 193.407C43.5683 194.097 44.0283 194.337 44.6083 194.337C45.2383 194.337 45.7283 194.037 45.7283 193.337C45.7283 192.657 45.2783 192.297 44.5383 192.297H44.0083V191.167H44.5383C45.0983 191.167 45.5083 190.917 45.5083 190.307C45.5083 189.717 45.1583 189.427 44.5983 189.427C43.9783 189.427 43.6783 189.737 43.6183 190.227L42.1783 190.158C42.3183 188.947 43.1483 188.177 44.6083 188.177C46.0683 188.177 46.9683 188.897 46.9683 190.117C46.9683 190.887 46.5683 191.397 45.8183 191.637C46.6883 191.887 47.1883 192.537 47.1883 193.437C47.1883 194.778 46.1783 195.598 44.5783 195.598ZM48.1044 195.438V194.157H50.1444V190.777H48.4044V189.597H49.1844C49.9844 189.597 50.3244 189.257 50.3244 188.337H51.5644V194.157H53.1444V195.438H48.1044ZM56.6105 195.598C55.1105 195.598 54.2005 194.707 54.1005 193.537L55.5605 193.457C55.6505 194.037 56.0005 194.337 56.6105 194.337C57.2705 194.337 57.6805 193.917 57.6805 193.107C57.6805 192.317 57.2605 191.857 56.6205 191.857C56.1805 191.857 55.8105 192.117 55.6705 192.477L54.2005 192.407L54.6205 188.337H58.8105V189.617H55.7905L55.6105 191.147C55.9405 190.867 56.3805 190.707 56.8605 190.707C58.2705 190.707 59.1405 191.727 59.1405 193.117C59.1405 194.587 58.1405 195.598 56.6105 195.598Z" fill="black"/>
</g>
<path id="field" d="M22.779 203.366L176.218 50.6808C217.51 9.5921 284.22 9.52208 325.597 50.524L478.061 201.603C486.751 210.214 488.262 223.719 481.69 234.038L374.316 402.639C316.67 493.154 184.607 493.398 126.628 403.096L19.24 235.844C12.6217 225.536 14.0959 212.007 22.779 203.366Z" fill="#E4002B" fill-opacity="0.1" fill="none" stroke="#E4002B" stroke-width="1.002"/>
</g>
<defs>
<clipPath id="clip0_111_4492">
<rect width="500" height="469.94" fill="white"/>
</clipPath>
</defs>
</svg>
