<svg width="500" height="470" viewBox="0 0 500 470" fill="none" xmlns="http://www.w3.org/2000/svg">
<g id="hiram-bithorn-stadium-2013" clip-path="url(#clip0_111_4546)">
<g id="Infield">
<path d="M339.98 327.766C339.453 325.666 322.032 258.479 250.83 258.479C180.238 258.479 162.505 324.538 161.697 327.699C161.677 327.776 161.668 327.816 161.668 327.816L236.504 402.653C235.305 404.912 234.623 407.489 234.623 410.238C234.623 419.186 241.873 426.445 250.83 426.445C259.778 426.445 267.037 419.186 267.037 410.238C267.037 407.489 266.356 404.912 265.157 402.657L260.695 397.375C257.96 395.278 254.544 394.026 250.83 394.026C247.117 394.026 243.701 395.278 240.971 397.37L197.7 354.1C201.448 350.353 201.448 344.277 197.7 340.53C197.698 340.527 197.694 340.525 197.691 340.522L244.055 294.038C247.8 297.773 253.861 297.773 257.606 294.038L303.431 339.984C303.431 339.984 303.427 339.985 303.424 339.988C299.677 343.736 300.275 350.3 304.022 354.047L260.695 397.375L265.157 402.657L339.98 327.766Z" fill="#D2D2D2"/>
<path d="M259.91 345.706C259.91 350.721 255.845 354.787 250.83 354.787C245.815 354.787 241.75 350.721 241.75 345.706C241.75 340.691 245.815 336.626 250.83 336.626C255.845 336.626 259.91 340.691 259.91 345.706Z" fill="#D2D2D2"/>
</g>
<g id="Guides">
<g id="Home">
<circle id="Ellipse 1" cx="250.827" cy="410.419" r="16.0848" fill="#D2D2D2"/>
<circle id="Ellipse 1_2" cx="250.827" cy="410.418" r="1.62919" fill="black"/>
</g>
<g id="First">
<circle id="Ellipse 1_3" cx="311.125" cy="346.532" r="10.1878" fill="#D2D2D2"/>
<circle id="Ellipse 1_4" cx="311.125" cy="346.532" r="1.0319" fill="black"/>
</g>
<g id="Third">
<circle id="Ellipse 1_5" cx="190.34" cy="346.532" r="10.1878" fill="#D2D2D2"/>
<circle id="Ellipse 1_6" cx="190.34" cy="346.532" r="1.0319" fill="black"/>
</g>
<g id="Second">
<circle id="Ellipse 1_7" cx="250.827" cy="286.67" r="10.1878" fill="#D2D2D2"/>
<circle id="Ellipse 1_8" cx="250.827" cy="286.671" r="1.0319" fill="black"/>
</g>
<g id="Mound">
<circle id="Ellipse 1_9" cx="250.827" cy="345.929" r="9.08365" fill="#D2D2D2"/>
<circle id="Ellipse 1_10" cx="250.827" cy="345.93" r="0.920062" fill="black"/>
</g>
</g>
<path id="Foul Lines" d="M477.015 184.477L250.976 410.516L25.25 184.79" fill="none" stroke="black" stroke-width="1.002"/>
<g id="Measurements">
<path id="404" d="M243.258 12.6992V11.2792H240.088V10.1092L243.068 5.59922H244.688V10.0392H245.528V11.2792H244.688V12.6992H243.258ZM241.428 10.0392H243.258V7.38922L241.428 10.0392ZM248.805 12.8592C247.205 12.8592 246.245 11.4492 246.245 9.15922C246.245 6.85922 247.205 5.43922 248.805 5.43922C250.405 5.43922 251.365 6.85922 251.365 9.15922C251.365 11.4492 250.405 12.8592 248.805 12.8592ZM247.705 9.15922C247.705 9.58922 247.735 9.95922 247.795 10.2692L249.485 7.07922C249.305 6.82922 249.075 6.69922 248.805 6.69922C248.115 6.69922 247.705 7.51922 247.705 9.15922ZM248.805 11.5992C249.495 11.5992 249.905 10.7892 249.905 9.15922C249.905 8.72922 249.875 8.34922 249.815 8.02922L248.125 11.2192C248.305 11.4692 248.535 11.5992 248.805 11.5992ZM255.251 12.6992V11.2792H252.081V10.1092L255.061 5.59922H256.681V10.0392H257.521V11.2792H256.681V12.6992H255.251ZM253.421 10.0392H255.251V7.38922L253.421 10.0392Z" fill="black"/>
<path id="375" d="M98.1938 74.8514C96.5638 74.8514 95.7538 74.0214 95.6838 72.7314L97.1238 72.6614C97.1838 73.3514 97.6438 73.5914 98.2238 73.5914C98.8538 73.5914 99.3438 73.2914 99.3438 72.5914C99.3438 71.9114 98.8938 71.5514 98.1538 71.5514H97.6238V70.4214H98.1538C98.7138 70.4214 99.1238 70.1714 99.1238 69.5614C99.1238 68.9714 98.7738 68.6814 98.2138 68.6814C97.5938 68.6814 97.2938 68.9914 97.2338 69.4814L95.7938 69.4114C95.9338 68.2014 96.7638 67.4314 98.2238 67.4314C99.6838 67.4314 100.584 68.1514 100.584 69.3714C100.584 70.1414 100.184 70.6514 99.4338 70.8914C100.304 71.1414 100.804 71.7914 100.804 72.6914C100.804 74.0314 99.7938 74.8514 98.1938 74.8514ZM102.91 74.6914C102.91 72.5414 103.81 70.5814 105.28 68.8714H101.78V67.5914H106.7V68.8014C105.07 70.6614 104.4 72.2514 104.4 74.6914H102.91ZM110.226 74.8514C108.726 74.8514 107.816 73.9614 107.716 72.7914L109.176 72.7114C109.266 73.2914 109.616 73.5914 110.226 73.5914C110.886 73.5914 111.296 73.1714 111.296 72.3614C111.296 71.5714 110.876 71.1114 110.236 71.1114C109.796 71.1114 109.426 71.3714 109.286 71.7314L107.816 71.6614L108.236 67.5914H112.426V68.8714H109.406L109.226 70.4014C109.556 70.1214 109.996 69.9614 110.476 69.9614C111.886 69.9614 112.756 70.9814 112.756 72.3714C112.756 73.8414 111.756 74.8514 110.226 74.8514Z" fill="black"/>
<path id="375_2" d="M395.913 74.8514C394.283 74.8514 393.473 74.0214 393.403 72.7314L394.843 72.6614C394.903 73.3514 395.363 73.5914 395.943 73.5914C396.573 73.5914 397.063 73.2914 397.063 72.5914C397.063 71.9114 396.613 71.5514 395.873 71.5514H395.343V70.4214H395.873C396.433 70.4214 396.843 70.1714 396.843 69.5614C396.843 68.9714 396.493 68.6814 395.933 68.6814C395.313 68.6814 395.013 68.9914 394.953 69.4814L393.513 69.4114C393.653 68.2014 394.483 67.4314 395.943 67.4314C397.403 67.4314 398.303 68.1514 398.303 69.3714C398.303 70.1414 397.903 70.6514 397.153 70.8914C398.023 71.1414 398.523 71.7914 398.523 72.6914C398.523 74.0314 397.513 74.8514 395.913 74.8514ZM400.629 74.6914C400.629 72.5414 401.529 70.5814 402.999 68.8714H399.499V67.5914H404.419V68.8014C402.789 70.6614 402.119 72.2514 402.119 74.6914H400.629ZM407.945 74.8514C406.445 74.8514 405.535 73.9614 405.435 72.7914L406.895 72.7114C406.985 73.2914 407.335 73.5914 407.945 73.5914C408.605 73.5914 409.015 73.1714 409.015 72.3614C409.015 71.5714 408.595 71.1114 407.955 71.1114C407.515 71.1114 407.145 71.3714 407.005 71.7314L405.535 71.6614L405.955 67.5914H410.145V68.8714H407.125L406.945 70.4014C407.275 70.1214 407.715 69.9614 408.195 69.9614C409.605 69.9614 410.475 70.9814 410.475 72.3714C410.475 73.8414 409.475 74.8514 407.945 74.8514Z" fill="black"/>
<path id="325" d="M453.797 187.967C452.167 187.967 451.357 187.137 451.287 185.847L452.727 185.777C452.787 186.467 453.247 186.707 453.827 186.707C454.457 186.707 454.947 186.407 454.947 185.707C454.947 185.027 454.497 184.667 453.757 184.667H453.227V183.537H453.757C454.317 183.537 454.727 183.287 454.727 182.677C454.727 182.087 454.377 181.797 453.817 181.797C453.197 181.797 452.897 182.107 452.837 182.597L451.397 182.527C451.537 181.317 452.367 180.547 453.827 180.547C455.287 180.547 456.187 181.267 456.187 182.487C456.187 183.257 455.787 183.767 455.037 184.007C455.907 184.257 456.407 184.907 456.407 185.807C456.407 187.147 455.397 187.967 453.797 187.967ZM457.283 187.807C457.283 186.077 457.863 185.067 459.843 184.047C460.573 183.667 460.933 183.387 460.933 182.737C460.933 182.167 460.603 181.807 459.973 181.807C459.253 181.807 458.903 182.227 458.783 182.987L457.313 182.897C457.453 181.447 458.363 180.547 459.993 180.547C461.583 180.547 462.403 181.397 462.403 182.657C462.403 183.797 461.913 184.357 460.513 185.117C459.363 185.737 458.953 186.167 458.913 186.527H462.403V187.807H457.283ZM465.829 187.967C464.329 187.967 463.419 187.077 463.319 185.907L464.779 185.827C464.869 186.407 465.219 186.707 465.829 186.707C466.489 186.707 466.899 186.287 466.899 185.477C466.899 184.687 466.479 184.227 465.839 184.227C465.399 184.227 465.029 184.487 464.889 184.847L463.419 184.777L463.839 180.707H468.029V181.987H465.009L464.829 183.517C465.159 183.237 465.599 183.077 466.079 183.077C467.489 183.077 468.359 184.097 468.359 185.487C468.359 186.957 467.359 187.967 465.829 187.967Z" fill="black"/>
<path id="325_2" d="M33.2393 186.023C31.6093 186.023 30.7993 185.193 30.7293 183.903L32.1693 183.833C32.2293 184.523 32.6893 184.763 33.2693 184.763C33.8993 184.763 34.3893 184.463 34.3893 183.763C34.3893 183.083 33.9393 182.723 33.1993 182.723H32.6693V181.593H33.1993C33.7593 181.593 34.1693 181.343 34.1693 180.733C34.1693 180.143 33.8193 179.853 33.2593 179.853C32.6393 179.853 32.3393 180.163 32.2793 180.653L30.8393 180.583C30.9793 179.373 31.8093 178.603 33.2693 178.603C34.7293 178.603 35.6293 179.323 35.6293 180.543C35.6293 181.313 35.2293 181.823 34.4793 182.063C35.3493 182.313 35.8493 182.963 35.8493 183.863C35.8493 185.203 34.8393 186.023 33.2393 186.023ZM36.7254 185.863C36.7254 184.133 37.3054 183.123 39.2854 182.103C40.0154 181.723 40.3754 181.443 40.3754 180.793C40.3754 180.223 40.0454 179.863 39.4154 179.863C38.6954 179.863 38.3454 180.283 38.2254 181.043L36.7554 180.953C36.8954 179.503 37.8054 178.603 39.4354 178.603C41.0254 178.603 41.8454 179.453 41.8454 180.713C41.8454 181.853 41.3554 182.413 39.9554 183.173C38.8054 183.793 38.3954 184.223 38.3554 184.583H41.8454V185.863H36.7254ZM45.2715 186.023C43.7715 186.023 42.8615 185.133 42.7615 183.963L44.2215 183.883C44.3115 184.463 44.6615 184.763 45.2715 184.763C45.9315 184.763 46.3415 184.343 46.3415 183.533C46.3415 182.743 45.9215 182.283 45.2815 182.283C44.8415 182.283 44.4715 182.543 44.3315 182.903L42.8615 182.833L43.2815 178.763H47.4715V180.043H44.4515L44.2715 181.573C44.6015 181.293 45.0415 181.133 45.5215 181.133C46.9315 181.133 47.8015 182.153 47.8015 183.543C47.8015 185.013 46.8015 186.023 45.2715 186.023Z" fill="black"/>
</g>
<path id="field" d="M250.647 15.8594C193.875 15.8594 127.22 59.6574 81.5899 105.575C49.6197 137.746 21.0803 168.835 21.7937 210.435C21.8275 212.403 22.4249 214.321 23.437 216.009L140.238 410.818C141.231 412.475 140.898 414.607 139.445 415.881L136.937 418.083C195.289 490.039 306.311 490.035 364.659 418.083L361.582 416.306C359.634 415.182 358.996 412.672 360.171 410.754L479.316 216.086C480.379 214.349 481.001 212.369 481.013 210.332C481.228 173.763 457.391 141.828 421.137 105.575C366.157 50.5954 307.418 15.8594 250.647 15.8594Z" fill="#E4002B" fill-opacity="0.1" fill="none" stroke="#E4002B" stroke-width="1.002"/>
</g>
<defs>
<clipPath id="clip0_111_4546">
<rect width="500" height="469.94" fill="white"/>
</clipPath>
</defs>
</svg>
