<svg width="500" height="470" viewBox="0 0 500 470" fill="none" xmlns="http://www.w3.org/2000/svg">
<g id="jarry-park-stadium-1969" clip-path="url(#clip0_111_4573)">
<g id="Infield">
<path d="M339.98 327.766C339.453 325.666 322.032 258.479 250.83 258.479C180.238 258.479 162.505 324.538 161.697 327.699C161.677 327.776 161.668 327.816 161.668 327.816L236.504 402.653C235.305 404.912 234.623 407.489 234.623 410.238C234.623 419.186 241.873 426.445 250.83 426.445C259.778 426.445 267.037 419.186 267.037 410.238C267.037 407.489 266.356 404.912 265.156 402.657L260.695 397.375C257.96 395.278 254.544 394.026 250.83 394.026C247.117 394.026 243.701 395.278 240.971 397.37L197.7 354.1C201.448 350.353 201.448 344.277 197.7 340.53C197.698 340.527 197.694 340.525 197.691 340.522L244.055 294.038C247.8 297.773 253.861 297.773 257.606 294.038L303.431 339.984C303.431 339.984 303.427 339.985 303.424 339.988C299.677 343.736 300.275 350.3 304.022 354.047L260.695 397.375L265.156 402.657L339.98 327.766Z" fill="#D2D2D2"/>
<path d="M259.91 345.706C259.91 350.721 255.845 354.787 250.83 354.787C245.815 354.787 241.75 350.721 241.75 345.706C241.75 340.691 245.815 336.626 250.83 336.626C255.845 336.626 259.91 340.691 259.91 345.706Z" fill="#D2D2D2"/>
</g>
<g id="Guides">
<g id="Home">
<circle id="Ellipse 1" cx="250.827" cy="410.419" r="16.0848" fill="#D2D2D2"/>
<circle id="Ellipse 1_2" cx="250.827" cy="410.418" r="1.62919" fill="black"/>
</g>
<g id="First">
<circle id="Ellipse 1_3" cx="311.125" cy="346.532" r="10.1878" fill="#D2D2D2"/>
<circle id="Ellipse 1_4" cx="311.125" cy="346.532" r="1.0319" fill="black"/>
</g>
<g id="Third">
<circle id="Ellipse 1_5" cx="190.34" cy="346.532" r="10.1878" fill="#D2D2D2"/>
<circle id="Ellipse 1_6" cx="190.34" cy="346.532" r="1.0319" fill="black"/>
</g>
<g id="Second">
<circle id="Ellipse 1_7" cx="250.827" cy="286.67" r="10.1878" fill="#D2D2D2"/>
<circle id="Ellipse 1_8" cx="250.827" cy="286.671" r="1.0319" fill="black"/>
</g>
<g id="Mound">
<circle id="Ellipse 1_9" cx="250.827" cy="345.929" r="9.08365" fill="#D2D2D2"/>
<circle id="Ellipse 1_10" cx="250.827" cy="345.93" r="0.920062" fill="black"/>
</g>
</g>
<path id="Foul Lines" d="M484.83 176.661L250.976 410.515L16.4553 175.994" fill="none" stroke="black" stroke-width="1.002"/>
<g id="Measurements">
<path id="368" d="M96.9901 77.2049C95.3601 77.2049 94.5501 76.3749 94.4801 75.0849L95.9201 75.0149C95.9801 75.7049 96.4401 75.9449 97.0201 75.9449C97.6501 75.9449 98.1401 75.6449 98.1401 74.9449C98.1401 74.2649 97.6901 73.9049 96.9501 73.9049H96.4201V72.7749H96.9501C97.5101 72.7749 97.9201 72.5249 97.9201 71.9149C97.9201 71.3249 97.5701 71.0349 97.0101 71.0349C96.3901 71.0349 96.0901 71.3449 96.0301 71.8349L94.5901 71.7649C94.7301 70.5549 95.5601 69.7849 97.0201 69.7849C98.4801 69.7849 99.3801 70.5049 99.3801 71.7249C99.3801 72.4949 98.9801 73.0049 98.2301 73.2449C99.1001 73.4949 99.6001 74.1449 99.6001 75.0449C99.6001 76.3849 98.5901 77.2049 96.9901 77.2049ZM103.056 77.2049C101.326 77.2049 100.416 76.0349 100.416 73.9749C100.416 71.6249 101.226 69.7849 103.316 69.7849C104.716 69.7849 105.366 70.5449 105.626 71.5649L104.186 71.6649C104.086 71.3049 103.856 71.0449 103.316 71.0449C102.576 71.0449 102.056 71.5549 101.896 72.7749C102.236 72.4749 102.716 72.2549 103.346 72.2549C104.756 72.2549 105.656 73.2049 105.656 74.6349C105.656 76.2149 104.626 77.2049 103.056 77.2049ZM103.026 75.9249C103.776 75.9249 104.196 75.4849 104.196 74.6849C104.196 73.9449 103.816 73.4649 103.086 73.4649C102.346 73.4649 101.876 73.9549 101.876 74.6949C101.876 75.3749 102.296 75.9249 103.026 75.9249ZM109.032 77.2049C107.462 77.2049 106.412 76.4849 106.412 75.1049C106.412 74.1749 106.952 73.5149 107.822 73.2349C107.152 72.9749 106.702 72.4849 106.702 71.7449C106.702 70.6049 107.632 69.7849 109.032 69.7849C110.432 69.7849 111.362 70.6049 111.362 71.7449C111.362 72.4849 110.912 72.9749 110.232 73.2349C111.112 73.5149 111.652 74.1749 111.652 75.1049C111.652 76.4849 110.602 77.2049 109.032 77.2049ZM109.032 72.6649C109.542 72.6649 109.892 72.3949 109.892 71.8349C109.892 71.3349 109.552 71.0449 109.032 71.0449C108.512 71.0449 108.172 71.3349 108.172 71.8349C108.172 72.3949 108.522 72.6649 109.032 72.6649ZM109.032 75.9449C109.672 75.9449 110.192 75.6649 110.192 74.9649C110.192 74.2949 109.762 73.8749 109.032 73.8749C108.302 73.8749 107.872 74.2949 107.872 74.9649C107.872 75.6649 108.392 75.9449 109.032 75.9449Z" fill="black"/>
<path id="368_2" d="M392.209 77.2049C390.579 77.2049 389.769 76.3749 389.699 75.0849L391.139 75.0149C391.199 75.7049 391.659 75.9449 392.239 75.9449C392.869 75.9449 393.359 75.6449 393.359 74.9449C393.359 74.2649 392.909 73.9049 392.169 73.9049H391.639V72.7749H392.169C392.729 72.7749 393.139 72.5249 393.139 71.9149C393.139 71.3249 392.789 71.0349 392.229 71.0349C391.609 71.0349 391.309 71.3449 391.249 71.8349L389.809 71.7649C389.949 70.5549 390.779 69.7849 392.239 69.7849C393.699 69.7849 394.599 70.5049 394.599 71.7249C394.599 72.4949 394.199 73.0049 393.449 73.2449C394.319 73.4949 394.819 74.1449 394.819 75.0449C394.819 76.3849 393.809 77.2049 392.209 77.2049ZM398.275 77.2049C396.545 77.2049 395.635 76.0349 395.635 73.9749C395.635 71.6249 396.445 69.7849 398.535 69.7849C399.935 69.7849 400.585 70.5449 400.845 71.5649L399.405 71.6649C399.305 71.3049 399.075 71.0449 398.535 71.0449C397.795 71.0449 397.275 71.5549 397.115 72.7749C397.455 72.4749 397.935 72.2549 398.565 72.2549C399.975 72.2549 400.875 73.2049 400.875 74.6349C400.875 76.2149 399.845 77.2049 398.275 77.2049ZM398.245 75.9249C398.995 75.9249 399.415 75.4849 399.415 74.6849C399.415 73.9449 399.035 73.4649 398.305 73.4649C397.565 73.4649 397.095 73.9549 397.095 74.6949C397.095 75.3749 397.515 75.9249 398.245 75.9249ZM404.251 77.2049C402.681 77.2049 401.631 76.4849 401.631 75.1049C401.631 74.1749 402.171 73.5149 403.041 73.2349C402.371 72.9749 401.921 72.4849 401.921 71.7449C401.921 70.6049 402.851 69.7849 404.251 69.7849C405.651 69.7849 406.581 70.6049 406.581 71.7449C406.581 72.4849 406.131 72.9749 405.451 73.2349C406.331 73.5149 406.871 74.1749 406.871 75.1049C406.871 76.4849 405.821 77.2049 404.251 77.2049ZM404.251 72.6649C404.761 72.6649 405.111 72.3949 405.111 71.8349C405.111 71.3349 404.771 71.0449 404.251 71.0449C403.731 71.0449 403.391 71.3349 403.391 71.8349C403.391 72.3949 403.741 72.6649 404.251 72.6649ZM404.251 75.9449C404.891 75.9449 405.411 75.6649 405.411 74.9649C405.411 74.2949 404.981 73.8749 404.251 73.8749C403.521 73.8749 403.091 74.2949 403.091 74.9649C403.091 75.6649 403.611 75.9449 404.251 75.9449Z" fill="black"/>
<path id="340" d="M460.938 180.098C459.308 180.098 458.498 179.267 458.428 177.977L459.868 177.907C459.928 178.597 460.388 178.837 460.968 178.837C461.598 178.837 462.088 178.537 462.088 177.837C462.088 177.157 461.638 176.797 460.898 176.797H460.368V175.667H460.898C461.458 175.667 461.868 175.417 461.868 174.807C461.868 174.217 461.518 173.927 460.958 173.927C460.338 173.927 460.038 174.237 459.978 174.727L458.538 174.658C458.678 173.447 459.508 172.677 460.968 172.677C462.428 172.677 463.328 173.397 463.328 174.617C463.328 175.387 462.928 175.897 462.178 176.137C463.048 176.387 463.548 177.037 463.548 177.937C463.548 179.278 462.538 180.098 460.938 180.098ZM467.434 179.938V178.517H464.264V177.347L467.244 172.837H468.864V177.277H469.704V178.517H468.864V179.938H467.434ZM465.604 177.277H467.434V174.627L465.604 177.277ZM472.98 180.098C471.38 180.098 470.42 178.688 470.42 176.397C470.42 174.097 471.38 172.677 472.98 172.677C474.58 172.677 475.54 174.097 475.54 176.397C475.54 178.688 474.58 180.098 472.98 180.098ZM471.88 176.397C471.88 176.827 471.91 177.197 471.97 177.507L473.66 174.317C473.48 174.067 473.25 173.937 472.98 173.937C472.29 173.937 471.88 174.757 471.88 176.397ZM472.98 178.837C473.67 178.837 474.08 178.027 474.08 176.397C474.08 175.967 474.05 175.587 473.99 175.267L472.3 178.457C472.48 178.707 472.71 178.837 472.98 178.837Z" fill="black"/>
<path id="340_2" d="M28.5783 178.598C26.9483 178.598 26.1383 177.767 26.0683 176.477L27.5083 176.407C27.5683 177.097 28.0283 177.337 28.6083 177.337C29.2383 177.337 29.7283 177.037 29.7283 176.337C29.7283 175.657 29.2783 175.297 28.5383 175.297H28.0083V174.167H28.5383C29.0983 174.167 29.5083 173.917 29.5083 173.307C29.5083 172.717 29.1583 172.427 28.5983 172.427C27.9783 172.427 27.6783 172.737 27.6183 173.227L26.1783 173.158C26.3183 171.947 27.1483 171.177 28.6083 171.177C30.0683 171.177 30.9683 171.897 30.9683 173.117C30.9683 173.887 30.5683 174.397 29.8183 174.637C30.6883 174.887 31.1883 175.537 31.1883 176.437C31.1883 177.778 30.1783 178.598 28.5783 178.598ZM35.0744 178.438V177.017H31.9044V175.847L34.8844 171.337H36.5044V175.777H37.3444V177.017H36.5044V178.438H35.0744ZM33.2444 175.777H35.0744V173.127L33.2444 175.777ZM40.6205 178.598C39.0205 178.598 38.0605 177.188 38.0605 174.897C38.0605 172.597 39.0205 171.177 40.6205 171.177C42.2205 171.177 43.1805 172.597 43.1805 174.897C43.1805 177.188 42.2205 178.598 40.6205 178.598ZM39.5205 174.897C39.5205 175.327 39.5505 175.697 39.6105 176.007L41.3005 172.817C41.1205 172.567 40.8905 172.437 40.6205 172.437C39.9305 172.437 39.5205 173.257 39.5205 174.897ZM40.6205 177.337C41.3105 177.337 41.7205 176.527 41.7205 174.897C41.7205 174.467 41.6905 174.087 41.6305 173.767L39.9405 176.957C40.1205 177.207 40.3505 177.337 40.6205 177.337Z" fill="black"/>
</g>
<path id="field" d="M202.894 448.623L7.65378 184.947L188.878 3.2793H312.5L493.281 184.947L297.117 448.631C273.973 480.855 226.032 480.851 202.894 448.623Z" fill="#BA0021" fill-opacity="0.1" fill="none" stroke="#BA0021" stroke-width="1.002"/>
</g>
<defs>
<clipPath id="clip0_111_4573">
<rect width="500" height="469.94" fill="white"/>
</clipPath>
</defs>
</svg>
