<svg width="500" height="470" viewBox="0 0 500 470" fill="none" xmlns="http://www.w3.org/2000/svg">
<g id="kansas-city-municipal-stadium-1956" clip-path="url(#clip0_91_1957)">
<g id="Infield">
<path d="M339.98 327.765C339.453 325.665 322.032 258.478 250.83 258.478C180.238 258.478 162.505 324.537 161.697 327.698C161.677 327.775 161.668 327.815 161.668 327.815L236.504 402.652C235.305 404.911 234.623 407.488 234.623 410.237C234.623 419.185 241.873 426.444 250.83 426.444C259.778 426.444 267.037 419.185 267.037 410.237C267.037 407.488 266.356 404.911 265.157 402.656L260.695 397.374C257.96 395.277 254.544 394.025 250.83 394.025C247.117 394.025 243.701 395.277 240.971 397.369L197.7 354.099C201.448 350.352 201.448 344.276 197.7 340.529C197.698 340.526 197.694 340.524 197.691 340.521L244.055 294.037C247.8 297.772 253.861 297.772 257.606 294.037L303.431 339.983C303.431 339.983 303.427 339.984 303.424 339.987C299.677 343.735 300.275 350.299 304.022 354.046L260.695 397.374L265.157 402.656L339.98 327.765Z" fill="#D2D2D2"/>
<path d="M259.91 345.705C259.91 350.72 255.845 354.786 250.83 354.786C245.815 354.786 241.75 350.72 241.75 345.705C241.75 340.69 245.815 336.625 250.83 336.625C255.845 336.625 259.91 340.69 259.91 345.705Z" fill="#D2D2D2"/>
</g>
<g id="Guides">
<g id="Home">
<circle id="Ellipse 1" cx="250.827" cy="410.42" r="16.0848" fill="#D2D2D2"/>
<circle id="Ellipse 1_2" cx="250.827" cy="410.42" r="1.62919" fill="black"/>
</g>
<g id="First">
<circle id="Ellipse 1_3" cx="311.125" cy="346.532" r="10.1878" fill="#D2D2D2"/>
<circle id="Ellipse 1_4" cx="311.125" cy="346.532" r="1.0319" fill="black"/>
</g>
<g id="Third">
<circle id="Ellipse 1_5" cx="190.34" cy="346.532" r="10.1878" fill="#D2D2D2"/>
<circle id="Ellipse 1_6" cx="190.34" cy="346.532" r="1.0319" fill="black"/>
</g>
<g id="Second">
<circle id="Ellipse 1_7" cx="250.827" cy="286.67" r="10.1878" fill="#D2D2D2"/>
<circle id="Ellipse 1_8" cx="250.827" cy="286.671" r="1.0319" fill="black"/>
</g>
<g id="Mound">
<circle id="Ellipse 1_9" cx="250.827" cy="345.928" r="9.08365" fill="#D2D2D2"/>
<circle id="Ellipse 1_10" cx="250.827" cy="345.929" r="0.920062" fill="black"/>
</g>
</g>
<path id="Foul Lines" d="M496.486 165.005L250.976 410.516L22.6594 182.199" fill="none" stroke="black" stroke-width="1.002"/>
<g id="Measurements">
<path id="353" d="M473.158 171.406C471.528 171.406 470.718 170.576 470.648 169.286L472.088 169.216C472.148 169.906 472.608 170.146 473.188 170.146C473.818 170.146 474.308 169.846 474.308 169.146C474.308 168.466 473.858 168.106 473.118 168.106H472.588V166.976H473.118C473.678 166.976 474.088 166.726 474.088 166.116C474.088 165.526 473.738 165.236 473.178 165.236C472.558 165.236 472.258 165.546 472.198 166.036L470.758 165.966C470.898 164.756 471.728 163.986 473.188 163.986C474.648 163.986 475.548 164.706 475.548 165.926C475.548 166.696 475.148 167.206 474.398 167.446C475.268 167.696 475.768 168.346 475.768 169.246C475.768 170.586 474.758 171.406 473.158 171.406ZM479.194 171.406C477.694 171.406 476.784 170.516 476.684 169.346L478.144 169.266C478.234 169.846 478.584 170.146 479.194 170.146C479.854 170.146 480.264 169.726 480.264 168.916C480.264 168.126 479.844 167.666 479.204 167.666C478.764 167.666 478.394 167.926 478.254 168.286L476.784 168.216L477.204 164.146H481.394V165.426H478.374L478.194 166.956C478.524 166.676 478.964 166.516 479.444 166.516C480.854 166.516 481.724 167.536 481.724 168.926C481.724 170.396 480.724 171.406 479.194 171.406ZM485.15 171.406C483.52 171.406 482.71 170.576 482.64 169.286L484.08 169.216C484.14 169.906 484.6 170.146 485.18 170.146C485.81 170.146 486.3 169.846 486.3 169.146C486.3 168.466 485.85 168.106 485.11 168.106H484.58V166.976H485.11C485.67 166.976 486.08 166.726 486.08 166.116C486.08 165.526 485.73 165.236 485.17 165.236C484.55 165.236 484.25 165.546 484.19 166.036L482.75 165.966C482.89 164.756 483.72 163.986 485.18 163.986C486.64 163.986 487.54 164.706 487.54 165.926C487.54 166.696 487.14 167.206 486.39 167.446C487.26 167.696 487.76 168.346 487.76 169.246C487.76 170.586 486.75 171.406 485.15 171.406Z" fill="black"/>
<path id="382" d="M363.584 51.9149C361.954 51.9149 361.144 51.0849 361.074 49.7949L362.514 49.7249C362.574 50.4149 363.034 50.6549 363.614 50.6549C364.244 50.6549 364.734 50.3549 364.734 49.6549C364.734 48.9749 364.284 48.6149 363.544 48.6149H363.014V47.4849H363.544C364.104 47.4849 364.514 47.2349 364.514 46.6249C364.514 46.0349 364.164 45.7449 363.604 45.7449C362.984 45.7449 362.684 46.0549 362.624 46.5449L361.184 46.4749C361.324 45.2649 362.154 44.4949 363.614 44.4949C365.074 44.4949 365.974 45.2149 365.974 46.4349C365.974 47.2049 365.574 47.7149 364.824 47.9549C365.694 48.2049 366.194 48.8549 366.194 49.7549C366.194 51.0949 365.184 51.9149 363.584 51.9149ZM369.63 51.9149C368.06 51.9149 367.01 51.1949 367.01 49.8149C367.01 48.8849 367.55 48.2249 368.42 47.9449C367.75 47.6849 367.3 47.1949 367.3 46.4549C367.3 45.3149 368.23 44.4949 369.63 44.4949C371.03 44.4949 371.96 45.3149 371.96 46.4549C371.96 47.1949 371.51 47.6849 370.83 47.9449C371.71 48.2249 372.25 48.8849 372.25 49.8149C372.25 51.1949 371.2 51.9149 369.63 51.9149ZM369.63 47.3749C370.14 47.3749 370.49 47.1049 370.49 46.5449C370.49 46.0449 370.15 45.7549 369.63 45.7549C369.11 45.7549 368.77 46.0449 368.77 46.5449C368.77 47.1049 369.12 47.3749 369.63 47.3749ZM369.63 50.6549C370.27 50.6549 370.79 50.3749 370.79 49.6749C370.79 49.0049 370.36 48.5849 369.63 48.5849C368.9 48.5849 368.47 49.0049 368.47 49.6749C368.47 50.3749 368.99 50.6549 369.63 50.6549ZM373.066 51.7549C373.066 50.0249 373.646 49.0149 375.626 47.9949C376.356 47.6149 376.716 47.3349 376.716 46.6849C376.716 46.1149 376.386 45.7549 375.756 45.7549C375.036 45.7549 374.686 46.1749 374.566 46.9349L373.096 46.8449C373.236 45.3949 374.146 44.4949 375.776 44.4949C377.366 44.4949 378.186 45.3449 378.186 46.6049C378.186 47.7449 377.696 48.3049 376.296 49.0649C375.146 49.6849 374.736 50.1149 374.696 50.4749H378.186V51.7549H373.066Z" fill="black"/>
<path id="375" d="M111.959 73.9784C110.329 73.9784 109.519 73.1484 109.449 71.8584L110.889 71.7884C110.949 72.4784 111.409 72.7184 111.989 72.7184C112.619 72.7184 113.109 72.4184 113.109 71.7184C113.109 71.0384 112.659 70.6784 111.919 70.6784H111.389V69.5484H111.919C112.479 69.5484 112.889 69.2984 112.889 68.6884C112.889 68.0984 112.539 67.8084 111.979 67.8084C111.359 67.8084 111.059 68.1184 110.999 68.6084L109.559 68.5384C109.699 67.3284 110.529 66.5584 111.989 66.5584C113.449 66.5584 114.349 67.2784 114.349 68.4984C114.349 69.2684 113.949 69.7784 113.199 70.0184C114.069 70.2684 114.569 70.9184 114.569 71.8184C114.569 73.1584 113.559 73.9784 111.959 73.9784ZM116.675 73.8184C116.675 71.6684 117.575 69.7084 119.045 67.9984H115.545V66.7184H120.465V67.9284C118.835 69.7884 118.165 71.3784 118.165 73.8184H116.675ZM123.991 73.9784C122.491 73.9784 121.581 73.0884 121.481 71.9184L122.941 71.8384C123.031 72.4184 123.381 72.7184 123.991 72.7184C124.651 72.7184 125.061 72.2984 125.061 71.4884C125.061 70.6984 124.641 70.2384 124.001 70.2384C123.561 70.2384 123.191 70.4984 123.051 70.8584L121.581 70.7884L122.001 66.7184H126.191V67.9984H123.171L122.991 69.5284C123.321 69.2484 123.761 69.0884 124.241 69.0884C125.651 69.0884 126.521 70.1084 126.521 71.4984C126.521 72.9684 125.521 73.9784 123.991 73.9784Z" fill="black"/>
<path id="330" d="M33.1518 184.598C31.5218 184.598 30.7118 183.768 30.6418 182.478L32.0818 182.408C32.1418 183.098 32.6018 183.338 33.1818 183.338C33.8118 183.338 34.3018 183.038 34.3018 182.338C34.3018 181.658 33.8518 181.298 33.1118 181.298H32.5818V180.168H33.1118C33.6718 180.168 34.0818 179.918 34.0818 179.308C34.0818 178.718 33.7318 178.428 33.1718 178.428C32.5518 178.428 32.2518 178.738 32.1918 179.228L30.7518 179.158C30.8918 177.948 31.7218 177.178 33.1818 177.178C34.6418 177.178 35.5418 177.898 35.5418 179.118C35.5418 179.888 35.1418 180.398 34.3918 180.638C35.2618 180.888 35.7618 181.538 35.7618 182.438C35.7618 183.778 34.7518 184.598 33.1518 184.598ZM39.1479 184.598C37.5179 184.598 36.7079 183.768 36.6379 182.478L38.0779 182.408C38.1379 183.098 38.5979 183.338 39.1779 183.338C39.8079 183.338 40.2979 183.038 40.2979 182.338C40.2979 181.658 39.8479 181.298 39.1079 181.298H38.5779V180.168H39.1079C39.6679 180.168 40.0779 179.918 40.0779 179.308C40.0779 178.718 39.7279 178.428 39.1679 178.428C38.5479 178.428 38.2479 178.738 38.1879 179.228L36.7479 179.158C36.8879 177.948 37.7179 177.178 39.1779 177.178C40.6379 177.178 41.5379 177.898 41.5379 179.118C41.5379 179.888 41.1379 180.398 40.3879 180.638C41.2579 180.888 41.7579 181.538 41.7579 182.438C41.7579 183.778 40.7479 184.598 39.1479 184.598ZM45.194 184.598C43.594 184.598 42.634 183.188 42.634 180.898C42.634 178.598 43.594 177.178 45.194 177.178C46.794 177.178 47.754 178.598 47.754 180.898C47.754 183.188 46.794 184.598 45.194 184.598ZM44.094 180.898C44.094 181.328 44.124 181.698 44.184 182.008L45.874 178.818C45.694 178.568 45.464 178.438 45.194 178.438C44.504 178.438 44.094 179.258 44.094 180.898ZM45.194 183.338C45.884 183.338 46.294 182.528 46.294 180.898C46.294 180.468 46.264 180.088 46.204 179.768L44.514 182.958C44.694 183.208 44.924 183.338 45.194 183.338Z" fill="black"/>
</g>
<path id="field" d="M412.594 332.696L485.642 176.626L496.382 182.827V164.766L318.736 19.6892C276.983 -14.4089 216.192 -11.3491 178.073 26.7692L22.0165 182.827L85.8998 329.731L145.469 388.498L138.461 395.506L203.22 460.883C229.348 487.261 271.944 487.362 298.197 461.109L363.8 395.506L356.792 388.498L412.594 332.696Z" fill="#00843D" fill-opacity="0.1" fill="none" stroke="#00843D" stroke-width="1.002"/>
</g>
<defs>
<clipPath id="clip0_91_1957">
<rect width="500" height="469.94" fill="white"/>
</clipPath>
</defs>
</svg>
