<svg width="500" height="470" viewBox="0 0 500 470" fill="none" xmlns="http://www.w3.org/2000/svg">
<g id="kansas-city-municipal-stadium-1923" clip-path="url(#clip0_91_1900)">
<g id="Infield">
<path d="M339.98 327.765C339.453 325.665 322.032 258.478 250.83 258.478C180.238 258.478 162.505 324.537 161.697 327.698C161.677 327.775 161.668 327.815 161.668 327.815L236.504 402.652C235.305 404.911 234.623 407.488 234.623 410.237C234.623 419.185 241.873 426.444 250.83 426.444C259.778 426.444 267.037 419.185 267.037 410.237C267.037 407.488 266.356 404.911 265.156 402.656L260.695 397.374C257.96 395.277 254.544 394.025 250.83 394.025C247.117 394.025 243.701 395.277 240.971 397.369L197.7 354.099C201.448 350.352 201.448 344.276 197.7 340.529C197.698 340.526 197.694 340.524 197.691 340.521L244.055 294.037C247.8 297.772 253.861 297.772 257.606 294.037L303.431 339.983C303.431 339.983 303.427 339.984 303.424 339.987C299.677 343.735 300.275 350.299 304.022 354.046L260.695 397.374L265.156 402.656L339.98 327.765Z" fill="#D2D2D2"/>
<path d="M259.91 345.705C259.91 350.72 255.845 354.786 250.83 354.786C245.815 354.786 241.75 350.72 241.75 345.705C241.75 340.69 245.815 336.625 250.83 336.625C255.845 336.625 259.91 340.69 259.91 345.705Z" fill="#D2D2D2"/>
</g>
<g id="Guides">
<g id="Home">
<circle id="Ellipse 1" cx="250.827" cy="410.42" r="16.0848" fill="#D2D2D2"/>
<circle id="Ellipse 1_2" cx="250.827" cy="410.42" r="1.62919" fill="black"/>
</g>
<g id="First">
<circle id="Ellipse 1_3" cx="311.125" cy="346.532" r="10.1878" fill="#D2D2D2"/>
<circle id="Ellipse 1_4" cx="311.125" cy="346.532" r="1.0319" fill="black"/>
</g>
<g id="Third">
<circle id="Ellipse 1_5" cx="190.34" cy="346.532" r="10.1878" fill="#D2D2D2"/>
<circle id="Ellipse 1_6" cx="190.34" cy="346.532" r="1.0319" fill="black"/>
</g>
<g id="Second">
<circle id="Ellipse 1_7" cx="250.827" cy="286.67" r="10.1878" fill="#D2D2D2"/>
<circle id="Ellipse 1_8" cx="250.827" cy="286.671" r="1.0319" fill="black"/>
</g>
<g id="Mound">
<circle id="Ellipse 1_9" cx="250.827" cy="345.928" r="9.08365" fill="#D2D2D2"/>
<circle id="Ellipse 1_10" cx="250.827" cy="345.929" r="0.920062" fill="black"/>
</g>
</g>
<path id="Foul Lines" d="M520.035 141.456L250.976 410.516L-6.5979 152.942" fill="none" stroke="black" stroke-width="1.002"/>
<g id="Measurements">
<path id="390" d="M494.938 145.098C493.308 145.098 492.498 144.268 492.428 142.978L493.868 142.908C493.928 143.598 494.388 143.838 494.968 143.838C495.598 143.838 496.088 143.538 496.088 142.838C496.088 142.158 495.638 141.798 494.898 141.798H494.368V140.668H494.898C495.458 140.668 495.868 140.418 495.868 139.808C495.868 139.218 495.518 138.928 494.958 138.928C494.338 138.928 494.038 139.238 493.978 139.728L492.538 139.658C492.678 138.448 493.508 137.678 494.968 137.678C496.428 137.678 497.328 138.398 497.328 139.618C497.328 140.388 496.928 140.898 496.178 141.138C497.048 141.388 497.548 142.038 497.548 142.938C497.548 144.278 496.538 145.098 494.938 145.098ZM500.964 137.678C502.694 137.678 503.604 138.848 503.604 140.908C503.604 143.258 502.794 145.098 500.704 145.098C499.304 145.098 498.654 144.338 498.394 143.318L499.834 143.218C499.934 143.578 500.164 143.838 500.704 143.838C501.444 143.838 501.964 143.328 502.124 142.108C501.784 142.408 501.304 142.628 500.674 142.628C499.264 142.628 498.364 141.678 498.364 140.248C498.364 138.668 499.394 137.678 500.964 137.678ZM500.994 138.958C500.244 138.958 499.824 139.398 499.824 140.198C499.824 140.938 500.204 141.418 500.934 141.418C501.674 141.418 502.144 140.928 502.144 140.188C502.144 139.508 501.724 138.958 500.994 138.958ZM506.98 145.098C505.38 145.098 504.42 143.688 504.42 141.398C504.42 139.098 505.38 137.678 506.98 137.678C508.58 137.678 509.54 139.098 509.54 141.398C509.54 143.688 508.58 145.098 506.98 145.098ZM505.88 141.398C505.88 141.828 505.91 142.198 505.97 142.508L507.66 139.318C507.48 139.068 507.25 138.938 506.98 138.938C506.29 138.938 505.88 139.758 505.88 141.398ZM506.98 143.838C507.67 143.838 508.08 143.028 508.08 141.398C508.08 140.968 508.05 140.588 507.99 140.268L506.3 143.458C506.48 143.708 506.71 143.838 506.98 143.838Z" fill="black"/>
<path id="363" d="M6.57827 157.598C4.94827 157.598 4.13827 156.768 4.06827 155.478L5.50827 155.408C5.56827 156.098 6.02827 156.338 6.60827 156.338C7.23827 156.338 7.72827 156.038 7.72827 155.338C7.72827 154.658 7.27827 154.298 6.53827 154.298H6.00827V153.168H6.53827C7.09827 153.168 7.50827 152.918 7.50827 152.308C7.50827 151.718 7.15827 151.428 6.59827 151.428C5.97827 151.428 5.67827 151.738 5.61827 152.228L4.17827 152.158C4.31827 150.948 5.14827 150.178 6.60827 150.178C8.06827 150.178 8.96827 150.898 8.96827 152.118C8.96827 152.888 8.56827 153.398 7.81827 153.638C8.68827 153.888 9.18827 154.538 9.18827 155.438C9.18827 156.778 8.17827 157.598 6.57827 157.598ZM12.6444 157.598C10.9144 157.598 10.0044 156.428 10.0044 154.368C10.0044 152.018 10.8144 150.178 12.9044 150.178C14.3044 150.178 14.9544 150.938 15.2144 151.958L13.7744 152.058C13.6744 151.698 13.4444 151.438 12.9044 151.438C12.1644 151.438 11.6444 151.948 11.4844 153.168C11.8244 152.868 12.3044 152.648 12.9344 152.648C14.3444 152.648 15.2444 153.598 15.2444 155.028C15.2444 156.608 14.2144 157.598 12.6444 157.598ZM12.6144 156.318C13.3644 156.318 13.7844 155.878 13.7844 155.078C13.7844 154.338 13.4044 153.858 12.6744 153.858C11.9344 153.858 11.4644 154.348 11.4644 155.088C11.4644 155.768 11.8844 156.318 12.6144 156.318ZM18.5705 157.598C16.9405 157.598 16.1305 156.768 16.0605 155.478L17.5005 155.408C17.5605 156.098 18.0205 156.338 18.6005 156.338C19.2305 156.338 19.7205 156.038 19.7205 155.338C19.7205 154.658 19.2705 154.298 18.5305 154.298H18.0005V153.168H18.5305C19.0905 153.168 19.5005 152.918 19.5005 152.308C19.5005 151.718 19.1505 151.428 18.5905 151.428C17.9705 151.428 17.6705 151.738 17.6105 152.228L16.1705 152.158C16.3105 150.948 17.1405 150.178 18.6005 150.178C20.0605 150.178 20.9605 150.898 20.9605 152.118C20.9605 152.888 20.5605 153.398 19.8105 153.638C20.6805 153.888 21.1805 154.538 21.1805 155.438C21.1805 156.778 20.1705 157.598 18.5705 157.598Z" fill="black"/>
</g>
<path id="field" d="M262.874 -116.39L520.81 141.547L494.408 176.48L424.541 330.429L300.545 453.558C272.767 481.143 227.902 481.037 200.254 453.323L77.6478 330.429L-8.87256 154.951L262.874 -116.39Z" fill="#A31330" fill-opacity="0.1" fill="none" stroke="#A31330" stroke-width="1.002"/>
</g>
<defs>
<clipPath id="clip0_91_1900">
<rect width="500" height="469.94" fill="white"/>
</clipPath>
</defs>
</svg>
