<svg width="500" height="470" viewBox="0 0 500 470" fill="none" xmlns="http://www.w3.org/2000/svg">
<g id="kansas-city-municipal-stadium-1969" clip-path="url(#clip0_91_1961)">
<g id="Infield">
<path d="M339.98 327.765C339.453 325.665 322.032 258.478 250.83 258.478C180.238 258.478 162.505 324.537 161.697 327.698C161.677 327.775 161.668 327.815 161.668 327.815L236.504 402.652C235.305 404.911 234.623 407.488 234.623 410.237C234.623 419.185 241.873 426.444 250.83 426.444C259.778 426.444 267.037 419.185 267.037 410.237C267.037 407.488 266.356 404.911 265.157 402.656L260.695 397.374C257.96 395.277 254.544 394.025 250.83 394.025C247.117 394.025 243.701 395.277 240.971 397.369L197.7 354.099C201.448 350.352 201.448 344.276 197.7 340.529C197.698 340.526 197.694 340.524 197.691 340.521L244.055 294.037C247.8 297.772 253.861 297.772 257.606 294.037L303.431 339.983C303.431 339.983 303.427 339.984 303.424 339.987C299.677 343.735 300.275 350.299 304.022 354.046L260.695 397.374L265.157 402.656L339.98 327.765Z" fill="#D2D2D2"/>
<path d="M259.91 345.705C259.91 350.72 255.845 354.786 250.83 354.786C245.815 354.786 241.75 350.72 241.75 345.705C241.75 340.69 245.815 336.625 250.83 336.625C255.845 336.625 259.91 340.69 259.91 345.705Z" fill="#D2D2D2"/>
</g>
<g id="Guides">
<g id="Home">
<circle id="Ellipse 1" cx="250.827" cy="410.42" r="16.0848" fill="#D2D2D2"/>
<circle id="Ellipse 1_2" cx="250.827" cy="410.42" r="1.62919" fill="black"/>
</g>
<g id="First">
<circle id="Ellipse 1_3" cx="311.125" cy="346.532" r="10.1878" fill="#D2D2D2"/>
<circle id="Ellipse 1_4" cx="311.125" cy="346.532" r="1.0319" fill="black"/>
</g>
<g id="Third">
<circle id="Ellipse 1_5" cx="190.34" cy="346.532" r="10.1878" fill="#D2D2D2"/>
<circle id="Ellipse 1_6" cx="190.34" cy="346.532" r="1.0319" fill="black"/>
</g>
<g id="Second">
<circle id="Ellipse 1_7" cx="250.827" cy="286.67" r="10.1878" fill="#D2D2D2"/>
<circle id="Ellipse 1_8" cx="250.827" cy="286.671" r="1.0319" fill="black"/>
</g>
<g id="Mound">
<circle id="Ellipse 1_9" cx="250.827" cy="345.928" r="9.08365" fill="#D2D2D2"/>
<circle id="Ellipse 1_10" cx="250.827" cy="345.929" r="0.920062" fill="black"/>
</g>
</g>
<path id="Foul Lines" d="M486.267 175.224L250.976 410.516L-3.14062 156.399" fill="none" stroke="black" stroke-width="1.002"/>
<g id="Measurements">
<path id="338" d="M468.341 171.931C466.711 171.931 465.901 171.101 465.831 169.811L467.271 169.741C467.331 170.431 467.791 170.671 468.371 170.671C469.001 170.671 469.491 170.371 469.491 169.671C469.491 168.991 469.041 168.631 468.301 168.631H467.771V167.501H468.301C468.861 167.501 469.271 167.251 469.271 166.641C469.271 166.051 468.921 165.761 468.361 165.761C467.741 165.761 467.441 166.071 467.381 166.561L465.941 166.491C466.081 165.281 466.911 164.511 468.371 164.511C469.831 164.511 470.731 165.231 470.731 166.451C470.731 167.221 470.331 167.731 469.581 167.971C470.451 168.221 470.951 168.871 470.951 169.771C470.951 171.111 469.941 171.931 468.341 171.931ZM474.337 171.931C472.707 171.931 471.897 171.101 471.827 169.811L473.267 169.741C473.327 170.431 473.787 170.671 474.367 170.671C474.997 170.671 475.487 170.371 475.487 169.671C475.487 168.991 475.037 168.631 474.297 168.631H473.767V167.501H474.297C474.857 167.501 475.267 167.251 475.267 166.641C475.267 166.051 474.917 165.761 474.357 165.761C473.737 165.761 473.437 166.071 473.377 166.561L471.937 166.491C472.077 165.281 472.907 164.511 474.367 164.511C475.827 164.511 476.727 165.231 476.727 166.451C476.727 167.221 476.327 167.731 475.577 167.971C476.447 168.221 476.947 168.871 476.947 169.771C476.947 171.111 475.937 171.931 474.337 171.931ZM480.383 171.931C478.813 171.931 477.763 171.211 477.763 169.831C477.763 168.901 478.303 168.241 479.173 167.961C478.503 167.701 478.053 167.211 478.053 166.471C478.053 165.331 478.983 164.511 480.383 164.511C481.783 164.511 482.713 165.331 482.713 166.471C482.713 167.211 482.263 167.701 481.583 167.961C482.463 168.241 483.003 168.901 483.003 169.831C483.003 171.211 481.953 171.931 480.383 171.931ZM480.383 167.391C480.893 167.391 481.243 167.121 481.243 166.561C481.243 166.061 480.903 165.771 480.383 165.771C479.863 165.771 479.523 166.061 479.523 166.561C479.523 167.121 479.873 167.391 480.383 167.391ZM480.383 170.671C481.023 170.671 481.543 170.391 481.543 169.691C481.543 169.021 481.113 168.601 480.383 168.601C479.653 168.601 479.223 169.021 479.223 169.691C479.223 170.391 479.743 170.671 480.383 170.671Z" fill="black"/>
<path id="382" d="M366.638 54.828C365.008 54.828 364.198 53.998 364.128 52.708L365.568 52.638C365.628 53.328 366.088 53.568 366.668 53.568C367.298 53.568 367.788 53.268 367.788 52.568C367.788 51.888 367.338 51.528 366.598 51.528H366.068V50.398H366.598C367.158 50.398 367.568 50.148 367.568 49.538C367.568 48.948 367.218 48.658 366.658 48.658C366.038 48.658 365.738 48.968 365.678 49.458L364.238 49.388C364.378 48.178 365.208 47.408 366.668 47.408C368.128 47.408 369.028 48.128 369.028 49.348C369.028 50.118 368.628 50.628 367.878 50.868C368.748 51.118 369.248 51.768 369.248 52.668C369.248 54.008 368.238 54.828 366.638 54.828ZM372.685 54.828C371.115 54.828 370.065 54.108 370.065 52.728C370.065 51.798 370.605 51.138 371.475 50.858C370.805 50.598 370.355 50.108 370.355 49.368C370.355 48.228 371.285 47.408 372.685 47.408C374.085 47.408 375.015 48.228 375.015 49.368C375.015 50.108 374.565 50.598 373.885 50.858C374.765 51.138 375.305 51.798 375.305 52.728C375.305 54.108 374.255 54.828 372.685 54.828ZM372.685 50.288C373.195 50.288 373.545 50.018 373.545 49.458C373.545 48.958 373.205 48.668 372.685 48.668C372.165 48.668 371.825 48.958 371.825 49.458C371.825 50.018 372.175 50.288 372.685 50.288ZM372.685 53.568C373.325 53.568 373.845 53.288 373.845 52.588C373.845 51.918 373.415 51.498 372.685 51.498C371.955 51.498 371.525 51.918 371.525 52.588C371.525 53.288 372.045 53.568 372.685 53.568ZM376.121 54.668C376.121 52.938 376.701 51.928 378.681 50.908C379.411 50.528 379.771 50.248 379.771 49.598C379.771 49.028 379.441 48.668 378.811 48.668C378.091 48.668 377.741 49.088 377.621 49.848L376.151 49.758C376.291 48.308 377.201 47.408 378.831 47.408C380.421 47.408 381.241 48.258 381.241 49.518C381.241 50.658 380.751 51.218 379.351 51.978C378.201 52.598 377.791 53.028 377.751 53.388H381.241V54.668H376.121Z" fill="black"/>
<path id="408" d="M106.532 27.8828V26.4628H103.362V25.2928L106.342 20.7828H107.962V25.2228H108.802V26.4628H107.962V27.8828H106.532ZM104.702 25.2228H106.532V22.5728L104.702 25.2228ZM112.078 28.0428C110.478 28.0428 109.518 26.6328 109.518 24.3428C109.518 22.0428 110.478 20.6228 112.078 20.6228C113.678 20.6228 114.638 22.0428 114.638 24.3428C114.638 26.6328 113.678 28.0428 112.078 28.0428ZM110.978 24.3428C110.978 24.7728 111.008 25.1428 111.068 25.4528L112.758 22.2628C112.578 22.0128 112.348 21.8828 112.078 21.8828C111.388 21.8828 110.978 22.7028 110.978 24.3428ZM112.078 26.7828C112.768 26.7828 113.178 25.9728 113.178 24.3428C113.178 23.9128 113.148 23.5328 113.088 23.2128L111.398 26.4028C111.578 26.6528 111.808 26.7828 112.078 26.7828ZM118.074 28.0428C116.504 28.0428 115.454 27.3228 115.454 25.9428C115.454 25.0128 115.994 24.3528 116.864 24.0728C116.194 23.8128 115.744 23.3228 115.744 22.5828C115.744 21.4428 116.674 20.6228 118.074 20.6228C119.474 20.6228 120.404 21.4428 120.404 22.5828C120.404 23.3228 119.954 23.8128 119.274 24.0728C120.154 24.3528 120.694 25.0128 120.694 25.9428C120.694 27.3228 119.644 28.0428 118.074 28.0428ZM118.074 23.5028C118.584 23.5028 118.934 23.2328 118.934 22.6728C118.934 22.1728 118.594 21.8828 118.074 21.8828C117.554 21.8828 117.214 22.1728 117.214 22.6728C117.214 23.2328 117.564 23.5028 118.074 23.5028ZM118.074 26.7828C118.714 26.7828 119.234 26.5028 119.234 25.8028C119.234 25.1328 118.804 24.7128 118.074 24.7128C117.344 24.7128 116.914 25.1328 116.914 25.8028C116.914 26.5028 117.434 26.7828 118.074 26.7828Z" fill="black"/>
<path id="369" d="M7.15166 159.598C5.52166 159.598 4.71166 158.768 4.64166 157.478L6.08166 157.408C6.14166 158.098 6.60166 158.338 7.18166 158.338C7.81166 158.338 8.30166 158.038 8.30166 157.338C8.30166 156.658 7.85166 156.298 7.11166 156.298H6.58166V155.168H7.11166C7.67166 155.168 8.08166 154.918 8.08166 154.308C8.08166 153.718 7.73166 153.428 7.17166 153.428C6.55166 153.428 6.25166 153.738 6.19166 154.228L4.75166 154.158C4.89166 152.948 5.72166 152.178 7.18166 152.178C8.64166 152.178 9.54166 152.898 9.54166 154.118C9.54166 154.888 9.14166 155.398 8.39166 155.638C9.26166 155.888 9.76166 156.538 9.76166 157.438C9.76166 158.778 8.75166 159.598 7.15166 159.598ZM13.2178 159.598C11.4878 159.598 10.5778 158.428 10.5778 156.368C10.5778 154.018 11.3878 152.178 13.4778 152.178C14.8778 152.178 15.5278 152.938 15.7878 153.958L14.3478 154.058C14.2478 153.698 14.0178 153.438 13.4778 153.438C12.7378 153.438 12.2178 153.948 12.0578 155.168C12.3978 154.868 12.8778 154.648 13.5078 154.648C14.9178 154.648 15.8178 155.598 15.8178 157.028C15.8178 158.608 14.7878 159.598 13.2178 159.598ZM13.1878 158.318C13.9378 158.318 14.3578 157.878 14.3578 157.078C14.3578 156.338 13.9778 155.858 13.2478 155.858C12.5078 155.858 12.0378 156.348 12.0378 157.088C12.0378 157.768 12.4578 158.318 13.1878 158.318ZM19.1738 152.178C20.9038 152.178 21.8138 153.348 21.8138 155.408C21.8138 157.758 21.0038 159.598 18.9138 159.598C17.5138 159.598 16.8638 158.838 16.6038 157.818L18.0438 157.718C18.1438 158.078 18.3738 158.338 18.9138 158.338C19.6538 158.338 20.1738 157.828 20.3338 156.608C19.9938 156.908 19.5138 157.128 18.8838 157.128C17.4738 157.128 16.5738 156.178 16.5738 154.748C16.5738 153.168 17.6038 152.178 19.1738 152.178ZM19.2038 153.458C18.4538 153.458 18.0338 153.898 18.0338 154.698C18.0338 155.438 18.4138 155.918 19.1438 155.918C19.8838 155.918 20.3538 155.428 20.3538 154.688C20.3538 154.008 19.9338 153.458 19.2038 153.458Z" fill="black"/>
</g>
<path id="field" d="M412.594 332.696L485.664 176.388C489.126 168.984 487.164 160.178 480.888 154.943L318.736 19.6891C307.651 8.6044 265.676 -8.98643 231.237 0.241324L123.341 29.1521L-5.82471 158.938L18.0545 182.972L85.8999 329.731L145.469 388.498L138.461 395.506L203.22 460.883C229.348 487.261 271.944 487.362 298.197 461.109L363.8 395.506L356.792 388.498L412.594 332.696Z" fill="#004687" fill-opacity="0.1" fill="none" stroke="#004687" stroke-width="1.002"/>
</g>
<defs>
<clipPath id="clip0_91_1961">
<rect width="500" height="469.94" fill="white"/>
</clipPath>
</defs>
</svg>
