<svg width="500" height="470" viewBox="0 0 500 470" fill="none" xmlns="http://www.w3.org/2000/svg">
<g id="kansas-city-municipal-stadium-1942" clip-path="url(#clip0_91_1930)">
<g id="Infield">
<path d="M339.98 327.765C339.453 325.665 322.032 258.478 250.83 258.478C180.238 258.478 162.505 324.537 161.697 327.698C161.677 327.775 161.668 327.815 161.668 327.815L236.504 402.652C235.305 404.911 234.623 407.488 234.623 410.237C234.623 419.185 241.873 426.444 250.83 426.444C259.778 426.444 267.037 419.185 267.037 410.237C267.037 407.488 266.356 404.911 265.156 402.656L260.695 397.374C257.96 395.277 254.544 394.025 250.83 394.025C247.117 394.025 243.701 395.277 240.971 397.369L197.7 354.099C201.448 350.352 201.448 344.276 197.7 340.529C197.698 340.526 197.694 340.524 197.691 340.521L244.055 294.037C247.8 297.772 253.861 297.772 257.606 294.037L303.431 339.983C303.431 339.983 303.427 339.984 303.424 339.987C299.677 343.735 300.275 350.299 304.022 354.046L260.695 397.374L265.156 402.656L339.98 327.765Z" fill="#D2D2D2"/>
<path d="M259.91 345.705C259.91 350.72 255.845 354.786 250.83 354.786C245.815 354.786 241.75 350.72 241.75 345.705C241.75 340.69 245.815 336.625 250.83 336.625C255.845 336.625 259.91 340.69 259.91 345.705Z" fill="#D2D2D2"/>
</g>
<g id="Guides">
<g id="Home">
<circle id="Ellipse 1" cx="250.827" cy="410.42" r="16.0848" fill="#D2D2D2"/>
<circle id="Ellipse 1_2" cx="250.827" cy="410.42" r="1.62919" fill="black"/>
</g>
<g id="First">
<circle id="Ellipse 1_3" cx="311.125" cy="346.532" r="10.1878" fill="#D2D2D2"/>
<circle id="Ellipse 1_4" cx="311.125" cy="346.532" r="1.0319" fill="black"/>
</g>
<g id="Third">
<circle id="Ellipse 1_5" cx="190.34" cy="346.532" r="10.1878" fill="#D2D2D2"/>
<circle id="Ellipse 1_6" cx="190.34" cy="346.532" r="1.0319" fill="black"/>
</g>
<g id="Second">
<circle id="Ellipse 1_7" cx="250.827" cy="286.67" r="10.1878" fill="#D2D2D2"/>
<circle id="Ellipse 1_8" cx="250.827" cy="286.671" r="1.0319" fill="black"/>
</g>
<g id="Mound">
<circle id="Ellipse 1_9" cx="250.827" cy="345.928" r="9.08365" fill="#D2D2D2"/>
<circle id="Ellipse 1_10" cx="250.827" cy="345.929" r="0.920062" fill="black"/>
</g>
</g>
<path id="Foul Lines" d="M488.196 174.342L250.976 410.516L14.706 174.246" fill="none" stroke="black" stroke-width="1.002"/>
<g id="Measurements">
<path id="350" d="M464.938 178.098C463.308 178.098 462.498 177.268 462.428 175.978L463.868 175.908C463.928 176.598 464.388 176.838 464.968 176.838C465.598 176.838 466.088 176.538 466.088 175.838C466.088 175.158 465.638 174.798 464.898 174.798H464.368V173.668H464.898C465.458 173.668 465.868 173.418 465.868 172.808C465.868 172.218 465.518 171.928 464.958 171.928C464.338 171.928 464.038 172.238 463.978 172.728L462.538 172.658C462.678 171.448 463.508 170.678 464.968 170.678C466.428 170.678 467.328 171.398 467.328 172.618C467.328 173.388 466.928 173.898 466.178 174.138C467.048 174.388 467.548 175.038 467.548 175.938C467.548 177.278 466.538 178.098 464.938 178.098ZM470.974 178.098C469.474 178.098 468.564 177.208 468.464 176.038L469.924 175.958C470.014 176.538 470.364 176.838 470.974 176.838C471.634 176.838 472.044 176.418 472.044 175.608C472.044 174.818 471.624 174.358 470.984 174.358C470.544 174.358 470.174 174.618 470.034 174.978L468.564 174.908L468.984 170.838H473.174V172.118H470.154L469.974 173.648C470.304 173.368 470.744 173.208 471.224 173.208C472.634 173.208 473.504 174.228 473.504 175.618C473.504 177.088 472.504 178.098 470.974 178.098ZM476.98 178.098C475.38 178.098 474.42 176.688 474.42 174.398C474.42 172.098 475.38 170.678 476.98 170.678C478.58 170.678 479.54 172.098 479.54 174.398C479.54 176.688 478.58 178.098 476.98 178.098ZM475.88 174.398C475.88 174.828 475.91 175.198 475.97 175.508L477.66 172.318C477.48 172.068 477.25 171.938 476.98 171.938C476.29 171.938 475.88 172.758 475.88 174.398ZM476.98 176.838C477.67 176.838 478.08 176.028 478.08 174.398C478.08 173.968 478.05 173.588 477.99 173.268L476.3 176.458C476.48 176.708 476.71 176.838 476.98 176.838Z" fill="black"/>
<path id="350_2" d="M24.5724 178.098C22.9424 178.098 22.1324 177.268 22.0624 175.978L23.5024 175.908C23.5624 176.598 24.0224 176.838 24.6024 176.838C25.2324 176.838 25.7224 176.538 25.7224 175.838C25.7224 175.158 25.2724 174.798 24.5324 174.798H24.0024V173.668H24.5324C25.0924 173.668 25.5024 173.418 25.5024 172.808C25.5024 172.218 25.1524 171.928 24.5924 171.928C23.9724 171.928 23.6724 172.238 23.6124 172.728L22.1724 172.658C22.3124 171.448 23.1424 170.678 24.6024 170.678C26.0624 170.678 26.9624 171.398 26.9624 172.618C26.9624 173.388 26.5624 173.898 25.8124 174.138C26.6824 174.388 27.1824 175.038 27.1824 175.938C27.1824 177.278 26.1724 178.098 24.5724 178.098ZM30.6085 178.098C29.1085 178.098 28.1985 177.208 28.0985 176.038L29.5585 175.958C29.6485 176.538 29.9985 176.838 30.6085 176.838C31.2685 176.838 31.6785 176.418 31.6785 175.608C31.6785 174.818 31.2585 174.358 30.6185 174.358C30.1785 174.358 29.8085 174.618 29.6685 174.978L28.1985 174.908L28.6185 170.838H32.8085V172.118H29.7885L29.6085 173.648C29.9385 173.368 30.3785 173.208 30.8585 173.208C32.2685 173.208 33.1385 174.228 33.1385 175.618C33.1385 177.088 32.1385 178.098 30.6085 178.098ZM36.6146 178.098C35.0146 178.098 34.0546 176.688 34.0546 174.398C34.0546 172.098 35.0146 170.678 36.6146 170.678C38.2146 170.678 39.1746 172.098 39.1746 174.398C39.1746 176.688 38.2146 178.098 36.6146 178.098ZM35.5146 174.398C35.5146 174.828 35.5446 175.198 35.6046 175.508L37.2946 172.318C37.1146 172.068 36.8846 171.938 36.6146 171.938C35.9246 171.938 35.5146 172.758 35.5146 174.398ZM36.6146 176.838C37.3046 176.838 37.7146 176.028 37.7146 174.398C37.7146 173.968 37.6846 173.588 37.6246 173.268L35.9346 176.458C36.1146 176.708 36.3446 176.838 36.6146 176.838Z" fill="black"/>
</g>
<path id="field" d="M6.09601 182.726L180.085 9.12951C219.538 -30.2346 283.42 -30.2017 322.832 9.20291L489.565 175.902L423.234 319.602L298.1 443.347C271.106 470.042 227.618 469.915 200.78 443.064L71.3733 313.591L6.09601 182.726Z" fill="#A31330" fill-opacity="0.1" fill="none" stroke="#A31330" stroke-width="1.002"/>
</g>
<defs>
<clipPath id="clip0_91_1930">
<rect width="500" height="469.94" fill="white"/>
</clipPath>
</defs>
</svg>
