<svg width="500" height="470" viewBox="0 0 500 470" fill="none" xmlns="http://www.w3.org/2000/svg">
<g id="kansas-city-municipal-stadium-1965" clip-path="url(#clip0_91_1959)">
<g id="Infield">
<path d="M339.98 327.765C339.453 325.665 322.032 258.478 250.83 258.478C180.238 258.478 162.505 324.537 161.697 327.698C161.677 327.775 161.668 327.815 161.668 327.815L236.504 402.652C235.305 404.911 234.623 407.488 234.623 410.237C234.623 419.185 241.873 426.444 250.83 426.444C259.778 426.444 267.037 419.185 267.037 410.237C267.037 407.488 266.356 404.911 265.157 402.656L260.695 397.374C257.96 395.277 254.544 394.025 250.83 394.025C247.117 394.025 243.701 395.277 240.971 397.369L197.7 354.099C201.448 350.352 201.448 344.276 197.7 340.529C197.698 340.526 197.694 340.524 197.691 340.521L244.055 294.037C247.8 297.772 253.861 297.772 257.606 294.037L303.431 339.983C303.431 339.983 303.427 339.984 303.424 339.987C299.677 343.735 300.275 350.299 304.022 354.046L260.695 397.374L265.157 402.656L339.98 327.765Z" fill="#D2D2D2"/>
<path d="M259.91 345.705C259.91 350.72 255.845 354.786 250.83 354.786C245.815 354.786 241.75 350.72 241.75 345.705C241.75 340.69 245.815 336.625 250.83 336.625C255.845 336.625 259.91 340.69 259.91 345.705Z" fill="#D2D2D2"/>
</g>
<g id="Guides">
<g id="Home">
<circle id="Ellipse 1" cx="250.827" cy="410.42" r="16.0848" fill="#D2D2D2"/>
<circle id="Ellipse 1_2" cx="250.827" cy="410.42" r="1.62919" fill="black"/>
</g>
<g id="First">
<circle id="Ellipse 1_3" cx="311.125" cy="346.532" r="10.1878" fill="#D2D2D2"/>
<circle id="Ellipse 1_4" cx="311.125" cy="346.532" r="1.0319" fill="black"/>
</g>
<g id="Third">
<circle id="Ellipse 1_5" cx="190.34" cy="346.532" r="10.1878" fill="#D2D2D2"/>
<circle id="Ellipse 1_6" cx="190.34" cy="346.532" r="1.0319" fill="black"/>
</g>
<g id="Second">
<circle id="Ellipse 1_7" cx="250.827" cy="286.67" r="10.1878" fill="#D2D2D2"/>
<circle id="Ellipse 1_8" cx="250.827" cy="286.671" r="1.0319" fill="black"/>
</g>
<g id="Mound">
<circle id="Ellipse 1_9" cx="250.827" cy="345.928" r="9.08365" fill="#D2D2D2"/>
<circle id="Ellipse 1_10" cx="250.827" cy="345.929" r="0.920062" fill="black"/>
</g>
</g>
<path id="Foul Lines" d="M476.543 184.948L250.976 410.516L-3.1405 156.399" fill="none" stroke="black" stroke-width="1.002"/>
<g id="Measurements">
<path id="325" d="M452.341 187.931C450.711 187.931 449.901 187.101 449.831 185.811L451.271 185.741C451.331 186.431 451.791 186.671 452.371 186.671C453.001 186.671 453.491 186.371 453.491 185.671C453.491 184.991 453.041 184.631 452.301 184.631H451.771V183.501H452.301C452.861 183.501 453.271 183.251 453.271 182.641C453.271 182.051 452.921 181.761 452.361 181.761C451.741 181.761 451.441 182.071 451.381 182.561L449.941 182.491C450.081 181.281 450.911 180.511 452.371 180.511C453.831 180.511 454.731 181.231 454.731 182.451C454.731 183.221 454.331 183.731 453.581 183.971C454.451 184.221 454.951 184.871 454.951 185.771C454.951 187.111 453.941 187.931 452.341 187.931ZM455.827 187.771C455.827 186.041 456.407 185.031 458.387 184.011C459.117 183.631 459.477 183.351 459.477 182.701C459.477 182.131 459.147 181.771 458.517 181.771C457.797 181.771 457.447 182.191 457.327 182.951L455.857 182.861C455.997 181.411 456.907 180.511 458.537 180.511C460.127 180.511 460.947 181.361 460.947 182.621C460.947 183.761 460.457 184.321 459.057 185.081C457.907 185.701 457.497 186.131 457.457 186.491H460.947V187.771H455.827ZM464.373 187.931C462.873 187.931 461.963 187.041 461.863 185.871L463.323 185.791C463.413 186.371 463.763 186.671 464.373 186.671C465.033 186.671 465.443 186.251 465.443 185.441C465.443 184.651 465.023 184.191 464.383 184.191C463.943 184.191 463.573 184.451 463.433 184.811L461.963 184.741L462.383 180.671H466.573V181.951H463.553L463.373 183.481C463.703 183.201 464.143 183.041 464.623 183.041C466.033 183.041 466.903 184.061 466.903 185.451C466.903 186.921 465.903 187.931 464.373 187.931Z" fill="black"/>
<path id="392" d="M352.638 41.828C351.008 41.828 350.198 40.998 350.128 39.708L351.568 39.638C351.628 40.328 352.088 40.568 352.668 40.568C353.298 40.568 353.788 40.268 353.788 39.568C353.788 38.888 353.338 38.528 352.598 38.528H352.068V37.398H352.598C353.158 37.398 353.568 37.148 353.568 36.538C353.568 35.948 353.218 35.658 352.658 35.658C352.038 35.658 351.738 35.968 351.678 36.458L350.238 36.388C350.378 35.178 351.208 34.408 352.668 34.408C354.128 34.408 355.028 35.128 355.028 36.348C355.028 37.118 354.628 37.628 353.878 37.868C354.748 38.118 355.248 38.768 355.248 39.668C355.248 41.008 354.238 41.828 352.638 41.828ZM358.665 34.408C360.395 34.408 361.305 35.578 361.305 37.638C361.305 39.988 360.495 41.828 358.405 41.828C357.005 41.828 356.355 41.068 356.095 40.048L357.535 39.948C357.635 40.308 357.865 40.568 358.405 40.568C359.145 40.568 359.665 40.058 359.825 38.838C359.485 39.138 359.005 39.358 358.375 39.358C356.965 39.358 356.065 38.408 356.065 36.978C356.065 35.398 357.095 34.408 358.665 34.408ZM358.695 35.688C357.945 35.688 357.525 36.128 357.525 36.928C357.525 37.668 357.905 38.148 358.635 38.148C359.375 38.148 359.845 37.658 359.845 36.918C359.845 36.238 359.425 35.688 358.695 35.688ZM362.121 41.668C362.121 39.938 362.701 38.928 364.681 37.908C365.411 37.528 365.771 37.248 365.771 36.598C365.771 36.028 365.441 35.668 364.811 35.668C364.091 35.668 363.741 36.088 363.621 36.848L362.151 36.758C362.291 35.308 363.201 34.408 364.831 34.408C366.421 34.408 367.241 35.258 367.241 36.518C367.241 37.658 366.751 38.218 365.351 38.978C364.201 39.598 363.791 40.028 363.751 40.388H367.241V41.668H362.121Z" fill="black"/>
<path id="382" d="M66.0324 69.0428C64.4024 69.0428 63.5924 68.2128 63.5224 66.9228L64.9624 66.8528C65.0224 67.5428 65.4824 67.7828 66.0624 67.7828C66.6924 67.7828 67.1824 67.4828 67.1824 66.7828C67.1824 66.1028 66.7324 65.7428 65.9924 65.7428H65.4624V64.6128H65.9924C66.5524 64.6128 66.9624 64.3628 66.9624 63.7528C66.9624 63.1628 66.6124 62.8728 66.0524 62.8728C65.4324 62.8728 65.1324 63.1828 65.0724 63.6728L63.6324 63.6028C63.7724 62.3928 64.6024 61.6228 66.0624 61.6228C67.5224 61.6228 68.4224 62.3428 68.4224 63.5628C68.4224 64.3328 68.0224 64.8428 67.2724 65.0828C68.1424 65.3328 68.6424 65.9828 68.6424 66.8828C68.6424 68.2228 67.6324 69.0428 66.0324 69.0428ZM72.0785 69.0428C70.5085 69.0428 69.4585 68.3228 69.4585 66.9428C69.4585 66.0128 69.9985 65.3528 70.8685 65.0728C70.1985 64.8128 69.7485 64.3228 69.7485 63.5828C69.7485 62.4428 70.6785 61.6228 72.0785 61.6228C73.4785 61.6228 74.4085 62.4428 74.4085 63.5828C74.4085 64.3228 73.9585 64.8128 73.2785 65.0728C74.1585 65.3528 74.6985 66.0128 74.6985 66.9428C74.6985 68.3228 73.6485 69.0428 72.0785 69.0428ZM72.0785 64.5028C72.5885 64.5028 72.9385 64.2328 72.9385 63.6728C72.9385 63.1728 72.5985 62.8828 72.0785 62.8828C71.5585 62.8828 71.2185 63.1728 71.2185 63.6728C71.2185 64.2328 71.5685 64.5028 72.0785 64.5028ZM72.0785 67.7828C72.7185 67.7828 73.2385 67.5028 73.2385 66.8028C73.2385 66.1328 72.8085 65.7128 72.0785 65.7128C71.3485 65.7128 70.9185 66.1328 70.9185 66.8028C70.9185 67.5028 71.4385 67.7828 72.0785 67.7828ZM75.5146 68.8828C75.5146 67.1528 76.0946 66.1428 78.0746 65.1228C78.8046 64.7428 79.1646 64.4628 79.1646 63.8128C79.1646 63.2428 78.8346 62.8828 78.2046 62.8828C77.4846 62.8828 77.1346 63.3028 77.0146 64.0628L75.5446 63.9728C75.6846 62.5228 76.5946 61.6228 78.2246 61.6228C79.8146 61.6228 80.6346 62.4728 80.6346 63.7328C80.6346 64.8728 80.1446 65.4328 78.7446 66.1928C77.5946 66.8128 77.1846 67.2428 77.1446 67.6028H80.6346V68.8828H75.5146Z" fill="black"/>
<path id="370" d="M7.15178 159.598C5.52178 159.598 4.71178 158.768 4.64178 157.478L6.08178 157.408C6.14178 158.098 6.60178 158.338 7.18178 158.338C7.81178 158.338 8.30178 158.038 8.30178 157.338C8.30178 156.658 7.85178 156.298 7.11178 156.298H6.58178V155.168H7.11178C7.67178 155.168 8.08178 154.918 8.08178 154.308C8.08178 153.718 7.73178 153.428 7.17178 153.428C6.55178 153.428 6.25178 153.738 6.19178 154.228L4.75178 154.158C4.89178 152.948 5.72178 152.178 7.18178 152.178C8.64178 152.178 9.54178 152.898 9.54178 154.118C9.54178 154.888 9.14178 155.398 8.39178 155.638C9.26178 155.888 9.76178 156.538 9.76178 157.438C9.76178 158.778 8.75178 159.598 7.15178 159.598ZM11.8679 159.438C11.8679 157.288 12.7679 155.328 14.2379 153.618H10.7379V152.338H15.6579V153.548C14.0279 155.408 13.3579 156.998 13.3579 159.438H11.8679ZM19.194 159.598C17.594 159.598 16.634 158.188 16.634 155.898C16.634 153.598 17.594 152.178 19.194 152.178C20.794 152.178 21.754 153.598 21.754 155.898C21.754 158.188 20.794 159.598 19.194 159.598ZM18.094 155.898C18.094 156.328 18.124 156.698 18.184 157.008L19.874 153.818C19.694 153.568 19.464 153.438 19.194 153.438C18.504 153.438 18.094 154.258 18.094 155.898ZM19.194 158.338C19.884 158.338 20.294 157.528 20.294 155.898C20.294 155.468 20.264 155.088 20.204 154.768L18.514 157.958C18.694 158.208 18.924 158.338 19.194 158.338Z" fill="black"/>
</g>
<path id="field" d="M412.594 332.696L479.757 189.96L406.692 92.8393L318.735 19.6891C307.651 8.6044 265.675 -8.98643 231.237 0.241324L123.34 29.1521L-5.82483 158.938L18.0544 182.972L85.8998 329.731L145.469 388.498L138.461 395.506L203.22 460.883C229.348 487.261 271.943 487.362 298.197 461.109L363.8 395.506L356.792 388.498L412.594 332.696Z" fill="#00843D" fill-opacity="0.1" fill="none" stroke="#00843D" stroke-width="1.002"/>
</g>
<defs>
<clipPath id="clip0_91_1959">
<rect width="500" height="469.94" fill="white"/>
</clipPath>
</defs>
</svg>
