<svg width="500" height="470" viewBox="0 0 500 470" fill="none" xmlns="http://www.w3.org/2000/svg">
<g id="kauffman-stadium-1995" clip-path="url(#clip0_91_1990)">
<g id="Infield">
<path d="M339.98 327.765C339.453 325.665 322.032 258.478 250.83 258.478C180.238 258.478 162.505 324.537 161.697 327.698C161.677 327.775 161.668 327.815 161.668 327.815L236.504 402.652C235.305 404.911 234.623 407.488 234.623 410.237C234.623 419.185 241.873 426.444 250.83 426.444C259.778 426.444 267.037 419.185 267.037 410.237C267.037 407.488 266.356 404.911 265.156 402.656L260.695 397.374C257.96 395.277 254.544 394.025 250.83 394.025C247.117 394.025 243.701 395.277 240.971 397.369L197.7 354.099C201.448 350.352 201.448 344.276 197.7 340.529C197.698 340.526 197.694 340.524 197.691 340.521L244.055 294.037C247.8 297.772 253.861 297.772 257.606 294.037L303.431 339.983C303.431 339.983 303.427 339.984 303.424 339.987C299.677 343.735 300.275 350.299 304.022 354.046L260.695 397.374L265.156 402.656L339.98 327.765Z" fill="#D2D2D2"/>
<path d="M259.91 345.705C259.91 350.72 255.845 354.786 250.83 354.786C245.815 354.786 241.75 350.72 241.75 345.705C241.75 340.69 245.815 336.625 250.83 336.625C255.845 336.625 259.91 340.69 259.91 345.705Z" fill="#D2D2D2"/>
</g>
<g id="Guides">
<g id="Home">
<circle id="Ellipse 1" cx="250.827" cy="410.42" r="16.0848" fill="#D2D2D2"/>
<circle id="Ellipse 1_2" cx="250.827" cy="410.42" r="1.62919" fill="black"/>
</g>
<g id="First">
<circle id="Ellipse 1_3" cx="311.125" cy="346.532" r="10.1878" fill="#D2D2D2"/>
<circle id="Ellipse 1_4" cx="311.125" cy="346.532" r="1.0319" fill="black"/>
</g>
<g id="Third">
<circle id="Ellipse 1_5" cx="190.34" cy="346.532" r="10.1878" fill="#D2D2D2"/>
<circle id="Ellipse 1_6" cx="190.34" cy="346.532" r="1.0319" fill="black"/>
</g>
<g id="Second">
<circle id="Ellipse 1_7" cx="250.827" cy="286.67" r="10.1878" fill="#D2D2D2"/>
<circle id="Ellipse 1_8" cx="250.827" cy="286.671" r="1.0319" fill="black"/>
</g>
<g id="Mound">
<circle id="Ellipse 1_9" cx="250.827" cy="345.928" r="9.08365" fill="#D2D2D2"/>
<circle id="Ellipse 1_10" cx="250.827" cy="345.929" r="0.920062" fill="black"/>
</g>
</g>
<path id="Foul Lines" d="M479.832 181.66L250.976 410.516L21.5708 181.111" fill="none" stroke="black" stroke-width="1.002"/>
<g id="Measurements">
<path id="400" d="M179.203 24.6992V23.2792H176.033V22.1092L179.013 17.5992H180.633V22.0392H181.473V23.2792H180.633V24.6992H179.203ZM177.373 22.0392H179.203V19.3892L177.373 22.0392ZM184.749 24.8592C183.149 24.8592 182.189 23.4492 182.189 21.1592C182.189 18.8592 183.149 17.4392 184.749 17.4392C186.349 17.4392 187.309 18.8592 187.309 21.1592C187.309 23.4492 186.349 24.8592 184.749 24.8592ZM183.649 21.1592C183.649 21.5892 183.679 21.9592 183.739 22.2692L185.429 19.0792C185.249 18.8292 185.019 18.6992 184.749 18.6992C184.059 18.6992 183.649 19.5192 183.649 21.1592ZM184.749 23.5992C185.439 23.5992 185.849 22.7892 185.849 21.1592C185.849 20.7292 185.819 20.3492 185.759 20.0292L184.069 23.2192C184.249 23.4692 184.479 23.5992 184.749 23.5992ZM190.745 24.8592C189.145 24.8592 188.185 23.4492 188.185 21.1592C188.185 18.8592 189.145 17.4392 190.745 17.4392C192.345 17.4392 193.305 18.8592 193.305 21.1592C193.305 23.4492 192.345 24.8592 190.745 24.8592ZM189.645 21.1592C189.645 21.5892 189.675 21.9592 189.735 22.2692L191.425 19.0792C191.245 18.8292 191.015 18.6992 190.745 18.6992C190.055 18.6992 189.645 19.5192 189.645 21.1592ZM190.745 23.5992C191.435 23.5992 191.845 22.7892 191.845 21.1592C191.845 20.7292 191.815 20.3492 191.755 20.0292L190.065 23.2192C190.245 23.4692 190.475 23.5992 190.745 23.5992Z" fill="black"/>
<path id="400_2" d="M314.487 24.6992V23.2792H311.317V22.1092L314.297 17.5992H315.917V22.0392H316.757V23.2792H315.917V24.6992H314.487ZM312.657 22.0392H314.487V19.3892L312.657 22.0392ZM320.033 24.8592C318.433 24.8592 317.473 23.4492 317.473 21.1592C317.473 18.8592 318.433 17.4392 320.033 17.4392C321.633 17.4392 322.593 18.8592 322.593 21.1592C322.593 23.4492 321.633 24.8592 320.033 24.8592ZM318.933 21.1592C318.933 21.5892 318.963 21.9592 319.023 22.2692L320.713 19.0792C320.533 18.8292 320.303 18.6992 320.033 18.6992C319.343 18.6992 318.933 19.5192 318.933 21.1592ZM320.033 23.5992C320.723 23.5992 321.133 22.7892 321.133 21.1592C321.133 20.7292 321.103 20.3492 321.043 20.0292L319.353 23.2192C319.533 23.4692 319.763 23.5992 320.033 23.5992ZM326.029 24.8592C324.429 24.8592 323.469 23.4492 323.469 21.1592C323.469 18.8592 324.429 17.4392 326.029 17.4392C327.629 17.4392 328.589 18.8592 328.589 21.1592C328.589 23.4492 327.629 24.8592 326.029 24.8592ZM324.929 21.1592C324.929 21.5892 324.959 21.9592 325.019 22.2692L326.709 19.0792C326.529 18.8292 326.299 18.6992 326.029 18.6992C325.339 18.6992 324.929 19.5192 324.929 21.1592ZM326.029 23.5992C326.719 23.5992 327.129 22.7892 327.129 21.1592C327.129 20.7292 327.099 20.3492 327.039 20.0292L325.349 23.2192C325.529 23.4692 325.759 23.5992 326.029 23.5992Z" fill="black"/>
<path id="375" d="M89.7148 68.7684C88.0848 68.7684 87.2748 67.9384 87.2048 66.6484L88.6448 66.5784C88.7048 67.2684 89.1648 67.5084 89.7448 67.5084C90.3748 67.5084 90.8648 67.2084 90.8648 66.5084C90.8648 65.8284 90.4148 65.4684 89.6748 65.4684H89.1448V64.3384H89.6748C90.2348 64.3384 90.6448 64.0884 90.6448 63.4784C90.6448 62.8884 90.2948 62.5984 89.7348 62.5984C89.1148 62.5984 88.8148 62.9084 88.7548 63.3984L87.3148 63.3284C87.4548 62.1184 88.2848 61.3484 89.7448 61.3484C91.2048 61.3484 92.1048 62.0684 92.1048 63.2884C92.1048 64.0584 91.7048 64.5684 90.9548 64.8084C91.8248 65.0584 92.3248 65.7084 92.3248 66.6084C92.3248 67.9484 91.3148 68.7684 89.7148 68.7684ZM94.4309 68.6084C94.4309 66.4584 95.3309 64.4984 96.8009 62.7884H93.3009V61.5084H98.2209V62.7184C96.5909 64.5784 95.9209 66.1684 95.9209 68.6084H94.4309ZM101.747 68.7684C100.247 68.7684 99.337 67.8784 99.237 66.7084L100.697 66.6284C100.787 67.2084 101.137 67.5084 101.747 67.5084C102.407 67.5084 102.817 67.0884 102.817 66.2784C102.817 65.4884 102.397 65.0284 101.757 65.0284C101.317 65.0284 100.947 65.2884 100.807 65.6484L99.337 65.5784L99.757 61.5084H103.947V62.7884H100.927L100.747 64.3184C101.077 64.0384 101.517 63.8784 101.997 63.8784C103.407 63.8784 104.277 64.8984 104.277 66.2884C104.277 67.7584 103.277 68.7684 101.747 68.7684Z" fill="black"/>
<path id="375_2" d="M401.651 68.7684C400.021 68.7684 399.211 67.9384 399.141 66.6484L400.581 66.5784C400.641 67.2684 401.101 67.5084 401.681 67.5084C402.311 67.5084 402.801 67.2084 402.801 66.5084C402.801 65.8284 402.351 65.4684 401.611 65.4684H401.081V64.3384H401.611C402.171 64.3384 402.581 64.0884 402.581 63.4784C402.581 62.8884 402.231 62.5984 401.671 62.5984C401.051 62.5984 400.751 62.9084 400.691 63.3984L399.251 63.3284C399.391 62.1184 400.221 61.3484 401.681 61.3484C403.141 61.3484 404.041 62.0684 404.041 63.2884C404.041 64.0584 403.641 64.5684 402.891 64.8084C403.761 65.0584 404.261 65.7084 404.261 66.6084C404.261 67.9484 403.251 68.7684 401.651 68.7684ZM406.367 68.6084C406.367 66.4584 407.267 64.4984 408.737 62.7884H405.237V61.5084H410.157V62.7184C408.527 64.5784 407.857 66.1684 407.857 68.6084H406.367ZM413.683 68.7684C412.183 68.7684 411.273 67.8784 411.173 66.7084L412.633 66.6284C412.723 67.2084 413.073 67.5084 413.683 67.5084C414.343 67.5084 414.753 67.0884 414.753 66.2784C414.753 65.4884 414.333 65.0284 413.693 65.0284C413.253 65.0284 412.883 65.2884 412.743 65.6484L411.273 65.5784L411.693 61.5084H415.883V62.7884H412.863L412.683 64.3184C413.013 64.0384 413.453 63.8784 413.933 63.8784C415.343 63.8784 416.213 64.8984 416.213 66.2884C416.213 67.7584 415.213 68.7684 413.683 68.7684Z" fill="black"/>
<path id="330" d="M462.504 181.271C460.874 181.271 460.064 180.441 459.994 179.151L461.434 179.081C461.494 179.771 461.954 180.011 462.534 180.011C463.164 180.011 463.654 179.711 463.654 179.011C463.654 178.331 463.204 177.971 462.464 177.971H461.934V176.841H462.464C463.024 176.841 463.434 176.591 463.434 175.981C463.434 175.391 463.084 175.101 462.524 175.101C461.904 175.101 461.604 175.411 461.544 175.901L460.104 175.831C460.244 174.621 461.074 173.851 462.534 173.851C463.994 173.851 464.894 174.571 464.894 175.791C464.894 176.561 464.494 177.071 463.744 177.311C464.614 177.561 465.114 178.211 465.114 179.111C465.114 180.451 464.104 181.271 462.504 181.271ZM468.5 181.271C466.87 181.271 466.06 180.441 465.99 179.151L467.43 179.081C467.49 179.771 467.95 180.011 468.53 180.011C469.16 180.011 469.65 179.711 469.65 179.011C469.65 178.331 469.2 177.971 468.46 177.971H467.93V176.841H468.46C469.02 176.841 469.43 176.591 469.43 175.981C469.43 175.391 469.08 175.101 468.52 175.101C467.9 175.101 467.6 175.411 467.54 175.901L466.1 175.831C466.24 174.621 467.07 173.851 468.53 173.851C469.99 173.851 470.89 174.571 470.89 175.791C470.89 176.561 470.49 177.071 469.74 177.311C470.61 177.561 471.11 178.211 471.11 179.111C471.11 180.451 470.1 181.271 468.5 181.271ZM474.546 181.271C472.946 181.271 471.986 179.861 471.986 177.571C471.986 175.271 472.946 173.851 474.546 173.851C476.146 173.851 477.106 175.271 477.106 177.571C477.106 179.861 476.146 181.271 474.546 181.271ZM473.446 177.571C473.446 178.001 473.476 178.371 473.536 178.681L475.226 175.491C475.046 175.241 474.816 175.111 474.546 175.111C473.856 175.111 473.446 175.931 473.446 177.571ZM474.546 180.011C475.236 180.011 475.646 179.201 475.646 177.571C475.646 177.141 475.616 176.761 475.556 176.441L473.866 179.631C474.046 179.881 474.276 180.011 474.546 180.011Z" fill="black"/>
<path id="330_2" d="M27.5783 181.598C25.9483 181.598 25.1383 180.768 25.0683 179.478L26.5083 179.408C26.5683 180.098 27.0283 180.338 27.6083 180.338C28.2383 180.338 28.7283 180.038 28.7283 179.338C28.7283 178.658 28.2783 178.298 27.5383 178.298H27.0083V177.168H27.5383C28.0983 177.168 28.5083 176.918 28.5083 176.308C28.5083 175.718 28.1583 175.428 27.5983 175.428C26.9783 175.428 26.6783 175.738 26.6183 176.228L25.1783 176.158C25.3183 174.948 26.1483 174.178 27.6083 174.178C29.0683 174.178 29.9683 174.898 29.9683 176.118C29.9683 176.888 29.5683 177.398 28.8183 177.638C29.6883 177.888 30.1883 178.538 30.1883 179.438C30.1883 180.778 29.1783 181.598 27.5783 181.598ZM33.5744 181.598C31.9444 181.598 31.1344 180.768 31.0644 179.478L32.5044 179.408C32.5644 180.098 33.0244 180.338 33.6044 180.338C34.2344 180.338 34.7244 180.038 34.7244 179.338C34.7244 178.658 34.2744 178.298 33.5344 178.298H33.0044V177.168H33.5344C34.0944 177.168 34.5044 176.918 34.5044 176.308C34.5044 175.718 34.1544 175.428 33.5944 175.428C32.9744 175.428 32.6744 175.738 32.6144 176.228L31.1744 176.158C31.3144 174.948 32.1444 174.178 33.6044 174.178C35.0644 174.178 35.9644 174.898 35.9644 176.118C35.9644 176.888 35.5644 177.398 34.8144 177.638C35.6844 177.888 36.1844 178.538 36.1844 179.438C36.1844 180.778 35.1744 181.598 33.5744 181.598ZM39.6205 181.598C38.0205 181.598 37.0605 180.188 37.0605 177.898C37.0605 175.598 38.0205 174.178 39.6205 174.178C41.2205 174.178 42.1805 175.598 42.1805 177.898C42.1805 180.188 41.2205 181.598 39.6205 181.598ZM38.5205 177.898C38.5205 178.328 38.5505 178.698 38.6105 179.008L40.3005 175.818C40.1205 175.568 39.8905 175.438 39.6205 175.438C38.9305 175.438 38.5205 176.258 38.5205 177.898ZM39.6205 180.338C40.3105 180.338 40.7205 179.528 40.7205 177.898C40.7205 177.468 40.6905 177.088 40.6305 176.768L38.9405 179.958C39.1205 180.208 39.3505 180.338 39.6205 180.338Z" fill="black"/>
</g>
<g id="field">
<path d="M250.829 18.4326H250.83H250.827H250.829Z" fill="#004687" fill-opacity="0.1"/>
<path d="M46.7475 106.478L46.7362 106.487C39.6297 112.24 -0.471359 144.703 26.8688 192.058L168.931 424.346C206.371 485.564 295.289 485.563 332.728 424.346L474.789 192.058C502.129 144.703 462.028 112.24 454.921 106.487L454.91 106.478C451.95 104.082 443.762 97.22 434.953 89.8048C433.871 88.8939 432.502 88.394 431.088 88.394H429.657C422.953 88.394 416.472 85.9886 411.391 81.6151L410.794 81.1016C379.46 53.8111 320.235 18.4331 250.829 18.4326C181.423 18.4331 121.197 54.8111 89.8632 82.1016L81.199 89.7097C76.0899 94.1961 69.523 96.6701 62.7237 96.6701H60.7193C59.3089 96.6701 57.943 97.1677 56.862 98.0736C52.2543 101.935 48.5411 105.026 46.7475 106.478Z" fill="#004687" fill-opacity="0.1"/>
<path d="M250.829 18.4326H250.83H250.827H250.829ZM250.829 18.4326C181.423 18.4331 121.197 54.8111 89.8632 82.1016L81.199 89.7097C76.0899 94.1961 69.523 96.6701 62.7237 96.6701H60.7193C59.3089 96.6701 57.943 97.1677 56.862 98.0736C52.2543 101.935 48.5411 105.026 46.7475 106.478L46.7362 106.487C39.6297 112.24 -0.471359 144.703 26.8688 192.058L168.931 424.346C206.371 485.564 295.289 485.563 332.728 424.346L474.789 192.058C502.129 144.703 462.028 112.24 454.921 106.487L454.91 106.478C451.95 104.082 443.762 97.22 434.953 89.8048C433.871 88.8939 432.502 88.394 431.088 88.394H429.657C422.953 88.394 416.472 85.9886 411.391 81.6151L410.794 81.1016C379.46 53.8111 320.235 18.4331 250.829 18.4326Z" fill="none" stroke="#004687" stroke-width="1.002"/>
</g>
</g>
<defs>
<clipPath id="clip0_91_1990">
<rect width="500" height="469.94" fill="white"/>
</clipPath>
</defs>
</svg>
