<svg width="500" height="470" viewBox="0 0 500 470" fill="none" xmlns="http://www.w3.org/2000/svg">
<g id="kauffman-stadium-2004" clip-path="url(#clip0_91_1992)">
<g id="Infield">
<path d="M339.98 327.765C339.453 325.665 322.032 258.478 250.83 258.478C180.238 258.478 162.505 324.537 161.697 327.698C161.677 327.775 161.668 327.815 161.668 327.815L236.504 402.652C235.305 404.911 234.623 407.488 234.623 410.237C234.623 419.185 241.873 426.444 250.83 426.444C259.778 426.444 267.037 419.185 267.037 410.237C267.037 407.488 266.356 404.911 265.157 402.656L260.695 397.374C257.96 395.277 254.544 394.025 250.83 394.025C247.117 394.025 243.701 395.277 240.971 397.369L197.7 354.099C201.448 350.352 201.448 344.276 197.7 340.529C197.698 340.526 197.694 340.524 197.691 340.521L244.055 294.037C247.8 297.772 253.861 297.772 257.606 294.037L303.431 339.983C303.431 339.983 303.427 339.984 303.424 339.987C299.677 343.735 300.275 350.299 304.022 354.046L260.695 397.374L265.157 402.656L339.98 327.765Z" fill="#D2D2D2"/>
<path d="M259.91 345.705C259.91 350.72 255.845 354.786 250.83 354.786C245.815 354.786 241.75 350.72 241.75 345.705C241.75 340.69 245.815 336.625 250.83 336.625C255.845 336.625 259.91 340.69 259.91 345.705Z" fill="#D2D2D2"/>
</g>
<g id="Guides">
<g id="Home">
<circle id="Ellipse 1" cx="250.827" cy="410.42" r="16.0848" fill="#D2D2D2"/>
<circle id="Ellipse 1_2" cx="250.827" cy="410.42" r="1.62919" fill="black"/>
</g>
<g id="First">
<circle id="Ellipse 1_3" cx="311.125" cy="346.532" r="10.1878" fill="#D2D2D2"/>
<circle id="Ellipse 1_4" cx="311.125" cy="346.532" r="1.0319" fill="black"/>
</g>
<g id="Third">
<circle id="Ellipse 1_5" cx="190.34" cy="346.532" r="10.1878" fill="#D2D2D2"/>
<circle id="Ellipse 1_6" cx="190.34" cy="346.532" r="1.0319" fill="black"/>
</g>
<g id="Second">
<circle id="Ellipse 1_7" cx="250.827" cy="286.67" r="10.1878" fill="#D2D2D2"/>
<circle id="Ellipse 1_8" cx="250.827" cy="286.671" r="1.0319" fill="black"/>
</g>
<g id="Mound">
<circle id="Ellipse 1_9" cx="250.827" cy="345.928" r="9.08365" fill="#D2D2D2"/>
<circle id="Ellipse 1_10" cx="250.827" cy="345.929" r="0.920062" fill="black"/>
</g>
</g>
<path id="Foul Lines" d="M479.832 181.66L250.976 410.516L21.5708 181.111" fill="none" stroke="black" stroke-width="1.002"/>
<g id="Measurements">
<path id="410" d="M179.203 13.6992V12.2792H176.033V11.1092L179.013 6.59922H180.633V11.0392H181.473V12.2792H180.633V13.6992H179.203ZM177.373 11.0392H179.203V8.38922L177.373 11.0392ZM182.229 13.6992V12.4192H184.269V9.03922H182.529V7.85922H183.309C184.109 7.85922 184.449 7.51922 184.449 6.59922H185.689V12.4192H187.269V13.6992H182.229ZM190.745 13.8592C189.145 13.8592 188.185 12.4492 188.185 10.1592C188.185 7.85922 189.145 6.43922 190.745 6.43922C192.345 6.43922 193.305 7.85922 193.305 10.1592C193.305 12.4492 192.345 13.8592 190.745 13.8592ZM189.645 10.1592C189.645 10.5892 189.675 10.9592 189.735 11.2692L191.425 8.07922C191.245 7.82922 191.015 7.69922 190.745 7.69922C190.055 7.69922 189.645 8.51922 189.645 10.1592ZM190.745 12.5992C191.435 12.5992 191.845 11.7892 191.845 10.1592C191.845 9.72922 191.815 9.34922 191.755 9.02922L190.065 12.2192C190.245 12.4692 190.475 12.5992 190.745 12.5992Z" fill="black"/>
<path id="410_2" d="M314.487 13.6992V12.2792H311.317V11.1092L314.297 6.59922H315.917V11.0392H316.757V12.2792H315.917V13.6992H314.487ZM312.657 11.0392H314.487V8.38922L312.657 11.0392ZM317.513 13.6992V12.4192H319.553V9.03922H317.813V7.85922H318.593C319.393 7.85922 319.733 7.51922 319.733 6.59922H320.973V12.4192H322.553V13.6992H317.513ZM326.029 13.8592C324.429 13.8592 323.469 12.4492 323.469 10.1592C323.469 7.85922 324.429 6.43922 326.029 6.43922C327.629 6.43922 328.589 7.85922 328.589 10.1592C328.589 12.4492 327.629 13.8592 326.029 13.8592ZM324.929 10.1592C324.929 10.5892 324.959 10.9592 325.019 11.2692L326.709 8.07922C326.529 7.82922 326.299 7.69922 326.029 7.69922C325.339 7.69922 324.929 8.51922 324.929 10.1592ZM326.029 12.5992C326.719 12.5992 327.129 11.7892 327.129 10.1592C327.129 9.72922 327.099 9.34922 327.039 9.02922L325.349 12.2192C325.529 12.4692 325.759 12.5992 326.029 12.5992Z" fill="black"/>
<path id="385" d="M89.9901 57.2039C88.3601 57.2039 87.5501 56.3739 87.4801 55.0839L88.9201 55.0139C88.9801 55.7039 89.4401 55.9439 90.0201 55.9439C90.6501 55.9439 91.1401 55.6439 91.1401 54.9439C91.1401 54.2639 90.6901 53.9039 89.9501 53.9039H89.4201V52.7739H89.9501C90.5101 52.7739 90.9201 52.5239 90.9201 51.9139C90.9201 51.3239 90.5701 51.0339 90.0101 51.0339C89.3901 51.0339 89.0901 51.3439 89.0301 51.8339L87.5901 51.7639C87.7301 50.5539 88.5601 49.7839 90.0201 49.7839C91.4801 49.7839 92.3801 50.5039 92.3801 51.7239C92.3801 52.4939 91.9801 53.0039 91.2301 53.2439C92.1001 53.4939 92.6001 54.1439 92.6001 55.0439C92.6001 56.3839 91.5901 57.2039 89.9901 57.2039ZM96.0362 57.2039C94.4662 57.2039 93.4162 56.4839 93.4162 55.1039C93.4162 54.1739 93.9562 53.5139 94.8262 53.2339C94.1562 52.9739 93.7062 52.4839 93.7062 51.7439C93.7062 50.6039 94.6362 49.7839 96.0362 49.7839C97.4362 49.7839 98.3662 50.6039 98.3662 51.7439C98.3662 52.4839 97.9162 52.9739 97.2362 53.2339C98.1162 53.5139 98.6562 54.1739 98.6562 55.1039C98.6562 56.4839 97.6062 57.2039 96.0362 57.2039ZM96.0362 52.6639C96.5462 52.6639 96.8962 52.3939 96.8962 51.8339C96.8962 51.3339 96.5562 51.0439 96.0362 51.0439C95.5162 51.0439 95.1762 51.3339 95.1762 51.8339C95.1762 52.3939 95.5262 52.6639 96.0362 52.6639ZM96.0362 55.9439C96.6762 55.9439 97.1962 55.6639 97.1962 54.9639C97.1962 54.2939 96.7662 53.8739 96.0362 53.8739C95.3062 53.8739 94.8762 54.2939 94.8762 54.9639C94.8762 55.6639 95.3962 55.9439 96.0362 55.9439ZM102.022 57.2039C100.522 57.2039 99.6123 56.3139 99.5123 55.1439L100.972 55.0639C101.062 55.6439 101.412 55.9439 102.022 55.9439C102.682 55.9439 103.092 55.5239 103.092 54.7139C103.092 53.9239 102.672 53.4639 102.032 53.4639C101.592 53.4639 101.222 53.7239 101.082 54.0839L99.6123 54.0139L100.032 49.9439H104.222V51.2239H101.202L101.022 52.7539C101.352 52.4739 101.792 52.3139 102.272 52.3139C103.682 52.3139 104.552 53.3339 104.552 54.7239C104.552 56.1939 103.552 57.2039 102.022 57.2039Z" fill="black"/>
<path id="385_2" d="M400.651 57.2039C399.021 57.2039 398.211 56.3739 398.141 55.0839L399.581 55.0139C399.641 55.7039 400.101 55.9439 400.681 55.9439C401.311 55.9439 401.801 55.6439 401.801 54.9439C401.801 54.2639 401.351 53.9039 400.611 53.9039H400.081V52.7739H400.611C401.171 52.7739 401.581 52.5239 401.581 51.9139C401.581 51.3239 401.231 51.0339 400.671 51.0339C400.051 51.0339 399.751 51.3439 399.691 51.8339L398.251 51.7639C398.391 50.5539 399.221 49.7839 400.681 49.7839C402.141 49.7839 403.041 50.5039 403.041 51.7239C403.041 52.4939 402.641 53.0039 401.891 53.2439C402.761 53.4939 403.261 54.1439 403.261 55.0439C403.261 56.3839 402.251 57.2039 400.651 57.2039ZM406.697 57.2039C405.127 57.2039 404.077 56.4839 404.077 55.1039C404.077 54.1739 404.617 53.5139 405.487 53.2339C404.817 52.9739 404.367 52.4839 404.367 51.7439C404.367 50.6039 405.297 49.7839 406.697 49.7839C408.097 49.7839 409.027 50.6039 409.027 51.7439C409.027 52.4839 408.577 52.9739 407.897 53.2339C408.777 53.5139 409.317 54.1739 409.317 55.1039C409.317 56.4839 408.267 57.2039 406.697 57.2039ZM406.697 52.6639C407.207 52.6639 407.557 52.3939 407.557 51.8339C407.557 51.3339 407.217 51.0439 406.697 51.0439C406.177 51.0439 405.837 51.3339 405.837 51.8339C405.837 52.3939 406.187 52.6639 406.697 52.6639ZM406.697 55.9439C407.337 55.9439 407.857 55.6639 407.857 54.9639C407.857 54.2939 407.427 53.8739 406.697 53.8739C405.967 53.8739 405.537 54.2939 405.537 54.9639C405.537 55.6639 406.057 55.9439 406.697 55.9439ZM412.683 57.2039C411.183 57.2039 410.273 56.3139 410.173 55.1439L411.633 55.0639C411.723 55.6439 412.073 55.9439 412.683 55.9439C413.343 55.9439 413.753 55.5239 413.753 54.7139C413.753 53.9239 413.333 53.4639 412.693 53.4639C412.253 53.4639 411.883 53.7239 411.743 54.0839L410.273 54.0139L410.693 49.9439H414.883V51.2239H411.863L411.683 52.7539C412.013 52.4739 412.453 52.3139 412.933 52.3139C414.343 52.3139 415.213 53.3339 415.213 54.7239C415.213 56.1939 414.213 57.2039 412.683 57.2039Z" fill="black"/>
<path id="330" d="M462.504 181.271C460.874 181.271 460.064 180.441 459.994 179.151L461.434 179.081C461.494 179.771 461.954 180.011 462.534 180.011C463.164 180.011 463.654 179.711 463.654 179.011C463.654 178.331 463.204 177.971 462.464 177.971H461.934V176.841H462.464C463.024 176.841 463.434 176.591 463.434 175.981C463.434 175.391 463.084 175.101 462.524 175.101C461.904 175.101 461.604 175.411 461.544 175.901L460.104 175.831C460.244 174.621 461.074 173.851 462.534 173.851C463.994 173.851 464.894 174.571 464.894 175.791C464.894 176.561 464.494 177.071 463.744 177.311C464.614 177.561 465.114 178.211 465.114 179.111C465.114 180.451 464.104 181.271 462.504 181.271ZM468.5 181.271C466.87 181.271 466.06 180.441 465.99 179.151L467.43 179.081C467.49 179.771 467.95 180.011 468.53 180.011C469.16 180.011 469.65 179.711 469.65 179.011C469.65 178.331 469.2 177.971 468.46 177.971H467.93V176.841H468.46C469.02 176.841 469.43 176.591 469.43 175.981C469.43 175.391 469.08 175.101 468.52 175.101C467.9 175.101 467.6 175.411 467.54 175.901L466.1 175.831C466.24 174.621 467.07 173.851 468.53 173.851C469.99 173.851 470.89 174.571 470.89 175.791C470.89 176.561 470.49 177.071 469.74 177.311C470.61 177.561 471.11 178.211 471.11 179.111C471.11 180.451 470.1 181.271 468.5 181.271ZM474.546 181.271C472.946 181.271 471.986 179.861 471.986 177.571C471.986 175.271 472.946 173.851 474.546 173.851C476.146 173.851 477.106 175.271 477.106 177.571C477.106 179.861 476.146 181.271 474.546 181.271ZM473.446 177.571C473.446 178.001 473.476 178.371 473.536 178.681L475.226 175.491C475.046 175.241 474.816 175.111 474.546 175.111C473.856 175.111 473.446 175.931 473.446 177.571ZM474.546 180.011C475.236 180.011 475.646 179.201 475.646 177.571C475.646 177.141 475.616 176.761 475.556 176.441L473.866 179.631C474.046 179.881 474.276 180.011 474.546 180.011Z" fill="black"/>
<path id="330_2" d="M27.5783 181.598C25.9483 181.598 25.1383 180.768 25.0683 179.478L26.5083 179.408C26.5683 180.098 27.0283 180.338 27.6083 180.338C28.2383 180.338 28.7283 180.038 28.7283 179.338C28.7283 178.658 28.2783 178.298 27.5383 178.298H27.0083V177.168H27.5383C28.0983 177.168 28.5083 176.918 28.5083 176.308C28.5083 175.718 28.1583 175.428 27.5983 175.428C26.9783 175.428 26.6783 175.738 26.6183 176.228L25.1783 176.158C25.3183 174.948 26.1483 174.178 27.6083 174.178C29.0683 174.178 29.9683 174.898 29.9683 176.118C29.9683 176.888 29.5683 177.398 28.8183 177.638C29.6883 177.888 30.1883 178.538 30.1883 179.438C30.1883 180.778 29.1783 181.598 27.5783 181.598ZM33.5744 181.598C31.9444 181.598 31.1344 180.768 31.0644 179.478L32.5044 179.408C32.5644 180.098 33.0244 180.338 33.6044 180.338C34.2344 180.338 34.7244 180.038 34.7244 179.338C34.7244 178.658 34.2744 178.298 33.5344 178.298H33.0044V177.168H33.5344C34.0944 177.168 34.5044 176.918 34.5044 176.308C34.5044 175.718 34.1544 175.428 33.5944 175.428C32.9744 175.428 32.6744 175.738 32.6144 176.228L31.1744 176.158C31.3144 174.948 32.1444 174.178 33.6044 174.178C35.0644 174.178 35.9644 174.898 35.9644 176.118C35.9644 176.888 35.5644 177.398 34.8144 177.638C35.6844 177.888 36.1844 178.538 36.1844 179.438C36.1844 180.778 35.1744 181.598 33.5744 181.598ZM39.6205 181.598C38.0205 181.598 37.0605 180.188 37.0605 177.898C37.0605 175.598 38.0205 174.178 39.6205 174.178C41.2205 174.178 42.1805 175.598 42.1805 177.898C42.1805 180.188 41.2205 181.598 39.6205 181.598ZM38.5205 177.898C38.5205 178.328 38.5505 178.698 38.6105 179.008L40.3005 175.818C40.1205 175.568 39.8905 175.438 39.6205 175.438C38.9305 175.438 38.5205 176.258 38.5205 177.898ZM39.6205 180.338C40.3105 180.338 40.7205 179.528 40.7205 177.898C40.7205 177.468 40.6905 177.088 40.6305 176.768L38.9405 179.958C39.1205 180.208 39.3505 180.338 39.6205 180.338Z" fill="black"/>
</g>
<g id="field">
<path d="M250.829 8.43262L250.83 8.43262H250.827L250.829 8.43262Z" fill="#004687" fill-opacity="0.1"/>
<path d="M250.83 8.43262L250.829 8.43262C320.235 8.43306 381.46 43.8111 412.794 71.1016C424.474 80.9846 449.25 101.896 454.91 106.478L454.921 106.487C462.028 112.24 502.129 144.703 474.789 192.058L332.728 424.346C295.289 485.563 206.371 485.564 168.931 424.346L26.8689 192.058C-0.471329 144.703 39.6297 112.24 46.7363 106.487L46.7475 106.478C52.4078 101.896 77.1831 80.9846 88.8632 71.1016C120.197 43.8111 181.423 8.43306 250.829 8.43262L250.827 8.43262H250.83Z" fill="#004687" fill-opacity="0.1"/>
<path d="M250.829 8.43262L250.83 8.43262H250.827L250.829 8.43262ZM250.829 8.43262C181.423 8.43306 120.197 43.8111 88.8632 71.1016C77.1831 80.9846 52.4078 101.896 46.7475 106.478L46.7363 106.487C39.6297 112.24 -0.471329 144.703 26.8689 192.058L168.931 424.346C206.371 485.564 295.289 485.563 332.728 424.346L474.789 192.058C502.129 144.703 462.028 112.24 454.921 106.487L454.91 106.478C449.25 101.896 424.474 80.9846 412.794 71.1016C381.46 43.8111 320.235 8.43306 250.829 8.43262Z" fill="none" stroke="#004687" stroke-width="1.002"/>
</g>
</g>
<defs>
<clipPath id="clip0_91_1992">
<rect width="500" height="469.94" fill="white"/>
</clipPath>
</defs>
</svg>
