<svg width="500" height="470" viewBox="0 0 500 470" fill="none" xmlns="http://www.w3.org/2000/svg">
<g id="kingdome-1991" clip-path="url(#clip0_129_7163)">
<g id="Infield">
<path d="M339.98 327.764C339.453 325.664 322.032 258.477 250.83 258.477C180.238 258.477 162.505 324.536 161.697 327.697C161.677 327.775 161.668 327.814 161.668 327.814L236.504 402.651C235.305 404.91 234.623 407.487 234.623 410.236C234.623 419.184 241.873 426.443 250.83 426.443C259.778 426.443 267.037 419.184 267.037 410.236C267.037 407.487 266.356 404.91 265.156 402.655L260.695 397.373C257.96 395.276 254.544 394.024 250.83 394.024C247.117 394.024 243.701 395.276 240.971 397.368L197.7 354.098C201.448 350.351 201.448 344.275 197.7 340.528C197.698 340.525 197.694 340.523 197.691 340.52L244.055 294.036C247.8 297.772 253.861 297.772 257.606 294.036L303.431 339.982C303.431 339.982 303.427 339.983 303.424 339.986C299.677 343.734 300.275 350.298 304.022 354.045L260.695 397.373L265.156 402.655L339.98 327.764Z" fill="#D2D2D2"/>
<path d="M259.91 345.704C259.91 350.719 255.845 354.785 250.83 354.785C245.815 354.785 241.75 350.719 241.75 345.704C241.75 340.689 245.815 336.624 250.83 336.624C255.845 336.624 259.91 340.689 259.91 345.704Z" fill="#D2D2D2"/>
</g>
<g id="Guides">
<g id="Home">
<circle id="Ellipse 1" cx="250.827" cy="410.421" r="16.0848" fill="#D2D2D2"/>
<circle id="Ellipse 1_2" cx="250.827" cy="410.422" r="1.62919" fill="black"/>
</g>
<g id="First">
<circle id="Ellipse 1_3" cx="311.125" cy="346.535" r="10.1878" fill="#D2D2D2"/>
<circle id="Ellipse 1_4" cx="311.125" cy="346.536" r="1.0319" fill="black"/>
</g>
<g id="Third">
<circle id="Ellipse 1_5" cx="190.34" cy="346.535" r="10.1878" fill="#D2D2D2"/>
<circle id="Ellipse 1_6" cx="190.34" cy="346.536" r="1.0319" fill="black"/>
</g>
<g id="Second">
<circle id="Ellipse 1_7" cx="250.827" cy="286.672" r="10.1878" fill="#D2D2D2"/>
<circle id="Ellipse 1_8" cx="250.827" cy="286.673" r="1.0319" fill="black"/>
</g>
<g id="Mound">
<circle id="Ellipse 1_9" cx="250.827" cy="345.931" r="9.08365" fill="#D2D2D2"/>
<circle id="Ellipse 1_10" cx="250.827" cy="345.932" r="0.920062" fill="black"/>
</g>
</g>
<path id="Foul Lines" d="M467.905 193.584L250.976 410.514L23.0387 182.578" fill="none" stroke="black" stroke-width="1.002"/>
<g id="Measurements">
<path id="405" d="M237.203 9.69922V8.27922H234.033V7.10922L237.013 2.59922H238.633V7.03922H239.473V8.27922H238.633V9.69922H237.203ZM235.373 7.03922H237.203V4.38922L235.373 7.03922ZM242.749 9.85922C241.149 9.85922 240.189 8.44922 240.189 6.15922C240.189 3.85922 241.149 2.43922 242.749 2.43922C244.349 2.43922 245.309 3.85922 245.309 6.15922C245.309 8.44922 244.349 9.85922 242.749 9.85922ZM241.649 6.15922C241.649 6.58922 241.679 6.95922 241.739 7.26922L243.429 4.07922C243.249 3.82922 243.019 3.69922 242.749 3.69922C242.059 3.69922 241.649 4.51922 241.649 6.15922ZM242.749 8.59922C243.439 8.59922 243.849 7.78922 243.849 6.15922C243.849 5.72922 243.819 5.34922 243.759 5.02922L242.069 8.21922C242.249 8.46922 242.479 8.59922 242.749 8.59922ZM248.735 9.85922C247.235 9.85922 246.325 8.96922 246.225 7.79922L247.685 7.71922C247.775 8.29922 248.125 8.59922 248.735 8.59922C249.395 8.59922 249.805 8.17922 249.805 7.36922C249.805 6.57922 249.385 6.11922 248.745 6.11922C248.305 6.11922 247.935 6.37922 247.795 6.73922L246.325 6.66922L246.745 2.59922H250.935V3.87922H247.915L247.735 5.40922C248.065 5.12922 248.505 4.96922 248.985 4.96922C250.395 4.96922 251.265 5.98922 251.265 7.37922C251.265 8.84922 250.265 9.85922 248.735 9.85922Z" fill="black"/>
<path id="376" d="M119.99 59.203C118.36 59.203 117.55 58.373 117.48 57.083L118.92 57.013C118.98 57.703 119.44 57.943 120.02 57.943C120.65 57.943 121.14 57.643 121.14 56.943C121.14 56.263 120.69 55.903 119.95 55.903H119.42V54.773H119.95C120.51 54.773 120.92 54.523 120.92 53.913C120.92 53.323 120.57 53.033 120.01 53.033C119.39 53.033 119.09 53.343 119.03 53.833L117.59 53.763C117.73 52.553 118.56 51.783 120.02 51.783C121.48 51.783 122.38 52.503 122.38 53.723C122.38 54.493 121.98 55.003 121.23 55.243C122.1 55.493 122.6 56.143 122.6 57.043C122.6 58.383 121.59 59.203 119.99 59.203ZM124.706 59.043C124.706 56.893 125.606 54.933 127.076 53.223H123.576V51.943H128.496V53.153C126.866 55.013 126.196 56.603 126.196 59.043H124.706ZM132.052 59.203C130.322 59.203 129.412 58.033 129.412 55.973C129.412 53.623 130.222 51.783 132.312 51.783C133.712 51.783 134.362 52.543 134.622 53.563L133.182 53.663C133.082 53.303 132.852 53.043 132.312 53.043C131.572 53.043 131.052 53.553 130.892 54.773C131.232 54.473 131.712 54.253 132.342 54.253C133.752 54.253 134.652 55.203 134.652 56.633C134.652 58.213 133.622 59.203 132.052 59.203ZM132.022 57.923C132.772 57.923 133.192 57.483 133.192 56.683C133.192 55.943 132.812 55.463 132.082 55.463C131.342 55.463 130.872 55.953 130.872 56.693C130.872 57.373 131.292 57.923 132.022 57.923Z" fill="black"/>
<path id="362" d="M353.605 59.203C351.975 59.203 351.165 58.373 351.095 57.083L352.535 57.013C352.595 57.703 353.055 57.943 353.635 57.943C354.265 57.943 354.755 57.643 354.755 56.943C354.755 56.263 354.305 55.903 353.565 55.903H353.035V54.773H353.565C354.125 54.773 354.535 54.523 354.535 53.913C354.535 53.323 354.185 53.033 353.625 53.033C353.005 53.033 352.705 53.343 352.645 53.833L351.205 53.763C351.345 52.553 352.175 51.783 353.635 51.783C355.095 51.783 355.995 52.503 355.995 53.723C355.995 54.493 355.595 55.003 354.845 55.243C355.715 55.493 356.215 56.143 356.215 57.043C356.215 58.383 355.205 59.203 353.605 59.203ZM359.671 59.203C357.941 59.203 357.031 58.033 357.031 55.973C357.031 53.623 357.841 51.783 359.931 51.783C361.331 51.783 361.981 52.543 362.241 53.563L360.801 53.663C360.701 53.303 360.471 53.043 359.931 53.043C359.191 53.043 358.671 53.553 358.511 54.773C358.851 54.473 359.331 54.253 359.961 54.253C361.371 54.253 362.271 55.203 362.271 56.633C362.271 58.213 361.241 59.203 359.671 59.203ZM359.641 57.923C360.391 57.923 360.811 57.483 360.811 56.683C360.811 55.943 360.431 55.463 359.701 55.463C358.961 55.463 358.491 55.953 358.491 56.693C358.491 57.373 358.911 57.923 359.641 57.923ZM363.087 59.043C363.087 57.313 363.667 56.303 365.647 55.283C366.377 54.903 366.737 54.623 366.737 53.973C366.737 53.403 366.407 53.043 365.777 53.043C365.057 53.043 364.707 53.463 364.587 54.223L363.117 54.133C363.257 52.683 364.167 51.783 365.797 51.783C367.387 51.783 368.207 52.633 368.207 53.893C368.207 55.033 367.717 55.593 366.317 56.353C365.167 56.973 364.757 57.403 364.717 57.763H368.207V59.043H363.087Z" fill="black"/>
<path id="331" d="M31.8292 184.144C30.1992 184.144 29.3892 183.314 29.3192 182.024L30.7592 181.954C30.8192 182.644 31.2792 182.884 31.8592 182.884C32.4892 182.884 32.9792 182.584 32.9792 181.884C32.9792 181.204 32.5292 180.844 31.7892 180.844H31.2592V179.714H31.7892C32.3492 179.714 32.7592 179.464 32.7592 178.854C32.7592 178.264 32.4092 177.974 31.8492 177.974C31.2292 177.974 30.9292 178.284 30.8692 178.774L29.4292 178.704C29.5692 177.494 30.3992 176.724 31.8592 176.724C33.3192 176.724 34.2192 177.444 34.2192 178.664C34.2192 179.434 33.8192 179.944 33.0692 180.184C33.9392 180.434 34.4392 181.084 34.4392 181.984C34.4392 183.324 33.4292 184.144 31.8292 184.144ZM37.8253 184.144C36.1953 184.144 35.3853 183.314 35.3153 182.024L36.7553 181.954C36.8153 182.644 37.2753 182.884 37.8553 182.884C38.4853 182.884 38.9753 182.584 38.9753 181.884C38.9753 181.204 38.5253 180.844 37.7853 180.844H37.2553V179.714H37.7853C38.3453 179.714 38.7553 179.464 38.7553 178.854C38.7553 178.264 38.4053 177.974 37.8453 177.974C37.2253 177.974 36.9253 178.284 36.8653 178.774L35.4253 178.704C35.5653 177.494 36.3953 176.724 37.8553 176.724C39.3153 176.724 40.2153 177.444 40.2153 178.664C40.2153 179.434 39.8153 179.944 39.0653 180.184C39.9353 180.434 40.4353 181.084 40.4353 181.984C40.4353 183.324 39.4253 184.144 37.8253 184.144ZM41.3514 183.984V182.704H43.3914V179.324H41.6514V178.144H42.4314C43.2314 178.144 43.5714 177.804 43.5714 176.884H44.8114V182.704H46.3914V183.984H41.3514Z" fill="black"/>
<path id="312" d="M446.659 196.144C445.029 196.144 444.219 195.314 444.149 194.024L445.589 193.954C445.649 194.644 446.109 194.884 446.689 194.884C447.319 194.884 447.809 194.584 447.809 193.884C447.809 193.204 447.359 192.844 446.619 192.844H446.089V191.714H446.619C447.179 191.714 447.589 191.464 447.589 190.854C447.589 190.264 447.239 189.974 446.679 189.974C446.059 189.974 445.759 190.284 445.699 190.774L444.259 190.704C444.399 189.494 445.229 188.724 446.689 188.724C448.149 188.724 449.049 189.444 449.049 190.664C449.049 191.434 448.649 191.944 447.899 192.184C448.769 192.434 449.269 193.084 449.269 193.984C449.269 195.324 448.259 196.144 446.659 196.144ZM450.185 195.984V194.704H452.225V191.324H450.485V190.144H451.265C452.065 190.144 452.405 189.804 452.405 188.884H453.645V194.704H455.225V195.984H450.185ZM456.141 195.984C456.141 194.254 456.721 193.244 458.701 192.224C459.431 191.844 459.791 191.564 459.791 190.914C459.791 190.344 459.461 189.984 458.831 189.984C458.111 189.984 457.761 190.404 457.641 191.164L456.171 191.074C456.311 189.624 457.221 188.724 458.851 188.724C460.441 188.724 461.261 189.574 461.261 190.834C461.261 191.974 460.771 192.534 459.371 193.294C458.221 193.914 457.811 194.344 457.771 194.704H461.261V195.984H456.141Z" fill="black"/>
</g>
<path id="field" d="M340.658 54.8714L451.483 168.489C459.454 176.661 465.454 186.543 469.026 197.384L472.569 208.136L454.544 213.433L457.412 225.518L443.892 229.82L445.531 240.472L423.818 246.412C429.704 275.587 420.609 305.772 399.584 326.838L333.462 393.091V397.271L283.647 445.086V455.408L283.11 455.64C256.904 466.979 227.231 467.256 200.819 456.408V446.086L151.003 396.271V392.091L142.819 384.023V368.496L79.484 303.562L71.4953 312.985L61.2309 301.625C44.4758 283.081 35.8892 258.574 37.4068 233.628L38.3114 218.759L25.4694 215.277L28.8889 203.396L17.777 197.832L20.2902 189.877C23.6938 179.104 29.6193 169.299 37.5741 161.276L143.876 54.0658C198.173 -0.695438 286.811 -0.332611 340.658 54.8714Z" fill="#002878" fill-opacity="0.1" fill="none" stroke="#002878" stroke-width="1.002"/>
</g>
<defs>
<clipPath id="clip0_129_7163">
<rect width="500" height="469.94" fill="white"/>
</clipPath>
</defs>
</svg>
