<svg width="500" height="470" viewBox="0 0 500 470" fill="none" xmlns="http://www.w3.org/2000/svg">
<g id="kingdome-1977" clip-path="url(#clip0_128_7135)">
<g id="Infield">
<path d="M339.98 327.764C339.453 325.664 322.032 258.477 250.83 258.477C180.238 258.477 162.505 324.536 161.697 327.697C161.677 327.775 161.668 327.814 161.668 327.814L236.504 402.651C235.305 404.91 234.623 407.487 234.623 410.236C234.623 419.184 241.873 426.443 250.83 426.443C259.778 426.443 267.037 419.184 267.037 410.236C267.037 407.487 266.356 404.91 265.156 402.655L260.695 397.373C257.96 395.276 254.544 394.024 250.83 394.024C247.117 394.024 243.701 395.276 240.971 397.368L197.7 354.098C201.448 350.351 201.448 344.275 197.7 340.528C197.698 340.525 197.694 340.523 197.691 340.52L244.055 294.036C247.8 297.772 253.861 297.772 257.606 294.036L303.431 339.982C303.431 339.982 303.427 339.983 303.424 339.986C299.677 343.734 300.275 350.298 304.022 354.045L260.695 397.373L265.156 402.655L339.98 327.764Z" fill="#D2D2D2"/>
<path d="M259.91 345.704C259.91 350.719 255.845 354.785 250.83 354.785C245.815 354.785 241.75 350.719 241.75 345.704C241.75 340.689 245.815 336.624 250.83 336.624C255.845 336.624 259.91 340.689 259.91 345.704Z" fill="#D2D2D2"/>
</g>
<g id="Guides">
<g id="Home">
<circle id="Ellipse 1" cx="250.827" cy="410.421" r="16.0848" fill="#D2D2D2"/>
<circle id="Ellipse 1_2" cx="250.827" cy="410.422" r="1.62919" fill="black"/>
</g>
<g id="First">
<circle id="Ellipse 1_3" cx="311.125" cy="346.535" r="10.1878" fill="#D2D2D2"/>
<circle id="Ellipse 1_4" cx="311.125" cy="346.536" r="1.0319" fill="black"/>
</g>
<g id="Third">
<circle id="Ellipse 1_5" cx="190.34" cy="346.535" r="10.1878" fill="#D2D2D2"/>
<circle id="Ellipse 1_6" cx="190.34" cy="346.536" r="1.0319" fill="black"/>
</g>
<g id="Second">
<circle id="Ellipse 1_7" cx="250.827" cy="286.672" r="10.1878" fill="#D2D2D2"/>
<circle id="Ellipse 1_8" cx="250.827" cy="286.673" r="1.0319" fill="black"/>
</g>
<g id="Mound">
<circle id="Ellipse 1_9" cx="250.827" cy="345.931" r="9.08365" fill="#D2D2D2"/>
<circle id="Ellipse 1_10" cx="250.827" cy="345.932" r="0.920062" fill="black"/>
</g>
</g>
<path id="Foul Lines" d="M470.364 191.128L250.976 410.515L30.1203 189.66" fill="none" stroke="black" stroke-width="1.002"/>
<g id="Measurements">
<path id="405" d="M245.482 9.69922V8.27922H242.312V7.10922L245.292 2.59922H246.912V7.03922H247.752V8.27922H246.912V9.69922H245.482ZM243.652 7.03922H245.482V4.38922L243.652 7.03922ZM251.028 9.85922C249.428 9.85922 248.468 8.44922 248.468 6.15922C248.468 3.85922 249.428 2.43922 251.028 2.43922C252.628 2.43922 253.588 3.85922 253.588 6.15922C253.588 8.44922 252.628 9.85922 251.028 9.85922ZM249.928 6.15922C249.928 6.58922 249.958 6.95922 250.018 7.26922L251.708 4.07922C251.528 3.82922 251.298 3.69922 251.028 3.69922C250.338 3.69922 249.928 4.51922 249.928 6.15922ZM251.028 8.59922C251.718 8.59922 252.128 7.78922 252.128 6.15922C252.128 5.72922 252.098 5.34922 252.038 5.02922L250.348 8.21922C250.528 8.46922 250.758 8.59922 251.028 8.59922ZM257.014 9.85922C255.514 9.85922 254.604 8.96922 254.504 7.79922L255.964 7.71922C256.054 8.29922 256.404 8.59922 257.014 8.59922C257.674 8.59922 258.084 8.17922 258.084 7.36922C258.084 6.57922 257.664 6.11922 257.024 6.11922C256.584 6.11922 256.214 6.37922 256.074 6.73922L254.604 6.66922L255.024 2.59922H259.214V3.87922H256.194L256.014 5.40922C256.344 5.12922 256.784 4.96922 257.264 4.96922C258.674 4.96922 259.544 5.98922 259.544 7.37922C259.544 8.84922 258.544 9.85922 257.014 9.85922Z" fill="black"/>
<path id="357" d="M122.99 72.203C121.36 72.203 120.55 71.373 120.48 70.083L121.92 70.013C121.98 70.703 122.44 70.943 123.02 70.943C123.65 70.943 124.14 70.643 124.14 69.943C124.14 69.263 123.69 68.903 122.95 68.903H122.42V67.773H122.95C123.51 67.773 123.92 67.523 123.92 66.913C123.92 66.323 123.57 66.033 123.01 66.033C122.39 66.033 122.09 66.343 122.03 66.833L120.59 66.763C120.73 65.553 121.56 64.783 123.02 64.783C124.48 64.783 125.38 65.503 125.38 66.723C125.38 67.493 124.98 68.003 124.23 68.243C125.1 68.493 125.6 69.143 125.6 70.043C125.6 71.383 124.59 72.203 122.99 72.203ZM129.026 72.203C127.526 72.203 126.616 71.313 126.516 70.143L127.976 70.063C128.066 70.643 128.416 70.943 129.026 70.943C129.686 70.943 130.096 70.523 130.096 69.713C130.096 68.923 129.676 68.463 129.036 68.463C128.596 68.463 128.226 68.723 128.086 69.083L126.616 69.013L127.036 64.943H131.226V66.223H128.206L128.026 67.753C128.356 67.473 128.796 67.313 129.276 67.313C130.686 67.313 131.556 68.333 131.556 69.723C131.556 71.193 130.556 72.203 129.026 72.203ZM133.702 72.043C133.702 69.893 134.602 67.933 136.072 66.223H132.572V64.943H137.492V66.153C135.862 68.013 135.192 69.603 135.192 72.043H133.702Z" fill="black"/>
<path id="357_2" d="M365.605 72.203C363.975 72.203 363.165 71.373 363.095 70.083L364.535 70.013C364.595 70.703 365.055 70.943 365.635 70.943C366.265 70.943 366.755 70.643 366.755 69.943C366.755 69.263 366.305 68.903 365.565 68.903H365.035V67.773H365.565C366.125 67.773 366.535 67.523 366.535 66.913C366.535 66.323 366.185 66.033 365.625 66.033C365.005 66.033 364.705 66.343 364.645 66.833L363.205 66.763C363.345 65.553 364.175 64.783 365.635 64.783C367.095 64.783 367.995 65.503 367.995 66.723C367.995 67.493 367.595 68.003 366.845 68.243C367.715 68.493 368.215 69.143 368.215 70.043C368.215 71.383 367.205 72.203 365.605 72.203ZM371.641 72.203C370.141 72.203 369.231 71.313 369.131 70.143L370.591 70.063C370.681 70.643 371.031 70.943 371.641 70.943C372.301 70.943 372.711 70.523 372.711 69.713C372.711 68.923 372.291 68.463 371.651 68.463C371.211 68.463 370.841 68.723 370.701 69.083L369.231 69.013L369.651 64.943H373.841V66.223H370.821L370.641 67.753C370.971 67.473 371.411 67.313 371.891 67.313C373.301 67.313 374.171 68.333 374.171 69.723C374.171 71.193 373.171 72.203 371.641 72.203ZM376.317 72.043C376.317 69.893 377.217 67.933 378.687 66.223H375.187V64.943H380.107V66.153C378.477 68.013 377.807 69.603 377.807 72.043H376.317Z" fill="black"/>
<path id="316" d="M42.8292 192.144C41.1992 192.144 40.3892 191.314 40.3192 190.024L41.7592 189.954C41.8192 190.644 42.2792 190.884 42.8592 190.884C43.4892 190.884 43.9792 190.584 43.9792 189.884C43.9792 189.204 43.5292 188.844 42.7892 188.844H42.2592V187.714H42.7892C43.3492 187.714 43.7592 187.464 43.7592 186.854C43.7592 186.264 43.4092 185.974 42.8492 185.974C42.2292 185.974 41.9292 186.284 41.8692 186.774L40.4292 186.704C40.5692 185.494 41.3992 184.724 42.8592 184.724C44.3192 184.724 45.2192 185.444 45.2192 186.664C45.2192 187.434 44.8192 187.944 44.0692 188.184C44.9392 188.434 45.4392 189.084 45.4392 189.984C45.4392 191.324 44.4292 192.144 42.8292 192.144ZM46.3553 191.984V190.704H48.3953V187.324H46.6553V186.144H47.4353C48.2353 186.144 48.5753 185.804 48.5753 184.884H49.8153V190.704H51.3953V191.984H46.3553ZM54.8914 192.144C53.1614 192.144 52.2514 190.974 52.2514 188.914C52.2514 186.564 53.0614 184.724 55.1514 184.724C56.5514 184.724 57.2014 185.484 57.4614 186.504L56.0214 186.604C55.9214 186.244 55.6914 185.984 55.1514 185.984C54.4114 185.984 53.8914 186.494 53.7314 187.714C54.0714 187.414 54.5514 187.194 55.1814 187.194C56.5914 187.194 57.4914 188.144 57.4914 189.574C57.4914 191.154 56.4614 192.144 54.8914 192.144ZM54.8614 190.864C55.6114 190.864 56.0314 190.424 56.0314 189.624C56.0314 188.884 55.6514 188.404 54.9214 188.404C54.1814 188.404 53.7114 188.894 53.7114 189.634C53.7114 190.314 54.1314 190.864 54.8614 190.864Z" fill="black"/>
<path id="316_2" d="M449.659 192.144C448.029 192.144 447.219 191.314 447.149 190.024L448.589 189.954C448.649 190.644 449.109 190.884 449.689 190.884C450.319 190.884 450.809 190.584 450.809 189.884C450.809 189.204 450.359 188.844 449.619 188.844H449.089V187.714H449.619C450.179 187.714 450.589 187.464 450.589 186.854C450.589 186.264 450.239 185.974 449.679 185.974C449.059 185.974 448.759 186.284 448.699 186.774L447.259 186.704C447.399 185.494 448.229 184.724 449.689 184.724C451.149 184.724 452.049 185.444 452.049 186.664C452.049 187.434 451.649 187.944 450.899 188.184C451.769 188.434 452.269 189.084 452.269 189.984C452.269 191.324 451.259 192.144 449.659 192.144ZM453.185 191.984V190.704H455.225V187.324H453.485V186.144H454.265C455.065 186.144 455.405 185.804 455.405 184.884H456.645V190.704H458.225V191.984H453.185ZM461.721 192.144C459.991 192.144 459.081 190.974 459.081 188.914C459.081 186.564 459.891 184.724 461.981 184.724C463.381 184.724 464.031 185.484 464.291 186.504L462.851 186.604C462.751 186.244 462.521 185.984 461.981 185.984C461.241 185.984 460.721 186.494 460.561 187.714C460.901 187.414 461.381 187.194 462.011 187.194C463.421 187.194 464.321 188.144 464.321 189.574C464.321 191.154 463.291 192.144 461.721 192.144ZM461.691 190.864C462.441 190.864 462.861 190.424 462.861 189.624C462.861 188.884 462.481 188.404 461.751 188.404C461.011 188.404 460.541 188.894 460.541 189.634C460.541 190.314 460.961 190.864 461.691 190.864Z" fill="black"/>
</g>
<path id="field" d="M337.793 50.2489L456.99 172.993C463.75 179.954 469.095 188.161 472.729 197.158L480.245 215.77L444.388 228.261L447.719 241.061L429.133 244.217L431.238 257.769C435.774 286.97 426.007 316.572 404.984 337.339L341.462 400.091V404.27L291.647 454.085V459.407C267.274 477.24 234.223 477.466 209.608 459.968L208.819 459.407V454.085L159.003 404.27V400.091L73.1632 315.39C53.9352 296.417 43.9065 270.021 45.6852 243.067L46.9138 224.45L21.8066 219.8L23.0343 211.615C25.2583 196.789 32.1185 183.047 42.6319 172.359L163.295 49.6894C211.312 0.874409 290.09 1.12702 337.793 50.2489Z" fill="#002878" fill-opacity="0.1" fill="none" stroke="#002878" stroke-width="1.002"/>
</g>
<defs>
<clipPath id="clip0_128_7135">
<rect width="500" height="469.94" fill="white"/>
</clipPath>
</defs>
</svg>
