<svg width="500" height="470" viewBox="0 0 500 470" fill="none" xmlns="http://www.w3.org/2000/svg">
<g id="league-park-1930" clip-path="url(#clip0_123_6397)">
<path id="field" d="M213.765 -40.4453L458.682 219.617L429.039 283.267L398.106 277.28L392.451 316.861L360.521 384.049L374.49 397.686L341.562 428.286L329.92 417.31L272.046 472.523L230.137 470.195L155.964 392.364L145.32 403.008L113.889 369.247L127.359 355.777L80.1284 283.267L55.8477 221.734L24.2495 234.04L-7.14544 185.648C-15.6196 172.585 -13.4619 155.32 -2.03379 144.745L65.5911 82.1673L63.0191 79.3382L151.237 -3.22101L158.438 -40.4453H213.765Z" fill="#00385D" fill-opacity="0.1" fill="none" stroke="#00385D" stroke-width="1.002"/>
<g id="Infield">
<path d="M339.98 327.764C339.453 325.664 322.032 258.477 250.83 258.477C180.238 258.477 162.505 324.536 161.697 327.697C161.677 327.775 161.668 327.814 161.668 327.814L236.504 402.651C235.305 404.91 234.623 407.487 234.623 410.236C234.623 419.184 241.873 426.443 250.83 426.443C259.778 426.443 267.037 419.184 267.037 410.236C267.037 407.487 266.356 404.91 265.156 402.655L260.695 397.373C257.96 395.276 254.544 394.024 250.83 394.024C247.117 394.024 243.701 395.276 240.971 397.368L197.7 354.098C201.448 350.351 201.448 344.275 197.7 340.528C197.698 340.525 197.694 340.523 197.691 340.52L244.055 294.036C247.8 297.772 253.861 297.772 257.606 294.036L303.431 339.982C303.431 339.982 303.427 339.983 303.424 339.986C299.677 343.734 300.275 350.298 304.022 354.045L260.695 397.373L265.156 402.655L339.98 327.764Z" fill="#D2D2D2"/>
<path d="M259.91 345.704C259.91 350.719 255.845 354.785 250.83 354.785C245.815 354.785 241.75 350.719 241.75 345.704C241.75 340.689 245.815 336.624 250.83 336.624C255.845 336.624 259.91 340.689 259.91 345.704Z" fill="#D2D2D2"/>
</g>
<g id="Guides">
<g id="Home">
<circle id="Ellipse 1" cx="250.827" cy="410.421" r="16.0848" fill="#D2D2D2"/>
<circle id="Ellipse 1_2" cx="250.827" cy="410.422" r="1.62919" fill="black"/>
</g>
<g id="First">
<circle id="Ellipse 1_3" cx="311.125" cy="346.535" r="10.1878" fill="#D2D2D2"/>
<circle id="Ellipse 1_4" cx="311.125" cy="346.536" r="1.0319" fill="black"/>
</g>
<g id="Third">
<circle id="Ellipse 1_5" cx="190.34" cy="346.535" r="10.1878" fill="#D2D2D2"/>
<circle id="Ellipse 1_6" cx="190.34" cy="346.536" r="1.0319" fill="black"/>
</g>
<g id="Second">
<circle id="Ellipse 1_7" cx="250.827" cy="286.672" r="10.1878" fill="#D2D2D2"/>
<circle id="Ellipse 1_8" cx="250.827" cy="286.673" r="1.0319" fill="black"/>
</g>
<g id="Mound">
<circle id="Ellipse 1_9" cx="250.827" cy="345.931" r="9.08365" fill="#D2D2D2"/>
<circle id="Ellipse 1_10" cx="250.827" cy="345.932" r="0.920062" fill="black"/>
</g>
</g>
<path id="Foul Lines" d="M450.919 210.573L250.976 410.516L-7.81619 151.723" fill="none" stroke="black" stroke-width="1.002"/>
<g id="Measurements">
<path id="420" d="M268.203 11.6992V10.2792H265.033V9.10922L268.013 4.59922H269.633V9.03922H270.473V10.2792H269.633V11.6992H268.203ZM266.373 9.03922H268.203V6.38922L266.373 9.03922ZM271.189 11.6992C271.189 9.96922 271.769 8.95922 273.749 7.93922C274.479 7.55922 274.839 7.27922 274.839 6.62922C274.839 6.05922 274.509 5.69922 273.879 5.69922C273.159 5.69922 272.809 6.11922 272.689 6.87922L271.219 6.78922C271.359 5.33922 272.269 4.43922 273.899 4.43922C275.489 4.43922 276.309 5.28922 276.309 6.54922C276.309 7.68922 275.819 8.24922 274.419 9.00922C273.269 9.62922 272.859 10.0592 272.819 10.4192H276.309V11.6992H271.189ZM279.745 11.8592C278.145 11.8592 277.185 10.4492 277.185 8.15922C277.185 5.85922 278.145 4.43922 279.745 4.43922C281.345 4.43922 282.305 5.85922 282.305 8.15922C282.305 10.4492 281.345 11.8592 279.745 11.8592ZM278.645 8.15922C278.645 8.58922 278.675 8.95922 278.735 9.26922L280.425 6.07922C280.245 5.82922 280.015 5.69922 279.745 5.69922C279.055 5.69922 278.645 6.51922 278.645 8.15922ZM279.745 10.5992C280.435 10.5992 280.845 9.78922 280.845 8.15922C280.845 7.72922 280.815 7.34922 280.755 7.02922L279.065 10.2192C279.245 10.4692 279.475 10.5992 279.745 10.5992Z" fill="black"/>
<path id="340" d="M347.696 93.203C346.066 93.203 345.256 92.373 345.186 91.083L346.626 91.013C346.686 91.703 347.146 91.943 347.726 91.943C348.356 91.943 348.846 91.643 348.846 90.943C348.846 90.263 348.396 89.903 347.656 89.903H347.126V88.773H347.656C348.216 88.773 348.626 88.523 348.626 87.913C348.626 87.323 348.276 87.033 347.716 87.033C347.096 87.033 346.796 87.343 346.736 87.833L345.296 87.763C345.436 86.553 346.266 85.783 347.726 85.783C349.186 85.783 350.086 86.503 350.086 87.723C350.086 88.493 349.686 89.003 348.936 89.243C349.806 89.493 350.306 90.143 350.306 91.043C350.306 92.383 349.296 93.203 347.696 93.203ZM354.192 93.043V91.623H351.022V90.453L354.002 85.943H355.622V90.383H356.462V91.623H355.622V93.043H354.192ZM352.362 90.383H354.192V87.733L352.362 90.383ZM359.738 93.203C358.138 93.203 357.178 91.793 357.178 89.503C357.178 87.203 358.138 85.783 359.738 85.783C361.338 85.783 362.298 87.203 362.298 89.503C362.298 91.793 361.338 93.203 359.738 93.203ZM358.638 89.503C358.638 89.933 358.668 90.303 358.728 90.613L360.418 87.423C360.238 87.173 360.008 87.043 359.738 87.043C359.048 87.043 358.638 87.863 358.638 89.503ZM359.738 91.943C360.428 91.943 360.838 91.133 360.838 89.503C360.838 89.073 360.808 88.693 360.748 88.373L359.058 91.563C359.238 91.813 359.468 91.943 359.738 91.943Z" fill="black"/>
<path id="290" d="M424.428 213.938C424.428 212.207 425.008 211.197 426.988 210.177C427.718 209.797 428.078 209.517 428.078 208.867C428.078 208.297 427.748 207.937 427.118 207.937C426.398 207.937 426.048 208.357 425.928 209.117L424.458 209.027C424.598 207.577 425.508 206.677 427.138 206.677C428.728 206.677 429.548 207.527 429.548 208.787C429.548 209.927 429.058 210.487 427.658 211.247C426.508 211.867 426.098 212.297 426.058 212.657H429.548V213.938H424.428ZM432.964 206.677C434.694 206.677 435.604 207.847 435.604 209.907C435.604 212.257 434.794 214.098 432.704 214.098C431.304 214.098 430.654 213.337 430.394 212.317L431.834 212.217C431.934 212.577 432.164 212.837 432.704 212.837C433.444 212.837 433.964 212.327 434.124 211.107C433.784 211.407 433.304 211.627 432.674 211.627C431.264 211.627 430.364 210.677 430.364 209.247C430.364 207.667 431.394 206.677 432.964 206.677ZM432.994 207.957C432.244 207.957 431.824 208.397 431.824 209.197C431.824 209.937 432.204 210.417 432.934 210.417C433.674 210.417 434.144 209.927 434.144 209.187C434.144 208.507 433.724 207.957 432.994 207.957ZM438.98 214.098C437.38 214.098 436.42 212.688 436.42 210.397C436.42 208.097 437.38 206.677 438.98 206.677C440.58 206.677 441.54 208.097 441.54 210.397C441.54 212.688 440.58 214.098 438.98 214.098ZM437.88 210.397C437.88 210.827 437.91 211.197 437.97 211.507L439.66 208.317C439.48 208.067 439.25 207.937 438.98 207.937C438.29 207.937 437.88 208.757 437.88 210.397ZM438.98 212.837C439.67 212.837 440.08 212.027 440.08 210.397C440.08 209.967 440.05 209.587 439.99 209.267L438.3 212.457C438.48 212.707 438.71 212.837 438.98 212.837Z" fill="black"/>
<path id="375" d="M2.57827 155.598C0.948265 155.598 0.138265 154.767 0.0682654 153.477L1.50827 153.407C1.56827 154.097 2.02827 154.337 2.60827 154.337C3.23827 154.337 3.72827 154.037 3.72827 153.337C3.72827 152.657 3.27827 152.297 2.53827 152.297H2.00827V151.167H2.53827C3.09827 151.167 3.50827 150.917 3.50827 150.307C3.50827 149.717 3.15827 149.427 2.59827 149.427C1.97827 149.427 1.67827 149.737 1.61827 150.227L0.178265 150.158C0.318265 148.947 1.14827 148.177 2.60827 148.177C4.06827 148.177 4.96827 148.897 4.96827 150.117C4.96827 150.887 4.56827 151.397 3.81827 151.637C4.68827 151.887 5.18827 152.537 5.18827 153.437C5.18827 154.778 4.17827 155.598 2.57827 155.598ZM7.29436 155.438C7.29436 153.287 8.19436 151.327 9.66436 149.617H6.16436V148.337H11.0844V149.547C9.45436 151.407 8.78436 152.997 8.78436 155.438H7.29436ZM14.6105 155.598C13.1105 155.598 12.2005 154.707 12.1005 153.537L13.5605 153.457C13.6505 154.037 14.0005 154.337 14.6105 154.337C15.2705 154.337 15.6805 153.917 15.6805 153.107C15.6805 152.317 15.2605 151.857 14.6205 151.857C14.1805 151.857 13.8105 152.117 13.6705 152.477L12.2005 152.407L12.6205 148.337H16.8105V149.617H13.7905L13.6105 151.147C13.9405 150.867 14.3805 150.707 14.8605 150.707C16.2705 150.707 17.1405 151.727 17.1405 153.117C17.1405 154.587 16.1405 155.598 14.6105 155.598Z" fill="black"/>
</g>
</g>
<defs>
<clipPath id="clip0_123_6397">
<rect width="500" height="469.94" fill="white"/>
</clipPath>
</defs>
</svg>
