<svg width="500" height="470" viewBox="0 0 500 470" fill="none" xmlns="http://www.w3.org/2000/svg">
<g id="loandepot-park-2012" clip-path="url(#clip0_115_5464)">
<g id="Infield">
<path d="M339.98 327.764C339.453 325.664 322.032 258.477 250.83 258.477C180.238 258.477 162.505 324.536 161.697 327.697C161.677 327.775 161.668 327.814 161.668 327.814L236.504 402.651C235.305 404.91 234.623 407.487 234.623 410.236C234.623 419.184 241.873 426.443 250.83 426.443C259.778 426.443 267.037 419.184 267.037 410.236C267.037 407.487 266.356 404.91 265.156 402.655L260.695 397.373C257.96 395.276 254.544 394.024 250.83 394.024C247.117 394.024 243.701 395.276 240.971 397.368L197.7 354.098C201.448 350.351 201.448 344.275 197.7 340.528C197.698 340.525 197.694 340.523 197.691 340.52L244.055 294.036C247.8 297.772 253.861 297.772 257.606 294.036L303.431 339.982C303.431 339.982 303.427 339.983 303.424 339.986C299.677 343.734 300.275 350.298 304.022 354.045L260.695 397.373L265.156 402.655L339.98 327.764Z" fill="#D2D2D2"/>
<path d="M259.91 345.704C259.91 350.719 255.845 354.785 250.83 354.785C245.815 354.785 241.75 350.719 241.75 345.704C241.75 340.689 245.815 336.624 250.83 336.624C255.845 336.624 259.91 340.689 259.91 345.704Z" fill="#D2D2D2"/>
</g>
<g id="Guides">
<g id="Home">
<circle id="Ellipse 1" cx="250.827" cy="410.421" r="16.0848" fill="#D2D2D2"/>
<circle id="Ellipse 1_2" cx="250.827" cy="410.422" r="1.62919" fill="black"/>
</g>
<g id="First">
<circle id="Ellipse 1_3" cx="311.125" cy="346.535" r="10.1878" fill="#D2D2D2"/>
<circle id="Ellipse 1_4" cx="311.125" cy="346.536" r="1.0319" fill="black"/>
</g>
<g id="Third">
<circle id="Ellipse 1_5" cx="190.34" cy="346.535" r="10.1878" fill="#D2D2D2"/>
<circle id="Ellipse 1_6" cx="190.34" cy="346.536" r="1.0319" fill="black"/>
</g>
<g id="Second">
<circle id="Ellipse 1_7" cx="250.827" cy="286.672" r="10.1878" fill="#D2D2D2"/>
<circle id="Ellipse 1_8" cx="250.827" cy="286.673" r="1.0319" fill="black"/>
</g>
<g id="Mound">
<circle id="Ellipse 1_9" cx="250.827" cy="345.931" r="9.08365" fill="#D2D2D2"/>
<circle id="Ellipse 1_10" cx="250.827" cy="345.932" r="0.920062" fill="black"/>
</g>
</g>
<path id="Foul Lines" d="M482.625 178.867L250.976 410.516L12.671 172.215" fill="none" stroke="black" stroke-width="1.002"/>
<g id="Measurements">
<path id="392" d="M388.499 54.7381C386.869 54.7381 386.059 53.9081 385.989 52.6181L387.429 52.5481C387.489 53.2381 387.949 53.4781 388.529 53.4781C389.159 53.4781 389.649 53.1781 389.649 52.4781C389.649 51.7981 389.199 51.4381 388.459 51.4381H387.929V50.3081H388.459C389.019 50.3081 389.429 50.0581 389.429 49.4481C389.429 48.8581 389.079 48.5681 388.519 48.5681C387.899 48.5681 387.599 48.8781 387.539 49.3681L386.099 49.2981C386.239 48.0881 387.069 47.3181 388.529 47.3181C389.989 47.3181 390.889 48.0381 390.889 49.2581C390.889 50.0281 390.489 50.5381 389.739 50.7781C390.609 51.0281 391.109 51.6781 391.109 52.5781C391.109 53.9181 390.099 54.7381 388.499 54.7381ZM394.525 47.3181C396.255 47.3181 397.165 48.4881 397.165 50.5481C397.165 52.8981 396.355 54.7381 394.265 54.7381C392.865 54.7381 392.215 53.9781 391.955 52.9581L393.395 52.8581C393.495 53.2181 393.725 53.4781 394.265 53.4781C395.005 53.4781 395.525 52.9681 395.685 51.7481C395.345 52.0481 394.865 52.2681 394.235 52.2681C392.825 52.2681 391.925 51.3181 391.925 49.8881C391.925 48.3081 392.955 47.3181 394.525 47.3181ZM394.555 48.5981C393.805 48.5981 393.385 49.0381 393.385 49.8381C393.385 50.5781 393.765 51.0581 394.495 51.0581C395.235 51.0581 395.705 50.5681 395.705 49.8281C395.705 49.1481 395.285 48.5981 394.555 48.5981ZM397.981 54.5781C397.981 52.8481 398.561 51.8381 400.541 50.8181C401.271 50.4381 401.631 50.1581 401.631 49.5081C401.631 48.9381 401.301 48.5781 400.671 48.5781C399.951 48.5781 399.601 48.9981 399.481 49.7581L398.011 49.6681C398.151 48.2181 399.061 47.3181 400.691 47.3181C402.281 47.3181 403.101 48.1681 403.101 49.4281C403.101 50.5681 402.611 51.1281 401.211 51.8881C400.061 52.5081 399.651 52.9381 399.611 53.2981H403.101V54.5781H397.981Z" fill="black"/>
<path id="386" d="M78.5427 69.2811C76.9127 69.2811 76.1027 68.4511 76.0327 67.1611L77.4727 67.0911C77.5327 67.7811 77.9927 68.0211 78.5727 68.0211C79.2027 68.0211 79.6927 67.7211 79.6927 67.0211C79.6927 66.3411 79.2427 65.9811 78.5027 65.9811H77.9727V64.8511H78.5027C79.0627 64.8511 79.4727 64.6011 79.4727 63.9911C79.4727 63.4011 79.1227 63.1111 78.5627 63.1111C77.9427 63.1111 77.6427 63.4211 77.5827 63.9111L76.1427 63.8411C76.2827 62.6311 77.1127 61.8611 78.5727 61.8611C80.0327 61.8611 80.9327 62.5811 80.9327 63.8011C80.9327 64.5711 80.5327 65.0811 79.7827 65.3211C80.6527 65.5711 81.1527 66.2211 81.1527 67.1211C81.1527 68.4611 80.1427 69.2811 78.5427 69.2811ZM84.5888 69.2811C83.0188 69.2811 81.9688 68.5611 81.9688 67.1811C81.9688 66.2511 82.5088 65.5911 83.3788 65.3111C82.7088 65.0511 82.2588 64.5611 82.2588 63.8211C82.2588 62.6811 83.1888 61.8611 84.5888 61.8611C85.9888 61.8611 86.9188 62.6811 86.9188 63.8211C86.9188 64.5611 86.4688 65.0511 85.7888 65.3111C86.6688 65.5911 87.2088 66.2511 87.2088 67.1811C87.2088 68.5611 86.1588 69.2811 84.5888 69.2811ZM84.5888 64.7411C85.0988 64.7411 85.4488 64.4711 85.4488 63.9111C85.4488 63.4111 85.1088 63.1211 84.5888 63.1211C84.0688 63.1211 83.7288 63.4111 83.7288 63.9111C83.7288 64.4711 84.0788 64.7411 84.5888 64.7411ZM84.5888 68.0211C85.2288 68.0211 85.7488 67.7411 85.7488 67.0411C85.7488 66.3711 85.3188 65.9511 84.5888 65.9511C83.8588 65.9511 83.4288 66.3711 83.4288 67.0411C83.4288 67.7411 83.9488 68.0211 84.5888 68.0211ZM90.6049 69.2811C88.8749 69.2811 87.9649 68.1111 87.9649 66.0511C87.9649 63.7011 88.7749 61.8611 90.8649 61.8611C92.2649 61.8611 92.9149 62.6211 93.1749 63.6411L91.7349 63.7411C91.6349 63.3811 91.4049 63.1211 90.8649 63.1211C90.1249 63.1211 89.6049 63.6311 89.4449 64.8511C89.7849 64.5511 90.2649 64.3311 90.8949 64.3311C92.3049 64.3311 93.2049 65.2811 93.2049 66.7111C93.2049 68.2911 92.1749 69.2811 90.6049 69.2811ZM90.5749 68.0011C91.3249 68.0011 91.7449 67.5611 91.7449 66.7611C91.7449 66.0211 91.3649 65.5411 90.6349 65.5411C89.8949 65.5411 89.4249 66.0311 89.4249 66.7711C89.4249 67.4511 89.8449 68.0011 90.5749 68.0011Z" fill="black"/>
<path id="335" d="M461.938 182.098C460.308 182.098 459.498 181.267 459.428 179.977L460.868 179.907C460.928 180.597 461.388 180.837 461.968 180.837C462.598 180.837 463.088 180.537 463.088 179.837C463.088 179.157 462.638 178.797 461.898 178.797H461.368V177.667H461.898C462.458 177.667 462.868 177.417 462.868 176.807C462.868 176.217 462.518 175.927 461.958 175.927C461.338 175.927 461.038 176.237 460.978 176.727L459.538 176.658C459.678 175.447 460.508 174.677 461.968 174.677C463.428 174.677 464.328 175.397 464.328 176.617C464.328 177.387 463.928 177.897 463.178 178.137C464.048 178.387 464.548 179.037 464.548 179.937C464.548 181.278 463.538 182.098 461.938 182.098ZM467.934 182.098C466.304 182.098 465.494 181.267 465.424 179.977L466.864 179.907C466.924 180.597 467.384 180.837 467.964 180.837C468.594 180.837 469.084 180.537 469.084 179.837C469.084 179.157 468.634 178.797 467.894 178.797H467.364V177.667H467.894C468.454 177.667 468.864 177.417 468.864 176.807C468.864 176.217 468.514 175.927 467.954 175.927C467.334 175.927 467.034 176.237 466.974 176.727L465.534 176.658C465.674 175.447 466.504 174.677 467.964 174.677C469.424 174.677 470.324 175.397 470.324 176.617C470.324 177.387 469.924 177.897 469.174 178.137C470.044 178.387 470.544 179.037 470.544 179.937C470.544 181.278 469.534 182.098 467.934 182.098ZM473.97 182.098C472.47 182.098 471.56 181.207 471.46 180.037L472.92 179.957C473.01 180.537 473.36 180.837 473.97 180.837C474.63 180.837 475.04 180.417 475.04 179.607C475.04 178.817 474.62 178.357 473.98 178.357C473.54 178.357 473.17 178.617 473.03 178.977L471.56 178.907L471.98 174.837H476.17V176.117H473.15L472.97 177.647C473.3 177.367 473.74 177.207 474.22 177.207C475.63 177.207 476.5 178.227 476.5 179.617C476.5 181.087 475.5 182.098 473.97 182.098Z" fill="black"/>
<path id="344" d="M22.5783 174.598C20.9483 174.598 20.1383 173.767 20.0683 172.477L21.5083 172.407C21.5683 173.097 22.0283 173.337 22.6083 173.337C23.2383 173.337 23.7283 173.037 23.7283 172.337C23.7283 171.657 23.2783 171.297 22.5383 171.297H22.0083V170.167H22.5383C23.0983 170.167 23.5083 169.917 23.5083 169.307C23.5083 168.717 23.1583 168.427 22.5983 168.427C21.9783 168.427 21.6783 168.737 21.6183 169.227L20.1783 169.158C20.3183 167.947 21.1483 167.177 22.6083 167.177C24.0683 167.177 24.9683 167.897 24.9683 169.117C24.9683 169.887 24.5683 170.397 23.8183 170.637C24.6883 170.887 25.1883 171.537 25.1883 172.437C25.1883 173.778 24.1783 174.598 22.5783 174.598ZM29.0744 174.438V173.017H25.9044V171.847L28.8844 167.337H30.5044V171.777H31.3444V173.017H30.5044V174.438H29.0744ZM27.2444 171.777H29.0744V169.127L27.2444 171.777ZM35.0705 174.438V173.017H31.9005V171.847L34.8805 167.337H36.5005V171.777H37.3405V173.017H36.5005V174.438H35.0705ZM33.2405 171.777H35.0705V169.127L33.2405 171.777Z" fill="black"/>
</g>
<path id="field" d="M285.447 442.421L487.183 185.478C467.105 158.551 419.285 95.706 388.625 59.7489C350.301 14.8025 280.072 -1.24978 202.018 0.35437C192.988 22.8286 170.858 25.1118 146.698 37.5369C116.5 53.0674 39.71 95.7763 9.76138 179.313L216.225 442.412C233.838 464.857 267.827 464.862 285.447 442.421Z" fill="#00A3E0" fill-opacity="0.1" fill="none" stroke="#00A3E0" stroke-width="1.002"/>
</g>
<defs>
<clipPath id="clip0_115_5464">
<rect width="500" height="469.94" fill="white"/>
</clipPath>
</defs>
</svg>
