<svg width="500" height="470" viewBox="0 0 500 470" fill="none" xmlns="http://www.w3.org/2000/svg">
<g id="loandepot-park-2020">
<g id="Infield">
<path d="M339.98 327.764C339.453 325.664 322.032 258.477 250.83 258.477C180.238 258.477 162.505 324.536 161.697 327.697C161.677 327.775 161.668 327.814 161.668 327.814L236.504 402.651C235.305 404.91 234.623 407.487 234.623 410.236C234.623 419.184 241.873 426.443 250.83 426.443C259.778 426.443 267.037 419.184 267.037 410.236C267.037 407.487 266.356 404.91 265.157 402.655L260.695 397.373C257.96 395.276 254.544 394.024 250.83 394.024C247.117 394.024 243.701 395.276 240.971 397.368L197.7 354.098C201.448 350.351 201.448 344.275 197.7 340.528C197.698 340.525 197.694 340.523 197.691 340.52L244.055 294.036C247.8 297.772 253.861 297.772 257.606 294.036L303.431 339.982C303.431 339.982 303.427 339.983 303.424 339.986C299.677 343.734 300.275 350.298 304.022 354.045L260.695 397.373L265.157 402.655L339.98 327.764Z" fill="#D2D2D2"/>
<path d="M259.91 345.704C259.91 350.719 255.845 354.785 250.83 354.785C245.815 354.785 241.75 350.719 241.75 345.704C241.75 340.689 245.815 336.624 250.83 336.624C255.845 336.624 259.91 340.689 259.91 345.704Z" fill="#D2D2D2"/>
</g>
<g id="Guides">
<g id="Home">
<circle id="Ellipse 1" cx="250.827" cy="410.421" r="16.0848" fill="#D2D2D2"/>
<circle id="Ellipse 1_2" cx="250.827" cy="410.422" r="1.62919" fill="black"/>
</g>
<g id="First">
<circle id="Ellipse 1_3" cx="311.125" cy="346.535" r="10.1878" fill="#D2D2D2"/>
<circle id="Ellipse 1_4" cx="311.125" cy="346.536" r="1.0319" fill="black"/>
</g>
<g id="Third">
<circle id="Ellipse 1_5" cx="190.34" cy="346.535" r="10.1878" fill="#D2D2D2"/>
<circle id="Ellipse 1_6" cx="190.34" cy="346.536" r="1.0319" fill="black"/>
</g>
<g id="Second">
<circle id="Ellipse 1_7" cx="250.827" cy="286.672" r="10.1878" fill="#D2D2D2"/>
<circle id="Ellipse 1_8" cx="250.827" cy="286.673" r="1.0319" fill="black"/>
</g>
<g id="Mound">
<circle id="Ellipse 1_9" cx="250.827" cy="345.931" r="9.08365" fill="#D2D2D2"/>
<circle id="Ellipse 1_10" cx="250.827" cy="345.932" r="0.920062" fill="black"/>
</g>
</g>
<path id="Foul Lines" d="M482.625 178.867L250.976 410.516L12.671 172.215" fill="none" stroke="black" stroke-width="1.002"/>
<g id="Measurements">
<path id="400" d="M241.203 14.6992V13.2792H238.033V12.1092L241.013 7.59922H242.633V12.0392H243.473V13.2792H242.633V14.6992H241.203ZM239.373 12.0392H241.203V9.38922L239.373 12.0392ZM246.749 14.8592C245.149 14.8592 244.189 13.4492 244.189 11.1592C244.189 8.85922 245.149 7.43922 246.749 7.43922C248.349 7.43922 249.309 8.85922 249.309 11.1592C249.309 13.4492 248.349 14.8592 246.749 14.8592ZM245.649 11.1592C245.649 11.5892 245.679 11.9592 245.739 12.2692L247.429 9.07922C247.249 8.82922 247.019 8.69922 246.749 8.69922C246.059 8.69922 245.649 9.51922 245.649 11.1592ZM246.749 13.5992C247.439 13.5992 247.849 12.7892 247.849 11.1592C247.849 10.7292 247.819 10.3492 247.759 10.0292L246.069 13.2192C246.249 13.4692 246.479 13.5992 246.749 13.5992ZM252.745 14.8592C251.145 14.8592 250.185 13.4492 250.185 11.1592C250.185 8.85922 251.145 7.43922 252.745 7.43922C254.345 7.43922 255.305 8.85922 255.305 11.1592C255.305 13.4492 254.345 14.8592 252.745 14.8592ZM251.645 11.1592C251.645 11.5892 251.675 11.9592 251.735 12.2692L253.425 9.07922C253.245 8.82922 253.015 8.69922 252.745 8.69922C252.055 8.69922 251.645 9.51922 251.645 11.1592ZM252.745 13.5992C253.435 13.5992 253.845 12.7892 253.845 11.1592C253.845 10.7292 253.815 10.3492 253.755 10.0292L252.065 13.2192C252.245 13.4692 252.475 13.5992 252.745 13.5992Z" fill="black"/>
<path id="387" d="M388.499 54.7381C386.869 54.7381 386.059 53.9081 385.989 52.6181L387.429 52.5481C387.489 53.2381 387.949 53.4781 388.529 53.4781C389.159 53.4781 389.649 53.1781 389.649 52.4781C389.649 51.7981 389.199 51.4381 388.459 51.4381H387.929V50.3081H388.459C389.019 50.3081 389.429 50.0581 389.429 49.4481C389.429 48.8581 389.079 48.5681 388.519 48.5681C387.899 48.5681 387.599 48.8781 387.539 49.3681L386.099 49.2981C386.239 48.0881 387.069 47.3181 388.529 47.3181C389.989 47.3181 390.889 48.0381 390.889 49.2581C390.889 50.0281 390.489 50.5381 389.739 50.7781C390.609 51.0281 391.109 51.6781 391.109 52.5781C391.109 53.9181 390.099 54.7381 388.499 54.7381ZM394.545 54.7381C392.975 54.7381 391.925 54.0181 391.925 52.6381C391.925 51.7081 392.465 51.0481 393.335 50.7681C392.665 50.5081 392.215 50.0181 392.215 49.2781C392.215 48.1381 393.145 47.3181 394.545 47.3181C395.945 47.3181 396.875 48.1381 396.875 49.2781C396.875 50.0181 396.425 50.5081 395.745 50.7681C396.625 51.0481 397.165 51.7081 397.165 52.6381C397.165 54.0181 396.115 54.7381 394.545 54.7381ZM394.545 50.1981C395.055 50.1981 395.405 49.9281 395.405 49.3681C395.405 48.8681 395.065 48.5781 394.545 48.5781C394.025 48.5781 393.685 48.8681 393.685 49.3681C393.685 49.9281 394.035 50.1981 394.545 50.1981ZM394.545 53.4781C395.185 53.4781 395.705 53.1981 395.705 52.4981C395.705 51.8281 395.275 51.4081 394.545 51.4081C393.815 51.4081 393.385 51.8281 393.385 52.4981C393.385 53.1981 393.905 53.4781 394.545 53.4781ZM399.211 54.5781C399.211 52.4281 400.111 50.4681 401.581 48.7581H398.081V47.4781H403.001V48.6881C401.371 50.5481 400.701 52.1381 400.701 54.5781H399.211Z" fill="black"/>
<path id="386" d="M77.3025 67.7381C75.6725 67.7381 74.8625 66.9081 74.7925 65.6181L76.2325 65.5481C76.2925 66.2381 76.7525 66.4781 77.3325 66.4781C77.9625 66.4781 78.4525 66.1781 78.4525 65.4781C78.4525 64.7981 78.0025 64.4381 77.2625 64.4381H76.7325V63.3081H77.2625C77.8225 63.3081 78.2325 63.0581 78.2325 62.4481C78.2325 61.8581 77.8825 61.5681 77.3225 61.5681C76.7025 61.5681 76.4025 61.8781 76.3425 62.3681L74.9025 62.2981C75.0425 61.0881 75.8725 60.3181 77.3325 60.3181C78.7925 60.3181 79.6925 61.0381 79.6925 62.2581C79.6925 63.0281 79.2925 63.5381 78.5425 63.7781C79.4125 64.0281 79.9125 64.6781 79.9125 65.5781C79.9125 66.9181 78.9025 67.7381 77.3025 67.7381ZM83.3486 67.7381C81.7786 67.7381 80.7286 67.0181 80.7286 65.6381C80.7286 64.7081 81.2686 64.0481 82.1386 63.7681C81.4686 63.5081 81.0186 63.0181 81.0186 62.2781C81.0186 61.1381 81.9486 60.3181 83.3486 60.3181C84.7486 60.3181 85.6786 61.1381 85.6786 62.2781C85.6786 63.0181 85.2286 63.5081 84.5486 63.7681C85.4286 64.0481 85.9686 64.7081 85.9686 65.6381C85.9686 67.0181 84.9186 67.7381 83.3486 67.7381ZM83.3486 63.1981C83.8586 63.1981 84.2086 62.9281 84.2086 62.3681C84.2086 61.8681 83.8686 61.5781 83.3486 61.5781C82.8286 61.5781 82.4886 61.8681 82.4886 62.3681C82.4886 62.9281 82.8386 63.1981 83.3486 63.1981ZM83.3486 66.4781C83.9886 66.4781 84.5086 66.1981 84.5086 65.4981C84.5086 64.8281 84.0786 64.4081 83.3486 64.4081C82.6186 64.4081 82.1886 64.8281 82.1886 65.4981C82.1886 66.1981 82.7086 66.4781 83.3486 66.4781ZM89.3647 67.7381C87.6347 67.7381 86.7247 66.5681 86.7247 64.5081C86.7247 62.1581 87.5347 60.3181 89.6247 60.3181C91.0247 60.3181 91.6747 61.0781 91.9347 62.0981L90.4947 62.1981C90.3947 61.8381 90.1647 61.5781 89.6247 61.5781C88.8847 61.5781 88.3647 62.0881 88.2047 63.3081C88.5447 63.0081 89.0247 62.7881 89.6547 62.7881C91.0647 62.7881 91.9647 63.7381 91.9647 65.1681C91.9647 66.7481 90.9347 67.7381 89.3647 67.7381ZM89.3347 66.4581C90.0847 66.4581 90.5047 66.0181 90.5047 65.2181C90.5047 64.4781 90.1247 63.9981 89.3947 63.9981C88.6547 63.9981 88.1847 64.4881 88.1847 65.2281C88.1847 65.9081 88.6047 66.4581 89.3347 66.4581Z" fill="black"/>
<path id="335" d="M461.938 182.098C460.308 182.098 459.498 181.267 459.428 179.977L460.868 179.907C460.928 180.597 461.388 180.837 461.968 180.837C462.598 180.837 463.088 180.537 463.088 179.837C463.088 179.157 462.638 178.797 461.898 178.797H461.368V177.667H461.898C462.458 177.667 462.868 177.417 462.868 176.807C462.868 176.217 462.518 175.927 461.958 175.927C461.338 175.927 461.038 176.237 460.978 176.727L459.538 176.658C459.678 175.447 460.508 174.677 461.968 174.677C463.428 174.677 464.328 175.397 464.328 176.617C464.328 177.387 463.928 177.897 463.178 178.137C464.048 178.387 464.548 179.037 464.548 179.937C464.548 181.278 463.538 182.098 461.938 182.098ZM467.934 182.098C466.304 182.098 465.494 181.267 465.424 179.977L466.864 179.907C466.924 180.597 467.384 180.837 467.964 180.837C468.594 180.837 469.084 180.537 469.084 179.837C469.084 179.157 468.634 178.797 467.894 178.797H467.364V177.667H467.894C468.454 177.667 468.864 177.417 468.864 176.807C468.864 176.217 468.514 175.927 467.954 175.927C467.334 175.927 467.034 176.237 466.974 176.727L465.534 176.658C465.674 175.447 466.504 174.677 467.964 174.677C469.424 174.677 470.324 175.397 470.324 176.617C470.324 177.387 469.924 177.897 469.174 178.137C470.044 178.387 470.544 179.037 470.544 179.937C470.544 181.278 469.534 182.098 467.934 182.098ZM473.97 182.098C472.47 182.098 471.56 181.207 471.46 180.037L472.92 179.957C473.01 180.537 473.36 180.837 473.97 180.837C474.63 180.837 475.04 180.417 475.04 179.607C475.04 178.817 474.62 178.357 473.98 178.357C473.54 178.357 473.17 178.617 473.03 178.977L471.56 178.907L471.98 174.837H476.17V176.117H473.15L472.97 177.647C473.3 177.367 473.74 177.207 474.22 177.207C475.63 177.207 476.5 178.227 476.5 179.617C476.5 181.087 475.5 182.098 473.97 182.098Z" fill="black"/>
<path id="344" d="M22.5783 174.598C20.9483 174.598 20.1383 173.767 20.0683 172.477L21.5083 172.407C21.5683 173.097 22.0283 173.337 22.6083 173.337C23.2383 173.337 23.7283 173.037 23.7283 172.337C23.7283 171.657 23.2783 171.297 22.5383 171.297H22.0083V170.167H22.5383C23.0983 170.167 23.5083 169.917 23.5083 169.307C23.5083 168.717 23.1583 168.427 22.5983 168.427C21.9783 168.427 21.6783 168.737 21.6183 169.227L20.1783 169.158C20.3183 167.947 21.1483 167.177 22.6083 167.177C24.0683 167.177 24.9683 167.897 24.9683 169.117C24.9683 169.887 24.5683 170.397 23.8183 170.637C24.6883 170.887 25.1883 171.537 25.1883 172.437C25.1883 173.778 24.1783 174.598 22.5783 174.598ZM29.0744 174.438V173.017H25.9044V171.847L28.8844 167.337H30.5044V171.777H31.3444V173.017H30.5044V174.438H29.0744ZM27.2444 171.777H29.0744V169.127L27.2444 171.777ZM35.0705 174.438V173.017H31.9005V171.847L34.8805 167.337H36.5005V171.777H37.3405V173.017H36.5005V174.438H35.0705ZM33.2405 171.777H35.0705V169.127L33.2405 171.777Z" fill="black"/>
</g>
<path id="field" d="M285.447 442.421L487.183 185.478C468.69 160.676 428.231 103.995 396.557 68.4032C391.378 62.5838 385.108 57.7779 378.156 54.2632C212.504 -29.484 67.0861 41.6189 9.76135 179.313L216.224 442.412C233.838 464.857 267.827 464.862 285.447 442.421Z" fill="#00A3E0" fill-opacity="0.1" fill="none" stroke="#00A3E0" stroke-width="1.002"/>
</g>
</svg>
