<svg width="500" height="470" viewBox="0 0 500 470" fill="none" xmlns="http://www.w3.org/2000/svg">
<g id="memorial-coliseum-la-1958" clip-path="url(#clip0_70_760)">
<g id="Infield">
<path d="M339.98 327.765C339.453 325.666 322.032 258.478 250.83 258.478C180.238 258.478 162.505 324.537 161.697 327.698C161.677 327.776 161.668 327.816 161.668 327.816L236.504 402.652C235.305 404.911 234.623 407.488 234.623 410.237C234.623 419.185 241.873 426.444 250.83 426.444C259.778 426.444 267.037 419.185 267.037 410.237C267.037 407.488 266.356 404.911 265.156 402.657L260.695 397.374C257.96 395.277 254.544 394.025 250.83 394.025C247.117 394.025 243.701 395.277 240.971 397.369L197.7 354.099C201.448 350.352 201.448 344.276 197.7 340.529C197.698 340.526 197.694 340.524 197.691 340.521L244.055 294.037C247.8 297.773 253.861 297.773 257.606 294.037L303.431 339.983C303.431 339.983 303.427 339.985 303.424 339.988C299.677 343.735 300.275 350.299 304.022 354.046L260.695 397.374L265.156 402.657L339.98 327.765Z" fill="#D2D2D2"/>
<path d="M259.91 345.706C259.91 350.72 255.845 354.786 250.83 354.786C245.815 354.786 241.75 350.72 241.75 345.706C241.75 340.691 245.815 336.625 250.83 336.625C255.845 336.625 259.91 340.691 259.91 345.706Z" fill="#D2D2D2"/>
</g>
<g id="Guides">
<g id="Home">
<circle id="Ellipse 1" cx="250.827" cy="410.42" r="16.0848" fill="#D2D2D2"/>
<circle id="Ellipse 1_2" cx="250.827" cy="410.42" r="1.62919" fill="black"/>
</g>
<g id="First">
<circle id="Ellipse 1_3" cx="311.125" cy="346.533" r="10.1878" fill="#D2D2D2"/>
<circle id="Ellipse 1_4" cx="311.125" cy="346.533" r="1.0319" fill="black"/>
</g>
<g id="Third">
<circle id="Ellipse 1_5" cx="190.34" cy="346.533" r="10.1878" fill="#D2D2D2"/>
<circle id="Ellipse 1_6" cx="190.34" cy="346.533" r="1.0319" fill="black"/>
</g>
<g id="Second">
<circle id="Ellipse 1_7" cx="250.827" cy="286.671" r="10.1878" fill="#D2D2D2"/>
<circle id="Ellipse 1_8" cx="250.827" cy="286.671" r="1.0319" fill="black"/>
</g>
<g id="Mound">
<circle id="Ellipse 1_9" cx="250.827" cy="345.929" r="9.08365" fill="#D2D2D2"/>
<circle id="Ellipse 1_10" cx="250.827" cy="345.929" r="0.920062" fill="black"/>
</g>
</g>
<path id="Foul Lines" d="M460.905 200.587L250.976 410.516L72.6559 232.196" fill="none" stroke="black" stroke-width="1.002"/>
<g id="Measurements">
<path id="380" d="M391.127 54.1666C389.497 54.1666 388.687 53.3366 388.617 52.0466L390.057 51.9766C390.117 52.6666 390.577 52.9066 391.157 52.9066C391.787 52.9066 392.277 52.6066 392.277 51.9066C392.277 51.2266 391.827 50.8666 391.087 50.8666H390.557V49.7366H391.087C391.647 49.7366 392.057 49.4866 392.057 48.8766C392.057 48.2866 391.707 47.9966 391.147 47.9966C390.527 47.9966 390.227 48.3066 390.167 48.7966L388.727 48.7266C388.867 47.5166 389.697 46.7466 391.157 46.7466C392.617 46.7466 393.517 47.4666 393.517 48.6866C393.517 49.4566 393.117 49.9666 392.367 50.2066C393.237 50.4566 393.737 51.1066 393.737 52.0066C393.737 53.3466 392.727 54.1666 391.127 54.1666ZM397.173 54.1666C395.603 54.1666 394.553 53.4466 394.553 52.0666C394.553 51.1366 395.093 50.4766 395.963 50.1966C395.293 49.9366 394.843 49.4466 394.843 48.7066C394.843 47.5666 395.773 46.7466 397.173 46.7466C398.573 46.7466 399.503 47.5666 399.503 48.7066C399.503 49.4466 399.053 49.9366 398.373 50.1966C399.253 50.4766 399.793 51.1366 399.793 52.0666C399.793 53.4466 398.743 54.1666 397.173 54.1666ZM397.173 49.6266C397.683 49.6266 398.033 49.3566 398.033 48.7966C398.033 48.2966 397.693 48.0066 397.173 48.0066C396.653 48.0066 396.313 48.2966 396.313 48.7966C396.313 49.3566 396.663 49.6266 397.173 49.6266ZM397.173 52.9066C397.813 52.9066 398.333 52.6266 398.333 51.9266C398.333 51.2566 397.903 50.8366 397.173 50.8366C396.443 50.8366 396.013 51.2566 396.013 51.9266C396.013 52.6266 396.533 52.9066 397.173 52.9066ZM403.169 54.1666C401.569 54.1666 400.609 52.7566 400.609 50.4666C400.609 48.1666 401.569 46.7466 403.169 46.7466C404.769 46.7466 405.729 48.1666 405.729 50.4666C405.729 52.7566 404.769 54.1666 403.169 54.1666ZM402.069 50.4666C402.069 50.8966 402.099 51.2666 402.159 51.5766L403.849 48.3866C403.669 48.1366 403.439 48.0066 403.169 48.0066C402.479 48.0066 402.069 48.8266 402.069 50.4666ZM403.169 52.9066C403.859 52.9066 404.269 52.0966 404.269 50.4666C404.269 50.0366 404.239 49.6566 404.179 49.3366L402.489 52.5266C402.669 52.7766 402.899 52.9066 403.169 52.9066Z" fill="black"/>
<path id="320" d="M116.01 111.106C114.38 111.106 113.57 110.276 113.5 108.986L114.94 108.916C115 109.606 115.46 109.846 116.04 109.846C116.67 109.846 117.16 109.546 117.16 108.846C117.16 108.166 116.71 107.806 115.97 107.806H115.44V106.676H115.97C116.53 106.676 116.94 106.426 116.94 105.816C116.94 105.226 116.59 104.936 116.03 104.936C115.41 104.936 115.11 105.246 115.05 105.736L113.61 105.666C113.75 104.456 114.58 103.686 116.04 103.686C117.5 103.686 118.4 104.406 118.4 105.626C118.4 106.396 118 106.906 117.25 107.146C118.12 107.396 118.62 108.046 118.62 108.946C118.62 110.286 117.61 111.106 116.01 111.106ZM119.496 110.946C119.496 109.216 120.076 108.206 122.056 107.186C122.786 106.806 123.146 106.526 123.146 105.876C123.146 105.306 122.816 104.946 122.186 104.946C121.466 104.946 121.116 105.366 120.996 106.126L119.526 106.036C119.666 104.586 120.576 103.686 122.206 103.686C123.796 103.686 124.616 104.536 124.616 105.796C124.616 106.936 124.126 107.496 122.726 108.256C121.576 108.876 121.166 109.306 121.126 109.666H124.616V110.946H119.496ZM128.052 111.106C126.452 111.106 125.492 109.696 125.492 107.406C125.492 105.106 126.452 103.686 128.052 103.686C129.652 103.686 130.612 105.106 130.612 107.406C130.612 109.696 129.652 111.106 128.052 111.106ZM126.952 107.406C126.952 107.836 126.982 108.206 127.042 108.516L128.732 105.326C128.552 105.076 128.322 104.946 128.052 104.946C127.362 104.946 126.952 105.766 126.952 107.406ZM128.052 109.846C128.742 109.846 129.152 109.036 129.152 107.406C129.152 106.976 129.122 106.596 129.062 106.276L127.372 109.466C127.552 109.716 127.782 109.846 128.052 109.846Z" fill="black"/>
<path id="300" d="M442.351 199.568C440.721 199.568 439.911 198.738 439.841 197.448L441.281 197.378C441.341 198.068 441.801 198.308 442.381 198.308C443.011 198.308 443.501 198.008 443.501 197.308C443.501 196.628 443.051 196.268 442.311 196.268H441.781V195.138H442.311C442.871 195.138 443.281 194.888 443.281 194.278C443.281 193.688 442.931 193.398 442.371 193.398C441.751 193.398 441.451 193.708 441.391 194.198L439.951 194.128C440.091 192.918 440.921 192.148 442.381 192.148C443.841 192.148 444.741 192.868 444.741 194.088C444.741 194.858 444.341 195.368 443.591 195.608C444.461 195.858 444.961 196.508 444.961 197.408C444.961 198.748 443.951 199.568 442.351 199.568ZM448.397 199.568C446.797 199.568 445.837 198.158 445.837 195.868C445.837 193.568 446.797 192.148 448.397 192.148C449.997 192.148 450.957 193.568 450.957 195.868C450.957 198.158 449.997 199.568 448.397 199.568ZM447.297 195.868C447.297 196.298 447.327 196.668 447.387 196.978L449.077 193.788C448.897 193.538 448.667 193.408 448.397 193.408C447.707 193.408 447.297 194.228 447.297 195.868ZM448.397 198.308C449.087 198.308 449.497 197.498 449.497 195.868C449.497 195.438 449.467 195.058 449.407 194.738L447.717 197.928C447.897 198.178 448.127 198.308 448.397 198.308ZM454.393 199.568C452.793 199.568 451.833 198.158 451.833 195.868C451.833 193.568 452.793 192.148 454.393 192.148C455.993 192.148 456.953 193.568 456.953 195.868C456.953 198.158 455.993 199.568 454.393 199.568ZM453.293 195.868C453.293 196.298 453.323 196.668 453.383 196.978L455.073 193.788C454.893 193.538 454.663 193.408 454.393 193.408C453.703 193.408 453.293 194.228 453.293 195.868ZM454.393 198.308C455.083 198.308 455.493 197.498 455.493 195.868C455.493 195.438 455.463 195.058 455.403 194.738L453.713 197.928C453.893 198.178 454.123 198.308 454.393 198.308Z" fill="black"/>
<path id="251" d="M82.716 234.97C82.716 233.24 83.296 232.23 85.276 231.21C86.006 230.83 86.366 230.55 86.366 229.9C86.366 229.33 86.036 228.97 85.406 228.97C84.686 228.97 84.336 229.39 84.216 230.15L82.746 230.06C82.886 228.61 83.796 227.71 85.426 227.71C87.016 227.71 87.836 228.56 87.836 229.82C87.836 230.96 87.346 231.52 85.946 232.28C84.796 232.9 84.386 233.33 84.346 233.69H87.836V234.97H82.716ZM91.2621 235.13C89.7621 235.13 88.8521 234.24 88.7521 233.07L90.2121 232.99C90.3021 233.57 90.6521 233.87 91.2621 233.87C91.9221 233.87 92.3321 233.45 92.3321 232.64C92.3321 231.85 91.9121 231.39 91.2721 231.39C90.8321 231.39 90.4621 231.65 90.3221 232.01L88.8521 231.94L89.2721 227.87H93.4621V229.15H90.4421L90.2621 230.68C90.5921 230.4 91.0321 230.24 91.5121 230.24C92.9221 230.24 93.7921 231.26 93.7921 232.65C93.7921 234.12 92.7921 235.13 91.2621 235.13ZM94.7482 234.97V233.69H96.7882V230.31H95.0482V229.13H95.8282C96.6282 229.13 96.9682 228.79 96.9682 227.87H98.2082V233.69H99.7882V234.97H94.7482Z" fill="black"/>
</g>
<path id="field" d="M477.422 173.164C413.197 281.32 372.092 333.728 289.113 419.02C290.876 420.986 293.96 426.564 292.196 433.149H287.314L266.248 472.712L234.906 475.538L214.868 448.563L216.409 457.812C135.742 459.867 12.4291 406.431 72.2873 232.508C127.007 122.811 114.911 138.733 209.115 5.40743C299.564 -1.79101 341.37 -22.4383 477.422 173.164Z" fill="#005A9C" fill-opacity="0.1" stroke="#005A9C"/>
</g>
<defs>
<clipPath id="clip0_70_760">
<rect width="500" height="469.94" fill="white"/>
</clipPath>
</defs>
</svg>
