<svg width="500" height="470" viewBox="0 0 500 470" fill="none" xmlns="http://www.w3.org/2000/svg">
<g id="metropolitan-stadium-1956" clip-path="url(#clip0_109_4301)">
<g id="Infield">
<path d="M339.98 327.766C339.453 325.666 322.032 258.479 250.83 258.479C180.238 258.479 162.505 324.538 161.697 327.699C161.677 327.776 161.668 327.816 161.668 327.816L236.504 402.653C235.305 404.912 234.623 407.489 234.623 410.238C234.623 419.186 241.873 426.445 250.83 426.445C259.778 426.445 267.037 419.186 267.037 410.238C267.037 407.489 266.356 404.912 265.156 402.657L260.695 397.375C257.96 395.278 254.544 394.026 250.83 394.026C247.117 394.026 243.701 395.278 240.971 397.37L197.7 354.1C201.448 350.353 201.448 344.277 197.7 340.53C197.698 340.527 197.694 340.525 197.691 340.522L244.055 294.038C247.8 297.773 253.861 297.773 257.606 294.038L303.431 339.984C303.431 339.984 303.427 339.985 303.424 339.988C299.677 343.736 300.275 350.3 304.022 354.047L260.695 397.375L265.156 402.657L339.98 327.766Z" fill="#D2D2D2"/>
<path d="M259.91 345.706C259.91 350.721 255.845 354.787 250.83 354.787C245.815 354.787 241.75 350.721 241.75 345.706C241.75 340.691 245.815 336.626 250.83 336.626C255.845 336.626 259.91 340.691 259.91 345.706Z" fill="#D2D2D2"/>
</g>
<g id="Guides">
<g id="Home">
<circle id="Ellipse 1" cx="250.827" cy="410.419" r="16.0848" fill="#D2D2D2"/>
<circle id="Ellipse 1_2" cx="250.827" cy="410.418" r="1.62919" fill="black"/>
</g>
<g id="First">
<circle id="Ellipse 1_3" cx="311.125" cy="346.532" r="10.1878" fill="#D2D2D2"/>
<circle id="Ellipse 1_4" cx="311.125" cy="346.532" r="1.0319" fill="black"/>
</g>
<g id="Third">
<circle id="Ellipse 1_5" cx="190.34" cy="346.532" r="10.1878" fill="#D2D2D2"/>
<circle id="Ellipse 1_6" cx="190.34" cy="346.532" r="1.0319" fill="black"/>
</g>
<g id="Second">
<circle id="Ellipse 1_7" cx="250.827" cy="286.67" r="10.1878" fill="#D2D2D2"/>
<circle id="Ellipse 1_8" cx="250.827" cy="286.671" r="1.0319" fill="black"/>
</g>
<g id="Mound">
<circle id="Ellipse 1_9" cx="250.827" cy="345.929" r="9.08365" fill="#D2D2D2"/>
<circle id="Ellipse 1_10" cx="250.827" cy="345.93" r="0.920062" fill="black"/>
</g>
</g>
<path id="Foul Lines" d="M480.559 180.918L250.961 410.516L21.2692 180.824" fill="none" stroke="black" stroke-width="1.002"/>
<g id="Measurements">
<path id="412" d="M246.203 4.69922V3.27922H243.033V2.10922L246.013 -2.40078H247.633V2.03922H248.473V3.27922H247.633V4.69922H246.203ZM244.373 2.03922H246.203V-0.610781L244.373 2.03922ZM249.229 4.69922V3.41922H251.269V0.0392185H249.529V-1.14078H250.309C251.109 -1.14078 251.449 -1.48078 251.449 -2.40078H252.689V3.41922H254.269V4.69922H249.229ZM255.185 4.69922C255.185 2.96922 255.765 1.95922 257.745 0.939219C258.475 0.559218 258.835 0.279218 258.835 -0.370782C258.835 -0.940781 258.505 -1.30078 257.875 -1.30078C257.155 -1.30078 256.805 -0.880782 256.685 -0.120781L255.215 -0.210782C255.355 -1.66078 256.265 -2.56078 257.895 -2.56078C259.485 -2.56078 260.305 -1.71078 260.305 -0.450782C260.305 0.689219 259.815 1.24922 258.415 2.00922C257.265 2.62922 256.855 3.05922 256.815 3.41922H260.305V4.69922H255.185Z" fill="black"/>
<path id="330" d="M460.938 178.598C459.308 178.598 458.498 177.767 458.428 176.477L459.868 176.407C459.928 177.097 460.388 177.337 460.968 177.337C461.598 177.337 462.088 177.037 462.088 176.337C462.088 175.657 461.638 175.297 460.898 175.297H460.368V174.167H460.898C461.458 174.167 461.868 173.917 461.868 173.307C461.868 172.717 461.518 172.427 460.958 172.427C460.338 172.427 460.038 172.737 459.978 173.227L458.538 173.158C458.678 171.947 459.508 171.177 460.968 171.177C462.428 171.177 463.328 171.897 463.328 173.117C463.328 173.887 462.928 174.397 462.178 174.637C463.048 174.887 463.548 175.537 463.548 176.437C463.548 177.778 462.538 178.598 460.938 178.598ZM466.934 178.598C465.304 178.598 464.494 177.767 464.424 176.477L465.864 176.407C465.924 177.097 466.384 177.337 466.964 177.337C467.594 177.337 468.084 177.037 468.084 176.337C468.084 175.657 467.634 175.297 466.894 175.297H466.364V174.167H466.894C467.454 174.167 467.864 173.917 467.864 173.307C467.864 172.717 467.514 172.427 466.954 172.427C466.334 172.427 466.034 172.737 465.974 173.227L464.534 173.158C464.674 171.947 465.504 171.177 466.964 171.177C468.424 171.177 469.324 171.897 469.324 173.117C469.324 173.887 468.924 174.397 468.174 174.637C469.044 174.887 469.544 175.537 469.544 176.437C469.544 177.778 468.534 178.598 466.934 178.598ZM472.98 178.598C471.38 178.598 470.42 177.188 470.42 174.897C470.42 172.597 471.38 171.177 472.98 171.177C474.58 171.177 475.54 172.597 475.54 174.897C475.54 177.188 474.58 178.598 472.98 178.598ZM471.88 174.897C471.88 175.327 471.91 175.697 471.97 176.007L473.66 172.817C473.48 172.567 473.25 172.437 472.98 172.437C472.29 172.437 471.88 173.257 471.88 174.897ZM472.98 177.337C473.67 177.337 474.08 176.527 474.08 174.897C474.08 174.467 474.05 174.087 473.99 173.767L472.3 176.957C472.48 177.207 472.71 177.337 472.98 177.337Z" fill="black"/>
<path id="330_2" d="M28.5783 178.598C26.9483 178.598 26.1383 177.767 26.0683 176.477L27.5083 176.407C27.5683 177.097 28.0283 177.337 28.6083 177.337C29.2383 177.337 29.7283 177.037 29.7283 176.337C29.7283 175.657 29.2783 175.297 28.5383 175.297H28.0083V174.167H28.5383C29.0983 174.167 29.5083 173.917 29.5083 173.307C29.5083 172.717 29.1583 172.427 28.5983 172.427C27.9783 172.427 27.6783 172.737 27.6183 173.227L26.1783 173.158C26.3183 171.947 27.1483 171.177 28.6083 171.177C30.0683 171.177 30.9683 171.897 30.9683 173.117C30.9683 173.887 30.5683 174.397 29.8183 174.637C30.6883 174.887 31.1883 175.537 31.1883 176.437C31.1883 177.778 30.1783 178.598 28.5783 178.598ZM34.5744 178.598C32.9444 178.598 32.1344 177.767 32.0644 176.477L33.5044 176.407C33.5644 177.097 34.0244 177.337 34.6044 177.337C35.2344 177.337 35.7244 177.037 35.7244 176.337C35.7244 175.657 35.2744 175.297 34.5344 175.297H34.0044V174.167H34.5344C35.0944 174.167 35.5044 173.917 35.5044 173.307C35.5044 172.717 35.1544 172.427 34.5944 172.427C33.9744 172.427 33.6744 172.737 33.6144 173.227L32.1744 173.158C32.3144 171.947 33.1444 171.177 34.6044 171.177C36.0644 171.177 36.9644 171.897 36.9644 173.117C36.9644 173.887 36.5644 174.397 35.8144 174.637C36.6844 174.887 37.1844 175.537 37.1844 176.437C37.1844 177.778 36.1744 178.598 34.5744 178.598ZM40.6205 178.598C39.0205 178.598 38.0605 177.188 38.0605 174.897C38.0605 172.597 39.0205 171.177 40.6205 171.177C42.2205 171.177 43.1805 172.597 43.1805 174.897C43.1805 177.188 42.2205 178.598 40.6205 178.598ZM39.5205 174.897C39.5205 175.327 39.5505 175.697 39.6105 176.007L41.3005 172.817C41.1205 172.567 40.8905 172.437 40.6205 172.437C39.9305 172.437 39.5205 173.257 39.5205 174.897ZM40.6205 177.337C41.3105 177.337 41.7205 176.527 41.7205 174.897C41.7205 174.467 41.6905 174.087 41.6305 173.767L39.9405 176.957C40.1205 177.207 40.3505 177.337 40.6205 177.337Z" fill="black"/>
</g>
<g id="field">
<path d="M250.828 7.34766L250.83 7.34766H250.826L250.828 7.34766Z" fill="#002B5C" fill-opacity="0.1"/>
<path d="M250.83 7.34766L250.828 7.34766C406.784 7.34873 515.686 139.88 470.063 218.9L336.372 424.752C296.154 486.677 205.505 486.677 165.287 424.752L31.5933 218.9C-14.0293 139.88 94.8723 7.34873 250.828 7.34766L250.826 7.34766H250.83Z" fill="#002B5C" fill-opacity="0.1"/>
<path d="M250.828 7.34766L250.83 7.34766H250.826L250.828 7.34766ZM250.828 7.34766C94.8723 7.34873 -14.0293 139.88 31.5933 218.9L165.287 424.752C205.505 486.677 296.154 486.677 336.372 424.752L470.063 218.9C515.686 139.88 406.784 7.34873 250.828 7.34766Z" fill="none" stroke="#002B5C" stroke-width="1.002"/>
</g>
</g>
<defs>
<clipPath id="clip0_109_4301">
<rect width="500" height="469.94" fill="white"/>
</clipPath>
</defs>
</svg>
