<svg width="500" height="470" viewBox="0 0 500 470" fill="none" xmlns="http://www.w3.org/2000/svg">
<g id="metropolitan-stadium-1961" clip-path="url(#clip0_110_4328)">
<g id="Infield">
<path d="M339.98 327.766C339.453 325.666 322.032 258.479 250.83 258.479C180.238 258.479 162.505 324.538 161.697 327.699C161.677 327.776 161.668 327.816 161.668 327.816L236.504 402.653C235.305 404.912 234.623 407.489 234.623 410.238C234.623 419.186 241.873 426.445 250.83 426.445C259.778 426.445 267.037 419.186 267.037 410.238C267.037 407.489 266.356 404.912 265.156 402.657L260.695 397.375C257.96 395.278 254.544 394.026 250.83 394.026C247.117 394.026 243.701 395.278 240.971 397.37L197.7 354.1C201.448 350.353 201.448 344.277 197.7 340.53C197.698 340.527 197.694 340.525 197.691 340.522L244.055 294.038C247.8 297.773 253.861 297.773 257.606 294.038L303.431 339.984C303.431 339.984 303.427 339.985 303.424 339.988C299.677 343.736 300.275 350.3 304.022 354.047L260.695 397.375L265.156 402.657L339.98 327.766Z" fill="#D2D2D2"/>
<path d="M259.91 345.706C259.91 350.721 255.845 354.787 250.83 354.787C245.815 354.787 241.75 350.721 241.75 345.706C241.75 340.691 245.815 336.626 250.83 336.626C255.845 336.626 259.91 340.691 259.91 345.706Z" fill="#D2D2D2"/>
</g>
<g id="Guides">
<g id="Home">
<circle id="Ellipse 1" cx="250.827" cy="410.419" r="16.0848" fill="#D2D2D2"/>
<circle id="Ellipse 1_2" cx="250.827" cy="410.418" r="1.62919" fill="black"/>
</g>
<g id="First">
<circle id="Ellipse 1_3" cx="311.125" cy="346.532" r="10.1878" fill="#D2D2D2"/>
<circle id="Ellipse 1_4" cx="311.125" cy="346.532" r="1.0319" fill="black"/>
</g>
<g id="Third">
<circle id="Ellipse 1_5" cx="190.34" cy="346.532" r="10.1878" fill="#D2D2D2"/>
<circle id="Ellipse 1_6" cx="190.34" cy="346.532" r="1.0319" fill="black"/>
</g>
<g id="Second">
<circle id="Ellipse 1_7" cx="250.827" cy="286.67" r="10.1878" fill="#D2D2D2"/>
<circle id="Ellipse 1_8" cx="250.827" cy="286.671" r="1.0319" fill="black"/>
</g>
<g id="Mound">
<circle id="Ellipse 1_9" cx="250.827" cy="345.929" r="9.08365" fill="#D2D2D2"/>
<circle id="Ellipse 1_10" cx="250.827" cy="345.93" r="0.920062" fill="black"/>
</g>
</g>
<path id="Foul Lines" d="M480.559 180.918L250.961 410.516L21.2692 180.824" fill="none" stroke="black" stroke-width="1.002"/>
<g id="Measurements">
<path id="412" d="M246.203 4.69922V3.27922H243.033V2.10922L246.013 -2.40078H247.633V2.03922H248.473V3.27922H247.633V4.69922H246.203ZM244.373 2.03922H246.203V-0.610781L244.373 2.03922ZM249.229 4.69922V3.41922H251.269V0.0392185H249.529V-1.14078H250.309C251.109 -1.14078 251.449 -1.48078 251.449 -2.40078H252.689V3.41922H254.269V4.69922H249.229ZM255.185 4.69922C255.185 2.96922 255.765 1.95922 257.745 0.939219C258.475 0.559218 258.835 0.279218 258.835 -0.370782C258.835 -0.940781 258.505 -1.30078 257.875 -1.30078C257.155 -1.30078 256.805 -0.880782 256.685 -0.120781L255.215 -0.210782C255.355 -1.66078 256.265 -2.56078 257.895 -2.56078C259.485 -2.56078 260.305 -1.71078 260.305 -0.450782C260.305 0.689219 259.815 1.24922 258.415 2.00922C257.265 2.62922 256.855 3.05922 256.815 3.41922H260.305V4.69922H255.185Z" fill="black"/>
<path id="402" d="M145.506 21.7266V20.3066H142.336V19.1366L145.316 14.6266H146.936V19.0666H147.776V20.3066H146.936V21.7266H145.506ZM143.676 19.0666H145.506V16.4166L143.676 19.0666ZM151.052 21.8866C149.452 21.8866 148.492 20.4766 148.492 18.1866C148.492 15.8866 149.452 14.4666 151.052 14.4666C152.652 14.4666 153.612 15.8866 153.612 18.1866C153.612 20.4766 152.652 21.8866 151.052 21.8866ZM149.952 18.1866C149.952 18.6166 149.982 18.9866 150.042 19.2966L151.732 16.1066C151.552 15.8566 151.322 15.7266 151.052 15.7266C150.362 15.7266 149.952 16.5466 149.952 18.1866ZM151.052 20.6266C151.742 20.6266 152.152 19.8166 152.152 18.1866C152.152 17.7566 152.122 17.3766 152.062 17.0566L150.372 20.2466C150.552 20.4966 150.782 20.6266 151.052 20.6266ZM154.489 21.7266C154.489 19.9966 155.069 18.9866 157.049 17.9666C157.779 17.5866 158.139 17.3066 158.139 16.6566C158.139 16.0866 157.809 15.7266 157.179 15.7266C156.459 15.7266 156.109 16.1466 155.989 16.9066L154.519 16.8166C154.659 15.3666 155.569 14.4666 157.199 14.4666C158.789 14.4666 159.609 15.3166 159.609 16.5766C159.609 17.7166 159.119 18.2766 157.719 19.0366C156.569 19.6566 156.159 20.0866 156.119 20.4466H159.609V21.7266H154.489Z" fill="black"/>
<path id="402_2" d="M345.725 21.7266V20.3066H342.555V19.1366L345.535 14.6266H347.155V19.0666H347.995V20.3066H347.155V21.7266H345.725ZM343.895 19.0666H345.725V16.4166L343.895 19.0666ZM351.271 21.8866C349.671 21.8866 348.711 20.4766 348.711 18.1866C348.711 15.8866 349.671 14.4666 351.271 14.4666C352.871 14.4666 353.831 15.8866 353.831 18.1866C353.831 20.4766 352.871 21.8866 351.271 21.8866ZM350.171 18.1866C350.171 18.6166 350.201 18.9866 350.261 19.2966L351.951 16.1066C351.771 15.8566 351.541 15.7266 351.271 15.7266C350.581 15.7266 350.171 16.5466 350.171 18.1866ZM351.271 20.6266C351.961 20.6266 352.371 19.8166 352.371 18.1866C352.371 17.7566 352.341 17.3766 352.281 17.0566L350.591 20.2466C350.771 20.4966 351.001 20.6266 351.271 20.6266ZM354.707 21.7266C354.707 19.9966 355.287 18.9866 357.267 17.9666C357.997 17.5866 358.357 17.3066 358.357 16.6566C358.357 16.0866 358.027 15.7266 357.397 15.7266C356.677 15.7266 356.327 16.1466 356.207 16.9066L354.737 16.8166C354.877 15.3666 355.787 14.4666 357.417 14.4666C359.007 14.4666 359.827 15.3166 359.827 16.5766C359.827 17.7166 359.337 18.2766 357.937 19.0366C356.787 19.6566 356.377 20.0866 356.337 20.4466H359.827V21.7266H354.707Z" fill="black"/>
<path id="330" d="M460.938 178.598C459.308 178.598 458.498 177.767 458.428 176.477L459.868 176.407C459.928 177.097 460.388 177.337 460.968 177.337C461.598 177.337 462.088 177.037 462.088 176.337C462.088 175.657 461.638 175.297 460.898 175.297H460.368V174.167H460.898C461.458 174.167 461.868 173.917 461.868 173.307C461.868 172.717 461.518 172.427 460.958 172.427C460.338 172.427 460.038 172.737 459.978 173.227L458.538 173.158C458.678 171.947 459.508 171.177 460.968 171.177C462.428 171.177 463.328 171.897 463.328 173.117C463.328 173.887 462.928 174.397 462.178 174.637C463.048 174.887 463.548 175.537 463.548 176.437C463.548 177.778 462.538 178.598 460.938 178.598ZM466.934 178.598C465.304 178.598 464.494 177.767 464.424 176.477L465.864 176.407C465.924 177.097 466.384 177.337 466.964 177.337C467.594 177.337 468.084 177.037 468.084 176.337C468.084 175.657 467.634 175.297 466.894 175.297H466.364V174.167H466.894C467.454 174.167 467.864 173.917 467.864 173.307C467.864 172.717 467.514 172.427 466.954 172.427C466.334 172.427 466.034 172.737 465.974 173.227L464.534 173.158C464.674 171.947 465.504 171.177 466.964 171.177C468.424 171.177 469.324 171.897 469.324 173.117C469.324 173.887 468.924 174.397 468.174 174.637C469.044 174.887 469.544 175.537 469.544 176.437C469.544 177.778 468.534 178.598 466.934 178.598ZM472.98 178.598C471.38 178.598 470.42 177.188 470.42 174.897C470.42 172.597 471.38 171.177 472.98 171.177C474.58 171.177 475.54 172.597 475.54 174.897C475.54 177.188 474.58 178.598 472.98 178.598ZM471.88 174.897C471.88 175.327 471.91 175.697 471.97 176.007L473.66 172.817C473.48 172.567 473.25 172.437 472.98 172.437C472.29 172.437 471.88 173.257 471.88 174.897ZM472.98 177.337C473.67 177.337 474.08 176.527 474.08 174.897C474.08 174.467 474.05 174.087 473.99 173.767L472.3 176.957C472.48 177.207 472.71 177.337 472.98 177.337Z" fill="black"/>
<path id="330_2" d="M28.5783 178.598C26.9483 178.598 26.1383 177.767 26.0683 176.477L27.5083 176.407C27.5683 177.097 28.0283 177.337 28.6083 177.337C29.2383 177.337 29.7283 177.037 29.7283 176.337C29.7283 175.657 29.2783 175.297 28.5383 175.297H28.0083V174.167H28.5383C29.0983 174.167 29.5083 173.917 29.5083 173.307C29.5083 172.717 29.1583 172.427 28.5983 172.427C27.9783 172.427 27.6783 172.737 27.6183 173.227L26.1783 173.158C26.3183 171.947 27.1483 171.177 28.6083 171.177C30.0683 171.177 30.9683 171.897 30.9683 173.117C30.9683 173.887 30.5683 174.397 29.8183 174.637C30.6883 174.887 31.1883 175.537 31.1883 176.437C31.1883 177.778 30.1783 178.598 28.5783 178.598ZM34.5744 178.598C32.9444 178.598 32.1344 177.767 32.0644 176.477L33.5044 176.407C33.5644 177.097 34.0244 177.337 34.6044 177.337C35.2344 177.337 35.7244 177.037 35.7244 176.337C35.7244 175.657 35.2744 175.297 34.5344 175.297H34.0044V174.167H34.5344C35.0944 174.167 35.5044 173.917 35.5044 173.307C35.5044 172.717 35.1544 172.427 34.5944 172.427C33.9744 172.427 33.6744 172.737 33.6144 173.227L32.1744 173.158C32.3144 171.947 33.1444 171.177 34.6044 171.177C36.0644 171.177 36.9644 171.897 36.9644 173.117C36.9644 173.887 36.5644 174.397 35.8144 174.637C36.6844 174.887 37.1844 175.537 37.1844 176.437C37.1844 177.778 36.1744 178.598 34.5744 178.598ZM40.6205 178.598C39.0205 178.598 38.0605 177.188 38.0605 174.897C38.0605 172.597 39.0205 171.177 40.6205 171.177C42.2205 171.177 43.1805 172.597 43.1805 174.897C43.1805 177.188 42.2205 178.598 40.6205 178.598ZM39.5205 174.897C39.5205 175.327 39.5505 175.697 39.6105 176.007L41.3005 172.817C41.1205 172.567 40.8905 172.437 40.6205 172.437C39.9305 172.437 39.5205 173.257 39.5205 174.897ZM40.6205 177.337C41.3105 177.337 41.7205 176.527 41.7205 174.897C41.7205 174.467 41.6905 174.087 41.6305 173.767L39.9405 176.957C40.1205 177.207 40.3505 177.337 40.6205 177.337Z" fill="black"/>
<path id="365" d="M58.523 98.158C56.893 98.158 56.083 97.328 56.013 96.038L57.453 95.968C57.513 96.658 57.973 96.898 58.553 96.898C59.183 96.898 59.673 96.598 59.673 95.898C59.673 95.218 59.223 94.858 58.483 94.858H57.953V93.728H58.483C59.043 93.728 59.453 93.478 59.453 92.868C59.453 92.278 59.103 91.988 58.543 91.988C57.923 91.988 57.623 92.298 57.563 92.788L56.123 92.718C56.263 91.508 57.093 90.738 58.553 90.738C60.013 90.738 60.913 91.458 60.913 92.678C60.913 93.448 60.513 93.958 59.763 94.198C60.633 94.448 61.133 95.098 61.133 95.998C61.133 97.338 60.123 98.158 58.523 98.158ZM64.5891 98.158C62.8591 98.158 61.9491 96.988 61.9491 94.928C61.9491 92.578 62.7591 90.738 64.8491 90.738C66.2491 90.738 66.8991 91.498 67.1591 92.518L65.7191 92.618C65.6191 92.258 65.3891 91.998 64.8491 91.998C64.1091 91.998 63.5891 92.508 63.4291 93.728C63.7691 93.428 64.2491 93.208 64.8791 93.208C66.2891 93.208 67.1891 94.158 67.1891 95.588C67.1891 97.168 66.1591 98.158 64.5891 98.158ZM64.5591 96.878C65.3091 96.878 65.7291 96.438 65.7291 95.638C65.7291 94.898 65.3491 94.418 64.6191 94.418C63.8791 94.418 63.4091 94.908 63.4091 95.648C63.4091 96.328 63.8291 96.878 64.5591 96.878ZM70.5552 98.158C69.0552 98.158 68.1452 97.268 68.0452 96.098L69.5052 96.018C69.5952 96.598 69.9452 96.898 70.5552 96.898C71.2152 96.898 71.6252 96.478 71.6252 95.668C71.6252 94.878 71.2052 94.418 70.5652 94.418C70.1252 94.418 69.7552 94.678 69.6152 95.038L68.1452 94.968L68.5652 90.898H72.7552V92.178H69.7352L69.5552 93.708C69.8852 93.428 70.3252 93.268 70.8052 93.268C72.2152 93.268 73.0852 94.288 73.0852 95.678C73.0852 97.148 72.0852 98.158 70.5552 98.158Z" fill="black"/>
<path id="365_2" d="M430.484 98.158C428.854 98.158 428.044 97.328 427.974 96.038L429.414 95.968C429.474 96.658 429.934 96.898 430.514 96.898C431.144 96.898 431.634 96.598 431.634 95.898C431.634 95.218 431.184 94.858 430.444 94.858H429.914V93.728H430.444C431.004 93.728 431.414 93.478 431.414 92.868C431.414 92.278 431.064 91.988 430.504 91.988C429.884 91.988 429.584 92.298 429.524 92.788L428.084 92.718C428.224 91.508 429.054 90.738 430.514 90.738C431.974 90.738 432.874 91.458 432.874 92.678C432.874 93.448 432.474 93.958 431.724 94.198C432.594 94.448 433.094 95.098 433.094 95.998C433.094 97.338 432.084 98.158 430.484 98.158ZM436.55 98.158C434.82 98.158 433.91 96.988 433.91 94.928C433.91 92.578 434.72 90.738 436.81 90.738C438.21 90.738 438.86 91.498 439.12 92.518L437.68 92.618C437.58 92.258 437.35 91.998 436.81 91.998C436.07 91.998 435.55 92.508 435.39 93.728C435.73 93.428 436.21 93.208 436.84 93.208C438.25 93.208 439.15 94.158 439.15 95.588C439.15 97.168 438.12 98.158 436.55 98.158ZM436.52 96.878C437.27 96.878 437.69 96.438 437.69 95.638C437.69 94.898 437.31 94.418 436.58 94.418C435.84 94.418 435.37 94.908 435.37 95.648C435.37 96.328 435.79 96.878 436.52 96.878ZM442.516 98.158C441.016 98.158 440.106 97.268 440.006 96.098L441.466 96.018C441.556 96.598 441.906 96.898 442.516 96.898C443.176 96.898 443.586 96.478 443.586 95.668C443.586 94.878 443.166 94.418 442.526 94.418C442.086 94.418 441.716 94.678 441.576 95.038L440.106 94.968L440.526 90.898H444.716V92.178H441.696L441.516 93.708C441.846 93.428 442.286 93.268 442.766 93.268C444.176 93.268 445.046 94.288 445.046 95.678C445.046 97.148 444.046 98.158 442.516 98.158Z" fill="black"/>
</g>
<g id="field">
<path d="M250.828 7.34766L250.83 7.34766H250.826L250.828 7.34766Z" fill="#002B5C" fill-opacity="0.1"/>
<path d="M31.5933 218.9L165.287 424.752C205.505 486.677 296.154 486.677 336.372 424.752L470.063 218.9C481.934 198.338 483.343 174.153 476.183 149.623C474.383 143.456 470.577 138.116 465.789 133.832L348.005 28.4528C344.199 25.0477 339.788 22.3686 334.939 20.7688C309.159 12.2647 280.867 7.34786 250.828 7.34766C220.79 7.34786 192.497 12.2647 166.718 20.7688C161.868 22.3686 157.457 25.0477 153.651 28.4528L35.8671 133.832C31.0797 138.116 27.2736 143.456 25.4736 149.623C18.3131 174.153 19.7219 198.338 31.5933 218.9Z" fill="#002B5C" fill-opacity="0.1"/>
<path d="M250.828 7.34766L250.83 7.34766H250.826L250.828 7.34766ZM250.828 7.34766C220.79 7.34786 192.497 12.2647 166.718 20.7688C161.868 22.3686 157.457 25.0477 153.651 28.4528L35.8671 133.832C31.0797 138.116 27.2736 143.456 25.4736 149.623C18.3131 174.153 19.7219 198.338 31.5933 218.9L165.287 424.752C205.505 486.677 296.154 486.677 336.372 424.752L470.063 218.9C481.934 198.338 483.343 174.153 476.183 149.623C474.383 143.456 470.577 138.116 465.789 133.832L348.005 28.4528C344.199 25.0477 339.788 22.3686 334.939 20.7688C309.159 12.2647 280.867 7.34786 250.828 7.34766Z" fill="none" stroke="#002B5C" stroke-width="1.002"/>
</g>
</g>
<defs>
<clipPath id="clip0_110_4328">
<rect width="500" height="469.94" fill="white"/>
</clipPath>
</defs>
</svg>
