<svg width="500" height="470" viewBox="0 0 500 470" fill="none" xmlns="http://www.w3.org/2000/svg">
<g id="metropolitan-stadium-1977" clip-path="url(#clip0_110_4382)">
<g id="Infield">
<path d="M339.98 327.766C339.453 325.666 322.032 258.479 250.83 258.479C180.238 258.479 162.505 324.538 161.697 327.699C161.677 327.776 161.668 327.816 161.668 327.816L236.504 402.653C235.305 404.912 234.623 407.489 234.623 410.238C234.623 419.186 241.873 426.445 250.83 426.445C259.778 426.445 267.037 419.186 267.037 410.238C267.037 407.489 266.356 404.912 265.157 402.657L260.695 397.375C257.96 395.278 254.544 394.026 250.83 394.026C247.117 394.026 243.701 395.278 240.971 397.37L197.7 354.1C201.448 350.353 201.448 344.277 197.7 340.53C197.698 340.527 197.694 340.525 197.691 340.522L244.055 294.038C247.8 297.773 253.861 297.773 257.606 294.038L303.431 339.984C303.431 339.984 303.427 339.985 303.424 339.988C299.677 343.736 300.275 350.3 304.022 354.047L260.695 397.375L265.157 402.657L339.98 327.766Z" fill="#D2D2D2"/>
<path d="M259.91 345.706C259.91 350.721 255.845 354.787 250.83 354.787C245.815 354.787 241.75 350.721 241.75 345.706C241.75 340.691 245.815 336.626 250.83 336.626C255.845 336.626 259.91 340.691 259.91 345.706Z" fill="#D2D2D2"/>
</g>
<g id="Guides">
<g id="Home">
<circle id="Ellipse 1" cx="250.827" cy="410.419" r="16.0848" fill="#D2D2D2"/>
<circle id="Ellipse 1_2" cx="250.827" cy="410.418" r="1.62919" fill="black"/>
</g>
<g id="First">
<circle id="Ellipse 1_3" cx="311.125" cy="346.532" r="10.1878" fill="#D2D2D2"/>
<circle id="Ellipse 1_4" cx="311.125" cy="346.532" r="1.0319" fill="black"/>
</g>
<g id="Third">
<circle id="Ellipse 1_5" cx="190.34" cy="346.532" r="10.1878" fill="#D2D2D2"/>
<circle id="Ellipse 1_6" cx="190.34" cy="346.532" r="1.0319" fill="black"/>
</g>
<g id="Second">
<circle id="Ellipse 1_7" cx="250.827" cy="286.67" r="10.1878" fill="#D2D2D2"/>
<circle id="Ellipse 1_8" cx="250.827" cy="286.671" r="1.0319" fill="black"/>
</g>
<g id="Mound">
<circle id="Ellipse 1_9" cx="250.827" cy="345.929" r="9.08365" fill="#D2D2D2"/>
<circle id="Ellipse 1_10" cx="250.827" cy="345.93" r="0.920062" fill="black"/>
</g>
</g>
<path id="Foul Lines" d="M480.559 180.918L250.961 410.516L12.8682 172.424" fill="none" stroke="black" stroke-width="1.002"/>
<g id="Measurements">
<path id="402" d="M238.462 14.043V12.623H235.292V11.453L238.272 6.94297H239.892V11.383H240.732V12.623H239.892V14.043H238.462ZM236.632 11.383H238.462V8.73297L236.632 11.383ZM244.008 14.203C242.408 14.203 241.448 12.793 241.448 10.503C241.448 8.20297 242.408 6.78297 244.008 6.78297C245.608 6.78297 246.568 8.20297 246.568 10.503C246.568 12.793 245.608 14.203 244.008 14.203ZM242.908 10.503C242.908 10.933 242.938 11.303 242.998 11.613L244.688 8.42297C244.508 8.17297 244.278 8.04297 244.008 8.04297C243.318 8.04297 242.908 8.86297 242.908 10.503ZM244.008 12.943C244.698 12.943 245.108 12.133 245.108 10.503C245.108 10.073 245.078 9.69297 245.018 9.37297L243.328 12.563C243.508 12.813 243.738 12.943 244.008 12.943ZM247.444 14.043C247.444 12.313 248.024 11.303 250.004 10.283C250.734 9.90297 251.094 9.62297 251.094 8.97297C251.094 8.40297 250.764 8.04297 250.134 8.04297C249.414 8.04297 249.064 8.46297 248.944 9.22297L247.474 9.13297C247.614 7.68297 248.524 6.78297 250.154 6.78297C251.744 6.78297 252.564 7.63297 252.564 8.89297C252.564 10.033 252.074 10.593 250.674 11.353C249.524 11.973 249.114 12.403 249.074 12.763H252.564V14.043H247.444Z" fill="black"/>
<path id="330" d="M460.938 178.598C459.308 178.598 458.498 177.767 458.428 176.477L459.868 176.407C459.928 177.097 460.388 177.337 460.968 177.337C461.598 177.337 462.088 177.037 462.088 176.337C462.088 175.657 461.638 175.297 460.898 175.297H460.368V174.167H460.898C461.458 174.167 461.868 173.917 461.868 173.307C461.868 172.717 461.518 172.427 460.958 172.427C460.338 172.427 460.038 172.737 459.978 173.227L458.538 173.158C458.678 171.947 459.508 171.177 460.968 171.177C462.428 171.177 463.328 171.897 463.328 173.117C463.328 173.887 462.928 174.397 462.178 174.637C463.048 174.887 463.548 175.537 463.548 176.437C463.548 177.778 462.538 178.598 460.938 178.598ZM466.934 178.598C465.304 178.598 464.494 177.767 464.424 176.477L465.864 176.407C465.924 177.097 466.384 177.337 466.964 177.337C467.594 177.337 468.084 177.037 468.084 176.337C468.084 175.657 467.634 175.297 466.894 175.297H466.364V174.167H466.894C467.454 174.167 467.864 173.917 467.864 173.307C467.864 172.717 467.514 172.427 466.954 172.427C466.334 172.427 466.034 172.737 465.974 173.227L464.534 173.158C464.674 171.947 465.504 171.177 466.964 171.177C468.424 171.177 469.324 171.897 469.324 173.117C469.324 173.887 468.924 174.397 468.174 174.637C469.044 174.887 469.544 175.537 469.544 176.437C469.544 177.778 468.534 178.598 466.934 178.598ZM472.98 178.598C471.38 178.598 470.42 177.188 470.42 174.897C470.42 172.597 471.38 171.177 472.98 171.177C474.58 171.177 475.54 172.597 475.54 174.897C475.54 177.188 474.58 178.598 472.98 178.598ZM471.88 174.897C471.88 175.327 471.91 175.697 471.97 176.007L473.66 172.817C473.48 172.567 473.25 172.437 472.98 172.437C472.29 172.437 471.88 173.257 471.88 174.897ZM472.98 177.337C473.67 177.337 474.08 176.527 474.08 174.897C474.08 174.467 474.05 174.087 473.99 173.767L472.3 176.957C472.48 177.207 472.71 177.337 472.98 177.337Z" fill="black"/>
<path id="344" d="M23.5783 175.598C21.9483 175.598 21.1383 174.767 21.0683 173.477L22.5083 173.407C22.5683 174.097 23.0283 174.337 23.6083 174.337C24.2383 174.337 24.7283 174.037 24.7283 173.337C24.7283 172.657 24.2783 172.297 23.5383 172.297H23.0083V171.167H23.5383C24.0983 171.167 24.5083 170.917 24.5083 170.307C24.5083 169.717 24.1583 169.427 23.5983 169.427C22.9783 169.427 22.6783 169.737 22.6183 170.227L21.1783 170.158C21.3183 168.947 22.1483 168.177 23.6083 168.177C25.0683 168.177 25.9683 168.897 25.9683 170.117C25.9683 170.887 25.5683 171.397 24.8183 171.637C25.6883 171.887 26.1883 172.537 26.1883 173.437C26.1883 174.778 25.1783 175.598 23.5783 175.598ZM30.0744 175.438V174.017H26.9044V172.847L29.8844 168.337H31.5044V172.777H32.3444V174.017H31.5044V175.438H30.0744ZM28.2444 172.777H30.0744V170.127L28.2444 172.777ZM36.0705 175.438V174.017H32.9005V172.847L35.8805 168.337H37.5005V172.777H38.3405V174.017H37.5005V175.438H36.0705ZM34.2405 172.777H36.0705V170.127L34.2405 172.777Z" fill="black"/>
<path id="365" d="M86.5112 85.158C84.8812 85.158 84.0712 84.328 84.0012 83.038L85.4412 82.968C85.5012 83.658 85.9612 83.898 86.5412 83.898C87.1712 83.898 87.6612 83.598 87.6612 82.898C87.6612 82.218 87.2112 81.858 86.4712 81.858H85.9412V80.728H86.4712C87.0312 80.728 87.4412 80.478 87.4412 79.868C87.4412 79.278 87.0912 78.988 86.5312 78.988C85.9112 78.988 85.6112 79.298 85.5512 79.788L84.1112 79.718C84.2512 78.508 85.0812 77.738 86.5412 77.738C88.0012 77.738 88.9012 78.458 88.9012 79.678C88.9012 80.448 88.5012 80.958 87.7512 81.198C88.6212 81.448 89.1212 82.098 89.1212 82.998C89.1212 84.338 88.1112 85.158 86.5112 85.158ZM92.5773 85.158C90.8473 85.158 89.9373 83.988 89.9373 81.928C89.9373 79.578 90.7473 77.738 92.8373 77.738C94.2373 77.738 94.8873 78.498 95.1473 79.518L93.7073 79.618C93.6073 79.258 93.3773 78.998 92.8373 78.998C92.0973 78.998 91.5773 79.508 91.4173 80.728C91.7573 80.428 92.2373 80.208 92.8673 80.208C94.2773 80.208 95.1773 81.158 95.1773 82.588C95.1773 84.168 94.1473 85.158 92.5773 85.158ZM92.5473 83.878C93.2973 83.878 93.7173 83.438 93.7173 82.638C93.7173 81.898 93.3373 81.418 92.6073 81.418C91.8673 81.418 91.3973 81.908 91.3973 82.648C91.3973 83.328 91.8173 83.878 92.5473 83.878ZM98.5433 85.158C97.0433 85.158 96.1333 84.268 96.0333 83.098L97.4933 83.018C97.5833 83.598 97.9333 83.898 98.5433 83.898C99.2033 83.898 99.6133 83.478 99.6133 82.668C99.6133 81.878 99.1933 81.418 98.5533 81.418C98.1133 81.418 97.7433 81.678 97.6033 82.038L96.1333 81.968L96.5533 77.898H100.743V79.178H97.7233L97.5433 80.708C97.8733 80.428 98.3133 80.268 98.7933 80.268C100.203 80.268 101.073 81.288 101.073 82.678C101.073 84.148 100.073 85.158 98.5433 85.158Z" fill="black"/>
<path id="365_2" d="M399.137 81.658C397.507 81.658 396.697 80.828 396.627 79.538L398.067 79.468C398.127 80.158 398.587 80.398 399.167 80.398C399.797 80.398 400.287 80.098 400.287 79.398C400.287 78.718 399.837 78.358 399.097 78.358H398.567V77.228H399.097C399.657 77.228 400.067 76.978 400.067 76.368C400.067 75.778 399.717 75.488 399.157 75.488C398.537 75.488 398.237 75.798 398.177 76.288L396.737 76.218C396.877 75.008 397.707 74.238 399.167 74.238C400.627 74.238 401.527 74.958 401.527 76.178C401.527 76.948 401.127 77.458 400.377 77.698C401.247 77.948 401.747 78.598 401.747 79.498C401.747 80.838 400.737 81.658 399.137 81.658ZM405.203 81.658C403.473 81.658 402.563 80.488 402.563 78.428C402.563 76.078 403.373 74.238 405.463 74.238C406.863 74.238 407.513 74.998 407.773 76.018L406.333 76.118C406.233 75.758 406.003 75.498 405.463 75.498C404.723 75.498 404.203 76.008 404.043 77.228C404.383 76.928 404.863 76.708 405.493 76.708C406.903 76.708 407.803 77.658 407.803 79.088C407.803 80.668 406.773 81.658 405.203 81.658ZM405.173 80.378C405.923 80.378 406.343 79.938 406.343 79.138C406.343 78.398 405.963 77.918 405.233 77.918C404.493 77.918 404.023 78.408 404.023 79.148C404.023 79.828 404.443 80.378 405.173 80.378ZM411.169 81.658C409.669 81.658 408.759 80.768 408.659 79.598L410.119 79.518C410.209 80.098 410.559 80.398 411.169 80.398C411.829 80.398 412.239 79.978 412.239 79.168C412.239 78.378 411.819 77.918 411.179 77.918C410.739 77.918 410.369 78.178 410.229 78.538L408.759 78.468L409.179 74.398H413.369V75.678H410.349L410.169 77.208C410.499 76.928 410.939 76.768 411.419 76.768C412.829 76.768 413.699 77.788 413.699 79.178C413.699 80.648 412.699 81.658 411.169 81.658Z" fill="black"/>
</g>
<g id="field">
<path d="M165.287 424.752L3.62549 180.736L180.299 18.798L308.412 17.2712L470.655 140.95C472.434 142.316 473.981 143.997 474.882 146.051C475.389 147.208 475.825 148.399 476.183 149.623C483.343 174.153 481.934 198.338 470.063 218.9L336.372 424.752C296.154 486.677 205.505 486.677 165.287 424.752Z" fill="#002B5C" fill-opacity="0.1"/>
<path d="M250.83 7.34766H250.828M3.62549 180.736L165.287 424.752C205.505 486.677 296.154 486.677 336.372 424.752L470.063 218.9C481.934 198.338 483.343 174.153 476.183 149.623C475.825 148.399 475.389 147.208 474.882 146.051C473.981 143.997 472.434 142.316 470.655 140.95L308.412 17.2712L180.299 18.798L3.62549 180.736Z" fill="none" stroke="#002B5C" stroke-width="1.002"/>
</g>
</g>
<defs>
<clipPath id="clip0_110_4382">
<rect width="500" height="469.94" fill="white"/>
</clipPath>
</defs>
</svg>
