<svg width="500" height="470" viewBox="0 0 500 470" fill="none" xmlns="http://www.w3.org/2000/svg">
<g id="metrodome-1996" clip-path="url(#clip0_109_4274)">
<g id="Infield">
<path d="M339.98 327.766C339.453 325.666 322.032 258.479 250.83 258.479C180.238 258.479 162.505 324.538 161.697 327.699C161.677 327.776 161.668 327.816 161.668 327.816L236.504 402.653C235.305 404.912 234.623 407.489 234.623 410.238C234.623 419.186 241.873 426.445 250.83 426.445C259.778 426.445 267.037 419.186 267.037 410.238C267.037 407.489 266.356 404.912 265.156 402.657L260.695 397.375C257.96 395.278 254.544 394.026 250.83 394.026C247.117 394.026 243.701 395.278 240.971 397.37L197.7 354.1C201.448 350.353 201.448 344.277 197.7 340.53C197.698 340.527 197.694 340.525 197.691 340.522L244.055 294.038C247.8 297.773 253.861 297.773 257.606 294.038L303.431 339.984C303.431 339.984 303.427 339.985 303.424 339.988C299.677 343.736 300.275 350.3 304.022 354.047L260.695 397.375L265.156 402.657L339.98 327.766Z" fill="#D2D2D2"/>
<path d="M259.91 345.706C259.91 350.721 255.845 354.787 250.83 354.787C245.815 354.787 241.75 350.721 241.75 345.706C241.75 340.691 245.815 336.626 250.83 336.626C255.845 336.626 259.91 340.691 259.91 345.706Z" fill="#D2D2D2"/>
</g>
<g id="Guides">
<g id="Home">
<circle id="Ellipse 1" cx="250.827" cy="410.419" r="16.0848" fill="#D2D2D2"/>
<circle id="Ellipse 1_2" cx="250.827" cy="410.418" r="1.62919" fill="black"/>
</g>
<g id="First">
<circle id="Ellipse 1_3" cx="311.125" cy="346.532" r="10.1878" fill="#D2D2D2"/>
<circle id="Ellipse 1_4" cx="311.125" cy="346.532" r="1.0319" fill="black"/>
</g>
<g id="Third">
<circle id="Ellipse 1_5" cx="190.34" cy="346.532" r="10.1878" fill="#D2D2D2"/>
<circle id="Ellipse 1_6" cx="190.34" cy="346.532" r="1.0319" fill="black"/>
</g>
<g id="Second">
<circle id="Ellipse 1_7" cx="250.827" cy="286.67" r="10.1878" fill="#D2D2D2"/>
<circle id="Ellipse 1_8" cx="250.827" cy="286.671" r="1.0319" fill="black"/>
</g>
<g id="Mound">
<circle id="Ellipse 1_9" cx="250.827" cy="345.929" r="9.08365" fill="#D2D2D2"/>
<circle id="Ellipse 1_10" cx="250.827" cy="345.93" r="0.920062" fill="black"/>
</g>
</g>
<path id="Foul Lines" d="M474.442 187.05L250.976 410.516L11.9642 171.504" fill="none" stroke="black" stroke-width="1.002"/>
<g id="Measurements">
<path id="408" d="M245.203 7.69922V6.27922H242.033V5.10922L245.013 0.599218H246.633V5.03922H247.473V6.27922H246.633V7.69922H245.203ZM243.373 5.03922H245.203V2.38922L243.373 5.03922ZM250.749 7.85922C249.149 7.85922 248.189 6.44922 248.189 4.15922C248.189 1.85922 249.149 0.439219 250.749 0.439219C252.349 0.439219 253.309 1.85922 253.309 4.15922C253.309 6.44922 252.349 7.85922 250.749 7.85922ZM249.649 4.15922C249.649 4.58922 249.679 4.95922 249.739 5.26922L251.429 2.07922C251.249 1.82922 251.019 1.69922 250.749 1.69922C250.059 1.69922 249.649 2.51922 249.649 4.15922ZM250.749 6.59922C251.439 6.59922 251.849 5.78922 251.849 4.15922C251.849 3.72922 251.819 3.34922 251.759 3.02922L250.069 6.21922C250.249 6.46922 250.479 6.59922 250.749 6.59922ZM256.745 7.85922C255.175 7.85922 254.125 7.13922 254.125 5.75922C254.125 4.82922 254.665 4.16922 255.535 3.88922C254.865 3.62922 254.415 3.13922 254.415 2.39922C254.415 1.25922 255.345 0.439219 256.745 0.439219C258.145 0.439219 259.075 1.25922 259.075 2.39922C259.075 3.13922 258.625 3.62922 257.945 3.88922C258.825 4.16922 259.365 4.82922 259.365 5.75922C259.365 7.13922 258.315 7.85922 256.745 7.85922ZM256.745 3.31922C257.255 3.31922 257.605 3.04922 257.605 2.48922C257.605 1.98922 257.265 1.69922 256.745 1.69922C256.225 1.69922 255.885 1.98922 255.885 2.48922C255.885 3.04922 256.235 3.31922 256.745 3.31922ZM256.745 6.59922C257.385 6.59922 257.905 6.31922 257.905 5.61922C257.905 4.94922 257.475 4.52922 256.745 4.52922C256.015 4.52922 255.585 4.94922 255.585 5.61922C255.585 6.31922 256.105 6.59922 256.745 6.59922Z" fill="black"/>
<path id="327" d="M450.938 191.098C449.308 191.098 448.498 190.267 448.428 188.977L449.868 188.907C449.928 189.597 450.388 189.837 450.968 189.837C451.598 189.837 452.088 189.537 452.088 188.837C452.088 188.157 451.638 187.797 450.898 187.797H450.368V186.667H450.898C451.458 186.667 451.868 186.417 451.868 185.807C451.868 185.217 451.518 184.927 450.958 184.927C450.338 184.927 450.038 185.237 449.978 185.727L448.538 185.658C448.678 184.447 449.508 183.677 450.968 183.677C452.428 183.677 453.328 184.397 453.328 185.617C453.328 186.387 452.928 186.897 452.178 187.137C453.048 187.387 453.548 188.037 453.548 188.937C453.548 190.278 452.538 191.098 450.938 191.098ZM454.424 190.938C454.424 189.207 455.004 188.197 456.984 187.177C457.714 186.797 458.074 186.517 458.074 185.867C458.074 185.297 457.744 184.937 457.114 184.937C456.394 184.937 456.044 185.357 455.924 186.117L454.454 186.027C454.594 184.577 455.504 183.677 457.134 183.677C458.724 183.677 459.544 184.527 459.544 185.787C459.544 186.927 459.054 187.487 457.654 188.247C456.504 188.867 456.094 189.297 456.054 189.657H459.544V190.938H454.424ZM461.65 190.938C461.65 188.787 462.55 186.827 464.02 185.117H460.52V183.837H465.44V185.047C463.81 186.907 463.14 188.497 463.14 190.938H461.65Z" fill="black"/>
<path id="343" d="M22.5783 174.598C20.9483 174.598 20.1383 173.767 20.0683 172.477L21.5083 172.407C21.5683 173.097 22.0283 173.337 22.6083 173.337C23.2383 173.337 23.7283 173.037 23.7283 172.337C23.7283 171.657 23.2783 171.297 22.5383 171.297H22.0083V170.167H22.5383C23.0983 170.167 23.5083 169.917 23.5083 169.307C23.5083 168.717 23.1583 168.427 22.5983 168.427C21.9783 168.427 21.6783 168.737 21.6183 169.227L20.1783 169.158C20.3183 167.947 21.1483 167.177 22.6083 167.177C24.0683 167.177 24.9683 167.897 24.9683 169.117C24.9683 169.887 24.5683 170.397 23.8183 170.637C24.6883 170.887 25.1883 171.537 25.1883 172.437C25.1883 173.778 24.1783 174.598 22.5783 174.598ZM29.0744 174.438V173.017H25.9044V171.847L28.8844 167.337H30.5044V171.777H31.3444V173.017H30.5044V174.438H29.0744ZM27.2444 171.777H29.0744V169.127L27.2444 171.777ZM34.5705 174.598C32.9405 174.598 32.1305 173.767 32.0605 172.477L33.5005 172.407C33.5605 173.097 34.0205 173.337 34.6005 173.337C35.2305 173.337 35.7205 173.037 35.7205 172.337C35.7205 171.657 35.2705 171.297 34.5305 171.297H34.0005V170.167H34.5305C35.0905 170.167 35.5005 169.917 35.5005 169.307C35.5005 168.717 35.1505 168.427 34.5905 168.427C33.9705 168.427 33.6705 168.737 33.6105 169.227L32.1705 169.158C32.3105 167.947 33.1405 167.177 34.6005 167.177C36.0605 167.177 36.9605 167.897 36.9605 169.117C36.9605 169.887 36.5605 170.397 35.8105 170.637C36.6805 170.887 37.1805 171.537 37.1805 172.437C37.1805 173.778 36.1705 174.598 34.5705 174.598Z" fill="black"/>
</g>
<path id="field" d="M143.28 364.364L30.2507 251.335C7.14542 228.229 0.97163 181.606 14.613 167.964L133.709 52.8069C172.724 13.7918 229.37 11.0273 251.85 11.0273C274.33 11.0273 308.241 17.8349 325.314 34.9081L477.226 190.29L424.1 312.213L363.487 372.826V388.168L320.016 431.639V443.467L313.71 449.773C282.372 481.111 231.53 481.001 200.328 449.527L191.205 440.326V426.569L143.28 378.644V364.364Z" fill="#002B5C" fill-opacity="0.1" fill="none" stroke="#002B5C" stroke-width="1.002"/>
</g>
<defs>
<clipPath id="clip0_109_4274">
<rect width="500" height="469.94" fill="white"/>
</clipPath>
</defs>
</svg>
