<svg width="500" height="470" viewBox="0 0 500 470" fill="none" xmlns="http://www.w3.org/2000/svg">
<g id="mile-high-stadium-1993" clip-path="url(#clip0_93_2519)">
<g id="Infield">
<path d="M339.98 327.766C339.453 325.666 322.032 258.479 250.83 258.479C180.238 258.479 162.505 324.538 161.697 327.699C161.677 327.776 161.668 327.816 161.668 327.816L236.504 402.653C235.305 404.912 234.623 407.489 234.623 410.238C234.623 419.186 241.873 426.445 250.83 426.445C259.778 426.445 267.037 419.186 267.037 410.238C267.037 407.489 266.356 404.912 265.156 402.657L260.695 397.375C257.96 395.278 254.544 394.026 250.83 394.026C247.117 394.026 243.701 395.278 240.971 397.37L197.7 354.1C201.448 350.353 201.448 344.277 197.7 340.53C197.698 340.527 197.694 340.525 197.691 340.522L244.055 294.038C247.8 297.773 253.861 297.773 257.606 294.038L303.431 339.984C303.431 339.984 303.427 339.985 303.424 339.988C299.677 343.736 300.275 350.3 304.022 354.047L260.695 397.375L265.156 402.657L339.98 327.766Z" fill="#D2D2D2"/>
<path d="M259.91 345.706C259.91 350.721 255.845 354.787 250.83 354.787C245.815 354.787 241.75 350.721 241.75 345.706C241.75 340.691 245.815 336.626 250.83 336.626C255.845 336.626 259.91 340.691 259.91 345.706Z" fill="#D2D2D2"/>
</g>
<g id="Guides">
<g id="Home">
<circle id="Ellipse 1" cx="250.827" cy="410.419" r="16.0848" fill="#D2D2D2"/>
<circle id="Ellipse 1_2" cx="250.827" cy="410.418" r="1.62919" fill="black"/>
</g>
<g id="First">
<circle id="Ellipse 1_3" cx="311.125" cy="346.532" r="10.1878" fill="#D2D2D2"/>
<circle id="Ellipse 1_4" cx="311.125" cy="346.532" r="1.0319" fill="black"/>
</g>
<g id="Third">
<circle id="Ellipse 1_5" cx="190.34" cy="346.532" r="10.1878" fill="#D2D2D2"/>
<circle id="Ellipse 1_6" cx="190.34" cy="346.532" r="1.0319" fill="black"/>
</g>
<g id="Second">
<circle id="Ellipse 1_7" cx="250.827" cy="286.67" r="10.1878" fill="#D2D2D2"/>
<circle id="Ellipse 1_8" cx="250.827" cy="286.671" r="1.0319" fill="black"/>
</g>
<g id="Mound">
<circle id="Ellipse 1_9" cx="250.827" cy="345.929" r="9.08365" fill="#D2D2D2"/>
<circle id="Ellipse 1_10" cx="250.827" cy="345.93" r="0.920062" fill="black"/>
</g>
</g>
<path id="Foul Lines" d="M500.86 160.632L250.976 410.516L24.3351 183.876" fill="none" stroke="black" stroke-width="1.002"/>
<g id="Measurements">
<path id="423" d="M258.203 1.69922V0.279219H255.033V-0.890781L258.013 -5.40078H259.633V-0.960781H260.473V0.279219H259.633V1.69922H258.203ZM256.373 -0.960781H258.203V-3.61078L256.373 -0.960781ZM261.189 1.69922C261.189 -0.0307813 261.769 -1.04078 263.749 -2.06078C264.479 -2.44078 264.839 -2.72078 264.839 -3.37078C264.839 -3.94078 264.509 -4.30078 263.879 -4.30078C263.159 -4.30078 262.809 -3.88078 262.689 -3.12078L261.219 -3.21078C261.359 -4.66078 262.269 -5.56078 263.899 -5.56078C265.489 -5.56078 266.309 -4.71078 266.309 -3.45078C266.309 -2.31078 265.819 -1.75078 264.419 -0.990781C263.269 -0.370781 262.859 0.0592187 262.819 0.419219H266.309V1.69922H261.189ZM269.695 1.85922C268.065 1.85922 267.255 1.02922 267.185 -0.260781L268.625 -0.330781C268.685 0.359219 269.145 0.599219 269.725 0.599219C270.355 0.599219 270.845 0.299219 270.845 -0.400781C270.845 -1.08078 270.395 -1.44078 269.655 -1.44078H269.125V-2.57078H269.655C270.215 -2.57078 270.625 -2.82078 270.625 -3.43078C270.625 -4.02078 270.275 -4.31078 269.715 -4.31078C269.095 -4.31078 268.795 -4.00078 268.735 -3.51078L267.295 -3.58078C267.435 -4.79078 268.265 -5.56078 269.725 -5.56078C271.185 -5.56078 272.085 -4.84078 272.085 -3.62078C272.085 -2.85078 271.685 -2.34078 270.935 -2.10078C271.805 -1.85078 272.305 -1.20078 272.305 -0.300781C272.305 1.03922 271.295 1.85922 269.695 1.85922Z" fill="black"/>
<path id="400" d="M390.727 42.6699V41.2499H387.557V40.0799L390.537 35.5699H392.157V40.0099H392.997V41.2499H392.157V42.6699H390.727ZM388.897 40.0099H390.727V37.3599L388.897 40.0099ZM396.273 42.8299C394.673 42.8299 393.713 41.4199 393.713 39.1299C393.713 36.8299 394.673 35.4099 396.273 35.4099C397.873 35.4099 398.833 36.8299 398.833 39.1299C398.833 41.4199 397.873 42.8299 396.273 42.8299ZM395.173 39.1299C395.173 39.5599 395.203 39.9299 395.263 40.2399L396.953 37.0499C396.773 36.7999 396.543 36.6699 396.273 36.6699C395.583 36.6699 395.173 37.4899 395.173 39.1299ZM396.273 41.5699C396.963 41.5699 397.373 40.7599 397.373 39.1299C397.373 38.6999 397.343 38.3199 397.283 37.9999L395.593 41.1899C395.773 41.4399 396.003 41.5699 396.273 41.5699ZM402.269 42.8299C400.669 42.8299 399.709 41.4199 399.709 39.1299C399.709 36.8299 400.669 35.4099 402.269 35.4099C403.869 35.4099 404.829 36.8299 404.829 39.1299C404.829 41.4199 403.869 42.8299 402.269 42.8299ZM401.169 39.1299C401.169 39.5599 401.199 39.9299 401.259 40.2399L402.949 37.0499C402.769 36.7999 402.539 36.6699 402.269 36.6699C401.579 36.6699 401.169 37.4899 401.169 39.1299ZM402.269 41.5699C402.959 41.5699 403.369 40.7599 403.369 39.1299C403.369 38.6999 403.339 38.3199 403.279 37.9999L401.589 41.1899C401.769 41.4399 401.999 41.5699 402.269 41.5699Z" fill="black"/>
<path id="366" d="M98.7731 91.2733C97.1431 91.2733 96.3331 90.4433 96.2631 89.1533L97.7031 89.0833C97.7631 89.7733 98.2231 90.0133 98.8031 90.0133C99.4331 90.0133 99.9231 89.7133 99.9231 89.0133C99.9231 88.3333 99.4731 87.9733 98.7331 87.9733H98.2031V86.8433H98.7331C99.2931 86.8433 99.7031 86.5933 99.7031 85.9833C99.7031 85.3933 99.3531 85.1033 98.7931 85.1033C98.1731 85.1033 97.8731 85.4133 97.8131 85.9033L96.3731 85.8333C96.5131 84.6233 97.3431 83.8533 98.8031 83.8533C100.263 83.8533 101.163 84.5733 101.163 85.7933C101.163 86.5633 100.763 87.0733 100.013 87.3133C100.883 87.5633 101.383 88.2133 101.383 89.1133C101.383 90.4533 100.373 91.2733 98.7731 91.2733ZM104.839 91.2733C103.109 91.2733 102.199 90.1033 102.199 88.0433C102.199 85.6933 103.009 83.8533 105.099 83.8533C106.499 83.8533 107.149 84.6133 107.409 85.6333L105.969 85.7333C105.869 85.3733 105.639 85.1133 105.099 85.1133C104.359 85.1133 103.839 85.6233 103.679 86.8433C104.019 86.5433 104.499 86.3233 105.129 86.3233C106.539 86.3233 107.439 87.2733 107.439 88.7033C107.439 90.2833 106.409 91.2733 104.839 91.2733ZM104.809 89.9933C105.559 89.9933 105.979 89.5533 105.979 88.7533C105.979 88.0133 105.599 87.5333 104.869 87.5333C104.129 87.5333 103.659 88.0233 103.659 88.7633C103.659 89.4433 104.079 89.9933 104.809 89.9933ZM110.835 91.2733C109.105 91.2733 108.195 90.1033 108.195 88.0433C108.195 85.6933 109.005 83.8533 111.095 83.8533C112.495 83.8533 113.145 84.6133 113.405 85.6333L111.965 85.7333C111.865 85.3733 111.635 85.1133 111.095 85.1133C110.355 85.1133 109.835 85.6233 109.675 86.8433C110.015 86.5433 110.495 86.3233 111.125 86.3233C112.535 86.3233 113.435 87.2733 113.435 88.7033C113.435 90.2833 112.405 91.2733 110.835 91.2733ZM110.805 89.9933C111.555 89.9933 111.975 89.5533 111.975 88.7533C111.975 88.0133 111.595 87.5333 110.865 87.5333C110.125 87.5333 109.655 88.0233 109.655 88.7633C109.655 89.4433 110.075 89.9933 110.805 89.9933Z" fill="black"/>
<path id="379" d="M479.938 163.098C478.308 163.098 477.498 162.267 477.428 160.977L478.868 160.907C478.928 161.597 479.388 161.837 479.968 161.837C480.598 161.837 481.088 161.537 481.088 160.837C481.088 160.157 480.638 159.797 479.898 159.797H479.368V158.667H479.898C480.458 158.667 480.868 158.417 480.868 157.807C480.868 157.217 480.518 156.927 479.958 156.927C479.338 156.927 479.038 157.237 478.978 157.727L477.538 157.658C477.678 156.447 478.508 155.677 479.968 155.677C481.428 155.677 482.328 156.397 482.328 157.617C482.328 158.387 481.928 158.897 481.178 159.137C482.048 159.387 482.548 160.037 482.548 160.937C482.548 162.278 481.538 163.098 479.938 163.098ZM484.654 162.938C484.654 160.787 485.554 158.827 487.024 157.117H483.524V155.837H488.444V157.047C486.814 158.907 486.144 160.497 486.144 162.938H484.654ZM491.96 155.677C493.69 155.677 494.6 156.847 494.6 158.907C494.6 161.257 493.79 163.098 491.7 163.098C490.3 163.098 489.65 162.337 489.39 161.317L490.83 161.217C490.93 161.577 491.16 161.837 491.7 161.837C492.44 161.837 492.96 161.327 493.12 160.107C492.78 160.407 492.3 160.627 491.67 160.627C490.26 160.627 489.36 159.677 489.36 158.247C489.36 156.667 490.39 155.677 491.96 155.677ZM491.99 156.957C491.24 156.957 490.82 157.397 490.82 158.197C490.82 158.937 491.2 159.417 491.93 159.417C492.67 159.417 493.14 158.927 493.14 158.187C493.14 157.507 492.72 156.957 491.99 156.957Z" fill="black"/>
<path id="333" d="M35.5783 186.598C33.9483 186.598 33.1383 185.767 33.0683 184.477L34.5083 184.407C34.5683 185.097 35.0283 185.337 35.6083 185.337C36.2383 185.337 36.7283 185.037 36.7283 184.337C36.7283 183.657 36.2783 183.297 35.5383 183.297H35.0083V182.167H35.5383C36.0983 182.167 36.5083 181.917 36.5083 181.307C36.5083 180.717 36.1583 180.427 35.5983 180.427C34.9783 180.427 34.6783 180.737 34.6183 181.227L33.1783 181.158C33.3183 179.947 34.1483 179.177 35.6083 179.177C37.0683 179.177 37.9683 179.897 37.9683 181.117C37.9683 181.887 37.5683 182.397 36.8183 182.637C37.6883 182.887 38.1883 183.537 38.1883 184.437C38.1883 185.778 37.1783 186.598 35.5783 186.598ZM41.5744 186.598C39.9444 186.598 39.1344 185.767 39.0644 184.477L40.5044 184.407C40.5644 185.097 41.0244 185.337 41.6044 185.337C42.2344 185.337 42.7244 185.037 42.7244 184.337C42.7244 183.657 42.2744 183.297 41.5344 183.297H41.0044V182.167H41.5344C42.0944 182.167 42.5044 181.917 42.5044 181.307C42.5044 180.717 42.1544 180.427 41.5944 180.427C40.9744 180.427 40.6744 180.737 40.6144 181.227L39.1744 181.158C39.3144 179.947 40.1444 179.177 41.6044 179.177C43.0644 179.177 43.9644 179.897 43.9644 181.117C43.9644 181.887 43.5644 182.397 42.8144 182.637C43.6844 182.887 44.1844 183.537 44.1844 184.437C44.1844 185.778 43.1744 186.598 41.5744 186.598ZM47.5705 186.598C45.9405 186.598 45.1305 185.767 45.0605 184.477L46.5005 184.407C46.5605 185.097 47.0205 185.337 47.6005 185.337C48.2305 185.337 48.7205 185.037 48.7205 184.337C48.7205 183.657 48.2705 183.297 47.5305 183.297H47.0005V182.167H47.5305C48.0905 182.167 48.5005 181.917 48.5005 181.307C48.5005 180.717 48.1505 180.427 47.5905 180.427C46.9705 180.427 46.6705 180.737 46.6105 181.227L45.1705 181.158C45.3105 179.947 46.1405 179.177 47.6005 179.177C49.0605 179.177 49.9605 179.897 49.9605 181.117C49.9605 181.887 49.5605 182.397 48.8105 182.637C49.6805 182.887 50.1805 183.537 50.1805 184.437C50.1805 185.778 49.1705 186.598 47.5705 186.598Z" fill="black"/>
</g>
<path id="field" d="M17.8077 189.94L169.218 38.5299C210.106 -2.3579 258.797 3.49167 272.883 3.49167L272.964 3.49167C287.201 3.49141 347.828 3.49033 416.132 71.7943C470.88 126.542 495.426 153.496 500.856 160.129L515.865 177.606L528.61 214.841L287.6 455.852C267.292 476.159 234.381 476.155 214.141 455.781C174.477 415.854 128.256 369.12 122.261 363.125C112.192 353.056 98.6131 337.295 107.182 305.317L7.59903 205.735L17.8077 189.94Z" fill="#333366" fill-opacity="0.1" fill="none" stroke="#333366" stroke-width="1.002"/>
</g>
<defs>
<clipPath id="clip0_93_2519">
<rect width="500" height="469.94" fill="white"/>
</clipPath>
</defs>
</svg>
