<svg width="500" height="470" viewBox="0 0 500 470" fill="none" xmlns="http://www.w3.org/2000/svg">
<g id="milwaukee-county-stadium-1960">
<g id="Infield">
<path d="M339.98 327.765C339.453 325.666 322.032 258.478 250.83 258.478C180.238 258.478 162.505 324.537 161.697 327.698C161.677 327.776 161.668 327.816 161.668 327.816L236.504 402.652C235.305 404.911 234.623 407.488 234.623 410.237C234.623 419.185 241.873 426.444 250.83 426.444C259.778 426.444 267.037 419.185 267.037 410.237C267.037 407.488 266.356 404.911 265.157 402.657L260.695 397.374C257.96 395.277 254.544 394.025 250.83 394.025C247.117 394.025 243.701 395.277 240.971 397.369L197.7 354.099C201.448 350.352 201.448 344.276 197.7 340.529C197.698 340.526 197.694 340.524 197.691 340.521L244.055 294.037C247.8 297.773 253.861 297.773 257.606 294.037L303.431 339.983C303.431 339.983 303.427 339.985 303.424 339.988C299.677 343.735 300.275 350.299 304.022 354.046L260.695 397.374L265.157 402.657L339.98 327.765Z" fill="#D2D2D2"/>
<path d="M259.91 345.706C259.91 350.72 255.845 354.786 250.83 354.786C245.815 354.786 241.75 350.72 241.75 345.706C241.75 340.691 245.815 336.625 250.83 336.625C255.845 336.625 259.91 340.691 259.91 345.706Z" fill="#D2D2D2"/>
</g>
<g id="Guides">
<g id="Home">
<circle id="Ellipse 1" cx="250.827" cy="410.42" r="16.0848" fill="#D2D2D2"/>
<circle id="Ellipse 1_2" cx="250.827" cy="410.42" r="1.62919" fill="black"/>
</g>
<g id="First">
<circle id="Ellipse 1_3" cx="311.125" cy="346.532" r="10.1878" fill="#D2D2D2"/>
<circle id="Ellipse 1_4" cx="311.125" cy="346.532" r="1.0319" fill="black"/>
</g>
<g id="Third">
<circle id="Ellipse 1_5" cx="190.34" cy="346.532" r="10.1878" fill="#D2D2D2"/>
<circle id="Ellipse 1_6" cx="190.34" cy="346.532" r="1.0319" fill="black"/>
</g>
<g id="Second">
<circle id="Ellipse 1_7" cx="250.827" cy="286.671" r="10.1878" fill="#D2D2D2"/>
<circle id="Ellipse 1_8" cx="250.827" cy="286.671" r="1.0319" fill="black"/>
</g>
<g id="Mound">
<circle id="Ellipse 1_9" cx="250.827" cy="345.929" r="9.08365" fill="#D2D2D2"/>
<circle id="Ellipse 1_10" cx="250.827" cy="345.929" r="0.920062" fill="black"/>
</g>
</g>
<path id="Foul Lines" d="M468.835 192.641L250.96 410.516L28.9466 188.503" fill="none" stroke="black" stroke-width="1.002"/>
<g id="Measurements">
<path id="402" d="M244.456 12.25V10.83H241.286V9.66003L244.266 5.15003H245.886V9.59003H246.726V10.83H245.886V12.25H244.456ZM242.626 9.59003H244.456V6.94003L242.626 9.59003ZM250.002 12.41C248.402 12.41 247.442 11 247.442 8.71003C247.442 6.41003 248.402 4.99003 250.002 4.99003C251.602 4.99003 252.562 6.41003 252.562 8.71003C252.562 11 251.602 12.41 250.002 12.41ZM248.902 8.71003C248.902 9.14003 248.932 9.51003 248.992 9.82003L250.682 6.63003C250.502 6.38003 250.272 6.25003 250.002 6.25003C249.312 6.25003 248.902 7.07003 248.902 8.71003ZM250.002 11.15C250.692 11.15 251.102 10.34 251.102 8.71003C251.102 8.28003 251.072 7.90003 251.012 7.58003L249.322 10.77C249.502 11.02 249.732 11.15 250.002 11.15ZM253.438 12.25C253.438 10.52 254.018 9.51003 255.998 8.49003C256.728 8.11003 257.088 7.83003 257.088 7.18003C257.088 6.61003 256.758 6.25003 256.128 6.25003C255.408 6.25003 255.058 6.67003 254.938 7.43003L253.468 7.34003C253.608 5.89003 254.518 4.99003 256.148 4.99003C257.738 4.99003 258.558 5.84003 258.558 7.10003C258.558 8.24003 258.068 8.80003 256.668 9.56003C255.518 10.18 255.108 10.61 255.068 10.97H258.558V12.25H253.438Z" fill="black"/>
<path id="377" d="M85.9306 67.7821C84.3006 67.7821 83.4906 66.9521 83.4206 65.6621L84.8606 65.5921C84.9206 66.2821 85.3806 66.5221 85.9606 66.5221C86.5906 66.5221 87.0806 66.2221 87.0806 65.5221C87.0806 64.8421 86.6306 64.4821 85.8906 64.4821H85.3606V63.3521H85.8906C86.4506 63.3521 86.8606 63.1021 86.8606 62.4921C86.8606 61.9021 86.5106 61.6121 85.9506 61.6121C85.3306 61.6121 85.0306 61.9221 84.9706 62.4121L83.5306 62.3421C83.6706 61.1321 84.5006 60.3621 85.9606 60.3621C87.4206 60.3621 88.3206 61.0821 88.3206 62.3021C88.3206 63.0721 87.9206 63.5821 87.1706 63.8221C88.0406 64.0721 88.5406 64.7221 88.5406 65.6221C88.5406 66.9621 87.5306 67.7821 85.9306 67.7821ZM90.6467 67.6221C90.6467 65.4721 91.5467 63.5121 93.0167 61.8021H89.5167V60.5221H94.4367V61.7321C92.8067 63.5921 92.1367 65.1821 92.1367 67.6221H90.6467ZM96.6428 67.6221C96.6428 65.4721 97.5428 63.5121 99.0128 61.8021H95.5128V60.5221H100.433V61.7321C98.8028 63.5921 98.1328 65.1821 98.1328 67.6221H96.6428Z" fill="black"/>
<path id="377_2" d="M404.762 67.7821C403.132 67.7821 402.322 66.9521 402.252 65.6621L403.692 65.5921C403.752 66.2821 404.212 66.5221 404.792 66.5221C405.422 66.5221 405.912 66.2221 405.912 65.5221C405.912 64.8421 405.462 64.4821 404.722 64.4821H404.192V63.3521H404.722C405.282 63.3521 405.692 63.1021 405.692 62.4921C405.692 61.9021 405.342 61.6121 404.782 61.6121C404.162 61.6121 403.862 61.9221 403.802 62.4121L402.362 62.3421C402.502 61.1321 403.332 60.3621 404.792 60.3621C406.252 60.3621 407.152 61.0821 407.152 62.3021C407.152 63.0721 406.752 63.5821 406.002 63.8221C406.872 64.0721 407.372 64.7221 407.372 65.6221C407.372 66.9621 406.362 67.7821 404.762 67.7821ZM409.478 67.6221C409.478 65.4721 410.378 63.5121 411.848 61.8021H408.348V60.5221H413.268V61.7321C411.638 63.5921 410.968 65.1821 410.968 67.6221H409.478ZM415.474 67.6221C415.474 65.4721 416.374 63.5121 417.844 61.8021H414.344V60.5221H419.264V61.7321C417.634 63.5921 416.964 65.1821 416.964 67.6221H415.474Z" fill="black"/>
<path id="315" d="M448.565 191.203C446.935 191.203 446.125 190.373 446.055 189.083L447.495 189.013C447.555 189.703 448.015 189.943 448.595 189.943C449.225 189.943 449.715 189.643 449.715 188.943C449.715 188.263 449.265 187.903 448.525 187.903H447.995V186.773H448.525C449.085 186.773 449.495 186.523 449.495 185.913C449.495 185.323 449.145 185.033 448.585 185.033C447.965 185.033 447.665 185.343 447.605 185.833L446.165 185.763C446.305 184.553 447.135 183.783 448.595 183.783C450.055 183.783 450.955 184.503 450.955 185.723C450.955 186.493 450.555 187.003 449.805 187.243C450.675 187.493 451.175 188.143 451.175 189.043C451.175 190.383 450.165 191.203 448.565 191.203ZM452.091 191.043V189.763H454.131V186.383H452.391V185.203H453.171C453.971 185.203 454.311 184.863 454.311 183.943H455.551V189.763H457.131V191.043H452.091ZM460.597 191.203C459.097 191.203 458.187 190.313 458.087 189.143L459.547 189.063C459.637 189.643 459.987 189.943 460.597 189.943C461.257 189.943 461.667 189.523 461.667 188.713C461.667 187.923 461.247 187.463 460.607 187.463C460.167 187.463 459.797 187.723 459.657 188.083L458.187 188.013L458.607 183.943H462.797V185.223H459.777L459.597 186.753C459.927 186.473 460.367 186.313 460.847 186.313C462.257 186.313 463.127 187.333 463.127 188.723C463.127 190.193 462.127 191.203 460.597 191.203Z" fill="black"/>
<path id="320" d="M36.3685 187.284C34.7385 187.284 33.9285 186.454 33.8585 185.164L35.2985 185.094C35.3585 185.784 35.8185 186.024 36.3985 186.024C37.0285 186.024 37.5185 185.724 37.5185 185.024C37.5185 184.344 37.0685 183.984 36.3285 183.984H35.7985V182.854H36.3285C36.8885 182.854 37.2985 182.604 37.2985 181.994C37.2985 181.404 36.9485 181.114 36.3885 181.114C35.7685 181.114 35.4685 181.424 35.4085 181.914L33.9685 181.844C34.1085 180.634 34.9385 179.864 36.3985 179.864C37.8585 179.864 38.7585 180.584 38.7585 181.804C38.7585 182.574 38.3585 183.084 37.6085 183.324C38.4785 183.574 38.9785 184.224 38.9785 185.124C38.9785 186.464 37.9685 187.284 36.3685 187.284ZM39.8546 187.124C39.8546 185.394 40.4346 184.384 42.4146 183.364C43.1446 182.984 43.5046 182.704 43.5046 182.054C43.5046 181.484 43.1746 181.124 42.5446 181.124C41.8246 181.124 41.4746 181.544 41.3546 182.304L39.8846 182.214C40.0246 180.764 40.9346 179.864 42.5646 179.864C44.1546 179.864 44.9746 180.714 44.9746 181.974C44.9746 183.114 44.4846 183.674 43.0846 184.434C41.9346 185.054 41.5246 185.484 41.4846 185.844H44.9746V187.124H39.8546ZM48.4106 187.284C46.8106 187.284 45.8506 185.874 45.8506 183.584C45.8506 181.284 46.8106 179.864 48.4106 179.864C50.0106 179.864 50.9706 181.284 50.9706 183.584C50.9706 185.874 50.0106 187.284 48.4106 187.284ZM47.3106 183.584C47.3106 184.014 47.3406 184.384 47.4006 184.694L49.0906 181.504C48.9106 181.254 48.6806 181.124 48.4106 181.124C47.7206 181.124 47.3106 181.944 47.3106 183.584ZM48.4106 186.024C49.1006 186.024 49.5106 185.214 49.5106 183.584C49.5106 183.154 49.4806 182.774 49.4206 182.454L47.7306 185.644C47.9106 185.894 48.1406 186.024 48.4106 186.024Z" fill="black"/>
</g>
<g id="field">
<path d="M164.882 420.073L32.515 204.476C30.6347 201.413 29.3103 198.02 29.0963 194.432C25.2827 130.485 117.217 17.25 251.064 17.25H251.061C366.675 17.25 447.638 99.7569 467.766 165.014C468.485 167.346 468.793 169.756 468.793 172.196V198.179C468.793 203.166 467.412 208.055 464.803 212.305L337.242 420.073C317.618 452.317 284.29 468.326 251.062 468.08C217.835 468.326 184.506 452.317 164.882 420.073Z" fill="#12284B" fill-opacity="0.1"/>
<path d="M251.062 468.08C217.835 468.326 184.506 452.317 164.882 420.073L32.515 204.476C30.6347 201.413 29.3103 198.02 29.0963 194.432C25.2827 130.485 117.217 17.25 251.064 17.25H251.061C366.675 17.25 447.638 99.7569 467.766 165.014C468.485 167.346 468.793 169.756 468.793 172.196V198.179C468.793 203.166 467.412 208.055 464.803 212.305L337.242 420.073C317.618 452.317 284.29 468.326 251.062 468.08ZM251.062 468.08H251.064M251.062 468.08H251.061" fill="none" stroke="#12284B" stroke-width="1.002"/>
</g>
</g>
</svg>
