<svg width="500" height="470" viewBox="0 0 500 470" fill="none" xmlns="http://www.w3.org/2000/svg">
<g id="milwaukee-county-stadium-1953">
<g id="Infield">
<path d="M339.98 327.765C339.453 325.666 322.032 258.478 250.83 258.478C180.238 258.478 162.505 324.537 161.697 327.698C161.677 327.776 161.668 327.816 161.668 327.816L236.504 402.652C235.305 404.911 234.623 407.488 234.623 410.237C234.623 419.185 241.873 426.444 250.83 426.444C259.778 426.444 267.037 419.185 267.037 410.237C267.037 407.488 266.356 404.911 265.156 402.657L260.695 397.374C257.96 395.277 254.544 394.025 250.83 394.025C247.117 394.025 243.701 395.277 240.971 397.369L197.7 354.099C201.448 350.352 201.448 344.276 197.7 340.529C197.698 340.526 197.694 340.524 197.691 340.521L244.055 294.037C247.8 297.773 253.861 297.773 257.606 294.037L303.431 339.983C303.431 339.983 303.427 339.985 303.424 339.988C299.677 343.735 300.275 350.299 304.022 354.046L260.695 397.374L265.156 402.657L339.98 327.765Z" fill="#D2D2D2"/>
<path d="M259.91 345.706C259.91 350.72 255.845 354.786 250.83 354.786C245.815 354.786 241.75 350.72 241.75 345.706C241.75 340.691 245.815 336.625 250.83 336.625C255.845 336.625 259.91 340.691 259.91 345.706Z" fill="#D2D2D2"/>
</g>
<g id="Guides">
<g id="Home">
<circle id="Ellipse 1" cx="250.827" cy="410.42" r="16.0848" fill="#D2D2D2"/>
<circle id="Ellipse 1_2" cx="250.827" cy="410.42" r="1.62919" fill="black"/>
</g>
<g id="First">
<circle id="Ellipse 1_3" cx="311.125" cy="346.532" r="10.1878" fill="#D2D2D2"/>
<circle id="Ellipse 1_4" cx="311.125" cy="346.532" r="1.0319" fill="black"/>
</g>
<g id="Third">
<circle id="Ellipse 1_5" cx="190.34" cy="346.532" r="10.1878" fill="#D2D2D2"/>
<circle id="Ellipse 1_6" cx="190.34" cy="346.532" r="1.0319" fill="black"/>
</g>
<g id="Second">
<circle id="Ellipse 1_7" cx="250.827" cy="286.671" r="10.1878" fill="#D2D2D2"/>
<circle id="Ellipse 1_8" cx="250.827" cy="286.671" r="1.0319" fill="black"/>
</g>
<g id="Mound">
<circle id="Ellipse 1_9" cx="250.827" cy="345.929" r="9.08365" fill="#D2D2D2"/>
<circle id="Ellipse 1_10" cx="250.827" cy="345.929" r="0.920062" fill="black"/>
</g>
</g>
<path id="Foul Lines" d="M473.933 187.543L250.96 410.516L28.5681 188.124" fill="none" stroke="black" stroke-width="1.002"/>
<g id="Measurements">
<path id="404" d="M244.456 12.25V10.83H241.286V9.66003L244.266 5.15003H245.886V9.59003H246.726V10.83H245.886V12.25H244.456ZM242.626 9.59003H244.456V6.94003L242.626 9.59003ZM250.002 12.41C248.402 12.41 247.442 11 247.442 8.71003C247.442 6.41003 248.402 4.99003 250.002 4.99003C251.602 4.99003 252.562 6.41003 252.562 8.71003C252.562 11 251.602 12.41 250.002 12.41ZM248.902 8.71003C248.902 9.14003 248.932 9.51003 248.992 9.82003L250.682 6.63003C250.502 6.38003 250.272 6.25003 250.002 6.25003C249.312 6.25003 248.902 7.07003 248.902 8.71003ZM250.002 11.15C250.692 11.15 251.102 10.34 251.102 8.71003C251.102 8.28003 251.072 7.90003 251.012 7.58003L249.322 10.77C249.502 11.02 249.732 11.15 250.002 11.15ZM256.448 12.25V10.83H253.278V9.66003L256.258 5.15003H257.878V9.59003H258.718V10.83H257.878V12.25H256.448ZM254.618 9.59003H256.448V6.94003L254.618 9.59003Z" fill="black"/>
<path id="320" d="M453.47 187.284C451.84 187.284 451.03 186.454 450.96 185.164L452.4 185.094C452.46 185.784 452.92 186.024 453.5 186.024C454.13 186.024 454.62 185.724 454.62 185.024C454.62 184.344 454.17 183.984 453.43 183.984H452.9V182.854H453.43C453.99 182.854 454.4 182.604 454.4 181.994C454.4 181.404 454.05 181.114 453.49 181.114C452.87 181.114 452.57 181.424 452.51 181.914L451.07 181.844C451.21 180.634 452.04 179.864 453.5 179.864C454.96 179.864 455.86 180.584 455.86 181.804C455.86 182.574 455.46 183.084 454.71 183.324C455.58 183.574 456.08 184.224 456.08 185.124C456.08 186.464 455.07 187.284 453.47 187.284ZM456.956 187.124C456.956 185.394 457.536 184.384 459.516 183.364C460.246 182.984 460.606 182.704 460.606 182.054C460.606 181.484 460.276 181.124 459.646 181.124C458.926 181.124 458.576 181.544 458.456 182.304L456.986 182.214C457.126 180.764 458.036 179.864 459.666 179.864C461.256 179.864 462.076 180.714 462.076 181.974C462.076 183.114 461.586 183.674 460.186 184.434C459.036 185.054 458.626 185.484 458.586 185.844H462.076V187.124H456.956ZM465.512 187.284C463.912 187.284 462.952 185.874 462.952 183.584C462.952 181.284 463.912 179.864 465.512 179.864C467.112 179.864 468.072 181.284 468.072 183.584C468.072 185.874 467.112 187.284 465.512 187.284ZM464.412 183.584C464.412 184.014 464.442 184.384 464.502 184.694L466.192 181.504C466.012 181.254 465.782 181.124 465.512 181.124C464.822 181.124 464.412 181.944 464.412 183.584ZM465.512 186.024C466.202 186.024 466.612 185.214 466.612 183.584C466.612 183.154 466.582 182.774 466.522 182.454L464.832 185.644C465.012 185.894 465.242 186.024 465.512 186.024Z" fill="black"/>
<path id="320_2" d="M36.3684 187.284C34.7384 187.284 33.9284 186.454 33.8584 185.164L35.2984 185.094C35.3584 185.784 35.8184 186.024 36.3984 186.024C37.0284 186.024 37.5184 185.724 37.5184 185.024C37.5184 184.344 37.0684 183.984 36.3284 183.984H35.7984V182.854H36.3284C36.8884 182.854 37.2984 182.604 37.2984 181.994C37.2984 181.404 36.9484 181.114 36.3884 181.114C35.7684 181.114 35.4684 181.424 35.4084 181.914L33.9684 181.844C34.1084 180.634 34.9384 179.864 36.3984 179.864C37.8584 179.864 38.7584 180.584 38.7584 181.804C38.7584 182.574 38.3584 183.084 37.6084 183.324C38.4784 183.574 38.9784 184.224 38.9784 185.124C38.9784 186.464 37.9684 187.284 36.3684 187.284ZM39.8545 187.124C39.8545 185.394 40.4345 184.384 42.4145 183.364C43.1445 182.984 43.5045 182.704 43.5045 182.054C43.5045 181.484 43.1745 181.124 42.5445 181.124C41.8245 181.124 41.4745 181.544 41.3545 182.304L39.8845 182.214C40.0245 180.764 40.9345 179.864 42.5645 179.864C44.1545 179.864 44.9745 180.714 44.9745 181.974C44.9745 183.114 44.4845 183.674 43.0845 184.434C41.9345 185.054 41.5245 185.484 41.4845 185.844H44.9745V187.124H39.8545ZM48.4106 187.284C46.8106 187.284 45.8506 185.874 45.8506 183.584C45.8506 181.284 46.8106 179.864 48.4106 179.864C50.0106 179.864 50.9706 181.284 50.9706 183.584C50.9706 185.874 50.0106 187.284 48.4106 187.284ZM47.3106 183.584C47.3106 184.014 47.3406 184.384 47.4006 184.694L49.0906 181.504C48.9106 181.254 48.6806 181.124 48.4106 181.124C47.7206 181.124 47.3106 181.944 47.3106 183.584ZM48.4106 186.024C49.1006 186.024 49.5106 185.214 49.5106 183.584C49.5106 183.154 49.4806 182.774 49.4206 182.454L47.7306 185.644C47.9106 185.894 48.1406 186.024 48.4106 186.024Z" fill="black"/>
</g>
<g id="field">
<path d="M28.9188 194.777C29.3157 198.135 30.5744 201.315 32.3439 204.197L164.882 420.073C184.506 452.317 217.835 468.326 251.062 468.08C284.29 468.326 317.618 452.317 337.242 420.073L469.781 204.197C471.55 201.315 472.809 198.135 473.206 194.777C482.588 115.391 385.885 15.25 251.061 15.25H251.064C116.239 15.25 19.5363 115.391 28.9188 194.777Z" fill="#12284B" fill-opacity="0.1"/>
<path d="M251.062 468.08C217.835 468.326 184.506 452.317 164.882 420.073L32.3439 204.197C30.5744 201.315 29.3157 198.135 28.9188 194.777C19.5363 115.391 116.239 15.25 251.064 15.25H251.061C385.885 15.25 482.588 115.391 473.206 194.777C472.809 198.135 471.55 201.315 469.781 204.197L337.242 420.073C317.618 452.317 284.29 468.326 251.062 468.08ZM251.062 468.08H251.064M251.062 468.08H251.061" fill="none" stroke="#12284B" stroke-width="1.002"/>
</g>
</g>
</svg>
