<svg width="500" height="470" viewBox="0 0 500 470" fill="none" xmlns="http://www.w3.org/2000/svg">
<g id="milwaukee-county-stadium-1955">
<g id="Infield">
<path d="M339.98 327.765C339.453 325.666 322.032 258.478 250.83 258.478C180.238 258.478 162.505 324.537 161.697 327.698C161.677 327.776 161.668 327.816 161.668 327.816L236.504 402.652C235.305 404.911 234.623 407.488 234.623 410.237C234.623 419.185 241.873 426.444 250.83 426.444C259.778 426.444 267.037 419.185 267.037 410.237C267.037 407.488 266.356 404.911 265.156 402.657L260.695 397.374C257.96 395.277 254.544 394.025 250.83 394.025C247.117 394.025 243.701 395.277 240.971 397.369L197.7 354.099C201.448 350.352 201.448 344.276 197.7 340.529C197.698 340.526 197.694 340.524 197.691 340.521L244.055 294.037C247.8 297.773 253.861 297.773 257.606 294.037L303.431 339.983C303.431 339.983 303.427 339.985 303.424 339.988C299.677 343.735 300.275 350.299 304.022 354.046L260.695 397.374L265.156 402.657L339.98 327.765Z" fill="#D2D2D2"/>
<path d="M259.91 345.706C259.91 350.72 255.845 354.786 250.83 354.786C245.815 354.786 241.75 350.72 241.75 345.706C241.75 340.691 245.815 336.625 250.83 336.625C255.845 336.625 259.91 340.691 259.91 345.706Z" fill="#D2D2D2"/>
</g>
<g id="Guides">
<g id="Home">
<circle id="Ellipse 1" cx="250.827" cy="410.42" r="16.0848" fill="#D2D2D2"/>
<circle id="Ellipse 1_2" cx="250.827" cy="410.42" r="1.62919" fill="black"/>
</g>
<g id="First">
<circle id="Ellipse 1_3" cx="311.125" cy="346.532" r="10.1878" fill="#D2D2D2"/>
<circle id="Ellipse 1_4" cx="311.125" cy="346.532" r="1.0319" fill="black"/>
</g>
<g id="Third">
<circle id="Ellipse 1_5" cx="190.34" cy="346.532" r="10.1878" fill="#D2D2D2"/>
<circle id="Ellipse 1_6" cx="190.34" cy="346.532" r="1.0319" fill="black"/>
</g>
<g id="Second">
<circle id="Ellipse 1_7" cx="250.827" cy="286.671" r="10.1878" fill="#D2D2D2"/>
<circle id="Ellipse 1_8" cx="250.827" cy="286.671" r="1.0319" fill="black"/>
</g>
<g id="Mound">
<circle id="Ellipse 1_9" cx="250.827" cy="345.929" r="9.08365" fill="#D2D2D2"/>
<circle id="Ellipse 1_10" cx="250.827" cy="345.929" r="0.920062" fill="black"/>
</g>
</g>
<path id="Foul Lines" d="M469.448 192.028L250.96 410.516L28.5681 188.124" fill="none" stroke="black" stroke-width="1.002"/>
<g id="Measurements">
<path id="402" d="M244.456 12.25V10.83H241.286V9.66003L244.266 5.15003H245.886V9.59003H246.726V10.83H245.886V12.25H244.456ZM242.626 9.59003H244.456V6.94003L242.626 9.59003ZM250.002 12.41C248.402 12.41 247.442 11 247.442 8.71003C247.442 6.41003 248.402 4.99003 250.002 4.99003C251.602 4.99003 252.562 6.41003 252.562 8.71003C252.562 11 251.602 12.41 250.002 12.41ZM248.902 8.71003C248.902 9.14003 248.932 9.51003 248.992 9.82003L250.682 6.63003C250.502 6.38003 250.272 6.25003 250.002 6.25003C249.312 6.25003 248.902 7.07003 248.902 8.71003ZM250.002 11.15C250.692 11.15 251.102 10.34 251.102 8.71003C251.102 8.28003 251.072 7.90003 251.012 7.58003L249.322 10.77C249.502 11.02 249.732 11.15 250.002 11.15ZM253.438 12.25C253.438 10.52 254.018 9.51003 255.998 8.49003C256.728 8.11003 257.088 7.83003 257.088 7.18003C257.088 6.61003 256.758 6.25003 256.128 6.25003C255.408 6.25003 255.058 6.67003 254.938 7.43003L253.468 7.34003C253.608 5.89003 254.518 4.99003 256.148 4.99003C257.738 4.99003 258.558 5.84003 258.558 7.10003C258.558 8.24003 258.068 8.80003 256.668 9.56003C255.518 10.18 255.108 10.61 255.068 10.97H258.558V12.25H253.438Z" fill="black"/>
<path id="315" d="M448.47 191.284C446.84 191.284 446.03 190.454 445.96 189.164L447.4 189.094C447.46 189.784 447.92 190.024 448.5 190.024C449.13 190.024 449.62 189.724 449.62 189.024C449.62 188.344 449.17 187.984 448.43 187.984H447.9V186.854H448.43C448.99 186.854 449.4 186.604 449.4 185.994C449.4 185.404 449.05 185.114 448.49 185.114C447.87 185.114 447.57 185.424 447.51 185.914L446.07 185.844C446.21 184.634 447.04 183.864 448.5 183.864C449.96 183.864 450.86 184.584 450.86 185.804C450.86 186.574 450.46 187.084 449.71 187.324C450.58 187.574 451.08 188.224 451.08 189.124C451.08 190.464 450.07 191.284 448.47 191.284ZM451.996 191.124V189.844H454.036V186.464H452.296V185.284H453.076C453.876 185.284 454.216 184.944 454.216 184.024H455.456V189.844H457.036V191.124H451.996ZM460.502 191.284C459.002 191.284 458.092 190.394 457.992 189.224L459.452 189.144C459.542 189.724 459.892 190.024 460.502 190.024C461.162 190.024 461.572 189.604 461.572 188.794C461.572 188.004 461.152 187.544 460.512 187.544C460.072 187.544 459.702 187.804 459.562 188.164L458.092 188.094L458.512 184.024H462.702V185.304H459.682L459.502 186.834C459.832 186.554 460.272 186.394 460.752 186.394C462.162 186.394 463.032 187.414 463.032 188.804C463.032 190.274 462.032 191.284 460.502 191.284Z" fill="black"/>
<path id="394" d="M374.145 49.2173C372.515 49.2173 371.705 48.3873 371.635 47.0973L373.075 47.0273C373.135 47.7173 373.595 47.9573 374.175 47.9573C374.805 47.9573 375.295 47.6573 375.295 46.9573C375.295 46.2773 374.845 45.9173 374.105 45.9173H373.575V44.7873H374.105C374.665 44.7873 375.075 44.5373 375.075 43.9273C375.075 43.3373 374.725 43.0473 374.165 43.0473C373.545 43.0473 373.245 43.3573 373.185 43.8473L371.745 43.7773C371.885 42.5673 372.715 41.7973 374.175 41.7973C375.635 41.7973 376.535 42.5173 376.535 43.7373C376.535 44.5073 376.135 45.0173 375.385 45.2573C376.255 45.5073 376.755 46.1573 376.755 47.0573C376.755 48.3973 375.745 49.2173 374.145 49.2173ZM380.171 41.7973C381.901 41.7973 382.811 42.9673 382.811 45.0273C382.811 47.3773 382.001 49.2173 379.911 49.2173C378.511 49.2173 377.861 48.4573 377.601 47.4373L379.041 47.3373C379.141 47.6973 379.371 47.9573 379.911 47.9573C380.651 47.9573 381.171 47.4473 381.331 46.2273C380.991 46.5273 380.511 46.7473 379.881 46.7473C378.471 46.7473 377.571 45.7973 377.571 44.3673C377.571 42.7873 378.601 41.7973 380.171 41.7973ZM380.201 43.0773C379.451 43.0773 379.031 43.5173 379.031 44.3173C379.031 45.0573 379.411 45.5373 380.141 45.5373C380.881 45.5373 381.351 45.0473 381.351 44.3073C381.351 43.6273 380.931 43.0773 380.201 43.0773ZM386.638 49.0573V47.6373H383.468V46.4673L386.448 41.9573H388.068V46.3973H388.908V47.6373H388.068V49.0573H386.638ZM384.808 46.3973H386.638V43.7473L384.808 46.3973Z" fill="black"/>
<path id="394_2" d="M117.986 49.2173C116.356 49.2173 115.546 48.3873 115.476 47.0973L116.916 47.0273C116.976 47.7173 117.436 47.9573 118.016 47.9573C118.646 47.9573 119.136 47.6573 119.136 46.9573C119.136 46.2773 118.686 45.9173 117.946 45.9173H117.416V44.7873H117.946C118.506 44.7873 118.916 44.5373 118.916 43.9273C118.916 43.3373 118.566 43.0473 118.006 43.0473C117.386 43.0473 117.086 43.3573 117.026 43.8473L115.586 43.7773C115.726 42.5673 116.556 41.7973 118.016 41.7973C119.476 41.7973 120.376 42.5173 120.376 43.7373C120.376 44.5073 119.976 45.0173 119.226 45.2573C120.096 45.5073 120.596 46.1573 120.596 47.0573C120.596 48.3973 119.586 49.2173 117.986 49.2173ZM124.012 41.7973C125.742 41.7973 126.652 42.9673 126.652 45.0273C126.652 47.3773 125.842 49.2173 123.752 49.2173C122.352 49.2173 121.702 48.4573 121.442 47.4373L122.882 47.3373C122.982 47.6973 123.212 47.9573 123.752 47.9573C124.492 47.9573 125.012 47.4473 125.172 46.2273C124.832 46.5273 124.352 46.7473 123.722 46.7473C122.312 46.7473 121.412 45.7973 121.412 44.3673C121.412 42.7873 122.442 41.7973 124.012 41.7973ZM124.042 43.0773C123.292 43.0773 122.872 43.5173 122.872 44.3173C122.872 45.0573 123.252 45.5373 123.982 45.5373C124.722 45.5373 125.192 45.0473 125.192 44.3073C125.192 43.6273 124.772 43.0773 124.042 43.0773ZM130.478 49.0573V47.6373H127.308V46.4673L130.288 41.9573H131.908V46.3973H132.748V47.6373H131.908V49.0573H130.478ZM128.648 46.3973H130.478V43.7473L128.648 46.3973Z" fill="black"/>
<path id="320" d="M36.3685 187.284C34.7385 187.284 33.9285 186.454 33.8585 185.164L35.2985 185.094C35.3585 185.784 35.8185 186.024 36.3985 186.024C37.0285 186.024 37.5185 185.724 37.5185 185.024C37.5185 184.344 37.0685 183.984 36.3285 183.984H35.7985V182.854H36.3285C36.8885 182.854 37.2985 182.604 37.2985 181.994C37.2985 181.404 36.9485 181.114 36.3885 181.114C35.7685 181.114 35.4685 181.424 35.4085 181.914L33.9685 181.844C34.1085 180.634 34.9385 179.864 36.3985 179.864C37.8585 179.864 38.7585 180.584 38.7585 181.804C38.7585 182.574 38.3585 183.084 37.6085 183.324C38.4785 183.574 38.9785 184.224 38.9785 185.124C38.9785 186.464 37.9685 187.284 36.3685 187.284ZM39.8546 187.124C39.8546 185.394 40.4346 184.384 42.4146 183.364C43.1446 182.984 43.5046 182.704 43.5046 182.054C43.5046 181.484 43.1746 181.124 42.5446 181.124C41.8246 181.124 41.4746 181.544 41.3546 182.304L39.8846 182.214C40.0246 180.764 40.9346 179.864 42.5646 179.864C44.1546 179.864 44.9746 180.714 44.9746 181.974C44.9746 183.114 44.4846 183.674 43.0846 184.434C41.9346 185.054 41.5246 185.484 41.4846 185.844H44.9746V187.124H39.8546ZM48.4106 187.284C46.8106 187.284 45.8506 185.874 45.8506 183.584C45.8506 181.284 46.8106 179.864 48.4106 179.864C50.0106 179.864 50.9706 181.284 50.9706 183.584C50.9706 185.874 50.0106 187.284 48.4106 187.284ZM47.3106 183.584C47.3106 184.014 47.3406 184.384 47.4006 184.694L49.0906 181.504C48.9106 181.254 48.6806 181.124 48.4106 181.124C47.7206 181.124 47.3106 181.944 47.3106 183.584ZM48.4106 186.024C49.1006 186.024 49.5106 185.214 49.5106 183.584C49.5106 183.154 49.4806 182.774 49.4206 182.454L47.7306 185.644C47.9106 185.894 48.1406 186.024 48.4106 186.024Z" fill="black"/>
</g>
<path id="field" d="M164.882 420.073L31.651 203.069C30.3342 200.924 29.2659 198.642 28.8657 196.157C20.0299 141.287 129.101 15.25 251.064 15.25H251.062C351.715 15.25 443.588 103.7 467.653 164.645C468.646 167.158 469.137 169.827 469.222 172.528C471.332 240.001 455.108 271.696 445.364 288.572L425.146 276.899L337.244 420.073C317.62 452.317 284.291 468.326 251.063 468.08C217.835 468.326 184.506 452.317 164.882 420.073Z" fill="none" stroke="#12284B" stroke-width="1.002"/>
</g>
</svg>
