<svg width="500" height="470" viewBox="0 0 500 470" fill="none" xmlns="http://www.w3.org/2000/svg">
<g id="nationals-park-2017">
<g id="Infield">
<path d="M339.98 327.766C339.453 325.666 322.032 258.479 250.83 258.479C180.238 258.479 162.505 324.538 161.697 327.699C161.677 327.776 161.668 327.816 161.668 327.816L236.504 402.653C235.305 404.912 234.623 407.489 234.623 410.238C234.623 419.186 241.873 426.445 250.83 426.445C259.778 426.445 267.037 419.186 267.037 410.238C267.037 407.489 266.356 404.912 265.156 402.657L260.695 397.375C257.96 395.278 254.544 394.026 250.83 394.026C247.117 394.026 243.701 395.278 240.971 397.37L197.7 354.1C201.448 350.353 201.448 344.277 197.7 340.53C197.698 340.527 197.694 340.525 197.691 340.522L244.055 294.038C247.8 297.773 253.861 297.773 257.606 294.038L303.431 339.984C303.431 339.984 303.427 339.985 303.424 339.988C299.677 343.736 300.275 350.3 304.022 354.047L260.695 397.375L265.156 402.657L339.98 327.766Z" fill="#D2D2D2"/>
<path d="M259.91 345.706C259.91 350.721 255.845 354.787 250.83 354.787C245.815 354.787 241.75 350.721 241.75 345.706C241.75 340.691 245.815 336.626 250.83 336.626C255.845 336.626 259.91 340.691 259.91 345.706Z" fill="#D2D2D2"/>
</g>
<g id="Guides">
<g id="Home">
<circle id="Ellipse 1" cx="250.827" cy="410.419" r="16.0848" fill="#D2D2D2"/>
<circle id="Ellipse 1_2" cx="250.827" cy="410.418" r="1.62919" fill="black"/>
</g>
<g id="First">
<circle id="Ellipse 1_3" cx="311.125" cy="346.532" r="10.1878" fill="#D2D2D2"/>
<circle id="Ellipse 1_4" cx="311.125" cy="346.532" r="1.0319" fill="black"/>
</g>
<g id="Third">
<circle id="Ellipse 1_5" cx="190.34" cy="346.532" r="10.1878" fill="#D2D2D2"/>
<circle id="Ellipse 1_6" cx="190.34" cy="346.532" r="1.0319" fill="black"/>
</g>
<g id="Second">
<circle id="Ellipse 1_7" cx="250.827" cy="286.67" r="10.1878" fill="#D2D2D2"/>
<circle id="Ellipse 1_8" cx="250.827" cy="286.671" r="1.0319" fill="black"/>
</g>
<g id="Mound">
<circle id="Ellipse 1_9" cx="250.827" cy="345.929" r="9.08365" fill="#D2D2D2"/>
<circle id="Ellipse 1_10" cx="250.827" cy="345.93" r="0.920062" fill="black"/>
</g>
</g>
<path id="Foul Lines" d="M482.008 179.484L250.976 410.516L19.397 178.938" fill="none" stroke="black" stroke-width="1.002"/>
<g id="Measurements">
<path id="402" d="M247.456 10.998V9.57805H244.286V8.40805L247.266 3.89805H248.886V8.33805H249.726V9.57805H248.886V10.998H247.456ZM245.626 8.33805H247.456V5.68805L245.626 8.33805ZM253.002 11.158C251.402 11.158 250.442 9.74805 250.442 7.45805C250.442 5.15805 251.402 3.73805 253.002 3.73805C254.602 3.73805 255.562 5.15805 255.562 7.45805C255.562 9.74805 254.602 11.158 253.002 11.158ZM251.902 7.45805C251.902 7.88805 251.932 8.25805 251.992 8.56805L253.682 5.37805C253.502 5.12805 253.272 4.99805 253.002 4.99805C252.312 4.99805 251.902 5.81805 251.902 7.45805ZM253.002 9.89805C253.692 9.89805 254.102 9.08805 254.102 7.45805C254.102 7.02805 254.072 6.64805 254.012 6.32805L252.322 9.51805C252.502 9.76805 252.732 9.89805 253.002 9.89805ZM256.438 10.998C256.438 9.26805 257.018 8.25805 258.998 7.23805C259.728 6.85805 260.088 6.57805 260.088 5.92805C260.088 5.35805 259.758 4.99805 259.128 4.99805C258.408 4.99805 258.058 5.41805 257.938 6.17805L256.468 6.08805C256.608 4.63805 257.518 3.73805 259.148 3.73805C260.738 3.73805 261.558 4.58805 261.558 5.84805C261.558 6.98805 261.068 7.54805 259.668 8.30805C258.518 8.92805 258.108 9.35805 258.068 9.71805H261.558V10.998H256.438Z" fill="black"/>
<path id="370" d="M377.66 66.9491C376.03 66.9491 375.22 66.1191 375.15 64.8291L376.59 64.7591C376.65 65.4491 377.11 65.6891 377.69 65.6891C378.32 65.6891 378.81 65.3891 378.81 64.6891C378.81 64.0091 378.36 63.6491 377.62 63.6491H377.09V62.5191H377.62C378.18 62.5191 378.59 62.2691 378.59 61.6591C378.59 61.0691 378.24 60.7791 377.68 60.7791C377.06 60.7791 376.76 61.0891 376.7 61.5791L375.26 61.5091C375.4 60.2991 376.23 59.5291 377.69 59.5291C379.15 59.5291 380.05 60.2491 380.05 61.4691C380.05 62.2391 379.65 62.7491 378.9 62.9891C379.77 63.2391 380.27 63.8891 380.27 64.7891C380.27 66.1291 379.26 66.9491 377.66 66.9491ZM382.376 66.7891C382.376 64.6391 383.276 62.6791 384.746 60.9691H381.246V59.6891H386.166V60.8991C384.536 62.7591 383.866 64.3491 383.866 66.7891H382.376ZM389.703 66.9491C388.103 66.9491 387.143 65.5391 387.143 63.2491C387.143 60.9491 388.103 59.5291 389.703 59.5291C391.303 59.5291 392.263 60.9491 392.263 63.2491C392.263 65.5391 391.303 66.9491 389.703 66.9491ZM388.603 63.2491C388.603 63.6791 388.633 64.0491 388.693 64.3591L390.383 61.1691C390.203 60.9191 389.973 60.7891 389.703 60.7891C389.013 60.7891 388.603 61.6091 388.603 63.2491ZM389.703 65.6891C390.393 65.6891 390.803 64.8791 390.803 63.2491C390.803 62.8191 390.773 62.4391 390.713 62.1191L389.023 65.3091C389.203 65.5591 389.433 65.6891 389.703 65.6891Z" fill="black"/>
<path id="377" d="M101.999 66.9491C100.369 66.9491 99.559 66.1191 99.489 64.8291L100.929 64.7591C100.989 65.4491 101.449 65.6891 102.029 65.6891C102.659 65.6891 103.149 65.3891 103.149 64.6891C103.149 64.0091 102.699 63.6491 101.959 63.6491H101.429V62.5191H101.959C102.519 62.5191 102.929 62.2691 102.929 61.6591C102.929 61.0691 102.579 60.7791 102.019 60.7791C101.399 60.7791 101.099 61.0891 101.039 61.5791L99.599 61.5091C99.739 60.2991 100.569 59.5291 102.029 59.5291C103.489 59.5291 104.389 60.2491 104.389 61.4691C104.389 62.2391 103.989 62.7491 103.239 62.9891C104.109 63.2391 104.609 63.8891 104.609 64.7891C104.609 66.1291 103.599 66.9491 101.999 66.9491ZM106.715 66.7891C106.715 64.6391 107.615 62.6791 109.085 60.9691H105.585V59.6891H110.505V60.8991C108.875 62.7591 108.205 64.3491 108.205 66.7891H106.715ZM112.711 66.7891C112.711 64.6391 113.611 62.6791 115.081 60.9691H111.581V59.6891H116.501V60.8991C114.871 62.7591 114.201 64.3491 114.201 66.7891H112.711Z" fill="black"/>
<path id="335" d="M461.938 182.098C460.308 182.098 459.498 181.267 459.428 179.977L460.868 179.907C460.928 180.597 461.388 180.837 461.968 180.837C462.598 180.837 463.088 180.537 463.088 179.837C463.088 179.157 462.638 178.797 461.898 178.797H461.368V177.667H461.898C462.458 177.667 462.868 177.417 462.868 176.807C462.868 176.217 462.518 175.927 461.958 175.927C461.338 175.927 461.038 176.237 460.978 176.727L459.538 176.658C459.678 175.447 460.508 174.677 461.968 174.677C463.428 174.677 464.328 175.397 464.328 176.617C464.328 177.387 463.928 177.897 463.178 178.137C464.048 178.387 464.548 179.037 464.548 179.937C464.548 181.278 463.538 182.098 461.938 182.098ZM467.934 182.098C466.304 182.098 465.494 181.267 465.424 179.977L466.864 179.907C466.924 180.597 467.384 180.837 467.964 180.837C468.594 180.837 469.084 180.537 469.084 179.837C469.084 179.157 468.634 178.797 467.894 178.797H467.364V177.667H467.894C468.454 177.667 468.864 177.417 468.864 176.807C468.864 176.217 468.514 175.927 467.954 175.927C467.334 175.927 467.034 176.237 466.974 176.727L465.534 176.658C465.674 175.447 466.504 174.677 467.964 174.677C469.424 174.677 470.324 175.397 470.324 176.617C470.324 177.387 469.924 177.897 469.174 178.137C470.044 178.387 470.544 179.037 470.544 179.937C470.544 181.278 469.534 182.098 467.934 182.098ZM473.97 182.098C472.47 182.098 471.56 181.207 471.46 180.037L472.92 179.957C473.01 180.537 473.36 180.837 473.97 180.837C474.63 180.837 475.04 180.417 475.04 179.607C475.04 178.817 474.62 178.357 473.98 178.357C473.54 178.357 473.17 178.617 473.03 178.977L471.56 178.907L471.98 174.837H476.17V176.117H473.15L472.97 177.647C473.3 177.367 473.74 177.207 474.22 177.207C475.63 177.207 476.5 178.227 476.5 179.617C476.5 181.087 475.5 182.098 473.97 182.098Z" fill="black"/>
<path id="336" d="M28.5783 180.598C26.9483 180.598 26.1383 179.767 26.0683 178.477L27.5083 178.407C27.5683 179.097 28.0283 179.337 28.6083 179.337C29.2383 179.337 29.7283 179.037 29.7283 178.337C29.7283 177.657 29.2783 177.297 28.5383 177.297H28.0083V176.167H28.5383C29.0983 176.167 29.5083 175.917 29.5083 175.307C29.5083 174.717 29.1583 174.427 28.5983 174.427C27.9783 174.427 27.6783 174.737 27.6183 175.227L26.1783 175.158C26.3183 173.947 27.1483 173.177 28.6083 173.177C30.0683 173.177 30.9683 173.897 30.9683 175.117C30.9683 175.887 30.5683 176.397 29.8183 176.637C30.6883 176.887 31.1883 177.537 31.1883 178.437C31.1883 179.778 30.1783 180.598 28.5783 180.598ZM34.5744 180.598C32.9444 180.598 32.1344 179.767 32.0644 178.477L33.5044 178.407C33.5644 179.097 34.0244 179.337 34.6044 179.337C35.2344 179.337 35.7244 179.037 35.7244 178.337C35.7244 177.657 35.2744 177.297 34.5344 177.297H34.0044V176.167H34.5344C35.0944 176.167 35.5044 175.917 35.5044 175.307C35.5044 174.717 35.1544 174.427 34.5944 174.427C33.9744 174.427 33.6744 174.737 33.6144 175.227L32.1744 175.158C32.3144 173.947 33.1444 173.177 34.6044 173.177C36.0644 173.177 36.9644 173.897 36.9644 175.117C36.9644 175.887 36.5644 176.397 35.8144 176.637C36.6844 176.887 37.1844 177.537 37.1844 178.437C37.1844 179.778 36.1744 180.598 34.5744 180.598ZM40.6405 180.598C38.9105 180.598 38.0005 179.427 38.0005 177.367C38.0005 175.017 38.8105 173.177 40.9005 173.177C42.3005 173.177 42.9505 173.937 43.2105 174.957L41.7705 175.057C41.6705 174.697 41.4405 174.437 40.9005 174.437C40.1605 174.437 39.6405 174.947 39.4805 176.167C39.8205 175.867 40.3005 175.647 40.9305 175.647C42.3405 175.647 43.2405 176.597 43.2405 178.027C43.2405 179.607 42.2105 180.598 40.6405 180.598ZM40.6105 179.317C41.3605 179.317 41.7805 178.877 41.7805 178.077C41.7805 177.337 41.4005 176.857 40.6705 176.857C39.9305 176.857 39.4605 177.347 39.4605 178.087C39.4605 178.767 39.8805 179.317 40.6105 179.317Z" fill="black"/>
</g>
<path id="field" d="M54.3163 107.559L14.0615 190.762L65.992 242.692V254.249L119.295 351.32L142.741 374.767L146.686 370.822L209.136 433.272L205.849 436.559L211.395 441.665C233.659 462.164 267.941 462.099 290.127 441.516L295.47 436.559L292.183 433.272L354.633 370.822L352.223 368.412L378.079 342.994L395.84 312.231L401.745 314.727L430.231 264.329V246.799L487.422 189.608L436.366 97.1381L238.913 10.998L163.703 54.4207L154.574 49.1503L69.1732 95.3693V98.9812L54.3163 107.559Z" fill="#AB0003" fill-opacity="0.1" fill="none" stroke="#AB0003" stroke-width="1.002"/>
</g>
</svg>
