<svg width="500" height="470" viewBox="0 0 500 470" fill="none" xmlns="http://www.w3.org/2000/svg">
<g id="oakland-coliseum-1968" clip-path="url(#clip0_98_3139)">
<g id="Infield">
<path d="M339.98 327.766C339.453 325.666 322.032 258.479 250.83 258.479C180.238 258.479 162.505 324.538 161.697 327.699C161.677 327.776 161.668 327.816 161.668 327.816L236.504 402.653C235.305 404.912 234.623 407.489 234.623 410.238C234.623 419.186 241.873 426.445 250.83 426.445C259.778 426.445 267.037 419.186 267.037 410.238C267.037 407.489 266.356 404.912 265.156 402.657L260.695 397.375C257.96 395.278 254.544 394.026 250.83 394.026C247.117 394.026 243.701 395.278 240.971 397.37L197.7 354.1C201.448 350.353 201.448 344.277 197.7 340.53C197.698 340.527 197.694 340.525 197.691 340.522L244.055 294.038C247.8 297.773 253.861 297.773 257.606 294.038L303.431 339.984C303.431 339.984 303.427 339.985 303.424 339.988C299.677 343.736 300.275 350.3 304.022 354.047L260.695 397.375L265.156 402.657L339.98 327.766Z" fill="#D2D2D2"/>
<path d="M259.91 345.706C259.91 350.721 255.845 354.787 250.83 354.787C245.815 354.787 241.75 350.721 241.75 345.706C241.75 340.691 245.815 336.626 250.83 336.626C255.845 336.626 259.91 340.691 259.91 345.706Z" fill="#D2D2D2"/>
</g>
<g id="Guides">
<g id="Home">
<circle id="Ellipse 1" cx="250.827" cy="410.419" r="16.0848" fill="#D2D2D2"/>
<circle id="Ellipse 1_2" cx="250.827" cy="410.418" r="1.62919" fill="black"/>
</g>
<g id="First">
<circle id="Ellipse 1_3" cx="311.125" cy="346.532" r="10.1878" fill="#D2D2D2"/>
<circle id="Ellipse 1_4" cx="311.125" cy="346.532" r="1.0319" fill="black"/>
</g>
<g id="Third">
<circle id="Ellipse 1_5" cx="190.34" cy="346.532" r="10.1878" fill="#D2D2D2"/>
<circle id="Ellipse 1_6" cx="190.34" cy="346.532" r="1.0319" fill="black"/>
</g>
<g id="Second">
<circle id="Ellipse 1_7" cx="250.827" cy="286.67" r="10.1878" fill="#D2D2D2"/>
<circle id="Ellipse 1_8" cx="250.827" cy="286.671" r="1.0319" fill="black"/>
</g>
<g id="Mound">
<circle id="Ellipse 1_9" cx="250.827" cy="345.929" r="9.08365" fill="#D2D2D2"/>
<circle id="Ellipse 1_10" cx="250.827" cy="345.93" r="0.920062" fill="black"/>
</g>
</g>
<path id="Foul Lines" d="M484.528 176.963L250.976 410.515L22.3391 181.879" fill="none" stroke="black" stroke-width="1.002"/>
<g id="Measurements">
<path id="410" d="M246.203 6.69922V5.27922H243.033V4.10922L246.013 -0.400782H247.633V4.03922H248.473V5.27922H247.633V6.69922H246.203ZM244.373 4.03922H246.203V1.38922L244.373 4.03922ZM249.229 6.69922V5.41922H251.269V2.03922H249.529V0.859218H250.309C251.109 0.859218 251.449 0.519218 251.449 -0.400782H252.689V5.41922H254.269V6.69922H249.229ZM257.745 6.85922C256.145 6.85922 255.185 5.44922 255.185 3.15922C255.185 0.859218 256.145 -0.560781 257.745 -0.560781C259.345 -0.560781 260.305 0.859218 260.305 3.15922C260.305 5.44922 259.345 6.85922 257.745 6.85922ZM256.645 3.15922C256.645 3.58922 256.675 3.95922 256.735 4.26922L258.425 1.07922C258.245 0.829219 258.015 0.699219 257.745 0.699219C257.055 0.699219 256.645 1.51922 256.645 3.15922ZM257.745 5.59922C258.435 5.59922 258.845 4.78922 258.845 3.15922C258.845 2.72922 258.815 2.34922 258.755 2.02922L257.065 5.21922C257.245 5.46922 257.475 5.59922 257.745 5.59922Z" fill="black"/>
<path id="378" d="M76.0746 69.3514C74.4446 69.3514 73.6346 68.5214 73.5646 67.2314L75.0046 67.1614C75.0646 67.8514 75.5246 68.0914 76.1046 68.0914C76.7346 68.0914 77.2246 67.7914 77.2246 67.0914C77.2246 66.4114 76.7746 66.0514 76.0346 66.0514H75.5046V64.9214H76.0346C76.5946 64.9214 77.0046 64.6714 77.0046 64.0614C77.0046 63.4714 76.6546 63.1814 76.0946 63.1814C75.4746 63.1814 75.1746 63.4914 75.1146 63.9814L73.6746 63.9114C73.8146 62.7014 74.6446 61.9314 76.1046 61.9314C77.5646 61.9314 78.4646 62.6514 78.4646 63.8714C78.4646 64.6414 78.0646 65.1514 77.3146 65.3914C78.1846 65.6414 78.6846 66.2914 78.6846 67.1914C78.6846 68.5314 77.6746 69.3514 76.0746 69.3514ZM80.7907 69.1914C80.7907 67.0414 81.6907 65.0814 83.1607 63.3714H79.6607V62.0914H84.5807V63.3014C82.9507 65.1614 82.2807 66.7514 82.2807 69.1914H80.7907ZM88.1168 69.3514C86.5468 69.3514 85.4968 68.6314 85.4968 67.2514C85.4968 66.3214 86.0368 65.6614 86.9068 65.3814C86.2368 65.1214 85.7868 64.6314 85.7868 63.8914C85.7868 62.7514 86.7168 61.9314 88.1168 61.9314C89.5168 61.9314 90.4468 62.7514 90.4468 63.8914C90.4468 64.6314 89.9968 65.1214 89.3168 65.3814C90.1968 65.6614 90.7368 66.3214 90.7368 67.2514C90.7368 68.6314 89.6868 69.3514 88.1168 69.3514ZM88.1168 64.8114C88.6268 64.8114 88.9768 64.5414 88.9768 63.9814C88.9768 63.4814 88.6368 63.1914 88.1168 63.1914C87.5968 63.1914 87.2568 63.4814 87.2568 63.9814C87.2568 64.5414 87.6068 64.8114 88.1168 64.8114ZM88.1168 68.0914C88.7568 68.0914 89.2768 67.8114 89.2768 67.1114C89.2768 66.4414 88.8468 66.0214 88.1168 66.0214C87.3868 66.0214 86.9568 66.4414 86.9568 67.1114C86.9568 67.8114 87.4768 68.0914 88.1168 68.0914Z" fill="black"/>
<path id="378_2" d="M412.857 69.3514C411.227 69.3514 410.417 68.5214 410.347 67.2314L411.787 67.1614C411.847 67.8514 412.307 68.0914 412.887 68.0914C413.517 68.0914 414.007 67.7914 414.007 67.0914C414.007 66.4114 413.557 66.0514 412.817 66.0514H412.287V64.9214H412.817C413.377 64.9214 413.787 64.6714 413.787 64.0614C413.787 63.4714 413.437 63.1814 412.877 63.1814C412.257 63.1814 411.957 63.4914 411.897 63.9814L410.457 63.9114C410.597 62.7014 411.427 61.9314 412.887 61.9314C414.347 61.9314 415.247 62.6514 415.247 63.8714C415.247 64.6414 414.847 65.1514 414.097 65.3914C414.967 65.6414 415.467 66.2914 415.467 67.1914C415.467 68.5314 414.457 69.3514 412.857 69.3514ZM417.573 69.1914C417.573 67.0414 418.473 65.0814 419.943 63.3714H416.443V62.0914H421.363V63.3014C419.733 65.1614 419.063 66.7514 419.063 69.1914H417.573ZM424.899 69.3514C423.329 69.3514 422.279 68.6314 422.279 67.2514C422.279 66.3214 422.819 65.6614 423.689 65.3814C423.019 65.1214 422.569 64.6314 422.569 63.8914C422.569 62.7514 423.499 61.9314 424.899 61.9314C426.299 61.9314 427.229 62.7514 427.229 63.8914C427.229 64.6314 426.779 65.1214 426.099 65.3814C426.979 65.6614 427.519 66.3214 427.519 67.2514C427.519 68.6314 426.469 69.3514 424.899 69.3514ZM424.899 64.8114C425.409 64.8114 425.759 64.5414 425.759 63.9814C425.759 63.4814 425.419 63.1914 424.899 63.1914C424.379 63.1914 424.039 63.4814 424.039 63.9814C424.039 64.5414 424.389 64.8114 424.899 64.8114ZM424.899 68.0914C425.539 68.0914 426.059 67.8114 426.059 67.1114C426.059 66.4414 425.629 66.0214 424.899 66.0214C424.169 66.0214 423.739 66.4414 423.739 67.1114C423.739 67.8114 424.259 68.0914 424.899 68.0914Z" fill="black"/>
<path id="330" d="M458.938 183.598C457.308 183.598 456.498 182.767 456.428 181.477L457.868 181.407C457.928 182.097 458.388 182.337 458.968 182.337C459.598 182.337 460.088 182.037 460.088 181.337C460.088 180.657 459.638 180.297 458.898 180.297H458.368V179.167H458.898C459.458 179.167 459.868 178.917 459.868 178.307C459.868 177.717 459.518 177.427 458.958 177.427C458.338 177.427 458.038 177.737 457.978 178.227L456.538 178.158C456.678 176.947 457.508 176.177 458.968 176.177C460.428 176.177 461.328 176.897 461.328 178.117C461.328 178.887 460.928 179.397 460.178 179.637C461.048 179.887 461.548 180.537 461.548 181.437C461.548 182.778 460.538 183.598 458.938 183.598ZM464.934 183.598C463.304 183.598 462.494 182.767 462.424 181.477L463.864 181.407C463.924 182.097 464.384 182.337 464.964 182.337C465.594 182.337 466.084 182.037 466.084 181.337C466.084 180.657 465.634 180.297 464.894 180.297H464.364V179.167H464.894C465.454 179.167 465.864 178.917 465.864 178.307C465.864 177.717 465.514 177.427 464.954 177.427C464.334 177.427 464.034 177.737 463.974 178.227L462.534 178.158C462.674 176.947 463.504 176.177 464.964 176.177C466.424 176.177 467.324 176.897 467.324 178.117C467.324 178.887 466.924 179.397 466.174 179.637C467.044 179.887 467.544 180.537 467.544 181.437C467.544 182.778 466.534 183.598 464.934 183.598ZM470.98 183.598C469.38 183.598 468.42 182.188 468.42 179.897C468.42 177.597 469.38 176.177 470.98 176.177C472.58 176.177 473.54 177.597 473.54 179.897C473.54 182.188 472.58 183.598 470.98 183.598ZM469.88 179.897C469.88 180.327 469.91 180.697 469.97 181.007L471.66 177.817C471.48 177.567 471.25 177.437 470.98 177.437C470.29 177.437 469.88 178.257 469.88 179.897ZM470.98 182.337C471.67 182.337 472.08 181.527 472.08 179.897C472.08 179.467 472.05 179.087 471.99 178.767L470.3 181.957C470.48 182.207 470.71 182.337 470.98 182.337Z" fill="black"/>
<path id="330_2" d="M28.5783 182.598C26.9483 182.598 26.1383 181.767 26.0683 180.477L27.5083 180.407C27.5683 181.097 28.0283 181.337 28.6083 181.337C29.2383 181.337 29.7283 181.037 29.7283 180.337C29.7283 179.657 29.2783 179.297 28.5383 179.297H28.0083V178.167H28.5383C29.0983 178.167 29.5083 177.917 29.5083 177.307C29.5083 176.717 29.1583 176.427 28.5983 176.427C27.9783 176.427 27.6783 176.737 27.6183 177.227L26.1783 177.158C26.3183 175.947 27.1483 175.177 28.6083 175.177C30.0683 175.177 30.9683 175.897 30.9683 177.117C30.9683 177.887 30.5683 178.397 29.8183 178.637C30.6883 178.887 31.1883 179.537 31.1883 180.437C31.1883 181.778 30.1783 182.598 28.5783 182.598ZM34.5744 182.598C32.9444 182.598 32.1344 181.767 32.0644 180.477L33.5044 180.407C33.5644 181.097 34.0244 181.337 34.6044 181.337C35.2344 181.337 35.7244 181.037 35.7244 180.337C35.7244 179.657 35.2744 179.297 34.5344 179.297H34.0044V178.167H34.5344C35.0944 178.167 35.5044 177.917 35.5044 177.307C35.5044 176.717 35.1544 176.427 34.5944 176.427C33.9744 176.427 33.6744 176.737 33.6144 177.227L32.1744 177.158C32.3144 175.947 33.1444 175.177 34.6044 175.177C36.0644 175.177 36.9644 175.897 36.9644 177.117C36.9644 177.887 36.5644 178.397 35.8144 178.637C36.6844 178.887 37.1844 179.537 37.1844 180.437C37.1844 181.778 36.1744 182.598 34.5744 182.598ZM40.6205 182.598C39.0205 182.598 38.0605 181.188 38.0605 178.897C38.0605 176.597 39.0205 175.177 40.6205 175.177C42.2205 175.177 43.1805 176.597 43.1805 178.897C43.1805 181.188 42.2205 182.598 40.6205 182.598ZM39.5205 178.897C39.5205 179.327 39.5505 179.697 39.6105 180.007L41.3005 176.817C41.1205 176.567 40.8905 176.437 40.6205 176.437C39.9305 176.437 39.5205 177.257 39.5205 178.897ZM40.6205 181.337C41.3105 181.337 41.7205 180.527 41.7205 178.897C41.7205 178.467 41.6905 178.087 41.6305 177.767L39.9405 180.957C40.1205 181.207 40.3505 181.337 40.6205 181.337Z" fill="black"/>
</g>
<path id="field" d="M18.7018 196.48L49.2354 237.31C40.0043 320.036 100.758 415.932 193.382 440.75L222.496 482.645H279.169L308.282 440.75C400.906 415.932 461.66 320.036 452.429 237.31L482.963 196.48C461.305 91.0339 362.318 8.66406 250.834 8.66406H250.83C139.347 8.66406 40.3594 91.0339 18.7018 196.48Z" fill="#003831" fill-opacity="0.1" fill="none" stroke="#003831" stroke-width="1.002"/>
</g>
<defs>
<clipPath id="clip0_98_3139">
<rect width="500" height="469.94" fill="white"/>
</clipPath>
</defs>
</svg>
