<svg width="500" height="470" viewBox="0 0 500 470" fill="none" xmlns="http://www.w3.org/2000/svg">
<g id="oakland-coliseum-1969" clip-path="url(#clip0_98_3166)">
<g id="Infield">
<path d="M339.98 327.766C339.453 325.666 322.032 258.479 250.83 258.479C180.238 258.479 162.505 324.538 161.697 327.699C161.677 327.776 161.668 327.816 161.668 327.816L236.504 402.653C235.305 404.912 234.623 407.489 234.623 410.238C234.623 419.186 241.873 426.445 250.83 426.445C259.778 426.445 267.037 419.186 267.037 410.238C267.037 407.489 266.356 404.912 265.156 402.657L260.695 397.375C257.96 395.278 254.544 394.026 250.83 394.026C247.117 394.026 243.701 395.278 240.971 397.37L197.7 354.1C201.448 350.353 201.448 344.277 197.7 340.53C197.698 340.527 197.694 340.525 197.691 340.522L244.055 294.038C247.8 297.773 253.861 297.773 257.606 294.038L303.431 339.984C303.431 339.984 303.427 339.985 303.424 339.988C299.677 343.736 300.275 350.3 304.022 354.047L260.695 397.375L265.156 402.657L339.98 327.766Z" fill="#D2D2D2"/>
<path d="M259.91 345.706C259.91 350.721 255.845 354.787 250.83 354.787C245.815 354.787 241.75 350.721 241.75 345.706C241.75 340.691 245.815 336.626 250.83 336.626C255.845 336.626 259.91 340.691 259.91 345.706Z" fill="#D2D2D2"/>
</g>
<g id="Guides">
<g id="Home">
<circle id="Ellipse 1" cx="250.827" cy="410.419" r="16.0848" fill="#D2D2D2"/>
<circle id="Ellipse 1_2" cx="250.827" cy="410.418" r="1.62919" fill="black"/>
</g>
<g id="First">
<circle id="Ellipse 1_3" cx="311.125" cy="346.532" r="10.1878" fill="#D2D2D2"/>
<circle id="Ellipse 1_4" cx="311.125" cy="346.532" r="1.0319" fill="black"/>
</g>
<g id="Third">
<circle id="Ellipse 1_5" cx="190.34" cy="346.532" r="10.1878" fill="#D2D2D2"/>
<circle id="Ellipse 1_6" cx="190.34" cy="346.532" r="1.0319" fill="black"/>
</g>
<g id="Second">
<circle id="Ellipse 1_7" cx="250.827" cy="286.67" r="10.1878" fill="#D2D2D2"/>
<circle id="Ellipse 1_8" cx="250.827" cy="286.671" r="1.0319" fill="black"/>
</g>
<g id="Mound">
<circle id="Ellipse 1_9" cx="250.827" cy="345.929" r="9.08365" fill="#D2D2D2"/>
<circle id="Ellipse 1_10" cx="250.827" cy="345.93" r="0.920062" fill="black"/>
</g>
</g>
<path id="Foul Lines" d="M484.528 176.963L250.976 410.515L22.3391 181.879" fill="none" stroke="black" stroke-width="1.002"/>
<g id="Measurements">
<path id="400" d="M246.203 14.041V12.621H243.033V11.451L246.013 6.94102H247.633V11.381H248.473V12.621H247.633V14.041H246.203ZM244.373 11.381H246.203V8.73102L244.373 11.381ZM251.749 14.201C250.149 14.201 249.189 12.791 249.189 10.501C249.189 8.20102 250.149 6.78102 251.749 6.78102C253.349 6.78102 254.309 8.20102 254.309 10.501C254.309 12.791 253.349 14.201 251.749 14.201ZM250.649 10.501C250.649 10.931 250.679 11.301 250.739 11.611L252.429 8.42102C252.249 8.17102 252.019 8.04102 251.749 8.04102C251.059 8.04102 250.649 8.86102 250.649 10.501ZM251.749 12.941C252.439 12.941 252.849 12.131 252.849 10.501C252.849 10.071 252.819 9.69102 252.759 9.37102L251.069 12.561C251.249 12.811 251.479 12.941 251.749 12.941ZM257.745 14.201C256.145 14.201 255.185 12.791 255.185 10.501C255.185 8.20102 256.145 6.78102 257.745 6.78102C259.345 6.78102 260.305 8.20102 260.305 10.501C260.305 12.791 259.345 14.201 257.745 14.201ZM256.645 10.501C256.645 10.931 256.675 11.301 256.735 11.611L258.425 8.42102C258.245 8.17102 258.015 8.04102 257.745 8.04102C257.055 8.04102 256.645 8.86102 256.645 10.501ZM257.745 12.941C258.435 12.941 258.845 12.131 258.845 10.501C258.845 10.071 258.815 9.69102 258.755 9.37102L257.065 12.561C257.245 12.811 257.475 12.941 257.745 12.941Z" fill="black"/>
<path id="375" d="M112.839 51.0702C111.209 51.0702 110.399 50.2402 110.329 48.9502L111.769 48.8802C111.829 49.5702 112.289 49.8102 112.869 49.8102C113.499 49.8102 113.989 49.5102 113.989 48.8102C113.989 48.1302 113.539 47.7702 112.799 47.7702H112.269V46.6402H112.799C113.359 46.6402 113.769 46.3902 113.769 45.7802C113.769 45.1902 113.419 44.9002 112.859 44.9002C112.239 44.9002 111.939 45.2102 111.879 45.7002L110.439 45.6302C110.579 44.4202 111.409 43.6502 112.869 43.6502C114.329 43.6502 115.229 44.3702 115.229 45.5902C115.229 46.3602 114.829 46.8702 114.079 47.1102C114.949 47.3602 115.449 48.0102 115.449 48.9102C115.449 50.2502 114.439 51.0702 112.839 51.0702ZM117.555 50.9102C117.555 48.7602 118.455 46.8002 119.925 45.0902H116.425V43.8102H121.345V45.0202C119.715 46.8802 119.045 48.4702 119.045 50.9102H117.555ZM124.871 51.0702C123.371 51.0702 122.461 50.1802 122.361 49.0102L123.821 48.9302C123.911 49.5102 124.261 49.8102 124.871 49.8102C125.531 49.8102 125.941 49.3902 125.941 48.5802C125.941 47.7902 125.521 47.3302 124.881 47.3302C124.441 47.3302 124.071 47.5902 123.931 47.9502L122.461 47.8802L122.881 43.8102H127.071V45.0902H124.051L123.871 46.6202C124.201 46.3402 124.641 46.1802 125.121 46.1802C126.531 46.1802 127.401 47.2002 127.401 48.5902C127.401 50.0602 126.401 51.0702 124.871 51.0702Z" fill="black"/>
<path id="375_2" d="M376.215 51.0702C374.585 51.0702 373.775 50.2402 373.705 48.9502L375.145 48.8802C375.205 49.5702 375.665 49.8102 376.245 49.8102C376.875 49.8102 377.365 49.5102 377.365 48.8102C377.365 48.1302 376.915 47.7702 376.175 47.7702H375.645V46.6402H376.175C376.735 46.6402 377.145 46.3902 377.145 45.7802C377.145 45.1902 376.795 44.9002 376.235 44.9002C375.615 44.9002 375.315 45.2102 375.255 45.7002L373.815 45.6302C373.955 44.4202 374.785 43.6502 376.245 43.6502C377.705 43.6502 378.605 44.3702 378.605 45.5902C378.605 46.3602 378.205 46.8702 377.455 47.1102C378.325 47.3602 378.825 48.0102 378.825 48.9102C378.825 50.2502 377.815 51.0702 376.215 51.0702ZM380.931 50.9102C380.931 48.7602 381.831 46.8002 383.301 45.0902H379.801V43.8102H384.721V45.0202C383.091 46.8802 382.421 48.4702 382.421 50.9102H380.931ZM388.247 51.0702C386.747 51.0702 385.837 50.1802 385.737 49.0102L387.197 48.9302C387.287 49.5102 387.637 49.8102 388.247 49.8102C388.907 49.8102 389.317 49.3902 389.317 48.5802C389.317 47.7902 388.897 47.3302 388.257 47.3302C387.817 47.3302 387.447 47.5902 387.307 47.9502L385.837 47.8802L386.257 43.8102H390.447V45.0902H387.427L387.247 46.6202C387.577 46.3402 388.017 46.1802 388.497 46.1802C389.907 46.1802 390.777 47.2002 390.777 48.5902C390.777 50.0602 389.777 51.0702 388.247 51.0702Z" fill="black"/>
<path id="330" d="M458.938 183.598C457.308 183.598 456.498 182.767 456.428 181.477L457.868 181.407C457.928 182.097 458.388 182.337 458.968 182.337C459.598 182.337 460.088 182.037 460.088 181.337C460.088 180.657 459.638 180.297 458.898 180.297H458.368V179.167H458.898C459.458 179.167 459.868 178.917 459.868 178.307C459.868 177.717 459.518 177.427 458.958 177.427C458.338 177.427 458.038 177.737 457.978 178.227L456.538 178.158C456.678 176.947 457.508 176.177 458.968 176.177C460.428 176.177 461.328 176.897 461.328 178.117C461.328 178.887 460.928 179.397 460.178 179.637C461.048 179.887 461.548 180.537 461.548 181.437C461.548 182.778 460.538 183.598 458.938 183.598ZM464.934 183.598C463.304 183.598 462.494 182.767 462.424 181.477L463.864 181.407C463.924 182.097 464.384 182.337 464.964 182.337C465.594 182.337 466.084 182.037 466.084 181.337C466.084 180.657 465.634 180.297 464.894 180.297H464.364V179.167H464.894C465.454 179.167 465.864 178.917 465.864 178.307C465.864 177.717 465.514 177.427 464.954 177.427C464.334 177.427 464.034 177.737 463.974 178.227L462.534 178.158C462.674 176.947 463.504 176.177 464.964 176.177C466.424 176.177 467.324 176.897 467.324 178.117C467.324 178.887 466.924 179.397 466.174 179.637C467.044 179.887 467.544 180.537 467.544 181.437C467.544 182.778 466.534 183.598 464.934 183.598ZM470.98 183.598C469.38 183.598 468.42 182.188 468.42 179.897C468.42 177.597 469.38 176.177 470.98 176.177C472.58 176.177 473.54 177.597 473.54 179.897C473.54 182.188 472.58 183.598 470.98 183.598ZM469.88 179.897C469.88 180.327 469.91 180.697 469.97 181.007L471.66 177.817C471.48 177.567 471.25 177.437 470.98 177.437C470.29 177.437 469.88 178.257 469.88 179.897ZM470.98 182.337C471.67 182.337 472.08 181.527 472.08 179.897C472.08 179.467 472.05 179.087 471.99 178.767L470.3 181.957C470.48 182.207 470.71 182.337 470.98 182.337Z" fill="black"/>
<path id="330_2" d="M28.5783 182.598C26.9483 182.598 26.1383 181.767 26.0683 180.477L27.5083 180.407C27.5683 181.097 28.0283 181.337 28.6083 181.337C29.2383 181.337 29.7283 181.037 29.7283 180.337C29.7283 179.657 29.2783 179.297 28.5383 179.297H28.0083V178.167H28.5383C29.0983 178.167 29.5083 177.917 29.5083 177.307C29.5083 176.717 29.1583 176.427 28.5983 176.427C27.9783 176.427 27.6783 176.737 27.6183 177.227L26.1783 177.158C26.3183 175.947 27.1483 175.177 28.6083 175.177C30.0683 175.177 30.9683 175.897 30.9683 177.117C30.9683 177.887 30.5683 178.397 29.8183 178.637C30.6883 178.887 31.1883 179.537 31.1883 180.437C31.1883 181.778 30.1783 182.598 28.5783 182.598ZM34.5744 182.598C32.9444 182.598 32.1344 181.767 32.0644 180.477L33.5044 180.407C33.5644 181.097 34.0244 181.337 34.6044 181.337C35.2344 181.337 35.7244 181.037 35.7244 180.337C35.7244 179.657 35.2744 179.297 34.5344 179.297H34.0044V178.167H34.5344C35.0944 178.167 35.5044 177.917 35.5044 177.307C35.5044 176.717 35.1544 176.427 34.5944 176.427C33.9744 176.427 33.6744 176.737 33.6144 177.227L32.1744 177.158C32.3144 175.947 33.1444 175.177 34.6044 175.177C36.0644 175.177 36.9644 175.897 36.9644 177.117C36.9644 177.887 36.5644 178.397 35.8144 178.637C36.6844 178.887 37.1844 179.537 37.1844 180.437C37.1844 181.778 36.1744 182.598 34.5744 182.598ZM40.6205 182.598C39.0205 182.598 38.0605 181.188 38.0605 178.897C38.0605 176.597 39.0205 175.177 40.6205 175.177C42.2205 175.177 43.1805 176.597 43.1805 178.897C43.1805 181.188 42.2205 182.598 40.6205 182.598ZM39.5205 178.897C39.5205 179.327 39.5505 179.697 39.6105 180.007L41.3005 176.817C41.1205 176.567 40.8905 176.437 40.6205 176.437C39.9305 176.437 39.5205 177.257 39.5205 178.897ZM40.6205 181.337C41.3105 181.337 41.7205 180.527 41.7205 178.897C41.7205 178.467 41.6905 178.087 41.6305 177.767L39.9405 180.957C40.1205 181.207 40.3505 181.337 40.6205 181.337Z" fill="black"/>
</g>
<path id="field" d="M18.7018 196.481L49.2354 237.311C40.0043 320.037 100.758 415.932 193.382 440.751L222.496 482.646H279.169L308.282 440.751C400.906 415.932 461.66 320.037 452.429 237.311L482.963 196.481C456.934 99.8146 362.318 18.7814 250.834 18.7814L250.83 18.7812C139.347 18.7812 45.4808 98.8723 18.7018 196.481Z" fill="#003831" fill-opacity="0.1" fill="none" stroke="#003831" stroke-width="1.002"/>
</g>
<defs>
<clipPath id="clip0_98_3166">
<rect width="500" height="469.94" fill="white"/>
</clipPath>
</defs>
</svg>
