<svg width="500" height="470" viewBox="0 0 500 470" fill="none" xmlns="http://www.w3.org/2000/svg">
<g id="oakland-coliseum-1996">
<g id="Infield">
<path d="M339.98 327.766C339.453 325.666 322.032 258.479 250.83 258.479C180.238 258.479 162.505 324.538 161.697 327.699C161.677 327.776 161.668 327.816 161.668 327.816L236.504 402.653C235.305 404.912 234.623 407.489 234.623 410.238C234.623 419.186 241.873 426.445 250.83 426.445C259.778 426.445 267.037 419.186 267.037 410.238C267.037 407.489 266.356 404.912 265.157 402.657L260.695 397.375C257.96 395.278 254.544 394.026 250.83 394.026C247.117 394.026 243.701 395.278 240.971 397.37L197.7 354.1C201.448 350.353 201.448 344.277 197.7 340.53C197.698 340.527 197.694 340.525 197.691 340.522L244.055 294.038C247.8 297.773 253.861 297.773 257.606 294.038L303.431 339.984C303.431 339.984 303.427 339.985 303.424 339.988C299.677 343.736 300.275 350.3 304.022 354.047L260.695 397.375L265.157 402.657L339.98 327.766Z" fill="#D2D2D2"/>
<path d="M259.91 345.706C259.91 350.721 255.845 354.787 250.83 354.787C245.815 354.787 241.75 350.721 241.75 345.706C241.75 340.691 245.815 336.626 250.83 336.626C255.845 336.626 259.91 340.691 259.91 345.706Z" fill="#D2D2D2"/>
</g>
<g id="Guides">
<g id="Home">
<circle id="Ellipse 1" cx="250.827" cy="410.419" r="16.0848" fill="#D2D2D2"/>
<circle id="Ellipse 1_2" cx="250.827" cy="410.418" r="1.62919" fill="black"/>
</g>
<g id="First">
<circle id="Ellipse 1_3" cx="311.125" cy="346.532" r="10.1878" fill="#D2D2D2"/>
<circle id="Ellipse 1_4" cx="311.125" cy="346.532" r="1.0319" fill="black"/>
</g>
<g id="Third">
<circle id="Ellipse 1_5" cx="190.34" cy="346.532" r="10.1878" fill="#D2D2D2"/>
<circle id="Ellipse 1_6" cx="190.34" cy="346.532" r="1.0319" fill="black"/>
</g>
<g id="Second">
<circle id="Ellipse 1_7" cx="250.827" cy="286.67" r="10.1878" fill="#D2D2D2"/>
<circle id="Ellipse 1_8" cx="250.827" cy="286.671" r="1.0319" fill="black"/>
</g>
<g id="Mound">
<circle id="Ellipse 1_9" cx="250.827" cy="345.929" r="9.08365" fill="#D2D2D2"/>
<circle id="Ellipse 1_10" cx="250.827" cy="345.93" r="0.920062" fill="black"/>
</g>
</g>
<path id="Foul Lines" d="M477.987 183.504L250.976 410.516L23.7565 183.297" fill="none" stroke="black" stroke-width="1.002"/>
<g id="Measurements">
<path id="400" d="M246.203 14.041V12.621H243.033V11.451L246.013 6.94102H247.633V11.381H248.473V12.621H247.633V14.041H246.203ZM244.373 11.381H246.203V8.73102L244.373 11.381ZM251.749 14.201C250.149 14.201 249.189 12.791 249.189 10.501C249.189 8.20102 250.149 6.78102 251.749 6.78102C253.349 6.78102 254.309 8.20102 254.309 10.501C254.309 12.791 253.349 14.201 251.749 14.201ZM250.649 10.501C250.649 10.931 250.679 11.301 250.739 11.611L252.429 8.42102C252.249 8.17102 252.019 8.04102 251.749 8.04102C251.059 8.04102 250.649 8.86102 250.649 10.501ZM251.749 12.941C252.439 12.941 252.849 12.131 252.849 10.501C252.849 10.071 252.819 9.69102 252.759 9.37102L251.069 12.561C251.249 12.811 251.479 12.941 251.749 12.941ZM257.745 14.201C256.145 14.201 255.185 12.791 255.185 10.501C255.185 8.20102 256.145 6.78102 257.745 6.78102C259.345 6.78102 260.305 8.20102 260.305 10.501C260.305 12.791 259.345 14.201 257.745 14.201ZM256.645 10.501C256.645 10.931 256.675 11.301 256.735 11.611L258.425 8.42102C258.245 8.17102 258.015 8.04102 257.745 8.04102C257.055 8.04102 256.645 8.86102 256.645 10.501ZM257.745 12.941C258.435 12.941 258.845 12.131 258.845 10.501C258.845 10.071 258.815 9.69102 258.755 9.37102L257.065 12.561C257.245 12.811 257.475 12.941 257.745 12.941Z" fill="black"/>
<path id="362" d="M99.8769 76.3299C98.2469 76.3299 97.4369 75.4999 97.3669 74.2099L98.8069 74.1399C98.8669 74.8299 99.3269 75.0699 99.9069 75.0699C100.537 75.0699 101.027 74.7699 101.027 74.0699C101.027 73.3899 100.577 73.0299 99.8369 73.0299H99.3069V71.8999H99.8369C100.397 71.8999 100.807 71.6499 100.807 71.0399C100.807 70.4499 100.457 70.1599 99.8969 70.1599C99.2769 70.1599 98.9769 70.4699 98.9169 70.9599L97.4769 70.8899C97.6169 69.6799 98.4469 68.9099 99.9069 68.9099C101.367 68.9099 102.267 69.6299 102.267 70.8499C102.267 71.6199 101.867 72.1299 101.117 72.3699C101.987 72.6199 102.487 73.2699 102.487 74.1699C102.487 75.5099 101.477 76.3299 99.8769 76.3299ZM105.943 76.3299C104.213 76.3299 103.303 75.1599 103.303 73.0999C103.303 70.7499 104.113 68.9099 106.203 68.9099C107.603 68.9099 108.253 69.6699 108.513 70.6899L107.073 70.7899C106.973 70.4299 106.743 70.1699 106.203 70.1699C105.463 70.1699 104.943 70.6799 104.783 71.8999C105.123 71.5999 105.603 71.3799 106.233 71.3799C107.643 71.3799 108.543 72.3299 108.543 73.7599C108.543 75.3399 107.513 76.3299 105.943 76.3299ZM105.913 75.0499C106.663 75.0499 107.083 74.6099 107.083 73.8099C107.083 73.0699 106.703 72.5899 105.973 72.5899C105.233 72.5899 104.763 73.0799 104.763 73.8199C104.763 74.4999 105.183 75.0499 105.913 75.0499ZM109.359 76.1699C109.359 74.4399 109.939 73.4299 111.919 72.4099C112.649 72.0299 113.009 71.7499 113.009 71.0999C113.009 70.5299 112.679 70.1699 112.049 70.1699C111.329 70.1699 110.979 70.5899 110.859 71.3499L109.389 71.2599C109.529 69.8099 110.439 68.9099 112.069 68.9099C113.659 68.9099 114.479 69.7599 114.479 71.0199C114.479 72.1599 113.989 72.7199 112.589 73.4799C111.439 74.0999 111.029 74.5299 110.989 74.8899H114.479V76.1699H109.359Z" fill="black"/>
<path id="362_2" d="M385.521 76.3299C383.891 76.3299 383.081 75.4999 383.011 74.2099L384.451 74.1399C384.511 74.8299 384.971 75.0699 385.551 75.0699C386.181 75.0699 386.671 74.7699 386.671 74.0699C386.671 73.3899 386.221 73.0299 385.481 73.0299H384.951V71.8999H385.481C386.041 71.8999 386.451 71.6499 386.451 71.0399C386.451 70.4499 386.101 70.1599 385.541 70.1599C384.921 70.1599 384.621 70.4699 384.561 70.9599L383.121 70.8899C383.261 69.6799 384.091 68.9099 385.551 68.9099C387.011 68.9099 387.911 69.6299 387.911 70.8499C387.911 71.6199 387.511 72.1299 386.761 72.3699C387.631 72.6199 388.131 73.2699 388.131 74.1699C388.131 75.5099 387.121 76.3299 385.521 76.3299ZM391.587 76.3299C389.857 76.3299 388.947 75.1599 388.947 73.0999C388.947 70.7499 389.757 68.9099 391.847 68.9099C393.247 68.9099 393.897 69.6699 394.157 70.6899L392.717 70.7899C392.617 70.4299 392.387 70.1699 391.847 70.1699C391.107 70.1699 390.587 70.6799 390.427 71.8999C390.767 71.5999 391.247 71.3799 391.877 71.3799C393.287 71.3799 394.187 72.3299 394.187 73.7599C394.187 75.3399 393.157 76.3299 391.587 76.3299ZM391.557 75.0499C392.307 75.0499 392.727 74.6099 392.727 73.8099C392.727 73.0699 392.347 72.5899 391.617 72.5899C390.877 72.5899 390.407 73.0799 390.407 73.8199C390.407 74.4999 390.827 75.0499 391.557 75.0499ZM395.003 76.1699C395.003 74.4399 395.583 73.4299 397.563 72.4099C398.293 72.0299 398.653 71.7499 398.653 71.0999C398.653 70.5299 398.323 70.1699 397.693 70.1699C396.973 70.1699 396.623 70.5899 396.503 71.3499L395.033 71.2599C395.173 69.8099 396.083 68.9099 397.713 68.9099C399.303 68.9099 400.123 69.7599 400.123 71.0199C400.123 72.1599 399.633 72.7199 398.233 73.4799C397.083 74.0999 396.673 74.5299 396.633 74.8899H400.123V76.1699H395.003Z" fill="black"/>
<path id="330" d="M458.938 184.115C457.308 184.115 456.498 183.285 456.428 181.995L457.868 181.925C457.928 182.615 458.388 182.855 458.968 182.855C459.598 182.855 460.088 182.555 460.088 181.855C460.088 181.175 459.638 180.815 458.898 180.815H458.368V179.685H458.898C459.458 179.685 459.868 179.435 459.868 178.825C459.868 178.235 459.518 177.945 458.958 177.945C458.338 177.945 458.038 178.255 457.978 178.745L456.538 178.675C456.678 177.465 457.508 176.695 458.968 176.695C460.428 176.695 461.328 177.415 461.328 178.635C461.328 179.405 460.928 179.915 460.178 180.155C461.048 180.405 461.548 181.055 461.548 181.955C461.548 183.295 460.538 184.115 458.938 184.115ZM464.934 184.115C463.304 184.115 462.494 183.285 462.424 181.995L463.864 181.925C463.924 182.615 464.384 182.855 464.964 182.855C465.594 182.855 466.084 182.555 466.084 181.855C466.084 181.175 465.634 180.815 464.894 180.815H464.364V179.685H464.894C465.454 179.685 465.864 179.435 465.864 178.825C465.864 178.235 465.514 177.945 464.954 177.945C464.334 177.945 464.034 178.255 463.974 178.745L462.534 178.675C462.674 177.465 463.504 176.695 464.964 176.695C466.424 176.695 467.324 177.415 467.324 178.635C467.324 179.405 466.924 179.915 466.174 180.155C467.044 180.405 467.544 181.055 467.544 181.955C467.544 183.295 466.534 184.115 464.934 184.115ZM470.98 184.115C469.38 184.115 468.42 182.705 468.42 180.415C468.42 178.115 469.38 176.695 470.98 176.695C472.58 176.695 473.54 178.115 473.54 180.415C473.54 182.705 472.58 184.115 470.98 184.115ZM469.88 180.415C469.88 180.845 469.91 181.215 469.97 181.525L471.66 178.335C471.48 178.085 471.25 177.955 470.98 177.955C470.29 177.955 469.88 178.775 469.88 180.415ZM470.98 182.855C471.67 182.855 472.08 182.045 472.08 180.415C472.08 179.985 472.05 179.605 471.99 179.285L470.3 182.475C470.48 182.725 470.71 182.855 470.98 182.855Z" fill="black"/>
<path id="330_2" d="M31.8015 184.115C30.1715 184.115 29.3615 183.285 29.2915 181.995L30.7315 181.925C30.7915 182.615 31.2515 182.855 31.8315 182.855C32.4615 182.855 32.9515 182.555 32.9515 181.855C32.9515 181.175 32.5015 180.815 31.7615 180.815H31.2315V179.685H31.7615C32.3215 179.685 32.7315 179.435 32.7315 178.825C32.7315 178.235 32.3815 177.945 31.8215 177.945C31.2015 177.945 30.9015 178.255 30.8415 178.745L29.4015 178.675C29.5415 177.465 30.3715 176.695 31.8315 176.695C33.2915 176.695 34.1915 177.415 34.1915 178.635C34.1915 179.405 33.7915 179.915 33.0415 180.155C33.9115 180.405 34.4115 181.055 34.4115 181.955C34.4115 183.295 33.4015 184.115 31.8015 184.115ZM37.7976 184.115C36.1676 184.115 35.3576 183.285 35.2876 181.995L36.7276 181.925C36.7876 182.615 37.2476 182.855 37.8276 182.855C38.4576 182.855 38.9476 182.555 38.9476 181.855C38.9476 181.175 38.4976 180.815 37.7576 180.815H37.2276V179.685H37.7576C38.3176 179.685 38.7276 179.435 38.7276 178.825C38.7276 178.235 38.3776 177.945 37.8176 177.945C37.1976 177.945 36.8976 178.255 36.8376 178.745L35.3976 178.675C35.5376 177.465 36.3676 176.695 37.8276 176.695C39.2876 176.695 40.1876 177.415 40.1876 178.635C40.1876 179.405 39.7876 179.915 39.0376 180.155C39.9076 180.405 40.4076 181.055 40.4076 181.955C40.4076 183.295 39.3976 184.115 37.7976 184.115ZM43.8437 184.115C42.2437 184.115 41.2837 182.705 41.2837 180.415C41.2837 178.115 42.2437 176.695 43.8437 176.695C45.4437 176.695 46.4037 178.115 46.4037 180.415C46.4037 182.705 45.4437 184.115 43.8437 184.115ZM42.7437 180.415C42.7437 180.845 42.7737 181.215 42.8337 181.525L44.5237 178.335C44.3437 178.085 44.1137 177.955 43.8437 177.955C43.1537 177.955 42.7437 178.775 42.7437 180.415ZM43.8437 182.855C44.5337 182.855 44.9437 182.045 44.9437 180.415C44.9437 179.985 44.9137 179.605 44.8537 179.285L43.1637 182.475C43.3437 182.725 43.5737 182.855 43.8437 182.855Z" fill="black"/>
</g>
<path id="field" d="M18.7018 196.481L49.2354 237.311C40.0043 320.036 100.758 415.932 193.382 440.751L207.939 461.698H293.725L308.282 440.751C400.906 415.932 461.66 320.036 452.429 237.311L482.963 196.481L447.326 109.083L388.128 83.4929L292.648 19.3301H209.389L110.472 83.4929L53.5658 109.083L18.7018 196.481Z" fill="#003831" fill-opacity="0.1" fill="none" stroke="#003831" stroke-width="1.002"/>
</g>
</svg>
