<svg width="500" height="470" viewBox="0 0 500 470" fill="none" xmlns="http://www.w3.org/2000/svg">
<g id="olympic-stadium-1977">
<g id="Infield">
<path d="M339.98 327.766C339.453 325.666 322.032 258.479 250.83 258.479C180.238 258.479 162.505 324.538 161.697 327.699C161.677 327.776 161.668 327.816 161.668 327.816L236.504 402.653C235.305 404.912 234.623 407.489 234.623 410.238C234.623 419.186 241.873 426.445 250.83 426.445C259.778 426.445 267.037 419.186 267.037 410.238C267.037 407.489 266.356 404.912 265.156 402.657L260.695 397.375C257.96 395.278 254.544 394.026 250.83 394.026C247.117 394.026 243.701 395.278 240.971 397.37L197.7 354.1C201.448 350.353 201.448 344.277 197.7 340.53C197.698 340.527 197.694 340.525 197.691 340.522L244.055 294.038C247.8 297.773 253.861 297.773 257.606 294.038L303.431 339.984C303.431 339.984 303.427 339.985 303.424 339.988C299.677 343.736 300.275 350.3 304.022 354.047L260.695 397.375L265.156 402.657L339.98 327.766Z" fill="#D2D2D2"/>
<path d="M259.91 345.706C259.91 350.721 255.845 354.787 250.83 354.787C245.815 354.787 241.75 350.721 241.75 345.706C241.75 340.691 245.815 336.626 250.83 336.626C255.845 336.626 259.91 340.691 259.91 345.706Z" fill="#D2D2D2"/>
</g>
<g id="Guides">
<g id="Home">
<circle id="Ellipse 1" cx="250.827" cy="410.419" r="16.0848" fill="#D2D2D2"/>
<circle id="Ellipse 1_2" cx="250.827" cy="410.418" r="1.62919" fill="black"/>
</g>
<g id="First">
<circle id="Ellipse 1_3" cx="311.125" cy="346.532" r="10.1878" fill="#D2D2D2"/>
<circle id="Ellipse 1_4" cx="311.125" cy="346.532" r="1.0319" fill="black"/>
</g>
<g id="Third">
<circle id="Ellipse 1_5" cx="190.34" cy="346.532" r="10.1878" fill="#D2D2D2"/>
<circle id="Ellipse 1_6" cx="190.34" cy="346.532" r="1.0319" fill="black"/>
</g>
<g id="Second">
<circle id="Ellipse 1_7" cx="250.827" cy="286.67" r="10.1878" fill="#D2D2D2"/>
<circle id="Ellipse 1_8" cx="250.827" cy="286.671" r="1.0319" fill="black"/>
</g>
<g id="Mound">
<circle id="Ellipse 1_9" cx="250.827" cy="345.929" r="9.08365" fill="#D2D2D2"/>
<circle id="Ellipse 1_10" cx="250.827" cy="345.93" r="0.920062" fill="black"/>
</g>
</g>
<path id="Foul Lines" d="M477.076 184.415L250.976 410.516L24.4799 184.02" fill="none" stroke="black" stroke-width="1.002"/>
<g id="Measurements">
<path id="404" d="M244.344 10.6992V9.27922H241.174V8.10922L244.154 3.59922H245.774V8.03922H246.614V9.27922H245.774V10.6992H244.344ZM242.514 8.03922H244.344V5.38922L242.514 8.03922ZM249.89 10.8592C248.29 10.8592 247.33 9.44922 247.33 7.15922C247.33 4.85922 248.29 3.43922 249.89 3.43922C251.49 3.43922 252.45 4.85922 252.45 7.15922C252.45 9.44922 251.49 10.8592 249.89 10.8592ZM248.79 7.15922C248.79 7.58922 248.82 7.95922 248.88 8.26922L250.57 5.07922C250.39 4.82922 250.16 4.69922 249.89 4.69922C249.2 4.69922 248.79 5.51922 248.79 7.15922ZM249.89 9.59922C250.58 9.59922 250.99 8.78922 250.99 7.15922C250.99 6.72922 250.96 6.34922 250.9 6.02922L249.21 9.21922C249.39 9.46922 249.62 9.59922 249.89 9.59922ZM256.336 10.6992V9.27922H253.166V8.10922L256.146 3.59922H257.766V8.03922H258.606V9.27922H257.766V10.6992H256.336ZM254.506 8.03922H256.336V5.38922L254.506 8.03922Z" fill="black"/>
<path id="375" d="M403.282 72.0467C401.652 72.0467 400.842 71.2167 400.772 69.9267L402.212 69.8567C402.272 70.5467 402.732 70.7867 403.312 70.7867C403.942 70.7867 404.432 70.4867 404.432 69.7867C404.432 69.1067 403.982 68.7467 403.242 68.7467H402.712V67.6167H403.242C403.802 67.6167 404.212 67.3667 404.212 66.7567C404.212 66.1667 403.862 65.8767 403.302 65.8767C402.682 65.8767 402.382 66.1867 402.322 66.6767L400.882 66.6067C401.022 65.3967 401.852 64.6267 403.312 64.6267C404.772 64.6267 405.672 65.3467 405.672 66.5667C405.672 67.3367 405.272 67.8467 404.522 68.0867C405.392 68.3367 405.892 68.9867 405.892 69.8867C405.892 71.2267 404.882 72.0467 403.282 72.0467ZM407.998 71.8867C407.998 69.7367 408.898 67.7767 410.368 66.0667H406.868V64.7867H411.788V65.9967C410.158 67.8567 409.488 69.4467 409.488 71.8867H407.998ZM415.314 72.0467C413.814 72.0467 412.904 71.1567 412.804 69.9867L414.264 69.9067C414.354 70.4867 414.704 70.7867 415.314 70.7867C415.974 70.7867 416.384 70.3667 416.384 69.5567C416.384 68.7667 415.964 68.3067 415.324 68.3067C414.884 68.3067 414.514 68.5667 414.374 68.9267L412.904 68.8567L413.324 64.7867H417.514V66.0667H414.494L414.314 67.5967C414.644 67.3167 415.084 67.1567 415.564 67.1567C416.974 67.1567 417.844 68.1767 417.844 69.5667C417.844 71.0367 416.844 72.0467 415.314 72.0467Z" fill="black"/>
<path id="375_2" d="M84.3746 72.0467C82.7446 72.0467 81.9346 71.2167 81.8646 69.9267L83.3046 69.8567C83.3646 70.5467 83.8246 70.7867 84.4046 70.7867C85.0346 70.7867 85.5246 70.4867 85.5246 69.7867C85.5246 69.1067 85.0746 68.7467 84.3346 68.7467H83.8046V67.6167H84.3346C84.8946 67.6167 85.3046 67.3667 85.3046 66.7567C85.3046 66.1667 84.9546 65.8767 84.3946 65.8767C83.7746 65.8767 83.4746 66.1867 83.4146 66.6767L81.9746 66.6067C82.1146 65.3967 82.9446 64.6267 84.4046 64.6267C85.8646 64.6267 86.7646 65.3467 86.7646 66.5667C86.7646 67.3367 86.3646 67.8467 85.6146 68.0867C86.4846 68.3367 86.9846 68.9867 86.9846 69.8867C86.9846 71.2267 85.9746 72.0467 84.3746 72.0467ZM89.0907 71.8867C89.0907 69.7367 89.9907 67.7767 91.4607 66.0667H87.9607V64.7867H92.8807V65.9967C91.2507 67.8567 90.5807 69.4467 90.5807 71.8867H89.0907ZM96.4067 72.0467C94.9067 72.0467 93.9967 71.1567 93.8967 69.9867L95.3567 69.9067C95.4467 70.4867 95.7967 70.7867 96.4067 70.7867C97.0667 70.7867 97.4767 70.3667 97.4767 69.5567C97.4767 68.7667 97.0567 68.3067 96.4167 68.3067C95.9767 68.3067 95.6067 68.5667 95.4667 68.9267L93.9967 68.8567L94.4167 64.7867H98.6067V66.0667H95.5867L95.4067 67.5967C95.7367 67.3167 96.1767 67.1567 96.6567 67.1567C98.0667 67.1567 98.9367 68.1767 98.9367 69.5667C98.9367 71.0367 97.9367 72.0467 96.4067 72.0467Z" fill="black"/>
<path id="325" d="M455.938 185.098C454.308 185.098 453.498 184.267 453.428 182.977L454.868 182.907C454.928 183.597 455.388 183.837 455.968 183.837C456.598 183.837 457.088 183.537 457.088 182.837C457.088 182.157 456.638 181.797 455.898 181.797H455.368V180.667H455.898C456.458 180.667 456.868 180.417 456.868 179.807C456.868 179.217 456.518 178.927 455.958 178.927C455.338 178.927 455.038 179.237 454.978 179.727L453.538 179.658C453.678 178.447 454.508 177.677 455.968 177.677C457.428 177.677 458.328 178.397 458.328 179.617C458.328 180.387 457.928 180.897 457.178 181.137C458.048 181.387 458.548 182.037 458.548 182.937C458.548 184.278 457.538 185.098 455.938 185.098ZM459.424 184.938C459.424 183.207 460.004 182.197 461.984 181.177C462.714 180.797 463.074 180.517 463.074 179.867C463.074 179.297 462.744 178.937 462.114 178.937C461.394 178.937 461.044 179.357 460.924 180.117L459.454 180.027C459.594 178.577 460.504 177.677 462.134 177.677C463.724 177.677 464.544 178.527 464.544 179.787C464.544 180.927 464.054 181.487 462.654 182.247C461.504 182.867 461.094 183.297 461.054 183.657H464.544V184.938H459.424ZM467.97 185.098C466.47 185.098 465.56 184.207 465.46 183.037L466.92 182.957C467.01 183.537 467.36 183.837 467.97 183.837C468.63 183.837 469.04 183.417 469.04 182.607C469.04 181.817 468.62 181.357 467.98 181.357C467.54 181.357 467.17 181.617 467.03 181.977L465.56 181.907L465.98 177.837H470.17V179.117H467.15L466.97 180.647C467.3 180.367 467.74 180.207 468.22 180.207C469.63 180.207 470.5 181.227 470.5 182.617C470.5 184.087 469.5 185.098 467.97 185.098Z" fill="black"/>
<path id="325_2" d="M31.7494 185.098C30.1194 185.098 29.3094 184.267 29.2394 182.977L30.6794 182.907C30.7394 183.597 31.1994 183.837 31.7794 183.837C32.4094 183.837 32.8994 183.537 32.8994 182.837C32.8994 182.157 32.4494 181.797 31.7094 181.797H31.1794V180.667H31.7094C32.2694 180.667 32.6794 180.417 32.6794 179.807C32.6794 179.217 32.3294 178.927 31.7694 178.927C31.1494 178.927 30.8494 179.237 30.7894 179.727L29.3494 179.658C29.4894 178.447 30.3194 177.677 31.7794 177.677C33.2394 177.677 34.1394 178.397 34.1394 179.617C34.1394 180.387 33.7394 180.897 32.9894 181.137C33.8594 181.387 34.3594 182.037 34.3594 182.937C34.3594 184.278 33.3494 185.098 31.7494 185.098ZM35.2355 184.938C35.2355 183.207 35.8155 182.197 37.7955 181.177C38.5255 180.797 38.8855 180.517 38.8855 179.867C38.8855 179.297 38.5555 178.937 37.9255 178.937C37.2055 178.937 36.8555 179.357 36.7355 180.117L35.2655 180.027C35.4055 178.577 36.3155 177.677 37.9455 177.677C39.5355 177.677 40.3555 178.527 40.3555 179.787C40.3555 180.927 39.8655 181.487 38.4655 182.247C37.3155 182.867 36.9055 183.297 36.8655 183.657H40.3555V184.938H35.2355ZM43.7816 185.098C42.2816 185.098 41.3716 184.207 41.2716 183.037L42.7316 182.957C42.8216 183.537 43.1716 183.837 43.7816 183.837C44.4416 183.837 44.8516 183.417 44.8516 182.607C44.8516 181.817 44.4316 181.357 43.7916 181.357C43.3516 181.357 42.9816 181.617 42.8416 181.977L41.3716 181.907L41.7916 177.837H45.9816V179.117H42.9616L42.7816 180.647C43.1116 180.367 43.5516 180.207 44.0316 180.207C45.4416 180.207 46.3116 181.227 46.3116 182.617C46.3116 184.087 45.3116 185.098 43.7816 185.098Z" fill="black"/>
</g>
<path id="field" d="M24.5425 215.744C6.56865 148.665 122.428 15.1816 250.83 15.1816H250.833C379.235 15.1816 495.095 148.665 477.121 215.744H472.969L417.305 271.408L402.731 313.821L361.272 385.63L304.861 433.122L292.601 446.326C270.049 470.612 231.611 470.611 209.061 446.324L196.802 433.122L140.391 385.63L98.9328 313.821L84.358 271.408L28.6945 215.744H24.5425Z" fill="#E4002B" fill-opacity="0.1" fill="none" stroke="#E4002B" stroke-width="1.002"/>
</g>
</svg>
