<svg width="500" height="470" viewBox="0 0 500 470" fill="none" xmlns="http://www.w3.org/2000/svg">
<g id="oracle-park-2000">
<path id="field" d="M197.182 441.4L103.666 329.822L46.8127 220.256L14.8562 189.505L18.7754 156.645L182.176 17.9658H377.834L409.489 96.3493L426.673 98.1581L473.402 212.719L458.328 216.035L434.813 240.154L430.385 291.183L304.479 441.4C301.751 444.655 298.801 447.593 295.672 450.213L289.969 444.51C266.438 460.41 235.224 460.41 211.693 444.51L205.99 450.213C202.861 447.592 199.91 444.655 197.182 441.4Z" fill="#FD5A1E" fill-opacity="0.1" fill="none" stroke="#FD5A1E" stroke-width="1.002"/>
<g id="Infield">
<path d="M339.98 327.765C339.453 325.665 322.032 258.478 250.83 258.478C180.238 258.478 162.505 324.537 161.697 327.698C161.677 327.775 161.668 327.815 161.668 327.815L236.504 402.652C235.305 404.911 234.623 407.488 234.623 410.237C234.623 419.185 241.873 426.444 250.83 426.444C259.778 426.444 267.037 419.185 267.037 410.237C267.037 407.488 266.356 404.911 265.156 402.656L260.695 397.374C257.96 395.277 254.544 394.025 250.83 394.025C247.117 394.025 243.701 395.277 240.971 397.369L197.7 354.099C201.448 350.352 201.448 344.276 197.7 340.529C197.698 340.526 197.694 340.524 197.691 340.521L244.055 294.037C247.8 297.772 253.861 297.772 257.606 294.037L303.431 339.983C303.431 339.983 303.427 339.984 303.424 339.987C299.677 343.735 300.275 350.299 304.022 354.046L260.695 397.374L265.156 402.656L339.98 327.765Z" fill="#D2D2D2"/>
<path d="M259.91 345.705C259.91 350.72 255.845 354.786 250.83 354.786C245.815 354.786 241.75 350.72 241.75 345.705C241.75 340.69 245.815 336.625 250.83 336.625C255.845 336.625 259.91 340.69 259.91 345.705Z" fill="#D2D2D2"/>
</g>
<g id="Guides">
<g id="Home">
<circle id="Ellipse 1" cx="250.827" cy="410.42" r="16.0848" fill="#D2D2D2"/>
<circle id="Ellipse 1_2" cx="250.827" cy="410.42" r="1.62919" fill="black"/>
</g>
<g id="First">
<circle id="Ellipse 1_3" cx="311.125" cy="346.532" r="10.1878" fill="#D2D2D2"/>
<circle id="Ellipse 1_4" cx="311.125" cy="346.532" r="1.0319" fill="black"/>
</g>
<g id="Third">
<circle id="Ellipse 1_5" cx="190.34" cy="346.532" r="10.1878" fill="#D2D2D2"/>
<circle id="Ellipse 1_6" cx="190.34" cy="346.532" r="1.0319" fill="black"/>
</g>
<g id="Second">
<circle id="Ellipse 1_7" cx="250.827" cy="286.67" r="10.1878" fill="#D2D2D2"/>
<circle id="Ellipse 1_8" cx="250.827" cy="286.671" r="1.0319" fill="black"/>
</g>
<g id="Mound">
<circle id="Ellipse 1_9" cx="250.827" cy="345.928" r="9.08365" fill="#D2D2D2"/>
<circle id="Ellipse 1_10" cx="250.827" cy="345.929" r="0.920062" fill="black"/>
</g>
</g>
<path id="Foul Lines" d="M466.38 195.112L250.976 410.517L16.3752 175.916" fill="none" stroke="black" stroke-width="1.002"/>
<g id="Measurements">
<path id="399" d="M265.29 13.2538C263.66 13.2538 262.85 12.4237 262.78 11.1337L264.22 11.0637C264.28 11.7537 264.74 11.9937 265.32 11.9937C265.95 11.9937 266.44 11.6937 266.44 10.9937C266.44 10.3137 265.99 9.95375 265.25 9.95375H264.72V8.82375H265.25C265.81 8.82375 266.22 8.57375 266.22 7.96375C266.22 7.37375 265.87 7.08375 265.31 7.08375C264.69 7.08375 264.39 7.39375 264.33 7.88375L262.89 7.81375C263.03 6.60375 263.86 5.83375 265.32 5.83375C266.78 5.83375 267.68 6.55375 267.68 7.77375C267.68 8.54375 267.28 9.05375 266.53 9.29375C267.4 9.54375 267.9 10.1937 267.9 11.0937C267.9 12.4338 266.89 13.2538 265.29 13.2538ZM271.316 5.83375C273.046 5.83375 273.956 7.00375 273.956 9.06375C273.956 11.4137 273.146 13.2538 271.056 13.2538C269.656 13.2538 269.006 12.4937 268.746 11.4737L270.186 11.3737C270.286 11.7337 270.516 11.9937 271.056 11.9937C271.796 11.9937 272.316 11.4837 272.476 10.2637C272.136 10.5637 271.656 10.7837 271.026 10.7837C269.616 10.7837 268.716 9.83375 268.716 8.40375C268.716 6.82375 269.746 5.83375 271.316 5.83375ZM271.346 7.11375C270.596 7.11375 270.176 7.55375 270.176 8.35375C270.176 9.09375 270.556 9.57375 271.286 9.57375C272.026 9.57375 272.496 9.08375 272.496 8.34375C272.496 7.66375 272.076 7.11375 271.346 7.11375ZM277.312 5.83375C279.042 5.83375 279.952 7.00375 279.952 9.06375C279.952 11.4137 279.142 13.2538 277.052 13.2538C275.652 13.2538 275.002 12.4937 274.742 11.4737L276.182 11.3737C276.282 11.7337 276.512 11.9937 277.052 11.9937C277.792 11.9937 278.312 11.4837 278.472 10.2637C278.132 10.5637 277.652 10.7837 277.022 10.7837C275.612 10.7837 274.712 9.83375 274.712 8.40375C274.712 6.82375 275.742 5.83375 277.312 5.83375ZM277.342 7.11375C276.592 7.11375 276.172 7.55375 276.172 8.35375C276.172 9.09375 276.552 9.57375 277.282 9.57375C278.022 9.57375 278.492 9.08375 278.492 8.34375C278.492 7.66375 278.072 7.11375 277.342 7.11375Z" fill="black"/>
<path id="365" d="M415.325 92.0848C413.695 92.0848 412.885 91.2548 412.815 89.9648L414.255 89.8948C414.315 90.5848 414.775 90.8248 415.355 90.8248C415.985 90.8248 416.475 90.5248 416.475 89.8248C416.475 89.1448 416.025 88.7848 415.285 88.7848H414.755V87.6548H415.285C415.845 87.6548 416.255 87.4048 416.255 86.7948C416.255 86.2048 415.905 85.9148 415.345 85.9148C414.725 85.9148 414.425 86.2248 414.365 86.7148L412.925 86.6448C413.065 85.4348 413.895 84.6648 415.355 84.6648C416.815 84.6648 417.715 85.3848 417.715 86.6048C417.715 87.3748 417.315 87.8848 416.565 88.1248C417.435 88.3748 417.935 89.0248 417.935 89.9248C417.935 91.2648 416.925 92.0848 415.325 92.0848ZM421.391 92.0848C419.661 92.0848 418.751 90.9148 418.751 88.8548C418.751 86.5048 419.561 84.6648 421.651 84.6648C423.051 84.6648 423.701 85.4248 423.961 86.4448L422.521 86.5448C422.421 86.1848 422.191 85.9248 421.651 85.9248C420.911 85.9248 420.391 86.4348 420.231 87.6548C420.571 87.3548 421.051 87.1348 421.681 87.1348C423.091 87.1348 423.991 88.0848 423.991 89.5148C423.991 91.0948 422.961 92.0848 421.391 92.0848ZM421.361 90.8048C422.111 90.8048 422.531 90.3648 422.531 89.5648C422.531 88.8248 422.151 88.3448 421.421 88.3448C420.681 88.3448 420.211 88.8348 420.211 89.5748C420.211 90.2548 420.631 90.8048 421.361 90.8048ZM427.357 92.0848C425.857 92.0848 424.947 91.1948 424.847 90.0248L426.307 89.9448C426.397 90.5248 426.747 90.8248 427.357 90.8248C428.017 90.8248 428.427 90.4048 428.427 89.5948C428.427 88.8048 428.007 88.3448 427.367 88.3448C426.927 88.3448 426.557 88.6048 426.417 88.9648L424.947 88.8948L425.367 84.8248H429.557V86.1048H426.537L426.357 87.6348C426.687 87.3548 427.127 87.1948 427.607 87.1948C429.017 87.1948 429.887 88.2148 429.887 89.6048C429.887 91.0748 428.887 92.0848 427.357 92.0848Z" fill="black"/>
<path id="382" d="M122.877 52.911C121.247 52.911 120.437 52.081 120.367 50.791L121.807 50.721C121.867 51.411 122.327 51.651 122.907 51.651C123.537 51.651 124.027 51.351 124.027 50.651C124.027 49.971 123.577 49.611 122.837 49.611H122.307V48.481H122.837C123.397 48.481 123.807 48.231 123.807 47.621C123.807 47.031 123.457 46.741 122.897 46.741C122.277 46.741 121.977 47.051 121.917 47.541L120.477 47.471C120.617 46.261 121.447 45.491 122.907 45.491C124.367 45.491 125.267 46.211 125.267 47.431C125.267 48.201 124.867 48.711 124.117 48.951C124.987 49.201 125.487 49.851 125.487 50.751C125.487 52.091 124.477 52.911 122.877 52.911ZM128.923 52.911C127.353 52.911 126.303 52.191 126.303 50.811C126.303 49.881 126.843 49.221 127.713 48.941C127.043 48.681 126.593 48.191 126.593 47.451C126.593 46.311 127.523 45.491 128.923 45.491C130.323 45.491 131.253 46.311 131.253 47.451C131.253 48.191 130.803 48.681 130.123 48.941C131.003 49.221 131.543 49.881 131.543 50.811C131.543 52.191 130.493 52.911 128.923 52.911ZM128.923 48.371C129.433 48.371 129.783 48.101 129.783 47.541C129.783 47.041 129.443 46.751 128.923 46.751C128.403 46.751 128.063 47.041 128.063 47.541C128.063 48.101 128.413 48.371 128.923 48.371ZM128.923 51.651C129.563 51.651 130.083 51.371 130.083 50.671C130.083 50.001 129.653 49.581 128.923 49.581C128.193 49.581 127.763 50.001 127.763 50.671C127.763 51.371 128.283 51.651 128.923 51.651ZM132.359 52.751C132.359 51.021 132.939 50.011 134.919 48.991C135.649 48.611 136.009 48.331 136.009 47.681C136.009 47.111 135.679 46.751 135.049 46.751C134.329 46.751 133.979 47.171 133.859 47.931L132.389 47.841C132.529 46.391 133.439 45.491 135.069 45.491C136.659 45.491 137.479 46.341 137.479 47.601C137.479 48.741 136.989 49.301 135.589 50.061C134.439 50.681 134.029 51.111 133.989 51.471H137.479V52.751H132.359Z" fill="black"/>
<path id="309" d="M444.859 196.416C443.229 196.416 442.419 195.586 442.349 194.296L443.789 194.226C443.849 194.916 444.309 195.156 444.889 195.156C445.519 195.156 446.009 194.856 446.009 194.156C446.009 193.476 445.559 193.116 444.819 193.116H444.289V191.986H444.819C445.379 191.986 445.789 191.736 445.789 191.126C445.789 190.536 445.439 190.246 444.879 190.246C444.259 190.246 443.959 190.556 443.899 191.046L442.459 190.976C442.599 189.766 443.429 188.996 444.889 188.996C446.349 188.996 447.249 189.716 447.249 190.936C447.249 191.706 446.849 192.216 446.099 192.456C446.969 192.706 447.469 193.356 447.469 194.256C447.469 195.596 446.459 196.416 444.859 196.416ZM450.905 196.416C449.305 196.416 448.345 195.006 448.345 192.716C448.345 190.416 449.305 188.996 450.905 188.996C452.505 188.996 453.465 190.416 453.465 192.716C453.465 195.006 452.505 196.416 450.905 196.416ZM449.805 192.716C449.805 193.146 449.835 193.516 449.895 193.826L451.585 190.636C451.405 190.386 451.175 190.256 450.905 190.256C450.215 190.256 449.805 191.076 449.805 192.716ZM450.905 195.156C451.595 195.156 452.005 194.346 452.005 192.716C452.005 192.286 451.975 191.906 451.915 191.586L450.225 194.776C450.405 195.026 450.635 195.156 450.905 195.156ZM456.881 188.996C458.611 188.996 459.521 190.166 459.521 192.226C459.521 194.576 458.711 196.416 456.621 196.416C455.221 196.416 454.571 195.656 454.311 194.636L455.751 194.536C455.851 194.896 456.081 195.156 456.621 195.156C457.361 195.156 457.881 194.646 458.041 193.426C457.701 193.726 457.221 193.946 456.591 193.946C455.181 193.946 454.281 192.996 454.281 191.566C454.281 189.986 455.311 188.996 456.881 188.996ZM456.911 190.276C456.161 190.276 455.741 190.716 455.741 191.516C455.741 192.256 456.121 192.736 456.851 192.736C457.591 192.736 458.061 192.246 458.061 191.506C458.061 190.826 457.641 190.276 456.911 190.276Z" fill="black"/>
<path id="339" d="M24.5783 174.598C22.9483 174.598 22.1383 173.768 22.0683 172.478L23.5083 172.408C23.5683 173.098 24.0283 173.338 24.6083 173.338C25.2383 173.338 25.7283 173.038 25.7283 172.338C25.7283 171.658 25.2783 171.298 24.5383 171.298H24.0083V170.168H24.5383C25.0983 170.168 25.5083 169.918 25.5083 169.308C25.5083 168.718 25.1583 168.428 24.5983 168.428C23.9783 168.428 23.6783 168.738 23.6183 169.228L22.1783 169.158C22.3183 167.948 23.1483 167.178 24.6083 167.178C26.0683 167.178 26.9683 167.898 26.9683 169.118C26.9683 169.888 26.5683 170.398 25.8183 170.638C26.6883 170.888 27.1883 171.538 27.1883 172.438C27.1883 173.778 26.1783 174.598 24.5783 174.598ZM30.5744 174.598C28.9444 174.598 28.1344 173.768 28.0644 172.478L29.5044 172.408C29.5644 173.098 30.0244 173.338 30.6044 173.338C31.2344 173.338 31.7244 173.038 31.7244 172.338C31.7244 171.658 31.2744 171.298 30.5344 171.298H30.0044V170.168H30.5344C31.0944 170.168 31.5044 169.918 31.5044 169.308C31.5044 168.718 31.1544 168.428 30.5944 168.428C29.9744 168.428 29.6744 168.738 29.6144 169.228L28.1744 169.158C28.3144 167.948 29.1444 167.178 30.6044 167.178C32.0644 167.178 32.9644 167.898 32.9644 169.118C32.9644 169.888 32.5644 170.398 31.8144 170.638C32.6844 170.888 33.1844 171.538 33.1844 172.438C33.1844 173.778 32.1744 174.598 30.5744 174.598ZM36.6005 167.178C38.3305 167.178 39.2405 168.348 39.2405 170.408C39.2405 172.758 38.4305 174.598 36.3405 174.598C34.9405 174.598 34.2905 173.838 34.0305 172.818L35.4705 172.718C35.5705 173.078 35.8005 173.338 36.3405 173.338C37.0805 173.338 37.6005 172.828 37.7605 171.608C37.4205 171.908 36.9405 172.128 36.3105 172.128C34.9005 172.128 34.0005 171.178 34.0005 169.748C34.0005 168.168 35.0305 167.178 36.6005 167.178ZM36.6305 168.458C35.8805 168.458 35.4605 168.898 35.4605 169.698C35.4605 170.438 35.8405 170.918 36.5705 170.918C37.3105 170.918 37.7805 170.428 37.7805 169.688C37.7805 169.008 37.3605 168.458 36.6305 168.458Z" fill="black"/>
</g>
</g>
</svg>
