<svg width="500" height="470" viewBox="0 0 500 470" fill="none" xmlns="http://www.w3.org/2000/svg">
<g id="oriole-park-at-camden-yards-2001" clip-path="url(#clip0_78_176)">
<g id="Infield">
<path d="M339.98 327.765C339.453 325.666 322.032 258.478 250.83 258.478C180.238 258.478 162.505 324.538 161.697 327.699C161.677 327.776 161.668 327.816 161.668 327.816L236.504 402.652C235.305 404.912 234.623 407.488 234.623 410.237C234.623 419.185 241.873 426.444 250.83 426.444C259.778 426.444 267.037 419.185 267.037 410.237C267.037 407.488 266.356 404.912 265.156 402.657L260.695 397.374C257.96 395.278 254.544 394.025 250.83 394.025C247.117 394.025 243.701 395.278 240.971 397.37L197.7 354.1C201.448 350.352 201.448 344.277 197.7 340.529C197.698 340.526 197.694 340.524 197.691 340.521L244.055 294.037C247.8 297.773 253.861 297.773 257.606 294.037L303.431 339.983C303.431 339.983 303.427 339.985 303.424 339.988C299.677 343.735 300.275 350.299 304.022 354.047L260.695 397.374L265.156 402.657L339.98 327.765Z" fill="#D2D2D2"/>
<path d="M259.91 345.706C259.91 350.721 255.845 354.786 250.83 354.786C245.815 354.786 241.75 350.721 241.75 345.706C241.75 340.691 245.815 336.625 250.83 336.625C255.845 336.625 259.91 340.691 259.91 345.706Z" fill="#D2D2D2"/>
</g>
<g id="Guides">
<g id="Home">
<circle id="Ellipse 1" cx="250.827" cy="410.42" r="16.0848" fill="#D2D2D2"/>
<circle id="Ellipse 1_2" cx="250.827" cy="410.42" r="1.62919" fill="black"/>
</g>
<g id="First">
<circle id="Ellipse 1_3" cx="311.125" cy="346.533" r="10.1878" fill="#D2D2D2"/>
<circle id="Ellipse 1_4" cx="311.125" cy="346.532" r="1.0319" fill="black"/>
</g>
<g id="Third">
<circle id="Ellipse 1_5" cx="190.34" cy="346.533" r="10.1878" fill="#D2D2D2"/>
<circle id="Ellipse 1_6" cx="190.34" cy="346.532" r="1.0319" fill="black"/>
</g>
<g id="Second">
<circle id="Ellipse 1_7" cx="250.827" cy="286.671" r="10.1878" fill="#D2D2D2"/>
<circle id="Ellipse 1_8" cx="250.827" cy="286.671" r="1.0319" fill="black"/>
</g>
<g id="Mound">
<circle id="Ellipse 1_9" cx="250.827" cy="345.929" r="9.08365" fill="#D2D2D2"/>
<circle id="Ellipse 1_10" cx="250.827" cy="345.929" r="0.920062" fill="black"/>
</g>
</g>
<path id="Foul Lines" d="M470.412 185.632L250.976 410.516L17.3414 185.482" fill="none" stroke="black" stroke-width="1.002"/>
<g id="Measurements">
<path id="417" d="M209.203 3.69922V2.27922H206.033V1.10922L209.013 -3.40078H210.633V1.03922H211.473V2.27922H210.633V3.69922H209.203ZM207.373 1.03922H209.203V-1.61078L207.373 1.03922ZM212.229 3.69922V2.41922H214.269V-0.960781H212.529V-2.14078H213.309C214.109 -2.14078 214.449 -2.48078 214.449 -3.40078H215.689V2.41922H217.269V3.69922H212.229ZM219.415 3.69922C219.415 1.54922 220.315 -0.410781 221.785 -2.12078H218.285V-3.40078H223.205V-2.19078C221.575 -0.330782 220.905 1.25922 220.905 3.69922H219.415Z" fill="black"/>
<path id="393" d="M385.696 47.2044C384.066 47.2044 383.256 46.3744 383.186 45.0844L384.626 45.0144C384.686 45.7044 385.146 45.9444 385.726 45.9444C386.356 45.9444 386.846 45.6444 386.846 44.9444C386.846 44.2644 386.396 43.9044 385.656 43.9044H385.126V42.7744H385.656C386.216 42.7744 386.626 42.5244 386.626 41.9144C386.626 41.3244 386.276 41.0344 385.716 41.0344C385.096 41.0344 384.796 41.3444 384.736 41.8344L383.296 41.7644C383.436 40.5544 384.266 39.7844 385.726 39.7844C387.186 39.7844 388.086 40.5044 388.086 41.7244C388.086 42.4944 387.686 43.0044 386.936 43.2444C387.806 43.4944 388.306 44.1444 388.306 45.0444C388.306 46.3844 387.296 47.2044 385.696 47.2044ZM391.722 39.7844C393.452 39.7844 394.362 40.9544 394.362 43.0144C394.362 45.3644 393.552 47.2044 391.462 47.2044C390.062 47.2044 389.412 46.4444 389.152 45.4244L390.592 45.3244C390.692 45.6844 390.922 45.9444 391.462 45.9444C392.202 45.9444 392.722 45.4344 392.882 44.2144C392.542 44.5144 392.062 44.7344 391.432 44.7344C390.022 44.7344 389.122 43.7844 389.122 42.3544C389.122 40.7744 390.152 39.7844 391.722 39.7844ZM391.752 41.0644C391.002 41.0644 390.582 41.5044 390.582 42.3044C390.582 43.0444 390.962 43.5244 391.692 43.5244C392.432 43.5244 392.902 43.0344 392.902 42.2944C392.902 41.6144 392.482 41.0644 391.752 41.0644ZM397.688 47.2044C396.058 47.2044 395.248 46.3744 395.178 45.0844L396.618 45.0144C396.678 45.7044 397.138 45.9444 397.718 45.9444C398.348 45.9444 398.838 45.6444 398.838 44.9444C398.838 44.2644 398.388 43.9044 397.648 43.9044H397.118V42.7744H397.648C398.208 42.7744 398.618 42.5244 398.618 41.9144C398.618 41.3244 398.268 41.0344 397.708 41.0344C397.088 41.0344 396.788 41.3444 396.728 41.8344L395.288 41.7644C395.428 40.5544 396.258 39.7844 397.718 39.7844C399.178 39.7844 400.078 40.5044 400.078 41.7244C400.078 42.4944 399.678 43.0044 398.928 43.2444C399.798 43.4944 400.298 44.1444 400.298 45.0444C400.298 46.3844 399.288 47.2044 397.688 47.2044Z" fill="black"/>
<path id="376" d="M108.99 66.2044C107.36 66.2044 106.55 65.3744 106.48 64.0844L107.92 64.0144C107.98 64.7044 108.44 64.9444 109.02 64.9444C109.65 64.9444 110.14 64.6444 110.14 63.9444C110.14 63.2644 109.69 62.9044 108.95 62.9044H108.42V61.7744H108.95C109.51 61.7744 109.92 61.5244 109.92 60.9144C109.92 60.3244 109.57 60.0344 109.01 60.0344C108.39 60.0344 108.09 60.3444 108.03 60.8344L106.59 60.7644C106.73 59.5544 107.56 58.7844 109.02 58.7844C110.48 58.7844 111.38 59.5044 111.38 60.7244C111.38 61.4944 110.98 62.0044 110.23 62.2444C111.1 62.4944 111.6 63.1444 111.6 64.0444C111.6 65.3844 110.59 66.2044 108.99 66.2044ZM113.706 66.0444C113.706 63.8944 114.606 61.9344 116.076 60.2244H112.576V58.9444H117.496V60.1544C115.866 62.0144 115.196 63.6044 115.196 66.0444H113.706ZM121.052 66.2044C119.322 66.2044 118.412 65.0344 118.412 62.9744C118.412 60.6244 119.222 58.7844 121.312 58.7844C122.712 58.7844 123.362 59.5444 123.622 60.5644L122.182 60.6644C122.082 60.3044 121.852 60.0444 121.312 60.0444C120.572 60.0444 120.052 60.5544 119.892 61.7744C120.232 61.4744 120.712 61.2544 121.342 61.2544C122.752 61.2544 123.652 62.2044 123.652 63.6344C123.652 65.2144 122.622 66.2044 121.052 66.2044ZM121.022 64.9244C121.772 64.9244 122.192 64.4844 122.192 63.6844C122.192 62.9444 121.812 62.4644 121.082 62.4644C120.342 62.4644 119.872 62.9544 119.872 63.6944C119.872 64.3744 120.292 64.9244 121.022 64.9244Z" fill="black"/>
<path id="320" d="M447.938 188.098C446.308 188.098 445.498 187.268 445.428 185.978L446.868 185.908C446.928 186.598 447.388 186.838 447.968 186.838C448.598 186.838 449.088 186.538 449.088 185.838C449.088 185.158 448.638 184.798 447.898 184.798H447.368V183.668H447.898C448.458 183.668 448.868 183.418 448.868 182.808C448.868 182.218 448.518 181.928 447.958 181.928C447.338 181.928 447.038 182.238 446.978 182.728L445.538 182.658C445.678 181.448 446.508 180.678 447.968 180.678C449.428 180.678 450.328 181.398 450.328 182.618C450.328 183.388 449.928 183.898 449.178 184.138C450.048 184.388 450.548 185.038 450.548 185.938C450.548 187.278 449.538 188.098 447.938 188.098ZM451.424 187.938C451.424 186.208 452.004 185.198 453.984 184.178C454.714 183.798 455.074 183.518 455.074 182.868C455.074 182.298 454.744 181.938 454.114 181.938C453.394 181.938 453.044 182.358 452.924 183.118L451.454 183.028C451.594 181.578 452.504 180.678 454.134 180.678C455.724 180.678 456.544 181.528 456.544 182.788C456.544 183.928 456.054 184.488 454.654 185.248C453.504 185.868 453.094 186.298 453.054 186.658H456.544V187.938H451.424ZM459.98 188.098C458.38 188.098 457.42 186.688 457.42 184.398C457.42 182.098 458.38 180.678 459.98 180.678C461.58 180.678 462.54 182.098 462.54 184.398C462.54 186.688 461.58 188.098 459.98 188.098ZM458.88 184.398C458.88 184.828 458.91 185.198 458.97 185.508L460.66 182.318C460.48 182.068 460.25 181.938 459.98 181.938C459.29 181.938 458.88 182.758 458.88 184.398ZM459.98 186.838C460.67 186.838 461.08 186.028 461.08 184.398C461.08 183.968 461.05 183.588 460.99 183.268L459.3 186.458C459.48 186.708 459.71 186.838 459.98 186.838Z" fill="black"/>
<path id="337" d="M23.5783 185.598C21.9483 185.598 21.1383 184.768 21.0683 183.478L22.5083 183.408C22.5683 184.098 23.0283 184.338 23.6083 184.338C24.2383 184.338 24.7283 184.038 24.7283 183.338C24.7283 182.658 24.2783 182.298 23.5383 182.298H23.0083V181.168H23.5383C24.0983 181.168 24.5083 180.918 24.5083 180.308C24.5083 179.718 24.1583 179.428 23.5983 179.428C22.9783 179.428 22.6783 179.738 22.6183 180.228L21.1783 180.158C21.3183 178.948 22.1483 178.178 23.6083 178.178C25.0683 178.178 25.9683 178.898 25.9683 180.118C25.9683 180.888 25.5683 181.398 24.8183 181.638C25.6883 181.888 26.1883 182.538 26.1883 183.438C26.1883 184.778 25.1783 185.598 23.5783 185.598ZM29.5744 185.598C27.9444 185.598 27.1344 184.768 27.0644 183.478L28.5044 183.408C28.5644 184.098 29.0244 184.338 29.6044 184.338C30.2344 184.338 30.7244 184.038 30.7244 183.338C30.7244 182.658 30.2744 182.298 29.5344 182.298H29.0044V181.168H29.5344C30.0944 181.168 30.5044 180.918 30.5044 180.308C30.5044 179.718 30.1544 179.428 29.5944 179.428C28.9744 179.428 28.6744 179.738 28.6144 180.228L27.1744 180.158C27.3144 178.948 28.1444 178.178 29.6044 178.178C31.0644 178.178 31.9644 178.898 31.9644 180.118C31.9644 180.888 31.5644 181.398 30.8144 181.638C31.6844 181.888 32.1844 182.538 32.1844 183.438C32.1844 184.778 31.1744 185.598 29.5744 185.598ZM34.2905 185.438C34.2905 183.288 35.1905 181.328 36.6605 179.618H33.1605V178.338H38.0805V179.548C36.4505 181.408 35.7805 182.998 35.7805 185.438H34.2905Z" fill="black"/>
</g>
<path id="field" d="M296.165 440.022C273.021 472.247 224.658 472.25 201.52 440.022L124.097 332.754L118.875 337.987L15.519 182.882L37.4705 127.037L214.66 6.3418L381.015 48.2979L469.62 185.261L475.458 210.612L451.608 215.944L376.056 336.163L371.003 332.754L296.165 440.022Z" fill="#DF4601" fill-opacity="0.1" fill="none" stroke="#DF4601" stroke-width="1.002"/>
</g>
<defs>
<clipPath id="clip0_78_176">
<rect width="500" height="469.94" fill="white"/>
</clipPath>
</defs>
</svg>
