<svg width="500" height="470" viewBox="0 0 500 470" fill="none" xmlns="http://www.w3.org/2000/svg">
<g id="oriole-park-at-camden-yards-2025" clip-path="url(#clip0_78_284)">
<g id="Infield">
<path d="M339.98 327.765C339.453 325.666 322.032 258.478 250.83 258.478C180.238 258.478 162.505 324.538 161.697 327.699C161.677 327.776 161.668 327.816 161.668 327.816L236.504 402.652C235.305 404.912 234.623 407.488 234.623 410.237C234.623 419.185 241.873 426.444 250.83 426.444C259.778 426.444 267.037 419.185 267.037 410.237C267.037 407.488 266.356 404.912 265.157 402.657L260.695 397.374C257.96 395.278 254.544 394.025 250.83 394.025C247.117 394.025 243.701 395.278 240.971 397.37L197.7 354.1C201.448 350.352 201.448 344.277 197.7 340.529C197.698 340.526 197.694 340.524 197.691 340.521L244.055 294.037C247.8 297.773 253.861 297.773 257.606 294.037L303.431 339.983C303.431 339.983 303.427 339.985 303.424 339.988C299.677 343.735 300.275 350.299 304.022 354.047L260.695 397.374L265.157 402.657L339.98 327.765Z" fill="#D2D2D2"/>
<path d="M259.91 345.706C259.91 350.721 255.845 354.786 250.83 354.786C245.815 354.786 241.75 350.721 241.75 345.706C241.75 340.691 245.815 336.625 250.83 336.625C255.845 336.625 259.91 340.691 259.91 345.706Z" fill="#D2D2D2"/>
</g>
<g id="Guides">
<g id="Home">
<circle id="Ellipse 1" cx="250.827" cy="410.42" r="16.0848" fill="#D2D2D2"/>
<circle id="Ellipse 1_2" cx="250.827" cy="410.42" r="1.62919" fill="black"/>
</g>
<g id="First">
<circle id="Ellipse 1_3" cx="311.125" cy="346.533" r="10.1878" fill="#D2D2D2"/>
<circle id="Ellipse 1_4" cx="311.125" cy="346.532" r="1.0319" fill="black"/>
</g>
<g id="Third">
<circle id="Ellipse 1_5" cx="190.34" cy="346.533" r="10.1878" fill="#D2D2D2"/>
<circle id="Ellipse 1_6" cx="190.34" cy="346.532" r="1.0319" fill="black"/>
</g>
<g id="Second">
<circle id="Ellipse 1_7" cx="250.827" cy="286.671" r="10.1878" fill="#D2D2D2"/>
<circle id="Ellipse 1_8" cx="250.827" cy="286.671" r="1.0319" fill="black"/>
</g>
<g id="Mound">
<circle id="Ellipse 1_9" cx="250.827" cy="345.929" r="9.08365" fill="#D2D2D2"/>
<circle id="Ellipse 1_10" cx="250.827" cy="345.929" r="0.920062" fill="black"/>
</g>
</g>
<path id="Foul Lines" d="M472.166 189.325L250.976 410.516L20.458 179.998" fill="none" stroke="black" stroke-width="1.002"/>
<g id="Measurements">
<path id="410" d="M210.203 8.69922V7.27922H207.033V6.10922L210.013 1.59922H211.633V6.03922H212.473V7.27922H211.633V8.69922H210.203ZM208.373 6.03922H210.203V3.38922L208.373 6.03922ZM213.229 8.69922V7.41922H215.269V4.03922H213.529V2.85922H214.309C215.109 2.85922 215.449 2.51922 215.449 1.59922H216.689V7.41922H218.269V8.69922H213.229ZM221.745 8.85922C220.145 8.85922 219.185 7.44922 219.185 5.15922C219.185 2.85922 220.145 1.43922 221.745 1.43922C223.345 1.43922 224.305 2.85922 224.305 5.15922C224.305 7.44922 223.345 8.85922 221.745 8.85922ZM220.645 5.15922C220.645 5.58922 220.675 5.95922 220.735 6.26922L222.425 3.07922C222.245 2.82922 222.015 2.69922 221.745 2.69922C221.055 2.69922 220.645 3.51922 220.645 5.15922ZM221.745 7.59922C222.435 7.59922 222.845 6.78922 222.845 5.15922C222.845 4.72922 222.815 4.34922 222.755 4.02922L221.065 7.21922C221.245 7.46922 221.475 7.59922 221.745 7.59922Z" fill="black"/>
<path id="373" d="M388.696 53.2044C387.066 53.2044 386.256 52.3744 386.186 51.0844L387.626 51.0144C387.686 51.7044 388.146 51.9444 388.726 51.9444C389.356 51.9444 389.846 51.6444 389.846 50.9444C389.846 50.2644 389.396 49.9044 388.656 49.9044H388.126V48.7744H388.656C389.216 48.7744 389.626 48.5244 389.626 47.9144C389.626 47.3244 389.276 47.0344 388.716 47.0344C388.096 47.0344 387.796 47.3444 387.736 47.8344L386.296 47.7644C386.436 46.5544 387.266 45.7844 388.726 45.7844C390.186 45.7844 391.086 46.5044 391.086 47.7244C391.086 48.4944 390.686 49.0044 389.936 49.2444C390.806 49.4944 391.306 50.1444 391.306 51.0444C391.306 52.3844 390.296 53.2044 388.696 53.2044ZM393.412 53.0444C393.412 50.8944 394.312 48.9344 395.782 47.2244H392.282V45.9444H397.202V47.1544C395.572 49.0144 394.902 50.6044 394.902 53.0444H393.412ZM400.688 53.2044C399.058 53.2044 398.248 52.3744 398.178 51.0844L399.618 51.0144C399.678 51.7044 400.138 51.9444 400.718 51.9444C401.348 51.9444 401.838 51.6444 401.838 50.9444C401.838 50.2644 401.388 49.9044 400.648 49.9044H400.118V48.7744H400.648C401.208 48.7744 401.618 48.5244 401.618 47.9144C401.618 47.3244 401.268 47.0344 400.708 47.0344C400.088 47.0344 399.788 47.3444 399.728 47.8344L398.288 47.7644C398.428 46.5544 399.258 45.7844 400.718 45.7844C402.178 45.7844 403.078 46.5044 403.078 47.7244C403.078 48.4944 402.678 49.0044 401.928 49.2444C402.798 49.4944 403.298 50.1444 403.298 51.0444C403.298 52.3844 402.288 53.2044 400.688 53.2044Z" fill="black"/>
<path id="376" d="M135.038 53.2044C133.408 53.2044 132.598 52.3744 132.528 51.0844L133.968 51.0144C134.028 51.7044 134.488 51.9444 135.068 51.9444C135.698 51.9444 136.188 51.6444 136.188 50.9444C136.188 50.2644 135.738 49.9044 134.998 49.9044H134.468V48.7744H134.998C135.558 48.7744 135.968 48.5244 135.968 47.9144C135.968 47.3244 135.618 47.0344 135.058 47.0344C134.438 47.0344 134.138 47.3444 134.078 47.8344L132.638 47.7644C132.778 46.5544 133.608 45.7844 135.068 45.7844C136.528 45.7844 137.428 46.5044 137.428 47.7244C137.428 48.4944 137.028 49.0044 136.278 49.2444C137.148 49.4944 137.648 50.1444 137.648 51.0444C137.648 52.3844 136.638 53.2044 135.038 53.2044ZM139.754 53.0444C139.754 50.8944 140.654 48.9344 142.124 47.2244H138.624V45.9444H143.544V47.1544C141.914 49.0144 141.244 50.6044 141.244 53.0444H139.754ZM147.101 53.2044C145.371 53.2044 144.461 52.0344 144.461 49.9744C144.461 47.6244 145.271 45.7844 147.361 45.7844C148.761 45.7844 149.411 46.5444 149.671 47.5644L148.231 47.6644C148.131 47.3044 147.901 47.0444 147.361 47.0444C146.621 47.0444 146.101 47.5544 145.941 48.7744C146.281 48.4744 146.761 48.2544 147.391 48.2544C148.801 48.2544 149.701 49.2044 149.701 50.6344C149.701 52.2144 148.671 53.2044 147.101 53.2044ZM147.071 51.9244C147.821 51.9244 148.241 51.4844 148.241 50.6844C148.241 49.9444 147.861 49.4644 147.131 49.4644C146.391 49.4644 145.921 49.9544 145.921 50.6944C145.921 51.3744 146.341 51.9244 147.071 51.9244Z" fill="black"/>
<path id="318" d="M447.938 192.098C446.308 192.098 445.498 191.268 445.428 189.978L446.868 189.908C446.928 190.598 447.388 190.838 447.968 190.838C448.598 190.838 449.088 190.538 449.088 189.838C449.088 189.158 448.638 188.798 447.898 188.798H447.368V187.668H447.898C448.458 187.668 448.868 187.418 448.868 186.808C448.868 186.218 448.518 185.928 447.958 185.928C447.338 185.928 447.038 186.238 446.978 186.728L445.538 186.658C445.678 185.448 446.508 184.678 447.968 184.678C449.428 184.678 450.328 185.398 450.328 186.618C450.328 187.388 449.928 187.898 449.178 188.138C450.048 188.388 450.548 189.038 450.548 189.938C450.548 191.278 449.538 192.098 447.938 192.098ZM451.464 191.938V190.658H453.504V187.278H451.764V186.098H452.544C453.344 186.098 453.684 185.758 453.684 184.838H454.924V190.658H456.504V191.938H451.464ZM459.98 192.098C458.41 192.098 457.36 191.378 457.36 189.998C457.36 189.068 457.9 188.408 458.77 188.128C458.1 187.868 457.65 187.378 457.65 186.638C457.65 185.498 458.58 184.678 459.98 184.678C461.38 184.678 462.31 185.498 462.31 186.638C462.31 187.378 461.86 187.868 461.18 188.128C462.06 188.408 462.6 189.068 462.6 189.998C462.6 191.378 461.55 192.098 459.98 192.098ZM459.98 187.558C460.49 187.558 460.84 187.288 460.84 186.728C460.84 186.228 460.5 185.938 459.98 185.938C459.46 185.938 459.12 186.228 459.12 186.728C459.12 187.288 459.47 187.558 459.98 187.558ZM459.98 190.838C460.62 190.838 461.14 190.558 461.14 189.858C461.14 189.188 460.71 188.768 459.98 188.768C459.25 188.768 458.82 189.188 458.82 189.858C458.82 190.558 459.34 190.838 459.98 190.838Z" fill="black"/>
<path id="333" d="M27.5782 181.598C25.9482 181.598 25.1382 180.768 25.0682 179.478L26.5082 179.408C26.5682 180.098 27.0282 180.338 27.6082 180.338C28.2382 180.338 28.7282 180.038 28.7282 179.338C28.7282 178.658 28.2782 178.298 27.5382 178.298H27.0082V177.168H27.5382C28.0982 177.168 28.5082 176.918 28.5082 176.308C28.5082 175.718 28.1582 175.428 27.5982 175.428C26.9782 175.428 26.6782 175.738 26.6182 176.228L25.1782 176.158C25.3182 174.948 26.1482 174.178 27.6082 174.178C29.0682 174.178 29.9682 174.898 29.9682 176.118C29.9682 176.888 29.5682 177.398 28.8182 177.638C29.6882 177.888 30.1882 178.538 30.1882 179.438C30.1882 180.778 29.1782 181.598 27.5782 181.598ZM33.5743 181.598C31.9443 181.598 31.1343 180.768 31.0643 179.478L32.5043 179.408C32.5643 180.098 33.0243 180.338 33.6043 180.338C34.2343 180.338 34.7243 180.038 34.7243 179.338C34.7243 178.658 34.2743 178.298 33.5343 178.298H33.0043V177.168H33.5343C34.0943 177.168 34.5043 176.918 34.5043 176.308C34.5043 175.718 34.1543 175.428 33.5943 175.428C32.9743 175.428 32.6743 175.738 32.6143 176.228L31.1743 176.158C31.3143 174.948 32.1443 174.178 33.6043 174.178C35.0643 174.178 35.9643 174.898 35.9643 176.118C35.9643 176.888 35.5643 177.398 34.8143 177.638C35.6843 177.888 36.1843 178.538 36.1843 179.438C36.1843 180.778 35.1743 181.598 33.5743 181.598ZM39.5704 181.598C37.9404 181.598 37.1304 180.768 37.0604 179.478L38.5004 179.408C38.5604 180.098 39.0204 180.338 39.6004 180.338C40.2304 180.338 40.7204 180.038 40.7204 179.338C40.7204 178.658 40.2704 178.298 39.5304 178.298H39.0004V177.168H39.5304C40.0904 177.168 40.5004 176.918 40.5004 176.308C40.5004 175.718 40.1504 175.428 39.5904 175.428C38.9704 175.428 38.6704 175.738 38.6104 176.228L37.1704 176.158C37.3104 174.948 38.1404 174.178 39.6004 174.178C41.0604 174.178 41.9604 174.898 41.9604 176.118C41.9604 176.888 41.5604 177.398 40.8104 177.638C41.6804 177.888 42.1804 178.538 42.1804 179.438C42.1804 180.778 41.1704 181.598 39.5704 181.598Z" fill="black"/>
</g>
<path id="field" d="M202.894 443.624L126.951 337.594L121.729 342.826L16.9928 189.109L20.9532 179.686L7.82312 141.116L92.3481 82.8511L101.922 89.6897L215.783 12.4648L384.611 54.1509L471.891 189.109L477.362 215.945L453.132 222.719L378.619 341.003L373.566 337.594L297.117 443.631L294.21 441.36C271.169 468.61 228.846 468.609 205.806 441.36L202.894 443.624Z" fill="#DF4601" fill-opacity="0.1" fill="none" stroke="#DF4601" stroke-width="1.002"/>
</g>
<defs>
<clipPath id="clip0_78_284">
<rect width="500" height="469.94" fill="white"/>
</clipPath>
</defs>
</svg>
