<svg width="500" height="470" viewBox="0 0 500 470" fill="none" xmlns="http://www.w3.org/2000/svg">
<g id="petco-park-2004">
<g id="Infield">
<path d="M339.98 327.764C339.453 325.664 322.032 258.477 250.83 258.477C180.238 258.477 162.505 324.536 161.697 327.697C161.677 327.775 161.668 327.814 161.668 327.814L236.504 402.651C235.305 404.91 234.623 407.487 234.623 410.236C234.623 419.184 241.873 426.443 250.83 426.443C259.778 426.443 267.037 419.184 267.037 410.236C267.037 407.487 266.356 404.91 265.156 402.655L260.695 397.373C257.96 395.276 254.544 394.024 250.83 394.024C247.117 394.024 243.701 395.276 240.971 397.368L197.7 354.098C201.448 350.351 201.448 344.275 197.7 340.528C197.698 340.525 197.694 340.523 197.691 340.52L244.055 294.036C247.8 297.772 253.861 297.772 257.606 294.036L303.431 339.982C303.431 339.982 303.427 339.983 303.424 339.986C299.677 343.734 300.275 350.298 304.022 354.045L260.695 397.373L265.156 402.655L339.98 327.764Z" fill="#D2D2D2"/>
<path d="M259.91 345.704C259.91 350.719 255.845 354.785 250.83 354.785C245.815 354.785 241.75 350.719 241.75 345.704C241.75 340.689 245.815 336.624 250.83 336.624C255.845 336.624 259.91 340.689 259.91 345.704Z" fill="#D2D2D2"/>
</g>
<g id="Guides">
<g id="Home">
<circle id="Ellipse 1" cx="250.827" cy="410.421" r="16.0848" fill="#D2D2D2"/>
<circle id="Ellipse 1_2" cx="250.827" cy="410.422" r="1.62919" fill="black"/>
</g>
<g id="First">
<circle id="Ellipse 1_3" cx="311.125" cy="346.535" r="10.1878" fill="#D2D2D2"/>
<circle id="Ellipse 1_4" cx="311.125" cy="346.536" r="1.0319" fill="black"/>
</g>
<g id="Third">
<circle id="Ellipse 1_5" cx="190.34" cy="346.535" r="10.1878" fill="#D2D2D2"/>
<circle id="Ellipse 1_6" cx="190.34" cy="346.536" r="1.0319" fill="black"/>
</g>
<g id="Second">
<circle id="Ellipse 1_7" cx="250.827" cy="286.672" r="10.1878" fill="#D2D2D2"/>
<circle id="Ellipse 1_8" cx="250.827" cy="286.673" r="1.0319" fill="black"/>
</g>
<g id="Mound">
<circle id="Ellipse 1_9" cx="250.827" cy="345.931" r="9.08365" fill="#D2D2D2"/>
<circle id="Ellipse 1_10" cx="250.827" cy="345.932" r="0.920062" fill="black"/>
</g>
</g>
<path id="Foul Lines" d="M472.566 188.927L250.976 410.514L18.4259 177.965" fill="none" stroke="black" stroke-width="1.002"/>
<g id="Measurements">
<path id="396" d="M243.956 19.1639C242.326 19.1639 241.516 18.3339 241.446 17.0439L242.886 16.9739C242.946 17.6639 243.406 17.9039 243.986 17.9039C244.616 17.9039 245.106 17.6039 245.106 16.9039C245.106 16.2239 244.656 15.8639 243.916 15.8639H243.386V14.7339H243.916C244.476 14.7339 244.886 14.4839 244.886 13.8739C244.886 13.2839 244.536 12.9939 243.976 12.9939C243.356 12.9939 243.056 13.3039 242.996 13.7939L241.556 13.7239C241.696 12.5139 242.526 11.7439 243.986 11.7439C245.446 11.7439 246.346 12.4639 246.346 13.6839C246.346 14.4539 245.946 14.9639 245.196 15.2039C246.066 15.4539 246.566 16.1039 246.566 17.0039C246.566 18.3439 245.556 19.1639 243.956 19.1639ZM249.982 11.7439C251.712 11.7439 252.622 12.9139 252.622 14.9739C252.622 17.3239 251.812 19.1639 249.722 19.1639C248.322 19.1639 247.672 18.4039 247.412 17.3839L248.852 17.2839C248.952 17.6439 249.182 17.9039 249.722 17.9039C250.462 17.9039 250.982 17.3939 251.142 16.1739C250.802 16.4739 250.322 16.6939 249.692 16.6939C248.282 16.6939 247.382 15.7439 247.382 14.3139C247.382 12.7339 248.412 11.7439 249.982 11.7439ZM250.012 13.0239C249.262 13.0239 248.842 13.4639 248.842 14.2639C248.842 15.0039 249.222 15.4839 249.952 15.4839C250.692 15.4839 251.162 14.9939 251.162 14.2539C251.162 13.5739 250.742 13.0239 250.012 13.0239ZM256.018 19.1639C254.288 19.1639 253.378 17.9939 253.378 15.9339C253.378 13.5839 254.188 11.7439 256.278 11.7439C257.678 11.7439 258.328 12.5039 258.588 13.5239L257.148 13.6239C257.048 13.2639 256.818 13.0039 256.278 13.0039C255.538 13.0039 255.018 13.5139 254.858 14.7339C255.198 14.4339 255.678 14.2139 256.308 14.2139C257.718 14.2139 258.618 15.1639 258.618 16.5939C258.618 18.1739 257.588 19.1639 256.018 19.1639ZM255.988 17.8839C256.738 17.8839 257.158 17.4439 257.158 16.6439C257.158 15.9039 256.778 15.4239 256.048 15.4239C255.308 15.4239 254.838 15.9139 254.838 16.6539C254.838 17.3339 255.258 17.8839 255.988 17.8839Z" fill="black"/>
<path id="400" d="M359.475 29.0039V27.5839H356.305V26.4139L359.285 21.9039H360.905V26.3439H361.745V27.5839H360.905V29.0039H359.475ZM357.645 26.3439H359.475V23.6939L357.645 26.3439ZM365.021 29.1639C363.421 29.1639 362.461 27.7539 362.461 25.4639C362.461 23.1639 363.421 21.7439 365.021 21.7439C366.621 21.7439 367.581 23.1639 367.581 25.4639C367.581 27.7539 366.621 29.1639 365.021 29.1639ZM363.921 25.4639C363.921 25.8939 363.951 26.2639 364.011 26.5739L365.701 23.3839C365.521 23.1339 365.291 23.0039 365.021 23.0039C364.331 23.0039 363.921 23.8239 363.921 25.4639ZM365.021 27.9039C365.711 27.9039 366.121 27.0939 366.121 25.4639C366.121 25.0339 366.091 24.6539 366.031 24.3339L364.341 27.5239C364.521 27.7739 364.751 27.9039 365.021 27.9039ZM371.017 29.1639C369.417 29.1639 368.457 27.7539 368.457 25.4639C368.457 23.1639 369.417 21.7439 371.017 21.7439C372.617 21.7439 373.577 23.1639 373.577 25.4639C373.577 27.7539 372.617 29.1639 371.017 29.1639ZM369.917 25.4639C369.917 25.8939 369.947 26.2639 370.007 26.5739L371.697 23.3839C371.517 23.1339 371.287 23.0039 371.017 23.0039C370.327 23.0039 369.917 23.8239 369.917 25.4639ZM371.017 27.9039C371.707 27.9039 372.117 27.0939 372.117 25.4639C372.117 25.0339 372.087 24.6539 372.027 24.3339L370.337 27.5239C370.517 27.7739 370.747 27.9039 371.017 27.9039Z" fill="black"/>
<path id="401" d="M128.567 29.0039V27.5839H125.397V26.4139L128.377 21.9039H129.997V26.3439H130.837V27.5839H129.997V29.0039H128.567ZM126.737 26.3439H128.567V23.6939L126.737 26.3439ZM134.113 29.1639C132.513 29.1639 131.553 27.7539 131.553 25.4639C131.553 23.1639 132.513 21.7439 134.113 21.7439C135.713 21.7439 136.673 23.1639 136.673 25.4639C136.673 27.7539 135.713 29.1639 134.113 29.1639ZM133.013 25.4639C133.013 25.8939 133.043 26.2639 133.103 26.5739L134.793 23.3839C134.613 23.1339 134.383 23.0039 134.113 23.0039C133.423 23.0039 133.013 23.8239 133.013 25.4639ZM134.113 27.9039C134.803 27.9039 135.213 27.0939 135.213 25.4639C135.213 25.0339 135.183 24.6539 135.123 24.3339L133.433 27.5239C133.613 27.7739 133.843 27.9039 134.113 27.9039ZM137.589 29.0039V27.7239H139.629V24.3439H137.889V23.1639H138.669C139.469 23.1639 139.809 22.8239 139.809 21.9039H141.049V27.7239H142.629V29.0039H137.589Z" fill="black"/>
<path id="322" d="M448.944 192.512C447.314 192.512 446.504 191.682 446.434 190.392L447.874 190.322C447.934 191.012 448.394 191.252 448.974 191.252C449.604 191.252 450.094 190.952 450.094 190.252C450.094 189.572 449.644 189.212 448.904 189.212H448.374V188.082H448.904C449.464 188.082 449.874 187.832 449.874 187.222C449.874 186.632 449.524 186.342 448.964 186.342C448.344 186.342 448.044 186.652 447.984 187.142L446.544 187.072C446.684 185.862 447.514 185.092 448.974 185.092C450.434 185.092 451.334 185.812 451.334 187.032C451.334 187.802 450.934 188.312 450.184 188.552C451.054 188.802 451.554 189.452 451.554 190.352C451.554 191.692 450.544 192.512 448.944 192.512ZM452.43 192.352C452.43 190.622 453.01 189.612 454.99 188.592C455.72 188.212 456.08 187.932 456.08 187.282C456.08 186.712 455.75 186.352 455.12 186.352C454.4 186.352 454.05 186.772 453.93 187.532L452.46 187.442C452.6 185.992 453.51 185.092 455.14 185.092C456.73 185.092 457.55 185.942 457.55 187.202C457.55 188.342 457.06 188.902 455.66 189.662C454.51 190.282 454.1 190.712 454.06 191.072H457.55V192.352H452.43ZM458.426 192.352C458.426 190.622 459.006 189.612 460.986 188.592C461.716 188.212 462.076 187.932 462.076 187.282C462.076 186.712 461.746 186.352 461.116 186.352C460.396 186.352 460.046 186.772 459.926 187.532L458.456 187.442C458.596 185.992 459.506 185.092 461.136 185.092C462.726 185.092 463.546 185.942 463.546 187.202C463.546 188.342 463.056 188.902 461.656 189.662C460.506 190.282 460.096 190.712 460.056 191.072H463.546V192.352H458.426Z" fill="black"/>
<path id="336" d="M26.5783 178.598C24.9483 178.598 24.1383 177.767 24.0683 176.477L25.5083 176.407C25.5683 177.097 26.0283 177.337 26.6083 177.337C27.2383 177.337 27.7283 177.037 27.7283 176.337C27.7283 175.657 27.2783 175.297 26.5383 175.297H26.0083V174.167H26.5383C27.0983 174.167 27.5083 173.917 27.5083 173.307C27.5083 172.717 27.1583 172.427 26.5983 172.427C25.9783 172.427 25.6783 172.737 25.6183 173.227L24.1783 173.158C24.3183 171.947 25.1483 171.177 26.6083 171.177C28.0683 171.177 28.9683 171.897 28.9683 173.117C28.9683 173.887 28.5683 174.397 27.8183 174.637C28.6883 174.887 29.1883 175.537 29.1883 176.437C29.1883 177.778 28.1783 178.598 26.5783 178.598ZM32.5744 178.598C30.9444 178.598 30.1344 177.767 30.0644 176.477L31.5044 176.407C31.5644 177.097 32.0244 177.337 32.6044 177.337C33.2344 177.337 33.7244 177.037 33.7244 176.337C33.7244 175.657 33.2744 175.297 32.5344 175.297H32.0044V174.167H32.5344C33.0944 174.167 33.5044 173.917 33.5044 173.307C33.5044 172.717 33.1544 172.427 32.5944 172.427C31.9744 172.427 31.6744 172.737 31.6144 173.227L30.1744 173.158C30.3144 171.947 31.1444 171.177 32.6044 171.177C34.0644 171.177 34.9644 171.897 34.9644 173.117C34.9644 173.887 34.5644 174.397 33.8144 174.637C34.6844 174.887 35.1844 175.537 35.1844 176.437C35.1844 177.778 34.1744 178.598 32.5744 178.598ZM38.6405 178.598C36.9105 178.598 36.0005 177.427 36.0005 175.367C36.0005 173.017 36.8105 171.177 38.9005 171.177C40.3005 171.177 40.9505 171.937 41.2105 172.957L39.7705 173.057C39.6705 172.697 39.4405 172.437 38.9005 172.437C38.1605 172.437 37.6405 172.947 37.4805 174.167C37.8205 173.867 38.3005 173.647 38.9305 173.647C40.3405 173.647 41.2405 174.597 41.2405 176.027C41.2405 177.607 40.2105 178.598 38.6405 178.598ZM38.6105 177.317C39.3605 177.317 39.7805 176.877 39.7805 176.077C39.7805 175.337 39.4005 174.857 38.6705 174.857C37.9305 174.857 37.4605 175.347 37.4605 176.087C37.4605 176.767 37.8805 177.317 38.6105 177.317Z" fill="black"/>
<path id="357" d="M25.511 130.765C23.881 130.765 23.071 129.935 23.001 128.645L24.441 128.575C24.501 129.265 24.961 129.505 25.541 129.505C26.171 129.505 26.661 129.205 26.661 128.505C26.661 127.825 26.211 127.465 25.471 127.465H24.941V126.335H25.471C26.031 126.335 26.441 126.085 26.441 125.475C26.441 124.885 26.091 124.595 25.531 124.595C24.911 124.595 24.611 124.905 24.551 125.395L23.111 125.325C23.251 124.115 24.081 123.345 25.541 123.345C27.001 123.345 27.901 124.065 27.901 125.285C27.901 126.055 27.501 126.565 26.751 126.805C27.621 127.055 28.121 127.705 28.121 128.605C28.121 129.945 27.111 130.765 25.511 130.765ZM31.5471 130.765C30.0471 130.765 29.1371 129.875 29.0371 128.705L30.4971 128.625C30.5871 129.205 30.9371 129.505 31.5471 129.505C32.2071 129.505 32.6171 129.085 32.6171 128.275C32.6171 127.485 32.1971 127.025 31.5571 127.025C31.1171 127.025 30.7471 127.285 30.6071 127.645L29.1371 127.575L29.5571 123.505H33.7471V124.785H30.7271L30.5471 126.315C30.8771 126.035 31.3171 125.875 31.7971 125.875C33.2071 125.875 34.0771 126.895 34.0771 128.285C34.0771 129.755 33.0771 130.765 31.5471 130.765ZM36.2232 130.605C36.2232 128.455 37.1232 126.495 38.5932 124.785H35.0932V123.505H40.0132V124.715C38.3832 126.575 37.7132 128.165 37.7132 130.605H36.2232Z" fill="black"/>
</g>
<path id="field" d="M18.4524 179.316V195.865L82.6485 260.061V280.293L144.942 373.82L153.525 382.321V390.157L197.63 434.262L202.498 429.394L212.287 439.462C233.305 461.079 268.097 460.832 288.806 438.919L297.808 429.394L302.675 434.262L346.78 390.157V382.321L355.281 373.82L414.804 270.724L473.667 210.972V190.343L464.037 180.713V163.11L473.667 153.48V144.131L362.256 32.7195L289.359 22.8867H213.232L205.184 30.9339H142.879L29.6825 144.131C25.9392 151.833 18.4524 169.653 18.4524 179.316Z" fill="#2F241D" fill-opacity="0.1" fill="none" stroke="#2F241D" stroke-width="1.002"/>
</g>
</svg>
