<svg width="500" height="470" viewBox="0 0 500 470" fill="none" xmlns="http://www.w3.org/2000/svg">
<g id="petco-park-2015">
<g id="Infield">
<path d="M339.98 327.764C339.453 325.664 322.032 258.477 250.83 258.477C180.238 258.477 162.505 324.536 161.697 327.697C161.677 327.775 161.668 327.814 161.668 327.814L236.504 402.651C235.305 404.91 234.623 407.487 234.623 410.236C234.623 419.184 241.873 426.443 250.83 426.443C259.778 426.443 267.037 419.184 267.037 410.236C267.037 407.487 266.356 404.91 265.156 402.655L260.695 397.373C257.96 395.276 254.544 394.024 250.83 394.024C247.117 394.024 243.701 395.276 240.971 397.368L197.7 354.098C201.448 350.351 201.448 344.275 197.7 340.528C197.698 340.525 197.694 340.523 197.691 340.52L244.055 294.036C247.8 297.772 253.861 297.772 257.606 294.036L303.431 339.982C303.431 339.982 303.427 339.983 303.424 339.986C299.677 343.734 300.275 350.298 304.022 354.045L260.695 397.373L265.156 402.655L339.98 327.764Z" fill="#D2D2D2"/>
<path d="M259.91 345.704C259.91 350.719 255.845 354.785 250.83 354.785C245.815 354.785 241.75 350.719 241.75 345.704C241.75 340.689 245.815 336.624 250.83 336.624C255.845 336.624 259.91 340.689 259.91 345.704Z" fill="#D2D2D2"/>
</g>
<g id="Guides">
<g id="Home">
<circle id="Ellipse 1" cx="250.827" cy="410.421" r="16.0848" fill="#D2D2D2"/>
<circle id="Ellipse 1_2" cx="250.827" cy="410.422" r="1.62919" fill="black"/>
</g>
<g id="First">
<circle id="Ellipse 1_3" cx="311.125" cy="346.535" r="10.1878" fill="#D2D2D2"/>
<circle id="Ellipse 1_4" cx="311.125" cy="346.536" r="1.0319" fill="black"/>
</g>
<g id="Third">
<circle id="Ellipse 1_5" cx="190.34" cy="346.535" r="10.1878" fill="#D2D2D2"/>
<circle id="Ellipse 1_6" cx="190.34" cy="346.536" r="1.0319" fill="black"/>
</g>
<g id="Second">
<circle id="Ellipse 1_7" cx="250.827" cy="286.672" r="10.1878" fill="#D2D2D2"/>
<circle id="Ellipse 1_8" cx="250.827" cy="286.673" r="1.0319" fill="black"/>
</g>
<g id="Mound">
<circle id="Ellipse 1_9" cx="250.827" cy="345.931" r="9.08365" fill="#D2D2D2"/>
<circle id="Ellipse 1_10" cx="250.827" cy="345.932" r="0.920062" fill="black"/>
</g>
</g>
<path id="Foul Lines" d="M472.566 188.927L250.976 410.514L18.4259 177.965" fill="none" stroke="black" stroke-width="1.002"/>
<g id="Measurements">
<path id="396" d="M283.04 19.1639C281.41 19.1639 280.6 18.3339 280.53 17.0439L281.97 16.9739C282.03 17.6639 282.49 17.9039 283.07 17.9039C283.7 17.9039 284.19 17.6039 284.19 16.9039C284.19 16.2239 283.74 15.8639 283 15.8639H282.47V14.7339H283C283.56 14.7339 283.97 14.4839 283.97 13.8739C283.97 13.2839 283.62 12.9939 283.06 12.9939C282.44 12.9939 282.14 13.3039 282.08 13.7939L280.64 13.7239C280.78 12.5139 281.61 11.7439 283.07 11.7439C284.53 11.7439 285.43 12.4639 285.43 13.6839C285.43 14.4539 285.03 14.9639 284.28 15.2039C285.15 15.4539 285.65 16.1039 285.65 17.0039C285.65 18.3439 284.64 19.1639 283.04 19.1639ZM289.066 11.7439C290.796 11.7439 291.706 12.9139 291.706 14.9739C291.706 17.3239 290.896 19.1639 288.806 19.1639C287.406 19.1639 286.756 18.4039 286.496 17.3839L287.936 17.2839C288.036 17.6439 288.266 17.9039 288.806 17.9039C289.546 17.9039 290.066 17.3939 290.226 16.1739C289.886 16.4739 289.406 16.6939 288.776 16.6939C287.366 16.6939 286.466 15.7439 286.466 14.3139C286.466 12.7339 287.496 11.7439 289.066 11.7439ZM289.096 13.0239C288.346 13.0239 287.926 13.4639 287.926 14.2639C287.926 15.0039 288.306 15.4839 289.036 15.4839C289.776 15.4839 290.246 14.9939 290.246 14.2539C290.246 13.5739 289.826 13.0239 289.096 13.0239ZM295.102 19.1639C293.372 19.1639 292.462 17.9939 292.462 15.9339C292.462 13.5839 293.272 11.7439 295.362 11.7439C296.762 11.7439 297.412 12.5039 297.672 13.5239L296.232 13.6239C296.132 13.2639 295.902 13.0039 295.362 13.0039C294.622 13.0039 294.102 13.5139 293.942 14.7339C294.282 14.4339 294.762 14.2139 295.392 14.2139C296.802 14.2139 297.702 15.1639 297.702 16.5939C297.702 18.1739 296.672 19.1639 295.102 19.1639ZM295.072 17.8839C295.822 17.8839 296.242 17.4439 296.242 16.6439C296.242 15.9039 295.862 15.4239 295.132 15.4239C294.392 15.4239 293.922 15.9139 293.922 16.6539C293.922 17.3339 294.342 17.8839 295.072 17.8839Z" fill="black"/>
<path id="322" d="M448.944 192.512C447.314 192.512 446.504 191.682 446.434 190.392L447.874 190.322C447.934 191.012 448.394 191.252 448.974 191.252C449.604 191.252 450.094 190.952 450.094 190.252C450.094 189.572 449.644 189.212 448.904 189.212H448.374V188.082H448.904C449.464 188.082 449.874 187.832 449.874 187.222C449.874 186.632 449.524 186.342 448.964 186.342C448.344 186.342 448.044 186.652 447.984 187.142L446.544 187.072C446.684 185.862 447.514 185.092 448.974 185.092C450.434 185.092 451.334 185.812 451.334 187.032C451.334 187.802 450.934 188.312 450.184 188.552C451.054 188.802 451.554 189.452 451.554 190.352C451.554 191.692 450.544 192.512 448.944 192.512ZM452.43 192.352C452.43 190.622 453.01 189.612 454.99 188.592C455.72 188.212 456.08 187.932 456.08 187.282C456.08 186.712 455.75 186.352 455.12 186.352C454.4 186.352 454.05 186.772 453.93 187.532L452.46 187.442C452.6 185.992 453.51 185.092 455.14 185.092C456.73 185.092 457.55 185.942 457.55 187.202C457.55 188.342 457.06 188.902 455.66 189.662C454.51 190.282 454.1 190.712 454.06 191.072H457.55V192.352H452.43ZM458.426 192.352C458.426 190.622 459.006 189.612 460.986 188.592C461.716 188.212 462.076 187.932 462.076 187.282C462.076 186.712 461.746 186.352 461.116 186.352C460.396 186.352 460.046 186.772 459.926 187.532L458.456 187.442C458.596 185.992 459.506 185.092 461.136 185.092C462.726 185.092 463.546 185.942 463.546 187.202C463.546 188.342 463.056 188.902 461.656 189.662C460.506 190.282 460.096 190.712 460.056 191.072H463.546V192.352H458.426Z" fill="black"/>
<path id="336" d="M26.5783 178.598C24.9483 178.598 24.1383 177.767 24.0683 176.477L25.5083 176.407C25.5683 177.097 26.0283 177.337 26.6083 177.337C27.2383 177.337 27.7283 177.037 27.7283 176.337C27.7283 175.657 27.2783 175.297 26.5383 175.297H26.0083V174.167H26.5383C27.0983 174.167 27.5083 173.917 27.5083 173.307C27.5083 172.717 27.1583 172.427 26.5983 172.427C25.9783 172.427 25.6783 172.737 25.6183 173.227L24.1783 173.158C24.3183 171.947 25.1483 171.177 26.6083 171.177C28.0683 171.177 28.9683 171.897 28.9683 173.117C28.9683 173.887 28.5683 174.397 27.8183 174.637C28.6883 174.887 29.1883 175.537 29.1883 176.437C29.1883 177.778 28.1783 178.598 26.5783 178.598ZM32.5744 178.598C30.9444 178.598 30.1344 177.767 30.0644 176.477L31.5044 176.407C31.5644 177.097 32.0244 177.337 32.6044 177.337C33.2344 177.337 33.7244 177.037 33.7244 176.337C33.7244 175.657 33.2744 175.297 32.5344 175.297H32.0044V174.167H32.5344C33.0944 174.167 33.5044 173.917 33.5044 173.307C33.5044 172.717 33.1544 172.427 32.5944 172.427C31.9744 172.427 31.6744 172.737 31.6144 173.227L30.1744 173.158C30.3144 171.947 31.1444 171.177 32.6044 171.177C34.0644 171.177 34.9644 171.897 34.9644 173.117C34.9644 173.887 34.5644 174.397 33.8144 174.637C34.6844 174.887 35.1844 175.537 35.1844 176.437C35.1844 177.778 34.1744 178.598 32.5744 178.598ZM38.6405 178.598C36.9105 178.598 36.0005 177.427 36.0005 175.367C36.0005 173.017 36.8105 171.177 38.9005 171.177C40.3005 171.177 40.9505 171.937 41.2105 172.957L39.7705 173.057C39.6705 172.697 39.4405 172.437 38.9005 172.437C38.1605 172.437 37.6405 172.947 37.4805 174.167C37.8205 173.867 38.3005 173.647 38.9305 173.647C40.3405 173.647 41.2405 174.597 41.2405 176.027C41.2405 177.607 40.2105 178.598 38.6405 178.598ZM38.6105 177.317C39.3605 177.317 39.7805 176.877 39.7805 176.077C39.7805 175.337 39.4005 174.857 38.6705 174.857C37.9305 174.857 37.4605 175.347 37.4605 176.087C37.4605 176.767 37.8805 177.317 38.6105 177.317Z" fill="black"/>
</g>
<path id="field" d="M18.4524 179.316V195.865L82.6485 260.061V280.293L144.942 373.82L153.525 382.321V390.157L197.63 434.262L202.498 429.394L212.287 439.462C233.305 461.079 268.097 460.832 288.806 438.919L297.808 429.394L302.675 434.262L346.78 390.157V382.321L355.281 373.82L414.803 270.724L473.667 210.972V190.343L464.037 180.713V147.481L355.281 38.9546L329.157 27.2637L289.359 22.8868L219.307 22.8867L210.484 30.9339H162.397L117.399 58.5864L29.8278 146.157C26.0844 153.86 18.4524 169.653 18.4524 179.316Z" fill="#2F241D" fill-opacity="0.1" fill="none" stroke="#2F241D" stroke-width="1.002"/>
</g>
</svg>
