<svg width="500" height="470" viewBox="0 0 500 470" fill="none" xmlns="http://www.w3.org/2000/svg">
<g id="pnc-park-2001">
<g id="Infield">
<path d="M339.98 327.764C339.453 325.664 322.032 258.477 250.83 258.477C180.238 258.477 162.505 324.536 161.697 327.697C161.677 327.775 161.668 327.814 161.668 327.814L236.504 402.651C235.305 404.91 234.623 407.487 234.623 410.236C234.623 419.184 241.873 426.443 250.83 426.443C259.778 426.443 267.037 419.184 267.037 410.236C267.037 407.487 266.356 404.91 265.156 402.655L260.695 397.373C257.96 395.276 254.544 394.024 250.83 394.024C247.117 394.024 243.701 395.276 240.971 397.368L197.7 354.098C201.448 350.351 201.448 344.275 197.7 340.528C197.698 340.525 197.694 340.523 197.691 340.52L244.055 294.036C247.8 297.772 253.861 297.772 257.606 294.036L303.431 339.982C303.431 339.982 303.427 339.983 303.424 339.986C299.677 343.734 300.275 350.298 304.022 354.045L260.695 397.373L265.156 402.655L339.98 327.764Z" fill="#D2D2D2"/>
<path d="M259.91 345.704C259.91 350.719 255.845 354.785 250.83 354.785C245.815 354.785 241.75 350.719 241.75 345.704C241.75 340.689 245.815 336.624 250.83 336.624C255.845 336.624 259.91 340.689 259.91 345.704Z" fill="#D2D2D2"/>
</g>
<g id="Guides">
<g id="Home">
<circle id="Ellipse 1" cx="250.827" cy="410.421" r="16.0848" fill="#D2D2D2"/>
<circle id="Ellipse 1_2" cx="250.827" cy="410.422" r="1.62919" fill="black"/>
</g>
<g id="First">
<circle id="Ellipse 1_3" cx="311.125" cy="346.535" r="10.1878" fill="#D2D2D2"/>
<circle id="Ellipse 1_4" cx="311.125" cy="346.536" r="1.0319" fill="black"/>
</g>
<g id="Third">
<circle id="Ellipse 1_5" cx="190.34" cy="346.535" r="10.1878" fill="#D2D2D2"/>
<circle id="Ellipse 1_6" cx="190.34" cy="346.536" r="1.0319" fill="black"/>
</g>
<g id="Second">
<circle id="Ellipse 1_7" cx="250.827" cy="286.672" r="10.1878" fill="#D2D2D2"/>
<circle id="Ellipse 1_8" cx="250.827" cy="286.673" r="1.0319" fill="black"/>
</g>
<g id="Mound">
<circle id="Ellipse 1_9" cx="250.827" cy="345.931" r="9.08365" fill="#D2D2D2"/>
<circle id="Ellipse 1_10" cx="250.827" cy="345.932" r="0.920062" fill="black"/>
</g>
</g>
<path id="Foul Lines" d="M471.829 189.663L250.976 410.514L26.8084 186.348" fill="none" stroke="black" stroke-width="1.002"/>
<g id="Measurements">
<path id="399" d="M241.703 15.8592C240.073 15.8592 239.263 15.0292 239.193 13.7392L240.633 13.6692C240.693 14.3592 241.153 14.5992 241.733 14.5992C242.363 14.5992 242.853 14.2992 242.853 13.5992C242.853 12.9192 242.403 12.5592 241.663 12.5592H241.133V11.4292H241.663C242.223 11.4292 242.633 11.1792 242.633 10.5692C242.633 9.97922 242.283 9.68922 241.723 9.68922C241.103 9.68922 240.803 9.99922 240.743 10.4892L239.303 10.4192C239.443 9.20922 240.273 8.43922 241.733 8.43922C243.193 8.43922 244.093 9.15922 244.093 10.3792C244.093 11.1492 243.693 11.6592 242.943 11.8992C243.813 12.1492 244.313 12.7992 244.313 13.6992C244.313 15.0392 243.303 15.8592 241.703 15.8592ZM247.729 8.43922C249.459 8.43922 250.369 9.60922 250.369 11.6692C250.369 14.0192 249.559 15.8592 247.469 15.8592C246.069 15.8592 245.419 15.0992 245.159 14.0792L246.599 13.9792C246.699 14.3392 246.929 14.5992 247.469 14.5992C248.209 14.5992 248.729 14.0892 248.889 12.8692C248.549 13.1692 248.069 13.3892 247.439 13.3892C246.029 13.3892 245.129 12.4392 245.129 11.0092C245.129 9.42922 246.159 8.43922 247.729 8.43922ZM247.759 9.71922C247.009 9.71922 246.589 10.1592 246.589 10.9592C246.589 11.6992 246.969 12.1792 247.699 12.1792C248.439 12.1792 248.909 11.6892 248.909 10.9492C248.909 10.2692 248.489 9.71922 247.759 9.71922ZM253.725 8.43922C255.455 8.43922 256.365 9.60922 256.365 11.6692C256.365 14.0192 255.555 15.8592 253.465 15.8592C252.065 15.8592 251.415 15.0992 251.155 14.0792L252.595 13.9792C252.695 14.3392 252.925 14.5992 253.465 14.5992C254.205 14.5992 254.725 14.0892 254.885 12.8692C254.545 13.1692 254.065 13.3892 253.435 13.3892C252.025 13.3892 251.125 12.4392 251.125 11.0092C251.125 9.42922 252.155 8.43922 253.725 8.43922ZM253.755 9.71922C253.005 9.71922 252.585 10.1592 252.585 10.9592C252.585 11.6992 252.965 12.1792 253.695 12.1792C254.435 12.1792 254.905 11.6892 254.905 10.9492C254.905 10.2692 254.485 9.71922 253.755 9.71922Z" fill="black"/>
<path id="410" d="M142.514 15.7383V14.3183H139.344V13.1483L142.324 8.63828H143.944V13.0783H144.784V14.3183H143.944V15.7383H142.514ZM140.684 13.0783H142.514V10.4283L140.684 13.0783ZM145.54 15.7383V14.4583H147.58V11.0783H145.84V9.89828H146.62C147.42 9.89828 147.76 9.55828 147.76 8.63828H149V14.4583H150.58V15.7383H145.54ZM154.056 15.8983C152.456 15.8983 151.496 14.4883 151.496 12.1983C151.496 9.89828 152.456 8.47828 154.056 8.47828C155.656 8.47828 156.616 9.89828 156.616 12.1983C156.616 14.4883 155.656 15.8983 154.056 15.8983ZM152.956 12.1983C152.956 12.6283 152.986 12.9983 153.046 13.3083L154.736 10.1183C154.556 9.86828 154.326 9.73828 154.056 9.73828C153.366 9.73828 152.956 10.5583 152.956 12.1983ZM154.056 14.6383C154.746 14.6383 155.156 13.8283 155.156 12.1983C155.156 11.7683 155.126 11.3883 155.066 11.0683L153.376 14.2583C153.556 14.5083 153.786 14.6383 154.056 14.6383Z" fill="black"/>
<path id="375" d="M398.729 71.0702C397.099 71.0702 396.289 70.2402 396.219 68.9502L397.659 68.8802C397.719 69.5702 398.179 69.8102 398.759 69.8102C399.389 69.8102 399.879 69.5102 399.879 68.8102C399.879 68.1302 399.429 67.7702 398.689 67.7702H398.159V66.6402H398.689C399.249 66.6402 399.659 66.3902 399.659 65.7802C399.659 65.1902 399.309 64.9002 398.749 64.9002C398.129 64.9002 397.829 65.2102 397.769 65.7002L396.329 65.6302C396.469 64.4202 397.299 63.6502 398.759 63.6502C400.219 63.6502 401.119 64.3702 401.119 65.5902C401.119 66.3602 400.719 66.8702 399.969 67.1102C400.839 67.3602 401.339 68.0102 401.339 68.9102C401.339 70.2502 400.329 71.0702 398.729 71.0702ZM403.446 70.9102C403.446 68.7602 404.346 66.8002 405.816 65.0902H402.316V63.8102H407.236V65.0202C405.606 66.8802 404.936 68.4702 404.936 70.9102H403.446ZM410.762 71.0702C409.262 71.0702 408.352 70.1802 408.252 69.0102L409.712 68.9302C409.802 69.5102 410.152 69.8102 410.762 69.8102C411.422 69.8102 411.832 69.3902 411.832 68.5802C411.832 67.7902 411.412 67.3302 410.772 67.3302C410.332 67.3302 409.962 67.5902 409.822 67.9502L408.352 67.8802L408.772 63.8102H412.962V65.0902H409.942L409.762 66.6202C410.092 66.3402 410.532 66.1802 411.012 66.1802C412.422 66.1802 413.292 67.2002 413.292 68.5902C413.292 70.0602 412.292 71.0702 410.762 71.0702Z" fill="black"/>
<path id="383" d="M67.4251 74.0702C65.7951 74.0702 64.9851 73.2402 64.9151 71.9502L66.3551 71.8802C66.4151 72.5702 66.8751 72.8102 67.4551 72.8102C68.0851 72.8102 68.5751 72.5102 68.5751 71.8102C68.5751 71.1302 68.1251 70.7702 67.3851 70.7702H66.8551V69.6402H67.3851C67.9451 69.6402 68.3551 69.3902 68.3551 68.7802C68.3551 68.1902 68.0051 67.9002 67.4451 67.9002C66.8251 67.9002 66.5251 68.2102 66.4651 68.7002L65.0251 68.6302C65.1651 67.4202 65.9951 66.6502 67.4551 66.6502C68.9151 66.6502 69.8151 67.3702 69.8151 68.5902C69.8151 69.3602 69.4151 69.8702 68.6651 70.1102C69.5351 70.3602 70.0351 71.0102 70.0351 71.9102C70.0351 73.2502 69.0251 74.0702 67.4251 74.0702ZM73.4712 74.0702C71.9012 74.0702 70.8512 73.3502 70.8512 71.9702C70.8512 71.0402 71.3912 70.3802 72.2612 70.1002C71.5912 69.8402 71.1412 69.3502 71.1412 68.6102C71.1412 67.4702 72.0712 66.6502 73.4712 66.6502C74.8712 66.6502 75.8012 67.4702 75.8012 68.6102C75.8012 69.3502 75.3512 69.8402 74.6712 70.1002C75.5512 70.3802 76.0912 71.0402 76.0912 71.9702C76.0912 73.3502 75.0412 74.0702 73.4712 74.0702ZM73.4712 69.5302C73.9812 69.5302 74.3312 69.2602 74.3312 68.7002C74.3312 68.2002 73.9912 67.9102 73.4712 67.9102C72.9512 67.9102 72.6112 68.2002 72.6112 68.7002C72.6112 69.2602 72.9612 69.5302 73.4712 69.5302ZM73.4712 72.8102C74.1112 72.8102 74.6312 72.5302 74.6312 71.8302C74.6312 71.1602 74.2012 70.7402 73.4712 70.7402C72.7412 70.7402 72.3112 71.1602 72.3112 71.8302C72.3112 72.5302 72.8312 72.8102 73.4712 72.8102ZM79.4173 74.0702C77.7873 74.0702 76.9773 73.2402 76.9073 71.9502L78.3473 71.8802C78.4073 72.5702 78.8673 72.8102 79.4473 72.8102C80.0773 72.8102 80.5673 72.5102 80.5673 71.8102C80.5673 71.1302 80.1173 70.7702 79.3773 70.7702H78.8473V69.6402H79.3773C79.9373 69.6402 80.3473 69.3902 80.3473 68.7802C80.3473 68.1902 79.9973 67.9002 79.4373 67.9002C78.8173 67.9002 78.5173 68.2102 78.4573 68.7002L77.0173 68.6302C77.1573 67.4202 77.9873 66.6502 79.4473 66.6502C80.9073 66.6502 81.8073 67.3702 81.8073 68.5902C81.8073 69.3602 81.4073 69.8702 80.6573 70.1102C81.5273 70.3602 82.0273 71.0102 82.0273 71.9102C82.0273 73.2502 81.0173 74.0702 79.4173 74.0702Z" fill="black"/>
<path id="320" d="M450.352 192.285C448.722 192.285 447.912 191.455 447.842 190.165L449.282 190.095C449.342 190.785 449.802 191.025 450.382 191.025C451.012 191.025 451.502 190.725 451.502 190.025C451.502 189.345 451.052 188.985 450.312 188.985H449.782V187.855H450.312C450.872 187.855 451.282 187.605 451.282 186.995C451.282 186.405 450.932 186.115 450.372 186.115C449.752 186.115 449.452 186.425 449.392 186.915L447.952 186.845C448.092 185.635 448.922 184.865 450.382 184.865C451.842 184.865 452.742 185.585 452.742 186.805C452.742 187.575 452.342 188.085 451.592 188.325C452.462 188.575 452.962 189.225 452.962 190.125C452.962 191.465 451.952 192.285 450.352 192.285ZM453.838 192.125C453.838 190.395 454.418 189.385 456.398 188.365C457.128 187.985 457.488 187.705 457.488 187.055C457.488 186.485 457.158 186.125 456.528 186.125C455.808 186.125 455.458 186.545 455.338 187.305L453.868 187.215C454.008 185.765 454.918 184.865 456.548 184.865C458.138 184.865 458.958 185.715 458.958 186.975C458.958 188.115 458.468 188.675 457.068 189.435C455.918 190.055 455.508 190.485 455.468 190.845H458.958V192.125H453.838ZM462.394 192.285C460.794 192.285 459.834 190.875 459.834 188.585C459.834 186.285 460.794 184.865 462.394 184.865C463.994 184.865 464.954 186.285 464.954 188.585C464.954 190.875 463.994 192.285 462.394 192.285ZM461.294 188.585C461.294 189.015 461.324 189.385 461.384 189.695L463.074 186.505C462.894 186.255 462.664 186.125 462.394 186.125C461.704 186.125 461.294 186.945 461.294 188.585ZM462.394 191.025C463.084 191.025 463.494 190.215 463.494 188.585C463.494 188.155 463.464 187.775 463.404 187.455L461.714 190.645C461.894 190.895 462.124 191.025 462.394 191.025Z" fill="black"/>
<path id="325" d="M33.1096 185.785C31.4796 185.785 30.6696 184.955 30.5996 183.665L32.0396 183.595C32.0996 184.285 32.5596 184.525 33.1396 184.525C33.7696 184.525 34.2596 184.225 34.2596 183.525C34.2596 182.845 33.8096 182.485 33.0696 182.485H32.5396V181.355H33.0696C33.6296 181.355 34.0396 181.105 34.0396 180.495C34.0396 179.905 33.6896 179.615 33.1296 179.615C32.5096 179.615 32.2096 179.925 32.1496 180.415L30.7096 180.345C30.8496 179.135 31.6796 178.365 33.1396 178.365C34.5996 178.365 35.4996 179.085 35.4996 180.305C35.4996 181.075 35.0996 181.585 34.3496 181.825C35.2196 182.075 35.7196 182.725 35.7196 183.625C35.7196 184.965 34.7096 185.785 33.1096 185.785ZM36.5957 185.625C36.5957 183.895 37.1757 182.885 39.1557 181.865C39.8857 181.485 40.2457 181.205 40.2457 180.555C40.2457 179.985 39.9157 179.625 39.2857 179.625C38.5657 179.625 38.2157 180.045 38.0957 180.805L36.6257 180.715C36.7657 179.265 37.6757 178.365 39.3057 178.365C40.8957 178.365 41.7157 179.215 41.7157 180.475C41.7157 181.615 41.2257 182.175 39.8257 182.935C38.6757 183.555 38.2657 183.985 38.2257 184.345H41.7157V185.625H36.5957ZM45.1418 185.785C43.6418 185.785 42.7318 184.895 42.6318 183.725L44.0918 183.645C44.1818 184.225 44.5318 184.525 45.1418 184.525C45.8018 184.525 46.2118 184.105 46.2118 183.295C46.2118 182.505 45.7918 182.045 45.1518 182.045C44.7118 182.045 44.3418 182.305 44.2018 182.665L42.7318 182.595L43.1518 178.525H47.3418V179.805H44.3218L44.1418 181.335C44.4718 181.055 44.9118 180.895 45.3918 180.895C46.8018 180.895 47.6718 181.915 47.6718 183.305C47.6718 184.775 46.6718 185.785 45.1418 185.785Z" fill="black"/>
</g>
<path id="field" d="M433.958 239.015L476.145 196.828L394.695 72.1072L327.229 34.5979L247.427 21.0039L165.863 34.5979L153.024 18.7383L32.4626 116.532L26.2077 196.945L74.7744 245.511L72.7848 278.511L205.196 439.876C228.808 468.651 272.839 468.639 296.435 439.853L399.885 313.653L433.958 239.015Z" fill="#27251F" fill-opacity="0.1" fill="none" stroke="#27251F" stroke-width="1.002"/>
</g>
</svg>
