<svg width="500" height="470" viewBox="0 0 500 470" fill="none" xmlns="http://www.w3.org/2000/svg">
<g id="polo-grounds-1911" clip-path="url(#clip0_81_559)">
<g id="Infield">
<path d="M339.98 327.765C339.453 325.665 322.032 258.478 250.83 258.478C180.238 258.478 162.505 324.537 161.697 327.698C161.677 327.775 161.668 327.815 161.668 327.815L236.504 402.652C235.305 404.911 234.623 407.488 234.623 410.237C234.623 419.185 241.873 426.444 250.83 426.444C259.778 426.444 267.037 419.185 267.037 410.237C267.037 407.488 266.356 404.911 265.156 402.656L260.695 397.374C257.96 395.277 254.544 394.025 250.83 394.025C247.117 394.025 243.701 395.277 240.971 397.369L197.7 354.099C201.448 350.352 201.448 344.276 197.7 340.529C197.698 340.526 197.694 340.524 197.691 340.521L244.055 294.037C247.8 297.772 253.861 297.772 257.606 294.037L303.431 339.983C303.431 339.983 303.427 339.984 303.424 339.987C299.677 343.735 300.275 350.299 304.022 354.046L260.695 397.374L265.156 402.656L339.98 327.765Z" fill="#D2D2D2"/>
<path d="M259.91 345.705C259.91 350.72 255.845 354.786 250.83 354.786C245.815 354.786 241.75 350.72 241.75 345.705C241.75 340.69 245.815 336.625 250.83 336.625C255.845 336.625 259.91 340.69 259.91 345.705Z" fill="#D2D2D2"/>
</g>
<g id="Guides">
<g id="Home">
<circle id="Ellipse 1" cx="250.827" cy="410.42" r="16.0848" fill="#D2D2D2"/>
<circle id="Ellipse 1_2" cx="250.827" cy="410.42" r="1.62919" fill="black"/>
</g>
<g id="First">
<circle id="Ellipse 1_3" cx="311.125" cy="346.532" r="10.1878" fill="#D2D2D2"/>
<circle id="Ellipse 1_4" cx="311.125" cy="346.532" r="1.0319" fill="black"/>
</g>
<g id="Third">
<circle id="Ellipse 1_5" cx="190.34" cy="346.532" r="10.1878" fill="#D2D2D2"/>
<circle id="Ellipse 1_6" cx="190.34" cy="346.532" r="1.0319" fill="black"/>
</g>
<g id="Second">
<circle id="Ellipse 1_7" cx="250.827" cy="286.67" r="10.1878" fill="#D2D2D2"/>
<circle id="Ellipse 1_8" cx="250.827" cy="286.671" r="1.0319" fill="black"/>
</g>
<g id="Mound">
<circle id="Ellipse 1_9" cx="250.827" cy="345.928" r="9.08365" fill="#D2D2D2"/>
<circle id="Ellipse 1_10" cx="250.827" cy="345.929" r="0.920062" fill="black"/>
</g>
</g>
<path id="Foul Lines" d="M430.248 231.244L250.976 410.516L58.7569 218.297" fill="none" stroke="black" stroke-width="1.002"/>
<g id="Measurements">
<path id="256" d="M408.428 229.938C408.428 228.208 409.008 227.198 410.988 226.178C411.718 225.798 412.078 225.518 412.078 224.868C412.078 224.298 411.748 223.938 411.118 223.938C410.398 223.938 410.048 224.358 409.928 225.118L408.458 225.028C408.598 223.578 409.508 222.678 411.138 222.678C412.728 222.678 413.548 223.528 413.548 224.788C413.548 225.928 413.058 226.488 411.658 227.248C410.508 227.868 410.098 228.298 410.058 228.658H413.548V229.938H408.428ZM416.974 230.098C415.474 230.098 414.564 229.208 414.464 228.038L415.924 227.958C416.014 228.538 416.364 228.838 416.974 228.838C417.634 228.838 418.044 228.418 418.044 227.608C418.044 226.818 417.624 226.358 416.984 226.358C416.544 226.358 416.174 226.618 416.034 226.978L414.564 226.908L414.984 222.838H419.174V224.118H416.154L415.974 225.648C416.304 225.368 416.744 225.208 417.224 225.208C418.634 225.208 419.504 226.228 419.504 227.618C419.504 229.088 418.504 230.098 416.974 230.098ZM423 230.098C421.27 230.098 420.36 228.928 420.36 226.868C420.36 224.518 421.17 222.678 423.26 222.678C424.66 222.678 425.31 223.438 425.57 224.458L424.13 224.558C424.03 224.198 423.8 223.938 423.26 223.938C422.52 223.938 422 224.448 421.84 225.668C422.18 225.368 422.66 225.148 423.29 225.148C424.7 225.148 425.6 226.098 425.6 227.528C425.6 229.108 424.57 230.098 423 230.098ZM422.97 228.818C423.72 228.818 424.14 228.378 424.14 227.578C424.14 226.838 423.76 226.358 423.03 226.358C422.29 226.358 421.82 226.848 421.82 227.588C421.82 228.268 422.24 228.818 422.97 228.818Z" fill="black"/>
<path id="377" d="M64.5783 216.598C62.9483 216.598 62.1383 215.768 62.0683 214.478L63.5083 214.408C63.5683 215.098 64.0283 215.338 64.6083 215.338C65.2383 215.338 65.7283 215.038 65.7283 214.338C65.7283 213.658 65.2783 213.298 64.5383 213.298H64.0083V212.168H64.5383C65.0983 212.168 65.5083 211.918 65.5083 211.308C65.5083 210.718 65.1583 210.428 64.5983 210.428C63.9783 210.428 63.6783 210.738 63.6183 211.228L62.1783 211.158C62.3183 209.948 63.1483 209.178 64.6083 209.178C66.0683 209.178 66.9683 209.898 66.9683 211.118C66.9683 211.888 66.5683 212.398 65.8183 212.638C66.6883 212.888 67.1883 213.538 67.1883 214.438C67.1883 215.778 66.1783 216.598 64.5783 216.598ZM69.2944 216.438C69.2944 214.288 70.1944 212.328 71.6644 210.618H68.1644V209.338H73.0844V210.548C71.4544 212.408 70.7844 213.998 70.7844 216.438H69.2944ZM75.2905 216.438C75.2905 214.288 76.1905 212.328 77.6605 210.618H74.1605V209.338H79.0805V210.548C77.4505 212.408 76.7805 213.998 76.7805 216.438H75.2905Z" fill="black"/>
</g>
<path id="field" d="M100.907 328.422C100.907 385.281 158.279 468.902 250.83 468.902C343.381 468.902 400.583 385.28 400.583 328.422V289.934H410.205V281.187H430.033V98.0738L394.751 17.0143L294.156 -13.3105H153.614L70.8051 77.3716L58.5587 158.723V281.187H91.2157V289.934H100.907V328.422Z" fill="#FF5910" fill-opacity="0.1" fill="none" stroke="#FF5910" stroke-width="1.002"/>
</g>
<defs>
<clipPath id="clip0_81_559">
<rect width="500" height="469.94" fill="white"/>
</clipPath>
</defs>
</svg>
