<svg width="500" height="470" viewBox="0 0 500 470" fill="none" xmlns="http://www.w3.org/2000/svg">
<g id="polo-grounds-1962" clip-path="url(#clip0_81_667)">
<path id="field" d="M96.907 328.423C96.907 385.281 158.279 483.878 250.83 483.878C343.381 483.878 404.583 385.28 404.583 328.423V289.934H430.033V44.0817C430.033 14.2584 405.856 -9.91825 376.033 -9.91825H283.23V-49.9316H217.831V-9.91825H125.533C95.7101 -9.91825 71.5334 14.2583 71.5334 44.0817V289.934H96.907V328.423Z" fill="#FF5910" fill-opacity="0.1" fill="none" stroke="#FF5910" stroke-width="1.002"/>
<g id="Infield">
<path d="M339.98 327.765C339.453 325.665 322.032 258.478 250.83 258.478C180.238 258.478 162.505 324.537 161.697 327.698C161.677 327.775 161.668 327.815 161.668 327.815L236.504 402.652C235.305 404.911 234.623 407.488 234.623 410.237C234.623 419.185 241.873 426.444 250.83 426.444C259.778 426.444 267.037 419.185 267.037 410.237C267.037 407.488 266.356 404.911 265.157 402.656L260.695 397.374C257.96 395.277 254.544 394.025 250.83 394.025C247.117 394.025 243.701 395.277 240.971 397.369L197.7 354.099C201.448 350.352 201.448 344.276 197.7 340.529C197.698 340.526 197.694 340.524 197.691 340.521L244.055 294.037C247.8 297.772 253.861 297.772 257.606 294.037L303.431 339.983C303.431 339.983 303.427 339.984 303.424 339.987C299.677 343.735 300.275 350.299 304.022 354.046L260.695 397.374L265.157 402.656L339.98 327.765Z" fill="#D2D2D2"/>
<path d="M259.91 345.705C259.91 350.72 255.845 354.786 250.83 354.786C245.815 354.786 241.75 350.72 241.75 345.705C241.75 340.69 245.815 336.625 250.83 336.625C255.845 336.625 259.91 340.69 259.91 345.705Z" fill="#D2D2D2"/>
</g>
<path id="Foul Lines" d="M430.248 231.244L250.976 410.516L71.6489 231.189" fill="none" stroke="black" stroke-width="1.002"/>
<g id="Measurements">
<path id="258" d="M408.428 229.938C408.428 228.208 409.008 227.198 410.988 226.178C411.718 225.798 412.078 225.518 412.078 224.868C412.078 224.298 411.748 223.938 411.118 223.938C410.398 223.938 410.048 224.358 409.928 225.118L408.458 225.028C408.598 223.578 409.508 222.678 411.138 222.678C412.728 222.678 413.548 223.528 413.548 224.788C413.548 225.928 413.058 226.488 411.658 227.248C410.508 227.868 410.098 228.298 410.058 228.658H413.548V229.938H408.428ZM416.974 230.098C415.474 230.098 414.564 229.208 414.464 228.038L415.924 227.958C416.014 228.538 416.364 228.838 416.974 228.838C417.634 228.838 418.044 228.418 418.044 227.608C418.044 226.818 417.624 226.358 416.984 226.358C416.544 226.358 416.174 226.618 416.034 226.978L414.564 226.908L414.984 222.838H419.174V224.118H416.154L415.974 225.648C416.304 225.368 416.744 225.208 417.224 225.208C418.634 225.208 419.504 226.228 419.504 227.618C419.504 229.088 418.504 230.098 416.974 230.098ZM422.98 230.098C421.41 230.098 420.36 229.378 420.36 227.998C420.36 227.068 420.9 226.408 421.77 226.128C421.1 225.868 420.65 225.378 420.65 224.638C420.65 223.498 421.58 222.678 422.98 222.678C424.38 222.678 425.31 223.498 425.31 224.638C425.31 225.378 424.86 225.868 424.18 226.128C425.06 226.408 425.6 227.068 425.6 227.998C425.6 229.378 424.55 230.098 422.98 230.098ZM422.98 225.558C423.49 225.558 423.84 225.288 423.84 224.728C423.84 224.228 423.5 223.938 422.98 223.938C422.46 223.938 422.12 224.228 422.12 224.728C422.12 225.288 422.47 225.558 422.98 225.558ZM422.98 228.838C423.62 228.838 424.14 228.558 424.14 227.858C424.14 227.188 423.71 226.768 422.98 226.768C422.25 226.768 421.82 227.188 421.82 227.858C421.82 228.558 422.34 228.838 422.98 228.838Z" fill="black"/>
<path id="279" d="M75.0684 227.438C75.0684 225.708 75.6484 224.698 77.6284 223.678C78.3584 223.298 78.7184 223.018 78.7184 222.368C78.7184 221.798 78.3884 221.438 77.7584 221.438C77.0384 221.438 76.6884 221.858 76.5684 222.618L75.0984 222.528C75.2384 221.078 76.1484 220.178 77.7784 220.178C79.3684 220.178 80.1884 221.028 80.1884 222.288C80.1884 223.428 79.6984 223.988 78.2984 224.748C77.1484 225.368 76.7384 225.798 76.6984 226.158H80.1884V227.438H75.0684ZM82.2945 227.438C82.2945 225.288 83.1945 223.328 84.6645 221.618H81.1645V220.338H86.0845V221.548C84.4545 223.408 83.7845 224.998 83.7845 227.438H82.2945ZM89.6006 220.178C91.3306 220.178 92.2406 221.348 92.2406 223.408C92.2406 225.758 91.4306 227.598 89.3406 227.598C87.9406 227.598 87.2906 226.838 87.0306 225.818L88.4706 225.718C88.5706 226.078 88.8006 226.338 89.3406 226.338C90.0806 226.338 90.6006 225.828 90.7606 224.608C90.4206 224.908 89.9406 225.128 89.3106 225.128C87.9006 225.128 87.0006 224.178 87.0006 222.748C87.0006 221.168 88.0306 220.178 89.6006 220.178ZM89.6306 221.458C88.8806 221.458 88.4606 221.898 88.4606 222.698C88.4606 223.438 88.8406 223.918 89.5706 223.918C90.3106 223.918 90.7806 223.428 90.7806 222.688C90.7806 222.008 90.3606 221.458 89.6306 221.458Z" fill="black"/>
<path id="422" d="M78.0726 48.6724V47.2524H74.9026V46.0824L77.8826 41.5724H79.5026V46.0124H80.3426V47.2524H79.5026V48.6724H78.0726ZM76.2426 46.0124H78.0726V43.3624L76.2426 46.0124ZM81.0587 48.6724C81.0587 46.9424 81.6387 45.9324 83.6187 44.9124C84.3487 44.5324 84.7087 44.2524 84.7087 43.6024C84.7087 43.0324 84.3787 42.6724 83.7487 42.6724C83.0287 42.6724 82.6787 43.0924 82.5587 43.8524L81.0887 43.7624C81.2287 42.3124 82.1387 41.4124 83.7687 41.4124C85.3587 41.4124 86.1787 42.2624 86.1787 43.5224C86.1787 44.6624 85.6887 45.2224 84.2887 45.9824C83.1387 46.6024 82.7287 47.0324 82.6887 47.3924H86.1787V48.6724H81.0587ZM87.0547 48.6724C87.0547 46.9424 87.6347 45.9324 89.6147 44.9124C90.3447 44.5324 90.7047 44.2524 90.7047 43.6024C90.7047 43.0324 90.3747 42.6724 89.7447 42.6724C89.0247 42.6724 88.6747 43.0924 88.5547 43.8524L87.0847 43.7624C87.2247 42.3124 88.1347 41.4124 89.7647 41.4124C91.3547 41.4124 92.1747 42.2624 92.1747 43.5224C92.1747 44.6624 91.6847 45.2224 90.2847 45.9824C89.1347 46.6024 88.7247 47.0324 88.6847 47.3924H92.1747V48.6724H87.0547Z" fill="black"/>
<path id="405" d="M411.175 57.7031V56.2831H408.005V55.1131L410.985 50.6031H412.605V55.0431H413.445V56.2831H412.605V57.7031H411.175ZM409.345 55.0431H411.175V52.3931L409.345 55.0431ZM416.721 57.8631C415.121 57.8631 414.161 56.4531 414.161 54.1631C414.161 51.8631 415.121 50.4431 416.721 50.4431C418.321 50.4431 419.281 51.8631 419.281 54.1631C419.281 56.4531 418.321 57.8631 416.721 57.8631ZM415.621 54.1631C415.621 54.5931 415.651 54.9631 415.711 55.2731L417.401 52.0831C417.221 51.8331 416.991 51.7031 416.721 51.7031C416.031 51.7031 415.621 52.5231 415.621 54.1631ZM416.721 56.6031C417.411 56.6031 417.821 55.7931 417.821 54.1631C417.821 53.7331 417.791 53.3531 417.731 53.0331L416.041 56.2231C416.221 56.4731 416.451 56.6031 416.721 56.6031ZM422.707 57.8631C421.207 57.8631 420.297 56.9731 420.197 55.8031L421.657 55.7231C421.747 56.3031 422.097 56.6031 422.707 56.6031C423.367 56.6031 423.777 56.1831 423.777 55.3731C423.777 54.5831 423.357 54.1231 422.717 54.1231C422.277 54.1231 421.907 54.3831 421.767 54.7431L420.297 54.6731L420.717 50.6031H424.907V51.8831H421.887L421.707 53.4131C422.037 53.1331 422.477 52.9731 422.957 52.9731C424.367 52.9731 425.237 53.9931 425.237 55.3831C425.237 56.8531 424.237 57.8631 422.707 57.8631Z" fill="black"/>
</g>
</g>
<defs>
<clipPath id="clip0_81_667">
<rect width="500" height="469.94" fill="white"/>
</clipPath>
</defs>
</svg>
