<svg width="500" height="470" viewBox="0 0 500 470" fill="none" xmlns="http://www.w3.org/2000/svg">
<g id="polo-grounds-1952" clip-path="url(#clip0_81_640)">
<g id="Infield">
<path d="M339.98 327.765C339.453 325.665 322.032 258.478 250.83 258.478C180.238 258.478 162.505 324.537 161.697 327.698C161.677 327.775 161.668 327.815 161.668 327.815L236.504 402.652C235.305 404.911 234.623 407.488 234.623 410.237C234.623 419.185 241.873 426.444 250.83 426.444C259.778 426.444 267.037 419.185 267.037 410.237C267.037 407.488 266.356 404.911 265.157 402.656L260.695 397.374C257.96 395.277 254.544 394.025 250.83 394.025C247.117 394.025 243.701 395.277 240.971 397.369L197.7 354.099C201.448 350.352 201.448 344.276 197.7 340.529C197.698 340.526 197.694 340.524 197.691 340.521L244.055 294.037C247.8 297.772 253.861 297.772 257.606 294.037L303.431 339.983C303.431 339.983 303.427 339.984 303.424 339.987C299.677 343.735 300.275 350.299 304.022 354.046L260.695 397.374L265.157 402.656L339.98 327.765Z" fill="#D2D2D2"/>
<path d="M259.91 345.705C259.91 350.72 255.845 354.786 250.83 354.786C245.815 354.786 241.75 350.72 241.75 345.705C241.75 340.69 245.815 336.625 250.83 336.625C255.845 336.625 259.91 340.69 259.91 345.705Z" fill="#D2D2D2"/>
</g>
<path id="Foul Lines" d="M430.248 231.244L250.976 410.516L71.6489 231.189" fill="none" stroke="black" stroke-width="1.002"/>
<g id="Measurements">
<path id="258" d="M408.428 229.938C408.428 228.208 409.008 227.198 410.988 226.178C411.718 225.798 412.078 225.518 412.078 224.868C412.078 224.298 411.748 223.938 411.118 223.938C410.398 223.938 410.048 224.358 409.928 225.118L408.458 225.028C408.598 223.578 409.508 222.678 411.138 222.678C412.728 222.678 413.548 223.528 413.548 224.788C413.548 225.928 413.058 226.488 411.658 227.248C410.508 227.868 410.098 228.298 410.058 228.658H413.548V229.938H408.428ZM416.974 230.098C415.474 230.098 414.564 229.208 414.464 228.038L415.924 227.958C416.014 228.538 416.364 228.838 416.974 228.838C417.634 228.838 418.044 228.418 418.044 227.608C418.044 226.818 417.624 226.358 416.984 226.358C416.544 226.358 416.174 226.618 416.034 226.978L414.564 226.908L414.984 222.838H419.174V224.118H416.154L415.974 225.648C416.304 225.368 416.744 225.208 417.224 225.208C418.634 225.208 419.504 226.228 419.504 227.618C419.504 229.088 418.504 230.098 416.974 230.098ZM422.98 230.098C421.41 230.098 420.36 229.378 420.36 227.998C420.36 227.068 420.9 226.408 421.77 226.128C421.1 225.868 420.65 225.378 420.65 224.638C420.65 223.498 421.58 222.678 422.98 222.678C424.38 222.678 425.31 223.498 425.31 224.638C425.31 225.378 424.86 225.868 424.18 226.128C425.06 226.408 425.6 227.068 425.6 227.998C425.6 229.378 424.55 230.098 422.98 230.098ZM422.98 225.558C423.49 225.558 423.84 225.288 423.84 224.728C423.84 224.228 423.5 223.938 422.98 223.938C422.46 223.938 422.12 224.228 422.12 224.728C422.12 225.288 422.47 225.558 422.98 225.558ZM422.98 228.838C423.62 228.838 424.14 228.558 424.14 227.858C424.14 227.188 423.71 226.768 422.98 226.768C422.25 226.768 421.82 227.188 421.82 227.858C421.82 228.558 422.34 228.838 422.98 228.838Z" fill="black"/>
<path id="279" d="M75.0683 227.438C75.0683 225.708 75.6483 224.698 77.6283 223.678C78.3583 223.298 78.7183 223.018 78.7183 222.368C78.7183 221.798 78.3883 221.438 77.7583 221.438C77.0383 221.438 76.6883 221.858 76.5683 222.618L75.0983 222.528C75.2383 221.078 76.1483 220.178 77.7783 220.178C79.3683 220.178 80.1883 221.028 80.1883 222.288C80.1883 223.428 79.6983 223.988 78.2983 224.748C77.1483 225.368 76.7383 225.798 76.6983 226.158H80.1883V227.438H75.0683ZM82.2944 227.438C82.2944 225.288 83.1944 223.328 84.6644 221.618H81.1644V220.338H86.0844V221.548C84.4544 223.408 83.7844 224.998 83.7844 227.438H82.2944ZM89.6005 220.178C91.3305 220.178 92.2405 221.348 92.2405 223.408C92.2405 225.758 91.4305 227.598 89.3405 227.598C87.9405 227.598 87.2905 226.838 87.0305 225.818L88.4705 225.718C88.5705 226.078 88.8005 226.338 89.3405 226.338C90.0805 226.338 90.6005 225.828 90.7605 224.608C90.4205 224.908 89.9405 225.128 89.3105 225.128C87.9005 225.128 87.0005 224.178 87.0005 222.748C87.0005 221.168 88.0305 220.178 89.6005 220.178ZM89.6305 221.458C88.8805 221.458 88.4605 221.898 88.4605 222.698C88.4605 223.438 88.8405 223.918 89.5705 223.918C90.3105 223.918 90.7805 223.428 90.7805 222.688C90.7805 222.008 90.3605 221.458 89.6305 221.458Z" fill="black"/>
<path id="455" d="M113.53 5.70361V4.28361H110.36V3.11361L113.34 -1.39639H114.96V3.04361H115.8V4.28361H114.96V5.70361H113.53ZM111.7 3.04361H113.53V0.393613L111.7 3.04361ZM119.066 5.86361C117.566 5.86361 116.656 4.97361 116.556 3.80361L118.016 3.72361C118.106 4.30361 118.456 4.60361 119.066 4.60361C119.726 4.60361 120.136 4.18361 120.136 3.37361C120.136 2.58361 119.716 2.12361 119.076 2.12361C118.636 2.12361 118.266 2.38361 118.126 2.74361L116.656 2.67361L117.076 -1.39639H121.266V-0.116387H118.246L118.066 1.41361C118.396 1.13361 118.836 0.973613 119.316 0.973613C120.726 0.973613 121.596 1.99361 121.596 3.38361C121.596 4.85361 120.596 5.86361 119.066 5.86361ZM125.062 5.86361C123.562 5.86361 122.652 4.97361 122.552 3.80361L124.012 3.72361C124.102 4.30361 124.452 4.60361 125.062 4.60361C125.722 4.60361 126.132 4.18361 126.132 3.37361C126.132 2.58361 125.712 2.12361 125.072 2.12361C124.632 2.12361 124.262 2.38361 124.122 2.74361L122.652 2.67361L123.072 -1.39639H127.262V-0.116387H124.242L124.062 1.41361C124.392 1.13361 124.832 0.973613 125.312 0.973613C126.722 0.973613 127.592 1.99361 127.592 3.38361C127.592 4.85361 126.592 5.86361 125.062 5.86361Z" fill="black"/>
<path id="449" d="M380.175 5.70361V4.28361H377.005V3.11361L379.985 -1.39639H381.605V3.04361H382.445V4.28361H381.605V5.70361H380.175ZM378.345 3.04361H380.175V0.393613L378.345 3.04361ZM386.171 5.70361V4.28361H383.001V3.11361L385.981 -1.39639H387.601V3.04361H388.441V4.28361H387.601V5.70361H386.171ZM384.341 3.04361H386.171V0.393613L384.341 3.04361ZM391.697 -1.55639C393.427 -1.55639 394.337 -0.386387 394.337 1.67361C394.337 4.02361 393.527 5.86361 391.437 5.86361C390.037 5.86361 389.387 5.10361 389.127 4.08361L390.567 3.98361C390.667 4.34361 390.897 4.60361 391.437 4.60361C392.177 4.60361 392.697 4.09361 392.857 2.87361C392.517 3.17361 392.037 3.39361 391.407 3.39361C389.997 3.39361 389.097 2.44361 389.097 1.01361C389.097 -0.566387 390.127 -1.55639 391.697 -1.55639ZM391.727 -0.276387C390.977 -0.276387 390.557 0.163613 390.557 0.963613C390.557 1.70361 390.937 2.18361 391.667 2.18361C392.407 2.18361 392.877 1.69361 392.877 0.953613C392.877 0.273613 392.457 -0.276387 391.727 -0.276387Z" fill="black"/>
</g>
<path id="field" d="M96.907 328.423C96.907 385.281 158.279 483.878 250.83 483.878C343.381 483.878 404.583 385.28 404.583 328.423V289.934H430.033V44.0817C430.033 14.2584 405.856 -9.91825 376.033 -9.91825H283.23V-53.9316H217.831V-9.91825H125.533C95.7101 -9.91825 71.5334 14.2583 71.5334 44.0817V289.934H96.907V328.423Z" fill="#FF5910" fill-opacity="0.1" fill="none" stroke="#FF5910" stroke-width="1.002"/>
</g>
<defs>
<clipPath id="clip0_81_640">
<rect width="500" height="469.94" fill="white"/>
</clipPath>
</defs>
</svg>
