<svg width="500" height="470" viewBox="0 0 500 470" fill="none" xmlns="http://www.w3.org/2000/svg">
<g id="progressive-field-1994" clip-path="url(#clip0_120_6062)">
<g id="Infield">
<path d="M339.98 327.764C339.453 325.664 322.032 258.477 250.83 258.477C180.238 258.477 162.505 324.536 161.697 327.697C161.677 327.775 161.668 327.814 161.668 327.814L236.504 402.651C235.305 404.91 234.623 407.487 234.623 410.236C234.623 419.184 241.873 426.443 250.83 426.443C259.778 426.443 267.037 419.184 267.037 410.236C267.037 407.487 266.356 404.91 265.156 402.655L260.695 397.373C257.96 395.276 254.544 394.024 250.83 394.024C247.117 394.024 243.701 395.276 240.971 397.368L197.7 354.098C201.448 350.351 201.448 344.275 197.7 340.528C197.698 340.525 197.694 340.523 197.691 340.52L244.055 294.036C247.8 297.772 253.861 297.772 257.606 294.036L303.431 339.982C303.431 339.982 303.427 339.983 303.424 339.986C299.677 343.734 300.275 350.298 304.022 354.045L260.695 397.373L265.156 402.655L339.98 327.764Z" fill="#D2D2D2"/>
<path d="M259.91 345.704C259.91 350.719 255.845 354.785 250.83 354.785C245.815 354.785 241.75 350.719 241.75 345.704C241.75 340.689 245.815 336.624 250.83 336.624C255.845 336.624 259.91 340.689 259.91 345.704Z" fill="#D2D2D2"/>
</g>
<g id="Guides">
<g id="Home">
<circle id="Ellipse 1" cx="250.827" cy="410.421" r="16.0848" fill="#D2D2D2"/>
<circle id="Ellipse 1_2" cx="250.827" cy="410.422" r="1.62919" fill="black"/>
</g>
<g id="First">
<circle id="Ellipse 1_3" cx="311.125" cy="346.535" r="10.1878" fill="#D2D2D2"/>
<circle id="Ellipse 1_4" cx="311.125" cy="346.536" r="1.0319" fill="black"/>
</g>
<g id="Third">
<circle id="Ellipse 1_5" cx="190.34" cy="346.535" r="10.1878" fill="#D2D2D2"/>
<circle id="Ellipse 1_6" cx="190.34" cy="346.536" r="1.0319" fill="black"/>
</g>
<g id="Second">
<circle id="Ellipse 1_7" cx="250.827" cy="286.672" r="10.1878" fill="#D2D2D2"/>
<circle id="Ellipse 1_8" cx="250.827" cy="286.673" r="1.0319" fill="black"/>
</g>
<g id="Mound">
<circle id="Ellipse 1_9" cx="250.827" cy="345.931" r="9.08365" fill="#D2D2D2"/>
<circle id="Ellipse 1_10" cx="250.827" cy="345.932" r="0.920062" fill="black"/>
</g>
</g>
<path id="Foul Lines" d="M475.733 185.758L250.976 410.515L26.6156 186.155" fill="none" stroke="black" stroke-width="1.002"/>
<g id="Measurements">
<path id="405" d="M254.203 11.6992V10.2792H251.033V9.10922L254.013 4.59922H255.633V9.03922H256.473V10.2792H255.633V11.6992H254.203ZM252.373 9.03922H254.203V6.38922L252.373 9.03922ZM259.749 11.8592C258.149 11.8592 257.189 10.4492 257.189 8.15922C257.189 5.85922 258.149 4.43922 259.749 4.43922C261.349 4.43922 262.309 5.85922 262.309 8.15922C262.309 10.4492 261.349 11.8592 259.749 11.8592ZM258.649 8.15922C258.649 8.58922 258.679 8.95922 258.739 9.26922L260.429 6.07922C260.249 5.82922 260.019 5.69922 259.749 5.69922C259.059 5.69922 258.649 6.51922 258.649 8.15922ZM259.749 10.5992C260.439 10.5992 260.849 9.78922 260.849 8.15922C260.849 7.72922 260.819 7.34922 260.759 7.02922L259.069 10.2192C259.249 10.4692 259.479 10.5992 259.749 10.5992ZM265.735 11.8592C264.235 11.8592 263.325 10.9692 263.225 9.79922L264.685 9.71922C264.775 10.2992 265.125 10.5992 265.735 10.5992C266.395 10.5992 266.805 10.1792 266.805 9.36922C266.805 8.57922 266.385 8.11922 265.745 8.11922C265.305 8.11922 264.935 8.37922 264.795 8.73922L263.325 8.66922L263.745 4.59922H267.935V5.87922H264.915L264.735 7.40922C265.065 7.12922 265.505 6.96922 265.985 6.96922C267.395 6.96922 268.265 7.98922 268.265 9.37922C268.265 10.8492 267.265 11.8592 265.735 11.8592Z" fill="black"/>
<path id="375" d="M406.122 73.5467C404.492 73.5467 403.682 72.7167 403.612 71.4267L405.052 71.3567C405.112 72.0467 405.572 72.2867 406.152 72.2867C406.782 72.2867 407.272 71.9867 407.272 71.2867C407.272 70.6067 406.822 70.2467 406.082 70.2467H405.552V69.1167H406.082C406.642 69.1167 407.052 68.8667 407.052 68.2567C407.052 67.6667 406.702 67.3767 406.142 67.3767C405.522 67.3767 405.222 67.6867 405.162 68.1767L403.722 68.1067C403.862 66.8967 404.692 66.1267 406.152 66.1267C407.612 66.1267 408.512 66.8467 408.512 68.0667C408.512 68.8367 408.112 69.3467 407.362 69.5867C408.232 69.8367 408.732 70.4867 408.732 71.3867C408.732 72.7267 407.722 73.5467 406.122 73.5467ZM410.838 73.3867C410.838 71.2367 411.738 69.2767 413.208 67.5667H409.708V66.2867H414.628V67.4967C412.998 69.3567 412.328 70.9467 412.328 73.3867H410.838ZM418.154 73.5467C416.654 73.5467 415.744 72.6567 415.644 71.4867L417.104 71.4067C417.194 71.9867 417.544 72.2867 418.154 72.2867C418.814 72.2867 419.224 71.8667 419.224 71.0567C419.224 70.2667 418.804 69.8067 418.164 69.8067C417.724 69.8067 417.354 70.0667 417.214 70.4267L415.744 70.3567L416.164 66.2867H420.354V67.5667H417.334L417.154 69.0967C417.484 68.8167 417.924 68.6567 418.404 68.6567C419.814 68.6567 420.684 69.6767 420.684 71.0667C420.684 72.5367 419.684 73.5467 418.154 73.5467Z" fill="black"/>
<path id="370" d="M118.99 72.203C117.36 72.203 116.55 71.373 116.48 70.083L117.92 70.013C117.98 70.703 118.44 70.943 119.02 70.943C119.65 70.943 120.14 70.643 120.14 69.943C120.14 69.263 119.69 68.903 118.95 68.903H118.42V67.773H118.95C119.51 67.773 119.92 67.523 119.92 66.913C119.92 66.323 119.57 66.033 119.01 66.033C118.39 66.033 118.09 66.343 118.03 66.833L116.59 66.763C116.73 65.553 117.56 64.783 119.02 64.783C120.48 64.783 121.38 65.503 121.38 66.723C121.38 67.493 120.98 68.003 120.23 68.243C121.1 68.493 121.6 69.143 121.6 70.043C121.6 71.383 120.59 72.203 118.99 72.203ZM123.706 72.043C123.706 69.893 124.606 67.933 126.076 66.223H122.576V64.943H127.496V66.153C125.866 68.013 125.196 69.603 125.196 72.043H123.706ZM131.032 72.203C129.432 72.203 128.472 70.793 128.472 68.503C128.472 66.203 129.432 64.783 131.032 64.783C132.632 64.783 133.592 66.203 133.592 68.503C133.592 70.793 132.632 72.203 131.032 72.203ZM129.932 68.503C129.932 68.933 129.962 69.303 130.022 69.613L131.712 66.423C131.532 66.173 131.302 66.043 131.032 66.043C130.342 66.043 129.932 66.863 129.932 68.503ZM131.032 70.943C131.722 70.943 132.132 70.133 132.132 68.503C132.132 68.073 132.102 67.693 132.042 67.373L130.352 70.563C130.532 70.813 130.762 70.943 131.032 70.943Z" fill="black"/>
<path id="325" d="M455.032 188.312C453.402 188.312 452.592 187.482 452.522 186.192L453.962 186.122C454.022 186.812 454.482 187.052 455.062 187.052C455.692 187.052 456.182 186.752 456.182 186.052C456.182 185.372 455.732 185.012 454.992 185.012H454.462V183.882H454.992C455.552 183.882 455.962 183.632 455.962 183.022C455.962 182.432 455.612 182.142 455.052 182.142C454.432 182.142 454.132 182.452 454.072 182.942L452.632 182.872C452.772 181.662 453.602 180.892 455.062 180.892C456.522 180.892 457.422 181.612 457.422 182.832C457.422 183.602 457.022 184.112 456.272 184.352C457.142 184.602 457.642 185.252 457.642 186.152C457.642 187.492 456.632 188.312 455.032 188.312ZM458.518 188.152C458.518 186.422 459.098 185.412 461.078 184.392C461.808 184.012 462.168 183.732 462.168 183.082C462.168 182.512 461.838 182.152 461.208 182.152C460.488 182.152 460.138 182.572 460.018 183.332L458.548 183.242C458.688 181.792 459.598 180.892 461.228 180.892C462.818 180.892 463.638 181.742 463.638 183.002C463.638 184.142 463.148 184.702 461.748 185.462C460.598 186.082 460.188 186.512 460.148 186.872H463.638V188.152H458.518ZM467.064 188.312C465.564 188.312 464.654 187.422 464.554 186.252L466.014 186.172C466.104 186.752 466.454 187.052 467.064 187.052C467.724 187.052 468.134 186.632 468.134 185.822C468.134 185.032 467.714 184.572 467.074 184.572C466.634 184.572 466.264 184.832 466.124 185.192L464.654 185.122L465.074 181.052H469.264V182.332H466.244L466.064 183.862C466.394 183.582 466.834 183.422 467.314 183.422C468.724 183.422 469.594 184.442 469.594 185.832C469.594 187.302 468.594 188.312 467.064 188.312Z" fill="black"/>
<path id="325_2" d="M36.5783 188.598C34.9483 188.598 34.1383 187.767 34.0683 186.477L35.5083 186.407C35.5683 187.097 36.0283 187.337 36.6083 187.337C37.2383 187.337 37.7283 187.037 37.7283 186.337C37.7283 185.657 37.2783 185.297 36.5383 185.297H36.0083V184.167H36.5383C37.0983 184.167 37.5083 183.917 37.5083 183.307C37.5083 182.717 37.1583 182.427 36.5983 182.427C35.9783 182.427 35.6783 182.737 35.6183 183.227L34.1783 183.158C34.3183 181.947 35.1483 181.177 36.6083 181.177C38.0683 181.177 38.9683 181.897 38.9683 183.117C38.9683 183.887 38.5683 184.397 37.8183 184.637C38.6883 184.887 39.1883 185.537 39.1883 186.437C39.1883 187.778 38.1783 188.598 36.5783 188.598ZM40.0644 188.438C40.0644 186.707 40.6444 185.697 42.6244 184.677C43.3544 184.297 43.7144 184.017 43.7144 183.367C43.7144 182.797 43.3844 182.437 42.7544 182.437C42.0344 182.437 41.6844 182.857 41.5644 183.617L40.0944 183.527C40.2344 182.077 41.1444 181.177 42.7744 181.177C44.3644 181.177 45.1844 182.027 45.1844 183.287C45.1844 184.427 44.6944 184.987 43.2944 185.747C42.1444 186.367 41.7344 186.797 41.6944 187.157H45.1844V188.438H40.0644ZM48.6105 188.598C47.1105 188.598 46.2005 187.707 46.1005 186.537L47.5605 186.457C47.6505 187.037 48.0005 187.337 48.6105 187.337C49.2705 187.337 49.6805 186.917 49.6805 186.107C49.6805 185.317 49.2605 184.857 48.6205 184.857C48.1805 184.857 47.8105 185.117 47.6705 185.477L46.2005 185.407L46.6205 181.337H50.8105V182.617H47.7905L47.6105 184.147C47.9405 183.867 48.3805 183.707 48.8605 183.707C50.2705 183.707 51.1405 184.727 51.1405 186.117C51.1405 187.587 50.1405 188.598 48.6105 188.598Z" fill="black"/>
</g>
<path id="field" d="M404.99 75.8479L480.864 193.876L433.173 241.566L304.334 441.495C279.205 480.488 222.235 480.63 196.913 441.762L66.4847 241.566L21.2607 194.673L70.9406 116.33L238.522 9.19922L404.99 75.8479Z" fill="#00385D" fill-opacity="0.1" fill="none" stroke="#00385D" stroke-width="1.002"/>
</g>
<defs>
<clipPath id="clip0_120_6062">
<rect width="500" height="469.94" fill="white"/>
</clipPath>
</defs>
</svg>
