<svg width="500" height="470" viewBox="0 0 500 470" fill="none" xmlns="http://www.w3.org/2000/svg">
<g id="rate-field-2004" clip-path="url(#clip0_125_6617)">
<g id="Infield">
<path d="M339.98 327.764C339.453 325.664 322.032 258.477 250.83 258.477C180.238 258.477 162.505 324.536 161.697 327.697C161.677 327.775 161.668 327.814 161.668 327.814L236.504 402.651C235.305 404.91 234.623 407.487 234.623 410.236C234.623 419.184 241.873 426.443 250.83 426.443C259.778 426.443 267.037 419.184 267.037 410.236C267.037 407.487 266.356 404.91 265.156 402.655L260.695 397.373C257.96 395.276 254.544 394.024 250.83 394.024C247.117 394.024 243.701 395.276 240.971 397.368L197.7 354.098C201.448 350.351 201.448 344.275 197.7 340.528C197.698 340.525 197.694 340.523 197.691 340.52L244.055 294.036C247.8 297.772 253.861 297.772 257.606 294.036L303.431 339.982C303.431 339.982 303.427 339.983 303.424 339.986C299.677 343.734 300.275 350.298 304.022 354.045L260.695 397.373L265.156 402.655L339.98 327.764Z" fill="#D2D2D2"/>
<path d="M259.91 345.704C259.91 350.719 255.845 354.785 250.83 354.785C245.815 354.785 241.75 350.719 241.75 345.704C241.75 340.689 245.815 336.624 250.83 336.624C255.845 336.624 259.91 340.689 259.91 345.704Z" fill="#D2D2D2"/>
</g>
<g id="Guides">
<g id="Home">
<circle id="Ellipse 1" cx="250.827" cy="410.421" r="16.0848" fill="#D2D2D2"/>
<circle id="Ellipse 1_2" cx="250.827" cy="410.422" r="1.62919" fill="black"/>
</g>
<g id="First">
<circle id="Ellipse 1_3" cx="311.125" cy="346.535" r="10.1878" fill="#D2D2D2"/>
<circle id="Ellipse 1_4" cx="311.125" cy="346.536" r="1.0319" fill="black"/>
</g>
<g id="Third">
<circle id="Ellipse 1_5" cx="190.34" cy="346.535" r="10.1878" fill="#D2D2D2"/>
<circle id="Ellipse 1_6" cx="190.34" cy="346.536" r="1.0319" fill="black"/>
</g>
<g id="Second">
<circle id="Ellipse 1_7" cx="250.827" cy="286.672" r="10.1878" fill="#D2D2D2"/>
<circle id="Ellipse 1_8" cx="250.827" cy="286.673" r="1.0319" fill="black"/>
</g>
<g id="Mound">
<circle id="Ellipse 1_9" cx="250.827" cy="345.931" r="9.08365" fill="#D2D2D2"/>
<circle id="Ellipse 1_10" cx="250.827" cy="345.932" r="0.920062" fill="black"/>
</g>
</g>
<path id="Foul Lines" d="M482.875 178.617L250.976 410.517L22.7215 182.264" fill="none" stroke="black" stroke-width="1.002"/>
<g id="Measurements">
<path id="400" d="M244.965 14.6992V13.2792H241.795V12.1092L244.775 7.59922H246.395V12.0392H247.235V13.2792H246.395V14.6992H244.965ZM243.135 12.0392H244.965V9.38922L243.135 12.0392ZM250.511 14.8592C248.911 14.8592 247.951 13.4492 247.951 11.1592C247.951 8.85922 248.911 7.43922 250.511 7.43922C252.111 7.43922 253.071 8.85922 253.071 11.1592C253.071 13.4492 252.111 14.8592 250.511 14.8592ZM249.411 11.1592C249.411 11.5892 249.441 11.9592 249.501 12.2692L251.191 9.07922C251.011 8.82922 250.781 8.69922 250.511 8.69922C249.821 8.69922 249.411 9.51922 249.411 11.1592ZM250.511 13.5992C251.201 13.5992 251.611 12.7892 251.611 11.1592C251.611 10.7292 251.581 10.3492 251.521 10.0292L249.831 13.2192C250.011 13.4692 250.241 13.5992 250.511 13.5992ZM256.507 14.8592C254.907 14.8592 253.947 13.4492 253.947 11.1592C253.947 8.85922 254.907 7.43922 256.507 7.43922C258.107 7.43922 259.067 8.85922 259.067 11.1592C259.067 13.4492 258.107 14.8592 256.507 14.8592ZM255.407 11.1592C255.407 11.5892 255.437 11.9592 255.497 12.2692L257.187 9.07922C257.007 8.82922 256.777 8.69922 256.507 8.69922C255.817 8.69922 255.407 9.51922 255.407 11.1592ZM256.507 13.5992C257.197 13.5992 257.607 12.7892 257.607 11.1592C257.607 10.7292 257.577 10.3492 257.517 10.0292L255.827 13.2192C256.007 13.4692 256.237 13.5992 256.507 13.5992Z" fill="black"/>
<path id="375" d="M111.46 65.9881C109.83 65.9881 109.02 65.1581 108.95 63.8681L110.39 63.7981C110.45 64.4881 110.91 64.7281 111.49 64.7281C112.12 64.7281 112.61 64.4281 112.61 63.7281C112.61 63.0481 112.16 62.6881 111.42 62.6881H110.89V61.5581H111.42C111.98 61.5581 112.39 61.3081 112.39 60.6981C112.39 60.1081 112.04 59.8181 111.48 59.8181C110.86 59.8181 110.56 60.1281 110.5 60.6181L109.06 60.5481C109.2 59.3381 110.03 58.5681 111.49 58.5681C112.95 58.5681 113.85 59.2881 113.85 60.5081C113.85 61.2781 113.45 61.7881 112.7 62.0281C113.57 62.2781 114.07 62.9281 114.07 63.8281C114.07 65.1681 113.06 65.9881 111.46 65.9881ZM116.176 65.8281C116.176 63.6781 117.076 61.7181 118.546 60.0081H115.046V58.7281H119.966V59.9381C118.336 61.7981 117.666 63.3881 117.666 65.8281H116.176ZM123.492 65.9881C121.992 65.9881 121.082 65.0981 120.982 63.9281L122.442 63.8481C122.532 64.4281 122.882 64.7281 123.492 64.7281C124.152 64.7281 124.562 64.3081 124.562 63.4981C124.562 62.7081 124.142 62.2481 123.502 62.2481C123.062 62.2481 122.692 62.5081 122.552 62.8681L121.082 62.7981L121.502 58.7281H125.692V60.0081H122.672L122.492 61.5381C122.822 61.2581 123.262 61.0981 123.742 61.0981C125.152 61.0981 126.022 62.1181 126.022 63.5081C126.022 64.9781 125.022 65.9881 123.492 65.9881Z" fill="black"/>
<path id="375_2" d="M371.145 64.6522C369.515 64.6522 368.705 63.8222 368.635 62.5322L370.075 62.4622C370.135 63.1522 370.595 63.3922 371.175 63.3922C371.805 63.3922 372.295 63.0922 372.295 62.3922C372.295 61.7122 371.845 61.3522 371.105 61.3522H370.575V60.2222H371.105C371.665 60.2222 372.075 59.9722 372.075 59.3622C372.075 58.7722 371.725 58.4822 371.165 58.4822C370.545 58.4822 370.245 58.7922 370.185 59.2822L368.745 59.2122C368.885 58.0022 369.715 57.2322 371.175 57.2322C372.635 57.2322 373.535 57.9522 373.535 59.1722C373.535 59.9422 373.135 60.4522 372.385 60.6922C373.255 60.9422 373.755 61.5922 373.755 62.4922C373.755 63.8322 372.745 64.6522 371.145 64.6522ZM375.861 64.4922C375.861 62.3422 376.761 60.3822 378.231 58.6722H374.731V57.3922H379.651V58.6022C378.021 60.4622 377.351 62.0522 377.351 64.4922H375.861ZM383.177 64.6522C381.677 64.6522 380.767 63.7622 380.667 62.5922L382.127 62.5122C382.217 63.0922 382.567 63.3922 383.177 63.3922C383.837 63.3922 384.247 62.9722 384.247 62.1622C384.247 61.3722 383.827 60.9122 383.187 60.9122C382.747 60.9122 382.377 61.1722 382.237 61.5322L380.767 61.4622L381.187 57.3922H385.377V58.6722H382.357L382.177 60.2022C382.507 59.9222 382.947 59.7622 383.427 59.7622C384.837 59.7622 385.707 60.7822 385.707 62.1722C385.707 63.6422 384.707 64.6522 383.177 64.6522Z" fill="black"/>
<path id="330" d="M34.6304 186.598C33.0004 186.598 32.1904 185.767 32.1204 184.477L33.5604 184.407C33.6204 185.097 34.0804 185.337 34.6604 185.337C35.2904 185.337 35.7804 185.037 35.7804 184.337C35.7804 183.657 35.3304 183.297 34.5904 183.297H34.0604V182.167H34.5904C35.1504 182.167 35.5604 181.917 35.5604 181.307C35.5604 180.717 35.2104 180.427 34.6504 180.427C34.0304 180.427 33.7304 180.737 33.6704 181.227L32.2304 181.158C32.3704 179.947 33.2004 179.177 34.6604 179.177C36.1204 179.177 37.0204 179.897 37.0204 181.117C37.0204 181.887 36.6204 182.397 35.8704 182.637C36.7404 182.887 37.2404 183.537 37.2404 184.437C37.2404 185.778 36.2304 186.598 34.6304 186.598ZM40.6265 186.598C38.9965 186.598 38.1865 185.767 38.1165 184.477L39.5565 184.407C39.6165 185.097 40.0765 185.337 40.6565 185.337C41.2865 185.337 41.7765 185.037 41.7765 184.337C41.7765 183.657 41.3265 183.297 40.5865 183.297H40.0565V182.167H40.5865C41.1465 182.167 41.5565 181.917 41.5565 181.307C41.5565 180.717 41.2065 180.427 40.6465 180.427C40.0265 180.427 39.7265 180.737 39.6665 181.227L38.2265 181.158C38.3665 179.947 39.1965 179.177 40.6565 179.177C42.1165 179.177 43.0165 179.897 43.0165 181.117C43.0165 181.887 42.6165 182.397 41.8665 182.637C42.7365 182.887 43.2365 183.537 43.2365 184.437C43.2365 185.778 42.2265 186.598 40.6265 186.598ZM46.6726 186.598C45.0726 186.598 44.1126 185.188 44.1126 182.897C44.1126 180.597 45.0726 179.177 46.6726 179.177C48.2726 179.177 49.2326 180.597 49.2326 182.897C49.2326 185.188 48.2726 186.598 46.6726 186.598ZM45.5726 182.897C45.5726 183.327 45.6026 183.697 45.6626 184.007L47.3526 180.817C47.1726 180.567 46.9426 180.437 46.6726 180.437C45.9826 180.437 45.5726 181.257 45.5726 182.897ZM46.6726 185.337C47.3626 185.337 47.7726 184.527 47.7726 182.897C47.7726 182.467 47.7426 182.087 47.6826 181.767L45.9926 184.957C46.1726 185.207 46.4026 185.337 46.6726 185.337Z" fill="black"/>
<path id="335" d="M460.661 183.598C459.031 183.598 458.221 182.767 458.151 181.477L459.591 181.407C459.651 182.097 460.111 182.337 460.691 182.337C461.321 182.337 461.811 182.037 461.811 181.337C461.811 180.657 461.361 180.297 460.621 180.297H460.091V179.167H460.621C461.181 179.167 461.591 178.917 461.591 178.307C461.591 177.717 461.241 177.427 460.681 177.427C460.061 177.427 459.761 177.737 459.701 178.227L458.261 178.158C458.401 176.947 459.231 176.177 460.691 176.177C462.151 176.177 463.051 176.897 463.051 178.117C463.051 178.887 462.651 179.397 461.901 179.637C462.771 179.887 463.271 180.537 463.271 181.437C463.271 182.778 462.261 183.598 460.661 183.598ZM466.657 183.598C465.027 183.598 464.217 182.767 464.147 181.477L465.587 181.407C465.647 182.097 466.107 182.337 466.687 182.337C467.317 182.337 467.807 182.037 467.807 181.337C467.807 180.657 467.357 180.297 466.617 180.297H466.087V179.167H466.617C467.177 179.167 467.587 178.917 467.587 178.307C467.587 177.717 467.237 177.427 466.677 177.427C466.057 177.427 465.757 177.737 465.697 178.227L464.257 178.158C464.397 176.947 465.227 176.177 466.687 176.177C468.147 176.177 469.047 176.897 469.047 178.117C469.047 178.887 468.647 179.397 467.897 179.637C468.767 179.887 469.267 180.537 469.267 181.437C469.267 182.778 468.257 183.598 466.657 183.598ZM472.693 183.598C471.193 183.598 470.283 182.707 470.183 181.537L471.643 181.457C471.733 182.037 472.083 182.337 472.693 182.337C473.353 182.337 473.763 181.917 473.763 181.107C473.763 180.317 473.343 179.857 472.703 179.857C472.263 179.857 471.893 180.117 471.753 180.477L470.283 180.407L470.703 176.337H474.893V177.617H471.873L471.693 179.147C472.023 178.867 472.463 178.707 472.943 178.707C474.353 178.707 475.223 179.727 475.223 181.117C475.223 182.587 474.223 183.598 472.693 183.598Z" fill="black"/>
</g>
<path id="field" d="M304.879 444.741L359.825 377.469L371.589 359.656L378.954 342.33L457.197 214.215L483.038 188.553V178.978L381.911 78.8454C360.109 58.5877 335.181 44.2005 308.938 35.6864C306.599 34.9275 304.379 33.8361 302.39 32.3898L284.848 19.6328H216.703L198.523 32.5094C196.591 33.8773 194.449 34.9141 192.197 35.6428C166.052 44.1035 141.204 58.3928 119.441 78.513L62.3457 136.304L21.9018 183.54V192.418L44.425 214.215L123.135 342.33L129.402 359.656L141.169 377.469L196.583 444.903C224.64 479.045 276.924 478.967 304.879 444.741Z" fill="#27251F" fill-opacity="0.1" fill="none" stroke="#27251F" stroke-width="1.002"/>
</g>
<defs>
<clipPath id="clip0_125_6617">
<rect width="500" height="469.94" fill="white"/>
</clipPath>
</defs>
</svg>
