<svg width="500" height="470" viewBox="0 0 500 470" fill="none" xmlns="http://www.w3.org/2000/svg">
<g id="rate-field-1991" clip-path="url(#clip0_124_6589)">
<g id="Infield">
<path d="M339.98 327.764C339.453 325.664 322.032 258.477 250.83 258.477C180.238 258.477 162.505 324.536 161.697 327.697C161.677 327.775 161.668 327.814 161.668 327.814L236.504 402.651C235.305 404.91 234.623 407.487 234.623 410.236C234.623 419.184 241.873 426.443 250.83 426.443C259.778 426.443 267.037 419.184 267.037 410.236C267.037 407.487 266.356 404.91 265.156 402.655L260.695 397.373C257.96 395.276 254.544 394.024 250.83 394.024C247.117 394.024 243.701 395.276 240.971 397.368L197.7 354.098C201.448 350.351 201.448 344.275 197.7 340.528C197.698 340.525 197.694 340.523 197.691 340.52L244.055 294.036C247.8 297.772 253.861 297.772 257.606 294.036L303.431 339.982C303.431 339.982 303.427 339.983 303.424 339.986C299.677 343.734 300.275 350.298 304.022 354.045L260.695 397.373L265.156 402.655L339.98 327.764Z" fill="#D2D2D2"/>
<path d="M259.91 345.704C259.91 350.719 255.845 354.785 250.83 354.785C245.815 354.785 241.75 350.719 241.75 345.704C241.75 340.689 245.815 336.624 250.83 336.624C255.845 336.624 259.91 340.689 259.91 345.704Z" fill="#D2D2D2"/>
</g>
<g id="Guides">
<g id="Home">
<circle id="Ellipse 1" cx="250.827" cy="410.421" r="16.0848" fill="#D2D2D2"/>
<circle id="Ellipse 1_2" cx="250.827" cy="410.422" r="1.62919" fill="black"/>
</g>
<g id="First">
<circle id="Ellipse 1_3" cx="311.125" cy="346.535" r="10.1878" fill="#D2D2D2"/>
<circle id="Ellipse 1_4" cx="311.125" cy="346.536" r="1.0319" fill="black"/>
</g>
<g id="Third">
<circle id="Ellipse 1_5" cx="190.34" cy="346.535" r="10.1878" fill="#D2D2D2"/>
<circle id="Ellipse 1_6" cx="190.34" cy="346.536" r="1.0319" fill="black"/>
</g>
<g id="Second">
<circle id="Ellipse 1_7" cx="250.827" cy="286.672" r="10.1878" fill="#D2D2D2"/>
<circle id="Ellipse 1_8" cx="250.827" cy="286.673" r="1.0319" fill="black"/>
</g>
<g id="Mound">
<circle id="Ellipse 1_9" cx="250.827" cy="345.931" r="9.08365" fill="#D2D2D2"/>
<circle id="Ellipse 1_10" cx="250.827" cy="345.932" r="0.920062" fill="black"/>
</g>
</g>
<path id="Foul Lines" d="M490.561 170.931L250.976 410.516L10.829 170.371" fill="none" stroke="black" stroke-width="1.002"/>
<g id="Measurements">
<path id="400" d="M244.965 14.6992V13.2792H241.795V12.1092L244.775 7.59922H246.395V12.0392H247.235V13.2792H246.395V14.6992H244.965ZM243.135 12.0392H244.965V9.38922L243.135 12.0392ZM250.511 14.8592C248.911 14.8592 247.951 13.4492 247.951 11.1592C247.951 8.85922 248.911 7.43922 250.511 7.43922C252.111 7.43922 253.071 8.85922 253.071 11.1592C253.071 13.4492 252.111 14.8592 250.511 14.8592ZM249.411 11.1592C249.411 11.5892 249.441 11.9592 249.501 12.2692L251.191 9.07922C251.011 8.82922 250.781 8.69922 250.511 8.69922C249.821 8.69922 249.411 9.51922 249.411 11.1592ZM250.511 13.5992C251.201 13.5992 251.611 12.7892 251.611 11.1592C251.611 10.7292 251.581 10.3492 251.521 10.0292L249.831 13.2192C250.011 13.4692 250.241 13.5992 250.511 13.5992ZM256.507 14.8592C254.907 14.8592 253.947 13.4492 253.947 11.1592C253.947 8.85922 254.907 7.43922 256.507 7.43922C258.107 7.43922 259.067 8.85922 259.067 11.1592C259.067 13.4492 258.107 14.8592 256.507 14.8592ZM255.407 11.1592C255.407 11.5892 255.437 11.9592 255.497 12.2692L257.187 9.07922C257.007 8.82922 256.777 8.69922 256.507 8.69922C255.817 8.69922 255.407 9.51922 255.407 11.1592ZM256.507 13.5992C257.197 13.5992 257.607 12.7892 257.607 11.1592C257.607 10.7292 257.577 10.3492 257.517 10.0292L255.827 13.2192C256.007 13.4692 256.237 13.5992 256.507 13.5992Z" fill="black"/>
<path id="375" d="M100.103 71.1522C98.4726 71.1522 97.6626 70.3222 97.5926 69.0322L99.0326 68.9622C99.0926 69.6522 99.5526 69.8922 100.133 69.8922C100.763 69.8922 101.253 69.5922 101.253 68.8922C101.253 68.2122 100.803 67.8522 100.063 67.8522H99.5326V66.7222H100.063C100.623 66.7222 101.033 66.4722 101.033 65.8622C101.033 65.2722 100.683 64.9822 100.123 64.9822C99.5026 64.9822 99.2026 65.2922 99.1426 65.7822L97.7026 65.7122C97.8426 64.5022 98.6726 63.7322 100.133 63.7322C101.593 63.7322 102.493 64.4522 102.493 65.6722C102.493 66.4422 102.093 66.9522 101.343 67.1922C102.213 67.4422 102.713 68.0922 102.713 68.9922C102.713 70.3322 101.703 71.1522 100.103 71.1522ZM104.819 70.9922C104.819 68.8422 105.719 66.8822 107.189 65.1722H103.689V63.8922H108.609V65.1022C106.979 66.9622 106.309 68.5522 106.309 70.9922H104.819ZM112.135 71.1522C110.635 71.1522 109.725 70.2622 109.625 69.0922L111.085 69.0122C111.175 69.5922 111.525 69.8922 112.135 69.8922C112.795 69.8922 113.205 69.4722 113.205 68.6622C113.205 67.8722 112.785 67.4122 112.145 67.4122C111.705 67.4122 111.335 67.6722 111.195 68.0322L109.725 67.9622L110.145 63.8922H114.335V65.1722H111.315L111.135 66.7022C111.465 66.4222 111.905 66.2622 112.385 66.2622C113.795 66.2622 114.665 67.2822 114.665 68.6722C114.665 70.1422 113.665 71.1522 112.135 71.1522Z" fill="black"/>
<path id="375_2" d="M387.923 71.1522C386.293 71.1522 385.483 70.3222 385.413 69.0322L386.853 68.9622C386.913 69.6522 387.373 69.8922 387.953 69.8922C388.583 69.8922 389.073 69.5922 389.073 68.8922C389.073 68.2122 388.623 67.8522 387.883 67.8522H387.353V66.7222H387.883C388.443 66.7222 388.853 66.4722 388.853 65.8622C388.853 65.2722 388.503 64.9822 387.943 64.9822C387.323 64.9822 387.023 65.2922 386.963 65.7822L385.523 65.7122C385.663 64.5022 386.493 63.7322 387.953 63.7322C389.413 63.7322 390.313 64.4522 390.313 65.6722C390.313 66.4422 389.913 66.9522 389.163 67.1922C390.033 67.4422 390.533 68.0922 390.533 68.9922C390.533 70.3322 389.523 71.1522 387.923 71.1522ZM392.639 70.9922C392.639 68.8422 393.539 66.8822 395.009 65.1722H391.509V63.8922H396.429V65.1022C394.799 66.9622 394.129 68.5522 394.129 70.9922H392.639ZM399.955 71.1522C398.455 71.1522 397.545 70.2622 397.445 69.0922L398.905 69.0122C398.995 69.5922 399.345 69.8922 399.955 69.8922C400.615 69.8922 401.025 69.4722 401.025 68.6622C401.025 67.8722 400.605 67.4122 399.965 67.4122C399.525 67.4122 399.155 67.6722 399.015 68.0322L397.545 67.9622L397.965 63.8922H402.155V65.1722H399.135L398.955 66.7022C399.285 66.4222 399.725 66.2622 400.205 66.2622C401.615 66.2622 402.485 67.2822 402.485 68.6722C402.485 70.1422 401.485 71.1522 399.955 71.1522Z" fill="black"/>
<path id="347" d="M20.5783 173.598C18.9483 173.598 18.1383 172.767 18.0683 171.477L19.5083 171.407C19.5683 172.097 20.0283 172.337 20.6083 172.337C21.2383 172.337 21.7283 172.037 21.7283 171.337C21.7283 170.657 21.2783 170.297 20.5383 170.297H20.0083V169.167H20.5383C21.0983 169.167 21.5083 168.917 21.5083 168.307C21.5083 167.717 21.1583 167.427 20.5983 167.427C19.9783 167.427 19.6783 167.737 19.6183 168.227L18.1783 168.158C18.3183 166.947 19.1483 166.177 20.6083 166.177C22.0683 166.177 22.9683 166.897 22.9683 168.117C22.9683 168.887 22.5683 169.397 21.8183 169.637C22.6883 169.887 23.1883 170.537 23.1883 171.437C23.1883 172.778 22.1783 173.598 20.5783 173.598ZM27.0744 173.438V172.017H23.9044V170.847L26.8844 166.337H28.5044V170.777H29.3444V172.017H28.5044V173.438H27.0744ZM25.2444 170.777H27.0744V168.127L25.2444 170.777ZM31.2905 173.438C31.2905 171.287 32.1905 169.327 33.6605 167.617H30.1605V166.337H35.0805V167.547C33.4505 169.407 32.7805 170.997 32.7805 173.438H31.2905Z" fill="black"/>
<path id="347_2" d="M466.771 173.598C465.141 173.598 464.331 172.767 464.261 171.477L465.701 171.407C465.761 172.097 466.221 172.337 466.801 172.337C467.431 172.337 467.921 172.037 467.921 171.337C467.921 170.657 467.471 170.297 466.731 170.297H466.201V169.167H466.731C467.291 169.167 467.701 168.917 467.701 168.307C467.701 167.717 467.351 167.427 466.791 167.427C466.171 167.427 465.871 167.737 465.811 168.227L464.371 168.158C464.511 166.947 465.341 166.177 466.801 166.177C468.261 166.177 469.161 166.897 469.161 168.117C469.161 168.887 468.761 169.397 468.011 169.637C468.881 169.887 469.381 170.537 469.381 171.437C469.381 172.778 468.371 173.598 466.771 173.598ZM473.267 173.438V172.017H470.097V170.847L473.077 166.337H474.697V170.777H475.537V172.017H474.697V173.438H473.267ZM471.437 170.777H473.267V168.127L471.437 170.777ZM477.483 173.438C477.483 171.287 478.383 169.327 479.853 167.617H476.353V166.337H481.273V167.547C479.643 169.407 478.973 170.997 478.973 173.438H477.483Z" fill="black"/>
</g>
<path id="field" d="M383.911 71.8447L491.575 171.883V177.963L359.825 377.469L304.879 444.74C276.924 478.966 224.64 479.044 196.583 444.902L141.169 377.469L9.44354 178.045V171.359L117.441 71.5123C192.692 1.94117 308.834 2.08609 383.911 71.8447Z" fill="#27251F" fill-opacity="0.1" fill="none" stroke="#27251F" stroke-width="1.002"/>
</g>
<defs>
<clipPath id="clip0_124_6589">
<rect width="500" height="469.94" fill="white"/>
</clipPath>
</defs>
</svg>
