<svg width="500" height="470" viewBox="0 0 500 470" fill="none" xmlns="http://www.w3.org/2000/svg">
<g id="riverfront-stadium-1970" clip-path="url(#clip0_113_5084)">
<g id="Infield">
<path d="M339.98 327.766C339.453 325.666 322.032 258.479 250.83 258.479C180.238 258.479 162.505 324.538 161.697 327.699C161.677 327.776 161.668 327.816 161.668 327.816L236.504 402.653C235.305 404.912 234.623 407.489 234.623 410.238C234.623 419.186 241.873 426.445 250.83 426.445C259.778 426.445 267.037 419.186 267.037 410.238C267.037 407.489 266.356 404.912 265.156 402.657L260.695 397.375C257.96 395.278 254.544 394.026 250.83 394.026C247.117 394.026 243.701 395.278 240.971 397.37L197.7 354.1C201.448 350.353 201.448 344.277 197.7 340.53C197.698 340.527 197.694 340.525 197.691 340.522L244.055 294.038C247.8 297.773 253.861 297.773 257.606 294.038L303.431 339.984C303.431 339.984 303.427 339.985 303.424 339.988C299.677 343.736 300.275 350.3 304.022 354.047L260.695 397.375L265.156 402.657L339.98 327.766Z" fill="#D2D2D2"/>
<path d="M259.91 345.706C259.91 350.721 255.845 354.787 250.83 354.787C245.815 354.787 241.75 350.721 241.75 345.706C241.75 340.691 245.815 336.626 250.83 336.626C255.845 336.626 259.91 340.691 259.91 345.706Z" fill="#D2D2D2"/>
</g>
<g id="Guides">
<g id="Home">
<circle id="Ellipse 1" cx="250.827" cy="410.421" r="16.0848" fill="#D2D2D2"/>
<circle id="Ellipse 1_2" cx="250.827" cy="410.422" r="1.62919" fill="black"/>
</g>
<g id="First">
<circle id="Ellipse 1_3" cx="311.125" cy="346.532" r="10.1878" fill="#D2D2D2"/>
<circle id="Ellipse 1_4" cx="311.125" cy="346.532" r="1.0319" fill="black"/>
</g>
<g id="Third">
<circle id="Ellipse 1_5" cx="190.34" cy="346.532" r="10.1878" fill="#D2D2D2"/>
<circle id="Ellipse 1_6" cx="190.34" cy="346.532" r="1.0319" fill="black"/>
</g>
<g id="Second">
<circle id="Ellipse 1_7" cx="250.827" cy="286.67" r="10.1878" fill="#D2D2D2"/>
<circle id="Ellipse 1_8" cx="250.827" cy="286.671" r="1.0319" fill="black"/>
</g>
<g id="Mound">
<circle id="Ellipse 1_9" cx="250.827" cy="345.927" r="9.08365" fill="#D2D2D2"/>
<circle id="Ellipse 1_10" cx="250.827" cy="345.928" r="0.920062" fill="black"/>
</g>
</g>
<path id="Foul Lines" d="M479.123 182.367L250.976 410.517L22.775 182.316" fill="none" stroke="black" stroke-width="1.002"/>
<g id="Measurements">
<path id="404" d="M245.203 11.6992V10.2792H242.033V9.10922L245.013 4.59922H246.633V9.03922H247.473V10.2792H246.633V11.6992H245.203ZM243.373 9.03922H245.203V6.38922L243.373 9.03922ZM250.749 11.8592C249.149 11.8592 248.189 10.4492 248.189 8.15922C248.189 5.85922 249.149 4.43922 250.749 4.43922C252.349 4.43922 253.309 5.85922 253.309 8.15922C253.309 10.4492 252.349 11.8592 250.749 11.8592ZM249.649 8.15922C249.649 8.58922 249.679 8.95922 249.739 9.26922L251.429 6.07922C251.249 5.82922 251.019 5.69922 250.749 5.69922C250.059 5.69922 249.649 6.51922 249.649 8.15922ZM250.749 10.5992C251.439 10.5992 251.849 9.78922 251.849 8.15922C251.849 7.72922 251.819 7.34922 251.759 7.02922L250.069 10.2192C250.249 10.4692 250.479 10.5992 250.749 10.5992ZM257.195 11.6992V10.2792H254.025V9.10922L257.005 4.59922H258.625V9.03922H259.465V10.2792H258.625V11.6992H257.195ZM255.365 9.03922H257.195V6.38922L255.365 9.03922Z" fill="black"/>
<path id="375" d="M92.5452 69.9803C90.9152 69.9803 90.1052 69.1503 90.0352 67.8603L91.4752 67.7903C91.5352 68.4803 91.9952 68.7203 92.5752 68.7203C93.2052 68.7203 93.6952 68.4203 93.6952 67.7203C93.6952 67.0403 93.2452 66.6803 92.5052 66.6803H91.9752V65.5503H92.5052C93.0652 65.5503 93.4752 65.3003 93.4752 64.6903C93.4752 64.1003 93.1252 63.8103 92.5652 63.8103C91.9452 63.8103 91.6452 64.1203 91.5852 64.6103L90.1452 64.5403C90.2852 63.3303 91.1152 62.5603 92.5752 62.5603C94.0352 62.5603 94.9352 63.2803 94.9352 64.5003C94.9352 65.2703 94.5352 65.7803 93.7852 66.0203C94.6552 66.2703 95.1552 66.9203 95.1552 67.8203C95.1552 69.1603 94.1452 69.9803 92.5452 69.9803ZM97.2613 69.8203C97.2613 67.6703 98.1613 65.7103 99.6313 64.0003H96.1313V62.7203H101.051V63.9303C99.4213 65.7903 98.7513 67.3803 98.7513 69.8203H97.2613ZM104.577 69.9803C103.077 69.9803 102.167 69.0903 102.067 67.9203L103.527 67.8403C103.617 68.4203 103.967 68.7203 104.577 68.7203C105.237 68.7203 105.647 68.3003 105.647 67.4903C105.647 66.7003 105.227 66.2403 104.587 66.2403C104.147 66.2403 103.777 66.5003 103.637 66.8603L102.167 66.7903L102.587 62.7203H106.777V64.0003H103.757L103.577 65.5303C103.907 65.2503 104.347 65.0903 104.827 65.0903C106.237 65.0903 107.107 66.1103 107.107 67.5003C107.107 68.9703 106.107 69.9803 104.577 69.9803Z" fill="black"/>
<path id="375_2" d="M397.233 69.9803C395.603 69.9803 394.793 69.1503 394.723 67.8603L396.163 67.7903C396.223 68.4803 396.683 68.7203 397.263 68.7203C397.893 68.7203 398.383 68.4203 398.383 67.7203C398.383 67.0403 397.933 66.6803 397.193 66.6803H396.663V65.5503H397.193C397.753 65.5503 398.163 65.3003 398.163 64.6903C398.163 64.1003 397.813 63.8103 397.253 63.8103C396.633 63.8103 396.333 64.1203 396.273 64.6103L394.833 64.5403C394.973 63.3303 395.803 62.5603 397.263 62.5603C398.723 62.5603 399.623 63.2803 399.623 64.5003C399.623 65.2703 399.223 65.7803 398.473 66.0203C399.343 66.2703 399.843 66.9203 399.843 67.8203C399.843 69.1603 398.833 69.9803 397.233 69.9803ZM401.949 69.8203C401.949 67.6703 402.849 65.7103 404.319 64.0003H400.819V62.7203H405.739V63.9303C404.109 65.7903 403.439 67.3803 403.439 69.8203H401.949ZM409.265 69.9803C407.765 69.9803 406.855 69.0903 406.755 67.9203L408.215 67.8403C408.305 68.4203 408.655 68.7203 409.265 68.7203C409.925 68.7203 410.335 68.3003 410.335 67.4903C410.335 66.7003 409.915 66.2403 409.275 66.2403C408.835 66.2403 408.465 66.5003 408.325 66.8603L406.855 66.7903L407.275 62.7203H411.465V64.0003H408.445L408.265 65.5303C408.595 65.2503 409.035 65.0903 409.515 65.0903C410.925 65.0903 411.795 66.1103 411.795 67.5003C411.795 68.9703 410.795 69.9803 409.265 69.9803Z" fill="black"/>
<path id="330" d="M31.5879 183.865C29.9579 183.865 29.1479 183.035 29.0779 181.745L30.5179 181.675C30.5779 182.365 31.0379 182.605 31.6179 182.605C32.2479 182.605 32.7379 182.305 32.7379 181.605C32.7379 180.925 32.2879 180.565 31.5479 180.565H31.0179V179.435H31.5479C32.1079 179.435 32.5179 179.185 32.5179 178.575C32.5179 177.985 32.1679 177.695 31.6079 177.695C30.9879 177.695 30.6879 178.005 30.6279 178.495L29.1879 178.425C29.3279 177.215 30.1579 176.445 31.6179 176.445C33.0779 176.445 33.9779 177.165 33.9779 178.385C33.9779 179.155 33.5779 179.665 32.8279 179.905C33.6979 180.155 34.1979 180.805 34.1979 181.705C34.1979 183.045 33.1879 183.865 31.5879 183.865ZM37.584 183.865C35.954 183.865 35.144 183.035 35.074 181.745L36.514 181.675C36.574 182.365 37.034 182.605 37.614 182.605C38.244 182.605 38.734 182.305 38.734 181.605C38.734 180.925 38.284 180.565 37.544 180.565H37.014V179.435H37.544C38.104 179.435 38.514 179.185 38.514 178.575C38.514 177.985 38.164 177.695 37.604 177.695C36.984 177.695 36.684 178.005 36.624 178.495L35.184 178.425C35.324 177.215 36.154 176.445 37.614 176.445C39.074 176.445 39.974 177.165 39.974 178.385C39.974 179.155 39.574 179.665 38.824 179.905C39.694 180.155 40.194 180.805 40.194 181.705C40.194 183.045 39.184 183.865 37.584 183.865ZM43.6301 183.865C42.0301 183.865 41.0701 182.455 41.0701 180.165C41.0701 177.865 42.0301 176.445 43.6301 176.445C45.2301 176.445 46.1901 177.865 46.1901 180.165C46.1901 182.455 45.2301 183.865 43.6301 183.865ZM42.5301 180.165C42.5301 180.595 42.5601 180.965 42.6201 181.275L44.3101 178.085C44.1301 177.835 43.9001 177.705 43.6301 177.705C42.9401 177.705 42.5301 178.525 42.5301 180.165ZM43.6301 182.605C44.3201 182.605 44.7301 181.795 44.7301 180.165C44.7301 179.735 44.7001 179.355 44.6401 179.035L42.9501 182.225C43.1301 182.475 43.3601 182.605 43.6301 182.605Z" fill="black"/>
<path id="330_2" d="M457.555 183.865C455.925 183.865 455.115 183.035 455.045 181.745L456.485 181.675C456.545 182.365 457.005 182.605 457.585 182.605C458.215 182.605 458.705 182.305 458.705 181.605C458.705 180.925 458.255 180.565 457.515 180.565H456.985V179.435H457.515C458.075 179.435 458.485 179.185 458.485 178.575C458.485 177.985 458.135 177.695 457.575 177.695C456.955 177.695 456.655 178.005 456.595 178.495L455.155 178.425C455.295 177.215 456.125 176.445 457.585 176.445C459.045 176.445 459.945 177.165 459.945 178.385C459.945 179.155 459.545 179.665 458.795 179.905C459.665 180.155 460.165 180.805 460.165 181.705C460.165 183.045 459.155 183.865 457.555 183.865ZM463.551 183.865C461.921 183.865 461.111 183.035 461.041 181.745L462.481 181.675C462.541 182.365 463.001 182.605 463.581 182.605C464.211 182.605 464.701 182.305 464.701 181.605C464.701 180.925 464.251 180.565 463.511 180.565H462.981V179.435H463.511C464.071 179.435 464.481 179.185 464.481 178.575C464.481 177.985 464.131 177.695 463.571 177.695C462.951 177.695 462.651 178.005 462.591 178.495L461.151 178.425C461.291 177.215 462.121 176.445 463.581 176.445C465.041 176.445 465.941 177.165 465.941 178.385C465.941 179.155 465.541 179.665 464.791 179.905C465.661 180.155 466.161 180.805 466.161 181.705C466.161 183.045 465.151 183.865 463.551 183.865ZM469.597 183.865C467.997 183.865 467.037 182.455 467.037 180.165C467.037 177.865 467.997 176.445 469.597 176.445C471.197 176.445 472.157 177.865 472.157 180.165C472.157 182.455 471.197 183.865 469.597 183.865ZM468.497 180.165C468.497 180.595 468.527 180.965 468.587 181.275L470.277 178.085C470.097 177.835 469.867 177.705 469.597 177.705C468.907 177.705 468.497 178.525 468.497 180.165ZM469.597 182.605C470.287 182.605 470.697 181.795 470.697 180.165C470.697 179.735 470.667 179.355 470.607 179.035L468.917 182.225C469.097 182.475 469.327 182.605 469.597 182.605Z" fill="black"/>
</g>
<path id="field" d="M19.3083 188.414C57.8766 114.187 136.217 15.2188 250.83 15.2188C365.443 15.2188 443.783 114.187 482.352 188.414L442.557 230.211L324.089 431.794C291.236 487.696 210.405 487.707 177.537 431.814L57.8812 228.336L19.3083 188.414Z" fill="#C6011F" fill-opacity="0.1" fill="none" stroke="#C6011F" stroke-width="1.002"/>
</g>
<defs>
<clipPath id="clip0_113_5084">
<rect width="500" height="469.94" fill="white"/>
</clipPath>
</defs>
</svg>
