<svg width="500" height="470" viewBox="0 0 500 470" fill="none" xmlns="http://www.w3.org/2000/svg">
<g id="riverfront-stadium-2001">
<g id="Infield">
<path d="M339.98 327.766C339.453 325.666 322.032 258.479 250.83 258.479C180.238 258.479 162.505 324.538 161.697 327.699C161.677 327.776 161.668 327.816 161.668 327.816L236.504 402.653C235.305 404.912 234.623 407.489 234.623 410.238C234.623 419.186 241.873 426.445 250.83 426.445C259.778 426.445 267.037 419.186 267.037 410.238C267.037 407.489 266.356 404.912 265.156 402.657L260.695 397.375C257.96 395.278 254.544 394.026 250.83 394.026C247.117 394.026 243.701 395.278 240.971 397.37L197.7 354.1C201.448 350.353 201.448 344.277 197.7 340.53C197.698 340.527 197.694 340.525 197.691 340.522L244.055 294.038C247.8 297.773 253.861 297.773 257.606 294.038L303.431 339.984C303.431 339.984 303.427 339.985 303.424 339.988C299.677 343.736 300.275 350.3 304.022 354.047L260.695 397.375L265.156 402.657L339.98 327.766Z" fill="#D2D2D2"/>
<path d="M259.91 345.706C259.91 350.721 255.845 354.787 250.83 354.787C245.815 354.787 241.75 350.721 241.75 345.706C241.75 340.691 245.815 336.626 250.83 336.626C255.845 336.626 259.91 340.691 259.91 345.706Z" fill="#D2D2D2"/>
</g>
<g id="Guides">
<g id="Home">
<circle id="Ellipse 1" cx="250.827" cy="410.421" r="16.0848" fill="#D2D2D2"/>
<circle id="Ellipse 1_2" cx="250.827" cy="410.422" r="1.62919" fill="black"/>
</g>
<g id="First">
<circle id="Ellipse 1_3" cx="311.125" cy="346.532" r="10.1878" fill="#D2D2D2"/>
<circle id="Ellipse 1_4" cx="311.125" cy="346.532" r="1.0319" fill="black"/>
</g>
<g id="Third">
<circle id="Ellipse 1_5" cx="190.34" cy="346.532" r="10.1878" fill="#D2D2D2"/>
<circle id="Ellipse 1_6" cx="190.34" cy="346.532" r="1.0319" fill="black"/>
</g>
<g id="Second">
<circle id="Ellipse 1_7" cx="250.827" cy="286.67" r="10.1878" fill="#D2D2D2"/>
<circle id="Ellipse 1_8" cx="250.827" cy="286.671" r="1.0319" fill="black"/>
</g>
<g id="Mound">
<circle id="Ellipse 1_9" cx="250.827" cy="345.927" r="9.08365" fill="#D2D2D2"/>
<circle id="Ellipse 1_10" cx="250.827" cy="345.928" r="0.920062" fill="black"/>
</g>
</g>
<path id="Foul Lines" d="M476.498 184.994L250.976 410.517L24.6458 184.188" fill="none" stroke="black" stroke-width="1.002"/>
<g id="Measurements">
<path id="393" d="M244.703 20.8592C243.073 20.8592 242.263 20.0292 242.193 18.7392L243.633 18.6692C243.693 19.3592 244.153 19.5992 244.733 19.5992C245.363 19.5992 245.853 19.2992 245.853 18.5992C245.853 17.9192 245.403 17.5592 244.663 17.5592H244.133V16.4292H244.663C245.223 16.4292 245.633 16.1792 245.633 15.5692C245.633 14.9792 245.283 14.6892 244.723 14.6892C244.103 14.6892 243.803 14.9992 243.743 15.4892L242.303 15.4192C242.443 14.2092 243.273 13.4392 244.733 13.4392C246.193 13.4392 247.093 14.1592 247.093 15.3792C247.093 16.1492 246.693 16.6592 245.943 16.8992C246.813 17.1492 247.313 17.7992 247.313 18.6992C247.313 20.0392 246.303 20.8592 244.703 20.8592ZM250.729 13.4392C252.459 13.4392 253.369 14.6092 253.369 16.6692C253.369 19.0192 252.559 20.8592 250.469 20.8592C249.069 20.8592 248.419 20.0992 248.159 19.0792L249.599 18.9792C249.699 19.3392 249.929 19.5992 250.469 19.5992C251.209 19.5992 251.729 19.0892 251.889 17.8692C251.549 18.1692 251.069 18.3892 250.439 18.3892C249.029 18.3892 248.129 17.4392 248.129 16.0092C248.129 14.4292 249.159 13.4392 250.729 13.4392ZM250.759 14.7192C250.009 14.7192 249.589 15.1592 249.589 15.9592C249.589 16.6992 249.969 17.1792 250.699 17.1792C251.439 17.1792 251.909 16.6892 251.909 15.9492C251.909 15.2692 251.489 14.7192 250.759 14.7192ZM256.695 20.8592C255.065 20.8592 254.255 20.0292 254.185 18.7392L255.625 18.6692C255.685 19.3592 256.145 19.5992 256.725 19.5992C257.355 19.5992 257.845 19.2992 257.845 18.5992C257.845 17.9192 257.395 17.5592 256.655 17.5592H256.125V16.4292H256.655C257.215 16.4292 257.625 16.1792 257.625 15.5692C257.625 14.9792 257.275 14.6892 256.715 14.6892C256.095 14.6892 255.795 14.9992 255.735 15.4892L254.295 15.4192C254.435 14.2092 255.265 13.4392 256.725 13.4392C258.185 13.4392 259.085 14.1592 259.085 15.3792C259.085 16.1492 258.685 16.6592 257.935 16.8992C258.805 17.1492 259.305 17.7992 259.305 18.6992C259.305 20.0392 258.295 20.8592 256.695 20.8592Z" fill="black"/>
<path id="371" d="M82.0065 78.7616C80.3765 78.7616 79.5665 77.9316 79.4965 76.6416L80.9365 76.5716C80.9965 77.2616 81.4565 77.5016 82.0365 77.5016C82.6665 77.5016 83.1565 77.2016 83.1565 76.5016C83.1565 75.8216 82.7065 75.4616 81.9665 75.4616H81.4365V74.3316H81.9665C82.5265 74.3316 82.9365 74.0816 82.9365 73.4716C82.9365 72.8816 82.5865 72.5916 82.0265 72.5916C81.4065 72.5916 81.1065 72.9016 81.0465 73.3916L79.6065 73.3216C79.7465 72.1116 80.5765 71.3416 82.0365 71.3416C83.4965 71.3416 84.3965 72.0616 84.3965 73.2816C84.3965 74.0516 83.9965 74.5616 83.2465 74.8016C84.1165 75.0516 84.6165 75.7016 84.6165 76.6016C84.6165 77.9416 83.6065 78.7616 82.0065 78.7616ZM86.7226 78.6016C86.7226 76.4516 87.6226 74.4916 89.0926 72.7816H85.5926V71.5016H90.5126V72.7116C88.8826 74.5716 88.2126 76.1616 88.2126 78.6016H86.7226ZM91.5287 78.6016V77.3216H93.5687V73.9416H91.8287V72.7616H92.6087C93.4087 72.7616 93.7487 72.4216 93.7487 71.5016H94.9887V77.3216H96.5687V78.6016H91.5287Z" fill="black"/>
<path id="373" d="M389.42 65.7616C387.79 65.7616 386.98 64.9316 386.91 63.6416L388.35 63.5716C388.41 64.2616 388.87 64.5016 389.45 64.5016C390.08 64.5016 390.57 64.2016 390.57 63.5016C390.57 62.8216 390.12 62.4616 389.38 62.4616H388.85V61.3316H389.38C389.94 61.3316 390.35 61.0816 390.35 60.4716C390.35 59.8816 390 59.5916 389.44 59.5916C388.82 59.5916 388.52 59.9016 388.46 60.3916L387.02 60.3216C387.16 59.1116 387.99 58.3416 389.45 58.3416C390.91 58.3416 391.81 59.0616 391.81 60.2816C391.81 61.0516 391.41 61.5616 390.66 61.8016C391.53 62.0516 392.03 62.7016 392.03 63.6016C392.03 64.9416 391.02 65.7616 389.42 65.7616ZM394.136 65.6016C394.136 63.4516 395.036 61.4916 396.506 59.7816H393.006V58.5016H397.926V59.7116C396.296 61.5716 395.626 63.1616 395.626 65.6016H394.136ZM401.412 65.7616C399.782 65.7616 398.972 64.9316 398.902 63.6416L400.342 63.5716C400.402 64.2616 400.862 64.5016 401.442 64.5016C402.072 64.5016 402.562 64.2016 402.562 63.5016C402.562 62.8216 402.112 62.4616 401.372 62.4616H400.842V61.3316H401.372C401.932 61.3316 402.342 61.0816 402.342 60.4716C402.342 59.8816 401.992 59.5916 401.432 59.5916C400.812 59.5916 400.512 59.9016 400.452 60.3916L399.012 60.3216C399.152 59.1116 399.982 58.3416 401.442 58.3416C402.902 58.3416 403.802 59.0616 403.802 60.2816C403.802 61.0516 403.402 61.5616 402.652 61.8016C403.522 62.0516 404.022 62.7016 404.022 63.6016C404.022 64.9416 403.012 65.7616 401.412 65.7616Z" fill="black"/>
<path id="325" d="M33.5879 185.865C31.9579 185.865 31.1479 185.035 31.0779 183.745L32.5179 183.675C32.5779 184.365 33.0379 184.605 33.6179 184.605C34.2479 184.605 34.7379 184.305 34.7379 183.605C34.7379 182.925 34.2879 182.565 33.5479 182.565H33.0179V181.435H33.5479C34.1079 181.435 34.5179 181.185 34.5179 180.575C34.5179 179.985 34.1679 179.695 33.6079 179.695C32.9879 179.695 32.6879 180.005 32.6279 180.495L31.1879 180.425C31.3279 179.215 32.1579 178.445 33.6179 178.445C35.0779 178.445 35.9779 179.165 35.9779 180.385C35.9779 181.155 35.5779 181.665 34.8279 181.905C35.6979 182.155 36.1979 182.805 36.1979 183.705C36.1979 185.045 35.1879 185.865 33.5879 185.865ZM37.074 185.705C37.074 183.975 37.654 182.965 39.634 181.945C40.364 181.565 40.724 181.285 40.724 180.635C40.724 180.065 40.394 179.705 39.764 179.705C39.044 179.705 38.694 180.125 38.574 180.885L37.104 180.795C37.244 179.345 38.154 178.445 39.784 178.445C41.374 178.445 42.194 179.295 42.194 180.555C42.194 181.695 41.704 182.255 40.304 183.015C39.154 183.635 38.744 184.065 38.704 184.425H42.194V185.705H37.074ZM45.6201 185.865C44.1201 185.865 43.2101 184.975 43.1101 183.805L44.5701 183.725C44.6601 184.305 45.0101 184.605 45.6201 184.605C46.2801 184.605 46.6901 184.185 46.6901 183.375C46.6901 182.585 46.2701 182.125 45.6301 182.125C45.1901 182.125 44.8201 182.385 44.6801 182.745L43.2101 182.675L43.6301 178.605H47.8201V179.885H44.8001L44.6201 181.415C44.9501 181.135 45.3901 180.975 45.8701 180.975C47.2801 180.975 48.1501 181.995 48.1501 183.385C48.1501 184.855 47.1501 185.865 45.6201 185.865Z" fill="black"/>
<path id="325_2" d="M453.555 186.865C451.925 186.865 451.115 186.035 451.045 184.745L452.485 184.675C452.545 185.365 453.005 185.605 453.585 185.605C454.215 185.605 454.705 185.305 454.705 184.605C454.705 183.925 454.255 183.565 453.515 183.565H452.985V182.435H453.515C454.075 182.435 454.485 182.185 454.485 181.575C454.485 180.985 454.135 180.695 453.575 180.695C452.955 180.695 452.655 181.005 452.595 181.495L451.155 181.425C451.295 180.215 452.125 179.445 453.585 179.445C455.045 179.445 455.945 180.165 455.945 181.385C455.945 182.155 455.545 182.665 454.795 182.905C455.665 183.155 456.165 183.805 456.165 184.705C456.165 186.045 455.155 186.865 453.555 186.865ZM457.041 186.705C457.041 184.975 457.621 183.965 459.601 182.945C460.331 182.565 460.691 182.285 460.691 181.635C460.691 181.065 460.361 180.705 459.731 180.705C459.011 180.705 458.661 181.125 458.541 181.885L457.071 181.795C457.211 180.345 458.121 179.445 459.751 179.445C461.341 179.445 462.161 180.295 462.161 181.555C462.161 182.695 461.671 183.255 460.271 184.015C459.121 184.635 458.711 185.065 458.671 185.425H462.161V186.705H457.041ZM465.587 186.865C464.087 186.865 463.177 185.975 463.077 184.805L464.537 184.725C464.627 185.305 464.977 185.605 465.587 185.605C466.247 185.605 466.657 185.185 466.657 184.375C466.657 183.585 466.237 183.125 465.597 183.125C465.157 183.125 464.787 183.385 464.647 183.745L463.177 183.675L463.597 179.605H467.787V180.885H464.767L464.587 182.415C464.917 182.135 465.357 181.975 465.837 181.975C467.247 181.975 468.117 182.995 468.117 184.385C468.117 185.855 467.117 186.865 465.587 186.865Z" fill="black"/>
</g>
<path id="field" d="M480.764 191.438C429.822 115.245 387.775 28.6741 264.751 25.0732C255.536 24.8034 246.353 26.3591 237.521 29.0057L132.834 60.3778C122.48 63.4805 112.551 68.0531 104.19 74.9028C61.8768 109.567 39.8641 155.084 20.7224 191.924L71.7217 243.974L177.537 417.813C210.405 473.706 291.236 473.695 324.089 417.793L429.283 243.974L480.764 191.438Z" fill="#C6011F" fill-opacity="0.1" fill="none" stroke="#C6011F" stroke-width="1.002"/>
</g>
</svg>
