<svg width="500" height="470" viewBox="0 0 500 470" fill="none" xmlns="http://www.w3.org/2000/svg">
<g id="robert-f-kennedy-memorial-stadium-1962" clip-path="url(#clip0_112_4912)">
<g id="Infield">
<path d="M339.98 327.766C339.453 325.666 322.032 258.479 250.83 258.479C180.238 258.479 162.505 324.538 161.697 327.699C161.677 327.776 161.668 327.816 161.668 327.816L236.504 402.653C235.305 404.912 234.623 407.489 234.623 410.238C234.623 419.186 241.873 426.445 250.83 426.445C259.778 426.445 267.037 419.186 267.037 410.238C267.037 407.489 266.356 404.912 265.156 402.657L260.695 397.375C257.96 395.278 254.544 394.026 250.83 394.026C247.117 394.026 243.701 395.278 240.971 397.37L197.7 354.1C201.448 350.353 201.448 344.277 197.7 340.53C197.698 340.527 197.694 340.525 197.691 340.522L244.055 294.038C247.8 297.773 253.861 297.773 257.606 294.038L303.431 339.984C303.431 339.984 303.427 339.985 303.424 339.988C299.677 343.736 300.275 350.3 304.022 354.047L260.695 397.375L265.156 402.657L339.98 327.766Z" fill="#D2D2D2"/>
<path d="M259.91 345.706C259.91 350.721 255.845 354.787 250.83 354.787C245.815 354.787 241.75 350.721 241.75 345.706C241.75 340.691 245.815 336.626 250.83 336.626C255.845 336.626 259.91 340.691 259.91 345.706Z" fill="#D2D2D2"/>
</g>
<g id="Guides">
<g id="Home">
<circle id="Ellipse 1" cx="250.827" cy="410.419" r="16.0848" fill="#D2D2D2"/>
<circle id="Ellipse 1_2" cx="250.827" cy="410.418" r="1.62919" fill="black"/>
</g>
<g id="First">
<circle id="Ellipse 1_3" cx="311.125" cy="346.532" r="10.1878" fill="#D2D2D2"/>
<circle id="Ellipse 1_4" cx="311.125" cy="346.532" r="1.0319" fill="black"/>
</g>
<g id="Third">
<circle id="Ellipse 1_5" cx="190.34" cy="346.532" r="10.1878" fill="#D2D2D2"/>
<circle id="Ellipse 1_6" cx="190.34" cy="346.532" r="1.0319" fill="black"/>
</g>
<g id="Second">
<circle id="Ellipse 1_7" cx="250.827" cy="286.67" r="10.1878" fill="#D2D2D2"/>
<circle id="Ellipse 1_8" cx="250.827" cy="286.671" r="1.0319" fill="black"/>
</g>
<g id="Mound">
<circle id="Ellipse 1_9" cx="250.827" cy="345.929" r="9.08365" fill="#D2D2D2"/>
<circle id="Ellipse 1_10" cx="250.827" cy="345.93" r="0.920062" fill="black"/>
</g>
</g>
<path id="Foul Lines" d="M483.248 178.244L250.976 410.517L18.4323 177.973" fill="none" stroke="black" stroke-width="1.002"/>
<g id="Measurements">
<path id="410" d="M246.203 4.69922V3.27922H243.033V2.10922L246.013 -2.40078H247.633V2.03922H248.473V3.27922H247.633V4.69922H246.203ZM244.373 2.03922H246.203V-0.610781L244.373 2.03922ZM249.229 4.69922V3.41922H251.269V0.0392185H249.529V-1.14078H250.309C251.109 -1.14078 251.449 -1.48078 251.449 -2.40078H252.689V3.41922H254.269V4.69922H249.229ZM257.745 4.85922C256.145 4.85922 255.185 3.44922 255.185 1.15922C255.185 -1.14078 256.145 -2.56078 257.745 -2.56078C259.345 -2.56078 260.305 -1.14078 260.305 1.15922C260.305 3.44922 259.345 4.85922 257.745 4.85922ZM256.645 1.15922C256.645 1.58922 256.675 1.95922 256.735 2.26922L258.425 -0.920782C258.245 -1.17078 258.015 -1.30078 257.745 -1.30078C257.055 -1.30078 256.645 -0.480781 256.645 1.15922ZM257.745 3.59922C258.435 3.59922 258.845 2.78922 258.845 1.15922C258.845 0.729219 258.815 0.349218 258.755 0.0292187L257.065 3.21922C257.245 3.46922 257.475 3.59922 257.745 3.59922Z" fill="black"/>
<path id="378" d="M380.597 60.1717C378.967 60.1717 378.157 59.3417 378.087 58.0517L379.527 57.9817C379.587 58.6717 380.047 58.9117 380.627 58.9117C381.257 58.9117 381.747 58.6117 381.747 57.9117C381.747 57.2317 381.297 56.8717 380.557 56.8717H380.027V55.7417H380.557C381.117 55.7417 381.527 55.4917 381.527 54.8817C381.527 54.2917 381.177 54.0017 380.617 54.0017C379.997 54.0017 379.697 54.3117 379.637 54.8017L378.197 54.7317C378.337 53.5217 379.167 52.7517 380.627 52.7517C382.087 52.7517 382.987 53.4717 382.987 54.6917C382.987 55.4617 382.587 55.9717 381.837 56.2117C382.707 56.4617 383.207 57.1117 383.207 58.0117C383.207 59.3517 382.197 60.1717 380.597 60.1717ZM385.313 60.0117C385.313 57.8617 386.213 55.9017 387.683 54.1917H384.183V52.9117H389.103V54.1217C387.473 55.9817 386.803 57.5717 386.803 60.0117H385.313ZM392.639 60.1717C391.069 60.1717 390.019 59.4517 390.019 58.0717C390.019 57.1417 390.559 56.4817 391.429 56.2017C390.759 55.9417 390.309 55.4517 390.309 54.7117C390.309 53.5717 391.239 52.7517 392.639 52.7517C394.039 52.7517 394.969 53.5717 394.969 54.7117C394.969 55.4517 394.519 55.9417 393.839 56.2017C394.719 56.4817 395.259 57.1417 395.259 58.0717C395.259 59.4517 394.209 60.1717 392.639 60.1717ZM392.639 55.6317C393.149 55.6317 393.499 55.3617 393.499 54.8017C393.499 54.3017 393.159 54.0117 392.639 54.0117C392.119 54.0117 391.779 54.3017 391.779 54.8017C391.779 55.3617 392.129 55.6317 392.639 55.6317ZM392.639 58.9117C393.279 58.9117 393.799 58.6317 393.799 57.9317C393.799 57.2617 393.369 56.8417 392.639 56.8417C391.909 56.8417 391.479 57.2617 391.479 57.9317C391.479 58.6317 391.999 58.9117 392.639 58.9117Z" fill="black"/>
<path id="381" d="M77.2544 73.1717C75.6244 73.1717 74.8144 72.3417 74.7444 71.0517L76.1844 70.9817C76.2444 71.6717 76.7044 71.9117 77.2844 71.9117C77.9144 71.9117 78.4044 71.6117 78.4044 70.9117C78.4044 70.2317 77.9544 69.8717 77.2144 69.8717H76.6844V68.7417H77.2144C77.7744 68.7417 78.1844 68.4917 78.1844 67.8817C78.1844 67.2917 77.8344 67.0017 77.2744 67.0017C76.6544 67.0017 76.3544 67.3117 76.2944 67.8017L74.8544 67.7317C74.9944 66.5217 75.8244 65.7517 77.2844 65.7517C78.7444 65.7517 79.6444 66.4717 79.6444 67.6917C79.6444 68.4617 79.2444 68.9717 78.4944 69.2117C79.3644 69.4617 79.8644 70.1117 79.8644 71.0117C79.8644 72.3517 78.8544 73.1717 77.2544 73.1717ZM83.3005 73.1717C81.7305 73.1717 80.6805 72.4517 80.6805 71.0717C80.6805 70.1417 81.2205 69.4817 82.0905 69.2017C81.4205 68.9417 80.9705 68.4517 80.9705 67.7117C80.9705 66.5717 81.9005 65.7517 83.3005 65.7517C84.7005 65.7517 85.6305 66.5717 85.6305 67.7117C85.6305 68.4517 85.1805 68.9417 84.5005 69.2017C85.3805 69.4817 85.9205 70.1417 85.9205 71.0717C85.9205 72.4517 84.8705 73.1717 83.3005 73.1717ZM83.3005 68.6317C83.8105 68.6317 84.1605 68.3617 84.1605 67.8017C84.1605 67.3017 83.8205 67.0117 83.3005 67.0117C82.7805 67.0117 82.4405 67.3017 82.4405 67.8017C82.4405 68.3617 82.7905 68.6317 83.3005 68.6317ZM83.3005 71.9117C83.9405 71.9117 84.4605 71.6317 84.4605 70.9317C84.4605 70.2617 84.0305 69.8417 83.3005 69.8417C82.5705 69.8417 82.1405 70.2617 82.1405 70.9317C82.1405 71.6317 82.6605 71.9117 83.3005 71.9117ZM86.7766 73.0117V71.7317H88.8166V68.3517H87.0766V67.1717H87.8566C88.6566 67.1717 88.9966 66.8317 88.9966 65.9117H90.2366V71.7317H91.8166V73.0117H86.7766Z" fill="black"/>
<path id="335" d="M460.522 180.408C458.892 180.408 458.082 179.578 458.012 178.288L459.452 178.218C459.512 178.908 459.972 179.148 460.552 179.148C461.182 179.148 461.672 178.848 461.672 178.148C461.672 177.468 461.222 177.108 460.482 177.108H459.952V175.978H460.482C461.042 175.978 461.452 175.728 461.452 175.118C461.452 174.528 461.102 174.238 460.542 174.238C459.922 174.238 459.622 174.548 459.562 175.038L458.122 174.968C458.262 173.758 459.092 172.988 460.552 172.988C462.012 172.988 462.912 173.708 462.912 174.928C462.912 175.698 462.512 176.208 461.762 176.448C462.632 176.698 463.132 177.348 463.132 178.248C463.132 179.588 462.122 180.408 460.522 180.408ZM466.518 180.408C464.888 180.408 464.078 179.578 464.008 178.288L465.448 178.218C465.508 178.908 465.968 179.148 466.548 179.148C467.178 179.148 467.668 178.848 467.668 178.148C467.668 177.468 467.218 177.108 466.478 177.108H465.948V175.978H466.478C467.038 175.978 467.448 175.728 467.448 175.118C467.448 174.528 467.098 174.238 466.538 174.238C465.918 174.238 465.618 174.548 465.558 175.038L464.118 174.968C464.258 173.758 465.088 172.988 466.548 172.988C468.008 172.988 468.908 173.708 468.908 174.928C468.908 175.698 468.508 176.208 467.758 176.448C468.628 176.698 469.128 177.348 469.128 178.248C469.128 179.588 468.118 180.408 466.518 180.408ZM472.554 180.408C471.054 180.408 470.144 179.518 470.044 178.348L471.504 178.268C471.594 178.848 471.944 179.148 472.554 179.148C473.214 179.148 473.624 178.728 473.624 177.918C473.624 177.128 473.204 176.668 472.564 176.668C472.124 176.668 471.754 176.928 471.614 177.288L470.144 177.218L470.564 173.148H474.754V174.428H471.734L471.554 175.958C471.884 175.678 472.324 175.518 472.804 175.518C474.214 175.518 475.084 176.538 475.084 177.928C475.084 179.398 474.084 180.408 472.554 180.408Z" fill="black"/>
<path id="335_2" d="M28.5783 178.598C26.9483 178.598 26.1383 177.767 26.0683 176.477L27.5083 176.407C27.5683 177.097 28.0283 177.337 28.6083 177.337C29.2383 177.337 29.7283 177.037 29.7283 176.337C29.7283 175.657 29.2783 175.297 28.5383 175.297H28.0083V174.167H28.5383C29.0983 174.167 29.5083 173.917 29.5083 173.307C29.5083 172.717 29.1583 172.427 28.5983 172.427C27.9783 172.427 27.6783 172.737 27.6183 173.227L26.1783 173.158C26.3183 171.947 27.1483 171.177 28.6083 171.177C30.0683 171.177 30.9683 171.897 30.9683 173.117C30.9683 173.887 30.5683 174.397 29.8183 174.637C30.6883 174.887 31.1883 175.537 31.1883 176.437C31.1883 177.778 30.1783 178.598 28.5783 178.598ZM34.5744 178.598C32.9444 178.598 32.1344 177.767 32.0644 176.477L33.5044 176.407C33.5644 177.097 34.0244 177.337 34.6044 177.337C35.2344 177.337 35.7244 177.037 35.7244 176.337C35.7244 175.657 35.2744 175.297 34.5344 175.297H34.0044V174.167H34.5344C35.0944 174.167 35.5044 173.917 35.5044 173.307C35.5044 172.717 35.1544 172.427 34.5944 172.427C33.9744 172.427 33.6744 172.737 33.6144 173.227L32.1744 173.158C32.3144 171.947 33.1444 171.177 34.6044 171.177C36.0644 171.177 36.9644 171.897 36.9644 173.117C36.9644 173.887 36.5644 174.397 35.8144 174.637C36.6844 174.887 37.1844 175.537 37.1844 176.437C37.1844 177.778 36.1744 178.598 34.5744 178.598ZM40.6105 178.598C39.1105 178.598 38.2005 177.707 38.1005 176.537L39.5605 176.457C39.6505 177.037 40.0005 177.337 40.6105 177.337C41.2705 177.337 41.6805 176.917 41.6805 176.107C41.6805 175.317 41.2605 174.857 40.6205 174.857C40.1805 174.857 39.8105 175.117 39.6705 175.477L38.2005 175.407L38.6205 171.337H42.8105V172.617H39.7905L39.6105 174.147C39.9405 173.867 40.3805 173.707 40.8605 173.707C42.2705 173.707 43.1405 174.727 43.1405 176.117C43.1405 177.587 42.1405 178.598 40.6105 178.598Z" fill="black"/>
</g>
<path id="field" d="M250.83 473.352C195.995 473.352 79.9715 343.434 56.4088 231.299L29.0887 203.979L12.4129 199.511C15.5684 182.088 30.8561 138.266 66.762 102.36C111.644 57.4773 156.118 7.69922 250.83 7.69922H250.828C271.65 7.69922 290.044 10.1052 306.548 14.3361C311.127 15.5099 315.383 17.6675 319.194 20.4642L440.215 109.276C442.636 111.052 444.868 113.08 446.793 115.385C474.251 148.269 486.463 184.15 489.245 199.511L472.569 203.979L445.249 231.299C421.686 343.434 305.663 473.352 250.828 473.352H250.83Z" fill="#C80F2E" fill-opacity="0.1" fill="none" stroke="#C80F2E" stroke-width="1.002"/>
</g>
<defs>
<clipPath id="clip0_112_4912">
<rect width="500" height="469.94" fill="white"/>
</clipPath>
</defs>
</svg>
