<svg width="500" height="470" viewBox="0 0 500 470" fill="none" xmlns="http://www.w3.org/2000/svg">
<g id="robert-f-kennedy-memorial-stadium-2005" clip-path="url(#clip0_112_4939)">
<g id="Infield">
<path d="M339.98 327.766C339.453 325.666 322.032 258.479 250.83 258.479C180.238 258.479 162.505 324.538 161.697 327.699C161.677 327.776 161.668 327.816 161.668 327.816L236.504 402.653C235.305 404.912 234.623 407.489 234.623 410.238C234.623 419.186 241.873 426.445 250.83 426.445C259.778 426.445 267.037 419.186 267.037 410.238C267.037 407.489 266.356 404.912 265.156 402.657L260.695 397.375C257.96 395.278 254.544 394.026 250.83 394.026C247.117 394.026 243.701 395.278 240.971 397.37L197.7 354.1C201.448 350.353 201.448 344.277 197.7 340.53C197.698 340.527 197.694 340.525 197.691 340.522L244.055 294.038C247.8 297.773 253.861 297.773 257.606 294.038L303.431 339.984C303.431 339.984 303.427 339.985 303.424 339.988C299.677 343.736 300.275 350.3 304.022 354.047L260.695 397.375L265.156 402.657L339.98 327.766Z" fill="#D2D2D2"/>
<path d="M259.91 345.706C259.91 350.721 255.845 354.787 250.83 354.787C245.815 354.787 241.75 350.721 241.75 345.706C241.75 340.691 245.815 336.626 250.83 336.626C255.845 336.626 259.91 340.691 259.91 345.706Z" fill="#D2D2D2"/>
</g>
<g id="Guides">
<g id="Home">
<circle id="Ellipse 1" cx="250.827" cy="410.419" r="16.0848" fill="#D2D2D2"/>
<circle id="Ellipse 1_2" cx="250.827" cy="410.418" r="1.62919" fill="black"/>
</g>
<g id="First">
<circle id="Ellipse 1_3" cx="311.125" cy="346.532" r="10.1878" fill="#D2D2D2"/>
<circle id="Ellipse 1_4" cx="311.125" cy="346.532" r="1.0319" fill="black"/>
</g>
<g id="Third">
<circle id="Ellipse 1_5" cx="190.34" cy="346.532" r="10.1878" fill="#D2D2D2"/>
<circle id="Ellipse 1_6" cx="190.34" cy="346.532" r="1.0319" fill="black"/>
</g>
<g id="Second">
<circle id="Ellipse 1_7" cx="250.827" cy="286.67" r="10.1878" fill="#D2D2D2"/>
<circle id="Ellipse 1_8" cx="250.827" cy="286.671" r="1.0319" fill="black"/>
</g>
<g id="Mound">
<circle id="Ellipse 1_9" cx="250.827" cy="345.929" r="9.08365" fill="#D2D2D2"/>
<circle id="Ellipse 1_10" cx="250.827" cy="345.93" r="0.920062" fill="black"/>
</g>
</g>
<path id="Foul Lines" d="M483.248 178.244L250.976 410.517L18.4323 177.973" fill="none" stroke="black" stroke-width="1.002"/>
<g id="Measurements">
<path id="410" d="M246.203 4.69922V3.27922H243.033V2.10922L246.013 -2.40078H247.633V2.03922H248.473V3.27922H247.633V4.69922H246.203ZM244.373 2.03922H246.203V-0.610781L244.373 2.03922ZM249.229 4.69922V3.41922H251.269V0.0392185H249.529V-1.14078H250.309C251.109 -1.14078 251.449 -1.48078 251.449 -2.40078H252.689V3.41922H254.269V4.69922H249.229ZM257.745 4.85922C256.145 4.85922 255.185 3.44922 255.185 1.15922C255.185 -1.14078 256.145 -2.56078 257.745 -2.56078C259.345 -2.56078 260.305 -1.14078 260.305 1.15922C260.305 3.44922 259.345 4.85922 257.745 4.85922ZM256.645 1.15922C256.645 1.58922 256.675 1.95922 256.735 2.26922L258.425 -0.920782C258.245 -1.17078 258.015 -1.30078 257.745 -1.30078C257.055 -1.30078 256.645 -0.480781 256.645 1.15922ZM257.745 3.59922C258.435 3.59922 258.845 2.78922 258.845 1.15922C258.845 0.729219 258.815 0.349218 258.755 0.0292187L257.065 3.21922C257.245 3.46922 257.475 3.59922 257.745 3.59922Z" fill="black"/>
<path id="380" d="M74.3578 71.7225C72.7278 71.7225 71.9178 70.8925 71.8478 69.6025L73.2878 69.5325C73.3478 70.2225 73.8078 70.4625 74.3878 70.4625C75.0178 70.4625 75.5078 70.1625 75.5078 69.4625C75.5078 68.7825 75.0578 68.4225 74.3178 68.4225H73.7878V67.2925H74.3178C74.8778 67.2925 75.2878 67.0425 75.2878 66.4325C75.2878 65.8425 74.9378 65.5525 74.3778 65.5525C73.7578 65.5525 73.4578 65.8625 73.3978 66.3525L71.9578 66.2825C72.0978 65.0725 72.9278 64.3025 74.3878 64.3025C75.8478 64.3025 76.7478 65.0225 76.7478 66.2425C76.7478 67.0125 76.3478 67.5225 75.5978 67.7625C76.4678 68.0125 76.9678 68.6625 76.9678 69.5625C76.9678 70.9025 75.9578 71.7225 74.3578 71.7225ZM80.4039 71.7225C78.8339 71.7225 77.7839 71.0025 77.7839 69.6225C77.7839 68.6925 78.3239 68.0325 79.1939 67.7525C78.5239 67.4925 78.0739 67.0025 78.0739 66.2625C78.0739 65.1225 79.0039 64.3025 80.4039 64.3025C81.8039 64.3025 82.7339 65.1225 82.7339 66.2625C82.7339 67.0025 82.2839 67.4925 81.6039 67.7525C82.4839 68.0325 83.0239 68.6925 83.0239 69.6225C83.0239 71.0025 81.9739 71.7225 80.4039 71.7225ZM80.4039 67.1825C80.9139 67.1825 81.2639 66.9125 81.2639 66.3525C81.2639 65.8525 80.9239 65.5625 80.4039 65.5625C79.8839 65.5625 79.5439 65.8525 79.5439 66.3525C79.5439 66.9125 79.8939 67.1825 80.4039 67.1825ZM80.4039 70.4625C81.0439 70.4625 81.5639 70.1825 81.5639 69.4825C81.5639 68.8125 81.1339 68.3925 80.4039 68.3925C79.6739 68.3925 79.2439 68.8125 79.2439 69.4825C79.2439 70.1825 79.7639 70.4625 80.4039 70.4625ZM86.4 71.7225C84.8 71.7225 83.84 70.3125 83.84 68.0225C83.84 65.7225 84.8 64.3025 86.4 64.3025C88 64.3025 88.96 65.7225 88.96 68.0225C88.96 70.3125 88 71.7225 86.4 71.7225ZM85.3 68.0225C85.3 68.4525 85.33 68.8225 85.39 69.1325L87.08 65.9425C86.9 65.6925 86.67 65.5625 86.4 65.5625C85.71 65.5625 85.3 66.3825 85.3 68.0225ZM86.4 70.4625C87.09 70.4625 87.5 69.6525 87.5 68.0225C87.5 67.5925 87.47 67.2125 87.41 66.8925L85.72 70.0825C85.9 70.3325 86.13 70.4625 86.4 70.4625Z" fill="black"/>
<path id="380_2" d="M416.68 71.7225C415.05 71.7225 414.24 70.8925 414.17 69.6025L415.61 69.5325C415.67 70.2225 416.13 70.4625 416.71 70.4625C417.34 70.4625 417.83 70.1625 417.83 69.4625C417.83 68.7825 417.38 68.4225 416.64 68.4225H416.11V67.2925H416.64C417.2 67.2925 417.61 67.0425 417.61 66.4325C417.61 65.8425 417.26 65.5525 416.7 65.5525C416.08 65.5525 415.78 65.8625 415.72 66.3525L414.28 66.2825C414.42 65.0725 415.25 64.3025 416.71 64.3025C418.17 64.3025 419.07 65.0225 419.07 66.2425C419.07 67.0125 418.67 67.5225 417.92 67.7625C418.79 68.0125 419.29 68.6625 419.29 69.5625C419.29 70.9025 418.28 71.7225 416.68 71.7225ZM422.726 71.7225C421.156 71.7225 420.106 71.0025 420.106 69.6225C420.106 68.6925 420.646 68.0325 421.516 67.7525C420.846 67.4925 420.396 67.0025 420.396 66.2625C420.396 65.1225 421.326 64.3025 422.726 64.3025C424.126 64.3025 425.056 65.1225 425.056 66.2625C425.056 67.0025 424.606 67.4925 423.926 67.7525C424.806 68.0325 425.346 68.6925 425.346 69.6225C425.346 71.0025 424.296 71.7225 422.726 71.7225ZM422.726 67.1825C423.236 67.1825 423.586 66.9125 423.586 66.3525C423.586 65.8525 423.246 65.5625 422.726 65.5625C422.206 65.5625 421.866 65.8525 421.866 66.3525C421.866 66.9125 422.216 67.1825 422.726 67.1825ZM422.726 70.4625C423.366 70.4625 423.886 70.1825 423.886 69.4825C423.886 68.8125 423.456 68.3925 422.726 68.3925C421.996 68.3925 421.566 68.8125 421.566 69.4825C421.566 70.1825 422.086 70.4625 422.726 70.4625ZM428.722 71.7225C427.122 71.7225 426.162 70.3125 426.162 68.0225C426.162 65.7225 427.122 64.3025 428.722 64.3025C430.322 64.3025 431.282 65.7225 431.282 68.0225C431.282 70.3125 430.322 71.7225 428.722 71.7225ZM427.622 68.0225C427.622 68.4525 427.652 68.8225 427.712 69.1325L429.402 65.9425C429.222 65.6925 428.992 65.5625 428.722 65.5625C428.032 65.5625 427.622 66.3825 427.622 68.0225ZM428.722 70.4625C429.412 70.4625 429.822 69.6525 429.822 68.0225C429.822 67.5925 429.792 67.2125 429.732 66.8925L428.042 70.0825C428.222 70.3325 428.452 70.4625 428.722 70.4625Z" fill="black"/>
<path id="335" d="M461.487 178.598C459.857 178.598 459.047 177.767 458.977 176.477L460.417 176.407C460.477 177.097 460.937 177.337 461.517 177.337C462.147 177.337 462.637 177.037 462.637 176.337C462.637 175.657 462.187 175.297 461.447 175.297H460.917V174.167H461.447C462.007 174.167 462.417 173.917 462.417 173.307C462.417 172.717 462.067 172.427 461.507 172.427C460.887 172.427 460.587 172.737 460.527 173.227L459.087 173.158C459.227 171.947 460.057 171.177 461.517 171.177C462.977 171.177 463.877 171.897 463.877 173.117C463.877 173.887 463.477 174.397 462.727 174.637C463.597 174.887 464.097 175.537 464.097 176.437C464.097 177.778 463.087 178.598 461.487 178.598ZM467.483 178.598C465.853 178.598 465.043 177.767 464.973 176.477L466.413 176.407C466.473 177.097 466.933 177.337 467.513 177.337C468.143 177.337 468.633 177.037 468.633 176.337C468.633 175.657 468.183 175.297 467.443 175.297H466.913V174.167H467.443C468.003 174.167 468.413 173.917 468.413 173.307C468.413 172.717 468.063 172.427 467.503 172.427C466.883 172.427 466.583 172.737 466.523 173.227L465.083 173.158C465.223 171.947 466.053 171.177 467.513 171.177C468.973 171.177 469.873 171.897 469.873 173.117C469.873 173.887 469.473 174.397 468.723 174.637C469.593 174.887 470.093 175.537 470.093 176.437C470.093 177.778 469.083 178.598 467.483 178.598ZM473.519 178.598C472.019 178.598 471.109 177.707 471.009 176.537L472.469 176.457C472.559 177.037 472.909 177.337 473.519 177.337C474.179 177.337 474.589 176.917 474.589 176.107C474.589 175.317 474.169 174.857 473.529 174.857C473.089 174.857 472.719 175.117 472.579 175.477L471.109 175.407L471.529 171.337H475.719V172.617H472.699L472.519 174.147C472.849 173.867 473.289 173.707 473.769 173.707C475.179 173.707 476.049 174.727 476.049 176.117C476.049 177.587 475.049 178.598 473.519 178.598Z" fill="black"/>
<path id="335_2" d="M28.5783 178.598C26.9483 178.598 26.1383 177.767 26.0683 176.477L27.5083 176.407C27.5683 177.097 28.0283 177.337 28.6083 177.337C29.2383 177.337 29.7283 177.037 29.7283 176.337C29.7283 175.657 29.2783 175.297 28.5383 175.297H28.0083V174.167H28.5383C29.0983 174.167 29.5083 173.917 29.5083 173.307C29.5083 172.717 29.1583 172.427 28.5983 172.427C27.9783 172.427 27.6783 172.737 27.6183 173.227L26.1783 173.158C26.3183 171.947 27.1483 171.177 28.6083 171.177C30.0683 171.177 30.9683 171.897 30.9683 173.117C30.9683 173.887 30.5683 174.397 29.8183 174.637C30.6883 174.887 31.1883 175.537 31.1883 176.437C31.1883 177.778 30.1783 178.598 28.5783 178.598ZM34.5744 178.598C32.9444 178.598 32.1344 177.767 32.0644 176.477L33.5044 176.407C33.5644 177.097 34.0244 177.337 34.6044 177.337C35.2344 177.337 35.7244 177.037 35.7244 176.337C35.7244 175.657 35.2744 175.297 34.5344 175.297H34.0044V174.167H34.5344C35.0944 174.167 35.5044 173.917 35.5044 173.307C35.5044 172.717 35.1544 172.427 34.5944 172.427C33.9744 172.427 33.6744 172.737 33.6144 173.227L32.1744 173.158C32.3144 171.947 33.1444 171.177 34.6044 171.177C36.0644 171.177 36.9644 171.897 36.9644 173.117C36.9644 173.887 36.5644 174.397 35.8144 174.637C36.6844 174.887 37.1844 175.537 37.1844 176.437C37.1844 177.778 36.1744 178.598 34.5744 178.598ZM40.6105 178.598C39.1105 178.598 38.2005 177.707 38.1005 176.537L39.5605 176.457C39.6505 177.037 40.0005 177.337 40.6105 177.337C41.2705 177.337 41.6805 176.917 41.6805 176.107C41.6805 175.317 41.2605 174.857 40.6205 174.857C40.1805 174.857 39.8105 175.117 39.6705 175.477L38.2005 175.407L38.6205 171.337H42.8105V172.617H39.7905L39.6105 174.147C39.9405 173.867 40.3805 173.707 40.8605 173.707C42.2705 173.707 43.1405 174.727 43.1405 176.117C43.1405 177.587 42.1405 178.598 40.6105 178.598Z" fill="black"/>
</g>
<g id="field">
<path d="M29.0887 203.979L56.4088 231.299C77.3853 331.126 171.639 440.292 230.765 463.053H270.899C330.026 440.292 424.28 331.126 445.256 231.299L472.576 203.979L483.849 180.225C476.302 158.929 465.1 124.784 438.919 98.6038C394.037 53.7214 345.547 7.69922 250.835 7.69922H250.83C156.118 7.69922 107.628 53.7214 62.7457 98.6038C36.5654 124.784 25.3629 158.929 17.816 180.225L29.0887 203.979Z" fill="#C80F2E" fill-opacity="0.1"/>
<path d="M250.83 7.69922C156.118 7.69922 107.628 53.7214 62.7457 98.6038C36.5654 124.784 25.3629 158.929 17.816 180.225L29.0887 203.979L56.4088 231.299C77.3853 331.126 171.639 440.292 230.765 463.053H270.899C330.026 440.292 424.28 331.126 445.256 231.299L472.576 203.979L483.849 180.225C476.302 158.929 465.1 124.784 438.919 98.6038C394.037 53.7214 345.547 7.69922 250.835 7.69922M250.83 7.69922H250.828M250.83 7.69922H250.835M250.835 7.69922H250.837" fill="none" stroke="#C80F2E" stroke-width="1.002"/>
</g>
</g>
<defs>
<clipPath id="clip0_112_4939">
<rect width="500" height="469.94" fill="white"/>
</clipPath>
</defs>
</svg>
