<svg width="500" height="470" viewBox="0 0 500 470" fill="none" xmlns="http://www.w3.org/2000/svg">
<g id="rogers-centre-1989" clip-path="url(#clip0_126_7053)">
<g id="Infield">
<path d="M339.98 327.764C339.453 325.664 322.032 258.477 250.83 258.477C180.238 258.477 162.505 324.536 161.697 327.697C161.677 327.775 161.668 327.814 161.668 327.814L236.504 402.651C235.305 404.91 234.623 407.487 234.623 410.236C234.623 419.184 241.873 426.443 250.83 426.443C259.778 426.443 267.037 419.184 267.037 410.236C267.037 407.487 266.356 404.91 265.156 402.655L260.695 397.373C257.96 395.276 254.544 394.024 250.83 394.024C247.117 394.024 243.701 395.276 240.971 397.368L197.7 354.098C201.448 350.351 201.448 344.275 197.7 340.528C197.698 340.525 197.694 340.523 197.691 340.52L244.055 294.036C247.8 297.772 253.861 297.772 257.606 294.036L303.431 339.982C303.431 339.982 303.427 339.983 303.424 339.986C299.677 343.734 300.275 350.298 304.022 354.045L260.695 397.373L265.156 402.655L339.98 327.764Z" fill="#D2D2D2"/>
<path d="M259.91 345.704C259.91 350.719 255.845 354.785 250.83 354.785C245.815 354.785 241.75 350.719 241.75 345.704C241.75 340.689 245.815 336.624 250.83 336.624C255.845 336.624 259.91 340.689 259.91 345.704Z" fill="#D2D2D2"/>
</g>
<g id="Guides">
<g id="Home">
<circle id="Ellipse 1" cx="250.827" cy="410.421" r="16.0848" fill="#D2D2D2"/>
<circle id="Ellipse 1_2" cx="250.827" cy="410.422" r="1.62919" fill="black"/>
</g>
<g id="First">
<circle id="Ellipse 1_3" cx="311.125" cy="346.535" r="10.1878" fill="#D2D2D2"/>
<circle id="Ellipse 1_4" cx="311.125" cy="346.536" r="1.0319" fill="black"/>
</g>
<g id="Third">
<circle id="Ellipse 1_5" cx="190.34" cy="346.535" r="10.1878" fill="#D2D2D2"/>
<circle id="Ellipse 1_6" cx="190.34" cy="346.536" r="1.0319" fill="black"/>
</g>
<g id="Second">
<circle id="Ellipse 1_7" cx="250.827" cy="286.672" r="10.1878" fill="#D2D2D2"/>
<circle id="Ellipse 1_8" cx="250.827" cy="286.673" r="1.0319" fill="black"/>
</g>
<g id="Mound">
<circle id="Ellipse 1_9" cx="250.827" cy="345.931" r="9.08365" fill="#D2D2D2"/>
<circle id="Ellipse 1_10" cx="250.827" cy="345.932" r="0.920062" fill="black"/>
</g>
</g>
<path id="Foul Lines" d="M477.413 184.057L250.954 410.516L24.1395 183.703" fill="none" stroke="black" stroke-width="1.002"/>
<g id="Measurements">
<path id="400" d="M245.268 14.6992V13.2792H242.098V12.1092L245.078 7.59922H246.698V12.0392H247.538V13.2792H246.698V14.6992H245.268ZM243.438 12.0392H245.268V9.38922L243.438 12.0392ZM250.815 14.8592C249.215 14.8592 248.255 13.4492 248.255 11.1592C248.255 8.85922 249.215 7.43922 250.815 7.43922C252.415 7.43922 253.375 8.85922 253.375 11.1592C253.375 13.4492 252.415 14.8592 250.815 14.8592ZM249.715 11.1592C249.715 11.5892 249.745 11.9592 249.805 12.2692L251.495 9.07922C251.315 8.82922 251.085 8.69922 250.815 8.69922C250.125 8.69922 249.715 9.51922 249.715 11.1592ZM250.815 13.5992C251.505 13.5992 251.915 12.7892 251.915 11.1592C251.915 10.7292 251.885 10.3492 251.825 10.0292L250.135 13.2192C250.315 13.4692 250.545 13.5992 250.815 13.5992ZM256.811 14.8592C255.211 14.8592 254.251 13.4492 254.251 11.1592C254.251 8.85922 255.211 7.43922 256.811 7.43922C258.411 7.43922 259.371 8.85922 259.371 11.1592C259.371 13.4492 258.411 14.8592 256.811 14.8592ZM255.711 11.1592C255.711 11.5892 255.741 11.9592 255.801 12.2692L257.491 9.07922C257.311 8.82922 257.081 8.69922 256.811 8.69922C256.121 8.69922 255.711 9.51922 255.711 11.1592ZM256.811 13.5992C257.501 13.5992 257.911 12.7892 257.911 11.1592C257.911 10.7292 257.881 10.3492 257.821 10.0292L256.131 13.2192C256.311 13.4692 256.541 13.5992 256.811 13.5992Z" fill="black"/>
<path id="375" d="M80.576 75.3514C78.946 75.3514 78.136 74.5214 78.066 73.2314L79.506 73.1614C79.566 73.8514 80.026 74.0914 80.606 74.0914C81.236 74.0914 81.726 73.7914 81.726 73.0914C81.726 72.4114 81.276 72.0514 80.536 72.0514H80.006V70.9214H80.536C81.096 70.9214 81.506 70.6714 81.506 70.0614C81.506 69.4714 81.156 69.1814 80.596 69.1814C79.976 69.1814 79.676 69.4914 79.616 69.9814L78.176 69.9114C78.316 68.7014 79.146 67.9314 80.606 67.9314C82.066 67.9314 82.966 68.6514 82.966 69.8714C82.966 70.6414 82.566 71.1514 81.816 71.3914C82.686 71.6414 83.186 72.2914 83.186 73.1914C83.186 74.5314 82.176 75.3514 80.576 75.3514ZM85.2921 75.1914C85.2921 73.0414 86.1921 71.0814 87.6621 69.3714H84.1621V68.0914H89.0821V69.3014C87.4521 71.1614 86.7821 72.7514 86.7821 75.1914H85.2921ZM92.6082 75.3514C91.1082 75.3514 90.1982 74.4614 90.0982 73.2914L91.5582 73.2114C91.6482 73.7914 91.9982 74.0914 92.6082 74.0914C93.2682 74.0914 93.6782 73.6714 93.6782 72.8614C93.6782 72.0714 93.2582 71.6114 92.6182 71.6114C92.1782 71.6114 91.8082 71.8714 91.6682 72.2314L90.1982 72.1614L90.6182 68.0914H94.8082V69.3714H91.7882L91.6082 70.9014C91.9382 70.6214 92.3782 70.4614 92.8582 70.4614C94.2682 70.4614 95.1382 71.4814 95.1382 72.8714C95.1382 74.3414 94.1382 75.3514 92.6082 75.3514Z" fill="black"/>
<path id="375_2" d="M408.71 75.3514C407.08 75.3514 406.27 74.5214 406.2 73.2314L407.64 73.1614C407.7 73.8514 408.16 74.0914 408.74 74.0914C409.37 74.0914 409.86 73.7914 409.86 73.0914C409.86 72.4114 409.41 72.0514 408.67 72.0514H408.14V70.9214H408.67C409.23 70.9214 409.64 70.6714 409.64 70.0614C409.64 69.4714 409.29 69.1814 408.73 69.1814C408.11 69.1814 407.81 69.4914 407.75 69.9814L406.31 69.9114C406.45 68.7014 407.28 67.9314 408.74 67.9314C410.2 67.9314 411.1 68.6514 411.1 69.8714C411.1 70.6414 410.7 71.1514 409.95 71.3914C410.82 71.6414 411.32 72.2914 411.32 73.1914C411.32 74.5314 410.31 75.3514 408.71 75.3514ZM413.426 75.1914C413.426 73.0414 414.326 71.0814 415.796 69.3714H412.296V68.0914H417.216V69.3014C415.586 71.1614 414.916 72.7514 414.916 75.1914H413.426ZM420.742 75.3514C419.242 75.3514 418.332 74.4614 418.232 73.2914L419.692 73.2114C419.782 73.7914 420.132 74.0914 420.742 74.0914C421.402 74.0914 421.812 73.6714 421.812 72.8614C421.812 72.0714 421.392 71.6114 420.752 71.6114C420.312 71.6114 419.942 71.8714 419.802 72.2314L418.332 72.1614L418.752 68.0914H422.942V69.3714H419.922L419.742 70.9014C420.072 70.6214 420.512 70.4614 420.992 70.4614C422.402 70.4614 423.272 71.4814 423.272 72.8714C423.272 74.3414 422.272 75.3514 420.742 75.3514Z" fill="black"/>
<path id="328" d="M33.7457 185.785C32.1157 185.785 31.3057 184.955 31.2357 183.665L32.6757 183.595C32.7357 184.285 33.1957 184.525 33.7757 184.525C34.4057 184.525 34.8957 184.225 34.8957 183.525C34.8957 182.845 34.4457 182.485 33.7057 182.485H33.1757V181.355H33.7057C34.2657 181.355 34.6757 181.105 34.6757 180.495C34.6757 179.905 34.3257 179.615 33.7657 179.615C33.1457 179.615 32.8457 179.925 32.7857 180.415L31.3457 180.345C31.4857 179.135 32.3157 178.365 33.7757 178.365C35.2357 178.365 36.1357 179.085 36.1357 180.305C36.1357 181.075 35.7357 181.585 34.9857 181.825C35.8557 182.075 36.3557 182.725 36.3557 183.625C36.3557 184.965 35.3457 185.785 33.7457 185.785ZM37.2318 185.625C37.2318 183.895 37.8118 182.885 39.7918 181.865C40.5218 181.485 40.8818 181.205 40.8818 180.555C40.8818 179.985 40.5518 179.625 39.9218 179.625C39.2018 179.625 38.8518 180.045 38.7318 180.805L37.2618 180.715C37.4018 179.265 38.3118 178.365 39.9418 178.365C41.5318 178.365 42.3518 179.215 42.3518 180.475C42.3518 181.615 41.8618 182.175 40.4618 182.935C39.3118 183.555 38.9018 183.985 38.8618 184.345H42.3518V185.625H37.2318ZM45.7879 185.785C44.2179 185.785 43.1679 185.065 43.1679 183.685C43.1679 182.755 43.7079 182.095 44.5779 181.815C43.9079 181.555 43.4579 181.065 43.4579 180.325C43.4579 179.185 44.3879 178.365 45.7879 178.365C47.1879 178.365 48.1179 179.185 48.1179 180.325C48.1179 181.065 47.6679 181.555 46.9879 181.815C47.8679 182.095 48.4079 182.755 48.4079 183.685C48.4079 185.065 47.3579 185.785 45.7879 185.785ZM45.7879 181.245C46.2979 181.245 46.6479 180.975 46.6479 180.415C46.6479 179.915 46.3079 179.625 45.7879 179.625C45.2679 179.625 44.9279 179.915 44.9279 180.415C44.9279 180.975 45.2779 181.245 45.7879 181.245ZM45.7879 184.525C46.4279 184.525 46.9479 184.245 46.9479 183.545C46.9479 182.875 46.5179 182.455 45.7879 182.455C45.0579 182.455 44.6279 182.875 44.6279 183.545C44.6279 184.245 45.1479 184.525 45.7879 184.525Z" fill="black"/>
<path id="328_2" d="M454.189 185.785C452.559 185.785 451.749 184.955 451.679 183.665L453.119 183.595C453.179 184.285 453.639 184.525 454.219 184.525C454.849 184.525 455.339 184.225 455.339 183.525C455.339 182.845 454.889 182.485 454.149 182.485H453.619V181.355H454.149C454.709 181.355 455.119 181.105 455.119 180.495C455.119 179.905 454.769 179.615 454.209 179.615C453.589 179.615 453.289 179.925 453.229 180.415L451.789 180.345C451.929 179.135 452.759 178.365 454.219 178.365C455.679 178.365 456.579 179.085 456.579 180.305C456.579 181.075 456.179 181.585 455.429 181.825C456.299 182.075 456.799 182.725 456.799 183.625C456.799 184.965 455.789 185.785 454.189 185.785ZM457.675 185.625C457.675 183.895 458.255 182.885 460.235 181.865C460.965 181.485 461.325 181.205 461.325 180.555C461.325 179.985 460.995 179.625 460.365 179.625C459.645 179.625 459.295 180.045 459.175 180.805L457.705 180.715C457.845 179.265 458.755 178.365 460.385 178.365C461.975 178.365 462.795 179.215 462.795 180.475C462.795 181.615 462.305 182.175 460.905 182.935C459.755 183.555 459.345 183.985 459.305 184.345H462.795V185.625H457.675ZM466.231 185.785C464.661 185.785 463.611 185.065 463.611 183.685C463.611 182.755 464.151 182.095 465.021 181.815C464.351 181.555 463.901 181.065 463.901 180.325C463.901 179.185 464.831 178.365 466.231 178.365C467.631 178.365 468.561 179.185 468.561 180.325C468.561 181.065 468.111 181.555 467.431 181.815C468.311 182.095 468.851 182.755 468.851 183.685C468.851 185.065 467.801 185.785 466.231 185.785ZM466.231 181.245C466.741 181.245 467.091 180.975 467.091 180.415C467.091 179.915 466.751 179.625 466.231 179.625C465.711 179.625 465.371 179.915 465.371 180.415C465.371 180.975 465.721 181.245 466.231 181.245ZM466.231 184.525C466.871 184.525 467.391 184.245 467.391 183.545C467.391 182.875 466.961 182.455 466.231 182.455C465.501 182.455 465.071 182.875 465.071 183.545C465.071 184.245 465.591 184.525 466.231 184.525Z" fill="black"/>
</g>
<path id="field" d="M23.4037 185.27L55.3656 225.356C55.3656 257.095 87.1133 333.993 150.041 396.921L162.655 427.431L177.953 441.682C218.915 479.842 282.489 479.569 323.122 441.06L337.503 427.431L352.758 396.921C425.806 323.872 446.461 242.609 446.461 225.356L478.222 185.27L412.007 85.3889C407.121 78.0192 400.615 71.864 392.986 67.394L361.351 48.8583C293.081 8.8571 208.542 8.79323 140.211 48.6912L108.273 67.3399C100.558 71.8443 93.9887 78.0697 89.0761 85.5307L23.4037 185.27Z" fill="#0C2340" fill-opacity="0.1" fill="none" stroke="#0C2340" stroke-width="1.002"/>
</g>
<defs>
<clipPath id="clip0_126_7053">
<rect width="500" height="469.94" fill="white"/>
</clipPath>
</defs>
</svg>
