<svg width="500" height="470" viewBox="0 0 500 470" fill="none" xmlns="http://www.w3.org/2000/svg">
<g id="sahlen-field-2020">
<g id="Infield">
<path d="M339.98 327.764C339.453 325.664 322.032 258.477 250.83 258.477C180.238 258.477 162.505 324.536 161.697 327.697C161.677 327.775 161.668 327.814 161.668 327.814L236.504 402.651C235.305 404.91 234.623 407.487 234.623 410.236C234.623 419.184 241.873 426.443 250.83 426.443C259.778 426.443 267.037 419.184 267.037 410.236C267.037 407.487 266.356 404.91 265.156 402.655L260.695 397.373C257.96 395.276 254.544 394.024 250.83 394.024C247.117 394.024 243.701 395.276 240.971 397.368L197.7 354.098C201.448 350.351 201.448 344.275 197.7 340.528C197.698 340.525 197.694 340.523 197.691 340.52L244.055 294.036C247.8 297.772 253.861 297.772 257.606 294.036L303.431 339.982C303.431 339.982 303.427 339.983 303.424 339.986C299.677 343.734 300.275 350.298 304.022 354.045L260.695 397.373L265.156 402.655L339.98 327.764Z" fill="#D2D2D2"/>
<path d="M259.91 345.704C259.91 350.719 255.845 354.785 250.83 354.785C245.815 354.785 241.75 350.719 241.75 345.704C241.75 340.689 245.815 336.624 250.83 336.624C255.845 336.624 259.91 340.689 259.91 345.704Z" fill="#D2D2D2"/>
</g>
<g id="Guides">
<g id="Home">
<circle id="Ellipse 1" cx="250.827" cy="410.421" r="16.0848" fill="#D2D2D2"/>
<circle id="Ellipse 1_2" cx="250.827" cy="410.422" r="1.62919" fill="black"/>
</g>
<g id="First">
<circle id="Ellipse 1_3" cx="311.125" cy="346.535" r="10.1878" fill="#D2D2D2"/>
<circle id="Ellipse 1_4" cx="311.125" cy="346.536" r="1.0319" fill="black"/>
</g>
<g id="Third">
<circle id="Ellipse 1_5" cx="190.34" cy="346.535" r="10.1878" fill="#D2D2D2"/>
<circle id="Ellipse 1_6" cx="190.34" cy="346.536" r="1.0319" fill="black"/>
</g>
<g id="Second">
<circle id="Ellipse 1_7" cx="250.827" cy="286.672" r="10.1878" fill="#D2D2D2"/>
<circle id="Ellipse 1_8" cx="250.827" cy="286.673" r="1.0319" fill="black"/>
</g>
<g id="Mound">
<circle id="Ellipse 1_9" cx="250.827" cy="345.931" r="9.08365" fill="#D2D2D2"/>
<circle id="Ellipse 1_10" cx="250.827" cy="345.932" r="0.920062" fill="black"/>
</g>
</g>
<path id="Foul Lines" d="M474.971 186.522L250.976 410.514L26.2774 185.816" fill="none" stroke="black" stroke-width="1.002"/>
<g id="Measurements">
<path id="404" d="M231.054 11V9.58H227.884V8.41L230.864 3.9H232.484V8.34H233.324V9.58H232.484V11H231.054ZM229.224 8.34H231.054V5.69L229.224 8.34ZM236.6 11.16C235 11.16 234.04 9.75 234.04 7.46C234.04 5.16 235 3.74 236.6 3.74C238.2 3.74 239.16 5.16 239.16 7.46C239.16 9.75 238.2 11.16 236.6 11.16ZM235.5 7.46C235.5 7.89 235.53 8.26 235.59 8.57L237.28 5.38C237.1 5.13 236.87 5 236.6 5C235.91 5 235.5 5.82 235.5 7.46ZM236.6 9.9C237.29 9.9 237.7 9.09 237.7 7.46C237.7 7.03 237.67 6.65 237.61 6.33L235.92 9.52C236.1 9.77 236.33 9.9 236.6 9.9ZM243.046 11V9.58H239.876V8.41L242.856 3.9H244.476V8.34H245.316V9.58H244.476V11H243.046ZM241.216 8.34H243.046V5.69L241.216 8.34Z" fill="black"/>
<path id="371" d="M390.464 68.7459C388.834 68.7459 388.024 67.9159 387.954 66.6259L389.394 66.5559C389.454 67.2459 389.914 67.4859 390.494 67.4859C391.124 67.4859 391.614 67.1859 391.614 66.4859C391.614 65.8059 391.164 65.4459 390.424 65.4459H389.894V64.3159H390.424C390.984 64.3159 391.394 64.0659 391.394 63.4559C391.394 62.8659 391.044 62.5759 390.484 62.5759C389.864 62.5759 389.564 62.8859 389.504 63.3759L388.064 63.3059C388.204 62.0959 389.034 61.3259 390.494 61.3259C391.954 61.3259 392.854 62.0459 392.854 63.2659C392.854 64.0359 392.454 64.5459 391.704 64.7859C392.574 65.0359 393.074 65.6859 393.074 66.5859C393.074 67.9259 392.064 68.7459 390.464 68.7459ZM395.181 68.5859C395.181 66.4359 396.081 64.4759 397.551 62.7659H394.051V61.4859H398.971V62.6959C397.341 64.5559 396.671 66.1459 396.671 68.5859H395.181ZM399.987 68.5859V67.3059H402.027V63.9259H400.287V62.7459H401.067C401.867 62.7459 402.207 62.4059 402.207 61.4859H403.447V67.3059H405.027V68.5859H399.987Z" fill="black"/>
<path id="367" d="M74.1133 87.3631C72.4833 87.3631 71.6733 86.5331 71.6033 85.2431L73.0433 85.1731C73.1033 85.8631 73.5633 86.1031 74.1433 86.1031C74.7733 86.1031 75.2633 85.8031 75.2633 85.1031C75.2633 84.4231 74.8133 84.0631 74.0733 84.0631H73.5433V82.9331H74.0733C74.6333 82.9331 75.0433 82.6831 75.0433 82.0731C75.0433 81.4831 74.6933 81.1931 74.1333 81.1931C73.5133 81.1931 73.2133 81.5031 73.1533 81.9931L71.7133 81.9231C71.8533 80.7131 72.6833 79.9431 74.1433 79.9431C75.6033 79.9431 76.5033 80.6631 76.5033 81.8831C76.5033 82.6531 76.1033 83.1631 75.3533 83.4031C76.2233 83.6531 76.7233 84.3031 76.7233 85.2031C76.7233 86.5431 75.7133 87.3631 74.1133 87.3631ZM80.1794 87.3631C78.4494 87.3631 77.5394 86.1931 77.5394 84.1331C77.5394 81.7831 78.3494 79.9431 80.4394 79.9431C81.8394 79.9431 82.4894 80.7031 82.7494 81.7231L81.3094 81.8231C81.2094 81.4631 80.9794 81.2031 80.4394 81.2031C79.6994 81.2031 79.1794 81.7131 79.0194 82.9331C79.3594 82.6331 79.8394 82.4131 80.4694 82.4131C81.8794 82.4131 82.7794 83.3631 82.7794 84.7931C82.7794 86.3731 81.7494 87.3631 80.1794 87.3631ZM80.1494 86.0831C80.8994 86.0831 81.3194 85.6431 81.3194 84.8431C81.3194 84.1031 80.9394 83.6231 80.2094 83.6231C79.4694 83.6231 78.9994 84.1131 78.9994 84.8531C78.9994 85.5331 79.4194 86.0831 80.1494 86.0831ZM84.8255 87.2031C84.8255 85.0531 85.7255 83.0931 87.1955 81.3831H83.6955V80.1031H88.6155V81.3131C86.9855 83.1731 86.3155 84.7631 86.3155 87.2031H84.8255Z" fill="black"/>
<path id="325" d="M451.938 188.098C450.308 188.098 449.498 187.267 449.428 185.977L450.868 185.907C450.928 186.597 451.388 186.837 451.968 186.837C452.598 186.837 453.088 186.537 453.088 185.837C453.088 185.157 452.638 184.797 451.898 184.797H451.368V183.667H451.898C452.458 183.667 452.868 183.417 452.868 182.807C452.868 182.217 452.518 181.927 451.958 181.927C451.338 181.927 451.038 182.237 450.978 182.727L449.538 182.658C449.678 181.447 450.508 180.677 451.968 180.677C453.428 180.677 454.328 181.397 454.328 182.617C454.328 183.387 453.928 183.897 453.178 184.137C454.048 184.387 454.548 185.037 454.548 185.937C454.548 187.278 453.538 188.098 451.938 188.098ZM455.424 187.938C455.424 186.207 456.004 185.197 457.984 184.177C458.714 183.797 459.074 183.517 459.074 182.867C459.074 182.297 458.744 181.937 458.114 181.937C457.394 181.937 457.044 182.357 456.924 183.117L455.454 183.027C455.594 181.577 456.504 180.677 458.134 180.677C459.724 180.677 460.544 181.527 460.544 182.787C460.544 183.927 460.054 184.487 458.654 185.247C457.504 185.867 457.094 186.297 457.054 186.657H460.544V187.938H455.424ZM463.97 188.098C462.47 188.098 461.56 187.207 461.46 186.037L462.92 185.957C463.01 186.537 463.36 186.837 463.97 186.837C464.63 186.837 465.04 186.417 465.04 185.607C465.04 184.817 464.62 184.357 463.98 184.357C463.54 184.357 463.17 184.617 463.03 184.977L461.56 184.907L461.98 180.837H466.17V182.117H463.15L462.97 183.647C463.3 183.367 463.74 183.207 464.22 183.207C465.63 183.207 466.5 184.227 466.5 185.617C466.5 187.087 465.5 188.098 463.97 188.098Z" fill="black"/>
<path id="325_2" d="M35.5783 187.598C33.9483 187.598 33.1383 186.767 33.0683 185.477L34.5083 185.407C34.5683 186.097 35.0283 186.337 35.6083 186.337C36.2383 186.337 36.7283 186.037 36.7283 185.337C36.7283 184.657 36.2783 184.297 35.5383 184.297H35.0083V183.167H35.5383C36.0983 183.167 36.5083 182.917 36.5083 182.307C36.5083 181.717 36.1583 181.427 35.5983 181.427C34.9783 181.427 34.6783 181.737 34.6183 182.227L33.1783 182.158C33.3183 180.947 34.1483 180.177 35.6083 180.177C37.0683 180.177 37.9683 180.897 37.9683 182.117C37.9683 182.887 37.5683 183.397 36.8183 183.637C37.6883 183.887 38.1883 184.537 38.1883 185.437C38.1883 186.778 37.1783 187.598 35.5783 187.598ZM39.0644 187.438C39.0644 185.707 39.6444 184.697 41.6244 183.677C42.3544 183.297 42.7144 183.017 42.7144 182.367C42.7144 181.797 42.3844 181.437 41.7544 181.437C41.0344 181.437 40.6844 181.857 40.5644 182.617L39.0944 182.527C39.2344 181.077 40.1444 180.177 41.7744 180.177C43.3644 180.177 44.1844 181.027 44.1844 182.287C44.1844 183.427 43.6944 183.987 42.2944 184.747C41.1444 185.367 40.7344 185.797 40.6944 186.157H44.1844V187.438H39.0644ZM47.6105 187.598C46.1105 187.598 45.2005 186.707 45.1005 185.537L46.5605 185.457C46.6505 186.037 47.0005 186.337 47.6105 186.337C48.2705 186.337 48.6805 185.917 48.6805 185.107C48.6805 184.317 48.2605 183.857 47.6205 183.857C47.1805 183.857 46.8105 184.117 46.6705 184.477L45.2005 184.407L45.6205 180.337H49.8105V181.617H46.7905L46.6105 183.147C46.9405 182.867 47.3805 182.707 47.8605 182.707C49.2705 182.707 50.1405 183.727 50.1405 185.117C50.1405 186.587 49.1405 187.598 47.6105 187.598Z" fill="black"/>
</g>
<path id="field" d="M90.2301 89.2304L238.027 14.7891L406.524 79.4257L472.756 182.894C480.29 194.664 479.593 209.903 471.018 220.937L299.09 442.139C275.217 472.855 228.875 473.081 204.704 442.599L32.0145 224.826C21.4805 211.542 20.7353 192.974 30.1708 178.888L90.2301 89.2304Z" fill="#0C2340" fill-opacity="0.1" fill="none" stroke="#0C2340" stroke-width="1.002"/>
</g>
</svg>
