<svg width="500" height="470" viewBox="0 0 500 470" fill="none" xmlns="http://www.w3.org/2000/svg">
<g id="san-diego-stadium-1984" clip-path="url(#clip0_119_5735)">
<g id="Infield">
<path d="M339.98 327.764C339.453 325.664 322.032 258.477 250.83 258.477C180.238 258.477 162.505 324.536 161.697 327.697C161.677 327.775 161.668 327.814 161.668 327.814L236.504 402.651C235.305 404.91 234.623 407.487 234.623 410.236C234.623 419.184 241.873 426.443 250.83 426.443C259.778 426.443 267.037 419.184 267.037 410.236C267.037 407.487 266.356 404.91 265.156 402.655L260.695 397.373C257.96 395.276 254.544 394.024 250.83 394.024C247.117 394.024 243.701 395.276 240.971 397.368L197.7 354.098C201.448 350.351 201.448 344.275 197.7 340.528C197.698 340.525 197.694 340.523 197.691 340.52L244.055 294.036C247.8 297.772 253.861 297.772 257.606 294.036L303.431 339.982C303.431 339.982 303.427 339.983 303.424 339.986C299.677 343.734 300.275 350.298 304.022 354.045L260.695 397.373L265.156 402.655L339.98 327.764Z" fill="#D2D2D2"/>
<path d="M259.91 345.704C259.91 350.719 255.845 354.785 250.83 354.785C245.815 354.785 241.75 350.719 241.75 345.704C241.75 340.689 245.815 336.624 250.83 336.624C255.845 336.624 259.91 340.689 259.91 345.704Z" fill="#D2D2D2"/>
</g>
<g id="Guides">
<g id="Home">
<circle id="Ellipse 1" cx="250.827" cy="410.421" r="16.0848" fill="#D2D2D2"/>
<circle id="Ellipse 1_2" cx="250.827" cy="410.422" r="1.62919" fill="black"/>
</g>
<g id="First">
<circle id="Ellipse 1_3" cx="311.125" cy="346.535" r="10.1878" fill="#D2D2D2"/>
<circle id="Ellipse 1_4" cx="311.125" cy="346.536" r="1.0319" fill="black"/>
</g>
<g id="Third">
<circle id="Ellipse 1_5" cx="190.34" cy="346.535" r="10.1878" fill="#D2D2D2"/>
<circle id="Ellipse 1_6" cx="190.34" cy="346.536" r="1.0319" fill="black"/>
</g>
<g id="Second">
<circle id="Ellipse 1_7" cx="250.827" cy="286.672" r="10.1878" fill="#D2D2D2"/>
<circle id="Ellipse 1_8" cx="250.827" cy="286.673" r="1.0319" fill="black"/>
</g>
<g id="Mound">
<circle id="Ellipse 1_9" cx="250.827" cy="345.931" r="9.08365" fill="#D2D2D2"/>
<circle id="Ellipse 1_10" cx="250.827" cy="345.932" r="0.920062" fill="black"/>
</g>
</g>
<path id="Foul Lines" d="M478.91 182.582L250.976 410.516L23.1444 182.686" fill="none" stroke="black" stroke-width="1.002"/>
<g id="Measurements">
<path id="405" d="M243.934 8.69922V7.27922H240.764V6.10922L243.744 1.59922H245.364V6.03922H246.204V7.27922H245.364V8.69922H243.934ZM242.104 6.03922H243.934V3.38922L242.104 6.03922ZM249.48 8.85922C247.88 8.85922 246.92 7.44922 246.92 5.15922C246.92 2.85922 247.88 1.43922 249.48 1.43922C251.08 1.43922 252.04 2.85922 252.04 5.15922C252.04 7.44922 251.08 8.85922 249.48 8.85922ZM248.38 5.15922C248.38 5.58922 248.41 5.95922 248.47 6.26922L250.16 3.07922C249.98 2.82922 249.75 2.69922 249.48 2.69922C248.79 2.69922 248.38 3.51922 248.38 5.15922ZM249.48 7.59922C250.17 7.59922 250.58 6.78922 250.58 5.15922C250.58 4.72922 250.55 4.34922 250.49 4.02922L248.8 7.21922C248.98 7.46922 249.21 7.59922 249.48 7.59922ZM255.466 8.85922C253.966 8.85922 253.056 7.96922 252.956 6.79922L254.416 6.71922C254.506 7.29922 254.856 7.59922 255.466 7.59922C256.126 7.59922 256.536 7.17922 256.536 6.36922C256.536 5.57922 256.116 5.11922 255.476 5.11922C255.036 5.11922 254.666 5.37922 254.526 5.73922L253.056 5.66922L253.476 1.59922H257.666V2.87922H254.646L254.466 4.40922C254.796 4.12922 255.236 3.96922 255.716 3.96922C257.126 3.96922 257.996 4.98922 257.996 6.37922C257.996 7.84922 256.996 8.85922 255.466 8.85922Z" fill="black"/>
<path id="370" d="M389.947 77.578C388.317 77.578 387.507 76.748 387.437 75.458L388.877 75.388C388.937 76.078 389.397 76.318 389.977 76.318C390.607 76.318 391.097 76.018 391.097 75.318C391.097 74.638 390.647 74.278 389.907 74.278H389.377V73.148H389.907C390.467 73.148 390.877 72.898 390.877 72.288C390.877 71.698 390.527 71.408 389.967 71.408C389.347 71.408 389.047 71.718 388.987 72.208L387.547 72.138C387.687 70.928 388.517 70.158 389.977 70.158C391.437 70.158 392.337 70.878 392.337 72.098C392.337 72.868 391.937 73.378 391.187 73.618C392.057 73.868 392.557 74.518 392.557 75.418C392.557 76.758 391.547 77.578 389.947 77.578ZM394.664 77.418C394.664 75.268 395.564 73.308 397.034 71.598H393.534V70.318H398.454V71.528C396.824 73.388 396.154 74.978 396.154 77.418H394.664ZM401.99 77.578C400.39 77.578 399.43 76.168 399.43 73.878C399.43 71.578 400.39 70.158 401.99 70.158C403.59 70.158 404.55 71.578 404.55 73.878C404.55 76.168 403.59 77.578 401.99 77.578ZM400.89 73.878C400.89 74.308 400.92 74.678 400.98 74.988L402.67 71.798C402.49 71.548 402.26 71.418 401.99 71.418C401.3 71.418 400.89 72.238 400.89 73.878ZM401.99 76.318C402.68 76.318 403.09 75.508 403.09 73.878C403.09 73.448 403.06 73.068 403 72.748L401.31 75.938C401.49 76.188 401.72 76.318 401.99 76.318Z" fill="black"/>
<path id="370_2" d="M99.8348 77.578C98.2048 77.578 97.3948 76.748 97.3248 75.458L98.7648 75.388C98.8248 76.078 99.2848 76.318 99.8648 76.318C100.495 76.318 100.985 76.018 100.985 75.318C100.985 74.638 100.535 74.278 99.7948 74.278H99.2648V73.148H99.7948C100.355 73.148 100.765 72.898 100.765 72.288C100.765 71.698 100.415 71.408 99.8548 71.408C99.2348 71.408 98.9348 71.718 98.8748 72.208L97.4348 72.138C97.5748 70.928 98.4048 70.158 99.8648 70.158C101.325 70.158 102.225 70.878 102.225 72.098C102.225 72.868 101.825 73.378 101.075 73.618C101.945 73.868 102.445 74.518 102.445 75.418C102.445 76.758 101.435 77.578 99.8348 77.578ZM104.551 77.418C104.551 75.268 105.451 73.308 106.921 71.598H103.421V70.318H108.341V71.528C106.711 73.388 106.041 74.978 106.041 77.418H104.551ZM111.877 77.578C110.277 77.578 109.317 76.168 109.317 73.878C109.317 71.578 110.277 70.158 111.877 70.158C113.477 70.158 114.437 71.578 114.437 73.878C114.437 76.168 113.477 77.578 111.877 77.578ZM110.777 73.878C110.777 74.308 110.807 74.678 110.867 74.988L112.557 71.798C112.377 71.548 112.147 71.418 111.877 71.418C111.187 71.418 110.777 72.238 110.777 73.878ZM111.877 76.318C112.567 76.318 112.977 75.508 112.977 73.878C112.977 73.448 112.947 73.068 112.887 72.748L111.197 75.938C111.377 76.188 111.607 76.318 111.877 76.318Z" fill="black"/>
<path id="327" d="M455.938 184.265C454.308 184.265 453.498 183.435 453.428 182.145L454.868 182.075C454.928 182.765 455.388 183.005 455.968 183.005C456.598 183.005 457.088 182.705 457.088 182.005C457.088 181.325 456.638 180.965 455.898 180.965H455.368V179.835H455.898C456.458 179.835 456.868 179.585 456.868 178.975C456.868 178.385 456.518 178.095 455.958 178.095C455.338 178.095 455.038 178.405 454.978 178.895L453.538 178.825C453.678 177.615 454.508 176.845 455.968 176.845C457.428 176.845 458.328 177.565 458.328 178.785C458.328 179.555 457.928 180.065 457.178 180.305C458.048 180.555 458.548 181.205 458.548 182.105C458.548 183.445 457.538 184.265 455.938 184.265ZM459.424 184.105C459.424 182.375 460.004 181.365 461.984 180.345C462.714 179.965 463.074 179.685 463.074 179.035C463.074 178.465 462.744 178.105 462.114 178.105C461.394 178.105 461.044 178.525 460.924 179.285L459.454 179.195C459.594 177.745 460.504 176.845 462.134 176.845C463.724 176.845 464.544 177.695 464.544 178.955C464.544 180.095 464.054 180.655 462.654 181.415C461.504 182.035 461.094 182.465 461.054 182.825H464.544V184.105H459.424ZM466.65 184.105C466.65 181.955 467.55 179.995 469.02 178.285H465.52V177.005H470.44V178.215C468.81 180.075 468.14 181.665 468.14 184.105H466.65Z" fill="black"/>
<path id="327_2" d="M30.9289 184.265C29.2989 184.265 28.4889 183.435 28.4189 182.145L29.8589 182.075C29.9189 182.765 30.3789 183.005 30.9589 183.005C31.5889 183.005 32.0789 182.705 32.0789 182.005C32.0789 181.325 31.6289 180.965 30.8889 180.965H30.3589V179.835H30.8889C31.4489 179.835 31.8589 179.585 31.8589 178.975C31.8589 178.385 31.5089 178.095 30.9489 178.095C30.3289 178.095 30.0289 178.405 29.9689 178.895L28.5289 178.825C28.6689 177.615 29.4989 176.845 30.9589 176.845C32.4189 176.845 33.3189 177.565 33.3189 178.785C33.3189 179.555 32.9189 180.065 32.1689 180.305C33.0389 180.555 33.5389 181.205 33.5389 182.105C33.5389 183.445 32.5289 184.265 30.9289 184.265ZM34.4149 184.105C34.4149 182.375 34.9949 181.365 36.9749 180.345C37.7049 179.965 38.0649 179.685 38.0649 179.035C38.0649 178.465 37.7349 178.105 37.1049 178.105C36.3849 178.105 36.0349 178.525 35.9149 179.285L34.4449 179.195C34.5849 177.745 35.4949 176.845 37.1249 176.845C38.7149 176.845 39.5349 177.695 39.5349 178.955C39.5349 180.095 39.0449 180.655 37.6449 181.415C36.4949 182.035 36.0849 182.465 36.0449 182.825H39.5349V184.105H34.4149ZM41.641 184.105C41.641 181.955 42.541 179.995 44.011 178.285H40.511V177.005H45.431V178.215C43.801 180.075 43.131 181.665 43.131 184.105H41.641Z" fill="black"/>
</g>
<path id="field" d="M62.9732 239.774L2.09779 229.252C-2.9751 198.501 142.092 12.6836 250.83 12.6836H250.827C359.565 12.6836 504.632 198.501 499.559 229.252L438.684 239.774C438.684 273.745 412.181 307.833 395.056 324.958L339.011 382.238L359.576 402.803L304.543 446.819C273.137 471.937 228.517 471.937 197.111 446.818L142.08 402.803L162.646 382.238L106.601 324.958C89.4764 307.833 62.9732 273.745 62.9732 239.774Z" fill="#2F241D" fill-opacity="0.1" fill="none" stroke="#2F241D" stroke-width="1.002"/>
</g>
<defs>
<clipPath id="clip0_119_5735">
<rect width="500" height="469.94" fill="white"/>
</clipPath>
</defs>
</svg>
