<svg width="500" height="470" viewBox="0 0 500 470" fill="none" xmlns="http://www.w3.org/2000/svg">
<g id="san-diego-stadium-1969" clip-path="url(#clip0_119_5681)">
<g id="Infield">
<path d="M339.98 327.764C339.453 325.664 322.032 258.477 250.83 258.477C180.238 258.477 162.505 324.536 161.697 327.697C161.677 327.775 161.668 327.814 161.668 327.814L236.504 402.651C235.305 404.91 234.623 407.487 234.623 410.236C234.623 419.184 241.873 426.443 250.83 426.443C259.778 426.443 267.037 419.184 267.037 410.236C267.037 407.487 266.356 404.91 265.156 402.655L260.695 397.373C257.96 395.276 254.544 394.024 250.83 394.024C247.117 394.024 243.701 395.276 240.971 397.368L197.7 354.098C201.448 350.351 201.448 344.275 197.7 340.528C197.698 340.525 197.694 340.523 197.691 340.52L244.055 294.036C247.8 297.772 253.861 297.772 257.606 294.036L303.431 339.982C303.431 339.982 303.427 339.983 303.424 339.986C299.677 343.734 300.275 350.298 304.022 354.045L260.695 397.373L265.156 402.655L339.98 327.764Z" fill="#D2D2D2"/>
<path d="M259.91 345.704C259.91 350.719 255.845 354.785 250.83 354.785C245.815 354.785 241.75 350.719 241.75 345.704C241.75 340.689 245.815 336.624 250.83 336.624C255.845 336.624 259.91 340.689 259.91 345.704Z" fill="#D2D2D2"/>
</g>
<g id="Guides">
<g id="Home">
<circle id="Ellipse 1" cx="250.827" cy="410.421" r="16.0848" fill="#D2D2D2"/>
<circle id="Ellipse 1_2" cx="250.827" cy="410.422" r="1.62919" fill="black"/>
</g>
<g id="First">
<circle id="Ellipse 1_3" cx="311.125" cy="346.535" r="10.1878" fill="#D2D2D2"/>
<circle id="Ellipse 1_4" cx="311.125" cy="346.536" r="1.0319" fill="black"/>
</g>
<g id="Third">
<circle id="Ellipse 1_5" cx="190.34" cy="346.535" r="10.1878" fill="#D2D2D2"/>
<circle id="Ellipse 1_6" cx="190.34" cy="346.536" r="1.0319" fill="black"/>
</g>
<g id="Second">
<circle id="Ellipse 1_7" cx="250.827" cy="286.672" r="10.1878" fill="#D2D2D2"/>
<circle id="Ellipse 1_8" cx="250.827" cy="286.673" r="1.0319" fill="black"/>
</g>
<g id="Mound">
<circle id="Ellipse 1_9" cx="250.827" cy="345.931" r="9.08365" fill="#D2D2D2"/>
<circle id="Ellipse 1_10" cx="250.827" cy="345.932" r="0.920062" fill="black"/>
</g>
</g>
<path id="Foul Lines" d="M478.91 182.582L250.976 410.516L23.1444 182.686" fill="none" stroke="black" stroke-width="1.002"/>
<g id="Measurements">
<path id="375" d="M397.947 77.578C396.317 77.578 395.507 76.748 395.437 75.458L396.877 75.388C396.937 76.078 397.397 76.318 397.977 76.318C398.607 76.318 399.097 76.018 399.097 75.318C399.097 74.638 398.647 74.278 397.907 74.278H397.377V73.148H397.907C398.467 73.148 398.877 72.898 398.877 72.288C398.877 71.698 398.527 71.408 397.967 71.408C397.347 71.408 397.047 71.718 396.987 72.208L395.547 72.138C395.687 70.928 396.517 70.158 397.977 70.158C399.437 70.158 400.337 70.878 400.337 72.098C400.337 72.868 399.937 73.378 399.187 73.618C400.057 73.868 400.557 74.518 400.557 75.418C400.557 76.758 399.547 77.578 397.947 77.578ZM402.663 77.418C402.663 75.268 403.563 73.308 405.033 71.598H401.533V70.318H406.453V71.528C404.823 73.388 404.153 74.978 404.153 77.418H402.663ZM409.98 77.578C408.48 77.578 407.57 76.688 407.47 75.518L408.93 75.438C409.02 76.018 409.37 76.318 409.98 76.318C410.64 76.318 411.05 75.898 411.05 75.088C411.05 74.298 410.63 73.838 409.99 73.838C409.55 73.838 409.18 74.098 409.04 74.458L407.57 74.388L407.99 70.318H412.18V71.598H409.16L408.98 73.128C409.31 72.848 409.75 72.688 410.23 72.688C411.64 72.688 412.51 73.708 412.51 75.098C412.51 76.568 411.51 77.578 409.98 77.578Z" fill="black"/>
<path id="375_2" d="M91.8348 77.578C90.2048 77.578 89.3948 76.748 89.3248 75.458L90.7648 75.388C90.8248 76.078 91.2848 76.318 91.8648 76.318C92.4948 76.318 92.9848 76.018 92.9848 75.318C92.9848 74.638 92.5348 74.278 91.7948 74.278H91.2648V73.148H91.7948C92.3548 73.148 92.7648 72.898 92.7648 72.288C92.7648 71.698 92.4148 71.408 91.8548 71.408C91.2348 71.408 90.9348 71.718 90.8748 72.208L89.4348 72.138C89.5748 70.928 90.4048 70.158 91.8648 70.158C93.3248 70.158 94.2248 70.878 94.2248 72.098C94.2248 72.868 93.8248 73.378 93.0748 73.618C93.9448 73.868 94.4448 74.518 94.4448 75.418C94.4448 76.758 93.4348 77.578 91.8348 77.578ZM96.5509 77.418C96.5509 75.268 97.4509 73.308 98.9209 71.598H95.4209V70.318H100.341V71.528C98.7109 73.388 98.0409 74.978 98.0409 77.418H96.5509ZM103.867 77.578C102.367 77.578 101.457 76.688 101.357 75.518L102.817 75.438C102.907 76.018 103.257 76.318 103.867 76.318C104.527 76.318 104.937 75.898 104.937 75.088C104.937 74.298 104.517 73.838 103.877 73.838C103.437 73.838 103.067 74.098 102.927 74.458L101.457 74.388L101.877 70.318H106.067V71.598H103.047L102.867 73.128C103.197 72.848 103.637 72.688 104.117 72.688C105.527 72.688 106.397 73.708 106.397 75.098C106.397 76.568 105.397 77.578 103.867 77.578Z" fill="black"/>
<path id="330" d="M455.938 184.265C454.308 184.265 453.498 183.435 453.428 182.145L454.868 182.075C454.928 182.765 455.388 183.005 455.968 183.005C456.598 183.005 457.088 182.705 457.088 182.005C457.088 181.325 456.638 180.965 455.898 180.965H455.368V179.835H455.898C456.458 179.835 456.868 179.585 456.868 178.975C456.868 178.385 456.518 178.095 455.958 178.095C455.338 178.095 455.038 178.405 454.978 178.895L453.538 178.825C453.678 177.615 454.508 176.845 455.968 176.845C457.428 176.845 458.328 177.565 458.328 178.785C458.328 179.555 457.928 180.065 457.178 180.305C458.048 180.555 458.548 181.205 458.548 182.105C458.548 183.445 457.538 184.265 455.938 184.265ZM461.934 184.265C460.304 184.265 459.494 183.435 459.424 182.145L460.864 182.075C460.924 182.765 461.384 183.005 461.964 183.005C462.594 183.005 463.084 182.705 463.084 182.005C463.084 181.325 462.634 180.965 461.894 180.965H461.364V179.835H461.894C462.454 179.835 462.864 179.585 462.864 178.975C462.864 178.385 462.514 178.095 461.954 178.095C461.334 178.095 461.034 178.405 460.974 178.895L459.534 178.825C459.674 177.615 460.504 176.845 461.964 176.845C463.424 176.845 464.324 177.565 464.324 178.785C464.324 179.555 463.924 180.065 463.174 180.305C464.044 180.555 464.544 181.205 464.544 182.105C464.544 183.445 463.534 184.265 461.934 184.265ZM467.98 184.265C466.38 184.265 465.42 182.855 465.42 180.565C465.42 178.265 466.38 176.845 467.98 176.845C469.58 176.845 470.54 178.265 470.54 180.565C470.54 182.855 469.58 184.265 467.98 184.265ZM466.88 180.565C466.88 180.995 466.91 181.365 466.97 181.675L468.66 178.485C468.48 178.235 468.25 178.105 467.98 178.105C467.29 178.105 466.88 178.925 466.88 180.565ZM467.98 183.005C468.67 183.005 469.08 182.195 469.08 180.565C469.08 180.135 469.05 179.755 468.99 179.435L467.3 182.625C467.48 182.875 467.71 183.005 467.98 183.005Z" fill="black"/>
<path id="330_2" d="M30.9289 184.265C29.2989 184.265 28.4889 183.435 28.4189 182.145L29.8589 182.075C29.9189 182.765 30.3789 183.005 30.9589 183.005C31.5889 183.005 32.0789 182.705 32.0789 182.005C32.0789 181.325 31.6289 180.965 30.8889 180.965H30.3589V179.835H30.8889C31.4489 179.835 31.8589 179.585 31.8589 178.975C31.8589 178.385 31.5089 178.095 30.9489 178.095C30.3289 178.095 30.0289 178.405 29.9689 178.895L28.5289 178.825C28.6689 177.615 29.4989 176.845 30.9589 176.845C32.4189 176.845 33.3189 177.565 33.3189 178.785C33.3189 179.555 32.9189 180.065 32.1689 180.305C33.0389 180.555 33.5389 181.205 33.5389 182.105C33.5389 183.445 32.5289 184.265 30.9289 184.265ZM36.9249 184.265C35.2949 184.265 34.4849 183.435 34.4149 182.145L35.8549 182.075C35.9149 182.765 36.3749 183.005 36.9549 183.005C37.5849 183.005 38.0749 182.705 38.0749 182.005C38.0749 181.325 37.6249 180.965 36.8849 180.965H36.3549V179.835H36.8849C37.4449 179.835 37.8549 179.585 37.8549 178.975C37.8549 178.385 37.5049 178.095 36.9449 178.095C36.3249 178.095 36.0249 178.405 35.9649 178.895L34.5249 178.825C34.6649 177.615 35.4949 176.845 36.9549 176.845C38.4149 176.845 39.3149 177.565 39.3149 178.785C39.3149 179.555 38.9149 180.065 38.1649 180.305C39.0349 180.555 39.5349 181.205 39.5349 182.105C39.5349 183.445 38.5249 184.265 36.9249 184.265ZM42.971 184.265C41.371 184.265 40.411 182.855 40.411 180.565C40.411 178.265 41.371 176.845 42.971 176.845C44.571 176.845 45.531 178.265 45.531 180.565C45.531 182.855 44.571 184.265 42.971 184.265ZM41.871 180.565C41.871 180.995 41.901 181.365 41.961 181.675L43.651 178.485C43.471 178.235 43.241 178.105 42.971 178.105C42.281 178.105 41.871 178.925 41.871 180.565ZM42.971 183.005C43.661 183.005 44.071 182.195 44.071 180.565C44.071 180.135 44.041 179.755 43.981 179.435L42.291 182.625C42.471 182.875 42.701 183.005 42.971 183.005Z" fill="black"/>
</g>
<path id="field" d="M62.9732 239.774L2.0978 229.252C-2.97509 198.501 148.092 -2.31641 250.83 -2.31641H250.827C353.565 -2.31641 504.632 198.501 499.559 229.252L438.684 239.774C438.684 273.745 412.181 307.833 395.056 324.958L369.77 385.454L373.402 391.745L304.543 446.819C273.137 471.937 228.517 471.937 197.111 446.818L128.255 391.745L131.887 385.454L106.601 324.958C89.4764 307.833 62.9732 273.745 62.9732 239.774Z" fill="#2F241D" fill-opacity="0.1" fill="none" stroke="#2F241D" stroke-width="1.002"/>
</g>
<defs>
<clipPath id="clip0_119_5681">
<rect width="500" height="469.94" fill="white"/>
</clipPath>
</defs>
</svg>
