<svg width="500" height="470" viewBox="0 0 500 470" fill="none" xmlns="http://www.w3.org/2000/svg">
<g id="seals-stadium-1958" clip-path="url(#clip0_82_1047)">
<g id="Infield">
<path d="M339.98 327.765C339.453 325.665 322.032 258.478 250.83 258.478C180.238 258.478 162.505 324.537 161.697 327.698C161.677 327.775 161.668 327.815 161.668 327.815L236.504 402.652C235.305 404.911 234.623 407.488 234.623 410.237C234.623 419.185 241.873 426.444 250.83 426.444C259.778 426.444 267.037 419.185 267.037 410.237C267.037 407.488 266.356 404.911 265.156 402.656L260.695 397.374C257.96 395.277 254.544 394.025 250.83 394.025C247.117 394.025 243.701 395.277 240.971 397.369L197.7 354.099C201.448 350.352 201.448 344.276 197.7 340.529C197.698 340.526 197.694 340.524 197.691 340.521L244.055 294.037C247.8 297.772 253.861 297.772 257.606 294.037L303.431 339.983C303.431 339.983 303.427 339.984 303.424 339.987C299.677 343.735 300.275 350.299 304.022 354.046L260.695 397.374L265.156 402.656L339.98 327.765Z" fill="#D2D2D2"/>
<path d="M259.91 345.705C259.91 350.72 255.845 354.786 250.83 354.786C245.815 354.786 241.75 350.72 241.75 345.705C241.75 340.69 245.815 336.625 250.83 336.625C255.845 336.625 259.91 340.69 259.91 345.705Z" fill="#D2D2D2"/>
</g>
<g id="Guides">
<g id="Home">
<circle id="Ellipse 1" cx="250.827" cy="410.42" r="16.0848" fill="#D2D2D2"/>
<circle id="Ellipse 1_2" cx="250.827" cy="410.42" r="1.62919" fill="black"/>
</g>
<g id="First">
<circle id="Ellipse 1_3" cx="311.125" cy="346.532" r="10.1878" fill="#D2D2D2"/>
<circle id="Ellipse 1_4" cx="311.125" cy="346.532" r="1.0319" fill="black"/>
</g>
<g id="Third">
<circle id="Ellipse 1_5" cx="190.34" cy="346.532" r="10.1878" fill="#D2D2D2"/>
<circle id="Ellipse 1_6" cx="190.34" cy="346.532" r="1.0319" fill="black"/>
</g>
<g id="Second">
<circle id="Ellipse 1_7" cx="250.827" cy="286.67" r="10.1878" fill="#D2D2D2"/>
<circle id="Ellipse 1_8" cx="250.827" cy="286.671" r="1.0319" fill="black"/>
</g>
<g id="Mound">
<circle id="Ellipse 1_9" cx="250.827" cy="345.928" r="9.08365" fill="#D2D2D2"/>
<circle id="Ellipse 1_10" cx="250.827" cy="345.929" r="0.920062" fill="black"/>
</g>
</g>
<path id="Foul Lines" d="M494.873 166.619L250.976 410.516L1.01877 160.559" fill="none" stroke="black" stroke-width="1.002"/>
<g id="Measurements">
<path id="400" d="M240.203 15.6992V14.2792H237.033V13.1092L240.013 8.59922H241.633V13.0392H242.473V14.2792H241.633V15.6992H240.203ZM238.373 13.0392H240.203V10.3892L238.373 13.0392ZM245.749 15.8592C244.149 15.8592 243.189 14.4492 243.189 12.1592C243.189 9.85922 244.149 8.43922 245.749 8.43922C247.349 8.43922 248.309 9.85922 248.309 12.1592C248.309 14.4492 247.349 15.8592 245.749 15.8592ZM244.649 12.1592C244.649 12.5892 244.679 12.9592 244.739 13.2692L246.429 10.0792C246.249 9.82922 246.019 9.69922 245.749 9.69922C245.059 9.69922 244.649 10.5192 244.649 12.1592ZM245.749 14.5992C246.439 14.5992 246.849 13.7892 246.849 12.1592C246.849 11.7292 246.819 11.3492 246.759 11.0292L245.069 14.2192C245.249 14.4692 245.479 14.5992 245.749 14.5992ZM251.745 15.8592C250.145 15.8592 249.185 14.4492 249.185 12.1592C249.185 9.85922 250.145 8.43922 251.745 8.43922C253.345 8.43922 254.305 9.85922 254.305 12.1592C254.305 14.4492 253.345 15.8592 251.745 15.8592ZM250.645 12.1592C250.645 12.5892 250.675 12.9592 250.735 13.2692L252.425 10.0792C252.245 9.82922 252.015 9.69922 251.745 9.69922C251.055 9.69922 250.645 10.5192 250.645 12.1592ZM251.745 14.5992C252.435 14.5992 252.845 13.7892 252.845 12.1592C252.845 11.7292 252.815 11.3492 252.755 11.0292L251.065 14.2192C251.245 14.4692 251.475 14.5992 251.745 14.5992Z" fill="black"/>
<path id="364" d="M96.0392 78.1981C94.4092 78.1981 93.5992 77.3681 93.5292 76.0781L94.9692 76.0081C95.0292 76.6981 95.4892 76.9381 96.0692 76.9381C96.6992 76.9381 97.1892 76.6381 97.1892 75.9381C97.1892 75.2581 96.7392 74.8981 95.9992 74.8981H95.4692V73.7681H95.9992C96.5592 73.7681 96.9692 73.5181 96.9692 72.9081C96.9692 72.3181 96.6192 72.0281 96.0592 72.0281C95.4392 72.0281 95.1392 72.3381 95.0792 72.8281L93.6392 72.7581C93.7792 71.5481 94.6092 70.7781 96.0692 70.7781C97.5292 70.7781 98.4292 71.4981 98.4292 72.7181C98.4292 73.4881 98.0292 73.9981 97.2792 74.2381C98.1492 74.4881 98.6492 75.1381 98.6492 76.0381C98.6492 77.3781 97.6392 78.1981 96.0392 78.1981ZM102.105 78.1981C100.375 78.1981 99.4653 77.0281 99.4653 74.9681C99.4653 72.6181 100.275 70.7781 102.365 70.7781C103.765 70.7781 104.415 71.5381 104.675 72.5581L103.235 72.6581C103.135 72.2981 102.905 72.0381 102.365 72.0381C101.625 72.0381 101.105 72.5481 100.945 73.7681C101.285 73.4681 101.765 73.2481 102.395 73.2481C103.805 73.2481 104.705 74.1981 104.705 75.6281C104.705 77.2081 103.675 78.1981 102.105 78.1981ZM102.075 76.9181C102.825 76.9181 103.245 76.4781 103.245 75.6781C103.245 74.9381 102.865 74.4581 102.135 74.4581C101.395 74.4581 100.925 74.9481 100.925 75.6881C100.925 76.3681 101.345 76.9181 102.075 76.9181ZM108.531 78.0381V76.6181H105.361V75.4481L108.341 70.9381H109.961V75.3781H110.801V76.6181H109.961V78.0381H108.531ZM106.701 75.3781H108.531V72.7281L106.701 75.3781Z" fill="black"/>
<path id="350" d="M467.938 170.098C466.308 170.098 465.498 169.268 465.428 167.978L466.868 167.908C466.928 168.598 467.388 168.838 467.968 168.838C468.598 168.838 469.088 168.538 469.088 167.838C469.088 167.158 468.638 166.798 467.898 166.798H467.368V165.668H467.898C468.458 165.668 468.868 165.418 468.868 164.808C468.868 164.218 468.518 163.928 467.958 163.928C467.338 163.928 467.038 164.238 466.978 164.728L465.538 164.658C465.678 163.448 466.508 162.678 467.968 162.678C469.428 162.678 470.328 163.398 470.328 164.618C470.328 165.388 469.928 165.898 469.178 166.138C470.048 166.388 470.548 167.038 470.548 167.938C470.548 169.278 469.538 170.098 467.938 170.098ZM473.974 170.098C472.474 170.098 471.564 169.208 471.464 168.038L472.924 167.958C473.014 168.538 473.364 168.838 473.974 168.838C474.634 168.838 475.044 168.418 475.044 167.608C475.044 166.818 474.624 166.358 473.984 166.358C473.544 166.358 473.174 166.618 473.034 166.978L471.564 166.908L471.984 162.838H476.174V164.118H473.154L472.974 165.648C473.304 165.368 473.744 165.208 474.224 165.208C475.634 165.208 476.504 166.228 476.504 167.618C476.504 169.088 475.504 170.098 473.974 170.098ZM479.981 170.098C478.381 170.098 477.421 168.688 477.421 166.398C477.421 164.098 478.381 162.678 479.981 162.678C481.581 162.678 482.541 164.098 482.541 166.398C482.541 168.688 481.581 170.098 479.981 170.098ZM478.881 166.398C478.881 166.828 478.911 167.198 478.971 167.508L480.661 164.318C480.481 164.068 480.251 163.938 479.981 163.938C479.291 163.938 478.881 164.758 478.881 166.398ZM479.981 168.838C480.671 168.838 481.081 168.028 481.081 166.398C481.081 165.968 481.051 165.588 480.991 165.268L479.301 168.458C479.481 168.708 479.711 168.838 479.981 168.838Z" fill="black"/>
<path id="361" d="M17.185 165.816C15.555 165.816 14.745 164.986 14.675 163.696L16.115 163.626C16.175 164.316 16.635 164.556 17.215 164.556C17.845 164.556 18.335 164.256 18.335 163.556C18.335 162.876 17.885 162.516 17.145 162.516H16.615V161.386H17.145C17.705 161.386 18.115 161.136 18.115 160.526C18.115 159.936 17.765 159.646 17.205 159.646C16.585 159.646 16.285 159.956 16.225 160.446L14.785 160.376C14.925 159.166 15.755 158.396 17.215 158.396C18.675 158.396 19.575 159.116 19.575 160.336C19.575 161.106 19.175 161.616 18.425 161.856C19.295 162.106 19.795 162.756 19.795 163.656C19.795 164.996 18.785 165.816 17.185 165.816ZM23.2511 165.816C21.5211 165.816 20.6111 164.646 20.6111 162.586C20.6111 160.236 21.4211 158.396 23.5111 158.396C24.9111 158.396 25.5611 159.156 25.8211 160.176L24.3811 160.276C24.2811 159.916 24.0511 159.656 23.5111 159.656C22.7711 159.656 22.2511 160.166 22.0911 161.386C22.4311 161.086 22.9111 160.866 23.5411 160.866C24.9511 160.866 25.8511 161.816 25.8511 163.246C25.8511 164.826 24.8211 165.816 23.2511 165.816ZM23.2211 164.536C23.9711 164.536 24.3911 164.096 24.3911 163.296C24.3911 162.556 24.0111 162.076 23.2811 162.076C22.5411 162.076 22.0711 162.566 22.0711 163.306C22.0711 163.986 22.4911 164.536 23.2211 164.536ZM26.7072 165.656V164.376H28.7472V160.996H27.0072V159.816H27.7872C28.5872 159.816 28.9272 159.476 28.9272 158.556H30.1672V164.376H31.7472V165.656H26.7072Z" fill="black"/>
</g>
<path id="field" d="M202.894 443.624L-3.00551 163.418L195.955 18.2903L209.595 24.11L289.251 14.1074L498.942 169.42L297.117 443.632C273.973 475.856 226.032 475.852 202.894 443.624Z" fill="#FD5A1E" fill-opacity="0.1" fill="none" stroke="#FD5A1E" stroke-width="1.002"/>
</g>
<defs>
<clipPath id="clip0_82_1047">
<rect width="500" height="469.94" fill="white"/>
</clipPath>
</defs>
</svg>
