<svg width="500" height="470" viewBox="0 0 500 470" fill="none" xmlns="http://www.w3.org/2000/svg">
<g id="shea-stadium-1964" clip-path="url(#clip0_81_694)">
<g id="Infield">
<path d="M339.98 327.765C339.453 325.665 322.032 258.478 250.83 258.478C180.238 258.478 162.505 324.537 161.697 327.698C161.677 327.775 161.668 327.815 161.668 327.815L236.504 402.652C235.305 404.911 234.623 407.488 234.623 410.237C234.623 419.185 241.873 426.444 250.83 426.444C259.778 426.444 267.037 419.185 267.037 410.237C267.037 407.488 266.356 404.911 265.156 402.656L260.695 397.374C257.96 395.277 254.544 394.025 250.83 394.025C247.117 394.025 243.701 395.277 240.971 397.369L197.7 354.099C201.448 350.352 201.448 344.276 197.7 340.529C197.698 340.526 197.694 340.524 197.691 340.521L244.055 294.037C247.8 297.772 253.861 297.772 257.606 294.037L303.431 339.983C303.431 339.983 303.427 339.984 303.424 339.987C299.677 343.735 300.275 350.299 304.022 354.046L260.695 397.374L265.156 402.656L339.98 327.765Z" fill="#D2D2D2"/>
<path d="M259.91 345.705C259.91 350.72 255.845 354.786 250.83 354.786C245.815 354.786 241.75 350.72 241.75 345.705C241.75 340.69 245.815 336.625 250.83 336.625C255.845 336.625 259.91 340.69 259.91 345.705Z" fill="#D2D2D2"/>
</g>
<g id="Guides">
<g id="Home">
<circle id="Ellipse 1" cx="250.827" cy="410.42" r="16.0848" fill="#D2D2D2"/>
<circle id="Ellipse 1_2" cx="250.827" cy="410.42" r="1.62919" fill="black"/>
</g>
<g id="First">
<circle id="Ellipse 1_3" cx="311.125" cy="346.532" r="10.1878" fill="#D2D2D2"/>
<circle id="Ellipse 1_4" cx="311.125" cy="346.532" r="1.0319" fill="black"/>
</g>
<g id="Third">
<circle id="Ellipse 1_5" cx="190.34" cy="346.532" r="10.1878" fill="#D2D2D2"/>
<circle id="Ellipse 1_6" cx="190.34" cy="346.532" r="1.0319" fill="black"/>
</g>
<g id="Second">
<circle id="Ellipse 1_7" cx="250.827" cy="286.67" r="10.1878" fill="#D2D2D2"/>
<circle id="Ellipse 1_8" cx="250.827" cy="286.671" r="1.0319" fill="black"/>
</g>
<g id="Mound">
<circle id="Ellipse 1_9" cx="250.827" cy="345.928" r="9.08365" fill="#D2D2D2"/>
<circle id="Ellipse 1_10" cx="250.827" cy="345.929" r="0.920062" fill="black"/>
</g>
</g>
<path id="Foul Lines" d="M487.695 173.796L250.975 410.516L14.073 173.613" fill="none" stroke="black" stroke-width="1.002"/>
<g id="Measurements">
<path id="410" d="M245.258 4.69922V3.27922H242.088V2.10922L245.068 -2.40078H246.688V2.03922H247.528V3.27922H246.688V4.69922H245.258ZM243.428 2.03922H245.258V-0.610781L243.428 2.03922ZM248.284 4.69922V3.41922H250.324V0.0392185H248.584V-1.14078H249.364C250.164 -1.14078 250.504 -1.48078 250.504 -2.40078H251.744V3.41922H253.324V4.69922H248.284ZM256.8 4.85922C255.2 4.85922 254.24 3.44922 254.24 1.15922C254.24 -1.14078 255.2 -2.56078 256.8 -2.56078C258.4 -2.56078 259.36 -1.14078 259.36 1.15922C259.36 3.44922 258.4 4.85922 256.8 4.85922ZM255.7 1.15922C255.7 1.58922 255.73 1.95922 255.79 2.26922L257.48 -0.920782C257.3 -1.17078 257.07 -1.30078 256.8 -1.30078C256.11 -1.30078 255.7 -0.480781 255.7 1.15922ZM256.8 3.59922C257.49 3.59922 257.9 2.78922 257.9 1.15922C257.9 0.729219 257.87 0.349218 257.81 0.0292187L256.12 3.21922C256.3 3.46922 256.53 3.59922 256.8 3.59922Z" fill="black"/>
<path id="371" d="M383.696 68.2039C382.066 68.2039 381.256 67.3739 381.186 66.0839L382.626 66.0139C382.686 66.7039 383.146 66.9439 383.726 66.9439C384.356 66.9439 384.846 66.6439 384.846 65.9439C384.846 65.2639 384.396 64.9039 383.656 64.9039H383.126V63.7739H383.656C384.216 63.7739 384.626 63.5239 384.626 62.9139C384.626 62.3239 384.276 62.0339 383.716 62.0339C383.096 62.0339 382.796 62.3439 382.736 62.8339L381.296 62.7639C381.436 61.5539 382.266 60.7839 383.726 60.7839C385.186 60.7839 386.086 61.5039 386.086 62.7239C386.086 63.4939 385.686 64.0039 384.936 64.2439C385.806 64.4939 386.306 65.1439 386.306 66.0439C386.306 67.3839 385.296 68.2039 383.696 68.2039ZM388.412 68.0439C388.412 65.8939 389.312 63.9339 390.782 62.2239H387.282V60.9439H392.202V62.1539C390.572 64.0139 389.902 65.6039 389.902 68.0439H388.412ZM393.218 68.0439V66.7639H395.258V63.3839H393.518V62.2039H394.298C395.098 62.2039 395.438 61.8639 395.438 60.9439H396.678V66.7639H398.258V68.0439H393.218Z" fill="black"/>
<path id="371_2" d="M106.171 68.2039C104.541 68.2039 103.731 67.3739 103.661 66.0839L105.101 66.0139C105.161 66.7039 105.621 66.9439 106.201 66.9439C106.831 66.9439 107.321 66.6439 107.321 65.9439C107.321 65.2639 106.871 64.9039 106.131 64.9039H105.601V63.7739H106.131C106.691 63.7739 107.101 63.5239 107.101 62.9139C107.101 62.3239 106.751 62.0339 106.191 62.0339C105.571 62.0339 105.271 62.3439 105.211 62.8339L103.771 62.7639C103.911 61.5539 104.741 60.7839 106.201 60.7839C107.661 60.7839 108.561 61.5039 108.561 62.7239C108.561 63.4939 108.161 64.0039 107.411 64.2439C108.281 64.4939 108.781 65.1439 108.781 66.0439C108.781 67.3839 107.771 68.2039 106.171 68.2039ZM110.887 68.0439C110.887 65.8939 111.787 63.9339 113.257 62.2239H109.757V60.9439H114.677V62.1539C113.047 64.0139 112.377 65.6039 112.377 68.0439H110.887ZM115.693 68.0439V66.7639H117.733V63.3839H115.993V62.2039H116.773C117.573 62.2039 117.913 61.8639 117.913 60.9439H119.153V66.7639H120.733V68.0439H115.693Z" fill="black"/>
<path id="341" d="M465.938 174.098C464.308 174.098 463.498 173.268 463.428 171.978L464.868 171.908C464.928 172.598 465.388 172.838 465.968 172.838C466.598 172.838 467.088 172.538 467.088 171.838C467.088 171.158 466.638 170.798 465.898 170.798H465.368V169.668H465.898C466.458 169.668 466.868 169.418 466.868 168.808C466.868 168.218 466.518 167.928 465.958 167.928C465.338 167.928 465.038 168.238 464.978 168.728L463.538 168.658C463.678 167.448 464.508 166.678 465.968 166.678C467.428 166.678 468.328 167.398 468.328 168.618C468.328 169.388 467.928 169.898 467.178 170.138C468.048 170.388 468.548 171.038 468.548 171.938C468.548 173.278 467.538 174.098 465.938 174.098ZM472.434 173.938V172.518H469.264V171.348L472.244 166.838H473.864V171.278H474.704V172.518H473.864V173.938H472.434ZM470.604 171.278H472.434V168.628L470.604 171.278ZM475.46 173.938V172.658H477.5V169.278H475.76V168.098H476.54C477.34 168.098 477.68 167.758 477.68 166.838H478.92V172.658H480.5V173.938H475.46Z" fill="black"/>
<path id="341_2" d="M23.5783 175.598C21.9483 175.598 21.1383 174.768 21.0683 173.478L22.5083 173.408C22.5683 174.098 23.0283 174.338 23.6083 174.338C24.2383 174.338 24.7283 174.038 24.7283 173.338C24.7283 172.658 24.2783 172.298 23.5383 172.298H23.0083V171.168H23.5383C24.0983 171.168 24.5083 170.918 24.5083 170.308C24.5083 169.718 24.1583 169.428 23.5983 169.428C22.9783 169.428 22.6783 169.738 22.6183 170.228L21.1783 170.158C21.3183 168.948 22.1483 168.178 23.6083 168.178C25.0683 168.178 25.9683 168.898 25.9683 170.118C25.9683 170.888 25.5683 171.398 24.8183 171.638C25.6883 171.888 26.1883 172.538 26.1883 173.438C26.1883 174.778 25.1783 175.598 23.5783 175.598ZM30.0744 175.438V174.018H26.9044V172.848L29.8844 168.338H31.5044V172.778H32.3444V174.018H31.5044V175.438H30.0744ZM28.2444 172.778H30.0744V170.128L28.2444 172.778ZM33.1005 175.438V174.158H35.1405V170.778H33.4005V169.598H34.1805C34.9805 169.598 35.3205 169.258 35.3205 168.338H36.5605V174.158H38.1405V175.438H33.1005Z" fill="black"/>
</g>
<g id="field">
<path d="M250.828 8.62891L250.83 8.62891H250.825L250.828 8.62891Z" fill="#FF5910" fill-opacity="0.1"/>
<path d="M250.83 8.62891L250.828 8.62891C278.531 8.62915 297.436 12.7034 325.141 32.2598L461.656 128.669C466.739 132.259 471.018 136.878 473.866 142.41C481.755 157.733 492.921 183.195 496.321 205.104L462.027 214.293L287.862 472.722H213.793L39.6276 214.293L5.33395 205.104C8.73356 183.195 19.8998 157.733 27.7887 142.41C30.6366 136.878 34.9164 132.259 39.9988 128.669L176.514 32.2598C204.219 12.7034 223.124 8.62915 250.828 8.62891L250.825 8.62891H250.83Z" fill="#FF5910" fill-opacity="0.1"/>
<path d="M250.828 8.62891L250.83 8.62891H250.825L250.828 8.62891ZM250.828 8.62891C223.124 8.62915 204.219 12.7034 176.514 32.2598L39.9988 128.669C34.9164 132.259 30.6366 136.878 27.7887 142.41C19.8998 157.733 8.73356 183.195 5.33395 205.104L39.6276 214.293L213.793 472.722H287.862L462.027 214.293L496.321 205.104C492.921 183.195 481.755 157.733 473.866 142.41C471.018 136.878 466.739 132.259 461.656 128.669L325.141 32.2598C297.436 12.7034 278.531 8.62915 250.828 8.62891Z" fill="none" stroke="#FF5910" stroke-width="1.002"/>
</g>
</g>
<defs>
<clipPath id="clip0_81_694">
<rect width="500" height="469.94" fill="white"/>
</clipPath>
</defs>
</svg>
