<svg width="500" height="470" viewBox="0 0 500 470" fill="none" xmlns="http://www.w3.org/2000/svg">
<g id="shea-stadium-2004" clip-path="url(#clip0_81_721)">
<g id="Infield">
<path d="M339.98 327.765C339.453 325.665 322.032 258.478 250.83 258.478C180.238 258.478 162.505 324.537 161.697 327.698C161.677 327.775 161.668 327.815 161.668 327.815L236.504 402.652C235.305 404.911 234.623 407.488 234.623 410.237C234.623 419.185 241.873 426.444 250.83 426.444C259.778 426.444 267.037 419.185 267.037 410.237C267.037 407.488 266.356 404.911 265.156 402.656L260.695 397.374C257.96 395.277 254.544 394.025 250.83 394.025C247.117 394.025 243.701 395.277 240.971 397.369L197.7 354.099C201.448 350.352 201.448 344.276 197.7 340.529C197.698 340.526 197.694 340.524 197.691 340.521L244.055 294.037C247.8 297.772 253.861 297.772 257.606 294.037L303.431 339.983C303.431 339.983 303.427 339.984 303.424 339.987C299.677 343.735 300.275 350.299 304.022 354.046L260.695 397.374L265.156 402.656L339.98 327.765Z" fill="#D2D2D2"/>
<path d="M259.91 345.705C259.91 350.72 255.845 354.786 250.83 354.786C245.815 354.786 241.75 350.72 241.75 345.705C241.75 340.69 245.815 336.625 250.83 336.625C255.845 336.625 259.91 340.69 259.91 345.705Z" fill="#D2D2D2"/>
</g>
<g id="Guides">
<g id="Home">
<circle id="Ellipse 1" cx="250.827" cy="410.42" r="16.0848" fill="#D2D2D2"/>
<circle id="Ellipse 1_2" cx="250.827" cy="410.42" r="1.62919" fill="black"/>
</g>
<g id="First">
<circle id="Ellipse 1_3" cx="311.125" cy="346.532" r="10.1878" fill="#D2D2D2"/>
<circle id="Ellipse 1_4" cx="311.125" cy="346.532" r="1.0319" fill="black"/>
</g>
<g id="Third">
<circle id="Ellipse 1_5" cx="190.34" cy="346.532" r="10.1878" fill="#D2D2D2"/>
<circle id="Ellipse 1_6" cx="190.34" cy="346.532" r="1.0319" fill="black"/>
</g>
<g id="Second">
<circle id="Ellipse 1_7" cx="250.827" cy="286.67" r="10.1878" fill="#D2D2D2"/>
<circle id="Ellipse 1_8" cx="250.827" cy="286.671" r="1.0319" fill="black"/>
</g>
<g id="Mound">
<circle id="Ellipse 1_9" cx="250.827" cy="345.928" r="9.08365" fill="#D2D2D2"/>
<circle id="Ellipse 1_10" cx="250.827" cy="345.929" r="0.920062" fill="black"/>
</g>
</g>
<path id="Foul Lines" d="M487.695 173.796L250.975 410.516L14.073 173.613" fill="none" stroke="black" stroke-width="1.002"/>
<g id="Measurements">
<path id="410" d="M245.258 4.69922V3.27922H242.088V2.10922L245.068 -2.40078H246.688V2.03922H247.528V3.27922H246.688V4.69922H245.258ZM243.428 2.03922H245.258V-0.610781L243.428 2.03922ZM248.284 4.69922V3.41922H250.324V0.0392185H248.584V-1.14078H249.364C250.164 -1.14078 250.504 -1.48078 250.504 -2.40078H251.744V3.41922H253.324V4.69922H248.284ZM256.8 4.85922C255.2 4.85922 254.24 3.44922 254.24 1.15922C254.24 -1.14078 255.2 -2.56078 256.8 -2.56078C258.4 -2.56078 259.36 -1.14078 259.36 1.15922C259.36 3.44922 258.4 4.85922 256.8 4.85922ZM255.7 1.15922C255.7 1.58922 255.73 1.95922 255.79 2.26922L257.48 -0.920782C257.3 -1.17078 257.07 -1.30078 256.8 -1.30078C256.11 -1.30078 255.7 -0.480781 255.7 1.15922ZM256.8 3.59922C257.49 3.59922 257.9 2.78922 257.9 1.15922C257.9 0.729219 257.87 0.349218 257.81 0.0292187L256.12 3.21922C256.3 3.46922 256.53 3.59922 256.8 3.59922Z" fill="black"/>
<path id="371" d="M383.696 68.2039C382.066 68.2039 381.256 67.3739 381.186 66.0839L382.626 66.0139C382.686 66.7039 383.146 66.9439 383.726 66.9439C384.356 66.9439 384.846 66.6439 384.846 65.9439C384.846 65.2639 384.396 64.9039 383.656 64.9039H383.126V63.7739H383.656C384.216 63.7739 384.626 63.5239 384.626 62.9139C384.626 62.3239 384.276 62.0339 383.716 62.0339C383.096 62.0339 382.796 62.3439 382.736 62.8339L381.296 62.7639C381.436 61.5539 382.266 60.7839 383.726 60.7839C385.186 60.7839 386.086 61.5039 386.086 62.7239C386.086 63.4939 385.686 64.0039 384.936 64.2439C385.806 64.4939 386.306 65.1439 386.306 66.0439C386.306 67.3839 385.296 68.2039 383.696 68.2039ZM388.412 68.0439C388.412 65.8939 389.312 63.9339 390.782 62.2239H387.282V60.9439H392.202V62.1539C390.572 64.0139 389.902 65.6039 389.902 68.0439H388.412ZM393.218 68.0439V66.7639H395.258V63.3839H393.518V62.2039H394.298C395.098 62.2039 395.438 61.8639 395.438 60.9439H396.678V66.7639H398.258V68.0439H393.218Z" fill="black"/>
<path id="371_2" d="M106.171 68.2039C104.541 68.2039 103.731 67.3739 103.661 66.0839L105.101 66.0139C105.161 66.7039 105.621 66.9439 106.201 66.9439C106.831 66.9439 107.321 66.6439 107.321 65.9439C107.321 65.2639 106.871 64.9039 106.131 64.9039H105.601V63.7739H106.131C106.691 63.7739 107.101 63.5239 107.101 62.9139C107.101 62.3239 106.751 62.0339 106.191 62.0339C105.571 62.0339 105.271 62.3439 105.211 62.8339L103.771 62.7639C103.911 61.5539 104.741 60.7839 106.201 60.7839C107.661 60.7839 108.561 61.5039 108.561 62.7239C108.561 63.4939 108.161 64.0039 107.411 64.2439C108.281 64.4939 108.781 65.1439 108.781 66.0439C108.781 67.3839 107.771 68.2039 106.171 68.2039ZM110.887 68.0439C110.887 65.8939 111.787 63.9339 113.257 62.2239H109.757V60.9439H114.677V62.1539C113.047 64.0139 112.377 65.6039 112.377 68.0439H110.887ZM115.693 68.0439V66.7639H117.733V63.3839H115.993V62.2039H116.773C117.573 62.2039 117.913 61.8639 117.913 60.9439H119.153V66.7639H120.733V68.0439H115.693Z" fill="black"/>
<path id="338" d="M465.938 174.098C464.308 174.098 463.498 173.268 463.428 171.978L464.868 171.908C464.928 172.598 465.388 172.838 465.968 172.838C466.598 172.838 467.088 172.538 467.088 171.838C467.088 171.158 466.638 170.798 465.898 170.798H465.368V169.668H465.898C466.458 169.668 466.868 169.418 466.868 168.808C466.868 168.218 466.518 167.928 465.958 167.928C465.338 167.928 465.038 168.238 464.978 168.728L463.538 168.658C463.678 167.448 464.508 166.678 465.968 166.678C467.428 166.678 468.328 167.398 468.328 168.618C468.328 169.388 467.928 169.898 467.178 170.138C468.048 170.388 468.548 171.038 468.548 171.938C468.548 173.278 467.538 174.098 465.938 174.098ZM471.934 174.098C470.304 174.098 469.494 173.268 469.424 171.978L470.864 171.908C470.924 172.598 471.384 172.838 471.964 172.838C472.594 172.838 473.084 172.538 473.084 171.838C473.084 171.158 472.634 170.798 471.894 170.798H471.364V169.668H471.894C472.454 169.668 472.864 169.418 472.864 168.808C472.864 168.218 472.514 167.928 471.954 167.928C471.334 167.928 471.034 168.238 470.974 168.728L469.534 168.658C469.674 167.448 470.504 166.678 471.964 166.678C473.424 166.678 474.324 167.398 474.324 168.618C474.324 169.388 473.924 169.898 473.174 170.138C474.044 170.388 474.544 171.038 474.544 171.938C474.544 173.278 473.534 174.098 471.934 174.098ZM477.98 174.098C476.41 174.098 475.36 173.378 475.36 171.998C475.36 171.068 475.9 170.408 476.77 170.128C476.1 169.868 475.65 169.378 475.65 168.638C475.65 167.498 476.58 166.678 477.98 166.678C479.38 166.678 480.31 167.498 480.31 168.638C480.31 169.378 479.86 169.868 479.18 170.128C480.06 170.408 480.6 171.068 480.6 171.998C480.6 173.378 479.55 174.098 477.98 174.098ZM477.98 169.558C478.49 169.558 478.84 169.288 478.84 168.728C478.84 168.228 478.5 167.938 477.98 167.938C477.46 167.938 477.12 168.228 477.12 168.728C477.12 169.288 477.47 169.558 477.98 169.558ZM477.98 172.838C478.62 172.838 479.14 172.558 479.14 171.858C479.14 171.188 478.71 170.768 477.98 170.768C477.25 170.768 476.82 171.188 476.82 171.858C476.82 172.558 477.34 172.838 477.98 172.838Z" fill="black"/>
<path id="338_2" d="M23.5783 175.598C21.9483 175.598 21.1383 174.768 21.0683 173.478L22.5083 173.408C22.5683 174.098 23.0283 174.338 23.6083 174.338C24.2383 174.338 24.7283 174.038 24.7283 173.338C24.7283 172.658 24.2783 172.298 23.5383 172.298H23.0083V171.168H23.5383C24.0983 171.168 24.5083 170.918 24.5083 170.308C24.5083 169.718 24.1583 169.428 23.5983 169.428C22.9783 169.428 22.6783 169.738 22.6183 170.228L21.1783 170.158C21.3183 168.948 22.1483 168.178 23.6083 168.178C25.0683 168.178 25.9683 168.898 25.9683 170.118C25.9683 170.888 25.5683 171.398 24.8183 171.638C25.6883 171.888 26.1883 172.538 26.1883 173.438C26.1883 174.778 25.1783 175.598 23.5783 175.598ZM29.5744 175.598C27.9444 175.598 27.1344 174.768 27.0644 173.478L28.5044 173.408C28.5644 174.098 29.0244 174.338 29.6044 174.338C30.2344 174.338 30.7244 174.038 30.7244 173.338C30.7244 172.658 30.2744 172.298 29.5344 172.298H29.0044V171.168H29.5344C30.0944 171.168 30.5044 170.918 30.5044 170.308C30.5044 169.718 30.1544 169.428 29.5944 169.428C28.9744 169.428 28.6744 169.738 28.6144 170.228L27.1744 170.158C27.3144 168.948 28.1444 168.178 29.6044 168.178C31.0644 168.178 31.9644 168.898 31.9644 170.118C31.9644 170.888 31.5644 171.398 30.8144 171.638C31.6844 171.888 32.1844 172.538 32.1844 173.438C32.1844 174.778 31.1744 175.598 29.5744 175.598ZM35.6205 175.598C34.0505 175.598 33.0005 174.878 33.0005 173.498C33.0005 172.568 33.5405 171.908 34.4105 171.628C33.7405 171.368 33.2905 170.878 33.2905 170.138C33.2905 168.998 34.2205 168.178 35.6205 168.178C37.0205 168.178 37.9505 168.998 37.9505 170.138C37.9505 170.878 37.5005 171.368 36.8205 171.628C37.7005 171.908 38.2405 172.568 38.2405 173.498C38.2405 174.878 37.1905 175.598 35.6205 175.598ZM35.6205 171.058C36.1305 171.058 36.4805 170.788 36.4805 170.228C36.4805 169.728 36.1405 169.438 35.6205 169.438C35.1005 169.438 34.7605 169.728 34.7605 170.228C34.7605 170.788 35.1105 171.058 35.6205 171.058ZM35.6205 174.338C36.2605 174.338 36.7805 174.058 36.7805 173.358C36.7805 172.688 36.3505 172.268 35.6205 172.268C34.8905 172.268 34.4605 172.688 34.4605 173.358C34.4605 174.058 34.9805 174.338 35.6205 174.338Z" fill="black"/>
</g>
<g id="field">
<path d="M250.827 8.62891L250.83 8.62891H250.825L250.827 8.62891Z" fill="#FF5910" fill-opacity="0.1"/>
<path d="M250.83 8.62891L250.827 8.62891C278.531 8.62915 297.436 12.7034 325.141 32.2598L461.656 128.669C466.739 132.259 471.02 136.882 473.868 142.414C479.34 153.042 486.388 168.547 491.327 184.36L437.649 237.312L308.363 438.508C300.268 451.106 286.321 458.722 271.346 458.722H230.435C215.484 458.722 201.557 451.13 193.455 438.565L62.059 234.772L10.328 184.36C15.2674 168.547 22.315 153.042 27.7867 142.414C30.6346 136.882 34.9164 132.259 39.9988 128.669L176.514 32.2598C204.219 12.7034 223.124 8.62915 250.827 8.62891L250.825 8.62891H250.83Z" fill="#FF5910" fill-opacity="0.1"/>
<path d="M250.827 8.62891L250.83 8.62891H250.825L250.827 8.62891ZM250.827 8.62891C223.124 8.62915 204.219 12.7034 176.514 32.2598L39.9988 128.669C34.9164 132.259 30.6346 136.882 27.7867 142.414C22.315 153.042 15.2674 168.547 10.328 184.36L62.059 234.772L193.455 438.565C201.557 451.13 215.484 458.722 230.435 458.722H271.346C286.321 458.722 300.268 451.106 308.363 438.508L437.649 237.312L491.327 184.36C486.388 168.547 479.34 153.042 473.868 142.414C471.02 136.882 466.739 132.259 461.656 128.669L325.141 32.2598C297.436 12.7034 278.531 8.62915 250.827 8.62891Z" fill="none" stroke="#FF5910" stroke-width="1.002"/>
</g>
</g>
<defs>
<clipPath id="clip0_81_721">
<rect width="500" height="469.94" fill="white"/>
</clipPath>
</defs>
</svg>
