<svg width="500" height="470" viewBox="0 0 500 470" fill="none" xmlns="http://www.w3.org/2000/svg">
<g id="shibe-park-1923" clip-path="url(#clip0_86_1557)">
<g id="Infield">
<path d="M339.98 327.826C339.453 325.726 322.032 258.538 250.83 258.538C180.238 258.538 162.505 324.598 161.697 327.759C161.677 327.836 161.668 327.876 161.668 327.876L236.504 402.712C235.305 404.972 234.623 407.548 234.623 410.298C234.623 419.245 241.873 426.504 250.83 426.504C259.778 426.504 267.037 419.245 267.037 410.298C267.037 407.548 266.356 404.972 265.157 402.717L260.695 397.434C257.96 395.338 254.544 394.086 250.83 394.086C247.117 394.086 243.701 395.338 240.971 397.43L197.7 354.16C201.448 350.412 201.448 344.337 197.7 340.589C197.698 340.586 197.694 340.584 197.691 340.581L244.055 294.097C247.8 297.833 253.861 297.833 257.606 294.097L303.431 340.043C303.431 340.043 303.427 340.045 303.424 340.048C299.677 343.795 300.275 350.359 304.022 354.107L260.695 397.434L265.157 402.717L339.98 327.826Z" fill="#D2D2D2"/>
<path d="M259.91 345.766C259.91 350.781 255.845 354.846 250.83 354.846C245.815 354.846 241.75 350.781 241.75 345.766C241.75 340.751 245.815 336.685 250.83 336.685C255.845 336.685 259.91 340.751 259.91 345.766Z" fill="#D2D2D2"/>
</g>
<g id="Guides">
<g id="Home">
<circle id="Ellipse 1" cx="250.827" cy="410.48" r="16.0848" fill="#D2D2D2"/>
<circle id="Ellipse 1_2" cx="250.827" cy="410.481" r="1.62919" fill="black"/>
</g>
<g id="First">
<circle id="Ellipse 1_3" cx="311.125" cy="346.592" r="10.1878" fill="#D2D2D2"/>
<circle id="Ellipse 1_4" cx="311.125" cy="346.592" r="1.0319" fill="black"/>
</g>
<g id="Third">
<circle id="Ellipse 1_5" cx="190.34" cy="346.592" r="10.1878" fill="#D2D2D2"/>
<circle id="Ellipse 1_6" cx="190.34" cy="346.592" r="1.0319" fill="black"/>
</g>
<g id="Second">
<circle id="Ellipse 1_7" cx="250.827" cy="286.731" r="10.1878" fill="#D2D2D2"/>
<circle id="Ellipse 1_8" cx="250.827" cy="286.731" r="1.0319" fill="black"/>
</g>
<g id="Mound">
<circle id="Ellipse 1_9" cx="250.827" cy="345.989" r="9.08365" fill="#D2D2D2"/>
<circle id="Ellipse 1_10" cx="250.827" cy="345.989" r="0.920062" fill="black"/>
</g>
</g>
<path id="Foul Lines" d="M480.29 181.201L250.975 410.516L18.3282 177.868" fill="none" stroke="black" stroke-width="1.002"/>
<g id="Measurements">
<path id="331" d="M457.938 182.098C456.308 182.098 455.498 181.268 455.428 179.978L456.868 179.908C456.928 180.598 457.388 180.838 457.968 180.838C458.598 180.838 459.088 180.538 459.088 179.838C459.088 179.158 458.638 178.798 457.898 178.798H457.368V177.668H457.898C458.458 177.668 458.868 177.418 458.868 176.808C458.868 176.218 458.518 175.928 457.958 175.928C457.338 175.928 457.038 176.238 456.978 176.728L455.538 176.658C455.678 175.448 456.508 174.678 457.968 174.678C459.428 174.678 460.328 175.398 460.328 176.618C460.328 177.388 459.928 177.898 459.178 178.138C460.048 178.388 460.548 179.038 460.548 179.938C460.548 181.278 459.538 182.098 457.938 182.098ZM463.934 182.098C462.304 182.098 461.494 181.268 461.424 179.978L462.864 179.908C462.924 180.598 463.384 180.838 463.964 180.838C464.594 180.838 465.084 180.538 465.084 179.838C465.084 179.158 464.634 178.798 463.894 178.798H463.364V177.668H463.894C464.454 177.668 464.864 177.418 464.864 176.808C464.864 176.218 464.514 175.928 463.954 175.928C463.334 175.928 463.034 176.238 462.974 176.728L461.534 176.658C461.674 175.448 462.504 174.678 463.964 174.678C465.424 174.678 466.324 175.398 466.324 176.618C466.324 177.388 465.924 177.898 465.174 178.138C466.044 178.388 466.544 179.038 466.544 179.938C466.544 181.278 465.534 182.098 463.934 182.098ZM467.46 181.938V180.658H469.5V177.278H467.76V176.098H468.54C469.34 176.098 469.68 175.758 469.68 174.838H470.92V180.658H472.5V181.938H467.46Z" fill="black"/>
<path id="334" d="M28.7558 180.53C27.1258 180.53 26.3158 179.7 26.2458 178.41L27.6858 178.34C27.7458 179.03 28.2058 179.27 28.7858 179.27C29.4158 179.27 29.9058 178.97 29.9058 178.27C29.9058 177.59 29.4558 177.23 28.7158 177.23H28.1858V176.1H28.7158C29.2758 176.1 29.6858 175.85 29.6858 175.24C29.6858 174.65 29.3358 174.36 28.7758 174.36C28.1558 174.36 27.8558 174.67 27.7958 175.16L26.3558 175.09C26.4958 173.88 27.3258 173.11 28.7858 173.11C30.2458 173.11 31.1458 173.83 31.1458 175.05C31.1458 175.82 30.7458 176.33 29.9958 176.57C30.8658 176.82 31.3658 177.47 31.3658 178.37C31.3658 179.71 30.3558 180.53 28.7558 180.53ZM34.7519 180.53C33.1219 180.53 32.3119 179.7 32.2419 178.41L33.6819 178.34C33.7419 179.03 34.2019 179.27 34.7819 179.27C35.4119 179.27 35.9019 178.97 35.9019 178.27C35.9019 177.59 35.4519 177.23 34.7119 177.23H34.1819V176.1H34.7119C35.2719 176.1 35.6819 175.85 35.6819 175.24C35.6819 174.65 35.3319 174.36 34.7719 174.36C34.1519 174.36 33.8519 174.67 33.7919 175.16L32.3519 175.09C32.4919 173.88 33.3219 173.11 34.7819 173.11C36.2419 173.11 37.1419 173.83 37.1419 175.05C37.1419 175.82 36.7419 176.33 35.9919 176.57C36.8619 176.82 37.3619 177.47 37.3619 178.37C37.3619 179.71 36.3519 180.53 34.7519 180.53ZM41.248 180.37V178.95H38.078V177.78L41.058 173.27H42.678V177.71H43.518V178.95H42.678V180.37H41.248ZM39.418 177.71H41.248V175.06L39.418 177.71Z" fill="black"/>
</g>
<path id="field" d="M120.568 380.765L231.988 491.195H270.614L381.539 380.765L499.397 200.016L247.52 -51.8604L-0.766357 196.835L120.568 380.765Z" fill="#0033A0" fill-opacity="0.1" fill="none" stroke="#0033A0" stroke-width="1.002"/>
</g>
<defs>
<clipPath id="clip0_86_1557">
<rect width="500" height="469.94" fill="white"/>
</clipPath>
</defs>
</svg>
