<svg width="500" height="470" viewBox="0 0 500 470" fill="none" xmlns="http://www.w3.org/2000/svg">
<g id="shibe-park-1949" clip-path="url(#clip0_85_1443)">
<g id="Infield">
<path d="M339.98 327.826C339.453 325.726 322.032 258.538 250.83 258.538C180.238 258.538 162.505 324.598 161.697 327.759C161.677 327.836 161.668 327.876 161.668 327.876L236.504 402.712C235.305 404.972 234.623 407.548 234.623 410.298C234.623 419.245 241.873 426.504 250.83 426.504C259.778 426.504 267.037 419.245 267.037 410.298C267.037 407.548 266.356 404.972 265.157 402.717L260.695 397.434C257.96 395.338 254.544 394.086 250.83 394.086C247.117 394.086 243.701 395.338 240.971 397.43L197.7 354.16C201.448 350.412 201.448 344.337 197.7 340.589C197.698 340.586 197.694 340.584 197.691 340.581L244.055 294.097C247.8 297.833 253.861 297.833 257.606 294.097L303.431 340.043C303.431 340.043 303.427 340.045 303.424 340.048C299.677 343.795 300.275 350.359 304.022 354.107L260.695 397.434L265.157 402.717L339.98 327.826Z" fill="#D2D2D2"/>
<path d="M259.91 345.766C259.91 350.781 255.845 354.846 250.83 354.846C245.815 354.846 241.75 350.781 241.75 345.766C241.75 340.751 245.815 336.685 250.83 336.685C255.845 336.685 259.91 340.751 259.91 345.766Z" fill="#D2D2D2"/>
</g>
<g id="Guides">
<g id="Home">
<circle id="Ellipse 1" cx="250.827" cy="410.48" r="16.0848" fill="#D2D2D2"/>
<circle id="Ellipse 1_2" cx="250.827" cy="410.481" r="1.62919" fill="black"/>
</g>
<g id="First">
<circle id="Ellipse 1_3" cx="311.125" cy="346.592" r="10.1878" fill="#D2D2D2"/>
<circle id="Ellipse 1_4" cx="311.125" cy="346.592" r="1.0319" fill="black"/>
</g>
<g id="Third">
<circle id="Ellipse 1_5" cx="190.34" cy="346.592" r="10.1878" fill="#D2D2D2"/>
<circle id="Ellipse 1_6" cx="190.34" cy="346.592" r="1.0319" fill="black"/>
</g>
<g id="Second">
<circle id="Ellipse 1_7" cx="250.827" cy="286.731" r="10.1878" fill="#D2D2D2"/>
<circle id="Ellipse 1_8" cx="250.827" cy="286.731" r="1.0319" fill="black"/>
</g>
<g id="Mound">
<circle id="Ellipse 1_9" cx="250.827" cy="345.989" r="9.08365" fill="#D2D2D2"/>
<circle id="Ellipse 1_10" cx="250.827" cy="345.989" r="0.920062" fill="black"/>
</g>
</g>
<path id="Foul Lines" d="M478.62 182.873L250.976 410.516L22.178 181.718" fill="none" stroke="black" stroke-width="1.002"/>
<g id="Measurements">
<path id="329" d="M456.898 183.472C455.268 183.472 454.458 182.642 454.388 181.352L455.828 181.282C455.888 181.972 456.348 182.212 456.928 182.212C457.558 182.212 458.048 181.912 458.048 181.212C458.048 180.532 457.598 180.172 456.858 180.172H456.328V179.042H456.858C457.418 179.042 457.828 178.792 457.828 178.182C457.828 177.592 457.478 177.302 456.918 177.302C456.298 177.302 455.998 177.612 455.938 178.102L454.498 178.032C454.638 176.822 455.468 176.052 456.928 176.052C458.388 176.052 459.288 176.772 459.288 177.992C459.288 178.762 458.888 179.272 458.138 179.512C459.008 179.762 459.508 180.412 459.508 181.312C459.508 182.652 458.498 183.472 456.898 183.472ZM460.384 183.312C460.384 181.582 460.964 180.572 462.944 179.552C463.674 179.172 464.034 178.892 464.034 178.242C464.034 177.672 463.704 177.312 463.074 177.312C462.354 177.312 462.004 177.732 461.884 178.492L460.414 178.402C460.554 176.952 461.464 176.052 463.094 176.052C464.684 176.052 465.504 176.902 465.504 178.162C465.504 179.302 465.014 179.862 463.614 180.622C462.464 181.242 462.054 181.672 462.014 182.032H465.504V183.312H460.384ZM468.92 176.052C470.65 176.052 471.56 177.222 471.56 179.282C471.56 181.632 470.75 183.472 468.66 183.472C467.26 183.472 466.61 182.712 466.35 181.692L467.79 181.592C467.89 181.952 468.12 182.212 468.66 182.212C469.4 182.212 469.92 181.702 470.08 180.482C469.74 180.782 469.26 181.002 468.63 181.002C467.22 181.002 466.32 180.052 466.32 178.622C466.32 177.042 467.35 176.052 468.92 176.052ZM468.95 177.332C468.2 177.332 467.78 177.772 467.78 178.572C467.78 179.312 468.16 179.792 468.89 179.792C469.63 179.792 470.1 179.302 470.1 178.562C470.1 177.882 469.68 177.332 468.95 177.332Z" fill="black"/>
<path id="334" d="M31.2205 183.667C29.5905 183.667 28.7805 182.837 28.7105 181.547L30.1505 181.477C30.2105 182.167 30.6705 182.407 31.2505 182.407C31.8805 182.407 32.3705 182.107 32.3705 181.407C32.3705 180.727 31.9205 180.367 31.1805 180.367H30.6505V179.237H31.1805C31.7405 179.237 32.1505 178.987 32.1505 178.377C32.1505 177.787 31.8005 177.497 31.2405 177.497C30.6205 177.497 30.3205 177.807 30.2605 178.297L28.8205 178.227C28.9605 177.017 29.7905 176.247 31.2505 176.247C32.7105 176.247 33.6105 176.967 33.6105 178.187C33.6105 178.957 33.2105 179.467 32.4605 179.707C33.3305 179.957 33.8305 180.607 33.8305 181.507C33.8305 182.847 32.8205 183.667 31.2205 183.667ZM37.2166 183.667C35.5866 183.667 34.7766 182.837 34.7066 181.547L36.1466 181.477C36.2066 182.167 36.6666 182.407 37.2466 182.407C37.8766 182.407 38.3666 182.107 38.3666 181.407C38.3666 180.727 37.9166 180.367 37.1766 180.367H36.6466V179.237H37.1766C37.7366 179.237 38.1466 178.987 38.1466 178.377C38.1466 177.787 37.7966 177.497 37.2366 177.497C36.6166 177.497 36.3166 177.807 36.2566 178.297L34.8166 178.227C34.9566 177.017 35.7866 176.247 37.2466 176.247C38.7066 176.247 39.6066 176.967 39.6066 178.187C39.6066 178.957 39.2066 179.467 38.4566 179.707C39.3266 179.957 39.8266 180.607 39.8266 181.507C39.8266 182.847 38.8166 183.667 37.2166 183.667ZM43.7127 183.507V182.087H40.5427V180.917L43.5227 176.407H45.1427V180.847H45.9827V182.087H45.1427V183.507H43.7127ZM41.8827 180.847H43.7127V178.197L41.8827 180.847Z" fill="black"/>
</g>
<path id="field" d="M123.78 384.077L231.988 492.195H270.614L378.245 383.412L370.549 376.214C368.245 374.058 368.004 370.486 369.998 368.04L429.951 278.471V250.144L478.418 201.477V179.585L251.337 -47.9912L22.2622 180.751V201.477L71.4058 250.144V279.421L132.085 367.615C133.632 369.864 133.466 372.875 131.68 374.94L123.78 384.077Z" fill="#E81828" fill-opacity="0.1" fill="none" stroke="#E81828" stroke-width="1.002"/>
</g>
<defs>
<clipPath id="clip0_85_1443">
<rect width="500" height="469.94" fill="white"/>
</clipPath>
</defs>
</svg>
