<svg width="500" height="470" viewBox="0 0 500 470" fill="none" xmlns="http://www.w3.org/2000/svg">
<g id="shibe-park-1930" clip-path="url(#clip0_85_1362)">
<g id="Infield">
<path d="M339.98 327.826C339.453 325.726 322.032 258.538 250.83 258.538C180.238 258.538 162.505 324.598 161.697 327.759C161.677 327.836 161.668 327.876 161.668 327.876L236.504 402.712C235.305 404.972 234.623 407.548 234.623 410.298C234.623 419.245 241.873 426.504 250.83 426.504C259.778 426.504 267.037 419.245 267.037 410.298C267.037 407.548 266.356 404.972 265.157 402.717L260.695 397.434C257.96 395.338 254.544 394.086 250.83 394.086C247.117 394.086 243.701 395.338 240.971 397.43L197.7 354.16C201.448 350.412 201.448 344.337 197.7 340.589C197.698 340.586 197.694 340.584 197.691 340.581L244.055 294.097C247.8 297.833 253.861 297.833 257.606 294.097L303.431 340.043C303.431 340.043 303.427 340.045 303.424 340.048C299.677 343.795 300.275 350.359 304.022 354.107L260.695 397.434L265.157 402.717L339.98 327.826Z" fill="#D2D2D2"/>
<path d="M259.91 345.766C259.91 350.781 255.845 354.846 250.83 354.846C245.815 354.846 241.75 350.781 241.75 345.766C241.75 340.751 245.815 336.685 250.83 336.685C255.845 336.685 259.91 340.751 259.91 345.766Z" fill="#D2D2D2"/>
</g>
<g id="Guides">
<g id="Home">
<circle id="Ellipse 1" cx="250.827" cy="410.48" r="16.0848" fill="#D2D2D2"/>
<circle id="Ellipse 1_2" cx="250.827" cy="410.481" r="1.62919" fill="black"/>
</g>
<g id="First">
<circle id="Ellipse 1_3" cx="311.125" cy="346.592" r="10.1878" fill="#D2D2D2"/>
<circle id="Ellipse 1_4" cx="311.125" cy="346.592" r="1.0319" fill="black"/>
</g>
<g id="Third">
<circle id="Ellipse 1_5" cx="190.34" cy="346.592" r="10.1878" fill="#D2D2D2"/>
<circle id="Ellipse 1_6" cx="190.34" cy="346.592" r="1.0319" fill="black"/>
</g>
<g id="Second">
<circle id="Ellipse 1_7" cx="250.827" cy="286.731" r="10.1878" fill="#D2D2D2"/>
<circle id="Ellipse 1_8" cx="250.827" cy="286.731" r="1.0319" fill="black"/>
</g>
<g id="Mound">
<circle id="Ellipse 1_9" cx="250.827" cy="345.989" r="9.08365" fill="#D2D2D2"/>
<circle id="Ellipse 1_10" cx="250.827" cy="345.989" r="0.920062" fill="black"/>
</g>
</g>
<path id="Foul Lines" d="M478.305 183.187L250.976 410.516L23.2433 182.784" fill="none" stroke="black" stroke-width="1.002"/>
<g id="Measurements">
<path id="331" d="M455.955 185.47C454.325 185.47 453.515 184.64 453.445 183.35L454.885 183.28C454.945 183.97 455.405 184.21 455.985 184.21C456.615 184.21 457.105 183.91 457.105 183.21C457.105 182.53 456.655 182.17 455.915 182.17H455.385V181.04H455.915C456.475 181.04 456.885 180.79 456.885 180.18C456.885 179.59 456.535 179.3 455.975 179.3C455.355 179.3 455.055 179.61 454.995 180.1L453.555 180.03C453.695 178.82 454.525 178.05 455.985 178.05C457.445 178.05 458.345 178.77 458.345 179.99C458.345 180.76 457.945 181.27 457.195 181.51C458.065 181.76 458.565 182.41 458.565 183.31C458.565 184.65 457.555 185.47 455.955 185.47ZM461.951 185.47C460.321 185.47 459.511 184.64 459.441 183.35L460.881 183.28C460.941 183.97 461.401 184.21 461.981 184.21C462.611 184.21 463.101 183.91 463.101 183.21C463.101 182.53 462.651 182.17 461.911 182.17H461.381V181.04H461.911C462.471 181.04 462.881 180.79 462.881 180.18C462.881 179.59 462.531 179.3 461.971 179.3C461.351 179.3 461.051 179.61 460.991 180.1L459.551 180.03C459.691 178.82 460.521 178.05 461.981 178.05C463.441 178.05 464.341 178.77 464.341 179.99C464.341 180.76 463.941 181.27 463.191 181.51C464.061 181.76 464.561 182.41 464.561 183.31C464.561 184.65 463.551 185.47 461.951 185.47ZM465.477 185.31V184.03H467.517V180.65H465.777V179.47H466.557C467.357 179.47 467.697 179.13 467.697 178.21H468.937V184.03H470.517V185.31H465.477Z" fill="black"/>
<path id="334" d="M33.6756 184.599C32.0456 184.599 31.2356 183.769 31.1656 182.479L32.6056 182.409C32.6656 183.099 33.1256 183.339 33.7056 183.339C34.3356 183.339 34.8256 183.039 34.8256 182.339C34.8256 181.659 34.3756 181.299 33.6356 181.299H33.1056V180.169H33.6356C34.1956 180.169 34.6056 179.919 34.6056 179.309C34.6056 178.719 34.2556 178.429 33.6956 178.429C33.0756 178.429 32.7756 178.739 32.7156 179.229L31.2756 179.159C31.4156 177.949 32.2456 177.179 33.7056 177.179C35.1656 177.179 36.0656 177.899 36.0656 179.119C36.0656 179.889 35.6656 180.399 34.9156 180.639C35.7856 180.889 36.2856 181.539 36.2856 182.439C36.2856 183.779 35.2756 184.599 33.6756 184.599ZM39.6717 184.599C38.0417 184.599 37.2317 183.769 37.1617 182.479L38.6017 182.409C38.6617 183.099 39.1217 183.339 39.7017 183.339C40.3317 183.339 40.8217 183.039 40.8217 182.339C40.8217 181.659 40.3717 181.299 39.6317 181.299H39.1017V180.169H39.6317C40.1917 180.169 40.6017 179.919 40.6017 179.309C40.6017 178.719 40.2517 178.429 39.6917 178.429C39.0717 178.429 38.7717 178.739 38.7117 179.229L37.2717 179.159C37.4117 177.949 38.2417 177.179 39.7017 177.179C41.1617 177.179 42.0617 177.899 42.0617 179.119C42.0617 179.889 41.6617 180.399 40.9117 180.639C41.7817 180.889 42.2817 181.539 42.2817 182.439C42.2817 183.779 41.2717 184.599 39.6717 184.599ZM46.1678 184.439V183.019H42.9978V181.849L45.9778 177.339H47.5978V181.779H48.4378V183.019H47.5978V184.439H46.1678ZM44.3378 181.779H46.1678V179.129L44.3378 181.779Z" fill="black"/>
</g>
<path id="field" d="M117.469 380.765L231.988 495.195H270.614L380.991 383.636L478.418 238.115V182.585L251.337 -44.9912L22.2622 183.751V236.466L117.469 380.765Z" fill="#E81828" fill-opacity="0.1" fill="none" stroke="#E81828" stroke-width="1.002"/>
</g>
<defs>
<clipPath id="clip0_85_1362">
<rect width="500" height="469.94" fill="white"/>
</clipPath>
</defs>
</svg>
