<svg width="500" height="470" viewBox="0 0 500 470" fill="none" xmlns="http://www.w3.org/2000/svg">
<g id="shibe-park-1909" clip-path="url(#clip0_86_1503)">
<g id="Infield">
<path d="M339.98 327.826C339.453 325.726 322.032 258.538 250.83 258.538C180.238 258.538 162.505 324.598 161.697 327.759C161.677 327.836 161.668 327.876 161.668 327.876L236.504 402.712C235.305 404.972 234.623 407.548 234.623 410.298C234.623 419.245 241.873 426.504 250.83 426.504C259.778 426.504 267.037 419.245 267.037 410.298C267.037 407.548 266.356 404.972 265.156 402.717L260.695 397.434C257.96 395.338 254.544 394.086 250.83 394.086C247.117 394.086 243.701 395.338 240.971 397.43L197.7 354.16C201.448 350.412 201.448 344.337 197.7 340.589C197.698 340.586 197.694 340.584 197.691 340.581L244.055 294.097C247.8 297.833 253.861 297.833 257.606 294.097L303.431 340.043C303.431 340.043 303.427 340.045 303.424 340.048C299.677 343.795 300.275 350.359 304.022 354.107L260.695 397.434L265.156 402.717L339.98 327.826Z" fill="#D2D2D2"/>
<path d="M259.91 345.766C259.91 350.781 255.845 354.846 250.83 354.846C245.815 354.846 241.75 350.781 241.75 345.766C241.75 340.751 245.815 336.685 250.83 336.685C255.845 336.685 259.91 340.751 259.91 345.766Z" fill="#D2D2D2"/>
</g>
<g id="Guides">
<g id="Home">
<circle id="Ellipse 1" cx="250.827" cy="410.48" r="16.0848" fill="#D2D2D2"/>
<circle id="Ellipse 1_2" cx="250.827" cy="410.481" r="1.62919" fill="black"/>
</g>
<g id="First">
<circle id="Ellipse 1_3" cx="311.125" cy="346.592" r="10.1878" fill="#D2D2D2"/>
<circle id="Ellipse 1_4" cx="311.125" cy="346.592" r="1.0319" fill="black"/>
</g>
<g id="Third">
<circle id="Ellipse 1_5" cx="190.34" cy="346.592" r="10.1878" fill="#D2D2D2"/>
<circle id="Ellipse 1_6" cx="190.34" cy="346.592" r="1.0319" fill="black"/>
</g>
<g id="Second">
<circle id="Ellipse 1_7" cx="250.827" cy="286.731" r="10.1878" fill="#D2D2D2"/>
<circle id="Ellipse 1_8" cx="250.827" cy="286.731" r="1.0319" fill="black"/>
</g>
<g id="Mound">
<circle id="Ellipse 1_9" cx="250.827" cy="345.989" r="9.08365" fill="#D2D2D2"/>
<circle id="Ellipse 1_10" cx="250.827" cy="345.989" r="0.920062" fill="black"/>
</g>
</g>
<path id="Foul Lines" d="M484.528 176.963L250.976 410.516L-9.23043 150.31" fill="none" stroke="black" stroke-width="1.002"/>
<g id="Measurements">
<path id="340" d="M457.938 181.098C456.308 181.098 455.498 180.268 455.428 178.978L456.868 178.908C456.928 179.598 457.388 179.838 457.968 179.838C458.598 179.838 459.088 179.538 459.088 178.838C459.088 178.158 458.638 177.798 457.898 177.798H457.368V176.668H457.898C458.458 176.668 458.868 176.418 458.868 175.808C458.868 175.218 458.518 174.928 457.958 174.928C457.338 174.928 457.038 175.238 456.978 175.728L455.538 175.658C455.678 174.448 456.508 173.678 457.968 173.678C459.428 173.678 460.328 174.398 460.328 175.618C460.328 176.388 459.928 176.898 459.178 177.138C460.048 177.388 460.548 178.038 460.548 178.938C460.548 180.278 459.538 181.098 457.938 181.098ZM464.434 180.938V179.518H461.264V178.348L464.244 173.838H465.864V178.278H466.704V179.518H465.864V180.938H464.434ZM462.604 178.278H464.434V175.628L462.604 178.278ZM469.98 181.098C468.38 181.098 467.42 179.688 467.42 177.398C467.42 175.098 468.38 173.678 469.98 173.678C471.58 173.678 472.54 175.098 472.54 177.398C472.54 179.688 471.58 181.098 469.98 181.098ZM468.88 177.398C468.88 177.828 468.91 178.198 468.97 178.508L470.66 175.318C470.48 175.068 470.25 174.938 469.98 174.938C469.29 174.938 468.88 175.758 468.88 177.398ZM469.98 179.838C470.67 179.838 471.08 179.028 471.08 177.398C471.08 176.968 471.05 176.588 470.99 176.268L469.3 179.458C469.48 179.708 469.71 179.838 469.98 179.838Z" fill="black"/>
<path id="378" d="M2.95586 153.97C1.32586 153.97 0.515859 153.14 0.445859 151.85L1.88586 151.78C1.94586 152.47 2.40586 152.71 2.98586 152.71C3.61586 152.71 4.10586 152.41 4.10586 151.71C4.10586 151.03 3.65586 150.67 2.91586 150.67H2.38586V149.54H2.91586C3.47586 149.54 3.88586 149.29 3.88586 148.68C3.88586 148.09 3.53586 147.8 2.97586 147.8C2.35586 147.8 2.05586 148.11 1.99586 148.6L0.555859 148.53C0.695859 147.32 1.52586 146.55 2.98586 146.55C4.44586 146.55 5.34586 147.27 5.34586 148.49C5.34586 149.26 4.94586 149.77 4.19586 150.01C5.06586 150.26 5.56586 150.91 5.56586 151.81C5.56586 153.15 4.55586 153.97 2.95586 153.97ZM7.67195 153.81C7.67195 151.66 8.57195 149.7 10.042 147.99H6.54195V146.71H11.462V147.92C9.83195 149.78 9.16195 151.37 9.16195 153.81H7.67195ZM14.998 153.97C13.428 153.97 12.378 153.25 12.378 151.87C12.378 150.94 12.918 150.28 13.788 150C13.118 149.74 12.668 149.25 12.668 148.51C12.668 147.37 13.598 146.55 14.998 146.55C16.398 146.55 17.328 147.37 17.328 148.51C17.328 149.25 16.878 149.74 16.198 150C17.078 150.28 17.618 150.94 17.618 151.87C17.618 153.25 16.568 153.97 14.998 153.97ZM14.998 149.43C15.508 149.43 15.858 149.16 15.858 148.6C15.858 148.1 15.518 147.81 14.998 147.81C14.478 147.81 14.138 148.1 14.138 148.6C14.138 149.16 14.488 149.43 14.998 149.43ZM14.998 152.71C15.638 152.71 16.158 152.43 16.158 151.73C16.158 151.06 15.728 150.64 14.998 150.64C14.268 150.64 13.838 151.06 13.838 151.73C13.838 152.43 14.358 152.71 14.998 152.71Z" fill="black"/>
</g>
<path id="field" d="M120.568 372.765L231.988 483.195H270.614L381.539 372.765L499.397 192.017L224.064 -83.3154L-19.5746 160.323L120.568 372.765Z" fill="#0033A0" fill-opacity="0.1" fill="none" stroke="#0033A0" stroke-width="1.002"/>
</g>
<defs>
<clipPath id="clip0_86_1503">
<rect width="500" height="469.94" fill="white"/>
</clipPath>
</defs>
</svg>
