<svg width="500" height="470" viewBox="0 0 500 470" fill="none" xmlns="http://www.w3.org/2000/svg">
<g id="shibe-park-1956" clip-path="url(#clip0_85_1470)">
<g id="Infield">
<path d="M339.98 327.826C339.453 325.726 322.032 258.538 250.83 258.538C180.238 258.538 162.505 324.598 161.697 327.759C161.677 327.836 161.668 327.876 161.668 327.876L236.504 402.712C235.305 404.972 234.623 407.548 234.623 410.298C234.623 419.245 241.873 426.504 250.83 426.504C259.778 426.504 267.037 419.245 267.037 410.298C267.037 407.548 266.356 404.972 265.157 402.717L260.695 397.434C257.96 395.338 254.544 394.086 250.83 394.086C247.117 394.086 243.701 395.338 240.971 397.43L197.7 354.16C201.448 350.412 201.448 344.337 197.7 340.589C197.698 340.586 197.694 340.584 197.691 340.581L244.055 294.097C247.8 297.833 253.861 297.833 257.606 294.097L303.431 340.043C303.431 340.043 303.427 340.045 303.424 340.048C299.677 343.795 300.275 350.359 304.022 354.107L260.695 397.434L265.157 402.717L339.98 327.826Z" fill="#D2D2D2"/>
<path d="M259.91 345.766C259.91 350.781 255.845 354.846 250.83 354.846C245.815 354.846 241.75 350.781 241.75 345.766C241.75 340.751 245.815 336.685 250.83 336.685C255.845 336.685 259.91 340.751 259.91 345.766Z" fill="#D2D2D2"/>
</g>
<g id="Guides">
<g id="Home">
<circle id="Ellipse 1" cx="250.827" cy="410.48" r="16.0848" fill="#D2D2D2"/>
<circle id="Ellipse 1_2" cx="250.827" cy="410.481" r="1.62919" fill="black"/>
</g>
<g id="First">
<circle id="Ellipse 1_3" cx="311.125" cy="346.592" r="10.1878" fill="#D2D2D2"/>
<circle id="Ellipse 1_4" cx="311.125" cy="346.592" r="1.0319" fill="black"/>
</g>
<g id="Third">
<circle id="Ellipse 1_5" cx="190.34" cy="346.592" r="10.1878" fill="#D2D2D2"/>
<circle id="Ellipse 1_6" cx="190.34" cy="346.592" r="1.0319" fill="black"/>
</g>
<g id="Second">
<circle id="Ellipse 1_7" cx="250.827" cy="286.731" r="10.1878" fill="#D2D2D2"/>
<circle id="Ellipse 1_8" cx="250.827" cy="286.731" r="1.0319" fill="black"/>
</g>
<g id="Mound">
<circle id="Ellipse 1_9" cx="250.827" cy="345.989" r="9.08365" fill="#D2D2D2"/>
<circle id="Ellipse 1_10" cx="250.827" cy="345.989" r="0.920062" fill="black"/>
</g>
</g>
<path id="Foul Lines" d="M478.62 182.872L250.976 410.516L22.3844 181.924" fill="none" stroke="black" stroke-width="1.002"/>
<g id="Measurements">
<path id="329" d="M455.955 185.47C454.325 185.47 453.515 184.64 453.445 183.35L454.885 183.28C454.945 183.97 455.405 184.21 455.985 184.21C456.615 184.21 457.105 183.91 457.105 183.21C457.105 182.53 456.655 182.17 455.915 182.17H455.385V181.04H455.915C456.475 181.04 456.885 180.79 456.885 180.18C456.885 179.59 456.535 179.3 455.975 179.3C455.355 179.3 455.055 179.61 454.995 180.1L453.555 180.03C453.695 178.82 454.525 178.05 455.985 178.05C457.445 178.05 458.345 178.77 458.345 179.99C458.345 180.76 457.945 181.27 457.195 181.51C458.065 181.76 458.565 182.41 458.565 183.31C458.565 184.65 457.555 185.47 455.955 185.47ZM459.441 185.31C459.441 183.58 460.021 182.57 462.001 181.55C462.731 181.17 463.091 180.89 463.091 180.24C463.091 179.67 462.761 179.31 462.131 179.31C461.411 179.31 461.061 179.73 460.941 180.49L459.471 180.4C459.611 178.95 460.521 178.05 462.151 178.05C463.741 178.05 464.561 178.9 464.561 180.16C464.561 181.3 464.071 181.86 462.671 182.62C461.521 183.24 461.111 183.67 461.071 184.03H464.561V185.31H459.441ZM467.977 178.05C469.707 178.05 470.617 179.22 470.617 181.28C470.617 183.63 469.807 185.47 467.717 185.47C466.317 185.47 465.667 184.71 465.407 183.69L466.847 183.59C466.947 183.95 467.177 184.21 467.717 184.21C468.457 184.21 468.977 183.7 469.137 182.48C468.797 182.78 468.317 183 467.687 183C466.277 183 465.377 182.05 465.377 180.62C465.377 179.04 466.407 178.05 467.977 178.05ZM468.007 179.33C467.257 179.33 466.837 179.77 466.837 180.57C466.837 181.31 467.217 181.79 467.947 181.79C468.687 181.79 469.157 181.3 469.157 180.56C469.157 179.88 468.737 179.33 468.007 179.33Z" fill="black"/>
<path id="334" d="M31.4266 183.47C29.7966 183.47 28.9866 182.64 28.9166 181.35L30.3566 181.28C30.4166 181.97 30.8766 182.21 31.4566 182.21C32.0866 182.21 32.5766 181.91 32.5766 181.21C32.5766 180.53 32.1266 180.17 31.3866 180.17H30.8566V179.04H31.3866C31.9466 179.04 32.3566 178.79 32.3566 178.18C32.3566 177.59 32.0066 177.3 31.4466 177.3C30.8266 177.3 30.5266 177.61 30.4666 178.1L29.0266 178.03C29.1666 176.82 29.9966 176.05 31.4566 176.05C32.9166 176.05 33.8166 176.77 33.8166 177.99C33.8166 178.76 33.4166 179.27 32.6666 179.51C33.5366 179.76 34.0366 180.41 34.0366 181.31C34.0366 182.65 33.0266 183.47 31.4266 183.47ZM37.4227 183.47C35.7927 183.47 34.9827 182.64 34.9127 181.35L36.3527 181.28C36.4127 181.97 36.8727 182.21 37.4527 182.21C38.0827 182.21 38.5727 181.91 38.5727 181.21C38.5727 180.53 38.1227 180.17 37.3827 180.17H36.8527V179.04H37.3827C37.9427 179.04 38.3527 178.79 38.3527 178.18C38.3527 177.59 38.0027 177.3 37.4427 177.3C36.8227 177.3 36.5227 177.61 36.4627 178.1L35.0227 178.03C35.1627 176.82 35.9927 176.05 37.4527 176.05C38.9127 176.05 39.8127 176.77 39.8127 177.99C39.8127 178.76 39.4127 179.27 38.6627 179.51C39.5327 179.76 40.0327 180.41 40.0327 181.31C40.0327 182.65 39.0227 183.47 37.4227 183.47ZM43.9188 183.31V181.89H40.7488V180.72L43.7288 176.21H45.3488V180.65H46.1888V181.89H45.3488V183.31H43.9188ZM42.0888 180.65H43.9188V178L42.0888 180.65Z" fill="black"/>
</g>
<path id="400" d="M154.224 29.4229V28.0029H151.054V26.8329L154.034 22.3229H155.654V26.7629H156.494V28.0029H155.654V29.4229H154.224ZM152.394 26.7629H154.224V24.1129L152.394 26.7629ZM159.77 29.5829C158.17 29.5829 157.21 28.1729 157.21 25.8829C157.21 23.5829 158.17 22.1629 159.77 22.1629C161.37 22.1629 162.33 23.5829 162.33 25.8829C162.33 28.1729 161.37 29.5829 159.77 29.5829ZM158.67 25.8829C158.67 26.3129 158.7 26.6829 158.76 26.9929L160.45 23.8029C160.27 23.5529 160.04 23.4229 159.77 23.4229C159.08 23.4229 158.67 24.2429 158.67 25.8829ZM159.77 28.3229C160.46 28.3229 160.87 27.5129 160.87 25.8829C160.87 25.4529 160.84 25.0729 160.78 24.7529L159.09 27.9429C159.27 28.1929 159.5 28.3229 159.77 28.3229ZM165.766 29.5829C164.166 29.5829 163.206 28.1729 163.206 25.8829C163.206 23.5829 164.166 22.1629 165.766 22.1629C167.366 22.1629 168.326 23.5829 168.326 25.8829C168.326 28.1729 167.366 29.5829 165.766 29.5829ZM164.666 25.8829C164.666 26.3129 164.696 26.6829 164.756 26.9929L166.446 23.8029C166.266 23.5529 166.036 23.4229 165.766 23.4229C165.076 23.4229 164.666 24.2429 164.666 25.8829ZM165.766 28.3229C166.456 28.3229 166.866 27.5129 166.866 25.8829C166.866 25.4529 166.836 25.0729 166.776 24.7529L165.086 27.9429C165.266 28.1929 165.496 28.3229 165.766 28.3229Z" fill="black"/>
<path id="405" d="M334.436 29.4229V28.0029H331.266V26.8329L334.246 22.3229H335.866V26.7629H336.706V28.0029H335.866V29.4229H334.436ZM332.606 26.7629H334.436V24.1129L332.606 26.7629ZM339.982 29.5829C338.382 29.5829 337.422 28.1729 337.422 25.8829C337.422 23.5829 338.382 22.1629 339.982 22.1629C341.582 22.1629 342.542 23.5829 342.542 25.8829C342.542 28.1729 341.582 29.5829 339.982 29.5829ZM338.882 25.8829C338.882 26.3129 338.912 26.6829 338.972 26.9929L340.662 23.8029C340.482 23.5529 340.252 23.4229 339.982 23.4229C339.292 23.4229 338.882 24.2429 338.882 25.8829ZM339.982 28.3229C340.672 28.3229 341.082 27.5129 341.082 25.8829C341.082 25.4529 341.052 25.0729 340.992 24.7529L339.302 27.9429C339.482 28.1929 339.712 28.3229 339.982 28.3229ZM345.968 29.5829C344.468 29.5829 343.558 28.6929 343.458 27.5229L344.918 27.4429C345.008 28.0229 345.358 28.3229 345.968 28.3229C346.628 28.3229 347.038 27.9029 347.038 27.0929C347.038 26.3029 346.618 25.8429 345.978 25.8429C345.538 25.8429 345.168 26.1029 345.028 26.4629L343.558 26.3929L343.978 22.3229H348.168V23.6029H345.148L344.968 25.1329C345.298 24.8529 345.738 24.6929 346.218 24.6929C347.628 24.6929 348.498 25.7129 348.498 27.1029C348.498 28.5729 347.498 29.5829 345.968 29.5829Z" fill="black"/>
<path id="field" d="M127.835 378.994L233.913 486.196H267.123L373.692 378.86L370.549 376.215C368.245 374.059 368.004 370.486 369.998 368.04L429.951 278.471V250.145L478.418 201.477V179.585L269.9 -29.3877H232.707L22.2622 180.751V201.477L71.4058 250.145V279.422L132.085 367.615C133.632 369.865 133.466 372.875 131.68 374.941L127.835 378.994Z" fill="#E81828" fill-opacity="0.1" fill="none" stroke="#E81828" stroke-width="1.002"/>
</g>
<defs>
<clipPath id="clip0_85_1470">
<rect width="500" height="469.94" fill="white"/>
</clipPath>
</defs>
</svg>
