<svg width="500" height="470" viewBox="0 0 500 470" fill="none" xmlns="http://www.w3.org/2000/svg">
<g id="shibe-park-1913" clip-path="url(#clip0_86_1530)">
<g id="Infield">
<path d="M339.98 327.826C339.453 325.726 322.032 258.538 250.83 258.538C180.238 258.538 162.505 324.598 161.697 327.759C161.677 327.836 161.668 327.876 161.668 327.876L236.504 402.712C235.305 404.972 234.623 407.548 234.623 410.298C234.623 419.245 241.873 426.504 250.83 426.504C259.778 426.504 267.037 419.245 267.037 410.298C267.037 407.548 266.356 404.972 265.156 402.717L260.695 397.434C257.96 395.338 254.544 394.086 250.83 394.086C247.117 394.086 243.701 395.338 240.971 397.43L197.7 354.16C201.448 350.412 201.448 344.337 197.7 340.589C197.698 340.586 197.694 340.584 197.691 340.581L244.055 294.097C247.8 297.833 253.861 297.833 257.606 294.097L303.431 340.043C303.431 340.043 303.427 340.045 303.424 340.048C299.677 343.795 300.275 350.359 304.022 354.107L260.695 397.434L265.156 402.717L339.98 327.826Z" fill="#D2D2D2"/>
<path d="M259.91 345.766C259.91 350.781 255.845 354.846 250.83 354.846C245.815 354.846 241.75 350.781 241.75 345.766C241.75 340.751 245.815 336.685 250.83 336.685C255.845 336.685 259.91 340.751 259.91 345.766Z" fill="#D2D2D2"/>
</g>
<g id="Guides">
<g id="Home">
<circle id="Ellipse 1" cx="250.827" cy="410.48" r="16.0848" fill="#D2D2D2"/>
<circle id="Ellipse 1_2" cx="250.827" cy="410.481" r="1.62919" fill="black"/>
</g>
<g id="First">
<circle id="Ellipse 1_3" cx="311.125" cy="346.592" r="10.1878" fill="#D2D2D2"/>
<circle id="Ellipse 1_4" cx="311.125" cy="346.592" r="1.0319" fill="black"/>
</g>
<g id="Third">
<circle id="Ellipse 1_5" cx="190.34" cy="346.592" r="10.1878" fill="#D2D2D2"/>
<circle id="Ellipse 1_6" cx="190.34" cy="346.592" r="1.0319" fill="black"/>
</g>
<g id="Second">
<circle id="Ellipse 1_7" cx="250.827" cy="286.731" r="10.1878" fill="#D2D2D2"/>
<circle id="Ellipse 1_8" cx="250.827" cy="286.731" r="1.0319" fill="black"/>
</g>
<g id="Mound">
<circle id="Ellipse 1_9" cx="250.827" cy="345.989" r="9.08365" fill="#D2D2D2"/>
<circle id="Ellipse 1_10" cx="250.827" cy="345.989" r="0.920062" fill="black"/>
</g>
</g>
<path id="Foul Lines" d="M480.325 181.166L250.975 410.516L18.4876 178.028" fill="none" stroke="black" stroke-width="1.002"/>
<g id="Measurements">
<path id="331" d="M457.938 182.098C456.308 182.098 455.498 181.268 455.428 179.978L456.868 179.908C456.928 180.598 457.388 180.838 457.968 180.838C458.598 180.838 459.088 180.538 459.088 179.838C459.088 179.158 458.638 178.798 457.898 178.798H457.368V177.668H457.898C458.458 177.668 458.868 177.418 458.868 176.808C458.868 176.218 458.518 175.928 457.958 175.928C457.338 175.928 457.038 176.238 456.978 176.728L455.538 176.658C455.678 175.448 456.508 174.678 457.968 174.678C459.428 174.678 460.328 175.398 460.328 176.618C460.328 177.388 459.928 177.898 459.178 178.138C460.048 178.388 460.548 179.038 460.548 179.938C460.548 181.278 459.538 182.098 457.938 182.098ZM463.934 182.098C462.304 182.098 461.494 181.268 461.424 179.978L462.864 179.908C462.924 180.598 463.384 180.838 463.964 180.838C464.594 180.838 465.084 180.538 465.084 179.838C465.084 179.158 464.634 178.798 463.894 178.798H463.364V177.668H463.894C464.454 177.668 464.864 177.418 464.864 176.808C464.864 176.218 464.514 175.928 463.954 175.928C463.334 175.928 463.034 176.238 462.974 176.728L461.534 176.658C461.674 175.448 462.504 174.678 463.964 174.678C465.424 174.678 466.324 175.398 466.324 176.618C466.324 177.388 465.924 177.898 465.174 178.138C466.044 178.388 466.544 179.038 466.544 179.938C466.544 181.278 465.534 182.098 463.934 182.098ZM467.46 181.938V180.658H469.5V177.278H467.76V176.098H468.54C469.34 176.098 469.68 175.758 469.68 174.838H470.92V180.658H472.5V181.938H467.46Z" fill="black"/>
<path id="334" d="M29.1463 179.862C27.5163 179.862 26.7063 179.032 26.6363 177.742L28.0763 177.672C28.1363 178.362 28.5963 178.602 29.1763 178.602C29.8063 178.602 30.2963 178.302 30.2963 177.602C30.2963 176.922 29.8463 176.562 29.1063 176.562H28.5763V175.432H29.1063C29.6663 175.432 30.0763 175.182 30.0763 174.572C30.0763 173.982 29.7263 173.692 29.1663 173.692C28.5463 173.692 28.2463 174.002 28.1863 174.492L26.7463 174.422C26.8863 173.212 27.7163 172.442 29.1763 172.442C30.6363 172.442 31.5363 173.162 31.5363 174.382C31.5363 175.152 31.1363 175.662 30.3863 175.902C31.2563 176.152 31.7563 176.802 31.7563 177.702C31.7563 179.042 30.7463 179.862 29.1463 179.862ZM35.1424 179.862C33.5124 179.862 32.7024 179.032 32.6324 177.742L34.0724 177.672C34.1324 178.362 34.5924 178.602 35.1724 178.602C35.8024 178.602 36.2924 178.302 36.2924 177.602C36.2924 176.922 35.8424 176.562 35.1024 176.562H34.5724V175.432H35.1024C35.6624 175.432 36.0724 175.182 36.0724 174.572C36.0724 173.982 35.7224 173.692 35.1624 173.692C34.5424 173.692 34.2424 174.002 34.1824 174.492L32.7424 174.422C32.8824 173.212 33.7124 172.442 35.1724 172.442C36.6324 172.442 37.5324 173.162 37.5324 174.382C37.5324 175.152 37.1324 175.662 36.3824 175.902C37.2524 176.152 37.7524 176.802 37.7524 177.702C37.7524 179.042 36.7424 179.862 35.1424 179.862ZM41.6385 179.702V178.282H38.4685V177.112L41.4485 172.602H43.0685V177.042H43.9085V178.282H43.0685V179.702H41.6385ZM39.8085 177.042H41.6385V174.392L39.8085 177.042Z" fill="black"/>
</g>
<path id="field" d="M120.568 380.765L231.988 491.195H270.614L381.539 380.765L499.397 200.016L247.52 -51.8604L199.602 -3.94211V20.4431L53.88 166.165H29.9035L-0.766357 196.835L120.568 380.765Z" fill="#0033A0" fill-opacity="0.1" fill="none" stroke="#0033A0" stroke-width="1.002"/>
</g>
<defs>
<clipPath id="clip0_86_1530">
<rect width="500" height="469.94" fill="white"/>
</clipPath>
</defs>
</svg>
