<svg width="500" height="470" viewBox="0 0 500 470" fill="none" xmlns="http://www.w3.org/2000/svg">
<g id="sicks-stadium-1969">
<g id="Infield">
<path d="M339.98 327.765C339.453 325.666 322.032 258.478 250.83 258.478C180.238 258.478 162.505 324.537 161.697 327.698C161.677 327.776 161.668 327.816 161.668 327.816L236.504 402.652C235.305 404.911 234.623 407.488 234.623 410.237C234.623 419.185 241.873 426.444 250.83 426.444C259.778 426.444 267.037 419.185 267.037 410.237C267.037 407.488 266.356 404.911 265.156 402.657L260.695 397.374C257.96 395.277 254.544 394.025 250.83 394.025C247.117 394.025 243.701 395.277 240.971 397.369L197.7 354.099C201.448 350.352 201.448 344.276 197.7 340.529C197.698 340.526 197.694 340.524 197.691 340.521L244.055 294.037C247.8 297.773 253.861 297.773 257.606 294.037L303.431 339.983C303.431 339.983 303.427 339.985 303.424 339.988C299.677 343.735 300.275 350.299 304.022 354.046L260.695 397.374L265.156 402.657L339.98 327.765Z" fill="#D2D2D2"/>
<path d="M259.91 345.706C259.91 350.72 255.845 354.786 250.83 354.786C245.815 354.786 241.75 350.72 241.75 345.706C241.75 340.691 245.815 336.625 250.83 336.625C255.845 336.625 259.91 340.691 259.91 345.706Z" fill="#D2D2D2"/>
</g>
<g id="Guides">
<g id="Home">
<circle id="Ellipse 1" cx="250.827" cy="410.42" r="16.0848" fill="#D2D2D2"/>
<circle id="Ellipse 1_2" cx="250.827" cy="410.42" r="1.62919" fill="black"/>
</g>
<g id="First">
<circle id="Ellipse 1_3" cx="311.125" cy="346.532" r="10.1878" fill="#D2D2D2"/>
<circle id="Ellipse 1_4" cx="311.125" cy="346.532" r="1.0319" fill="black"/>
</g>
<g id="Third">
<circle id="Ellipse 1_5" cx="190.34" cy="346.532" r="10.1878" fill="#D2D2D2"/>
<circle id="Ellipse 1_6" cx="190.34" cy="346.532" r="1.0319" fill="black"/>
</g>
<g id="Second">
<circle id="Ellipse 1_7" cx="250.827" cy="286.671" r="10.1878" fill="#D2D2D2"/>
<circle id="Ellipse 1_8" cx="250.827" cy="286.671" r="1.0319" fill="black"/>
</g>
<g id="Mound">
<circle id="Ellipse 1_9" cx="250.827" cy="345.929" r="9.08365" fill="#D2D2D2"/>
<circle id="Ellipse 1_10" cx="250.827" cy="345.929" r="0.920062" fill="black"/>
</g>
</g>
<path id="Foul Lines" d="M471.298 190.178L250.96 410.516L36.8335 196.39" fill="none" stroke="black" stroke-width="1.002"/>
<g id="Measurements">
<path id="405" d="M192.758 12.2501V10.8301H189.588V9.66006L192.568 5.15006H194.188V9.59006H195.028V10.8301H194.188V12.2501H192.758ZM190.928 9.59006H192.758V6.94006L190.928 9.59006ZM198.304 12.4101C196.704 12.4101 195.744 11.0001 195.744 8.71006C195.744 6.41006 196.704 4.99006 198.304 4.99006C199.904 4.99006 200.864 6.41006 200.864 8.71006C200.864 11.0001 199.904 12.4101 198.304 12.4101ZM197.204 8.71006C197.204 9.14006 197.234 9.51006 197.294 9.82006L198.984 6.63006C198.804 6.38006 198.574 6.25006 198.304 6.25006C197.614 6.25006 197.204 7.07006 197.204 8.71006ZM198.304 11.1501C198.994 11.1501 199.404 10.3401 199.404 8.71006C199.404 8.28006 199.374 7.90006 199.314 7.58006L197.624 10.7701C197.804 11.0201 198.034 11.1501 198.304 11.1501ZM204.29 12.4101C202.79 12.4101 201.88 11.5201 201.78 10.3501L203.24 10.2701C203.33 10.8501 203.68 11.1501 204.29 11.1501C204.95 11.1501 205.36 10.7301 205.36 9.92006C205.36 9.13006 204.94 8.67006 204.3 8.67006C203.86 8.67006 203.49 8.93006 203.35 9.29006L201.88 9.22006L202.3 5.15006H206.49V6.43006H203.47L203.29 7.96006C203.62 7.68006 204.06 7.52006 204.54 7.52006C205.95 7.52006 206.82 8.54006 206.82 9.93006C206.82 11.4001 205.82 12.4101 204.29 12.4101Z" fill="black"/>
<path id="405_2" d="M295.554 12.2501V10.8301H292.384V9.66006L295.364 5.15006H296.984V9.59006H297.824V10.8301H296.984V12.2501H295.554ZM293.724 9.59006H295.554V6.94006L293.724 9.59006ZM301.101 12.4101C299.501 12.4101 298.541 11.0001 298.541 8.71006C298.541 6.41006 299.501 4.99006 301.101 4.99006C302.701 4.99006 303.661 6.41006 303.661 8.71006C303.661 11.0001 302.701 12.4101 301.101 12.4101ZM300.001 8.71006C300.001 9.14006 300.031 9.51006 300.091 9.82006L301.781 6.63006C301.601 6.38006 301.371 6.25006 301.101 6.25006C300.411 6.25006 300.001 7.07006 300.001 8.71006ZM301.101 11.1501C301.791 11.1501 302.201 10.3401 302.201 8.71006C302.201 8.28006 302.171 7.90006 302.111 7.58006L300.421 10.7701C300.601 11.0201 300.831 11.1501 301.101 11.1501ZM307.087 12.4101C305.587 12.4101 304.677 11.5201 304.577 10.3501L306.037 10.2701C306.127 10.8501 306.477 11.1501 307.087 11.1501C307.747 11.1501 308.157 10.7301 308.157 9.92006C308.157 9.13006 307.737 8.67006 307.097 8.67006C306.657 8.67006 306.287 8.93006 306.147 9.29006L304.677 9.22006L305.097 5.15006H309.287V6.43006H306.267L306.087 7.96006C306.417 7.68006 306.857 7.52006 307.337 7.52006C308.747 7.52006 309.617 8.54006 309.617 9.93006C309.617 11.4001 308.617 12.4101 307.087 12.4101Z" fill="black"/>
<path id="345" d="M382.969 93.2115C381.339 93.2115 380.529 92.3815 380.459 91.0915L381.899 91.0215C381.959 91.7115 382.419 91.9515 382.999 91.9515C383.629 91.9515 384.119 91.6515 384.119 90.9515C384.119 90.2715 383.669 89.9115 382.929 89.9115H382.399V88.7815H382.929C383.489 88.7815 383.899 88.5315 383.899 87.9215C383.899 87.3315 383.549 87.0415 382.989 87.0415C382.369 87.0415 382.069 87.3515 382.009 87.8415L380.569 87.7715C380.709 86.5615 381.539 85.7915 382.999 85.7915C384.459 85.7915 385.359 86.5115 385.359 87.7315C385.359 88.5015 384.959 89.0115 384.209 89.2515C385.079 89.5015 385.579 90.1515 385.579 91.0515C385.579 92.3915 384.569 93.2115 382.969 93.2115ZM389.465 93.0515V91.6315H386.295V90.4615L389.275 85.9515H390.895V90.3915H391.735V91.6315H390.895V93.0515H389.465ZM387.635 90.3915H389.465V87.7415L387.635 90.3915ZM395.001 93.2115C393.501 93.2115 392.591 92.3215 392.491 91.1515L393.951 91.0715C394.041 91.6515 394.391 91.9515 395.001 91.9515C395.661 91.9515 396.071 91.5315 396.071 90.7215C396.071 89.9315 395.651 89.4715 395.011 89.4715C394.571 89.4715 394.201 89.7315 394.061 90.0915L392.591 90.0215L393.011 85.9515H397.201V87.2315H394.181L394.001 88.7615C394.331 88.4815 394.771 88.3215 395.251 88.3215C396.661 88.3215 397.531 89.3415 397.531 90.7315C397.531 92.2015 396.531 93.2115 395.001 93.2115Z" fill="black"/>
<path id="345_2" d="M106.992 93.2115C105.362 93.2115 104.552 92.3815 104.482 91.0915L105.922 91.0215C105.982 91.7115 106.442 91.9515 107.022 91.9515C107.652 91.9515 108.142 91.6515 108.142 90.9515C108.142 90.2715 107.692 89.9115 106.952 89.9115H106.422V88.7815H106.952C107.512 88.7815 107.922 88.5315 107.922 87.9215C107.922 87.3315 107.572 87.0415 107.012 87.0415C106.392 87.0415 106.092 87.3515 106.032 87.8415L104.592 87.7715C104.732 86.5615 105.562 85.7915 107.022 85.7915C108.482 85.7915 109.382 86.5115 109.382 87.7315C109.382 88.5015 108.982 89.0115 108.232 89.2515C109.102 89.5015 109.602 90.1515 109.602 91.0515C109.602 92.3915 108.592 93.2115 106.992 93.2115ZM113.488 93.0515V91.6315H110.318V90.4615L113.298 85.9515H114.918V90.3915H115.758V91.6315H114.918V93.0515H113.488ZM111.658 90.3915H113.488V87.7415L111.658 90.3915ZM119.024 93.2115C117.524 93.2115 116.614 92.3215 116.514 91.1515L117.974 91.0715C118.064 91.6515 118.414 91.9515 119.024 91.9515C119.684 91.9515 120.094 91.5315 120.094 90.7215C120.094 89.9315 119.674 89.4715 119.034 89.4715C118.594 89.4715 118.224 89.7315 118.084 90.0915L116.614 90.0215L117.034 85.9515H121.224V87.2315H118.204L118.024 88.7615C118.354 88.4815 118.794 88.3215 119.274 88.3215C120.684 88.3215 121.554 89.3415 121.554 90.7315C121.554 92.2015 120.554 93.2115 119.024 93.2115Z" fill="black"/>
<path id="320" d="M446.109 194.17C444.479 194.17 443.669 193.34 443.599 192.05L445.039 191.98C445.099 192.67 445.559 192.91 446.139 192.91C446.769 192.91 447.259 192.61 447.259 191.91C447.259 191.23 446.809 190.87 446.069 190.87H445.539V189.74H446.069C446.629 189.74 447.039 189.49 447.039 188.88C447.039 188.29 446.689 188 446.129 188C445.509 188 445.209 188.31 445.149 188.8L443.709 188.73C443.849 187.52 444.679 186.75 446.139 186.75C447.599 186.75 448.499 187.47 448.499 188.69C448.499 189.46 448.099 189.97 447.349 190.21C448.219 190.46 448.719 191.11 448.719 192.01C448.719 193.35 447.709 194.17 446.109 194.17ZM449.595 194.01C449.595 192.28 450.175 191.27 452.155 190.25C452.885 189.87 453.245 189.59 453.245 188.94C453.245 188.37 452.915 188.01 452.285 188.01C451.565 188.01 451.215 188.43 451.095 189.19L449.625 189.1C449.765 187.65 450.675 186.75 452.305 186.75C453.895 186.75 454.715 187.6 454.715 188.86C454.715 190 454.225 190.56 452.825 191.32C451.675 191.94 451.265 192.37 451.225 192.73H454.715V194.01H449.595ZM458.151 194.17C456.551 194.17 455.591 192.76 455.591 190.47C455.591 188.17 456.551 186.75 458.151 186.75C459.751 186.75 460.711 188.17 460.711 190.47C460.711 192.76 459.751 194.17 458.151 194.17ZM457.051 190.47C457.051 190.9 457.081 191.27 457.141 191.58L458.831 188.39C458.651 188.14 458.421 188.01 458.151 188.01C457.461 188.01 457.051 188.83 457.051 190.47ZM458.151 192.91C458.841 192.91 459.251 192.1 459.251 190.47C459.251 190.04 459.221 189.66 459.161 189.34L457.471 192.53C457.651 192.78 457.881 192.91 458.151 192.91Z" fill="black"/>
<path id="305" d="M43.6322 195.922C42.0022 195.922 41.1922 195.092 41.1222 193.802L42.5622 193.732C42.6222 194.422 43.0822 194.662 43.6622 194.662C44.2922 194.662 44.7822 194.362 44.7822 193.662C44.7822 192.982 44.3322 192.622 43.5922 192.622H43.0622V191.492H43.5922C44.1522 191.492 44.5622 191.242 44.5622 190.632C44.5622 190.042 44.2122 189.752 43.6522 189.752C43.0322 189.752 42.7322 190.062 42.6722 190.552L41.2322 190.482C41.3722 189.272 42.2022 188.502 43.6622 188.502C45.1222 188.502 46.0222 189.222 46.0222 190.442C46.0222 191.212 45.6222 191.722 44.8722 191.962C45.7422 192.212 46.2422 192.862 46.2422 193.762C46.2422 195.102 45.2322 195.922 43.6322 195.922ZM49.6783 195.922C48.0783 195.922 47.1183 194.512 47.1183 192.222C47.1183 189.922 48.0783 188.502 49.6783 188.502C51.2783 188.502 52.2383 189.922 52.2383 192.222C52.2383 194.512 51.2783 195.922 49.6783 195.922ZM48.5783 192.222C48.5783 192.652 48.6083 193.022 48.6683 193.332L50.3583 190.142C50.1783 189.892 49.9483 189.762 49.6783 189.762C48.9883 189.762 48.5783 190.582 48.5783 192.222ZM49.6783 194.662C50.3683 194.662 50.7783 193.852 50.7783 192.222C50.7783 191.792 50.7483 191.412 50.6883 191.092L48.9983 194.282C49.1783 194.532 49.4083 194.662 49.6783 194.662ZM55.6644 195.922C54.1644 195.922 53.2544 195.032 53.1544 193.862L54.6144 193.782C54.7044 194.362 55.0544 194.662 55.6644 194.662C56.3244 194.662 56.7344 194.242 56.7344 193.432C56.7344 192.642 56.3144 192.182 55.6744 192.182C55.2344 192.182 54.8644 192.442 54.7244 192.802L53.2544 192.732L53.6744 188.662H57.8644V189.942H54.8444L54.6644 191.472C54.9944 191.192 55.4344 191.032 55.9144 191.032C57.3244 191.032 58.1944 192.052 58.1944 193.442C58.1944 194.912 57.1944 195.922 55.6644 195.922Z" fill="black"/>
</g>
<path id="field" d="M290.261 445.476C270.674 471.656 231.429 471.674 211.818 445.512L36.7463 211.955V182.302L200.02 17.8668H301.217L477.171 195.645L290.261 445.476Z" fill="#004DA0" fill-opacity="0.1" fill="none" stroke="#004DA0" stroke-width="1.002"/>
</g>
</svg>
