<svg width="500" height="470" viewBox="0 0 500 470" fill="none" xmlns="http://www.w3.org/2000/svg">
<g id="sportsmans-park-1920" clip-path="url(#clip0_73_1044)">
<g id="Infield">
<path d="M339.98 327.765C339.453 325.666 322.032 258.478 250.83 258.478C180.238 258.478 162.505 324.538 161.697 327.699C161.677 327.776 161.668 327.816 161.668 327.816L236.504 402.652C235.305 404.912 234.623 407.488 234.623 410.237C234.623 419.185 241.873 426.444 250.83 426.444C259.778 426.444 267.037 419.185 267.037 410.237C267.037 407.488 266.356 404.912 265.156 402.657L260.695 397.374C257.96 395.278 254.544 394.025 250.83 394.025C247.117 394.025 243.701 395.278 240.971 397.37L197.7 354.1C201.448 350.352 201.448 344.277 197.7 340.529C197.698 340.526 197.694 340.524 197.691 340.521L244.055 294.037C247.8 297.773 253.861 297.773 257.606 294.037L303.431 339.983C303.431 339.983 303.427 339.985 303.424 339.988C299.677 343.735 300.275 350.299 304.022 354.047L260.695 397.374L265.156 402.657L339.98 327.765Z" fill="#D2D2D2"/>
<path d="M259.91 345.706C259.91 350.721 255.845 354.786 250.83 354.786C245.815 354.786 241.75 350.721 241.75 345.706C241.75 340.691 245.815 336.625 250.83 336.625C255.845 336.625 259.91 340.691 259.91 345.706Z" fill="#D2D2D2"/>
</g>
<g id="Guides">
<g id="Home">
<circle id="Ellipse 1" cx="250.827" cy="410.42" r="16.0848" fill="#D2D2D2"/>
<circle id="Ellipse 1_2" cx="250.827" cy="410.42" r="1.62919" fill="black"/>
</g>
<g id="First">
<circle id="Ellipse 1_3" cx="311.125" cy="346.533" r="10.1878" fill="#D2D2D2"/>
<circle id="Ellipse 1_4" cx="311.125" cy="346.532" r="1.0319" fill="black"/>
</g>
<g id="Third">
<circle id="Ellipse 1_5" cx="190.34" cy="346.533" r="10.1878" fill="#D2D2D2"/>
<circle id="Ellipse 1_6" cx="190.34" cy="346.532" r="1.0319" fill="black"/>
</g>
<g id="Second">
<circle id="Ellipse 1_7" cx="250.827" cy="286.671" r="10.1878" fill="#D2D2D2"/>
<circle id="Ellipse 1_8" cx="250.827" cy="286.671" r="1.0319" fill="black"/>
</g>
<g id="Mound">
<circle id="Ellipse 1_9" cx="250.827" cy="345.929" r="9.08365" fill="#D2D2D2"/>
<circle id="Ellipse 1_10" cx="250.827" cy="345.929" r="0.920062" fill="black"/>
</g>
</g>
<path id="Foul Lines" d="M465.597 197.628L250.976 410.516L6.57579 168.162" fill="none" stroke="black" stroke-width="1.002"/>
<g id="Measurements">
<path id="354" d="M365.858 84.4403C364.228 84.4403 363.418 83.6103 363.348 82.3203L364.788 82.2503C364.848 82.9403 365.308 83.1803 365.888 83.1803C366.518 83.1803 367.008 82.8803 367.008 82.1803C367.008 81.5003 366.558 81.1403 365.818 81.1403H365.288V80.0103H365.818C366.378 80.0103 366.788 79.7603 366.788 79.1503C366.788 78.5603 366.438 78.2703 365.878 78.2703C365.258 78.2703 364.958 78.5803 364.898 79.0703L363.458 79.0003C363.598 77.7903 364.428 77.0203 365.888 77.0203C367.348 77.0203 368.248 77.7403 368.248 78.9603C368.248 79.7303 367.848 80.2403 367.098 80.4803C367.968 80.7303 368.468 81.3803 368.468 82.2803C368.468 83.6203 367.458 84.4403 365.858 84.4403ZM371.894 84.4403C370.394 84.4403 369.484 83.5503 369.384 82.3803L370.844 82.3003C370.934 82.8803 371.284 83.1803 371.894 83.1803C372.554 83.1803 372.964 82.7603 372.964 81.9503C372.964 81.1603 372.544 80.7003 371.904 80.7003C371.464 80.7003 371.094 80.9603 370.954 81.3203L369.484 81.2503L369.904 77.1803H374.094V78.4603H371.074L370.894 79.9903C371.224 79.7103 371.664 79.5503 372.144 79.5503C373.554 79.5503 374.424 80.5703 374.424 81.9603C374.424 83.4303 373.424 84.4403 371.894 84.4403ZM378.35 84.2803V82.8603H375.18V81.6903L378.16 77.1803H379.78V81.6203H380.62V82.8603H379.78V84.2803H378.35ZM376.52 81.6203H378.35V78.9703L376.52 81.6203Z" fill="black"/>
<path id="379" d="M85.0834 76.3683C83.4534 76.3683 82.6434 75.5383 82.5734 74.2483L84.0134 74.1783C84.0734 74.8683 84.5334 75.1083 85.1134 75.1083C85.7434 75.1083 86.2334 74.8083 86.2334 74.1083C86.2334 73.4283 85.7834 73.0683 85.0434 73.0683H84.5134V71.9383H85.0434C85.6034 71.9383 86.0134 71.6883 86.0134 71.0783C86.0134 70.4883 85.6634 70.1983 85.1034 70.1983C84.4834 70.1983 84.1834 70.5083 84.1234 70.9983L82.6834 70.9283C82.8234 69.7183 83.6534 68.9483 85.1134 68.9483C86.5734 68.9483 87.4734 69.6683 87.4734 70.8883C87.4734 71.6583 87.0734 72.1683 86.3234 72.4083C87.1934 72.6583 87.6934 73.3083 87.6934 74.2083C87.6934 75.5483 86.6834 76.3683 85.0834 76.3683ZM89.7995 76.2083C89.7995 74.0583 90.6995 72.0983 92.1695 70.3883H88.6695V69.1083H93.5895V70.3183C91.9595 72.1783 91.2895 73.7683 91.2895 76.2083H89.7995ZM97.1056 68.9483C98.8356 68.9483 99.7456 70.1183 99.7456 72.1783C99.7456 74.5283 98.9356 76.3683 96.8456 76.3683C95.4456 76.3683 94.7956 75.6083 94.5356 74.5883L95.9756 74.4883C96.0756 74.8483 96.3056 75.1083 96.8456 75.1083C97.5856 75.1083 98.1056 74.5983 98.2656 73.3783C97.9256 73.6783 97.4456 73.8983 96.8156 73.8983C95.4056 73.8983 94.5056 72.9483 94.5056 71.5183C94.5056 69.9383 95.5356 68.9483 97.1056 68.9483ZM97.1356 70.2283C96.3856 70.2283 95.9656 70.6683 95.9656 71.4683C95.9656 72.2083 96.3456 72.6883 97.0756 72.6883C97.8156 72.6883 98.2856 72.1983 98.2856 71.4583C98.2856 70.7783 97.8656 70.2283 97.1356 70.2283Z" fill="black"/>
<path id="310" d="M441.125 201.199C439.495 201.199 438.685 200.369 438.615 199.079L440.055 199.009C440.115 199.699 440.575 199.939 441.155 199.939C441.785 199.939 442.275 199.639 442.275 198.939C442.275 198.259 441.825 197.899 441.085 197.899H440.555V196.769H441.085C441.645 196.769 442.055 196.519 442.055 195.909C442.055 195.319 441.705 195.029 441.145 195.029C440.525 195.029 440.225 195.339 440.165 195.829L438.725 195.759C438.865 194.549 439.695 193.779 441.155 193.779C442.615 193.779 443.515 194.499 443.515 195.719C443.515 196.489 443.115 196.999 442.365 197.239C443.235 197.489 443.735 198.139 443.735 199.039C443.735 200.379 442.725 201.199 441.125 201.199ZM444.652 201.039V199.759H446.692V196.379H444.952V195.199H445.732C446.532 195.199 446.872 194.859 446.872 193.939H448.112V199.759H449.692V201.039H444.652ZM453.168 201.199C451.568 201.199 450.608 199.789 450.608 197.499C450.608 195.199 451.568 193.779 453.168 193.779C454.768 193.779 455.728 195.199 455.728 197.499C455.728 199.789 454.768 201.199 453.168 201.199ZM452.068 197.499C452.068 197.929 452.098 198.299 452.158 198.609L453.848 195.419C453.668 195.169 453.438 195.039 453.168 195.039C452.478 195.039 452.068 195.859 452.068 197.499ZM453.168 199.939C453.858 199.939 454.268 199.129 454.268 197.499C454.268 197.069 454.238 196.689 454.178 196.369L452.488 199.559C452.668 199.809 452.898 199.939 453.168 199.939Z" fill="black"/>
<path id="351" d="M19.5835 171.822C17.9535 171.822 17.1435 170.992 17.0735 169.702L18.5135 169.632C18.5735 170.322 19.0335 170.562 19.6135 170.562C20.2435 170.562 20.7335 170.262 20.7335 169.562C20.7335 168.882 20.2835 168.522 19.5435 168.522H19.0135V167.392H19.5435C20.1035 167.392 20.5135 167.142 20.5135 166.532C20.5135 165.942 20.1635 165.652 19.6035 165.652C18.9835 165.652 18.6835 165.962 18.6235 166.452L17.1835 166.382C17.3235 165.172 18.1535 164.402 19.6135 164.402C21.0735 164.402 21.9735 165.122 21.9735 166.342C21.9735 167.112 21.5735 167.622 20.8235 167.862C21.6935 168.112 22.1935 168.762 22.1935 169.662C22.1935 171.002 21.1835 171.822 19.5835 171.822ZM25.6196 171.822C24.1196 171.822 23.2096 170.932 23.1096 169.762L24.5696 169.682C24.6596 170.262 25.0096 170.562 25.6196 170.562C26.2796 170.562 26.6896 170.142 26.6896 169.332C26.6896 168.542 26.2696 168.082 25.6296 168.082C25.1896 168.082 24.8196 168.342 24.6796 168.702L23.2096 168.632L23.6296 164.562H27.8196V165.842H24.7996L24.6196 167.372C24.9496 167.092 25.3896 166.932 25.8696 166.932C27.2796 166.932 28.1496 167.952 28.1496 169.342C28.1496 170.812 27.1496 171.822 25.6196 171.822ZM29.1057 171.662V170.382H31.1457V167.002H29.4057V165.822H30.1857C30.9857 165.822 31.3257 165.482 31.3257 164.562H32.5657V170.382H34.1457V171.662H29.1057Z" fill="black"/>
</g>
<path id="field" d="M5.96133 168.968L185.289 -2.76172H275.46L465.932 197.842L424.393 335.124L277.993 475.446H222.269L103.73 351.335L5.96133 168.968Z" fill="#C41E3A" fill-opacity="0.1" stroke="#C41E3A"/>
</g>
<defs>
<clipPath id="clip0_73_1044">
<rect width="500" height="469.94" fill="white"/>
</clipPath>
</defs>
</svg>
