<svg width="500" height="470" viewBox="0 0 500 470" fill="none" xmlns="http://www.w3.org/2000/svg">
<g id="sutter-health-park-2025" clip-path="url(#clip0_98_3220)">
<g id="Infield">
<path d="M339.98 327.766C339.453 325.666 322.032 258.479 250.83 258.479C180.238 258.479 162.505 324.538 161.697 327.699C161.677 327.776 161.668 327.816 161.668 327.816L236.504 402.653C235.305 404.912 234.623 407.489 234.623 410.238C234.623 419.186 241.873 426.445 250.83 426.445C259.778 426.445 267.037 419.186 267.037 410.238C267.037 407.489 266.356 404.912 265.156 402.657L260.695 397.375C257.96 395.278 254.544 394.026 250.83 394.026C247.117 394.026 243.701 395.278 240.971 397.37L197.7 354.1C201.448 350.353 201.448 344.277 197.7 340.53C197.698 340.527 197.694 340.525 197.691 340.522L244.055 294.038C247.8 297.773 253.861 297.773 257.606 294.038L303.431 339.984C303.431 339.984 303.427 339.985 303.424 339.988C299.677 343.736 300.275 350.3 304.022 354.047L260.695 397.375L265.156 402.657L339.98 327.766Z" fill="#D2D2D2"/>
<path d="M259.91 345.706C259.91 350.721 255.845 354.787 250.83 354.787C245.815 354.787 241.75 350.721 241.75 345.706C241.75 340.691 245.815 336.626 250.83 336.626C255.845 336.626 259.91 340.691 259.91 345.706Z" fill="#D2D2D2"/>
</g>
<g id="Guides">
<g id="Home">
<circle id="Ellipse 1" cx="250.827" cy="410.419" r="16.0848" fill="#D2D2D2"/>
<circle id="Ellipse 1_2" cx="250.827" cy="410.418" r="1.62919" fill="black"/>
</g>
<g id="First">
<circle id="Ellipse 1_3" cx="311.125" cy="346.532" r="10.1878" fill="#D2D2D2"/>
<circle id="Ellipse 1_4" cx="311.125" cy="346.532" r="1.0319" fill="black"/>
</g>
<g id="Third">
<circle id="Ellipse 1_5" cx="190.34" cy="346.532" r="10.1878" fill="#D2D2D2"/>
<circle id="Ellipse 1_6" cx="190.34" cy="346.532" r="1.0319" fill="black"/>
</g>
<g id="Second">
<circle id="Ellipse 1_7" cx="250.827" cy="286.67" r="10.1878" fill="#D2D2D2"/>
<circle id="Ellipse 1_8" cx="250.827" cy="286.671" r="1.0319" fill="black"/>
</g>
<g id="Mound">
<circle id="Ellipse 1_9" cx="250.827" cy="345.929" r="9.08365" fill="#D2D2D2"/>
<circle id="Ellipse 1_10" cx="250.827" cy="345.93" r="0.920062" fill="black"/>
</g>
</g>
<path id="Foul Lines" d="M476.203 185.288L250.976 410.516L21.1857 180.727" fill="none" stroke="black" stroke-width="1.002"/>
<g id="Measurements">
<path id="403" d="M245.203 12.6992V11.2792H242.033V10.1092L245.013 5.59922H246.633V10.0392H247.473V11.2792H246.633V12.6992H245.203ZM243.373 10.0392H245.203V7.38922L243.373 10.0392ZM250.749 12.8592C249.149 12.8592 248.189 11.4492 248.189 9.15922C248.189 6.85922 249.149 5.43922 250.749 5.43922C252.349 5.43922 253.309 6.85922 253.309 9.15922C253.309 11.4492 252.349 12.8592 250.749 12.8592ZM249.649 9.15922C249.649 9.58922 249.679 9.95922 249.739 10.2692L251.429 7.07922C251.249 6.82922 251.019 6.69922 250.749 6.69922C250.059 6.69922 249.649 7.51922 249.649 9.15922ZM250.749 11.5992C251.439 11.5992 251.849 10.7892 251.849 9.15922C251.849 8.72922 251.819 8.34922 251.759 8.02922L250.069 11.2192C250.249 11.4692 250.479 11.5992 250.749 11.5992ZM256.695 12.8592C255.065 12.8592 254.255 12.0292 254.185 10.7392L255.625 10.6692C255.685 11.3592 256.145 11.5992 256.725 11.5992C257.355 11.5992 257.845 11.2992 257.845 10.5992C257.845 9.91922 257.395 9.55922 256.655 9.55922H256.125V8.42922H256.655C257.215 8.42922 257.625 8.17922 257.625 7.56922C257.625 6.97922 257.275 6.68922 256.715 6.68922C256.095 6.68922 255.795 6.99922 255.735 7.48922L254.295 7.41922C254.435 6.20922 255.265 5.43922 256.725 5.43922C258.185 5.43922 259.085 6.15922 259.085 7.37922C259.085 8.14922 258.685 8.65922 257.935 8.89922C258.805 9.14922 259.305 9.79922 259.305 10.6992C259.305 12.0392 258.295 12.8592 256.695 12.8592Z" fill="black"/>
<path id="325" d="M451.678 187.035C450.048 187.035 449.238 186.205 449.168 184.915L450.608 184.845C450.668 185.535 451.128 185.775 451.708 185.775C452.338 185.775 452.828 185.475 452.828 184.775C452.828 184.095 452.378 183.735 451.638 183.735H451.108V182.605H451.638C452.198 182.605 452.608 182.355 452.608 181.745C452.608 181.155 452.258 180.865 451.698 180.865C451.078 180.865 450.778 181.175 450.718 181.665L449.278 181.595C449.418 180.385 450.248 179.615 451.708 179.615C453.168 179.615 454.068 180.335 454.068 181.555C454.068 182.325 453.668 182.835 452.918 183.075C453.788 183.325 454.288 183.975 454.288 184.875C454.288 186.215 453.278 187.035 451.678 187.035ZM455.164 186.875C455.164 185.145 455.744 184.135 457.724 183.115C458.454 182.735 458.814 182.455 458.814 181.805C458.814 181.235 458.484 180.875 457.854 180.875C457.134 180.875 456.784 181.295 456.664 182.055L455.194 181.965C455.334 180.515 456.244 179.615 457.874 179.615C459.464 179.615 460.284 180.465 460.284 181.725C460.284 182.865 459.794 183.425 458.394 184.185C457.244 184.805 456.834 185.235 456.794 185.595H460.284V186.875H455.164ZM463.71 187.035C462.21 187.035 461.3 186.145 461.2 184.975L462.66 184.895C462.75 185.475 463.1 185.775 463.71 185.775C464.37 185.775 464.78 185.355 464.78 184.545C464.78 183.755 464.36 183.295 463.72 183.295C463.28 183.295 462.91 183.555 462.77 183.915L461.3 183.845L461.72 179.775H465.91V181.055H462.89L462.71 182.585C463.04 182.305 463.48 182.145 463.96 182.145C465.37 182.145 466.24 183.165 466.24 184.555C466.24 186.025 465.24 187.035 463.71 187.035Z" fill="black"/>
<path id="330" d="M29.1593 180.535C27.5293 180.535 26.7193 179.705 26.6493 178.415L28.0893 178.345C28.1493 179.035 28.6093 179.275 29.1893 179.275C29.8193 179.275 30.3093 178.975 30.3093 178.275C30.3093 177.595 29.8593 177.235 29.1193 177.235H28.5893V176.105H29.1193C29.6793 176.105 30.0893 175.855 30.0893 175.245C30.0893 174.655 29.7393 174.365 29.1793 174.365C28.5593 174.365 28.2593 174.675 28.1993 175.165L26.7593 175.095C26.8993 173.885 27.7293 173.115 29.1893 173.115C30.6493 173.115 31.5493 173.835 31.5493 175.055C31.5493 175.825 31.1493 176.335 30.3993 176.575C31.2693 176.825 31.7693 177.475 31.7693 178.375C31.7693 179.715 30.7593 180.535 29.1593 180.535ZM35.1554 180.535C33.5254 180.535 32.7154 179.705 32.6454 178.415L34.0854 178.345C34.1454 179.035 34.6054 179.275 35.1854 179.275C35.8154 179.275 36.3054 178.975 36.3054 178.275C36.3054 177.595 35.8554 177.235 35.1154 177.235H34.5854V176.105H35.1154C35.6754 176.105 36.0854 175.855 36.0854 175.245C36.0854 174.655 35.7354 174.365 35.1754 174.365C34.5554 174.365 34.2554 174.675 34.1954 175.165L32.7554 175.095C32.8954 173.885 33.7254 173.115 35.1854 173.115C36.6454 173.115 37.5454 173.835 37.5454 175.055C37.5454 175.825 37.1454 176.335 36.3954 176.575C37.2654 176.825 37.7654 177.475 37.7654 178.375C37.7654 179.715 36.7554 180.535 35.1554 180.535ZM41.2014 180.535C39.6014 180.535 38.6414 179.125 38.6414 176.835C38.6414 174.535 39.6014 173.115 41.2014 173.115C42.8014 173.115 43.7614 174.535 43.7614 176.835C43.7614 179.125 42.8014 180.535 41.2014 180.535ZM40.1014 176.835C40.1014 177.265 40.1314 177.635 40.1914 177.945L41.8814 174.755C41.7014 174.505 41.4714 174.375 41.2014 174.375C40.5114 174.375 40.1014 175.195 40.1014 176.835ZM41.2014 179.275C41.8914 179.275 42.3014 178.465 42.3014 176.835C42.3014 176.405 42.2714 176.025 42.2114 175.705L40.5214 178.895C40.7014 179.145 40.9314 179.275 41.2014 179.275Z" fill="black"/>
</g>
<path id="field" d="M283.084 16.1133L432.854 99.8867L476.709 186.246L473.2 196.772L389.284 279.811L313.247 431.108C287.427 482.482 214.112 482.543 188.208 431.212L111.804 279.811L20.8705 188.878C20.8705 104.376 131.687 16.1133 206.831 16.1133H283.084Z" fill="#003831" fill-opacity="0.1" fill="none" stroke="#003831" stroke-width="1.002"/>
</g>
<defs>
<clipPath id="clip0_98_3220">
<rect width="500" height="469.94" fill="white"/>
</clipPath>
</defs>
</svg>
