<svg width="500" height="470" viewBox="0 0 500 470" fill="none" xmlns="http://www.w3.org/2000/svg">
<g id="t-mobile-park-2013">
<g id="Infield">
<path d="M339.98 327.764C339.453 325.664 322.032 258.477 250.83 258.477C180.238 258.477 162.505 324.536 161.697 327.697C161.677 327.775 161.668 327.814 161.668 327.814L236.504 402.651C235.305 404.91 234.623 407.487 234.623 410.236C234.623 419.184 241.873 426.443 250.83 426.443C259.778 426.443 267.037 419.184 267.037 410.236C267.037 407.487 266.356 404.91 265.156 402.655L260.695 397.373C257.96 395.276 254.544 394.024 250.83 394.024C247.117 394.024 243.701 395.276 240.971 397.368L197.7 354.098C201.448 350.351 201.448 344.275 197.7 340.528C197.698 340.525 197.694 340.523 197.691 340.52L244.055 294.036C247.8 297.772 253.861 297.772 257.606 294.036L303.431 339.982C303.431 339.982 303.427 339.983 303.424 339.986C299.677 343.734 300.275 350.298 304.022 354.045L260.695 397.373L265.156 402.655L339.98 327.764Z" fill="#D2D2D2"/>
<path d="M259.91 345.704C259.91 350.719 255.845 354.785 250.83 354.785C245.815 354.785 241.75 350.719 241.75 345.704C241.75 340.689 245.815 336.624 250.83 336.624C255.845 336.624 259.91 340.689 259.91 345.704Z" fill="#D2D2D2"/>
</g>
<g id="Guides">
<g id="Home">
<circle id="Ellipse 1" cx="250.827" cy="410.421" r="16.0848" fill="#D2D2D2"/>
<circle id="Ellipse 1_2" cx="250.827" cy="410.422" r="1.62919" fill="black"/>
</g>
<g id="First">
<circle id="Ellipse 1_3" cx="311.125" cy="346.535" r="10.1878" fill="#D2D2D2"/>
<circle id="Ellipse 1_4" cx="311.125" cy="346.536" r="1.0319" fill="black"/>
</g>
<g id="Third">
<circle id="Ellipse 1_5" cx="190.34" cy="346.535" r="10.1878" fill="#D2D2D2"/>
<circle id="Ellipse 1_6" cx="190.34" cy="346.536" r="1.0319" fill="black"/>
</g>
<g id="Second">
<circle id="Ellipse 1_7" cx="250.827" cy="286.672" r="10.1878" fill="#D2D2D2"/>
<circle id="Ellipse 1_8" cx="250.827" cy="286.673" r="1.0319" fill="black"/>
</g>
<g id="Mound">
<circle id="Ellipse 1_9" cx="250.827" cy="345.931" r="9.08365" fill="#D2D2D2"/>
<circle id="Ellipse 1_10" cx="250.827" cy="345.932" r="0.920062" fill="black"/>
</g>
</g>
<path id="Foul Lines" d="M476.811 184.681L250.976 410.516L20.476 180.02" fill="none" stroke="black" stroke-width="1.002"/>
<g id="Measurements">
<path id="401" d="M233.203 10.6992V9.27922H230.033V8.10922L233.013 3.59922H234.633V8.03922H235.473V9.27922H234.633V10.6992H233.203ZM231.373 8.03922H233.203V5.38922L231.373 8.03922ZM238.749 10.8592C237.149 10.8592 236.189 9.44922 236.189 7.15922C236.189 4.85922 237.149 3.43922 238.749 3.43922C240.349 3.43922 241.309 4.85922 241.309 7.15922C241.309 9.44922 240.349 10.8592 238.749 10.8592ZM237.649 7.15922C237.649 7.58922 237.679 7.95922 237.739 8.26922L239.429 5.07922C239.249 4.82922 239.019 4.69922 238.749 4.69922C238.059 4.69922 237.649 5.51922 237.649 7.15922ZM238.749 9.59922C239.439 9.59922 239.849 8.78922 239.849 7.15922C239.849 6.72922 239.819 6.34922 239.759 6.02922L238.069 9.21922C238.249 9.46922 238.479 9.59922 238.749 9.59922ZM242.225 10.6992V9.41922H244.265V6.03922H242.525V4.85922H243.305C244.105 4.85922 244.445 4.51922 244.445 3.59922H245.685V9.41922H247.265V10.6992H242.225Z" fill="black"/>
<path id="380" d="M369.097 48.8553C367.467 48.8553 366.657 48.0253 366.587 46.7353L368.027 46.6653C368.087 47.3553 368.547 47.5953 369.127 47.5953C369.757 47.5953 370.247 47.2953 370.247 46.5953C370.247 45.9153 369.797 45.5553 369.057 45.5553H368.527V44.4253H369.057C369.617 44.4253 370.027 44.1753 370.027 43.5653C370.027 42.9753 369.677 42.6853 369.117 42.6853C368.497 42.6853 368.197 42.9953 368.137 43.4853L366.697 43.4153C366.837 42.2053 367.667 41.4353 369.127 41.4353C370.587 41.4353 371.487 42.1553 371.487 43.3753C371.487 44.1453 371.087 44.6553 370.337 44.8953C371.207 45.1453 371.707 45.7953 371.707 46.6953C371.707 48.0353 370.697 48.8553 369.097 48.8553ZM375.144 48.8553C373.574 48.8553 372.524 48.1353 372.524 46.7553C372.524 45.8253 373.064 45.1653 373.934 44.8853C373.264 44.6253 372.814 44.1353 372.814 43.3953C372.814 42.2553 373.744 41.4353 375.144 41.4353C376.544 41.4353 377.474 42.2553 377.474 43.3953C377.474 44.1353 377.024 44.6253 376.344 44.8853C377.224 45.1653 377.764 45.8253 377.764 46.7553C377.764 48.1353 376.714 48.8553 375.144 48.8553ZM375.144 44.3153C375.654 44.3153 376.004 44.0453 376.004 43.4853C376.004 42.9853 375.664 42.6953 375.144 42.6953C374.624 42.6953 374.284 42.9853 374.284 43.4853C374.284 44.0453 374.634 44.3153 375.144 44.3153ZM375.144 47.5953C375.784 47.5953 376.304 47.3153 376.304 46.6153C376.304 45.9453 375.874 45.5253 375.144 45.5253C374.414 45.5253 373.984 45.9453 373.984 46.6153C373.984 47.3153 374.504 47.5953 375.144 47.5953ZM381.14 48.8553C379.54 48.8553 378.58 47.4453 378.58 45.1553C378.58 42.8553 379.54 41.4353 381.14 41.4353C382.74 41.4353 383.7 42.8553 383.7 45.1553C383.7 47.4453 382.74 48.8553 381.14 48.8553ZM380.04 45.1553C380.04 45.5853 380.07 45.9553 380.13 46.2653L381.82 43.0753C381.64 42.8253 381.41 42.6953 381.14 42.6953C380.45 42.6953 380.04 43.5153 380.04 45.1553ZM381.14 47.5953C381.83 47.5953 382.24 46.7853 382.24 45.1553C382.24 44.7253 382.21 44.3453 382.15 44.0253L380.46 47.2153C380.64 47.4653 380.87 47.5953 381.14 47.5953Z" fill="black"/>
<path id="378" d="M114.844 61.3553C113.214 61.3553 112.404 60.5253 112.334 59.2353L113.774 59.1653C113.834 59.8553 114.294 60.0953 114.874 60.0953C115.504 60.0953 115.994 59.7953 115.994 59.0953C115.994 58.4153 115.544 58.0553 114.804 58.0553H114.274V56.9253H114.804C115.364 56.9253 115.774 56.6753 115.774 56.0653C115.774 55.4753 115.424 55.1853 114.864 55.1853C114.244 55.1853 113.944 55.4953 113.884 55.9853L112.444 55.9153C112.584 54.7053 113.414 53.9353 114.874 53.9353C116.334 53.9353 117.234 54.6553 117.234 55.8753C117.234 56.6453 116.834 57.1553 116.084 57.3953C116.954 57.6453 117.454 58.2953 117.454 59.1953C117.454 60.5353 116.444 61.3553 114.844 61.3553ZM119.56 61.1953C119.56 59.0453 120.46 57.0853 121.93 55.3753H118.43V54.0953H123.35V55.3053C121.72 57.1653 121.05 58.7553 121.05 61.1953H119.56ZM126.886 61.3553C125.316 61.3553 124.266 60.6353 124.266 59.2553C124.266 58.3253 124.806 57.6653 125.676 57.3853C125.006 57.1253 124.556 56.6353 124.556 55.8953C124.556 54.7553 125.486 53.9353 126.886 53.9353C128.286 53.9353 129.216 54.7553 129.216 55.8953C129.216 56.6353 128.766 57.1253 128.086 57.3853C128.966 57.6653 129.506 58.3253 129.506 59.2553C129.506 60.6353 128.456 61.3553 126.886 61.3553ZM126.886 56.8153C127.396 56.8153 127.746 56.5453 127.746 55.9853C127.746 55.4853 127.406 55.1953 126.886 55.1953C126.366 55.1953 126.026 55.4853 126.026 55.9853C126.026 56.5453 126.376 56.8153 126.886 56.8153ZM126.886 60.0953C127.526 60.0953 128.046 59.8153 128.046 59.1153C128.046 58.4453 127.616 58.0253 126.886 58.0253C126.156 58.0253 125.726 58.4453 125.726 59.1153C125.726 59.8153 126.246 60.0953 126.886 60.0953Z" fill="black"/>
<path id="326" d="M455.938 188.098C454.308 188.098 453.498 187.267 453.428 185.977L454.868 185.907C454.928 186.597 455.388 186.837 455.968 186.837C456.598 186.837 457.088 186.537 457.088 185.837C457.088 185.157 456.638 184.797 455.898 184.797H455.368V183.667H455.898C456.458 183.667 456.868 183.417 456.868 182.807C456.868 182.217 456.518 181.927 455.958 181.927C455.338 181.927 455.038 182.237 454.978 182.727L453.538 182.658C453.678 181.447 454.508 180.677 455.968 180.677C457.428 180.677 458.328 181.397 458.328 182.617C458.328 183.387 457.928 183.897 457.178 184.137C458.048 184.387 458.548 185.037 458.548 185.937C458.548 187.278 457.538 188.098 455.938 188.098ZM459.424 187.938C459.424 186.207 460.004 185.197 461.984 184.177C462.714 183.797 463.074 183.517 463.074 182.867C463.074 182.297 462.744 181.937 462.114 181.937C461.394 181.937 461.044 182.357 460.924 183.117L459.454 183.027C459.594 181.577 460.504 180.677 462.134 180.677C463.724 180.677 464.544 181.527 464.544 182.787C464.544 183.927 464.054 184.487 462.654 185.247C461.504 185.867 461.094 186.297 461.054 186.657H464.544V187.938H459.424ZM468 188.098C466.27 188.098 465.36 186.927 465.36 184.867C465.36 182.517 466.17 180.677 468.26 180.677C469.66 180.677 470.31 181.437 470.57 182.457L469.13 182.557C469.03 182.197 468.8 181.937 468.26 181.937C467.52 181.937 467 182.447 466.84 183.667C467.18 183.367 467.66 183.147 468.29 183.147C469.7 183.147 470.6 184.097 470.6 185.527C470.6 187.107 469.57 188.098 468 188.098ZM467.97 186.817C468.72 186.817 469.14 186.377 469.14 185.577C469.14 184.837 468.76 184.357 468.03 184.357C467.29 184.357 466.82 184.847 466.82 185.587C466.82 186.267 467.24 186.817 467.97 186.817Z" fill="black"/>
<path id="331" d="M28.5783 178.598C26.9483 178.598 26.1383 177.767 26.0683 176.477L27.5083 176.407C27.5683 177.097 28.0283 177.337 28.6083 177.337C29.2383 177.337 29.7283 177.037 29.7283 176.337C29.7283 175.657 29.2783 175.297 28.5383 175.297H28.0083V174.167H28.5383C29.0983 174.167 29.5083 173.917 29.5083 173.307C29.5083 172.717 29.1583 172.427 28.5983 172.427C27.9783 172.427 27.6783 172.737 27.6183 173.227L26.1783 173.158C26.3183 171.947 27.1483 171.177 28.6083 171.177C30.0683 171.177 30.9683 171.897 30.9683 173.117C30.9683 173.887 30.5683 174.397 29.8183 174.637C30.6883 174.887 31.1883 175.537 31.1883 176.437C31.1883 177.778 30.1783 178.598 28.5783 178.598ZM34.5744 178.598C32.9444 178.598 32.1344 177.767 32.0644 176.477L33.5044 176.407C33.5644 177.097 34.0244 177.337 34.6044 177.337C35.2344 177.337 35.7244 177.037 35.7244 176.337C35.7244 175.657 35.2744 175.297 34.5344 175.297H34.0044V174.167H34.5344C35.0944 174.167 35.5044 173.917 35.5044 173.307C35.5044 172.717 35.1544 172.427 34.5944 172.427C33.9744 172.427 33.6744 172.737 33.6144 173.227L32.1744 173.158C32.3144 171.947 33.1444 171.177 34.6044 171.177C36.0644 171.177 36.9644 171.897 36.9644 173.117C36.9644 173.887 36.5644 174.397 35.8144 174.637C36.6844 174.887 37.1844 175.537 37.1844 176.437C37.1844 177.778 36.1744 178.598 34.5744 178.598ZM38.1005 178.438V177.157H40.1405V173.777H38.4005V172.597H39.1805C39.9805 172.597 40.3205 172.257 40.3205 171.337H41.5605V177.157H43.1405V178.438H38.1005Z" fill="black"/>
</g>
<path id="field" d="M20.7175 173.461L120.142 71.6819L147.636 54.1006L240.162 14.5781L366.23 52.8523L487.679 197.78L469.935 202.535L431.471 240.999V248.679L385.628 343.311L297.705 438.458L295.814 436.331L282.246 450.196C264.886 467.935 236.441 468.269 218.669 450.941L201.988 434.677L200.334 436.331L116.914 344.713L72.6898 249.332V242.855L20.7175 191.569V173.461Z" fill="#0C2C56" fill-opacity="0.1" fill="none" stroke="#0C2C56" stroke-width="1.002"/>
</g>
</svg>
