<svg width="500" height="470" viewBox="0 0 500 470" fill="none" xmlns="http://www.w3.org/2000/svg">
<g id="t-mobile-park-1999" clip-path="url(#clip0_129_7221)">
<g id="Infield">
<path d="M339.98 327.764C339.453 325.664 322.032 258.477 250.83 258.477C180.238 258.477 162.505 324.536 161.697 327.697C161.677 327.775 161.668 327.814 161.668 327.814L236.504 402.651C235.305 404.91 234.623 407.487 234.623 410.236C234.623 419.184 241.873 426.443 250.83 426.443C259.778 426.443 267.037 419.184 267.037 410.236C267.037 407.487 266.356 404.91 265.156 402.655L260.695 397.373C257.96 395.276 254.544 394.024 250.83 394.024C247.117 394.024 243.701 395.276 240.971 397.368L197.7 354.098C201.448 350.351 201.448 344.275 197.7 340.528C197.698 340.525 197.694 340.523 197.691 340.52L244.055 294.036C247.8 297.772 253.861 297.772 257.606 294.036L303.431 339.982C303.431 339.982 303.427 339.983 303.424 339.986C299.677 343.734 300.275 350.298 304.022 354.045L260.695 397.373L265.156 402.655L339.98 327.764Z" fill="#D2D2D2"/>
<path d="M259.91 345.704C259.91 350.719 255.845 354.785 250.83 354.785C245.815 354.785 241.75 350.719 241.75 345.704C241.75 340.689 245.815 336.624 250.83 336.624C255.845 336.624 259.91 340.689 259.91 345.704Z" fill="#D2D2D2"/>
</g>
<g id="Guides">
<g id="Home">
<circle id="Ellipse 1" cx="250.827" cy="410.421" r="16.0848" fill="#D2D2D2"/>
<circle id="Ellipse 1_2" cx="250.827" cy="410.422" r="1.62919" fill="black"/>
</g>
<g id="First">
<circle id="Ellipse 1_3" cx="311.125" cy="346.535" r="10.1878" fill="#D2D2D2"/>
<circle id="Ellipse 1_4" cx="311.125" cy="346.536" r="1.0319" fill="black"/>
</g>
<g id="Third">
<circle id="Ellipse 1_5" cx="190.34" cy="346.535" r="10.1878" fill="#D2D2D2"/>
<circle id="Ellipse 1_6" cx="190.34" cy="346.536" r="1.0319" fill="black"/>
</g>
<g id="Second">
<circle id="Ellipse 1_7" cx="250.827" cy="286.672" r="10.1878" fill="#D2D2D2"/>
<circle id="Ellipse 1_8" cx="250.827" cy="286.673" r="1.0319" fill="black"/>
</g>
<g id="Mound">
<circle id="Ellipse 1_9" cx="250.827" cy="345.931" r="9.08365" fill="#D2D2D2"/>
<circle id="Ellipse 1_10" cx="250.827" cy="345.932" r="0.920062" fill="black"/>
</g>
</g>
<path id="Foul Lines" d="M476.811 184.681L250.976 410.516L20.476 180.02" fill="none" stroke="black" stroke-width="1.002"/>
<g id="Measurements">
<path id="405" d="M233.203 7.69922V6.27922H230.033V5.10922L233.013 0.599218H234.633V5.03922H235.473V6.27922H234.633V7.69922H233.203ZM231.373 5.03922H233.203V2.38922L231.373 5.03922ZM238.749 7.85922C237.149 7.85922 236.189 6.44922 236.189 4.15922C236.189 1.85922 237.149 0.439219 238.749 0.439219C240.349 0.439219 241.309 1.85922 241.309 4.15922C241.309 6.44922 240.349 7.85922 238.749 7.85922ZM237.649 4.15922C237.649 4.58922 237.679 4.95922 237.739 5.26922L239.429 2.07922C239.249 1.82922 239.019 1.69922 238.749 1.69922C238.059 1.69922 237.649 2.51922 237.649 4.15922ZM238.749 6.59922C239.439 6.59922 239.849 5.78922 239.849 4.15922C239.849 3.72922 239.819 3.34922 239.759 3.02922L238.069 6.21922C238.249 6.46922 238.479 6.59922 238.749 6.59922ZM244.735 7.85922C243.235 7.85922 242.325 6.96922 242.225 5.79922L243.685 5.71922C243.775 6.29922 244.125 6.59922 244.735 6.59922C245.395 6.59922 245.805 6.17922 245.805 5.36922C245.805 4.57922 245.385 4.11922 244.745 4.11922C244.305 4.11922 243.935 4.37922 243.795 4.73922L242.325 4.66922L242.745 0.599218H246.935V1.87922H243.915L243.735 3.40922C244.065 3.12922 244.505 2.96922 244.985 2.96922C246.395 2.96922 247.265 3.98922 247.265 5.37922C247.265 6.84922 246.265 7.85922 244.735 7.85922Z" fill="black"/>
<path id="385" d="M364.097 43.8553C362.467 43.8553 361.657 43.0253 361.587 41.7353L363.027 41.6653C363.087 42.3553 363.547 42.5953 364.127 42.5953C364.757 42.5953 365.247 42.2953 365.247 41.5953C365.247 40.9153 364.797 40.5553 364.057 40.5553H363.527V39.4253H364.057C364.617 39.4253 365.027 39.1753 365.027 38.5653C365.027 37.9753 364.677 37.6853 364.117 37.6853C363.497 37.6853 363.197 37.9953 363.137 38.4853L361.697 38.4153C361.837 37.2053 362.667 36.4353 364.127 36.4353C365.587 36.4353 366.487 37.1553 366.487 38.3753C366.487 39.1453 366.087 39.6553 365.337 39.8953C366.207 40.1453 366.707 40.7953 366.707 41.6953C366.707 43.0353 365.697 43.8553 364.097 43.8553ZM370.144 43.8553C368.574 43.8553 367.524 43.1353 367.524 41.7553C367.524 40.8253 368.064 40.1653 368.934 39.8853C368.264 39.6253 367.814 39.1353 367.814 38.3953C367.814 37.2553 368.744 36.4353 370.144 36.4353C371.544 36.4353 372.474 37.2553 372.474 38.3953C372.474 39.1353 372.024 39.6253 371.344 39.8853C372.224 40.1653 372.764 40.8253 372.764 41.7553C372.764 43.1353 371.714 43.8553 370.144 43.8553ZM370.144 39.3153C370.654 39.3153 371.004 39.0453 371.004 38.4853C371.004 37.9853 370.664 37.6953 370.144 37.6953C369.624 37.6953 369.284 37.9853 369.284 38.4853C369.284 39.0453 369.634 39.3153 370.144 39.3153ZM370.144 42.5953C370.784 42.5953 371.304 42.3153 371.304 41.6153C371.304 40.9453 370.874 40.5253 370.144 40.5253C369.414 40.5253 368.984 40.9453 368.984 41.6153C368.984 42.3153 369.504 42.5953 370.144 42.5953ZM376.13 43.8553C374.63 43.8553 373.72 42.9653 373.62 41.7953L375.08 41.7153C375.17 42.2953 375.52 42.5953 376.13 42.5953C376.79 42.5953 377.2 42.1753 377.2 41.3653C377.2 40.5753 376.78 40.1153 376.14 40.1153C375.7 40.1153 375.33 40.3753 375.19 40.7353L373.72 40.6653L374.14 36.5953H378.33V37.8753H375.31L375.13 39.4053C375.46 39.1253 375.9 38.9653 376.38 38.9653C377.79 38.9653 378.66 39.9853 378.66 41.3753C378.66 42.8453 377.66 43.8553 376.13 43.8553Z" fill="black"/>
<path id="388" d="M119.844 47.3553C118.214 47.3553 117.404 46.5253 117.334 45.2353L118.774 45.1653C118.834 45.8553 119.294 46.0953 119.874 46.0953C120.504 46.0953 120.994 45.7953 120.994 45.0953C120.994 44.4153 120.544 44.0553 119.804 44.0553H119.274V42.9253H119.804C120.364 42.9253 120.774 42.6753 120.774 42.0653C120.774 41.4753 120.424 41.1853 119.864 41.1853C119.244 41.1853 118.944 41.4953 118.884 41.9853L117.444 41.9153C117.584 40.7053 118.414 39.9353 119.874 39.9353C121.334 39.9353 122.234 40.6553 122.234 41.8753C122.234 42.6453 121.834 43.1553 121.084 43.3953C121.954 43.6453 122.454 44.2953 122.454 45.1953C122.454 46.5353 121.444 47.3553 119.844 47.3553ZM125.89 47.3553C124.32 47.3553 123.27 46.6353 123.27 45.2553C123.27 44.3253 123.81 43.6653 124.68 43.3853C124.01 43.1253 123.56 42.6353 123.56 41.8953C123.56 40.7553 124.49 39.9353 125.89 39.9353C127.29 39.9353 128.22 40.7553 128.22 41.8953C128.22 42.6353 127.77 43.1253 127.09 43.3853C127.97 43.6653 128.51 44.3253 128.51 45.2553C128.51 46.6353 127.46 47.3553 125.89 47.3553ZM125.89 42.8153C126.4 42.8153 126.75 42.5453 126.75 41.9853C126.75 41.4853 126.41 41.1953 125.89 41.1953C125.37 41.1953 125.03 41.4853 125.03 41.9853C125.03 42.5453 125.38 42.8153 125.89 42.8153ZM125.89 46.0953C126.53 46.0953 127.05 45.8153 127.05 45.1153C127.05 44.4453 126.62 44.0253 125.89 44.0253C125.16 44.0253 124.73 44.4453 124.73 45.1153C124.73 45.8153 125.25 46.0953 125.89 46.0953ZM131.886 47.3553C130.316 47.3553 129.266 46.6353 129.266 45.2553C129.266 44.3253 129.806 43.6653 130.676 43.3853C130.006 43.1253 129.556 42.6353 129.556 41.8953C129.556 40.7553 130.486 39.9353 131.886 39.9353C133.286 39.9353 134.216 40.7553 134.216 41.8953C134.216 42.6353 133.766 43.1253 133.086 43.3853C133.966 43.6653 134.506 44.3253 134.506 45.2553C134.506 46.6353 133.456 47.3553 131.886 47.3553ZM131.886 42.8153C132.396 42.8153 132.746 42.5453 132.746 41.9853C132.746 41.4853 132.406 41.1953 131.886 41.1953C131.366 41.1953 131.026 41.4853 131.026 41.9853C131.026 42.5453 131.376 42.8153 131.886 42.8153ZM131.886 46.0953C132.526 46.0953 133.046 45.8153 133.046 45.1153C133.046 44.4453 132.616 44.0253 131.886 44.0253C131.156 44.0253 130.726 44.4453 130.726 45.1153C130.726 45.8153 131.246 46.0953 131.886 46.0953Z" fill="black"/>
<path id="328" d="M455.938 188.098C454.308 188.098 453.498 187.267 453.428 185.977L454.868 185.907C454.928 186.597 455.388 186.837 455.968 186.837C456.598 186.837 457.088 186.537 457.088 185.837C457.088 185.157 456.638 184.797 455.898 184.797H455.368V183.667H455.898C456.458 183.667 456.868 183.417 456.868 182.807C456.868 182.217 456.518 181.927 455.958 181.927C455.338 181.927 455.038 182.237 454.978 182.727L453.538 182.658C453.678 181.447 454.508 180.677 455.968 180.677C457.428 180.677 458.328 181.397 458.328 182.617C458.328 183.387 457.928 183.897 457.178 184.137C458.048 184.387 458.548 185.037 458.548 185.937C458.548 187.278 457.538 188.098 455.938 188.098ZM459.424 187.938C459.424 186.207 460.004 185.197 461.984 184.177C462.714 183.797 463.074 183.517 463.074 182.867C463.074 182.297 462.744 181.937 462.114 181.937C461.394 181.937 461.044 182.357 460.924 183.117L459.454 183.027C459.594 181.577 460.504 180.677 462.134 180.677C463.724 180.677 464.544 181.527 464.544 182.787C464.544 183.927 464.054 184.487 462.654 185.247C461.504 185.867 461.094 186.297 461.054 186.657H464.544V187.938H459.424ZM467.98 188.098C466.41 188.098 465.36 187.377 465.36 185.997C465.36 185.067 465.9 184.407 466.77 184.127C466.1 183.867 465.65 183.377 465.65 182.637C465.65 181.497 466.58 180.677 467.98 180.677C469.38 180.677 470.31 181.497 470.31 182.637C470.31 183.377 469.86 183.867 469.18 184.127C470.06 184.407 470.6 185.067 470.6 185.997C470.6 187.377 469.55 188.098 467.98 188.098ZM467.98 183.557C468.49 183.557 468.84 183.287 468.84 182.727C468.84 182.227 468.5 181.937 467.98 181.937C467.46 181.937 467.12 182.227 467.12 182.727C467.12 183.287 467.47 183.557 467.98 183.557ZM467.98 186.837C468.62 186.837 469.14 186.557 469.14 185.857C469.14 185.187 468.71 184.767 467.98 184.767C467.25 184.767 466.82 185.187 466.82 185.857C466.82 186.557 467.34 186.837 467.98 186.837Z" fill="black"/>
<path id="331" d="M28.5783 178.598C26.9483 178.598 26.1383 177.767 26.0683 176.477L27.5083 176.407C27.5683 177.097 28.0283 177.337 28.6083 177.337C29.2383 177.337 29.7283 177.037 29.7283 176.337C29.7283 175.657 29.2783 175.297 28.5383 175.297H28.0083V174.167H28.5383C29.0983 174.167 29.5083 173.917 29.5083 173.307C29.5083 172.717 29.1583 172.427 28.5983 172.427C27.9783 172.427 27.6783 172.737 27.6183 173.227L26.1783 173.158C26.3183 171.947 27.1483 171.177 28.6083 171.177C30.0683 171.177 30.9683 171.897 30.9683 173.117C30.9683 173.887 30.5683 174.397 29.8183 174.637C30.6883 174.887 31.1883 175.537 31.1883 176.437C31.1883 177.778 30.1783 178.598 28.5783 178.598ZM34.5744 178.598C32.9444 178.598 32.1344 177.767 32.0644 176.477L33.5044 176.407C33.5644 177.097 34.0244 177.337 34.6044 177.337C35.2344 177.337 35.7244 177.037 35.7244 176.337C35.7244 175.657 35.2744 175.297 34.5344 175.297H34.0044V174.167H34.5344C35.0944 174.167 35.5044 173.917 35.5044 173.307C35.5044 172.717 35.1544 172.427 34.5944 172.427C33.9744 172.427 33.6744 172.737 33.6144 173.227L32.1744 173.158C32.3144 171.947 33.1444 171.177 34.6044 171.177C36.0644 171.177 36.9644 171.897 36.9644 173.117C36.9644 173.887 36.5644 174.397 35.8144 174.637C36.6844 174.887 37.1844 175.537 37.1844 176.437C37.1844 177.778 36.1744 178.598 34.5744 178.598ZM38.1005 178.438V177.157H40.1405V173.777H38.4005V172.597H39.1805C39.9805 172.597 40.3205 172.257 40.3205 171.337H41.5605V177.157H43.1405V178.438H38.1005Z" fill="black"/>
</g>
<path id="field" d="M142.904 43.3L238.148 10.6836L362.697 47.7917L487.679 197.779L469.935 202.533L431.471 240.997V248.678L385.858 347.467L297.705 438.457L295.814 436.33L282.246 450.194C264.886 467.934 236.441 468.268 218.669 450.94L201.988 434.676L200.334 436.33L115.489 347.467L69.0485 248.678V240.997L20.7175 192.666V169.033L142.904 43.3Z" fill="#0C2C56" fill-opacity="0.1" fill="none" stroke="#0C2C56" stroke-width="1.002"/>
</g>
<defs>
<clipPath id="clip0_129_7221">
<rect width="500" height="469.94" fill="white"/>
</clipPath>
</defs>
</svg>
