<svg width="500" height="470" viewBox="0 0 500 470" fill="none" xmlns="http://www.w3.org/2000/svg">
<g id="target-field-2010" clip-path="url(#clip0_108_4219)">
<g id="Infield">
<path d="M339.98 327.766C339.453 325.666 322.032 258.479 250.83 258.479C180.238 258.479 162.505 324.538 161.697 327.699C161.677 327.776 161.668 327.816 161.668 327.816L236.504 402.653C235.305 404.912 234.623 407.489 234.623 410.238C234.623 419.186 241.873 426.445 250.83 426.445C259.778 426.445 267.037 419.186 267.037 410.238C267.037 407.489 266.356 404.912 265.156 402.657L260.695 397.375C257.96 395.278 254.544 394.026 250.83 394.026C247.117 394.026 243.701 395.278 240.971 397.37L197.7 354.1C201.448 350.353 201.448 344.277 197.7 340.53C197.698 340.527 197.694 340.525 197.691 340.522L244.055 294.038C247.8 297.773 253.861 297.773 257.606 294.038L303.431 339.984C303.431 339.984 303.427 339.985 303.424 339.988C299.677 343.736 300.275 350.3 304.022 354.047L260.695 397.375L265.156 402.657L339.98 327.766Z" fill="#D2D2D2"/>
<path d="M259.91 345.706C259.91 350.721 255.845 354.787 250.83 354.787C245.815 354.787 241.75 350.721 241.75 345.706C241.75 340.691 245.815 336.626 250.83 336.626C255.845 336.626 259.91 340.691 259.91 345.706Z" fill="#D2D2D2"/>
</g>
<g id="Guides">
<g id="Home">
<circle id="Ellipse 1" cx="250.827" cy="410.419" r="16.0848" fill="#D2D2D2"/>
<circle id="Ellipse 1_2" cx="250.827" cy="410.418" r="1.62919" fill="black"/>
</g>
<g id="First">
<circle id="Ellipse 1_3" cx="311.125" cy="346.532" r="10.1878" fill="#D2D2D2"/>
<circle id="Ellipse 1_4" cx="311.125" cy="346.532" r="1.0319" fill="black"/>
</g>
<g id="Third">
<circle id="Ellipse 1_5" cx="190.34" cy="346.532" r="10.1878" fill="#D2D2D2"/>
<circle id="Ellipse 1_6" cx="190.34" cy="346.532" r="1.0319" fill="black"/>
</g>
<g id="Second">
<circle id="Ellipse 1_7" cx="250.827" cy="286.67" r="10.1878" fill="#D2D2D2"/>
<circle id="Ellipse 1_8" cx="250.827" cy="286.671" r="1.0319" fill="black"/>
</g>
<g id="Mound">
<circle id="Ellipse 1_9" cx="250.827" cy="345.929" r="9.08365" fill="#D2D2D2"/>
<circle id="Ellipse 1_10" cx="250.827" cy="345.93" r="0.920062" fill="black"/>
</g>
</g>
<path id="Foul Lines" d="M484.528 176.963L250.976 410.516L16.0828 175.623" fill="none" stroke="black" stroke-width="1.002"/>
<g id="Measurements">
<path id="411" d="M201.81 7.72266V6.30266H198.64V5.13266L201.62 0.622656H203.24V5.06266H204.08V6.30266H203.24V7.72266H201.81ZM199.98 5.06266H201.81V2.41266L199.98 5.06266ZM204.836 7.72266V6.44266H206.876V3.06266H205.136V1.88266H205.916C206.716 1.88266 207.056 1.54266 207.056 0.622656H208.296V6.44266H209.876V7.72266H204.836ZM210.832 7.72266V6.44266H212.872V3.06266H211.132V1.88266H211.912C212.712 1.88266 213.052 1.54266 213.052 0.622656H214.292V6.44266H215.872V7.72266H210.832Z" fill="black"/>
<path id="403" d="M292.382 15.6309V14.2109H289.212V13.0409L292.192 8.53086H293.812V12.9709H294.652V14.2109H293.812V15.6309H292.382ZM290.552 12.9709H292.382V10.3209L290.552 12.9709ZM297.928 15.7909C296.328 15.7909 295.368 14.3809 295.368 12.0909C295.368 9.79086 296.328 8.37086 297.928 8.37086C299.528 8.37086 300.488 9.79086 300.488 12.0909C300.488 14.3809 299.528 15.7909 297.928 15.7909ZM296.828 12.0909C296.828 12.5209 296.858 12.8909 296.918 13.2009L298.608 10.0109C298.428 9.76086 298.198 9.63086 297.928 9.63086C297.238 9.63086 296.828 10.4509 296.828 12.0909ZM297.928 14.5309C298.618 14.5309 299.028 13.7209 299.028 12.0909C299.028 11.6609 298.998 11.2809 298.938 10.9609L297.248 14.1509C297.428 14.4009 297.658 14.5309 297.928 14.5309ZM303.874 15.7909C302.244 15.7909 301.434 14.9609 301.364 13.6709L302.804 13.6009C302.864 14.2909 303.324 14.5309 303.904 14.5309C304.534 14.5309 305.024 14.2309 305.024 13.5309C305.024 12.8509 304.574 12.4909 303.834 12.4909H303.304V11.3609H303.834C304.394 11.3609 304.804 11.1109 304.804 10.5009C304.804 9.91086 304.454 9.62086 303.894 9.62086C303.274 9.62086 302.974 9.93086 302.914 10.4209L301.474 10.3509C301.614 9.14086 302.444 8.37086 303.904 8.37086C305.364 8.37086 306.264 9.09086 306.264 10.3109C306.264 11.0809 305.864 11.5909 305.114 11.8309C305.984 12.0809 306.484 12.7309 306.484 13.6309C306.484 14.9709 305.474 15.7909 303.874 15.7909Z" fill="black"/>
<path id="365" d="M405.696 84.2049C404.066 84.2049 403.256 83.3749 403.186 82.0849L404.626 82.0149C404.686 82.7049 405.146 82.9449 405.726 82.9449C406.356 82.9449 406.846 82.6449 406.846 81.9449C406.846 81.2649 406.396 80.9049 405.656 80.9049H405.126V79.7749H405.656C406.216 79.7749 406.626 79.5249 406.626 78.9149C406.626 78.3249 406.276 78.0349 405.716 78.0349C405.096 78.0349 404.796 78.3449 404.736 78.8349L403.296 78.7649C403.436 77.5549 404.266 76.7849 405.726 76.7849C407.186 76.7849 408.086 77.5049 408.086 78.7249C408.086 79.4949 407.686 80.0049 406.936 80.2449C407.806 80.4949 408.306 81.1449 408.306 82.0449C408.306 83.3849 407.296 84.2049 405.696 84.2049ZM411.762 84.2049C410.032 84.2049 409.122 83.0349 409.122 80.9749C409.122 78.6249 409.932 76.7849 412.022 76.7849C413.422 76.7849 414.072 77.5449 414.332 78.5649L412.892 78.6649C412.792 78.3049 412.562 78.0449 412.022 78.0449C411.282 78.0449 410.762 78.5549 410.602 79.7749C410.942 79.4749 411.422 79.2549 412.052 79.2549C413.462 79.2549 414.362 80.2049 414.362 81.6349C414.362 83.2149 413.332 84.2049 411.762 84.2049ZM411.732 82.9249C412.482 82.9249 412.902 82.4849 412.902 81.6849C412.902 80.9449 412.522 80.4649 411.792 80.4649C411.052 80.4649 410.582 80.9549 410.582 81.6949C410.582 82.3749 411.002 82.9249 411.732 82.9249ZM417.728 84.2049C416.228 84.2049 415.318 83.3149 415.218 82.1449L416.678 82.0649C416.768 82.6449 417.118 82.9449 417.728 82.9449C418.388 82.9449 418.798 82.5249 418.798 81.7149C418.798 80.9249 418.378 80.4649 417.738 80.4649C417.298 80.4649 416.928 80.7249 416.788 81.0849L415.318 81.0149L415.738 76.9449H419.928V78.2249H416.908L416.728 79.7549C417.058 79.4749 417.498 79.3149 417.978 79.3149C419.388 79.3149 420.258 80.3349 420.258 81.7249C420.258 83.1949 419.258 84.2049 417.728 84.2049Z" fill="black"/>
<path id="377" d="M87.9901 77.2049C86.3601 77.2049 85.5501 76.3749 85.4801 75.0849L86.9201 75.0149C86.9801 75.7049 87.4401 75.9449 88.0201 75.9449C88.6501 75.9449 89.1401 75.6449 89.1401 74.9449C89.1401 74.2649 88.6901 73.9049 87.9501 73.9049H87.4201V72.7749H87.9501C88.5101 72.7749 88.9201 72.5249 88.9201 71.9149C88.9201 71.3249 88.5701 71.0349 88.0101 71.0349C87.3901 71.0349 87.0901 71.3449 87.0301 71.8349L85.5901 71.7649C85.7301 70.5549 86.5601 69.7849 88.0201 69.7849C89.4801 69.7849 90.3801 70.5049 90.3801 71.7249C90.3801 72.4949 89.9801 73.0049 89.2301 73.2449C90.1001 73.4949 90.6001 74.1449 90.6001 75.0449C90.6001 76.3849 89.5901 77.2049 87.9901 77.2049ZM92.7062 77.0449C92.7062 74.8949 93.6062 72.9349 95.0762 71.2249H91.5762V69.9449H96.4962V71.1549C94.8662 73.0149 94.1962 74.6049 94.1962 77.0449H92.7062ZM98.7023 77.0449C98.7023 74.8949 99.6023 72.9349 101.072 71.2249H97.5723V69.9449H102.492V71.1549C100.862 73.0149 100.192 74.6049 100.192 77.0449H98.7023Z" fill="black"/>
<path id="328" d="M454.938 188.098C453.308 188.098 452.498 187.267 452.428 185.977L453.868 185.907C453.928 186.597 454.388 186.837 454.968 186.837C455.598 186.837 456.088 186.537 456.088 185.837C456.088 185.157 455.638 184.797 454.898 184.797H454.368V183.667H454.898C455.458 183.667 455.868 183.417 455.868 182.807C455.868 182.217 455.518 181.927 454.958 181.927C454.338 181.927 454.038 182.237 453.978 182.727L452.538 182.658C452.678 181.447 453.508 180.677 454.968 180.677C456.428 180.677 457.328 181.397 457.328 182.617C457.328 183.387 456.928 183.897 456.178 184.137C457.048 184.387 457.548 185.037 457.548 185.937C457.548 187.278 456.538 188.098 454.938 188.098ZM458.424 187.938C458.424 186.207 459.004 185.197 460.984 184.177C461.714 183.797 462.074 183.517 462.074 182.867C462.074 182.297 461.744 181.937 461.114 181.937C460.394 181.937 460.044 182.357 459.924 183.117L458.454 183.027C458.594 181.577 459.504 180.677 461.134 180.677C462.724 180.677 463.544 181.527 463.544 182.787C463.544 183.927 463.054 184.487 461.654 185.247C460.504 185.867 460.094 186.297 460.054 186.657H463.544V187.938H458.424ZM466.98 188.098C465.41 188.098 464.36 187.377 464.36 185.997C464.36 185.067 464.9 184.407 465.77 184.127C465.1 183.867 464.65 183.377 464.65 182.637C464.65 181.497 465.58 180.677 466.98 180.677C468.38 180.677 469.31 181.497 469.31 182.637C469.31 183.377 468.86 183.867 468.18 184.127C469.06 184.407 469.6 185.067 469.6 185.997C469.6 187.377 468.55 188.098 466.98 188.098ZM466.98 183.557C467.49 183.557 467.84 183.287 467.84 182.727C467.84 182.227 467.5 181.937 466.98 181.937C466.46 181.937 466.12 182.227 466.12 182.727C466.12 183.287 466.47 183.557 466.98 183.557ZM466.98 186.837C467.62 186.837 468.14 186.557 468.14 185.857C468.14 185.187 467.71 184.767 466.98 184.767C466.25 184.767 465.82 185.187 465.82 185.857C465.82 186.557 466.34 186.837 466.98 186.837Z" fill="black"/>
<path id="339" d="M28.5783 178.598C26.9483 178.598 26.1383 177.767 26.0683 176.477L27.5083 176.407C27.5683 177.097 28.0283 177.337 28.6083 177.337C29.2383 177.337 29.7283 177.037 29.7283 176.337C29.7283 175.657 29.2783 175.297 28.5383 175.297H28.0083V174.167H28.5383C29.0983 174.167 29.5083 173.917 29.5083 173.307C29.5083 172.717 29.1583 172.427 28.5983 172.427C27.9783 172.427 27.6783 172.737 27.6183 173.227L26.1783 173.158C26.3183 171.947 27.1483 171.177 28.6083 171.177C30.0683 171.177 30.9683 171.897 30.9683 173.117C30.9683 173.887 30.5683 174.397 29.8183 174.637C30.6883 174.887 31.1883 175.537 31.1883 176.437C31.1883 177.778 30.1783 178.598 28.5783 178.598ZM34.5744 178.598C32.9444 178.598 32.1344 177.767 32.0644 176.477L33.5044 176.407C33.5644 177.097 34.0244 177.337 34.6044 177.337C35.2344 177.337 35.7244 177.037 35.7244 176.337C35.7244 175.657 35.2744 175.297 34.5344 175.297H34.0044V174.167H34.5344C35.0944 174.167 35.5044 173.917 35.5044 173.307C35.5044 172.717 35.1544 172.427 34.5944 172.427C33.9744 172.427 33.6744 172.737 33.6144 173.227L32.1744 173.158C32.3144 171.947 33.1444 171.177 34.6044 171.177C36.0644 171.177 36.9644 171.897 36.9644 173.117C36.9644 173.887 36.5644 174.397 35.8144 174.637C36.6844 174.887 37.1844 175.537 37.1844 176.437C37.1844 177.778 36.1744 178.598 34.5744 178.598ZM40.6005 171.177C42.3305 171.177 43.2405 172.347 43.2405 174.407C43.2405 176.757 42.4305 178.598 40.3405 178.598C38.9405 178.598 38.2905 177.837 38.0305 176.817L39.4705 176.717C39.5705 177.077 39.8005 177.337 40.3405 177.337C41.0805 177.337 41.6005 176.827 41.7605 175.607C41.4205 175.907 40.9405 176.127 40.3105 176.127C38.9005 176.127 38.0005 175.177 38.0005 173.747C38.0005 172.167 39.0305 171.177 40.6005 171.177ZM40.6305 172.457C39.8805 172.457 39.4605 172.897 39.4605 173.697C39.4605 174.437 39.8405 174.917 40.5705 174.917C41.3105 174.917 41.7805 174.427 41.7805 173.687C41.7805 173.007 41.3605 172.457 40.6305 172.457Z" fill="black"/>
</g>
<path id="field" d="M112.079 67.2069L11.8009 181.143L57.443 226.785C62.8915 247.12 77.3574 299.017 98.6452 320.305L222.69 444.35C239.385 461.044 266.533 460.702 282.818 443.608C319.54 405.062 365.284 357.169 375.083 347.371C391.049 331.405 408.62 283.671 415.834 256.745L480.686 190.825L401.847 86.5708L296.036 19.8343L209.912 10.7227L112.079 67.2069Z" fill="#002B5C" fill-opacity="0.1" fill="none" stroke="#002B5C" stroke-width="1.002"/>
</g>
<defs>
<clipPath id="clip0_108_4219">
<rect width="500" height="469.94" fill="white"/>
</clipPath>
</defs>
</svg>
