<svg width="500" height="470" viewBox="0 0 500 470" fill="none" xmlns="http://www.w3.org/2000/svg">
<g id="three-rivers-stadium-1970" clip-path="url(#clip0_120_5873)">
<path id="field" d="M16.0975 181.525C16.0975 139.856 114.997 9.4375 250.83 9.4375H250.834C386.667 9.4375 485.566 139.856 485.566 181.525L435.52 260.918V266.861C435.52 270.759 434.18 274.538 431.726 277.566L329.196 404.041L334.457 409.302L307.973 443.849C279.153 481.444 222.507 481.443 193.689 443.848L167.207 409.302L172.468 404.041L69.938 277.566C67.4833 274.538 66.1438 270.759 66.1438 266.861V260.918L16.0975 181.525Z" fill="#27251F" fill-opacity="0.1" fill="none" stroke="#27251F" stroke-width="1.002"/>
<g id="Infield">
<path d="M339.98 327.764C339.453 325.664 322.032 258.477 250.83 258.477C180.238 258.477 162.505 324.536 161.697 327.697C161.677 327.775 161.668 327.814 161.668 327.814L236.504 402.651C235.305 404.91 234.623 407.487 234.623 410.236C234.623 419.184 241.873 426.443 250.83 426.443C259.778 426.443 267.037 419.184 267.037 410.236C267.037 407.487 266.356 404.91 265.156 402.655L260.695 397.373C257.96 395.276 254.544 394.024 250.83 394.024C247.117 394.024 243.701 395.276 240.971 397.368L197.7 354.098C201.448 350.351 201.448 344.275 197.7 340.528C197.698 340.525 197.694 340.523 197.691 340.52L244.055 294.036C247.8 297.772 253.861 297.772 257.606 294.036L303.431 339.982C303.431 339.982 303.427 339.983 303.424 339.986C299.677 343.734 300.275 350.298 304.022 354.045L260.695 397.373L265.156 402.655L339.98 327.764Z" fill="#D2D2D2"/>
<path d="M259.91 345.704C259.91 350.719 255.845 354.785 250.83 354.785C245.815 354.785 241.75 350.719 241.75 345.704C241.75 340.689 245.815 336.624 250.83 336.624C255.845 336.624 259.91 340.689 259.91 345.704Z" fill="#D2D2D2"/>
</g>
<g id="Guides">
<g id="Home">
<circle id="Ellipse 1" cx="250.827" cy="410.421" r="16.0848" fill="#D2D2D2"/>
<circle id="Ellipse 1_2" cx="250.827" cy="410.422" r="1.62919" fill="black"/>
</g>
<g id="First">
<circle id="Ellipse 1_3" cx="311.125" cy="346.535" r="10.1878" fill="#D2D2D2"/>
<circle id="Ellipse 1_4" cx="311.125" cy="346.536" r="1.0319" fill="black"/>
</g>
<g id="Third">
<circle id="Ellipse 1_5" cx="190.34" cy="346.535" r="10.1878" fill="#D2D2D2"/>
<circle id="Ellipse 1_6" cx="190.34" cy="346.536" r="1.0319" fill="black"/>
</g>
<g id="Second">
<circle id="Ellipse 1_7" cx="250.827" cy="286.672" r="10.1878" fill="#D2D2D2"/>
<circle id="Ellipse 1_8" cx="250.827" cy="286.673" r="1.0319" fill="black"/>
</g>
<g id="Mound">
<circle id="Ellipse 1_9" cx="250.827" cy="345.931" r="9.08365" fill="#D2D2D2"/>
<circle id="Ellipse 1_10" cx="250.827" cy="345.932" r="0.920062" fill="black"/>
</g>
</g>
<path id="Foul Lines" d="M485.065 176.429L250.976 410.518L16.625 176.168" fill="none" stroke="black" stroke-width="1.002"/>
<g id="Measurements">
<path id="410" d="M245.288 4.69922V3.27922H242.118V2.10922L245.098 -2.40078H246.718V2.03922H247.558V3.27922H246.718V4.69922H245.288ZM243.458 2.03922H245.288V-0.610781L243.458 2.03922ZM248.314 4.69922V3.41922H250.354V0.0392185H248.614V-1.14078H249.394C250.194 -1.14078 250.534 -1.48078 250.534 -2.40078H251.774V3.41922H253.354V4.69922H248.314ZM256.83 4.85922C255.23 4.85922 254.27 3.44922 254.27 1.15922C254.27 -1.14078 255.23 -2.56078 256.83 -2.56078C258.43 -2.56078 259.39 -1.14078 259.39 1.15922C259.39 3.44922 258.43 4.85922 256.83 4.85922ZM255.73 1.15922C255.73 1.58922 255.76 1.95922 255.82 2.26922L257.51 -0.920782C257.33 -1.17078 257.1 -1.30078 256.83 -1.30078C256.14 -1.30078 255.73 -0.480781 255.73 1.15922ZM256.83 3.59922C257.52 3.59922 257.93 2.78922 257.93 1.15922C257.93 0.729219 257.9 0.349218 257.84 0.0292187L256.15 3.21922C256.33 3.46922 256.56 3.59922 256.83 3.59922Z" fill="black"/>
<path id="385" d="M94.4993 55.9764C92.8693 55.9764 92.0593 55.1464 91.9893 53.8564L93.4293 53.7864C93.4893 54.4764 93.9493 54.7164 94.5293 54.7164C95.1593 54.7164 95.6493 54.4164 95.6493 53.7164C95.6493 53.0364 95.1993 52.6764 94.4593 52.6764H93.9293V51.5464H94.4593C95.0193 51.5464 95.4293 51.2964 95.4293 50.6864C95.4293 50.0964 95.0793 49.8064 94.5193 49.8064C93.8993 49.8064 93.5993 50.1164 93.5393 50.6064L92.0993 50.5364C92.2393 49.3264 93.0693 48.5564 94.5293 48.5564C95.9893 48.5564 96.8893 49.2764 96.8893 50.4964C96.8893 51.2664 96.4893 51.7764 95.7393 52.0164C96.6093 52.2664 97.1093 52.9164 97.1093 53.8164C97.1093 55.1564 96.0993 55.9764 94.4993 55.9764ZM100.545 55.9764C98.9753 55.9764 97.9253 55.2564 97.9253 53.8764C97.9253 52.9464 98.4653 52.2864 99.3353 52.0064C98.6653 51.7464 98.2153 51.2564 98.2153 50.5164C98.2153 49.3764 99.1453 48.5564 100.545 48.5564C101.945 48.5564 102.875 49.3764 102.875 50.5164C102.875 51.2564 102.425 51.7464 101.745 52.0064C102.625 52.2864 103.165 52.9464 103.165 53.8764C103.165 55.2564 102.115 55.9764 100.545 55.9764ZM100.545 51.4364C101.055 51.4364 101.405 51.1664 101.405 50.6064C101.405 50.1064 101.065 49.8164 100.545 49.8164C100.025 49.8164 99.6853 50.1064 99.6853 50.6064C99.6853 51.1664 100.035 51.4364 100.545 51.4364ZM100.545 54.7164C101.185 54.7164 101.705 54.4364 101.705 53.7364C101.705 53.0664 101.275 52.6464 100.545 52.6464C99.8153 52.6464 99.3853 53.0664 99.3853 53.7364C99.3853 54.4364 99.9053 54.7164 100.545 54.7164ZM106.531 55.9764C105.031 55.9764 104.121 55.0864 104.021 53.9164L105.481 53.8364C105.571 54.4164 105.921 54.7164 106.531 54.7164C107.191 54.7164 107.601 54.2964 107.601 53.4864C107.601 52.6964 107.181 52.2364 106.541 52.2364C106.101 52.2364 105.731 52.4964 105.591 52.8564L104.121 52.7864L104.541 48.7164H108.731V49.9964H105.711L105.531 51.5264C105.861 51.2464 106.301 51.0864 106.781 51.0864C108.191 51.0864 109.061 52.1064 109.061 53.4964C109.061 54.9664 108.061 55.9764 106.531 55.9764Z" fill="black"/>
<path id="385_2" d="M395.777 55.9764C394.147 55.9764 393.337 55.1464 393.267 53.8564L394.707 53.7864C394.767 54.4764 395.227 54.7164 395.807 54.7164C396.437 54.7164 396.927 54.4164 396.927 53.7164C396.927 53.0364 396.477 52.6764 395.737 52.6764H395.207V51.5464H395.737C396.297 51.5464 396.707 51.2964 396.707 50.6864C396.707 50.0964 396.357 49.8064 395.797 49.8064C395.177 49.8064 394.877 50.1164 394.817 50.6064L393.377 50.5364C393.517 49.3264 394.347 48.5564 395.807 48.5564C397.267 48.5564 398.167 49.2764 398.167 50.4964C398.167 51.2664 397.767 51.7764 397.017 52.0164C397.887 52.2664 398.387 52.9164 398.387 53.8164C398.387 55.1564 397.377 55.9764 395.777 55.9764ZM401.823 55.9764C400.253 55.9764 399.203 55.2564 399.203 53.8764C399.203 52.9464 399.743 52.2864 400.613 52.0064C399.943 51.7464 399.493 51.2564 399.493 50.5164C399.493 49.3764 400.423 48.5564 401.823 48.5564C403.223 48.5564 404.153 49.3764 404.153 50.5164C404.153 51.2564 403.703 51.7464 403.023 52.0064C403.903 52.2864 404.443 52.9464 404.443 53.8764C404.443 55.2564 403.393 55.9764 401.823 55.9764ZM401.823 51.4364C402.333 51.4364 402.683 51.1664 402.683 50.6064C402.683 50.1064 402.343 49.8164 401.823 49.8164C401.303 49.8164 400.963 50.1064 400.963 50.6064C400.963 51.1664 401.313 51.4364 401.823 51.4364ZM401.823 54.7164C402.463 54.7164 402.983 54.4364 402.983 53.7364C402.983 53.0664 402.553 52.6464 401.823 52.6464C401.093 52.6464 400.663 53.0664 400.663 53.7364C400.663 54.4364 401.183 54.7164 401.823 54.7164ZM407.809 55.9764C406.309 55.9764 405.399 55.0864 405.299 53.9164L406.759 53.8364C406.849 54.4164 407.199 54.7164 407.809 54.7164C408.469 54.7164 408.879 54.2964 408.879 53.4864C408.879 52.6964 408.459 52.2364 407.819 52.2364C407.379 52.2364 407.009 52.4964 406.869 52.8564L405.399 52.7864L405.819 48.7164H410.009V49.9964H406.989L406.809 51.5264C407.139 51.2464 407.579 51.0864 408.059 51.0864C409.469 51.0864 410.339 52.1064 410.339 53.4964C410.339 54.9664 409.339 55.9764 407.809 55.9764Z" fill="black"/>
<path id="340" d="M26.1128 175.785C24.4828 175.785 23.6728 174.955 23.6028 173.665L25.0428 173.595C25.1028 174.285 25.5628 174.525 26.1428 174.525C26.7728 174.525 27.2628 174.225 27.2628 173.525C27.2628 172.845 26.8128 172.485 26.0728 172.485H25.5428V171.355H26.0728C26.6328 171.355 27.0428 171.105 27.0428 170.495C27.0428 169.905 26.6928 169.615 26.1328 169.615C25.5128 169.615 25.2128 169.925 25.1528 170.415L23.7128 170.345C23.8528 169.135 24.6828 168.365 26.1428 168.365C27.6028 168.365 28.5028 169.085 28.5028 170.305C28.5028 171.075 28.1028 171.585 27.3528 171.825C28.2228 172.075 28.7228 172.725 28.7228 173.625C28.7228 174.965 27.7128 175.785 26.1128 175.785ZM32.6089 175.625V174.205H29.4389V173.035L32.4189 168.525H34.0389V172.965H34.8789V174.205H34.0389V175.625H32.6089ZM30.7789 172.965H32.6089V170.315L30.7789 172.965ZM38.155 175.785C36.555 175.785 35.595 174.375 35.595 172.085C35.595 169.785 36.555 168.365 38.155 168.365C39.755 168.365 40.715 169.785 40.715 172.085C40.715 174.375 39.755 175.785 38.155 175.785ZM37.055 172.085C37.055 172.515 37.085 172.885 37.145 173.195L38.835 170.005C38.655 169.755 38.425 169.625 38.155 169.625C37.465 169.625 37.055 170.445 37.055 172.085ZM38.155 174.525C38.845 174.525 39.255 173.715 39.255 172.085C39.255 171.655 39.225 171.275 39.165 170.955L37.475 174.145C37.655 174.395 37.885 174.525 38.155 174.525Z" fill="black"/>
<path id="340_2" d="M464.298 175.785C462.668 175.785 461.858 174.955 461.788 173.665L463.228 173.595C463.288 174.285 463.748 174.525 464.328 174.525C464.958 174.525 465.448 174.225 465.448 173.525C465.448 172.845 464.998 172.485 464.258 172.485H463.728V171.355H464.258C464.818 171.355 465.228 171.105 465.228 170.495C465.228 169.905 464.878 169.615 464.318 169.615C463.698 169.615 463.398 169.925 463.338 170.415L461.898 170.345C462.038 169.135 462.868 168.365 464.328 168.365C465.788 168.365 466.688 169.085 466.688 170.305C466.688 171.075 466.288 171.585 465.538 171.825C466.408 172.075 466.908 172.725 466.908 173.625C466.908 174.965 465.898 175.785 464.298 175.785ZM470.794 175.625V174.205H467.624V173.035L470.604 168.525H472.224V172.965H473.064V174.205H472.224V175.625H470.794ZM468.964 172.965H470.794V170.315L468.964 172.965ZM476.34 175.785C474.74 175.785 473.78 174.375 473.78 172.085C473.78 169.785 474.74 168.365 476.34 168.365C477.94 168.365 478.9 169.785 478.9 172.085C478.9 174.375 477.94 175.785 476.34 175.785ZM475.24 172.085C475.24 172.515 475.27 172.885 475.33 173.195L477.02 170.005C476.84 169.755 476.61 169.625 476.34 169.625C475.65 169.625 475.24 170.445 475.24 172.085ZM476.34 174.525C477.03 174.525 477.44 173.715 477.44 172.085C477.44 171.655 477.41 171.275 477.35 170.955L475.66 174.145C475.84 174.395 476.07 174.525 476.34 174.525Z" fill="black"/>
</g>
</g>
<defs>
<clipPath id="clip0_120_5873">
<rect width="500" height="469.94" fill="white"/>
</clipPath>
</defs>
</svg>
