<svg width="500" height="470" viewBox="0 0 500 470" fill="none" xmlns="http://www.w3.org/2000/svg">
<g id="three-rivers-stadium-1975" clip-path="url(#clip0_120_5927)">
<path id="field" d="M17.0975 184.525C17.0975 142.856 114.997 19.4375 250.83 19.4375H250.834C386.667 19.4375 483.733 143.944 483.733 185.613L435.52 260.918V266.861C435.52 270.759 434.18 274.538 431.726 277.566L329.196 404.041L334.457 409.302L307.973 443.849C279.153 481.444 222.508 481.443 193.689 443.848L167.207 409.302L172.468 404.041L69.938 277.566C67.4833 274.538 66.1438 270.759 66.1438 266.861V260.918L17.0975 184.525Z" fill="#27251F" fill-opacity="0.1" fill="none" stroke="#27251F" stroke-width="1.002"/>
<g id="Infield">
<path d="M339.98 327.764C339.453 325.664 322.032 258.477 250.83 258.477C180.238 258.477 162.505 324.536 161.697 327.697C161.677 327.775 161.668 327.814 161.668 327.814L236.504 402.651C235.305 404.91 234.623 407.487 234.623 410.236C234.623 419.184 241.873 426.443 250.83 426.443C259.778 426.443 267.037 419.184 267.037 410.236C267.037 407.487 266.356 404.91 265.156 402.655L260.695 397.373C257.96 395.276 254.544 394.024 250.83 394.024C247.117 394.024 243.701 395.276 240.971 397.368L197.7 354.098C201.448 350.351 201.448 344.275 197.7 340.528C197.698 340.525 197.694 340.523 197.691 340.52L244.055 294.036C247.8 297.772 253.861 297.772 257.606 294.036L303.431 339.982C303.431 339.982 303.427 339.983 303.424 339.986C299.677 343.734 300.275 350.298 304.022 354.045L260.695 397.373L265.156 402.655L339.98 327.764Z" fill="#D2D2D2"/>
<path d="M259.91 345.704C259.91 350.719 255.845 354.785 250.83 354.785C245.815 354.785 241.75 350.719 241.75 345.704C241.75 340.689 245.815 336.624 250.83 336.624C255.845 336.624 259.91 340.689 259.91 345.704Z" fill="#D2D2D2"/>
</g>
<g id="Guides">
<g id="Home">
<circle id="Ellipse 1" cx="250.827" cy="410.421" r="16.0848" fill="#D2D2D2"/>
<circle id="Ellipse 1_2" cx="250.827" cy="410.422" r="1.62919" fill="black"/>
</g>
<g id="First">
<circle id="Ellipse 1_3" cx="311.125" cy="346.535" r="10.1878" fill="#D2D2D2"/>
<circle id="Ellipse 1_4" cx="311.125" cy="346.536" r="1.0319" fill="black"/>
</g>
<g id="Third">
<circle id="Ellipse 1_5" cx="190.34" cy="346.535" r="10.1878" fill="#D2D2D2"/>
<circle id="Ellipse 1_6" cx="190.34" cy="346.536" r="1.0319" fill="black"/>
</g>
<g id="Second">
<circle id="Ellipse 1_7" cx="250.827" cy="286.672" r="10.1878" fill="#D2D2D2"/>
<circle id="Ellipse 1_8" cx="250.827" cy="286.673" r="1.0319" fill="black"/>
</g>
<g id="Mound">
<circle id="Ellipse 1_9" cx="250.827" cy="345.931" r="9.08365" fill="#D2D2D2"/>
<circle id="Ellipse 1_10" cx="250.827" cy="345.932" r="0.920062" fill="black"/>
</g>
</g>
<path id="Foul Lines" d="M482.936 178.558L250.976 410.519L17.8081 177.352" fill="none" stroke="black" stroke-width="1.002"/>
<g id="Measurements">
<path id="400" d="M245.288 13.6992V12.2792H242.118V11.1092L245.098 6.59922H246.718V11.0392H247.558V12.2792H246.718V13.6992H245.288ZM243.458 11.0392H245.288V8.38922L243.458 11.0392ZM250.834 13.8592C249.234 13.8592 248.274 12.4492 248.274 10.1592C248.274 7.85922 249.234 6.43922 250.834 6.43922C252.434 6.43922 253.394 7.85922 253.394 10.1592C253.394 12.4492 252.434 13.8592 250.834 13.8592ZM249.734 10.1592C249.734 10.5892 249.764 10.9592 249.824 11.2692L251.514 8.07922C251.334 7.82922 251.104 7.69922 250.834 7.69922C250.144 7.69922 249.734 8.51922 249.734 10.1592ZM250.834 12.5992C251.524 12.5992 251.934 11.7892 251.934 10.1592C251.934 9.72922 251.904 9.34922 251.844 9.02922L250.154 12.2192C250.334 12.4692 250.564 12.5992 250.834 12.5992ZM256.83 13.8592C255.23 13.8592 254.27 12.4492 254.27 10.1592C254.27 7.85922 255.23 6.43922 256.83 6.43922C258.43 6.43922 259.39 7.85922 259.39 10.1592C259.39 12.4492 258.43 13.8592 256.83 13.8592ZM255.73 10.1592C255.73 10.5892 255.76 10.9592 255.82 11.2692L257.51 8.07922C257.33 7.82922 257.1 7.69922 256.83 7.69922C256.14 7.69922 255.73 8.51922 255.73 10.1592ZM256.83 12.5992C257.52 12.5992 257.93 11.7892 257.93 10.1592C257.93 9.72922 257.9 9.34922 257.84 9.02922L256.15 12.2192C256.33 12.4692 256.56 12.5992 256.83 12.5992Z" fill="black"/>
<path id="375" d="M94.4993 63.9764C92.8693 63.9764 92.0593 63.1464 91.9893 61.8564L93.4293 61.7864C93.4893 62.4764 93.9493 62.7164 94.5293 62.7164C95.1593 62.7164 95.6493 62.4164 95.6493 61.7164C95.6493 61.0364 95.1993 60.6764 94.4593 60.6764H93.9293V59.5464H94.4593C95.0193 59.5464 95.4293 59.2964 95.4293 58.6864C95.4293 58.0964 95.0793 57.8064 94.5193 57.8064C93.8993 57.8064 93.5993 58.1164 93.5393 58.6064L92.0993 58.5364C92.2393 57.3264 93.0693 56.5564 94.5293 56.5564C95.9893 56.5564 96.8893 57.2764 96.8893 58.4964C96.8893 59.2664 96.4893 59.7764 95.7393 60.0164C96.6093 60.2664 97.1093 60.9164 97.1093 61.8164C97.1093 63.1564 96.0993 63.9764 94.4993 63.9764ZM99.2153 63.8164C99.2153 61.6664 100.115 59.7064 101.585 57.9964H98.0853V56.7164H103.005V57.9264C101.375 59.7864 100.705 61.3764 100.705 63.8164H99.2153ZM106.531 63.9764C105.031 63.9764 104.121 63.0864 104.021 61.9164L105.481 61.8364C105.571 62.4164 105.921 62.7164 106.531 62.7164C107.191 62.7164 107.601 62.2964 107.601 61.4864C107.601 60.6964 107.181 60.2364 106.541 60.2364C106.101 60.2364 105.731 60.4964 105.591 60.8564L104.121 60.7864L104.541 56.7164H108.731V57.9964H105.711L105.531 59.5264C105.861 59.2464 106.301 59.0864 106.781 59.0864C108.191 59.0864 109.061 60.1064 109.061 61.4964C109.061 62.9664 108.061 63.9764 106.531 63.9764Z" fill="black"/>
<path id="375_2" d="M395.777 63.9764C394.147 63.9764 393.337 63.1464 393.267 61.8564L394.707 61.7864C394.767 62.4764 395.227 62.7164 395.807 62.7164C396.437 62.7164 396.927 62.4164 396.927 61.7164C396.927 61.0364 396.477 60.6764 395.737 60.6764H395.207V59.5464H395.737C396.297 59.5464 396.707 59.2964 396.707 58.6864C396.707 58.0964 396.357 57.8064 395.797 57.8064C395.177 57.8064 394.877 58.1164 394.817 58.6064L393.377 58.5364C393.517 57.3264 394.347 56.5564 395.807 56.5564C397.267 56.5564 398.167 57.2764 398.167 58.4964C398.167 59.2664 397.767 59.7764 397.017 60.0164C397.887 60.2664 398.387 60.9164 398.387 61.8164C398.387 63.1564 397.377 63.9764 395.777 63.9764ZM400.493 63.8164C400.493 61.6664 401.393 59.7064 402.863 57.9964H399.363V56.7164H404.283V57.9264C402.653 59.7864 401.983 61.3764 401.983 63.8164H400.493ZM407.809 63.9764C406.309 63.9764 405.399 63.0864 405.299 61.9164L406.759 61.8364C406.849 62.4164 407.199 62.7164 407.809 62.7164C408.469 62.7164 408.879 62.2964 408.879 61.4864C408.879 60.6964 408.459 60.2364 407.819 60.2364C407.379 60.2364 407.009 60.4964 406.869 60.8564L405.399 60.7864L405.819 56.7164H410.009V57.9964H406.989L406.809 59.5264C407.139 59.2464 407.579 59.0864 408.059 59.0864C409.469 59.0864 410.339 60.1064 410.339 61.4964C410.339 62.9664 409.339 63.9764 407.809 63.9764Z" fill="black"/>
<path id="335" d="M26.1128 177.785C24.4828 177.785 23.6728 176.955 23.6028 175.665L25.0428 175.595C25.1028 176.285 25.5628 176.525 26.1428 176.525C26.7728 176.525 27.2628 176.225 27.2628 175.525C27.2628 174.845 26.8128 174.485 26.0728 174.485H25.5428V173.355H26.0728C26.6328 173.355 27.0428 173.105 27.0428 172.495C27.0428 171.905 26.6928 171.615 26.1328 171.615C25.5128 171.615 25.2128 171.925 25.1528 172.415L23.7128 172.345C23.8528 171.135 24.6828 170.365 26.1428 170.365C27.6028 170.365 28.5028 171.085 28.5028 172.305C28.5028 173.075 28.1028 173.585 27.3528 173.825C28.2228 174.075 28.7228 174.725 28.7228 175.625C28.7228 176.965 27.7128 177.785 26.1128 177.785ZM32.1089 177.785C30.4789 177.785 29.6689 176.955 29.5989 175.665L31.0389 175.595C31.0989 176.285 31.5589 176.525 32.1389 176.525C32.7689 176.525 33.2589 176.225 33.2589 175.525C33.2589 174.845 32.8089 174.485 32.0689 174.485H31.5389V173.355H32.0689C32.6289 173.355 33.0389 173.105 33.0389 172.495C33.0389 171.905 32.6889 171.615 32.1289 171.615C31.5089 171.615 31.2089 171.925 31.1489 172.415L29.7089 172.345C29.8489 171.135 30.6789 170.365 32.1389 170.365C33.5989 170.365 34.4989 171.085 34.4989 172.305C34.4989 173.075 34.0989 173.585 33.3489 173.825C34.2189 174.075 34.7189 174.725 34.7189 175.625C34.7189 176.965 33.7089 177.785 32.1089 177.785ZM38.145 177.785C36.645 177.785 35.735 176.895 35.635 175.725L37.095 175.645C37.185 176.225 37.535 176.525 38.145 176.525C38.805 176.525 39.215 176.105 39.215 175.295C39.215 174.505 38.795 174.045 38.155 174.045C37.715 174.045 37.345 174.305 37.205 174.665L35.735 174.595L36.155 170.525H40.345V171.805H37.325L37.145 173.335C37.475 173.055 37.915 172.895 38.395 172.895C39.805 172.895 40.675 173.915 40.675 175.305C40.675 176.775 39.675 177.785 38.145 177.785Z" fill="black"/>
<path id="335_2" d="M464.298 177.785C462.668 177.785 461.858 176.955 461.788 175.665L463.228 175.595C463.288 176.285 463.748 176.525 464.328 176.525C464.958 176.525 465.448 176.225 465.448 175.525C465.448 174.845 464.998 174.485 464.258 174.485H463.728V173.355H464.258C464.818 173.355 465.228 173.105 465.228 172.495C465.228 171.905 464.878 171.615 464.318 171.615C463.698 171.615 463.398 171.925 463.338 172.415L461.898 172.345C462.038 171.135 462.868 170.365 464.328 170.365C465.788 170.365 466.688 171.085 466.688 172.305C466.688 173.075 466.288 173.585 465.538 173.825C466.408 174.075 466.908 174.725 466.908 175.625C466.908 176.965 465.898 177.785 464.298 177.785ZM470.294 177.785C468.664 177.785 467.854 176.955 467.784 175.665L469.224 175.595C469.284 176.285 469.744 176.525 470.324 176.525C470.954 176.525 471.444 176.225 471.444 175.525C471.444 174.845 470.994 174.485 470.254 174.485H469.724V173.355H470.254C470.814 173.355 471.224 173.105 471.224 172.495C471.224 171.905 470.874 171.615 470.314 171.615C469.694 171.615 469.394 171.925 469.334 172.415L467.894 172.345C468.034 171.135 468.864 170.365 470.324 170.365C471.784 170.365 472.684 171.085 472.684 172.305C472.684 173.075 472.284 173.585 471.534 173.825C472.404 174.075 472.904 174.725 472.904 175.625C472.904 176.965 471.894 177.785 470.294 177.785ZM476.33 177.785C474.83 177.785 473.92 176.895 473.82 175.725L475.28 175.645C475.37 176.225 475.72 176.525 476.33 176.525C476.99 176.525 477.4 176.105 477.4 175.295C477.4 174.505 476.98 174.045 476.34 174.045C475.9 174.045 475.53 174.305 475.39 174.665L473.92 174.595L474.34 170.525H478.53V171.805H475.51L475.33 173.335C475.66 173.055 476.1 172.895 476.58 172.895C477.99 172.895 478.86 173.915 478.86 175.305C478.86 176.775 477.86 177.785 476.33 177.785Z" fill="black"/>
</g>
</g>
<defs>
<clipPath id="clip0_120_5927">
<rect width="500" height="469.94" fill="white"/>
</clipPath>
</defs>
</svg>
