<svg width="500" height="470" viewBox="0 0 500 470" fill="none" xmlns="http://www.w3.org/2000/svg">
<g id="tiger-stadium-1912" clip-path="url(#clip0_91_2224)">
<g id="Infield">
<path d="M339.98 327.548C339.453 325.449 322.032 258.261 250.83 258.261C180.238 258.261 162.505 324.32 161.697 327.481C161.677 327.559 161.668 327.599 161.668 327.599L236.504 402.435C235.305 404.694 234.623 407.271 234.623 410.02C234.623 418.968 241.873 426.227 250.83 426.227C259.778 426.227 267.037 418.968 267.037 410.02C267.037 407.271 266.356 404.694 265.157 402.44L260.695 397.157C257.96 395.06 254.544 393.808 250.83 393.808C247.117 393.808 243.701 395.06 240.971 397.152L197.7 353.882C201.448 350.135 201.448 344.059 197.7 340.312C197.698 340.309 197.694 340.307 197.691 340.304L244.055 293.82C247.8 297.556 253.861 297.556 257.606 293.82L303.431 339.766C303.431 339.766 303.427 339.768 303.424 339.771C299.677 343.518 300.275 350.082 304.022 353.829L260.695 397.157L265.157 402.44L339.98 327.548Z" fill="#D2D2D2"/>
<path d="M259.91 345.488C259.91 350.503 255.845 354.569 250.83 354.569C245.815 354.569 241.75 350.503 241.75 345.488C241.75 340.474 245.815 336.408 250.83 336.408C255.845 336.408 259.91 340.474 259.91 345.488Z" fill="#D2D2D2"/>
</g>
<g id="Guides">
<g id="Home">
<circle id="Ellipse 1" cx="250.827" cy="410.203" r="16.0848" fill="#D2D2D2"/>
<circle id="Ellipse 1_2" cx="250.827" cy="410.203" r="1.62919" fill="black"/>
</g>
<g id="First">
<circle id="Ellipse 1_3" cx="311.125" cy="346.315" r="10.1878" fill="#D2D2D2"/>
<circle id="Ellipse 1_4" cx="311.125" cy="346.315" r="1.0319" fill="black"/>
</g>
<g id="Third">
<circle id="Ellipse 1_5" cx="190.34" cy="346.315" r="10.1878" fill="#D2D2D2"/>
<circle id="Ellipse 1_6" cx="190.34" cy="346.315" r="1.0319" fill="black"/>
</g>
<g id="Second">
<circle id="Ellipse 1_7" cx="250.827" cy="286.453" r="10.1878" fill="#D2D2D2"/>
<circle id="Ellipse 1_8" cx="250.827" cy="286.454" r="1.0319" fill="black"/>
</g>
<g id="Mound">
<circle id="Ellipse 1_9" cx="250.827" cy="345.712" r="9.08365" fill="#D2D2D2"/>
<circle id="Ellipse 1_10" cx="250.827" cy="345.712" r="0.920062" fill="black"/>
</g>
</g>
<path id="Foul Lines" d="M508.087 153.783L250.976 410.299L16.0829 175.406" fill="none" stroke="black" stroke-width="1.002"/>
<g id="Measurements">
<path id="371" d="M485.938 156.882C484.308 156.882 483.498 156.052 483.428 154.762L484.868 154.692C484.928 155.382 485.388 155.622 485.968 155.622C486.598 155.622 487.088 155.322 487.088 154.622C487.088 153.942 486.638 153.582 485.898 153.582H485.368V152.452H485.898C486.458 152.452 486.868 152.202 486.868 151.592C486.868 151.002 486.518 150.712 485.958 150.712C485.338 150.712 485.038 151.022 484.978 151.512L483.538 151.442C483.678 150.232 484.508 149.462 485.968 149.462C487.428 149.462 488.328 150.182 488.328 151.402C488.328 152.172 487.928 152.682 487.178 152.922C488.048 153.172 488.548 153.822 488.548 154.722C488.548 156.062 487.538 156.882 485.938 156.882ZM490.654 156.722C490.654 154.572 491.554 152.612 493.024 150.902H489.524V149.622H494.444V150.832C492.814 152.692 492.144 154.282 492.144 156.722H490.654ZM495.46 156.722V155.442H497.5V152.062H495.76V150.882H496.54C497.34 150.882 497.68 150.542 497.68 149.622H498.92V155.442H500.5V156.722H495.46Z" fill="black"/>
<path id="341" d="M28.5783 178.382C26.9483 178.382 26.1383 177.552 26.0683 176.262L27.5083 176.192C27.5683 176.882 28.0283 177.122 28.6083 177.122C29.2383 177.122 29.7283 176.822 29.7283 176.122C29.7283 175.442 29.2783 175.082 28.5383 175.082H28.0083V173.952H28.5383C29.0983 173.952 29.5083 173.702 29.5083 173.092C29.5083 172.502 29.1583 172.212 28.5983 172.212C27.9783 172.212 27.6783 172.522 27.6183 173.012L26.1783 172.942C26.3183 171.732 27.1483 170.962 28.6083 170.962C30.0683 170.962 30.9683 171.682 30.9683 172.902C30.9683 173.672 30.5683 174.182 29.8183 174.422C30.6883 174.672 31.1883 175.322 31.1883 176.222C31.1883 177.562 30.1783 178.382 28.5783 178.382ZM35.0744 178.222V176.802H31.9044V175.632L34.8844 171.122H36.5044V175.562H37.3444V176.802H36.5044V178.222H35.0744ZM33.2444 175.562H35.0744V172.912L33.2444 175.562ZM38.1005 178.222V176.942H40.1405V173.562H38.4005V172.382H39.1805C39.9805 172.382 40.3205 172.042 40.3205 171.122H41.5605V176.942H43.1405V178.222H38.1005Z" fill="black"/>
</g>
<path id="field" d="M268.168 -47.5957L412.257 114.614L446.781 84.8645L512.157 158.32L425.548 333.847L417.845 335.291L282.562 456.354C260.701 475.917 227.106 474 207.612 452.077L89.0106 318.694L80.682 316.463L9.77638 181.078L268.168 -47.5957Z" fill="#FA4616" fill-opacity="0.1" fill="none" stroke="#FA4616" stroke-width="1.002"/>
</g>
<defs>
<clipPath id="clip0_91_2224">
<rect width="500" height="469.94" fill="white"/>
</clipPath>
</defs>
</svg>
