<svg width="500" height="470" viewBox="0 0 500 470" fill="none" xmlns="http://www.w3.org/2000/svg">
<g id="tiger-stadium-1934" clip-path="url(#clip0_92_2254)">
<g id="Infield">
<path d="M339.98 327.548C339.453 325.449 322.032 258.261 250.83 258.261C180.238 258.261 162.505 324.32 161.697 327.481C161.677 327.559 161.668 327.599 161.668 327.599L236.504 402.435C235.305 404.694 234.623 407.271 234.623 410.02C234.623 418.968 241.873 426.227 250.83 426.227C259.778 426.227 267.037 418.968 267.037 410.02C267.037 407.271 266.356 404.694 265.157 402.44L260.695 397.157C257.96 395.06 254.544 393.808 250.83 393.808C247.117 393.808 243.701 395.06 240.971 397.152L197.7 353.882C201.448 350.135 201.448 344.059 197.7 340.312C197.698 340.309 197.694 340.307 197.691 340.304L244.055 293.82C247.8 297.556 253.861 297.556 257.606 293.82L303.431 339.766C303.431 339.766 303.427 339.768 303.424 339.771C299.677 343.518 300.275 350.082 304.022 353.829L260.695 397.157L265.157 402.44L339.98 327.548Z" fill="#D2D2D2"/>
<path d="M259.91 345.488C259.91 350.503 255.845 354.569 250.83 354.569C245.815 354.569 241.75 350.503 241.75 345.488C241.75 340.474 245.815 336.408 250.83 336.408C255.845 336.408 259.91 340.474 259.91 345.488Z" fill="#D2D2D2"/>
</g>
<g id="Guides">
<g id="Home">
<circle id="Ellipse 1" cx="250.827" cy="410.203" r="16.0848" fill="#D2D2D2"/>
<circle id="Ellipse 1_2" cx="250.827" cy="410.203" r="1.62919" fill="black"/>
</g>
<g id="First">
<circle id="Ellipse 1_3" cx="311.125" cy="346.315" r="10.1878" fill="#D2D2D2"/>
<circle id="Ellipse 1_4" cx="311.125" cy="346.315" r="1.0319" fill="black"/>
</g>
<g id="Third">
<circle id="Ellipse 1_5" cx="190.34" cy="346.315" r="10.1878" fill="#D2D2D2"/>
<circle id="Ellipse 1_6" cx="190.34" cy="346.315" r="1.0319" fill="black"/>
</g>
<g id="Second">
<circle id="Ellipse 1_7" cx="250.827" cy="286.453" r="10.1878" fill="#D2D2D2"/>
<circle id="Ellipse 1_8" cx="250.827" cy="286.454" r="1.0319" fill="black"/>
</g>
<g id="Mound">
<circle id="Ellipse 1_9" cx="250.827" cy="345.712" r="9.08365" fill="#D2D2D2"/>
<circle id="Ellipse 1_10" cx="250.827" cy="345.712" r="0.920062" fill="black"/>
</g>
</g>
<path id="Foul Lines" d="M506.143 155.132L250.976 410.299L16.4394 177.024" fill="none" stroke="black" stroke-width="1.002"/>
<g id="Measurements">
<path id="397" d="M222.703 29.6424C221.073 29.6424 220.263 28.8124 220.193 27.5224L221.633 27.4524C221.693 28.1424 222.153 28.3824 222.733 28.3824C223.363 28.3824 223.853 28.0824 223.853 27.3824C223.853 26.7024 223.403 26.3424 222.663 26.3424H222.133V25.2124H222.663C223.223 25.2124 223.633 24.9624 223.633 24.3524C223.633 23.7624 223.283 23.4724 222.723 23.4724C222.103 23.4724 221.803 23.7824 221.743 24.2724L220.303 24.2024C220.443 22.9924 221.273 22.2224 222.733 22.2224C224.193 22.2224 225.093 22.9424 225.093 24.1624C225.093 24.9324 224.693 25.4424 223.943 25.6824C224.813 25.9324 225.313 26.5824 225.313 27.4824C225.313 28.8224 224.303 29.6424 222.703 29.6424ZM228.729 22.2224C230.459 22.2224 231.369 23.3924 231.369 25.4524C231.369 27.8024 230.559 29.6424 228.469 29.6424C227.069 29.6424 226.419 28.8824 226.159 27.8624L227.599 27.7624C227.699 28.1224 227.929 28.3824 228.469 28.3824C229.209 28.3824 229.729 27.8724 229.889 26.6524C229.549 26.9524 229.069 27.1724 228.439 27.1724C227.029 27.1724 226.129 26.2224 226.129 24.7924C226.129 23.2124 227.159 22.2224 228.729 22.2224ZM228.759 23.5024C228.009 23.5024 227.589 23.9424 227.589 24.7424C227.589 25.4824 227.969 25.9624 228.699 25.9624C229.439 25.9624 229.909 25.4724 229.909 24.7324C229.909 24.0524 229.489 23.5024 228.759 23.5024ZM233.415 29.4824C233.415 27.3324 234.315 25.3724 235.785 23.6624H232.285V22.3824H237.205V23.5924C235.575 25.4524 234.905 27.0424 234.905 29.4824H233.415Z" fill="black"/>
<path id="367" d="M485.938 159.882C484.308 159.882 483.498 159.052 483.428 157.762L484.868 157.692C484.928 158.382 485.388 158.622 485.968 158.622C486.598 158.622 487.088 158.322 487.088 157.622C487.088 156.942 486.638 156.582 485.898 156.582H485.368V155.452H485.898C486.458 155.452 486.868 155.202 486.868 154.592C486.868 154.002 486.518 153.712 485.958 153.712C485.338 153.712 485.038 154.022 484.978 154.512L483.538 154.442C483.678 153.232 484.508 152.462 485.968 152.462C487.428 152.462 488.328 153.182 488.328 154.402C488.328 155.172 487.928 155.682 487.178 155.922C488.048 156.172 488.548 156.822 488.548 157.722C488.548 159.062 487.538 159.882 485.938 159.882ZM492.004 159.882C490.274 159.882 489.364 158.712 489.364 156.652C489.364 154.302 490.174 152.462 492.264 152.462C493.664 152.462 494.314 153.222 494.574 154.242L493.134 154.342C493.034 153.982 492.804 153.722 492.264 153.722C491.524 153.722 491.004 154.232 490.844 155.452C491.184 155.152 491.664 154.932 492.294 154.932C493.704 154.932 494.604 155.882 494.604 157.312C494.604 158.892 493.574 159.882 492.004 159.882ZM491.974 158.602C492.724 158.602 493.144 158.162 493.144 157.362C493.144 156.622 492.764 156.142 492.034 156.142C491.294 156.142 490.824 156.632 490.824 157.372C490.824 158.052 491.244 158.602 491.974 158.602ZM496.65 159.722C496.65 157.572 497.55 155.612 499.02 153.902H495.52V152.622H500.44V153.832C498.81 155.692 498.14 157.282 498.14 159.722H496.65Z" fill="black"/>
<path id="339" d="M6.5783 172.382C4.9483 172.382 4.1383 171.552 4.0683 170.262L5.5083 170.192C5.5683 170.882 6.0283 171.122 6.6083 171.122C7.2383 171.122 7.7283 170.822 7.7283 170.122C7.7283 169.442 7.2783 169.082 6.5383 169.082H6.0083V167.952H6.5383C7.0983 167.952 7.5083 167.702 7.5083 167.092C7.5083 166.502 7.1583 166.212 6.5983 166.212C5.9783 166.212 5.6783 166.522 5.6183 167.012L4.1783 166.942C4.3183 165.732 5.1483 164.962 6.6083 164.962C8.0683 164.962 8.9683 165.682 8.9683 166.902C8.9683 167.672 8.5683 168.182 7.8183 168.422C8.6883 168.672 9.1883 169.322 9.1883 170.222C9.1883 171.562 8.1783 172.382 6.5783 172.382ZM12.5744 172.382C10.9444 172.382 10.1344 171.552 10.0644 170.262L11.5044 170.192C11.5644 170.882 12.0244 171.122 12.6044 171.122C13.2344 171.122 13.7244 170.822 13.7244 170.122C13.7244 169.442 13.2744 169.082 12.5344 169.082H12.0044V167.952H12.5344C13.0944 167.952 13.5044 167.702 13.5044 167.092C13.5044 166.502 13.1544 166.212 12.5944 166.212C11.9744 166.212 11.6744 166.522 11.6144 167.012L10.1744 166.942C10.3144 165.732 11.1444 164.962 12.6044 164.962C14.0644 164.962 14.9644 165.682 14.9644 166.902C14.9644 167.672 14.5644 168.182 13.8144 168.422C14.6844 168.672 15.1844 169.322 15.1844 170.222C15.1844 171.562 14.1744 172.382 12.5744 172.382ZM18.6005 164.962C20.3305 164.962 21.2405 166.132 21.2405 168.192C21.2405 170.542 20.4305 172.382 18.3405 172.382C16.9405 172.382 16.2905 171.622 16.0305 170.602L17.4705 170.502C17.5705 170.862 17.8005 171.122 18.3405 171.122C19.0805 171.122 19.6005 170.612 19.7605 169.392C19.4205 169.692 18.9405 169.912 18.3105 169.912C16.9005 169.912 16.0005 168.962 16.0005 167.532C16.0005 165.952 17.0305 164.962 18.6005 164.962ZM18.6305 166.242C17.8805 166.242 17.4605 166.682 17.4605 167.482C17.4605 168.222 17.8405 168.702 18.5705 168.702C19.3105 168.702 19.7805 168.212 19.7805 167.472C19.7805 166.792 19.3605 166.242 18.6305 166.242Z" fill="black"/>
</g>
<path id="field" d="M292.363 -18.9014L412.257 114.614L446.781 84.8644L507.36 156.034L417.845 335.291L282.562 456.354C260.701 475.917 227.106 474 207.612 452.077L89.0107 318.694L15.5567 176.58L57.7835 190.457L292.363 -18.9014Z" fill="#FA4616" fill-opacity="0.1" fill="none" stroke="#FA4616" stroke-width="1.002"/>
</g>
<defs>
<clipPath id="clip0_92_2254">
<rect width="500" height="469.94" fill="white"/>
</clipPath>
</defs>
</svg>
