<svg width="500" height="470" viewBox="0 0 500 470" fill="none" xmlns="http://www.w3.org/2000/svg">
<g id="tiger-stadium-1938" clip-path="url(#clip0_92_2310)">
<g id="Infield">
<path d="M339.98 327.548C339.453 325.449 322.032 258.261 250.83 258.261C180.238 258.261 162.505 324.32 161.697 327.481C161.677 327.559 161.668 327.599 161.668 327.599L236.504 402.435C235.305 404.694 234.623 407.271 234.623 410.02C234.623 418.968 241.873 426.227 250.83 426.227C259.778 426.227 267.037 418.968 267.037 410.02C267.037 407.271 266.356 404.694 265.157 402.44L260.695 397.157C257.96 395.06 254.544 393.808 250.83 393.808C247.117 393.808 243.701 395.06 240.971 397.152L197.7 353.882C201.448 350.135 201.448 344.059 197.7 340.312C197.698 340.309 197.694 340.307 197.691 340.304L244.055 293.82C247.8 297.556 253.861 297.556 257.606 293.82L303.431 339.766C303.431 339.766 303.427 339.768 303.424 339.771C299.677 343.518 300.275 350.082 304.022 353.829L260.695 397.157L265.157 402.44L339.98 327.548Z" fill="#D2D2D2"/>
<path d="M259.91 345.488C259.91 350.503 255.845 354.569 250.83 354.569C245.815 354.569 241.75 350.503 241.75 345.488C241.75 340.474 245.815 336.408 250.83 336.408C255.845 336.408 259.91 340.474 259.91 345.488Z" fill="#D2D2D2"/>
</g>
<g id="Guides">
<g id="Home">
<circle id="Ellipse 1" cx="250.827" cy="410.203" r="16.0848" fill="#D2D2D2"/>
<circle id="Ellipse 1_2" cx="250.827" cy="410.203" r="1.62919" fill="black"/>
</g>
<g id="First">
<circle id="Ellipse 1_3" cx="311.125" cy="346.315" r="10.1878" fill="#D2D2D2"/>
<circle id="Ellipse 1_4" cx="311.125" cy="346.315" r="1.0319" fill="black"/>
</g>
<g id="Third">
<circle id="Ellipse 1_5" cx="190.34" cy="346.315" r="10.1878" fill="#D2D2D2"/>
<circle id="Ellipse 1_6" cx="190.34" cy="346.315" r="1.0319" fill="black"/>
</g>
<g id="Second">
<circle id="Ellipse 1_7" cx="250.827" cy="286.453" r="10.1878" fill="#D2D2D2"/>
<circle id="Ellipse 1_8" cx="250.827" cy="286.454" r="1.0319" fill="black"/>
</g>
<g id="Mound">
<circle id="Ellipse 1_9" cx="250.827" cy="345.712" r="9.08365" fill="#D2D2D2"/>
<circle id="Ellipse 1_10" cx="250.827" cy="345.712" r="0.920062" fill="black"/>
</g>
</g>
<path id="Foul Lines" d="M468.349 192.926L250.976 410.299L16.0829 175.406" fill="none" stroke="black" stroke-width="1.002"/>
<g id="Measurements">
<path id="325" d="M446.938 195.882C445.308 195.882 444.498 195.052 444.428 193.762L445.868 193.692C445.928 194.382 446.388 194.622 446.968 194.622C447.598 194.622 448.088 194.322 448.088 193.622C448.088 192.942 447.638 192.582 446.898 192.582H446.368V191.452H446.898C447.458 191.452 447.868 191.202 447.868 190.592C447.868 190.002 447.518 189.712 446.958 189.712C446.338 189.712 446.038 190.022 445.978 190.512L444.538 190.442C444.678 189.232 445.508 188.462 446.968 188.462C448.428 188.462 449.328 189.182 449.328 190.402C449.328 191.172 448.928 191.682 448.178 191.922C449.048 192.172 449.548 192.822 449.548 193.722C449.548 195.062 448.538 195.882 446.938 195.882ZM450.424 195.722C450.424 193.992 451.004 192.982 452.984 191.962C453.714 191.582 454.074 191.302 454.074 190.652C454.074 190.082 453.744 189.722 453.114 189.722C452.394 189.722 452.044 190.142 451.924 190.902L450.454 190.812C450.594 189.362 451.504 188.462 453.134 188.462C454.724 188.462 455.544 189.312 455.544 190.572C455.544 191.712 455.054 192.272 453.654 193.032C452.504 193.652 452.094 194.082 452.054 194.442H455.544V195.722H450.424ZM458.97 195.882C457.47 195.882 456.56 194.992 456.46 193.822L457.92 193.742C458.01 194.322 458.36 194.622 458.97 194.622C459.63 194.622 460.04 194.202 460.04 193.392C460.04 192.602 459.62 192.142 458.98 192.142C458.54 192.142 458.17 192.402 458.03 192.762L456.56 192.692L456.98 188.622H461.17V189.902H458.15L457.97 191.432C458.3 191.152 458.74 190.992 459.22 190.992C460.63 190.992 461.5 192.012 461.5 193.402C461.5 194.872 460.5 195.882 458.97 195.882Z" fill="black"/>
<path id="370" d="M371.866 77.7381C370.236 77.7381 369.426 76.9081 369.356 75.6181L370.796 75.5481C370.856 76.2381 371.316 76.4781 371.896 76.4781C372.526 76.4781 373.016 76.1781 373.016 75.4781C373.016 74.7981 372.566 74.4381 371.826 74.4381H371.296V73.3081H371.826C372.386 73.3081 372.796 73.0581 372.796 72.4481C372.796 71.8581 372.446 71.5681 371.886 71.5681C371.266 71.5681 370.966 71.8781 370.906 72.3681L369.466 72.2981C369.606 71.0881 370.436 70.3181 371.896 70.3181C373.356 70.3181 374.256 71.0381 374.256 72.2581C374.256 73.0281 373.856 73.5381 373.106 73.7781C373.976 74.0281 374.476 74.6781 374.476 75.5781C374.476 76.9181 373.466 77.7381 371.866 77.7381ZM376.582 77.5781C376.582 75.4281 377.482 73.4681 378.952 71.7581H375.452V70.4781H380.372V71.6881C378.742 73.5481 378.072 75.1381 378.072 77.5781H376.582ZM383.908 77.7381C382.308 77.7381 381.348 76.3281 381.348 74.0381C381.348 71.7381 382.308 70.3181 383.908 70.3181C385.508 70.3181 386.468 71.7381 386.468 74.0381C386.468 76.3281 385.508 77.7381 383.908 77.7381ZM382.808 74.0381C382.808 74.4681 382.838 74.8381 382.898 75.1481L384.588 71.9581C384.408 71.7081 384.178 71.5781 383.908 71.5781C383.218 71.5781 382.808 72.3981 382.808 74.0381ZM383.908 76.4781C384.598 76.4781 385.008 75.6681 385.008 74.0381C385.008 73.6081 384.978 73.2281 384.918 72.9081L383.228 76.0981C383.408 76.3481 383.638 76.4781 383.908 76.4781Z" fill="black"/>
<path id="365" d="M103.361 77.7381C101.731 77.7381 100.921 76.9081 100.851 75.6181L102.291 75.5481C102.351 76.2381 102.811 76.4781 103.391 76.4781C104.021 76.4781 104.511 76.1781 104.511 75.4781C104.511 74.7981 104.061 74.4381 103.321 74.4381H102.791V73.3081H103.321C103.881 73.3081 104.291 73.0581 104.291 72.4481C104.291 71.8581 103.941 71.5681 103.381 71.5681C102.761 71.5681 102.461 71.8781 102.401 72.3681L100.961 72.2981C101.101 71.0881 101.931 70.3181 103.391 70.3181C104.851 70.3181 105.751 71.0381 105.751 72.2581C105.751 73.0281 105.351 73.5381 104.601 73.7781C105.471 74.0281 105.971 74.6781 105.971 75.5781C105.971 76.9181 104.961 77.7381 103.361 77.7381ZM109.427 77.7381C107.697 77.7381 106.787 76.5681 106.787 74.5081C106.787 72.1581 107.597 70.3181 109.687 70.3181C111.087 70.3181 111.737 71.0781 111.997 72.0981L110.557 72.1981C110.457 71.8381 110.227 71.5781 109.687 71.5781C108.947 71.5781 108.427 72.0881 108.267 73.3081C108.607 73.0081 109.087 72.7881 109.717 72.7881C111.127 72.7881 112.027 73.7381 112.027 75.1681C112.027 76.7481 110.997 77.7381 109.427 77.7381ZM109.397 76.4581C110.147 76.4581 110.567 76.0181 110.567 75.2181C110.567 74.4781 110.187 73.9981 109.457 73.9981C108.717 73.9981 108.247 74.4881 108.247 75.2281C108.247 75.9081 108.667 76.4581 109.397 76.4581ZM115.393 77.7381C113.893 77.7381 112.983 76.8481 112.883 75.6781L114.343 75.5981C114.433 76.1781 114.783 76.4781 115.393 76.4781C116.053 76.4781 116.463 76.0581 116.463 75.2481C116.463 74.4581 116.043 73.9981 115.403 73.9981C114.963 73.9981 114.593 74.2581 114.453 74.6181L112.983 74.5481L113.403 70.4781H117.593V71.7581H114.573L114.393 73.2881C114.723 73.0081 115.163 72.8481 115.643 72.8481C117.053 72.8481 117.923 73.8681 117.923 75.2581C117.923 76.7281 116.923 77.7381 115.393 77.7381Z" fill="black"/>
<path id="340" d="M28.5783 178.382C26.9483 178.382 26.1383 177.552 26.0683 176.262L27.5083 176.192C27.5683 176.882 28.0283 177.122 28.6083 177.122C29.2383 177.122 29.7283 176.822 29.7283 176.122C29.7283 175.442 29.2783 175.082 28.5383 175.082H28.0083V173.952H28.5383C29.0983 173.952 29.5083 173.702 29.5083 173.092C29.5083 172.502 29.1583 172.212 28.5983 172.212C27.9783 172.212 27.6783 172.522 27.6183 173.012L26.1783 172.942C26.3183 171.732 27.1483 170.962 28.6083 170.962C30.0683 170.962 30.9683 171.682 30.9683 172.902C30.9683 173.672 30.5683 174.182 29.8183 174.422C30.6883 174.672 31.1883 175.322 31.1883 176.222C31.1883 177.562 30.1783 178.382 28.5783 178.382ZM35.0744 178.222V176.802H31.9044V175.632L34.8844 171.122H36.5044V175.562H37.3444V176.802H36.5044V178.222H35.0744ZM33.2444 175.562H35.0744V172.912L33.2444 175.562ZM40.6205 178.382C39.0205 178.382 38.0605 176.972 38.0605 174.682C38.0605 172.382 39.0205 170.962 40.6205 170.962C42.2205 170.962 43.1805 172.382 43.1805 174.682C43.1805 176.972 42.2205 178.382 40.6205 178.382ZM39.5205 174.682C39.5205 175.112 39.5505 175.482 39.6105 175.792L41.3005 172.602C41.1205 172.352 40.8905 172.222 40.6205 172.222C39.9305 172.222 39.5205 173.042 39.5205 174.682ZM40.6205 177.122C41.3105 177.122 41.7205 176.312 41.7205 174.682C41.7205 174.252 41.6905 173.872 41.6305 173.552L39.9405 176.742C40.1205 176.992 40.3505 177.122 40.6205 177.122Z" fill="black"/>
</g>
<path id="field" d="M207.612 452.076L89.0106 318.694L13.6166 175.146L211.72 -4.40858C237.391 -27.6757 277.148 -25.3907 299.984 0.664389L473.735 198.909L447.996 221.995C458.672 232.513 461.347 248.716 454.618 262.108L417.845 335.291L282.562 456.353C260.701 475.917 227.106 474 207.612 452.076Z" fill="#FA4616" fill-opacity="0.1" fill="none" stroke="#FA4616" stroke-width="1.002"/>
</g>
<defs>
<clipPath id="clip0_92_2310">
<rect width="500" height="469.94" fill="white"/>
</clipPath>
</defs>
</svg>
