<svg width="500" height="470" viewBox="0 0 500 470" fill="none" xmlns="http://www.w3.org/2000/svg">
<g id="tropicana-field-1998" clip-path="url(#clip0_102_3893)">
<g id="Infield">
<path d="M339.98 327.766C339.453 325.666 322.032 258.479 250.83 258.479C180.238 258.479 162.505 324.538 161.697 327.699C161.677 327.776 161.668 327.816 161.668 327.816L236.504 402.653C235.305 404.912 234.623 407.489 234.623 410.238C234.623 419.186 241.873 426.445 250.83 426.445C259.778 426.445 267.037 419.186 267.037 410.238C267.037 407.489 266.356 404.912 265.156 402.657L260.695 397.375C257.96 395.278 254.544 394.026 250.83 394.026C247.117 394.026 243.701 395.278 240.971 397.37L197.7 354.1C201.448 350.353 201.448 344.277 197.7 340.53C197.698 340.527 197.694 340.525 197.691 340.522L244.055 294.038C247.8 297.773 253.861 297.773 257.606 294.038L303.431 339.984C303.431 339.984 303.427 339.985 303.424 339.988C299.677 343.736 300.275 350.3 304.022 354.047L260.695 397.375L265.156 402.657L339.98 327.766Z" fill="#D2D2D2"/>
<path d="M259.91 345.706C259.91 350.721 255.845 354.787 250.83 354.787C245.815 354.787 241.75 350.721 241.75 345.706C241.75 340.691 245.815 336.626 250.83 336.626C255.845 336.626 259.91 340.691 259.91 345.706Z" fill="#D2D2D2"/>
</g>
<g id="Guides">
<g id="Home">
<circle id="Ellipse 1" cx="250.827" cy="410.419" r="16.0848" fill="#D2D2D2"/>
<circle id="Ellipse 1_2" cx="250.827" cy="410.418" r="1.62919" fill="black"/>
</g>
<g id="First">
<circle id="Ellipse 1_3" cx="311.125" cy="346.532" r="10.1878" fill="#D2D2D2"/>
<circle id="Ellipse 1_4" cx="311.125" cy="346.532" r="1.0319" fill="black"/>
</g>
<g id="Third">
<circle id="Ellipse 1_5" cx="190.34" cy="346.532" r="10.1878" fill="#D2D2D2"/>
<circle id="Ellipse 1_6" cx="190.34" cy="346.532" r="1.0319" fill="black"/>
</g>
<g id="Second">
<circle id="Ellipse 1_7" cx="250.827" cy="286.67" r="10.1878" fill="#D2D2D2"/>
<circle id="Ellipse 1_8" cx="250.827" cy="286.671" r="1.0319" fill="black"/>
</g>
<g id="Mound">
<circle id="Ellipse 1_9" cx="250.827" cy="345.929" r="9.08365" fill="#D2D2D2"/>
<circle id="Ellipse 1_10" cx="250.827" cy="345.93" r="0.920062" fill="black"/>
</g>
</g>
<path id="Foul Lines" d="M473.81 187.682L250.976 410.516L32.0111 191.552" fill="none" stroke="black" stroke-width="1.002"/>
<g id="Measurements">
<path id="404" d="M246.203 10.6992V9.27922H243.033V8.10922L246.013 3.59922H247.633V8.03922H248.473V9.27922H247.633V10.6992H246.203ZM244.373 8.03922H246.203V5.38922L244.373 8.03922ZM251.749 10.8592C250.149 10.8592 249.189 9.44922 249.189 7.15922C249.189 4.85922 250.149 3.43922 251.749 3.43922C253.349 3.43922 254.309 4.85922 254.309 7.15922C254.309 9.44922 253.349 10.8592 251.749 10.8592ZM250.649 7.15922C250.649 7.58922 250.679 7.95922 250.739 8.26922L252.429 5.07922C252.249 4.82922 252.019 4.69922 251.749 4.69922C251.059 4.69922 250.649 5.51922 250.649 7.15922ZM251.749 9.59922C252.439 9.59922 252.849 8.78922 252.849 7.15922C252.849 6.72922 252.819 6.34922 252.759 6.02922L251.069 9.21922C251.249 9.46922 251.479 9.59922 251.749 9.59922ZM258.195 10.6992V9.27922H255.025V8.10922L258.005 3.59922H259.625V8.03922H260.465V9.27922H259.625V10.6992H258.195ZM256.365 8.03922H258.195V5.38922L256.365 8.03922Z" fill="black"/>
<path id="370" d="M105.805 72.7987C104.175 72.7987 103.365 71.9687 103.295 70.6787L104.735 70.6087C104.795 71.2987 105.255 71.5387 105.835 71.5387C106.465 71.5387 106.955 71.2387 106.955 70.5387C106.955 69.8587 106.505 69.4987 105.765 69.4987H105.235V68.3687H105.765C106.325 68.3687 106.735 68.1187 106.735 67.5087C106.735 66.9187 106.385 66.6287 105.825 66.6287C105.205 66.6287 104.905 66.9387 104.845 67.4287L103.405 67.3587C103.545 66.1487 104.375 65.3787 105.835 65.3787C107.295 65.3787 108.195 66.0987 108.195 67.3187C108.195 68.0887 107.795 68.5987 107.045 68.8387C107.915 69.0887 108.415 69.7387 108.415 70.6387C108.415 71.9787 107.405 72.7987 105.805 72.7987ZM110.521 72.6387C110.521 70.4887 111.421 68.5287 112.891 66.8187H109.391V65.5387H114.311V66.7487C112.681 68.6087 112.011 70.1987 112.011 72.6387H110.521ZM117.847 72.7987C116.247 72.7987 115.287 71.3887 115.287 69.0987C115.287 66.7987 116.247 65.3787 117.847 65.3787C119.447 65.3787 120.407 66.7987 120.407 69.0987C120.407 71.3887 119.447 72.7987 117.847 72.7987ZM116.747 69.0987C116.747 69.5287 116.777 69.8987 116.837 70.2087L118.527 67.0187C118.347 66.7687 118.117 66.6387 117.847 66.6387C117.157 66.6387 116.747 67.4587 116.747 69.0987ZM117.847 71.5387C118.537 71.5387 118.947 70.7287 118.947 69.0987C118.947 68.6687 118.917 68.2887 118.857 67.9687L117.167 71.1587C117.347 71.4087 117.577 71.5387 117.847 71.5387Z" fill="black"/>
<path id="370_2" d="M384.883 72.7987C383.253 72.7987 382.443 71.9687 382.373 70.6787L383.813 70.6087C383.873 71.2987 384.333 71.5387 384.913 71.5387C385.543 71.5387 386.033 71.2387 386.033 70.5387C386.033 69.8587 385.583 69.4987 384.843 69.4987H384.313V68.3687H384.843C385.403 68.3687 385.813 68.1187 385.813 67.5087C385.813 66.9187 385.463 66.6287 384.903 66.6287C384.283 66.6287 383.983 66.9387 383.923 67.4287L382.483 67.3587C382.623 66.1487 383.453 65.3787 384.913 65.3787C386.373 65.3787 387.273 66.0987 387.273 67.3187C387.273 68.0887 386.873 68.5987 386.123 68.8387C386.993 69.0887 387.493 69.7387 387.493 70.6387C387.493 71.9787 386.483 72.7987 384.883 72.7987ZM389.599 72.6387C389.599 70.4887 390.499 68.5287 391.969 66.8187H388.469V65.5387H393.389V66.7487C391.759 68.6087 391.089 70.1987 391.089 72.6387H389.599ZM396.925 72.7987C395.325 72.7987 394.365 71.3887 394.365 69.0987C394.365 66.7987 395.325 65.3787 396.925 65.3787C398.525 65.3787 399.485 66.7987 399.485 69.0987C399.485 71.3887 398.525 72.7987 396.925 72.7987ZM395.825 69.0987C395.825 69.5287 395.855 69.8987 395.915 70.2087L397.605 67.0187C397.425 66.7687 397.195 66.6387 396.925 66.6387C396.235 66.6387 395.825 67.4587 395.825 69.0987ZM396.925 71.5387C397.615 71.5387 398.025 70.7287 398.025 69.0987C398.025 68.6687 397.995 68.2887 397.935 67.9687L396.245 71.1587C396.425 71.4087 396.655 71.5387 396.925 71.5387Z" fill="black"/>
<path id="321" d="M455.938 186.098C454.308 186.098 453.498 185.267 453.428 183.977L454.868 183.907C454.928 184.597 455.388 184.837 455.968 184.837C456.598 184.837 457.088 184.537 457.088 183.837C457.088 183.157 456.638 182.797 455.898 182.797H455.368V181.667H455.898C456.458 181.667 456.868 181.417 456.868 180.807C456.868 180.217 456.518 179.927 455.958 179.927C455.338 179.927 455.038 180.237 454.978 180.727L453.538 180.658C453.678 179.447 454.508 178.677 455.968 178.677C457.428 178.677 458.328 179.397 458.328 180.617C458.328 181.387 457.928 181.897 457.178 182.137C458.048 182.387 458.548 183.037 458.548 183.937C458.548 185.278 457.538 186.098 455.938 186.098ZM459.424 185.938C459.424 184.207 460.004 183.197 461.984 182.177C462.714 181.797 463.074 181.517 463.074 180.867C463.074 180.297 462.744 179.937 462.114 179.937C461.394 179.937 461.044 180.357 460.924 181.117L459.454 181.027C459.594 179.577 460.504 178.677 462.134 178.677C463.724 178.677 464.544 179.527 464.544 180.787C464.544 181.927 464.054 182.487 462.654 183.247C461.504 183.867 461.094 184.297 461.054 184.657H464.544V185.938H459.424ZM465.46 185.938V184.657H467.5V181.277H465.76V180.097H466.54C467.34 180.097 467.68 179.757 467.68 178.837H468.92V184.657H470.5V185.938H465.46Z" fill="black"/>
<path id="315" d="M36.5783 187.598C34.9483 187.598 34.1383 186.767 34.0683 185.477L35.5083 185.407C35.5683 186.097 36.0283 186.337 36.6083 186.337C37.2383 186.337 37.7283 186.037 37.7283 185.337C37.7283 184.657 37.2783 184.297 36.5383 184.297H36.0083V183.167H36.5383C37.0983 183.167 37.5083 182.917 37.5083 182.307C37.5083 181.717 37.1583 181.427 36.5983 181.427C35.9783 181.427 35.6783 181.737 35.6183 182.227L34.1783 182.158C34.3183 180.947 35.1483 180.177 36.6083 180.177C38.0683 180.177 38.9683 180.897 38.9683 182.117C38.9683 182.887 38.5683 183.397 37.8183 183.637C38.6883 183.887 39.1883 184.537 39.1883 185.437C39.1883 186.778 38.1783 187.598 36.5783 187.598ZM40.1044 187.438V186.157H42.1444V182.777H40.4044V181.597H41.1844C41.9844 181.597 42.3244 181.257 42.3244 180.337H43.5644V186.157H45.1444V187.438H40.1044ZM48.6105 187.598C47.1105 187.598 46.2005 186.707 46.1005 185.537L47.5605 185.457C47.6505 186.037 48.0005 186.337 48.6105 186.337C49.2705 186.337 49.6805 185.917 49.6805 185.107C49.6805 184.317 49.2605 183.857 48.6205 183.857C48.1805 183.857 47.8105 184.117 47.6705 184.477L46.2005 184.407L46.6205 180.337H50.8105V181.617H47.7905L47.6105 183.147C47.9405 182.867 48.3805 182.707 48.8605 182.707C50.2705 182.707 51.1405 183.727 51.1405 185.117C51.1405 186.587 50.1405 187.598 48.6105 187.598Z" fill="black"/>
</g>
<path id="field" d="M27.3925 168.364L158.699 35.69H164.121L171.133 27.3459L179.277 9.70117L319.304 19.4296L336.044 29.6093L473.583 167.533V190.9L455.712 226.416L456.877 249.294L427.032 280.271L410.058 306.439L353.195 363.302V385.085L301.991 436.714H291.241L285.8 442.512C266.73 462.839 234.568 463.186 215.063 443.276L208.634 436.714H199.157L148.518 385.085V363.302L91.7974 307.005L74.5407 280.554L42.9975 247.313L27.3925 168.364Z" fill="#092C5C" fill-opacity="0.1" fill="none" stroke="#092C5C" stroke-width="1.002"/>
</g>
<defs>
<clipPath id="clip0_102_3893">
<rect width="500" height="469.94" fill="white"/>
</clipPath>
</defs>
</svg>
