<svg width="500" height="470" viewBox="0 0 500 470" fill="none" xmlns="http://www.w3.org/2000/svg">
<g id="truist-park-2017">
<g id="Infield">
<path d="M339.98 327.766C339.453 325.666 322.032 258.479 250.83 258.479C180.238 258.479 162.505 324.538 161.697 327.699C161.677 327.776 161.668 327.816 161.668 327.816L236.504 402.653C235.305 404.912 234.623 407.489 234.623 410.238C234.623 419.186 241.873 426.445 250.83 426.445C259.778 426.445 267.037 419.186 267.037 410.238C267.037 407.489 266.356 404.912 265.156 402.657L260.695 397.375C257.96 395.278 254.544 394.026 250.83 394.026C247.117 394.026 243.701 395.278 240.971 397.37L197.7 354.1C201.448 350.353 201.448 344.277 197.7 340.53C197.698 340.527 197.694 340.525 197.691 340.522L244.055 294.038C247.8 297.773 253.861 297.773 257.606 294.038L303.431 339.984C303.431 339.984 303.427 339.985 303.424 339.988C299.677 343.736 300.275 350.3 304.022 354.047L260.695 397.375L265.156 402.657L339.98 327.766Z" fill="#D2D2D2"/>
<path d="M259.91 345.706C259.91 350.721 255.845 354.787 250.83 354.787C245.815 354.787 241.75 350.721 241.75 345.706C241.75 340.691 245.815 336.626 250.83 336.626C255.845 336.626 259.91 340.691 259.91 345.706Z" fill="#D2D2D2"/>
</g>
<g id="Guides">
<g id="Home">
<circle id="Ellipse 1" cx="250.827" cy="410.419" r="16.0848" fill="#D2D2D2"/>
<circle id="Ellipse 1_2" cx="250.827" cy="410.418" r="1.62919" fill="black"/>
</g>
<g id="First">
<circle id="Ellipse 1_3" cx="311.125" cy="346.532" r="10.1878" fill="#D2D2D2"/>
<circle id="Ellipse 1_4" cx="311.125" cy="346.532" r="1.0319" fill="black"/>
</g>
<g id="Third">
<circle id="Ellipse 1_5" cx="190.34" cy="346.532" r="10.1878" fill="#D2D2D2"/>
<circle id="Ellipse 1_6" cx="190.34" cy="346.532" r="1.0319" fill="black"/>
</g>
<g id="Second">
<circle id="Ellipse 1_7" cx="250.827" cy="286.67" r="10.1878" fill="#D2D2D2"/>
<circle id="Ellipse 1_8" cx="250.827" cy="286.671" r="1.0319" fill="black"/>
</g>
<g id="Mound">
<circle id="Ellipse 1_9" cx="250.827" cy="345.929" r="9.08365" fill="#D2D2D2"/>
<circle id="Ellipse 1_10" cx="250.827" cy="345.93" r="0.920062" fill="black"/>
</g>
</g>
<path id="Foul Lines" d="M475.761 185.731L250.976 410.517L19.0796 178.621" fill="none" stroke="black" stroke-width="1.002"/>
<g id="Measurements">
<path id="400" d="M242.758 14.6992V13.2792H239.588V12.1092L242.568 7.59922H244.188V12.0392H245.028V13.2792H244.188V14.6992H242.758ZM240.928 12.0392H242.758V9.38922L240.928 12.0392ZM248.304 14.8592C246.704 14.8592 245.744 13.4492 245.744 11.1592C245.744 8.85922 246.704 7.43922 248.304 7.43922C249.904 7.43922 250.864 8.85922 250.864 11.1592C250.864 13.4492 249.904 14.8592 248.304 14.8592ZM247.204 11.1592C247.204 11.5892 247.234 11.9592 247.294 12.2692L248.984 9.07922C248.804 8.82922 248.574 8.69922 248.304 8.69922C247.614 8.69922 247.204 9.51922 247.204 11.1592ZM248.304 13.5992C248.994 13.5992 249.404 12.7892 249.404 11.1592C249.404 10.7292 249.374 10.3492 249.314 10.0292L247.624 13.2192C247.804 13.4692 248.034 13.5992 248.304 13.5992ZM254.3 14.8592C252.7 14.8592 251.74 13.4492 251.74 11.1592C251.74 8.85922 252.7 7.43922 254.3 7.43922C255.9 7.43922 256.86 8.85922 256.86 11.1592C256.86 13.4492 255.9 14.8592 254.3 14.8592ZM253.2 11.1592C253.2 11.5892 253.23 11.9592 253.29 12.2692L254.98 9.07922C254.8 8.82922 254.57 8.69922 254.3 8.69922C253.61 8.69922 253.2 9.51922 253.2 11.1592ZM254.3 13.5992C254.99 13.5992 255.4 12.7892 255.4 11.1592C255.4 10.7292 255.37 10.3492 255.31 10.0292L253.62 13.2192C253.8 13.4692 254.03 13.5992 254.3 13.5992Z" fill="black"/>
<path id="375" d="M388.696 64.2049C387.066 64.2049 386.256 63.3749 386.186 62.0849L387.626 62.0149C387.686 62.7049 388.146 62.9449 388.726 62.9449C389.356 62.9449 389.846 62.6449 389.846 61.9449C389.846 61.2649 389.396 60.9049 388.656 60.9049H388.126V59.7749H388.656C389.216 59.7749 389.626 59.5249 389.626 58.9149C389.626 58.3249 389.276 58.0349 388.716 58.0349C388.096 58.0349 387.796 58.3449 387.736 58.8349L386.296 58.7649C386.436 57.5549 387.266 56.7849 388.726 56.7849C390.186 56.7849 391.086 57.5049 391.086 58.7249C391.086 59.4949 390.686 60.0049 389.936 60.2449C390.806 60.4949 391.306 61.1449 391.306 62.0449C391.306 63.3849 390.296 64.2049 388.696 64.2049ZM393.412 64.0449C393.412 61.8949 394.312 59.9349 395.782 58.2249H392.282V56.9449H397.202V58.1549C395.572 60.0149 394.902 61.6049 394.902 64.0449H393.412ZM400.728 64.2049C399.228 64.2049 398.318 63.3149 398.218 62.1449L399.678 62.0649C399.768 62.6449 400.118 62.9449 400.728 62.9449C401.388 62.9449 401.798 62.5249 401.798 61.7149C401.798 60.9249 401.378 60.4649 400.738 60.4649C400.298 60.4649 399.928 60.7249 399.788 61.0849L398.318 61.0149L398.738 56.9449H402.928V58.2249H399.908L399.728 59.7549C400.058 59.4749 400.498 59.3149 400.978 59.3149C402.388 59.3149 403.258 60.3349 403.258 61.7249C403.258 63.1949 402.258 64.2049 400.728 64.2049Z" fill="black"/>
<path id="385" d="M95.8367 55.6952C94.2067 55.6952 93.3967 54.8652 93.3267 53.5752L94.7667 53.5052C94.8267 54.1952 95.2867 54.4352 95.8667 54.4352C96.4967 54.4352 96.9867 54.1352 96.9867 53.4352C96.9867 52.7552 96.5367 52.3952 95.7967 52.3952H95.2667V51.2652H95.7967C96.3567 51.2652 96.7667 51.0152 96.7667 50.4052C96.7667 49.8152 96.4167 49.5252 95.8567 49.5252C95.2367 49.5252 94.9367 49.8352 94.8767 50.3252L93.4367 50.2552C93.5767 49.0452 94.4067 48.2752 95.8667 48.2752C97.3267 48.2752 98.2267 48.9952 98.2267 50.2152C98.2267 50.9852 97.8267 51.4952 97.0767 51.7352C97.9467 51.9852 98.4467 52.6352 98.4467 53.5352C98.4467 54.8752 97.4367 55.6952 95.8367 55.6952ZM101.883 55.6952C100.313 55.6952 99.2628 54.9752 99.2628 53.5952C99.2628 52.6652 99.8028 52.0052 100.673 51.7252C100.003 51.4652 99.5528 50.9752 99.5528 50.2352C99.5528 49.0952 100.483 48.2752 101.883 48.2752C103.283 48.2752 104.213 49.0952 104.213 50.2352C104.213 50.9752 103.763 51.4652 103.083 51.7252C103.963 52.0052 104.503 52.6652 104.503 53.5952C104.503 54.9752 103.453 55.6952 101.883 55.6952ZM101.883 51.1552C102.393 51.1552 102.743 50.8852 102.743 50.3252C102.743 49.8252 102.403 49.5352 101.883 49.5352C101.363 49.5352 101.023 49.8252 101.023 50.3252C101.023 50.8852 101.373 51.1552 101.883 51.1552ZM101.883 54.4352C102.523 54.4352 103.043 54.1552 103.043 53.4552C103.043 52.7852 102.613 52.3652 101.883 52.3652C101.153 52.3652 100.723 52.7852 100.723 53.4552C100.723 54.1552 101.243 54.4352 101.883 54.4352ZM107.869 55.6952C106.369 55.6952 105.459 54.8052 105.359 53.6352L106.819 53.5552C106.909 54.1352 107.259 54.4352 107.869 54.4352C108.529 54.4352 108.939 54.0152 108.939 53.2052C108.939 52.4152 108.519 51.9552 107.879 51.9552C107.439 51.9552 107.069 52.2152 106.929 52.5752L105.459 52.5052L105.879 48.4352H110.069V49.7152H107.049L106.869 51.2452C107.199 50.9652 107.639 50.8052 108.119 50.8052C109.529 50.8052 110.399 51.8252 110.399 53.2152C110.399 54.6852 109.399 55.6952 107.869 55.6952Z" fill="black"/>
<path id="325" d="M451.938 188.098C450.308 188.098 449.498 187.267 449.428 185.977L450.868 185.907C450.928 186.597 451.388 186.837 451.968 186.837C452.598 186.837 453.088 186.537 453.088 185.837C453.088 185.157 452.638 184.797 451.898 184.797H451.368V183.667H451.898C452.458 183.667 452.868 183.417 452.868 182.807C452.868 182.217 452.518 181.927 451.958 181.927C451.338 181.927 451.038 182.237 450.978 182.727L449.538 182.658C449.678 181.447 450.508 180.677 451.968 180.677C453.428 180.677 454.328 181.397 454.328 182.617C454.328 183.387 453.928 183.897 453.178 184.137C454.048 184.387 454.548 185.037 454.548 185.937C454.548 187.278 453.538 188.098 451.938 188.098ZM455.424 187.938C455.424 186.207 456.004 185.197 457.984 184.177C458.714 183.797 459.074 183.517 459.074 182.867C459.074 182.297 458.744 181.937 458.114 181.937C457.394 181.937 457.044 182.357 456.924 183.117L455.454 183.027C455.594 181.577 456.504 180.677 458.134 180.677C459.724 180.677 460.544 181.527 460.544 182.787C460.544 183.927 460.054 184.487 458.654 185.247C457.504 185.867 457.094 186.297 457.054 186.657H460.544V187.938H455.424ZM463.97 188.098C462.47 188.098 461.56 187.207 461.46 186.037L462.92 185.957C463.01 186.537 463.36 186.837 463.97 186.837C464.63 186.837 465.04 186.417 465.04 185.607C465.04 184.817 464.62 184.357 463.98 184.357C463.54 184.357 463.17 184.617 463.03 184.977L461.56 184.907L461.98 180.837H466.17V182.117H463.15L462.97 183.647C463.3 183.367 463.74 183.207 464.22 183.207C465.63 183.207 466.5 184.227 466.5 185.617C466.5 187.087 465.5 188.098 463.97 188.098Z" fill="black"/>
<path id="335" d="M28.5783 179.598C26.9483 179.598 26.1383 178.767 26.0683 177.477L27.5083 177.407C27.5683 178.097 28.0283 178.337 28.6083 178.337C29.2383 178.337 29.7283 178.037 29.7283 177.337C29.7283 176.657 29.2783 176.297 28.5383 176.297H28.0083V175.167H28.5383C29.0983 175.167 29.5083 174.917 29.5083 174.307C29.5083 173.717 29.1583 173.427 28.5983 173.427C27.9783 173.427 27.6783 173.737 27.6183 174.227L26.1783 174.158C26.3183 172.947 27.1483 172.177 28.6083 172.177C30.0683 172.177 30.9683 172.897 30.9683 174.117C30.9683 174.887 30.5683 175.397 29.8183 175.637C30.6883 175.887 31.1883 176.537 31.1883 177.437C31.1883 178.778 30.1783 179.598 28.5783 179.598ZM34.5744 179.598C32.9444 179.598 32.1344 178.767 32.0644 177.477L33.5044 177.407C33.5644 178.097 34.0244 178.337 34.6044 178.337C35.2344 178.337 35.7244 178.037 35.7244 177.337C35.7244 176.657 35.2744 176.297 34.5344 176.297H34.0044V175.167H34.5344C35.0944 175.167 35.5044 174.917 35.5044 174.307C35.5044 173.717 35.1544 173.427 34.5944 173.427C33.9744 173.427 33.6744 173.737 33.6144 174.227L32.1744 174.158C32.3144 172.947 33.1444 172.177 34.6044 172.177C36.0644 172.177 36.9644 172.897 36.9644 174.117C36.9644 174.887 36.5644 175.397 35.8144 175.637C36.6844 175.887 37.1844 176.537 37.1844 177.437C37.1844 178.778 36.1744 179.598 34.5744 179.598ZM40.6105 179.598C39.1105 179.598 38.2005 178.707 38.1005 177.537L39.5605 177.457C39.6505 178.037 40.0005 178.337 40.6105 178.337C41.2705 178.337 41.6805 177.917 41.6805 177.107C41.6805 176.317 41.2605 175.857 40.6205 175.857C40.1805 175.857 39.8105 176.117 39.6705 176.477L38.2005 176.407L38.6205 172.337H42.8105V173.617H39.7905L39.6105 175.147C39.9405 174.867 40.3805 174.707 40.8605 174.707C42.2705 174.707 43.1405 175.727 43.1405 177.117C43.1405 178.587 42.1405 179.598 40.6105 179.598Z" fill="black"/>
</g>
<path id="field" d="M61.3265 229.566L15.9298 184.555L57.4042 102.371L112.596 57.5454L208.692 19.1641H291.364L384.633 66.5106L479.499 191.079L439.648 229.566C439.648 251.319 437.559 272.736 425.537 284.758L278.319 449.969C262.75 467.44 235.413 467.369 219.953 449.802C161.501 383.381 79.9172 290.486 73.0933 281.956C63.0074 269.349 61.3265 252.539 61.3265 229.566Z" fill="#0C2340" fill-opacity="0.1" fill="none" stroke="#0C2340" stroke-width="1.002"/>
</g>
</svg>
