<svg width="500" height="470" viewBox="0 0 500 470" fill="none" xmlns="http://www.w3.org/2000/svg">
<g id="turner-field-1997">
<g id="Infield">
<path d="M339.98 327.766C339.453 325.666 322.032 258.479 250.83 258.479C180.238 258.479 162.505 324.538 161.697 327.699C161.677 327.776 161.668 327.816 161.668 327.816L236.504 402.653C235.305 404.912 234.623 407.489 234.623 410.238C234.623 419.186 241.873 426.445 250.83 426.445C259.778 426.445 267.037 419.186 267.037 410.238C267.037 407.489 266.356 404.912 265.156 402.657L260.695 397.375C257.96 395.278 254.544 394.026 250.83 394.026C247.117 394.026 243.701 395.278 240.971 397.37L197.7 354.1C201.448 350.353 201.448 344.277 197.7 340.53C197.698 340.527 197.694 340.525 197.691 340.522L244.055 294.038C247.8 297.773 253.861 297.773 257.606 294.038L303.431 339.984C303.431 339.984 303.427 339.985 303.424 339.988C299.677 343.736 300.275 350.3 304.022 354.047L260.695 397.375L265.156 402.657L339.98 327.766Z" fill="#D2D2D2"/>
<path d="M259.91 345.706C259.91 350.721 255.845 354.787 250.83 354.787C245.815 354.787 241.75 350.721 241.75 345.706C241.75 340.691 245.815 336.626 250.83 336.626C255.845 336.626 259.91 340.691 259.91 345.706Z" fill="#D2D2D2"/>
</g>
<g id="Guides">
<g id="Home">
<circle id="Ellipse 1" cx="250.827" cy="410.419" r="16.0848" fill="#D2D2D2"/>
<circle id="Ellipse 1_2" cx="250.827" cy="410.418" r="1.62919" fill="black"/>
</g>
<g id="First">
<circle id="Ellipse 1_3" cx="311.125" cy="346.532" r="10.1878" fill="#D2D2D2"/>
<circle id="Ellipse 1_4" cx="311.125" cy="346.532" r="1.0319" fill="black"/>
</g>
<g id="Third">
<circle id="Ellipse 1_5" cx="190.34" cy="346.532" r="10.1878" fill="#D2D2D2"/>
<circle id="Ellipse 1_6" cx="190.34" cy="346.532" r="1.0319" fill="black"/>
</g>
<g id="Second">
<circle id="Ellipse 1_7" cx="250.827" cy="286.67" r="10.1878" fill="#D2D2D2"/>
<circle id="Ellipse 1_8" cx="250.827" cy="286.671" r="1.0319" fill="black"/>
</g>
<g id="Mound">
<circle id="Ellipse 1_9" cx="250.827" cy="345.929" r="9.08365" fill="#D2D2D2"/>
<circle id="Ellipse 1_10" cx="250.827" cy="345.93" r="0.920062" fill="black"/>
</g>
</g>
<path id="Foul Lines" d="M479.781 181.71L250.976 410.515L19.6117 179.15" fill="none" stroke="black" stroke-width="1.002"/>
<g id="Measurements">
<path id="400" d="M246.203 12.6992V11.2792H243.033V10.1092L246.013 5.59922H247.633V10.0392H248.473V11.2792H247.633V12.6992H246.203ZM244.373 10.0392H246.203V7.38922L244.373 10.0392ZM251.749 12.8592C250.149 12.8592 249.189 11.4492 249.189 9.15922C249.189 6.85922 250.149 5.43922 251.749 5.43922C253.349 5.43922 254.309 6.85922 254.309 9.15922C254.309 11.4492 253.349 12.8592 251.749 12.8592ZM250.649 9.15922C250.649 9.58922 250.679 9.95922 250.739 10.2692L252.429 7.07922C252.249 6.82922 252.019 6.69922 251.749 6.69922C251.059 6.69922 250.649 7.51922 250.649 9.15922ZM251.749 11.5992C252.439 11.5992 252.849 10.7892 252.849 9.15922C252.849 8.72922 252.819 8.34922 252.759 8.02922L251.069 11.2192C251.249 11.4692 251.479 11.5992 251.749 11.5992ZM257.745 12.8592C256.145 12.8592 255.185 11.4492 255.185 9.15922C255.185 6.85922 256.145 5.43922 257.745 5.43922C259.345 5.43922 260.305 6.85922 260.305 9.15922C260.305 11.4492 259.345 12.8592 257.745 12.8592ZM256.645 9.15922C256.645 9.58922 256.675 9.95922 256.735 10.2692L258.425 7.07922C258.245 6.82922 258.015 6.69922 257.745 6.69922C257.055 6.69922 256.645 7.51922 256.645 9.15922ZM257.745 11.5992C258.435 11.5992 258.845 10.7892 258.845 9.15922C258.845 8.72922 258.815 8.34922 258.755 8.02922L257.065 11.2192C257.245 11.4692 257.475 11.5992 257.745 11.5992Z" fill="black"/>
<path id="390" d="M405.36 56.5096C403.73 56.5096 402.92 55.6796 402.85 54.3896L404.29 54.3196C404.35 55.0096 404.81 55.2496 405.39 55.2496C406.02 55.2496 406.51 54.9496 406.51 54.2496C406.51 53.5696 406.06 53.2096 405.32 53.2096H404.79V52.0796H405.32C405.88 52.0796 406.29 51.8296 406.29 51.2196C406.29 50.6296 405.94 50.3396 405.38 50.3396C404.76 50.3396 404.46 50.6496 404.4 51.1396L402.96 51.0696C403.1 49.8596 403.93 49.0896 405.39 49.0896C406.85 49.0896 407.75 49.8096 407.75 51.0296C407.75 51.7996 407.35 52.3096 406.6 52.5496C407.47 52.7996 407.97 53.4496 407.97 54.3496C407.97 55.6896 406.96 56.5096 405.36 56.5096ZM411.386 49.0896C413.116 49.0896 414.026 50.2596 414.026 52.3196C414.026 54.6696 413.216 56.5096 411.126 56.5096C409.726 56.5096 409.076 55.7496 408.816 54.7296L410.256 54.6296C410.356 54.9896 410.586 55.2496 411.126 55.2496C411.866 55.2496 412.386 54.7396 412.546 53.5196C412.206 53.8196 411.726 54.0396 411.096 54.0396C409.686 54.0396 408.786 53.0896 408.786 51.6596C408.786 50.0796 409.816 49.0896 411.386 49.0896ZM411.416 50.3696C410.666 50.3696 410.246 50.8096 410.246 51.6096C410.246 52.3496 410.626 52.8296 411.356 52.8296C412.096 52.8296 412.566 52.3396 412.566 51.5996C412.566 50.9196 412.146 50.3696 411.416 50.3696ZM417.402 56.5096C415.802 56.5096 414.842 55.0996 414.842 52.8096C414.842 50.5096 415.802 49.0896 417.402 49.0896C419.002 49.0896 419.962 50.5096 419.962 52.8096C419.962 55.0996 419.002 56.5096 417.402 56.5096ZM416.302 52.8096C416.302 53.2396 416.332 53.6096 416.392 53.9196L418.082 50.7296C417.902 50.4796 417.672 50.3496 417.402 50.3496C416.712 50.3496 416.302 51.1696 416.302 52.8096ZM417.402 55.2496C418.092 55.2496 418.502 54.4396 418.502 52.8096C418.502 52.3796 418.472 51.9996 418.412 51.6796L416.722 54.8696C416.902 55.1196 417.132 55.2496 417.402 55.2496Z" fill="black"/>
<path id="380" d="M92.7289 65.2889C91.0989 65.2889 90.2889 64.4589 90.2189 63.1689L91.6589 63.0989C91.7189 63.7889 92.1789 64.0289 92.7589 64.0289C93.3889 64.0289 93.8789 63.7289 93.8789 63.0289C93.8789 62.3489 93.4289 61.9889 92.6889 61.9889H92.1589V60.8589H92.6889C93.2489 60.8589 93.6589 60.6089 93.6589 59.9989C93.6589 59.4089 93.3089 59.1189 92.7489 59.1189C92.1289 59.1189 91.8289 59.4289 91.7689 59.9189L90.3289 59.8489C90.4689 58.6389 91.2989 57.8689 92.7589 57.8689C94.2189 57.8689 95.1189 58.5889 95.1189 59.8089C95.1189 60.5789 94.7189 61.0889 93.9689 61.3289C94.8389 61.5789 95.3389 62.2289 95.3389 63.1289C95.3389 64.4689 94.3289 65.2889 92.7289 65.2889ZM98.775 65.2889C97.205 65.2889 96.155 64.5689 96.155 63.1889C96.155 62.2589 96.695 61.5989 97.565 61.3189C96.895 61.0589 96.445 60.5689 96.445 59.8289C96.445 58.6889 97.375 57.8689 98.775 57.8689C100.175 57.8689 101.105 58.6889 101.105 59.8289C101.105 60.5689 100.655 61.0589 99.975 61.3189C100.855 61.5989 101.395 62.2589 101.395 63.1889C101.395 64.5689 100.345 65.2889 98.775 65.2889ZM98.775 60.7489C99.285 60.7489 99.635 60.4789 99.635 59.9189C99.635 59.4189 99.295 59.1289 98.775 59.1289C98.255 59.1289 97.915 59.4189 97.915 59.9189C97.915 60.4789 98.265 60.7489 98.775 60.7489ZM98.775 64.0289C99.415 64.0289 99.935 63.7489 99.935 63.0489C99.935 62.3789 99.505 61.9589 98.775 61.9589C98.045 61.9589 97.615 62.3789 97.615 63.0489C97.615 63.7489 98.135 64.0289 98.775 64.0289ZM104.771 65.2889C103.171 65.2889 102.211 63.8789 102.211 61.5889C102.211 59.2889 103.171 57.8689 104.771 57.8689C106.371 57.8689 107.331 59.2889 107.331 61.5889C107.331 63.8789 106.371 65.2889 104.771 65.2889ZM103.671 61.5889C103.671 62.0189 103.701 62.3889 103.761 62.6989L105.451 59.5089C105.271 59.2589 105.041 59.1289 104.771 59.1289C104.081 59.1289 103.671 59.9489 103.671 61.5889ZM104.771 64.0289C105.461 64.0289 105.871 63.2189 105.871 61.5889C105.871 61.1589 105.841 60.7789 105.781 60.4589L104.091 63.6489C104.271 63.8989 104.501 64.0289 104.771 64.0289Z" fill="black"/>
<path id="330" d="M455.938 182.098C454.308 182.098 453.498 181.267 453.428 179.977L454.868 179.907C454.928 180.597 455.388 180.837 455.968 180.837C456.598 180.837 457.088 180.537 457.088 179.837C457.088 179.157 456.638 178.797 455.898 178.797H455.368V177.667H455.898C456.458 177.667 456.868 177.417 456.868 176.807C456.868 176.217 456.518 175.927 455.958 175.927C455.338 175.927 455.038 176.237 454.978 176.727L453.538 176.658C453.678 175.447 454.508 174.677 455.968 174.677C457.428 174.677 458.328 175.397 458.328 176.617C458.328 177.387 457.928 177.897 457.178 178.137C458.048 178.387 458.548 179.037 458.548 179.937C458.548 181.278 457.538 182.098 455.938 182.098ZM461.934 182.098C460.304 182.098 459.494 181.267 459.424 179.977L460.864 179.907C460.924 180.597 461.384 180.837 461.964 180.837C462.594 180.837 463.084 180.537 463.084 179.837C463.084 179.157 462.634 178.797 461.894 178.797H461.364V177.667H461.894C462.454 177.667 462.864 177.417 462.864 176.807C462.864 176.217 462.514 175.927 461.954 175.927C461.334 175.927 461.034 176.237 460.974 176.727L459.534 176.658C459.674 175.447 460.504 174.677 461.964 174.677C463.424 174.677 464.324 175.397 464.324 176.617C464.324 177.387 463.924 177.897 463.174 178.137C464.044 178.387 464.544 179.037 464.544 179.937C464.544 181.278 463.534 182.098 461.934 182.098ZM467.98 182.098C466.38 182.098 465.42 180.688 465.42 178.397C465.42 176.097 466.38 174.677 467.98 174.677C469.58 174.677 470.54 176.097 470.54 178.397C470.54 180.688 469.58 182.098 467.98 182.098ZM466.88 178.397C466.88 178.827 466.91 179.197 466.97 179.507L468.66 176.317C468.48 176.067 468.25 175.937 467.98 175.937C467.29 175.937 466.88 176.757 466.88 178.397ZM467.98 180.837C468.67 180.837 469.08 180.027 469.08 178.397C469.08 177.967 469.05 177.587 468.99 177.267L467.3 180.457C467.48 180.707 467.71 180.837 467.98 180.837Z" fill="black"/>
<path id="335" d="M28.5783 180.598C26.9483 180.598 26.1383 179.767 26.0683 178.477L27.5083 178.407C27.5683 179.097 28.0283 179.337 28.6083 179.337C29.2383 179.337 29.7283 179.037 29.7283 178.337C29.7283 177.657 29.2783 177.297 28.5383 177.297H28.0083V176.167H28.5383C29.0983 176.167 29.5083 175.917 29.5083 175.307C29.5083 174.717 29.1583 174.427 28.5983 174.427C27.9783 174.427 27.6783 174.737 27.6183 175.227L26.1783 175.158C26.3183 173.947 27.1483 173.177 28.6083 173.177C30.0683 173.177 30.9683 173.897 30.9683 175.117C30.9683 175.887 30.5683 176.397 29.8183 176.637C30.6883 176.887 31.1883 177.537 31.1883 178.437C31.1883 179.778 30.1783 180.598 28.5783 180.598ZM34.5744 180.598C32.9444 180.598 32.1344 179.767 32.0644 178.477L33.5044 178.407C33.5644 179.097 34.0244 179.337 34.6044 179.337C35.2344 179.337 35.7244 179.037 35.7244 178.337C35.7244 177.657 35.2744 177.297 34.5344 177.297H34.0044V176.167H34.5344C35.0944 176.167 35.5044 175.917 35.5044 175.307C35.5044 174.717 35.1544 174.427 34.5944 174.427C33.9744 174.427 33.6744 174.737 33.6144 175.227L32.1744 175.158C32.3144 173.947 33.1444 173.177 34.6044 173.177C36.0644 173.177 36.9644 173.897 36.9644 175.117C36.9644 175.887 36.5644 176.397 35.8144 176.637C36.6844 176.887 37.1844 177.537 37.1844 178.437C37.1844 179.778 36.1744 180.598 34.5744 180.598ZM40.6105 180.598C39.1105 180.598 38.2005 179.707 38.1005 178.537L39.5605 178.457C39.6505 179.037 40.0005 179.337 40.6105 179.337C41.2705 179.337 41.6805 178.917 41.6805 178.107C41.6805 177.317 41.2605 176.857 40.6205 176.857C40.1805 176.857 39.8105 177.117 39.6705 177.477L38.2005 177.407L38.6205 173.337H42.8105V174.617H39.7905L39.6105 176.147C39.9405 175.867 40.3805 175.707 40.8605 175.707C42.2705 175.707 43.1405 176.727 43.1405 178.117C43.1405 179.587 42.1405 180.598 40.6105 180.598Z" fill="black"/>
</g>
<path id="field" d="M79.4639 263.398L13.6966 198.507C63.048 14.3254 312.383 -32.2532 421.668 77.0311L484.149 189.558L477.889 207.176L421.668 263.398L375.319 350.912L317.565 418.483H302.9L290.997 435.11C271.359 462.541 230.522 462.384 211.095 434.804L199.599 418.483H182.073L126.115 350.912L79.4639 263.398Z" fill="#0C2340" fill-opacity="0.1" fill="none" stroke="#0C2340" stroke-width="1.002"/>
</g>
</svg>
