<svg width="500" height="470" viewBox="0 0 500 470" fill="none" xmlns="http://www.w3.org/2000/svg">
<g id="veterans-stadium-1971" clip-path="url(#clip0_85_1389)">
<g id="Infield">
<path d="M339.98 327.765C339.453 325.665 322.032 258.478 250.83 258.478C180.238 258.478 162.505 324.537 161.697 327.698C161.677 327.775 161.668 327.815 161.668 327.815L236.504 402.652C235.305 404.911 234.623 407.488 234.623 410.237C234.623 419.185 241.873 426.444 250.83 426.444C259.778 426.444 267.037 419.185 267.037 410.237C267.037 407.488 266.356 404.911 265.156 402.656L260.695 397.374C257.96 395.277 254.544 394.025 250.83 394.025C247.117 394.025 243.701 395.277 240.971 397.369L197.7 354.099C201.448 350.352 201.448 344.276 197.7 340.529C197.698 340.526 197.694 340.524 197.691 340.521L244.055 294.037C247.8 297.772 253.861 297.772 257.606 294.037L303.431 339.983C303.431 339.983 303.427 339.984 303.424 339.987C299.677 343.735 300.275 350.299 304.022 354.046L260.695 397.374L265.156 402.656L339.98 327.765Z" fill="#D2D2D2"/>
<path d="M259.91 345.705C259.91 350.72 255.845 354.786 250.83 354.786C245.815 354.786 241.75 350.72 241.75 345.705C241.75 340.69 245.815 336.625 250.83 336.625C255.845 336.625 259.91 340.69 259.91 345.705Z" fill="#D2D2D2"/>
</g>
<g id="Guides">
<g id="Home">
<circle id="Ellipse 1" cx="250.827" cy="410.42" r="16.0848" fill="#D2D2D2"/>
<circle id="Ellipse 1_2" cx="250.827" cy="410.42" r="1.62919" fill="black"/>
</g>
<g id="First">
<circle id="Ellipse 1_3" cx="311.125" cy="346.532" r="10.1878" fill="#D2D2D2"/>
<circle id="Ellipse 1_4" cx="311.125" cy="346.532" r="1.0319" fill="black"/>
</g>
<g id="Third">
<circle id="Ellipse 1_5" cx="190.34" cy="346.532" r="10.1878" fill="#D2D2D2"/>
<circle id="Ellipse 1_6" cx="190.34" cy="346.532" r="1.0319" fill="black"/>
</g>
<g id="Second">
<circle id="Ellipse 1_7" cx="250.827" cy="286.67" r="10.1878" fill="#D2D2D2"/>
<circle id="Ellipse 1_8" cx="250.827" cy="286.671" r="1.0319" fill="black"/>
</g>
<g id="Mound">
<circle id="Ellipse 1_9" cx="250.827" cy="345.928" r="9.08365" fill="#D2D2D2"/>
<circle id="Ellipse 1_10" cx="250.827" cy="345.929" r="0.920062" fill="black"/>
</g>
</g>
<path id="Foul Lines" d="M478.063 183.429L250.976 410.516L23.6366 183.177" fill="none" stroke="black" stroke-width="1.002"/>
<g id="Measurements">
<path id="408" d="M246.203 6.69922V5.27922H243.033V4.10922L246.013 -0.400782H247.633V4.03922H248.473V5.27922H247.633V6.69922H246.203ZM244.373 4.03922H246.203V1.38922L244.373 4.03922ZM251.749 6.85922C250.149 6.85922 249.189 5.44922 249.189 3.15922C249.189 0.859218 250.149 -0.560781 251.749 -0.560781C253.349 -0.560781 254.309 0.859218 254.309 3.15922C254.309 5.44922 253.349 6.85922 251.749 6.85922ZM250.649 3.15922C250.649 3.58922 250.679 3.95922 250.739 4.26922L252.429 1.07922C252.249 0.829219 252.019 0.699219 251.749 0.699219C251.059 0.699219 250.649 1.51922 250.649 3.15922ZM251.749 5.59922C252.439 5.59922 252.849 4.78922 252.849 3.15922C252.849 2.72922 252.819 2.34922 252.759 2.02922L251.069 5.21922C251.249 5.46922 251.479 5.59922 251.749 5.59922ZM257.745 6.85922C256.175 6.85922 255.125 6.13922 255.125 4.75922C255.125 3.82922 255.665 3.16922 256.535 2.88922C255.865 2.62922 255.415 2.13922 255.415 1.39922C255.415 0.259218 256.345 -0.560781 257.745 -0.560781C259.145 -0.560781 260.075 0.259218 260.075 1.39922C260.075 2.13922 259.625 2.62922 258.945 2.88922C259.825 3.16922 260.365 3.82922 260.365 4.75922C260.365 6.13922 259.315 6.85922 257.745 6.85922ZM257.745 2.31922C258.255 2.31922 258.605 2.04922 258.605 1.48922C258.605 0.989218 258.265 0.699219 257.745 0.699219C257.225 0.699219 256.885 0.989218 256.885 1.48922C256.885 2.04922 257.235 2.31922 257.745 2.31922ZM257.745 5.59922C258.385 5.59922 258.905 5.31922 258.905 4.61922C258.905 3.94922 258.475 3.52922 257.745 3.52922C257.015 3.52922 256.585 3.94922 256.585 4.61922C256.585 5.31922 257.105 5.59922 257.745 5.59922Z" fill="black"/>
<path id="371" d="M100.139 68.6444C98.5092 68.6444 97.6992 67.8144 97.6292 66.5244L99.0692 66.4544C99.1292 67.1444 99.5892 67.3844 100.169 67.3844C100.799 67.3844 101.289 67.0844 101.289 66.3844C101.289 65.7044 100.839 65.3444 100.099 65.3444H99.5692V64.2144H100.099C100.659 64.2144 101.069 63.9644 101.069 63.3544C101.069 62.7644 100.719 62.4744 100.159 62.4744C99.5392 62.4744 99.2392 62.7844 99.1792 63.2744L97.7392 63.2044C97.8792 61.9944 98.7092 61.2244 100.169 61.2244C101.629 61.2244 102.529 61.9444 102.529 63.1644C102.529 63.9344 102.129 64.4444 101.379 64.6844C102.249 64.9344 102.749 65.5844 102.749 66.4844C102.749 67.8244 101.739 68.6444 100.139 68.6444ZM104.855 68.4844C104.855 66.3344 105.755 64.3744 107.225 62.6644H103.725V61.3844H108.645V62.5944C107.015 64.4544 106.345 66.0444 106.345 68.4844H104.855ZM109.661 68.4844V67.2044H111.701V63.8244H109.961V62.6444H110.741C111.541 62.6444 111.881 62.3044 111.881 61.3844H113.121V67.2044H114.701V68.4844H109.661Z" fill="black"/>
<path id="371_2" d="M391.14 68.6444C389.51 68.6444 388.7 67.8144 388.63 66.5244L390.07 66.4544C390.13 67.1444 390.59 67.3844 391.17 67.3844C391.8 67.3844 392.29 67.0844 392.29 66.3844C392.29 65.7044 391.84 65.3444 391.1 65.3444H390.57V64.2144H391.1C391.66 64.2144 392.07 63.9644 392.07 63.3544C392.07 62.7644 391.72 62.4744 391.16 62.4744C390.54 62.4744 390.24 62.7844 390.18 63.2744L388.74 63.2044C388.88 61.9944 389.71 61.2244 391.17 61.2244C392.63 61.2244 393.53 61.9444 393.53 63.1644C393.53 63.9344 393.13 64.4444 392.38 64.6844C393.25 64.9344 393.75 65.5844 393.75 66.4844C393.75 67.8244 392.74 68.6444 391.14 68.6444ZM395.856 68.4844C395.856 66.3344 396.756 64.3744 398.226 62.6644H394.726V61.3844H399.646V62.5944C398.016 64.4544 397.346 66.0444 397.346 68.4844H395.856ZM400.662 68.4844V67.2044H402.702V63.8244H400.962V62.6444H401.742C402.542 62.6444 402.882 62.3044 402.882 61.3844H404.122V67.2044H405.702V68.4844H400.662Z" fill="black"/>
<path id="330" d="M455.938 187.098C454.308 187.098 453.498 186.268 453.428 184.978L454.868 184.908C454.928 185.598 455.388 185.838 455.968 185.838C456.598 185.838 457.088 185.538 457.088 184.838C457.088 184.158 456.638 183.798 455.898 183.798H455.368V182.668H455.898C456.458 182.668 456.868 182.418 456.868 181.808C456.868 181.218 456.518 180.928 455.958 180.928C455.338 180.928 455.038 181.238 454.978 181.728L453.538 181.658C453.678 180.448 454.508 179.678 455.968 179.678C457.428 179.678 458.328 180.398 458.328 181.618C458.328 182.388 457.928 182.898 457.178 183.138C458.048 183.388 458.548 184.038 458.548 184.938C458.548 186.278 457.538 187.098 455.938 187.098ZM461.934 187.098C460.304 187.098 459.494 186.268 459.424 184.978L460.864 184.908C460.924 185.598 461.384 185.838 461.964 185.838C462.594 185.838 463.084 185.538 463.084 184.838C463.084 184.158 462.634 183.798 461.894 183.798H461.364V182.668H461.894C462.454 182.668 462.864 182.418 462.864 181.808C462.864 181.218 462.514 180.928 461.954 180.928C461.334 180.928 461.034 181.238 460.974 181.728L459.534 181.658C459.674 180.448 460.504 179.678 461.964 179.678C463.424 179.678 464.324 180.398 464.324 181.618C464.324 182.388 463.924 182.898 463.174 183.138C464.044 183.388 464.544 184.038 464.544 184.938C464.544 186.278 463.534 187.098 461.934 187.098ZM467.98 187.098C466.38 187.098 465.42 185.688 465.42 183.398C465.42 181.098 466.38 179.678 467.98 179.678C469.58 179.678 470.54 181.098 470.54 183.398C470.54 185.688 469.58 187.098 467.98 187.098ZM466.88 183.398C466.88 183.828 466.91 184.198 466.97 184.508L468.66 181.318C468.48 181.068 468.25 180.938 467.98 180.938C467.29 180.938 466.88 181.758 466.88 183.398ZM467.98 185.838C468.67 185.838 469.08 185.028 469.08 183.398C469.08 182.968 469.05 182.588 468.99 182.268L467.3 185.458C467.48 185.708 467.71 185.838 467.98 185.838Z" fill="black"/>
<path id="330_2" d="M34.5783 187.098C32.9483 187.098 32.1383 186.268 32.0683 184.978L33.5083 184.908C33.5683 185.598 34.0283 185.838 34.6083 185.838C35.2383 185.838 35.7283 185.538 35.7283 184.838C35.7283 184.158 35.2783 183.798 34.5383 183.798H34.0083V182.668H34.5383C35.0983 182.668 35.5083 182.418 35.5083 181.808C35.5083 181.218 35.1583 180.928 34.5983 180.928C33.9783 180.928 33.6783 181.238 33.6183 181.728L32.1783 181.658C32.3183 180.448 33.1483 179.678 34.6083 179.678C36.0683 179.678 36.9683 180.398 36.9683 181.618C36.9683 182.388 36.5683 182.898 35.8183 183.138C36.6883 183.388 37.1883 184.038 37.1883 184.938C37.1883 186.278 36.1783 187.098 34.5783 187.098ZM40.5744 187.098C38.9444 187.098 38.1344 186.268 38.0644 184.978L39.5044 184.908C39.5644 185.598 40.0244 185.838 40.6044 185.838C41.2344 185.838 41.7244 185.538 41.7244 184.838C41.7244 184.158 41.2744 183.798 40.5344 183.798H40.0044V182.668H40.5344C41.0944 182.668 41.5044 182.418 41.5044 181.808C41.5044 181.218 41.1544 180.928 40.5944 180.928C39.9744 180.928 39.6744 181.238 39.6144 181.728L38.1744 181.658C38.3144 180.448 39.1444 179.678 40.6044 179.678C42.0644 179.678 42.9644 180.398 42.9644 181.618C42.9644 182.388 42.5644 182.898 41.8144 183.138C42.6844 183.388 43.1844 184.038 43.1844 184.938C43.1844 186.278 42.1744 187.098 40.5744 187.098ZM46.6205 187.098C45.0205 187.098 44.0605 185.688 44.0605 183.398C44.0605 181.098 45.0205 179.678 46.6205 179.678C48.2205 179.678 49.1805 181.098 49.1805 183.398C49.1805 185.688 48.2205 187.098 46.6205 187.098ZM45.5205 183.398C45.5205 183.828 45.5505 184.198 45.6105 184.508L47.3005 181.318C47.1205 181.068 46.8905 180.938 46.6205 180.938C45.9305 180.938 45.5205 181.758 45.5205 183.398ZM46.6205 185.838C47.3105 185.838 47.7205 185.028 47.7205 183.398C47.7205 182.968 47.6905 182.588 47.6305 182.268L45.9405 185.458C46.1205 185.708 46.3505 185.838 46.6205 185.838Z" fill="black"/>
</g>
<g id="field">
<path d="M27.514 179.405C27.514 179.405 121.92 9.77355 250.828 9.77148C379.735 9.77355 474.141 179.405 474.141 179.405L492.154 197.418L456.555 213.812L432.179 238.188C443.836 269.129 424.792 304.667 411.053 318.406L279.559 464.659C277.093 467.401 273.579 468.967 269.892 468.967H231.764C228.076 468.967 224.562 467.401 222.096 464.659L90.602 318.406C76.863 304.667 57.8194 269.129 69.4764 238.188L45.1007 213.812L9.50125 197.418L27.514 179.405Z" fill="#E81828" fill-opacity="0.1"/>
<path d="M250.83 9.77148L250.828 9.77148M250.828 9.77148C121.92 9.77355 27.514 179.405 27.514 179.405L9.50125 197.418L45.1007 213.812L69.4764 238.188C57.8194 269.129 76.863 304.667 90.602 318.406L222.096 464.659C224.562 467.401 228.076 468.967 231.764 468.967H269.892C273.579 468.967 277.093 467.401 279.559 464.659L411.053 318.406C424.792 304.667 443.836 269.129 432.179 238.188L456.555 213.812L492.154 197.418L474.141 179.405C474.141 179.405 379.735 9.77355 250.828 9.77148ZM250.828 9.77148L250.825 9.77148" fill="none" stroke="#E81828" stroke-width="1.002"/>
</g>
</g>
<defs>
<clipPath id="clip0_85_1389">
<rect width="500" height="469.94" fill="white"/>
</clipPath>
</defs>
</svg>
