<svg width="500" height="470" viewBox="0 0 500 470" fill="none" xmlns="http://www.w3.org/2000/svg">
<g id="wrigley-field-1928" clip-path="url(#clip0_130_7360)">
<g id="Infield">
<path d="M339.98 327.764C339.453 325.664 322.032 258.477 250.83 258.477C180.238 258.477 162.505 324.536 161.697 327.697C161.677 327.775 161.668 327.814 161.668 327.814L236.504 402.651C235.305 404.91 234.623 407.487 234.623 410.236C234.623 419.184 241.873 426.443 250.83 426.443C259.778 426.443 267.037 419.184 267.037 410.236C267.037 407.487 266.356 404.91 265.157 402.655L260.695 397.373C257.96 395.276 254.544 394.024 250.83 394.024C247.117 394.024 243.701 395.276 240.971 397.368L197.7 354.098C201.448 350.351 201.448 344.275 197.7 340.528C197.698 340.525 197.694 340.523 197.691 340.52L244.055 294.036C247.8 297.772 253.861 297.772 257.606 294.036L303.431 339.982C303.431 339.982 303.427 339.983 303.424 339.986C299.677 343.734 300.275 350.298 304.022 354.045L260.695 397.373L265.157 402.655L339.98 327.764Z" fill="#D2D2D2"/>
<path d="M259.91 345.704C259.91 350.719 255.845 354.785 250.83 354.785C245.815 354.785 241.75 350.719 241.75 345.704C241.75 340.689 245.815 336.624 250.83 336.624C255.845 336.624 259.91 340.689 259.91 345.704Z" fill="#D2D2D2"/>
</g>
<g id="Guides">
<g id="Home">
<circle id="Ellipse 1" cx="250.827" cy="410.421" r="16.0848" fill="#D2D2D2"/>
<circle id="Ellipse 1_2" cx="250.827" cy="410.422" r="1.62919" fill="black"/>
</g>
<g id="First">
<circle id="Ellipse 1_3" cx="311.125" cy="346.535" r="10.1878" fill="#D2D2D2"/>
<circle id="Ellipse 1_4" cx="311.125" cy="346.536" r="1.0319" fill="black"/>
</g>
<g id="Third">
<circle id="Ellipse 1_5" cx="190.34" cy="346.535" r="10.1878" fill="#D2D2D2"/>
<circle id="Ellipse 1_6" cx="190.34" cy="346.536" r="1.0319" fill="black"/>
</g>
<g id="Second">
<circle id="Ellipse 1_7" cx="250.827" cy="286.672" r="10.1878" fill="#D2D2D2"/>
<circle id="Ellipse 1_8" cx="250.827" cy="286.673" r="1.0319" fill="black"/>
</g>
<g id="Mound">
<circle id="Ellipse 1_9" cx="250.827" cy="345.931" r="9.08365" fill="#D2D2D2"/>
<circle id="Ellipse 1_10" cx="250.827" cy="345.932" r="0.920062" fill="black"/>
</g>
</g>
<path id="Foul Lines" d="M470.576 190.916L250.976 410.516L0.350586 159.891" fill="none" stroke="black" stroke-width="1.002"/>
<g id="Measurements">
<path id="436" d="M318.741 -0.0195312V-1.43953H315.571V-2.60953L318.551 -7.11953H320.171V-2.67953H321.011V-1.43953H320.171V-0.0195312H318.741ZM316.911 -2.67953H318.741V-5.32953L316.911 -2.67953ZM324.237 0.140469C322.607 0.140469 321.797 -0.689531 321.727 -1.97953L323.167 -2.04953C323.227 -1.35953 323.687 -1.11953 324.267 -1.11953C324.897 -1.11953 325.387 -1.41953 325.387 -2.11953C325.387 -2.79953 324.937 -3.15953 324.197 -3.15953H323.667V-4.28953H324.197C324.757 -4.28953 325.167 -4.53953 325.167 -5.14953C325.167 -5.73953 324.817 -6.02953 324.257 -6.02953C323.637 -6.02953 323.337 -5.71953 323.277 -5.22953L321.837 -5.29953C321.977 -6.50953 322.807 -7.27953 324.267 -7.27953C325.727 -7.27953 326.627 -6.55953 326.627 -5.33953C326.627 -4.56953 326.227 -4.05953 325.477 -3.81953C326.347 -3.56953 326.847 -2.91953 326.847 -2.01953C326.847 -0.679531 325.837 0.140469 324.237 0.140469ZM330.303 0.140469C328.573 0.140469 327.663 -1.02953 327.663 -3.08953C327.663 -5.43953 328.473 -7.27953 330.563 -7.27953C331.963 -7.27953 332.613 -6.51953 332.873 -5.49953L331.433 -5.39953C331.333 -5.75953 331.103 -6.01953 330.563 -6.01953C329.823 -6.01953 329.303 -5.50953 329.143 -4.28953C329.483 -4.58953 329.963 -4.80953 330.593 -4.80953C332.003 -4.80953 332.903 -3.85953 332.903 -2.42953C332.903 -0.849531 331.873 0.140469 330.303 0.140469ZM330.273 -1.13953C331.023 -1.13953 331.443 -1.57953 331.443 -2.37953C331.443 -3.11953 331.063 -3.59953 330.333 -3.59953C329.593 -3.59953 329.123 -3.10953 329.123 -2.36953C329.123 -1.68953 329.543 -1.13953 330.273 -1.13953Z" fill="black"/>
<path id="321" d="M446.938 196.098C445.308 196.098 444.498 195.267 444.428 193.977L445.868 193.907C445.928 194.597 446.388 194.837 446.968 194.837C447.598 194.837 448.088 194.537 448.088 193.837C448.088 193.157 447.638 192.797 446.898 192.797H446.368V191.667H446.898C447.458 191.667 447.868 191.417 447.868 190.807C447.868 190.217 447.518 189.927 446.958 189.927C446.338 189.927 446.038 190.237 445.978 190.727L444.538 190.658C444.678 189.447 445.508 188.677 446.968 188.677C448.428 188.677 449.328 189.397 449.328 190.617C449.328 191.387 448.928 191.897 448.178 192.137C449.048 192.387 449.548 193.037 449.548 193.937C449.548 195.278 448.538 196.098 446.938 196.098ZM450.424 195.938C450.424 194.207 451.004 193.197 452.984 192.177C453.714 191.797 454.074 191.517 454.074 190.867C454.074 190.297 453.744 189.937 453.114 189.937C452.394 189.937 452.044 190.357 451.924 191.117L450.454 191.027C450.594 189.577 451.504 188.677 453.134 188.677C454.724 188.677 455.544 189.527 455.544 190.787C455.544 191.927 455.054 192.487 453.654 193.247C452.504 193.867 452.094 194.297 452.054 194.657H455.544V195.938H450.424ZM456.46 195.938V194.657H458.5V191.277H456.76V190.097H457.54C458.34 190.097 458.68 189.757 458.68 188.837H459.92V194.657H461.5V195.938H456.46Z" fill="black"/>
<path id="364" d="M13.5783 163.598C11.9483 163.598 11.1383 162.767 11.0683 161.477L12.5083 161.407C12.5683 162.097 13.0283 162.337 13.6083 162.337C14.2383 162.337 14.7283 162.037 14.7283 161.337C14.7283 160.657 14.2783 160.297 13.5383 160.297H13.0083V159.167H13.5383C14.0983 159.167 14.5083 158.917 14.5083 158.307C14.5083 157.717 14.1583 157.427 13.5983 157.427C12.9783 157.427 12.6783 157.737 12.6183 158.227L11.1783 158.158C11.3183 156.947 12.1483 156.177 13.6083 156.177C15.0683 156.177 15.9683 156.897 15.9683 158.117C15.9683 158.887 15.5683 159.397 14.8183 159.637C15.6883 159.887 16.1883 160.537 16.1883 161.437C16.1883 162.778 15.1783 163.598 13.5783 163.598ZM19.6444 163.598C17.9144 163.598 17.0044 162.427 17.0044 160.367C17.0044 158.017 17.8144 156.177 19.9044 156.177C21.3044 156.177 21.9544 156.937 22.2144 157.957L20.7744 158.057C20.6744 157.697 20.4444 157.437 19.9044 157.437C19.1644 157.437 18.6444 157.947 18.4844 159.167C18.8244 158.867 19.3044 158.647 19.9344 158.647C21.3444 158.647 22.2444 159.597 22.2444 161.027C22.2444 162.607 21.2144 163.598 19.6444 163.598ZM19.6144 162.317C20.3644 162.317 20.7844 161.877 20.7844 161.077C20.7844 160.337 20.4044 159.857 19.6744 159.857C18.9344 159.857 18.4644 160.347 18.4644 161.087C18.4644 161.767 18.8844 162.317 19.6144 162.317ZM26.0705 163.438V162.017H22.9005V160.847L25.8805 156.337H27.5005V160.777H28.3405V162.017H27.5005V163.438H26.0705ZM24.2405 160.777H26.0705V158.127L24.2405 160.777Z" fill="black"/>
</g>
<path id="field" d="M-3.00964 162.365L31.0397 211.068L37.2215 208.469L146.381 369.933L221.48 463.585C232.566 477.411 252.779 479.594 266.561 468.452L329.451 417.615L452.294 214.074L459.571 218.487L474.226 194.787L292.549 -24.0469H281.779L164.634 73.4307L140.262 43.5834L-3.00964 162.365Z" fill="#0E3386" fill-opacity="0.1" fill="none" stroke="#0E3386" stroke-width="1.002"/>
</g>
<defs>
<clipPath id="clip0_130_7360">
<rect width="500" height="469.94" fill="white"/>
</clipPath>
</defs>
</svg>
