<svg width="500" height="470" viewBox="0 0 500 470" fill="none" xmlns="http://www.w3.org/2000/svg">
<g id="wrigley-field-1923" clip-path="url(#clip0_130_7331)">
<g id="Infield">
<path d="M339.98 327.764C339.453 325.664 322.032 258.477 250.83 258.477C180.238 258.477 162.505 324.536 161.697 327.697C161.677 327.775 161.668 327.814 161.668 327.814L236.504 402.651C235.305 404.91 234.623 407.487 234.623 410.236C234.623 419.184 241.873 426.443 250.83 426.443C259.778 426.443 267.037 419.184 267.037 410.236C267.037 407.487 266.356 404.91 265.157 402.655L260.695 397.373C257.96 395.276 254.544 394.024 250.83 394.024C247.117 394.024 243.701 395.276 240.971 397.368L197.7 354.098C201.448 350.351 201.448 344.275 197.7 340.528C197.698 340.525 197.694 340.523 197.691 340.52L244.055 294.036C247.8 297.772 253.861 297.772 257.606 294.036L303.431 339.982C303.431 339.982 303.427 339.983 303.424 339.986C299.677 343.734 300.275 350.298 304.022 354.045L260.695 397.373L265.157 402.655L339.98 327.764Z" fill="#D2D2D2"/>
<path d="M259.91 345.704C259.91 350.719 255.845 354.785 250.83 354.785C245.815 354.785 241.75 350.719 241.75 345.704C241.75 340.689 245.815 336.624 250.83 336.624C255.845 336.624 259.91 340.689 259.91 345.704Z" fill="#D2D2D2"/>
</g>
<g id="Guides">
<g id="Home">
<circle id="Ellipse 1" cx="250.827" cy="410.421" r="16.0848" fill="#D2D2D2"/>
<circle id="Ellipse 1_2" cx="250.827" cy="410.422" r="1.62919" fill="black"/>
</g>
<g id="First">
<circle id="Ellipse 1_3" cx="311.125" cy="346.535" r="10.1878" fill="#D2D2D2"/>
<circle id="Ellipse 1_4" cx="311.125" cy="346.536" r="1.0319" fill="black"/>
</g>
<g id="Third">
<circle id="Ellipse 1_5" cx="190.34" cy="346.535" r="10.1878" fill="#D2D2D2"/>
<circle id="Ellipse 1_6" cx="190.34" cy="346.536" r="1.0319" fill="black"/>
</g>
<g id="Second">
<circle id="Ellipse 1_7" cx="250.827" cy="286.672" r="10.1878" fill="#D2D2D2"/>
<circle id="Ellipse 1_8" cx="250.827" cy="286.673" r="1.0319" fill="black"/>
</g>
<g id="Mound">
<circle id="Ellipse 1_9" cx="250.827" cy="345.931" r="9.08365" fill="#D2D2D2"/>
<circle id="Ellipse 1_10" cx="250.827" cy="345.932" r="0.920062" fill="black"/>
</g>
</g>
<path id="Foul Lines" d="M470.576 190.916L250.976 410.516L27.5833 187.125" fill="none" stroke="black" stroke-width="1.002"/>
<g id="Measurements">
<path id="318" d="M446.938 196.098C445.308 196.098 444.498 195.267 444.428 193.977L445.868 193.907C445.928 194.597 446.388 194.837 446.968 194.837C447.598 194.837 448.088 194.537 448.088 193.837C448.088 193.157 447.638 192.797 446.898 192.797H446.368V191.667H446.898C447.458 191.667 447.868 191.417 447.868 190.807C447.868 190.217 447.518 189.927 446.958 189.927C446.338 189.927 446.038 190.237 445.978 190.727L444.538 190.658C444.678 189.447 445.508 188.677 446.968 188.677C448.428 188.677 449.328 189.397 449.328 190.617C449.328 191.387 448.928 191.897 448.178 192.137C449.048 192.387 449.548 193.037 449.548 193.937C449.548 195.278 448.538 196.098 446.938 196.098ZM450.464 195.938V194.657H452.504V191.277H450.764V190.097H451.544C452.344 190.097 452.684 189.757 452.684 188.837H453.924V194.657H455.504V195.938H450.464ZM458.98 196.098C457.41 196.098 456.36 195.377 456.36 193.997C456.36 193.067 456.9 192.407 457.77 192.127C457.1 191.867 456.65 191.377 456.65 190.637C456.65 189.497 457.58 188.677 458.98 188.677C460.38 188.677 461.31 189.497 461.31 190.637C461.31 191.377 460.86 191.867 460.18 192.127C461.06 192.407 461.6 193.067 461.6 193.997C461.6 195.377 460.55 196.098 458.98 196.098ZM458.98 191.557C459.49 191.557 459.84 191.287 459.84 190.727C459.84 190.227 459.5 189.937 458.98 189.937C458.46 189.937 458.12 190.227 458.12 190.727C458.12 191.287 458.47 191.557 458.98 191.557ZM458.98 194.837C459.62 194.837 460.14 194.557 460.14 193.857C460.14 193.187 459.71 192.767 458.98 192.767C458.25 192.767 457.82 193.187 457.82 193.857C457.82 194.557 458.34 194.837 458.98 194.837Z" fill="black"/>
<path id="325" d="M38.5783 191.598C36.9483 191.598 36.1383 190.767 36.0683 189.477L37.5083 189.407C37.5683 190.097 38.0283 190.337 38.6083 190.337C39.2383 190.337 39.7283 190.037 39.7283 189.337C39.7283 188.657 39.2783 188.297 38.5383 188.297H38.0083V187.167H38.5383C39.0983 187.167 39.5083 186.917 39.5083 186.307C39.5083 185.717 39.1583 185.427 38.5983 185.427C37.9783 185.427 37.6783 185.737 37.6183 186.227L36.1783 186.158C36.3183 184.947 37.1483 184.177 38.6083 184.177C40.0683 184.177 40.9683 184.897 40.9683 186.117C40.9683 186.887 40.5683 187.397 39.8183 187.637C40.6883 187.887 41.1883 188.537 41.1883 189.437C41.1883 190.778 40.1783 191.598 38.5783 191.598ZM42.0644 191.438C42.0644 189.707 42.6444 188.697 44.6244 187.677C45.3544 187.297 45.7144 187.017 45.7144 186.367C45.7144 185.797 45.3844 185.437 44.7544 185.437C44.0344 185.437 43.6844 185.857 43.5644 186.617L42.0944 186.527C42.2344 185.077 43.1444 184.177 44.7744 184.177C46.3644 184.177 47.1844 185.027 47.1844 186.287C47.1844 187.427 46.6944 187.987 45.2944 188.747C44.1444 189.367 43.7344 189.797 43.6944 190.157H47.1844V191.438H42.0644ZM50.6105 191.598C49.1105 191.598 48.2005 190.707 48.1005 189.537L49.5605 189.457C49.6505 190.037 50.0005 190.337 50.6105 190.337C51.2705 190.337 51.6805 189.917 51.6805 189.107C51.6805 188.317 51.2605 187.857 50.6205 187.857C50.1805 187.857 49.8105 188.117 49.6705 188.477L48.2005 188.407L48.6205 184.337H52.8105V185.617H49.7905L49.6105 187.147C49.9405 186.867 50.3805 186.707 50.8605 186.707C52.2705 186.707 53.1405 187.727 53.1405 189.117C53.1405 190.587 52.1405 191.598 50.6105 191.598Z" fill="black"/>
</g>
<path id="field" d="M19.7979 193.95L281.779 -24.0469H292.549L474.226 194.787L459.571 218.487L452.294 214.074L329.451 417.615L266.561 468.452C252.779 479.594 232.566 477.411 221.48 463.585L146.381 369.933L37.2216 208.469L31.0397 211.068L19.7979 193.95Z" fill="#0E3386" fill-opacity="0.1" fill="none" stroke="#0E3386" stroke-width="1.002"/>
</g>
<defs>
<clipPath id="clip0_130_7331">
<rect width="500" height="469.94" fill="white"/>
</clipPath>
</defs>
</svg>
