<svg width="500" height="470" viewBox="0 0 500 470" fill="none" xmlns="http://www.w3.org/2000/svg">
<g id="wrigley-field-2019">
<g id="Infield">
<path d="M339.98 327.764C339.453 325.664 322.032 258.477 250.83 258.477C180.238 258.477 162.505 324.536 161.697 327.697C161.677 327.775 161.668 327.814 161.668 327.814L236.504 402.651C235.305 404.91 234.623 407.487 234.623 410.236C234.623 419.184 241.873 426.443 250.83 426.443C259.778 426.443 267.037 419.184 267.037 410.236C267.037 407.487 266.356 404.91 265.157 402.655L260.695 397.373C257.96 395.276 254.544 394.024 250.83 394.024C247.117 394.024 243.701 395.276 240.971 397.368L197.7 354.098C201.448 350.351 201.448 344.275 197.7 340.528C197.698 340.525 197.694 340.523 197.691 340.52L244.055 294.036C247.8 297.772 253.861 297.772 257.606 294.036L303.431 339.982C303.431 339.982 303.427 339.983 303.424 339.986C299.677 343.734 300.275 350.298 304.022 354.045L260.695 397.373L265.157 402.655L339.98 327.764Z" fill="#D2D2D2"/>
<path d="M259.91 345.704C259.91 350.719 255.845 354.785 250.83 354.785C245.815 354.785 241.75 350.719 241.75 345.704C241.75 340.689 245.815 336.624 250.83 336.624C255.845 336.624 259.91 340.689 259.91 345.704Z" fill="#D2D2D2"/>
</g>
<g id="Guides">
<g id="Home">
<circle id="Ellipse 1" cx="250.827" cy="410.421" r="16.0848" fill="#D2D2D2"/>
<circle id="Ellipse 1_2" cx="250.827" cy="410.422" r="1.62919" fill="black"/>
</g>
<g id="First">
<circle id="Ellipse 1_3" cx="311.124" cy="346.535" r="10.1878" fill="#D2D2D2"/>
<circle id="Ellipse 1_4" cx="311.124" cy="346.536" r="1.0319" fill="black"/>
</g>
<g id="Third">
<circle id="Ellipse 1_5" cx="190.34" cy="346.535" r="10.1878" fill="#D2D2D2"/>
<circle id="Ellipse 1_6" cx="190.34" cy="346.536" r="1.0319" fill="black"/>
</g>
<g id="Second">
<circle id="Ellipse 1_7" cx="250.827" cy="286.672" r="10.1878" fill="#D2D2D2"/>
<circle id="Ellipse 1_8" cx="250.827" cy="286.673" r="1.0319" fill="black"/>
</g>
<g id="Mound">
<circle id="Ellipse 1_9" cx="250.827" cy="345.931" r="9.08365" fill="#D2D2D2"/>
<circle id="Ellipse 1_10" cx="250.827" cy="345.932" r="0.920062" fill="black"/>
</g>
</g>
<path id="Foul Lines" d="M493.99 167.502L250.975 410.517L6.26538 165.805" fill="none" stroke="black" stroke-width="1.002"/>
<g id="Measurements">
<path id="400" d="M280.741 15.9805V14.5605H277.571V13.3905L280.551 8.88047H282.171V13.3205H283.011V14.5605H282.171V15.9805H280.741ZM278.911 13.3205H280.741V10.6705L278.911 13.3205ZM286.287 16.1405C284.687 16.1405 283.727 14.7305 283.727 12.4405C283.727 10.1405 284.687 8.72047 286.287 8.72047C287.887 8.72047 288.847 10.1405 288.847 12.4405C288.847 14.7305 287.887 16.1405 286.287 16.1405ZM285.187 12.4405C285.187 12.8705 285.217 13.2405 285.277 13.5505L286.967 10.3605C286.787 10.1105 286.557 9.98047 286.287 9.98047C285.597 9.98047 285.187 10.8005 285.187 12.4405ZM286.287 14.8805C286.977 14.8805 287.387 14.0705 287.387 12.4405C287.387 12.0105 287.357 11.6305 287.297 11.3105L285.607 14.5005C285.787 14.7505 286.017 14.8805 286.287 14.8805ZM292.283 16.1405C290.683 16.1405 289.723 14.7305 289.723 12.4405C289.723 10.1405 290.683 8.72047 292.283 8.72047C293.883 8.72047 294.843 10.1405 294.843 12.4405C294.843 14.7305 293.883 16.1405 292.283 16.1405ZM291.183 12.4405C291.183 12.8705 291.213 13.2405 291.273 13.5505L292.963 10.3605C292.783 10.1105 292.553 9.98047 292.283 9.98047C291.593 9.98047 291.183 10.8005 291.183 12.4405ZM292.283 14.8805C292.973 14.8805 293.383 14.0705 293.383 12.4405C293.383 12.0105 293.353 11.6305 293.293 11.3105L291.603 14.5005C291.783 14.7505 292.013 14.8805 292.283 14.8805Z" fill="black"/>
<path id="368" d="M158.397 58.2264C156.767 58.2264 155.957 57.3964 155.887 56.1064L157.327 56.0364C157.387 56.7264 157.847 56.9664 158.427 56.9664C159.057 56.9664 159.547 56.6664 159.547 55.9664C159.547 55.2864 159.097 54.9264 158.357 54.9264H157.827V53.7964H158.357C158.917 53.7964 159.327 53.5464 159.327 52.9364C159.327 52.3464 158.977 52.0564 158.417 52.0564C157.797 52.0564 157.497 52.3664 157.437 52.8564L155.997 52.7864C156.137 51.5764 156.967 50.8064 158.427 50.8064C159.887 50.8064 160.787 51.5264 160.787 52.7464C160.787 53.5164 160.387 54.0264 159.637 54.2664C160.507 54.5164 161.007 55.1664 161.007 56.0664C161.007 57.4064 159.997 58.2264 158.397 58.2264ZM164.463 58.2264C162.733 58.2264 161.823 57.0564 161.823 54.9964C161.823 52.6464 162.633 50.8064 164.723 50.8064C166.123 50.8064 166.773 51.5664 167.033 52.5864L165.593 52.6864C165.493 52.3264 165.263 52.0664 164.723 52.0664C163.983 52.0664 163.463 52.5764 163.303 53.7964C163.643 53.4964 164.123 53.2764 164.753 53.2764C166.163 53.2764 167.063 54.2264 167.063 55.6564C167.063 57.2364 166.033 58.2264 164.463 58.2264ZM164.433 56.9464C165.183 56.9464 165.603 56.5064 165.603 55.7064C165.603 54.9664 165.223 54.4864 164.493 54.4864C163.753 54.4864 163.283 54.9764 163.283 55.7164C163.283 56.3964 163.703 56.9464 164.433 56.9464ZM170.439 58.2264C168.869 58.2264 167.819 57.5064 167.819 56.1264C167.819 55.1964 168.359 54.5364 169.229 54.2564C168.559 53.9964 168.109 53.5064 168.109 52.7664C168.109 51.6264 169.039 50.8064 170.439 50.8064C171.839 50.8064 172.769 51.6264 172.769 52.7664C172.769 53.5064 172.319 53.9964 171.639 54.2564C172.519 54.5364 173.059 55.1964 173.059 56.1264C173.059 57.5064 172.009 58.2264 170.439 58.2264ZM170.439 53.6864C170.949 53.6864 171.299 53.4164 171.299 52.8564C171.299 52.3564 170.959 52.0664 170.439 52.0664C169.919 52.0664 169.579 52.3564 169.579 52.8564C169.579 53.4164 169.929 53.6864 170.439 53.6864ZM170.439 56.9664C171.079 56.9664 171.599 56.6864 171.599 55.9864C171.599 55.3164 171.169 54.8964 170.439 54.8964C169.709 54.8964 169.279 55.3164 169.279 55.9864C169.279 56.6864 169.799 56.9664 170.439 56.9664Z" fill="black"/>
<path id="368_2" d="M393.036 76.535C391.406 76.535 390.596 75.705 390.526 74.415L391.966 74.345C392.026 75.035 392.486 75.275 393.066 75.275C393.696 75.275 394.186 74.975 394.186 74.275C394.186 73.595 393.736 73.235 392.996 73.235H392.466V72.105H392.996C393.556 72.105 393.966 71.855 393.966 71.245C393.966 70.655 393.616 70.365 393.056 70.365C392.436 70.365 392.136 70.675 392.076 71.165L390.636 71.095C390.776 69.885 391.606 69.115 393.066 69.115C394.526 69.115 395.426 69.835 395.426 71.055C395.426 71.825 395.026 72.335 394.276 72.575C395.146 72.825 395.646 73.475 395.646 74.375C395.646 75.715 394.636 76.535 393.036 76.535ZM399.102 76.535C397.372 76.535 396.462 75.365 396.462 73.305C396.462 70.955 397.272 69.115 399.362 69.115C400.762 69.115 401.412 69.875 401.672 70.895L400.232 70.995C400.132 70.635 399.902 70.375 399.362 70.375C398.622 70.375 398.102 70.885 397.942 72.105C398.282 71.805 398.762 71.585 399.392 71.585C400.802 71.585 401.702 72.535 401.702 73.965C401.702 75.545 400.672 76.535 399.102 76.535ZM399.072 75.255C399.822 75.255 400.242 74.815 400.242 74.015C400.242 73.275 399.862 72.795 399.132 72.795C398.392 72.795 397.922 73.285 397.922 74.025C397.922 74.705 398.342 75.255 399.072 75.255ZM405.078 76.535C403.508 76.535 402.458 75.815 402.458 74.435C402.458 73.505 402.998 72.845 403.868 72.565C403.198 72.305 402.748 71.815 402.748 71.075C402.748 69.935 403.678 69.115 405.078 69.115C406.478 69.115 407.408 69.935 407.408 71.075C407.408 71.815 406.958 72.305 406.278 72.565C407.158 72.845 407.698 73.505 407.698 74.435C407.698 75.815 406.648 76.535 405.078 76.535ZM405.078 71.995C405.588 71.995 405.938 71.725 405.938 71.165C405.938 70.665 405.598 70.375 405.078 70.375C404.558 70.375 404.218 70.665 404.218 71.165C404.218 71.725 404.568 71.995 405.078 71.995ZM405.078 75.275C405.718 75.275 406.238 74.995 406.238 74.295C406.238 73.625 405.808 73.205 405.078 73.205C404.348 73.205 403.918 73.625 403.918 74.295C403.918 74.995 404.438 75.275 405.078 75.275Z" fill="black"/>
<path id="353" d="M470.938 171.098C469.308 171.098 468.498 170.267 468.428 168.977L469.868 168.907C469.928 169.597 470.388 169.837 470.968 169.837C471.598 169.837 472.088 169.537 472.088 168.837C472.088 168.157 471.638 167.797 470.898 167.797H470.368V166.667H470.898C471.458 166.667 471.868 166.417 471.868 165.807C471.868 165.217 471.518 164.927 470.958 164.927C470.338 164.927 470.038 165.237 469.978 165.727L468.538 165.658C468.678 164.447 469.508 163.677 470.968 163.677C472.428 163.677 473.328 164.397 473.328 165.617C473.328 166.387 472.928 166.897 472.178 167.137C473.048 167.387 473.548 168.037 473.548 168.937C473.548 170.278 472.538 171.098 470.938 171.098ZM476.974 171.098C475.474 171.098 474.564 170.207 474.464 169.037L475.924 168.957C476.014 169.537 476.364 169.837 476.974 169.837C477.634 169.837 478.044 169.417 478.044 168.607C478.044 167.817 477.624 167.357 476.984 167.357C476.544 167.357 476.174 167.617 476.034 167.977L474.564 167.907L474.984 163.837H479.174V165.117H476.154L475.974 166.647C476.304 166.367 476.744 166.207 477.224 166.207C478.634 166.207 479.504 167.227 479.504 168.617C479.504 170.087 478.504 171.098 476.974 171.098ZM482.93 171.098C481.3 171.098 480.49 170.267 480.42 168.977L481.86 168.907C481.92 169.597 482.38 169.837 482.96 169.837C483.59 169.837 484.08 169.537 484.08 168.837C484.08 168.157 483.63 167.797 482.89 167.797H482.36V166.667H482.89C483.45 166.667 483.86 166.417 483.86 165.807C483.86 165.217 483.51 164.927 482.95 164.927C482.33 164.927 482.03 165.237 481.97 165.727L480.53 165.658C480.67 164.447 481.5 163.677 482.96 163.677C484.42 163.677 485.32 164.397 485.32 165.617C485.32 166.387 484.92 166.897 484.17 167.137C485.04 167.387 485.54 168.037 485.54 168.937C485.54 170.278 484.53 171.098 482.93 171.098Z" fill="black"/>
<path id="355" d="M16.5784 170.598C14.9484 170.598 14.1384 169.767 14.0684 168.477L15.5084 168.407C15.5684 169.097 16.0284 169.337 16.6084 169.337C17.2384 169.337 17.7284 169.037 17.7284 168.337C17.7284 167.657 17.2784 167.297 16.5384 167.297H16.0084V166.167H16.5384C17.0984 166.167 17.5084 165.917 17.5084 165.307C17.5084 164.717 17.1584 164.427 16.5984 164.427C15.9784 164.427 15.6784 164.737 15.6184 165.227L14.1784 165.158C14.3184 163.947 15.1484 163.177 16.6084 163.177C18.0684 163.177 18.9684 163.897 18.9684 165.117C18.9684 165.887 18.5684 166.397 17.8184 166.637C18.6884 166.887 19.1884 167.537 19.1884 168.437C19.1884 169.778 18.1784 170.598 16.5784 170.598ZM22.6145 170.598C21.1145 170.598 20.2045 169.707 20.1045 168.537L21.5645 168.457C21.6545 169.037 22.0045 169.337 22.6145 169.337C23.2745 169.337 23.6845 168.917 23.6845 168.107C23.6845 167.317 23.2645 166.857 22.6245 166.857C22.1845 166.857 21.8145 167.117 21.6745 167.477L20.2045 167.407L20.6245 163.337H24.8145V164.617H21.7945L21.6145 166.147C21.9445 165.867 22.3845 165.707 22.8645 165.707C24.2745 165.707 25.1445 166.727 25.1445 168.117C25.1445 169.587 24.1445 170.598 22.6145 170.598ZM28.6106 170.598C27.1106 170.598 26.2006 169.707 26.1006 168.537L27.5606 168.457C27.6506 169.037 28.0006 169.337 28.6106 169.337C29.2706 169.337 29.6806 168.917 29.6806 168.107C29.6806 167.317 29.2606 166.857 28.6206 166.857C28.1806 166.857 27.8106 167.117 27.6706 167.477L26.2006 167.407L26.6206 163.337H30.8106V164.617H27.7906L27.6106 166.147C27.9406 165.867 28.3806 165.707 28.8606 165.707C30.2706 165.707 31.1406 166.727 31.1406 168.117C31.1406 169.587 30.1406 170.598 28.6106 170.598Z" fill="black"/>
</g>
<path id="field" d="M148.165 354.567L235.248 461.29C240.462 467.679 249.856 468.661 256.279 463.489L297.649 430.169L325.14 405.541L422.506 243.17L495.493 169.506L449.935 116.504H428.198L366.77 58.1194C325.062 18.4771 262.367 10.6938 212.231 38.9339L83.9671 111.181L76.1466 106.176L4.19727 167.645L32.3514 198.302L74.2817 243.17L132.701 331.085L148.165 354.567Z" fill="#0E3386" fill-opacity="0.1" fill="none" stroke="#0E3386" stroke-width="1.002"/>
</g>
</svg>
