<svg width="500" height="470" viewBox="0 0 500 470" fill="none" xmlns="http://www.w3.org/2000/svg">
<g id="wrigley-field-1915" clip-path="url(#clip0_130_7304)">
<g id="Infield">
<path d="M339.98 327.764C339.453 325.664 322.032 258.477 250.83 258.477C180.238 258.477 162.505 324.536 161.697 327.697C161.677 327.775 161.668 327.814 161.668 327.814L236.504 402.651C235.305 404.91 234.623 407.487 234.623 410.236C234.623 419.184 241.873 426.443 250.83 426.443C259.778 426.443 267.037 419.184 267.037 410.236C267.037 407.487 266.356 404.91 265.156 402.655L260.695 397.373C257.96 395.276 254.544 394.024 250.83 394.024C247.117 394.024 243.701 395.276 240.971 397.368L197.7 354.098C201.448 350.351 201.448 344.275 197.7 340.528C197.698 340.525 197.694 340.523 197.691 340.52L244.055 294.036C247.8 297.772 253.861 297.772 257.606 294.036L303.431 339.982C303.431 339.982 303.427 339.983 303.424 339.986C299.677 343.734 300.275 350.298 304.022 354.045L260.695 397.373L265.156 402.655L339.98 327.764Z" fill="#D2D2D2"/>
<path d="M259.91 345.704C259.91 350.719 255.845 354.785 250.83 354.785C245.815 354.785 241.75 350.719 241.75 345.704C241.75 340.689 245.815 336.624 250.83 336.624C255.845 336.624 259.91 340.689 259.91 345.704Z" fill="#D2D2D2"/>
</g>
<g id="Guides">
<g id="Home">
<circle id="Ellipse 1" cx="250.827" cy="410.421" r="16.0848" fill="#D2D2D2"/>
<circle id="Ellipse 1_2" cx="250.827" cy="410.422" r="1.62919" fill="black"/>
</g>
<g id="First">
<circle id="Ellipse 1_3" cx="311.125" cy="346.535" r="10.1878" fill="#D2D2D2"/>
<circle id="Ellipse 1_4" cx="311.125" cy="346.536" r="1.0319" fill="black"/>
</g>
<g id="Third">
<circle id="Ellipse 1_5" cx="190.34" cy="346.535" r="10.1878" fill="#D2D2D2"/>
<circle id="Ellipse 1_6" cx="190.34" cy="346.536" r="1.0319" fill="black"/>
</g>
<g id="Second">
<circle id="Ellipse 1_7" cx="250.827" cy="286.672" r="10.1878" fill="#D2D2D2"/>
<circle id="Ellipse 1_8" cx="250.827" cy="286.673" r="1.0319" fill="black"/>
</g>
<g id="Mound">
<circle id="Ellipse 1_9" cx="250.827" cy="345.931" r="9.08365" fill="#D2D2D2"/>
<circle id="Ellipse 1_10" cx="250.827" cy="345.932" r="0.920062" fill="black"/>
</g>
</g>
<path id="Foul Lines" d="M457.746 203.748L250.976 410.516L24.4655 184.004" fill="none" stroke="black" stroke-width="1.002"/>
<g id="Measurements">
<path id="344" d="M360.205 84.203C358.575 84.203 357.765 83.373 357.695 82.083L359.135 82.013C359.195 82.703 359.655 82.943 360.235 82.943C360.865 82.943 361.355 82.643 361.355 81.943C361.355 81.263 360.905 80.903 360.165 80.903H359.635V79.773H360.165C360.725 79.773 361.135 79.523 361.135 78.913C361.135 78.323 360.785 78.033 360.225 78.033C359.605 78.033 359.305 78.343 359.245 78.833L357.805 78.763C357.945 77.553 358.775 76.783 360.235 76.783C361.695 76.783 362.595 77.503 362.595 78.723C362.595 79.493 362.195 80.003 361.445 80.243C362.315 80.493 362.815 81.143 362.815 82.043C362.815 83.383 361.805 84.203 360.205 84.203ZM366.702 84.043V82.623H363.532V81.453L366.512 76.943H368.132V81.383H368.972V82.623H368.132V84.043H366.702ZM364.872 81.383H366.702V78.733L364.872 81.383ZM372.698 84.043V82.623H369.528V81.453L372.508 76.943H374.128V81.383H374.968V82.623H374.128V84.043H372.698ZM370.868 81.383H372.698V78.733L370.868 81.383Z" fill="black"/>
<path id="342" d="M108.99 97.203C107.36 97.203 106.55 96.373 106.48 95.083L107.92 95.013C107.98 95.703 108.44 95.943 109.02 95.943C109.65 95.943 110.14 95.643 110.14 94.943C110.14 94.263 109.69 93.903 108.95 93.903H108.42V92.773H108.95C109.51 92.773 109.92 92.523 109.92 91.913C109.92 91.323 109.57 91.033 109.01 91.033C108.39 91.033 108.09 91.343 108.03 91.833L106.59 91.763C106.73 90.553 107.56 89.783 109.02 89.783C110.48 89.783 111.38 90.503 111.38 91.723C111.38 92.493 110.98 93.003 110.23 93.243C111.1 93.493 111.6 94.143 111.6 95.043C111.6 96.383 110.59 97.203 108.99 97.203ZM115.486 97.043V95.623H112.316V94.453L115.296 89.943H116.916V94.383H117.756V95.623H116.916V97.043H115.486ZM113.656 94.383H115.486V91.733L113.656 94.383ZM118.472 97.043C118.472 95.313 119.052 94.303 121.032 93.283C121.762 92.903 122.122 92.623 122.122 91.973C122.122 91.403 121.792 91.043 121.162 91.043C120.442 91.043 120.092 91.463 119.972 92.223L118.502 92.133C118.642 90.683 119.552 89.783 121.182 89.783C122.772 89.783 123.592 90.633 123.592 91.893C123.592 93.033 123.102 93.593 121.702 94.353C120.552 94.973 120.142 95.403 120.102 95.763H123.592V97.043H118.472Z" fill="black"/>
<path id="377" d="M152.647 58.6444C151.017 58.6444 150.207 57.8144 150.137 56.5244L151.577 56.4544C151.637 57.1444 152.097 57.3844 152.677 57.3844C153.307 57.3844 153.797 57.0844 153.797 56.3844C153.797 55.7044 153.347 55.3444 152.607 55.3444H152.077V54.2144H152.607C153.167 54.2144 153.577 53.9644 153.577 53.3544C153.577 52.7644 153.227 52.4744 152.667 52.4744C152.047 52.4744 151.747 52.7844 151.687 53.2744L150.247 53.2044C150.387 51.9944 151.217 51.2244 152.677 51.2244C154.137 51.2244 155.037 51.9444 155.037 53.1644C155.037 53.9344 154.637 54.4444 153.887 54.6844C154.757 54.9344 155.257 55.5844 155.257 56.4844C155.257 57.8244 154.247 58.6444 152.647 58.6444ZM157.363 58.4844C157.363 56.3344 158.263 54.3744 159.733 52.6644H156.233V51.3844H161.153V52.5944C159.523 54.4544 158.853 56.0444 158.853 58.4844H157.363ZM163.359 58.4844C163.359 56.3344 164.259 54.3744 165.729 52.6644H162.229V51.3844H167.149V52.5944C165.519 54.4544 164.849 56.0444 164.849 58.4844H163.359Z" fill="black"/>
<path id="298" d="M433.428 206.938C433.428 205.207 434.008 204.197 435.988 203.177C436.718 202.797 437.078 202.517 437.078 201.867C437.078 201.297 436.748 200.937 436.118 200.937C435.398 200.937 435.048 201.357 434.928 202.117L433.458 202.027C433.598 200.577 434.508 199.677 436.138 199.677C437.728 199.677 438.548 200.527 438.548 201.787C438.548 202.927 438.058 203.487 436.658 204.247C435.508 204.867 435.098 205.297 435.058 205.657H438.548V206.938H433.428ZM441.964 199.677C443.694 199.677 444.604 200.847 444.604 202.907C444.604 205.257 443.794 207.098 441.704 207.098C440.304 207.098 439.654 206.337 439.394 205.317L440.834 205.217C440.934 205.577 441.164 205.837 441.704 205.837C442.444 205.837 442.964 205.327 443.124 204.107C442.784 204.407 442.304 204.627 441.674 204.627C440.264 204.627 439.364 203.677 439.364 202.247C439.364 200.667 440.394 199.677 441.964 199.677ZM441.994 200.957C441.244 200.957 440.824 201.397 440.824 202.197C440.824 202.937 441.204 203.417 441.934 203.417C442.674 203.417 443.144 202.927 443.144 202.187C443.144 201.507 442.724 200.957 441.994 200.957ZM447.98 207.098C446.41 207.098 445.36 206.377 445.36 204.997C445.36 204.067 445.9 203.407 446.77 203.127C446.1 202.867 445.65 202.377 445.65 201.637C445.65 200.497 446.58 199.677 447.98 199.677C449.38 199.677 450.31 200.497 450.31 201.637C450.31 202.377 449.86 202.867 449.18 203.127C450.06 203.407 450.6 204.067 450.6 204.997C450.6 206.377 449.55 207.098 447.98 207.098ZM447.98 202.557C448.49 202.557 448.84 202.287 448.84 201.727C448.84 201.227 448.5 200.937 447.98 200.937C447.46 200.937 447.12 201.227 447.12 201.727C447.12 202.287 447.47 202.557 447.98 202.557ZM447.98 205.837C448.62 205.837 449.14 205.557 449.14 204.857C449.14 204.187 448.71 203.767 447.98 203.767C447.25 203.767 446.82 204.187 446.82 204.857C446.82 205.557 447.34 205.837 447.98 205.837Z" fill="black"/>
<path id="327" d="M37.5783 186.598C35.9483 186.598 35.1383 185.767 35.0683 184.477L36.5083 184.407C36.5683 185.097 37.0283 185.337 37.6083 185.337C38.2383 185.337 38.7283 185.037 38.7283 184.337C38.7283 183.657 38.2783 183.297 37.5383 183.297H37.0083V182.167H37.5383C38.0983 182.167 38.5083 181.917 38.5083 181.307C38.5083 180.717 38.1583 180.427 37.5983 180.427C36.9783 180.427 36.6783 180.737 36.6183 181.227L35.1783 181.158C35.3183 179.947 36.1483 179.177 37.6083 179.177C39.0683 179.177 39.9683 179.897 39.9683 181.117C39.9683 181.887 39.5683 182.397 38.8183 182.637C39.6883 182.887 40.1883 183.537 40.1883 184.437C40.1883 185.778 39.1783 186.598 37.5783 186.598ZM41.0644 186.438C41.0644 184.707 41.6444 183.697 43.6244 182.677C44.3544 182.297 44.7144 182.017 44.7144 181.367C44.7144 180.797 44.3844 180.437 43.7544 180.437C43.0344 180.437 42.6844 180.857 42.5644 181.617L41.0944 181.527C41.2344 180.077 42.1444 179.177 43.7744 179.177C45.3644 179.177 46.1844 180.027 46.1844 181.287C46.1844 182.427 45.6944 182.987 44.2944 183.747C43.1444 184.367 42.7344 184.797 42.6944 185.157H46.1844V186.438H41.0644ZM48.2905 186.438C48.2905 184.287 49.1905 182.327 50.6605 180.617H47.1605V179.337H52.0805V180.547C50.4505 182.407 49.7805 183.997 49.7805 186.438H48.2905Z" fill="black"/>
</g>
<path id="field" d="M317.672 444.85L458.356 204.032L263.623 -21.4727L21.291 186.976L188.039 447.486C218.659 495.324 289.021 493.893 317.672 444.85Z" fill="#0E3386" fill-opacity="0.1" fill="none" stroke="#0E3386" stroke-width="1.002"/>
</g>
<defs>
<clipPath id="clip0_130_7304">
<rect width="500" height="469.94" fill="white"/>
</clipPath>
</defs>
</svg>
