<svg width="500" height="470" viewBox="0 0 500 470" fill="none" xmlns="http://www.w3.org/2000/svg">
<g id="wrigley-field-1914" clip-path="url(#clip0_129_7276)">
<g id="Infield">
<path d="M339.98 327.764C339.453 325.664 322.032 258.477 250.83 258.477C180.238 258.477 162.505 324.536 161.697 327.697C161.677 327.775 161.668 327.814 161.668 327.814L236.504 402.651C235.305 404.91 234.623 407.487 234.623 410.236C234.623 419.184 241.873 426.443 250.83 426.443C259.778 426.443 267.037 419.184 267.037 410.236C267.037 407.487 266.356 404.91 265.156 402.655L260.695 397.373C257.96 395.276 254.544 394.024 250.83 394.024C247.117 394.024 243.701 395.276 240.971 397.368L197.7 354.098C201.448 350.351 201.448 344.275 197.7 340.528C197.698 340.525 197.694 340.523 197.691 340.52L244.055 294.036C247.8 297.772 253.861 297.772 257.606 294.036L303.431 339.982C303.431 339.982 303.427 339.983 303.424 339.986C299.677 343.734 300.275 350.298 304.022 354.045L260.695 397.373L265.156 402.655L339.98 327.764Z" fill="#D2D2D2"/>
<path d="M259.91 345.704C259.91 350.719 255.845 354.785 250.83 354.785C245.815 354.785 241.75 350.719 241.75 345.704C241.75 340.689 245.815 336.624 250.83 336.624C255.845 336.624 259.91 340.689 259.91 345.704Z" fill="#D2D2D2"/>
</g>
<g id="Guides">
<g id="Home">
<circle id="Ellipse 1" cx="250.827" cy="410.421" r="16.0848" fill="#D2D2D2"/>
<circle id="Ellipse 1_2" cx="250.827" cy="410.422" r="1.62919" fill="black"/>
</g>
<g id="First">
<circle id="Ellipse 1_3" cx="311.125" cy="346.535" r="10.1878" fill="#D2D2D2"/>
<circle id="Ellipse 1_4" cx="311.125" cy="346.536" r="1.0319" fill="black"/>
</g>
<g id="Third">
<circle id="Ellipse 1_5" cx="190.34" cy="346.535" r="10.1878" fill="#D2D2D2"/>
<circle id="Ellipse 1_6" cx="190.34" cy="346.536" r="1.0319" fill="black"/>
</g>
<g id="Second">
<circle id="Ellipse 1_7" cx="250.827" cy="286.672" r="10.1878" fill="#D2D2D2"/>
<circle id="Ellipse 1_8" cx="250.827" cy="286.673" r="1.0319" fill="black"/>
</g>
<g id="Mound">
<circle id="Ellipse 1_9" cx="250.827" cy="345.931" r="9.08365" fill="#D2D2D2"/>
<circle id="Ellipse 1_10" cx="250.827" cy="345.932" r="0.920062" fill="black"/>
</g>
</g>
<path id="Foul Lines" d="M457.746 203.747L250.976 410.515L39.7651 199.305" fill="none" stroke="black" stroke-width="1.002"/>
<g id="Measurements">
<path id="376" d="M274.493 36.9413C272.863 36.9413 272.053 36.1112 271.983 34.8212L273.423 34.7512C273.483 35.4412 273.943 35.6812 274.523 35.6812C275.153 35.6812 275.643 35.3812 275.643 34.6812C275.643 34.0012 275.193 33.6412 274.453 33.6412H273.923V32.5112H274.453C275.013 32.5112 275.423 32.2612 275.423 31.6512C275.423 31.0612 275.073 30.7712 274.513 30.7712C273.893 30.7712 273.593 31.0812 273.533 31.5712L272.093 31.5013C272.233 30.2912 273.063 29.5212 274.523 29.5212C275.983 29.5212 276.883 30.2412 276.883 31.4612C276.883 32.2312 276.483 32.7412 275.733 32.9812C276.603 33.2312 277.103 33.8812 277.103 34.7812C277.103 36.1213 276.093 36.9413 274.493 36.9413ZM279.209 36.7812C279.209 34.6312 280.109 32.6712 281.579 30.9612H278.079V29.6812H282.999V30.8912C281.369 32.7512 280.699 34.3412 280.699 36.7812H279.209ZM286.555 36.9413C284.825 36.9413 283.915 35.7712 283.915 33.7112C283.915 31.3612 284.725 29.5212 286.815 29.5212C288.215 29.5212 288.865 30.2812 289.125 31.3012L287.685 31.4012C287.585 31.0412 287.355 30.7812 286.815 30.7812C286.075 30.7812 285.555 31.2912 285.395 32.5112C285.735 32.2112 286.215 31.9912 286.845 31.9912C288.255 31.9912 289.155 32.9412 289.155 34.3712C289.155 35.9512 288.125 36.9413 286.555 36.9413ZM286.525 35.6612C287.275 35.6612 287.695 35.2212 287.695 34.4212C287.695 33.6812 287.315 33.2012 286.585 33.2012C285.845 33.2012 285.375 33.6912 285.375 34.4312C285.375 35.1112 285.795 35.6612 286.525 35.6612Z" fill="black"/>
<path id="307" d="M338.377 108.34C336.747 108.34 335.937 107.51 335.867 106.22L337.307 106.15C337.367 106.84 337.827 107.08 338.407 107.08C339.037 107.08 339.527 106.78 339.527 106.08C339.527 105.4 339.077 105.04 338.337 105.04H337.807V103.91H338.337C338.897 103.91 339.307 103.66 339.307 103.05C339.307 102.46 338.957 102.17 338.397 102.17C337.777 102.17 337.477 102.48 337.417 102.97L335.977 102.9C336.117 101.69 336.947 100.92 338.407 100.92C339.867 100.92 340.767 101.64 340.767 102.86C340.767 103.63 340.367 104.14 339.617 104.38C340.487 104.63 340.987 105.28 340.987 106.18C340.987 107.52 339.977 108.34 338.377 108.34ZM344.423 108.34C342.823 108.34 341.863 106.93 341.863 104.64C341.863 102.34 342.823 100.92 344.423 100.92C346.023 100.92 346.983 102.34 346.983 104.64C346.983 106.93 346.023 108.34 344.423 108.34ZM343.323 104.64C343.323 105.07 343.353 105.44 343.413 105.75L345.103 102.56C344.923 102.31 344.693 102.18 344.423 102.18C343.733 102.18 343.323 103 343.323 104.64ZM344.423 107.08C345.113 107.08 345.523 106.27 345.523 104.64C345.523 104.21 345.493 103.83 345.433 103.51L343.743 106.7C343.923 106.95 344.153 107.08 344.423 107.08ZM349.089 108.18C349.089 106.03 349.989 104.07 351.459 102.36H347.959V101.08H352.879V102.29C351.249 104.15 350.579 105.74 350.579 108.18H349.089Z" fill="black"/>
<path id="342" d="M108.99 97.203C107.36 97.203 106.55 96.373 106.48 95.083L107.92 95.013C107.98 95.703 108.44 95.943 109.02 95.943C109.65 95.943 110.14 95.643 110.14 94.943C110.14 94.263 109.69 93.903 108.95 93.903H108.42V92.773H108.95C109.51 92.773 109.92 92.523 109.92 91.913C109.92 91.323 109.57 91.033 109.01 91.033C108.39 91.033 108.09 91.343 108.03 91.833L106.59 91.763C106.73 90.553 107.56 89.783 109.02 89.783C110.48 89.783 111.38 90.503 111.38 91.723C111.38 92.493 110.98 93.003 110.23 93.243C111.1 93.493 111.6 94.143 111.6 95.043C111.6 96.383 110.59 97.203 108.99 97.203ZM115.486 97.043V95.623H112.316V94.453L115.296 89.943H116.916V94.383H117.756V95.623H116.916V97.043H115.486ZM113.656 94.383H115.486V91.733L113.656 94.383ZM118.472 97.043C118.472 95.313 119.052 94.303 121.032 93.283C121.762 92.903 122.122 92.623 122.122 91.973C122.122 91.403 121.792 91.043 121.162 91.043C120.442 91.043 120.092 91.463 119.972 92.223L118.502 92.133C118.642 90.683 119.552 89.783 121.182 89.783C122.772 89.783 123.592 90.633 123.592 91.893C123.592 93.033 123.102 93.593 121.702 94.353C120.552 94.973 120.142 95.403 120.102 95.763H123.592V97.043H118.472Z" fill="black"/>
<path id="298" d="M433.428 206.938C433.428 205.207 434.008 204.197 435.988 203.177C436.718 202.797 437.078 202.517 437.078 201.867C437.078 201.297 436.748 200.937 436.118 200.937C435.398 200.937 435.048 201.357 434.928 202.117L433.458 202.027C433.598 200.577 434.508 199.677 436.138 199.677C437.728 199.677 438.548 200.527 438.548 201.787C438.548 202.927 438.058 203.487 436.658 204.247C435.508 204.867 435.098 205.297 435.058 205.657H438.548V206.938H433.428ZM441.964 199.677C443.694 199.677 444.604 200.847 444.604 202.907C444.604 205.257 443.794 207.098 441.704 207.098C440.304 207.098 439.654 206.337 439.394 205.317L440.834 205.217C440.934 205.577 441.164 205.837 441.704 205.837C442.444 205.837 442.964 205.327 443.124 204.107C442.784 204.407 442.304 204.627 441.674 204.627C440.264 204.627 439.364 203.677 439.364 202.247C439.364 200.667 440.394 199.677 441.964 199.677ZM441.994 200.957C441.244 200.957 440.824 201.397 440.824 202.197C440.824 202.937 441.204 203.417 441.934 203.417C442.674 203.417 443.144 202.927 443.144 202.187C443.144 201.507 442.724 200.957 441.994 200.957ZM447.98 207.098C446.41 207.098 445.36 206.377 445.36 204.997C445.36 204.067 445.9 203.407 446.77 203.127C446.1 202.867 445.65 202.377 445.65 201.637C445.65 200.497 446.58 199.677 447.98 199.677C449.38 199.677 450.31 200.497 450.31 201.637C450.31 202.377 449.86 202.867 449.18 203.127C450.06 203.407 450.6 204.067 450.6 204.997C450.6 206.377 449.55 207.098 447.98 207.098ZM447.98 202.557C448.49 202.557 448.84 202.287 448.84 201.727C448.84 201.227 448.5 200.937 447.98 200.937C447.46 200.937 447.12 201.227 447.12 201.727C447.12 202.287 447.47 202.557 447.98 202.557ZM447.98 205.837C448.62 205.837 449.14 205.557 449.14 204.857C449.14 204.187 448.71 203.767 447.98 203.767C447.25 203.767 446.82 204.187 446.82 204.857C446.82 205.557 447.34 205.837 447.98 205.837Z" fill="black"/>
<path id="302" d="M49.5783 201.598C47.9483 201.598 47.1383 200.767 47.0683 199.477L48.5083 199.407C48.5683 200.097 49.0283 200.337 49.6083 200.337C50.2383 200.337 50.7283 200.037 50.7283 199.337C50.7283 198.657 50.2783 198.297 49.5383 198.297H49.0083V197.167H49.5383C50.0983 197.167 50.5083 196.917 50.5083 196.307C50.5083 195.717 50.1583 195.427 49.5983 195.427C48.9783 195.427 48.6783 195.737 48.6183 196.227L47.1783 196.158C47.3183 194.947 48.1483 194.177 49.6083 194.177C51.0683 194.177 51.9683 194.897 51.9683 196.117C51.9683 196.887 51.5683 197.397 50.8183 197.637C51.6883 197.887 52.1883 198.537 52.1883 199.437C52.1883 200.778 51.1783 201.598 49.5783 201.598ZM55.6244 201.598C54.0244 201.598 53.0644 200.188 53.0644 197.897C53.0644 195.597 54.0244 194.177 55.6244 194.177C57.2244 194.177 58.1844 195.597 58.1844 197.897C58.1844 200.188 57.2244 201.598 55.6244 201.598ZM54.5244 197.897C54.5244 198.327 54.5544 198.697 54.6144 199.007L56.3044 195.817C56.1244 195.567 55.8944 195.437 55.6244 195.437C54.9344 195.437 54.5244 196.257 54.5244 197.897ZM55.6244 200.337C56.3144 200.337 56.7244 199.527 56.7244 197.897C56.7244 197.467 56.6944 197.087 56.6344 196.767L54.9444 199.957C55.1244 200.207 55.3544 200.337 55.6244 200.337ZM59.0605 201.438C59.0605 199.707 59.6405 198.697 61.6205 197.677C62.3505 197.297 62.7105 197.017 62.7105 196.367C62.7105 195.797 62.3805 195.437 61.7505 195.437C61.0305 195.437 60.6805 195.857 60.5605 196.617L59.0905 196.527C59.2305 195.077 60.1405 194.177 61.7705 194.177C63.3605 194.177 64.1805 195.027 64.1805 196.287C64.1805 197.427 63.6905 197.987 62.2905 198.747C61.1405 199.367 60.7305 199.797 60.6905 200.157H64.1805V201.438H59.0605Z" fill="black"/>
</g>
<path id="field" d="M114.124 109.556L238.992 2.23438L357.658 138.062L382.124 118.085L458.356 204.03L317.637 444.908C288.995 493.937 218.66 495.384 188.025 447.575L33.9931 207.194L114.124 109.556Z" fill="#0E3386" fill-opacity="0.1" fill="none" stroke="#0E3386" stroke-width="1.002"/>
</g>
<defs>
<clipPath id="clip0_129_7276">
<rect width="500" height="469.94" fill="white"/>
</clipPath>
</defs>
</svg>
