<svg width="500" height="470" viewBox="0 0 500 470" fill="none" xmlns="http://www.w3.org/2000/svg">
<g id="wrigley-field-la-1961" clip-path="url(#clip0_66_647)">
<g id="Infield">
<path d="M339.98 327.765C339.453 325.666 322.032 258.478 250.83 258.478C180.238 258.478 162.505 324.537 161.697 327.698C161.677 327.776 161.668 327.816 161.668 327.816L236.504 402.652C235.305 404.911 234.623 407.488 234.623 410.237C234.623 419.185 241.873 426.444 250.83 426.444C259.778 426.444 267.037 419.185 267.037 410.237C267.037 407.488 266.356 404.911 265.156 402.657L260.695 397.374C257.96 395.277 254.544 394.025 250.83 394.025C247.117 394.025 243.701 395.277 240.971 397.369L197.7 354.099C201.448 350.352 201.448 344.276 197.7 340.529C197.698 340.526 197.694 340.524 197.691 340.521L244.055 294.037C247.8 297.773 253.861 297.773 257.606 294.037L303.431 339.983C303.431 339.983 303.427 339.985 303.424 339.988C299.677 343.735 300.275 350.299 304.022 354.046L260.695 397.374L265.156 402.657L339.98 327.765Z" fill="#D2D2D2"/>
<path d="M259.91 345.706C259.91 350.72 255.845 354.786 250.83 354.786C245.815 354.786 241.75 350.72 241.75 345.706C241.75 340.691 245.815 336.625 250.83 336.625C255.845 336.625 259.91 340.691 259.91 345.706Z" fill="#D2D2D2"/>
</g>
<g id="Guides">
<g id="Home">
<circle id="Ellipse 1" cx="250.827" cy="410.42" r="16.0848" fill="#D2D2D2"/>
<circle id="Ellipse 1_2" cx="250.827" cy="410.42" r="1.62919" fill="black"/>
</g>
<g id="First">
<circle id="Ellipse 1_3" cx="311.125" cy="346.532" r="10.1878" fill="#D2D2D2"/>
<circle id="Ellipse 1_4" cx="311.125" cy="346.532" r="1.0319" fill="black"/>
</g>
<g id="Third">
<circle id="Ellipse 1_5" cx="190.34" cy="346.532" r="10.1878" fill="#D2D2D2"/>
<circle id="Ellipse 1_6" cx="190.34" cy="346.532" r="1.0319" fill="black"/>
</g>
<g id="Second">
<circle id="Ellipse 1_7" cx="250.827" cy="286.671" r="10.1878" fill="#D2D2D2"/>
<circle id="Ellipse 1_8" cx="250.827" cy="286.671" r="1.0319" fill="black"/>
</g>
<g id="Mound">
<circle id="Ellipse 1_9" cx="250.827" cy="345.929" r="9.08365" fill="#D2D2D2"/>
<circle id="Ellipse 1_10" cx="250.827" cy="345.929" r="0.920062" fill="black"/>
</g>
</g>
<path id="Foul Lines" d="M484.528 176.964L250.976 410.516L16.0828 175.623" fill="none" stroke="black" stroke-width="1.002"/>
<g id="Measurements">
<path id="412" d="M246.203 4.69934V3.27934H243.033V2.10934L246.013 -2.40066H247.633V2.03934H248.473V3.27934H247.633V4.69934H246.203ZM244.373 2.03934H246.203V-0.610659L244.373 2.03934ZM249.229 4.69934V3.41934H251.269V0.0393406H249.529V-1.14066H250.309C251.109 -1.14066 251.449 -1.48066 251.449 -2.40066H252.689V3.41934H254.269V4.69934H249.229ZM255.185 4.69934C255.185 2.96934 255.765 1.95934 257.745 0.939341C258.475 0.55934 258.835 0.279341 258.835 -0.370659C258.835 -0.940659 258.505 -1.30066 257.875 -1.30066C257.155 -1.30066 256.805 -0.880659 256.685 -0.120659L255.215 -0.210659C255.355 -1.66066 256.265 -2.56066 257.895 -2.56066C259.485 -2.56066 260.305 -1.71066 260.305 -0.45066C260.305 0.689341 259.815 1.24934 258.415 2.00934C257.265 2.62934 256.855 3.05934 256.815 3.41934H260.305V4.69934H255.185Z" fill="black"/>
<path id="345" d="M379.696 93.2043C378.066 93.2043 377.256 92.3743 377.186 91.0843L378.626 91.0143C378.686 91.7043 379.146 91.9443 379.726 91.9443C380.356 91.9443 380.846 91.6443 380.846 90.9443C380.846 90.2643 380.396 89.9043 379.656 89.9043H379.126V88.7743H379.656C380.216 88.7743 380.626 88.5243 380.626 87.9143C380.626 87.3243 380.276 87.0343 379.716 87.0343C379.096 87.0343 378.796 87.3443 378.736 87.8343L377.296 87.7643C377.436 86.5543 378.266 85.7843 379.726 85.7843C381.186 85.7843 382.086 86.5043 382.086 87.7243C382.086 88.4943 381.686 89.0043 380.936 89.2443C381.806 89.4943 382.306 90.1443 382.306 91.0443C382.306 92.3843 381.296 93.2043 379.696 93.2043ZM386.192 93.0443V91.6243H383.022V90.4543L386.002 85.9443H387.622V90.3843H388.462V91.6243H387.622V93.0443H386.192ZM384.362 90.3843H386.192V87.7343L384.362 90.3843ZM391.728 93.2043C390.228 93.2043 389.318 92.3143 389.218 91.1443L390.678 91.0643C390.768 91.6443 391.118 91.9443 391.728 91.9443C392.388 91.9443 392.798 91.5243 392.798 90.7143C392.798 89.9243 392.378 89.4643 391.738 89.4643C391.298 89.4643 390.928 89.7243 390.788 90.0843L389.318 90.0143L389.738 85.9443H393.928V87.2243H390.908L390.728 88.7543C391.058 88.4743 391.498 88.3143 391.978 88.3143C393.388 88.3143 394.258 89.3343 394.258 90.7243C394.258 92.1943 393.258 93.2043 391.728 93.2043Z" fill="black"/>
<path id="345_2" d="M112.99 93.2043C111.36 93.2043 110.55 92.3743 110.48 91.0843L111.92 91.0143C111.98 91.7043 112.44 91.9443 113.02 91.9443C113.65 91.9443 114.14 91.6443 114.14 90.9443C114.14 90.2643 113.69 89.9043 112.95 89.9043H112.42V88.7743H112.95C113.51 88.7743 113.92 88.5243 113.92 87.9143C113.92 87.3243 113.57 87.0343 113.01 87.0343C112.39 87.0343 112.09 87.3443 112.03 87.8343L110.59 87.7643C110.73 86.5543 111.56 85.7843 113.02 85.7843C114.48 85.7843 115.38 86.5043 115.38 87.7243C115.38 88.4943 114.98 89.0043 114.23 89.2443C115.1 89.4943 115.6 90.1443 115.6 91.0443C115.6 92.3843 114.59 93.2043 112.99 93.2043ZM119.486 93.0443V91.6243H116.316V90.4543L119.296 85.9443H120.916V90.3843H121.756V91.6243H120.916V93.0443H119.486ZM117.656 90.3843H119.486V87.7343L117.656 90.3843ZM125.022 93.2043C123.522 93.2043 122.612 92.3143 122.512 91.1443L123.972 91.0643C124.062 91.6443 124.412 91.9443 125.022 91.9443C125.682 91.9443 126.092 91.5243 126.092 90.7143C126.092 89.9243 125.672 89.4643 125.032 89.4643C124.592 89.4643 124.222 89.7243 124.082 90.0843L122.612 90.0143L123.032 85.9443H127.222V87.2243H124.202L124.022 88.7543C124.352 88.4743 124.792 88.3143 125.272 88.3143C126.682 88.3143 127.552 89.3343 127.552 90.7243C127.552 92.1943 126.552 93.2043 125.022 93.2043Z" fill="black"/>
<path id="339" d="M455.938 182.098C454.308 182.098 453.498 181.268 453.428 179.978L454.868 179.908C454.928 180.598 455.388 180.838 455.968 180.838C456.598 180.838 457.088 180.538 457.088 179.838C457.088 179.158 456.638 178.798 455.898 178.798H455.368V177.668H455.898C456.458 177.668 456.868 177.418 456.868 176.808C456.868 176.218 456.518 175.928 455.958 175.928C455.338 175.928 455.038 176.238 454.978 176.728L453.538 176.658C453.678 175.448 454.508 174.678 455.968 174.678C457.428 174.678 458.328 175.398 458.328 176.618C458.328 177.388 457.928 177.898 457.178 178.138C458.048 178.388 458.548 179.038 458.548 179.938C458.548 181.278 457.538 182.098 455.938 182.098ZM461.934 182.098C460.304 182.098 459.494 181.268 459.424 179.978L460.864 179.908C460.924 180.598 461.384 180.838 461.964 180.838C462.594 180.838 463.084 180.538 463.084 179.838C463.084 179.158 462.634 178.798 461.894 178.798H461.364V177.668H461.894C462.454 177.668 462.864 177.418 462.864 176.808C462.864 176.218 462.514 175.928 461.954 175.928C461.334 175.928 461.034 176.238 460.974 176.728L459.534 176.658C459.674 175.448 460.504 174.678 461.964 174.678C463.424 174.678 464.324 175.398 464.324 176.618C464.324 177.388 463.924 177.898 463.174 178.138C464.044 178.388 464.544 179.038 464.544 179.938C464.544 181.278 463.534 182.098 461.934 182.098ZM467.96 174.678C469.69 174.678 470.6 175.848 470.6 177.908C470.6 180.258 469.79 182.098 467.7 182.098C466.3 182.098 465.65 181.338 465.39 180.318L466.83 180.218C466.93 180.578 467.16 180.838 467.7 180.838C468.44 180.838 468.96 180.328 469.12 179.108C468.78 179.408 468.3 179.628 467.67 179.628C466.26 179.628 465.36 178.678 465.36 177.248C465.36 175.668 466.39 174.678 467.96 174.678ZM467.99 175.958C467.24 175.958 466.82 176.398 466.82 177.198C466.82 177.938 467.2 178.418 467.93 178.418C468.67 178.418 469.14 177.928 469.14 177.188C469.14 176.508 468.72 175.958 467.99 175.958Z" fill="black"/>
<path id="340" d="M28.5783 178.598C26.9483 178.598 26.1383 177.768 26.0683 176.478L27.5083 176.408C27.5683 177.098 28.0283 177.338 28.6083 177.338C29.2383 177.338 29.7283 177.038 29.7283 176.338C29.7283 175.658 29.2783 175.298 28.5383 175.298H28.0083V174.168H28.5383C29.0983 174.168 29.5083 173.918 29.5083 173.308C29.5083 172.718 29.1583 172.428 28.5983 172.428C27.9783 172.428 27.6783 172.738 27.6183 173.228L26.1783 173.158C26.3183 171.948 27.1483 171.178 28.6083 171.178C30.0683 171.178 30.9683 171.898 30.9683 173.118C30.9683 173.888 30.5683 174.398 29.8183 174.638C30.6883 174.888 31.1883 175.538 31.1883 176.438C31.1883 177.778 30.1783 178.598 28.5783 178.598ZM35.0744 178.438V177.018H31.9044V175.848L34.8844 171.338H36.5044V175.778H37.3444V177.018H36.5044V178.438H35.0744ZM33.2444 175.778H35.0744V173.128L33.2444 175.778ZM40.6205 178.598C39.0205 178.598 38.0605 177.188 38.0605 174.898C38.0605 172.598 39.0205 171.178 40.6205 171.178C42.2205 171.178 43.1805 172.598 43.1805 174.898C43.1805 177.188 42.2205 178.598 40.6205 178.598ZM39.5205 174.898C39.5205 175.328 39.5505 175.698 39.6105 176.008L41.3005 172.818C41.1205 172.568 40.8905 172.438 40.6205 172.438C39.9305 172.438 39.5205 173.258 39.5205 174.898ZM40.6205 177.338C41.3105 177.338 41.7205 176.528 41.7205 174.898C41.7205 174.468 41.6905 174.088 41.6305 173.768L39.9405 176.958C40.1205 177.208 40.3505 177.338 40.6205 177.338Z" fill="black"/>
</g>
<path id="field" d="M202.894 443.624L12.4129 177.676L251.251 7.69934L487.679 179.314L297.117 443.631C273.973 475.856 226.032 475.852 202.894 443.624Z" fill="#BA0021" fill-opacity="0.1" fill="none" stroke="#BA0021" stroke-width="1.002"/>
</g>
<defs>
<clipPath id="clip0_66_647">
<rect width="500" height="469.94" fill="white"/>
</clipPath>
</defs>
</svg>
