<svg width="500" height="470" viewBox="0 0 500 470" fill="none" xmlns="http://www.w3.org/2000/svg">
<g id="yankee-stadium-i-1923" clip-path="url(#clip0_131_7523)">
<g id="Infield">
<path d="M339.98 327.764C339.453 325.664 322.032 258.477 250.83 258.477C180.238 258.477 162.505 324.536 161.697 327.697C161.677 327.775 161.668 327.814 161.668 327.814L236.504 402.651C235.305 404.91 234.623 407.487 234.623 410.236C234.623 419.184 241.873 426.443 250.83 426.443C259.778 426.443 267.037 419.184 267.037 410.236C267.037 407.487 266.356 404.91 265.156 402.655L260.695 397.373C257.96 395.276 254.544 394.024 250.83 394.024C247.117 394.024 243.701 395.276 240.971 397.368L197.7 354.098C201.448 350.351 201.448 344.275 197.7 340.528C197.698 340.525 197.694 340.523 197.691 340.52L244.055 294.036C247.8 297.772 253.861 297.772 257.606 294.036L303.431 339.982C303.431 339.982 303.427 339.983 303.424 339.986C299.677 343.734 300.275 350.298 304.022 354.045L260.695 397.373L265.156 402.655L339.98 327.764Z" fill="#D2D2D2"/>
<path d="M259.91 345.704C259.91 350.719 255.845 354.785 250.83 354.785C245.815 354.785 241.75 350.719 241.75 345.704C241.75 340.689 245.815 336.624 250.83 336.624C255.845 336.624 259.91 340.689 259.91 345.704Z" fill="#D2D2D2"/>
</g>
<g id="Guides">
<g id="Home">
<circle id="Ellipse 1" cx="250.827" cy="410.421" r="16.0848" fill="#D2D2D2"/>
<circle id="Ellipse 1_2" cx="250.827" cy="410.422" r="1.62919" fill="black"/>
</g>
<g id="First">
<circle id="Ellipse 1_3" cx="311.125" cy="346.535" r="10.1878" fill="#D2D2D2"/>
<circle id="Ellipse 1_4" cx="311.125" cy="346.536" r="1.0319" fill="black"/>
</g>
<g id="Third">
<circle id="Ellipse 1_5" cx="190.34" cy="346.535" r="10.1878" fill="#D2D2D2"/>
<circle id="Ellipse 1_6" cx="190.34" cy="346.536" r="1.0319" fill="black"/>
</g>
<g id="Second">
<circle id="Ellipse 1_7" cx="250.827" cy="286.672" r="10.1878" fill="#D2D2D2"/>
<circle id="Ellipse 1_8" cx="250.827" cy="286.673" r="1.0319" fill="black"/>
</g>
<g id="Mound">
<circle id="Ellipse 1_9" cx="250.827" cy="345.931" r="9.08365" fill="#D2D2D2"/>
<circle id="Ellipse 1_10" cx="250.827" cy="345.932" r="0.920062" fill="black"/>
</g>
</g>
<path id="Foul Lines" d="M427.463 234.029L250.976 410.516L71.037 230.578" fill="none" stroke="black" stroke-width="1.002"/>
<g id="Measurements">
<path id="258" d="M406.428 230.938C406.428 229.207 407.008 228.197 408.988 227.177C409.718 226.797 410.078 226.517 410.078 225.867C410.078 225.297 409.748 224.937 409.118 224.937C408.398 224.937 408.048 225.357 407.928 226.117L406.458 226.027C406.598 224.577 407.508 223.677 409.138 223.677C410.728 223.677 411.548 224.527 411.548 225.787C411.548 226.927 411.058 227.487 409.658 228.247C408.508 228.867 408.098 229.297 408.058 229.657H411.548V230.938H406.428ZM414.974 231.098C413.474 231.098 412.564 230.207 412.464 229.037L413.924 228.957C414.014 229.537 414.364 229.837 414.974 229.837C415.634 229.837 416.044 229.417 416.044 228.607C416.044 227.817 415.624 227.357 414.984 227.357C414.544 227.357 414.174 227.617 414.034 227.977L412.564 227.907L412.984 223.837H417.174V225.117H414.154L413.974 226.647C414.304 226.367 414.744 226.207 415.224 226.207C416.634 226.207 417.504 227.227 417.504 228.617C417.504 230.087 416.504 231.098 414.974 231.098ZM420.98 231.098C419.41 231.098 418.36 230.377 418.36 228.997C418.36 228.067 418.9 227.407 419.77 227.127C419.1 226.867 418.65 226.377 418.65 225.637C418.65 224.497 419.58 223.677 420.98 223.677C422.38 223.677 423.31 224.497 423.31 225.637C423.31 226.377 422.86 226.867 422.18 227.127C423.06 227.407 423.6 228.067 423.6 228.997C423.6 230.377 422.55 231.098 420.98 231.098ZM420.98 226.557C421.49 226.557 421.84 226.287 421.84 225.727C421.84 225.227 421.5 224.937 420.98 224.937C420.46 224.937 420.12 225.227 420.12 225.727C420.12 226.287 420.47 226.557 420.98 226.557ZM420.98 229.837C421.62 229.837 422.14 229.557 422.14 228.857C422.14 228.187 421.71 227.767 420.98 227.767C420.25 227.767 419.82 228.187 419.82 228.857C419.82 229.557 420.34 229.837 420.98 229.837Z" fill="black"/>
<path id="258_2" d="M73.2006 227.379C73.2006 225.649 73.7806 224.639 75.7606 223.619C76.4906 223.239 76.8506 222.959 76.8506 222.309C76.8506 221.739 76.5206 221.379 75.8906 221.379C75.1706 221.379 74.8206 221.799 74.7006 222.559L73.2306 222.469C73.3706 221.019 74.2806 220.119 75.9106 220.119C77.5006 220.119 78.3206 220.969 78.3206 222.229C78.3206 223.369 77.8306 223.929 76.4306 224.689C75.2806 225.309 74.8706 225.739 74.8306 226.099H78.3206V227.379H73.2006ZM81.7467 227.539C80.2467 227.539 79.3367 226.649 79.2367 225.479L80.6967 225.399C80.7867 225.979 81.1367 226.279 81.7467 226.279C82.4067 226.279 82.8167 225.859 82.8167 225.049C82.8167 224.259 82.3967 223.799 81.7567 223.799C81.3167 223.799 80.9467 224.059 80.8067 224.419L79.3367 224.349L79.7567 220.279H83.9467V221.559H80.9267L80.7467 223.089C81.0767 222.809 81.5167 222.649 81.9967 222.649C83.4067 222.649 84.2767 223.669 84.2767 225.059C84.2767 226.529 83.2767 227.539 81.7467 227.539ZM87.7528 227.539C86.1828 227.539 85.1328 226.819 85.1328 225.439C85.1328 224.509 85.6728 223.849 86.5428 223.569C85.8728 223.309 85.4228 222.819 85.4228 222.079C85.4228 220.939 86.3528 220.119 87.7528 220.119C89.1528 220.119 90.0828 220.939 90.0828 222.079C90.0828 222.819 89.6328 223.309 88.9528 223.569C89.8328 223.849 90.3728 224.509 90.3728 225.439C90.3728 226.819 89.3228 227.539 87.7528 227.539ZM87.7528 222.999C88.2628 222.999 88.6128 222.729 88.6128 222.169C88.6128 221.669 88.2728 221.379 87.7528 221.379C87.2328 221.379 86.8928 221.669 86.8928 222.169C86.8928 222.729 87.2428 222.999 87.7528 222.999ZM87.7528 226.279C88.3928 226.279 88.9128 225.999 88.9128 225.299C88.9128 224.629 88.4828 224.209 87.7528 224.209C87.0228 224.209 86.5928 224.629 86.5928 225.299C86.5928 225.999 87.1128 226.279 87.7528 226.279Z" fill="black"/>
</g>
<path id="field" d="M209.835 -80.7617L344.697 -13.0196L453.976 191.666L440.042 219.197L435.884 216.95L395.447 298.861L389.244 295.614L310.829 443.949C285.323 492.198 216.231 492.254 190.647 444.046L111.873 295.614L106.25 298.861L39.5801 169.653L35.1978 172.183C23.461 146.221 22.9619 116.567 33.8183 90.225L47.9382 55.9652L11.5813 41.0485L18.7284 20.5405L209.835 -80.7617Z" fill="#0C2340" fill-opacity="0.1" fill="none" stroke="#0C2340" stroke-width="1.002"/>
</g>
<defs>
<clipPath id="clip0_131_7523">
<rect width="500" height="469.94" fill="white"/>
</clipPath>
</defs>
</svg>
