<svg width="500" height="470" viewBox="0 0 500 470" fill="none" xmlns="http://www.w3.org/2000/svg">
<g id="yankee-stadium-i-1938" clip-path="url(#clip0_131_7631)">
<g id="Infield">
<path d="M339.98 327.764C339.453 325.664 322.032 258.477 250.83 258.477C180.238 258.477 162.505 324.536 161.697 327.697C161.677 327.775 161.668 327.814 161.668 327.814L236.504 402.651C235.305 404.91 234.623 407.487 234.623 410.236C234.623 419.184 241.873 426.443 250.83 426.443C259.778 426.443 267.037 419.184 267.037 410.236C267.037 407.487 266.356 404.91 265.157 402.655L260.695 397.373C257.96 395.276 254.544 394.024 250.83 394.024C247.117 394.024 243.701 395.276 240.971 397.368L197.7 354.098C201.448 350.351 201.448 344.275 197.7 340.528C197.698 340.525 197.694 340.523 197.691 340.52L244.055 294.036C247.8 297.772 253.861 297.772 257.606 294.036L303.431 339.982C303.431 339.982 303.427 339.983 303.424 339.986C299.677 343.734 300.275 350.298 304.022 354.045L260.695 397.373L265.157 402.655L339.98 327.764Z" fill="#D2D2D2"/>
<path d="M259.91 345.704C259.91 350.719 255.845 354.785 250.83 354.785C245.815 354.785 241.75 350.719 241.75 345.704C241.75 340.689 245.815 336.624 250.83 336.624C255.845 336.624 259.91 340.689 259.91 345.704Z" fill="#D2D2D2"/>
</g>
<g id="Guides">
<g id="Home">
<circle id="Ellipse 1" cx="250.827" cy="410.421" r="16.0848" fill="#D2D2D2"/>
<circle id="Ellipse 1_2" cx="250.827" cy="410.422" r="1.62919" fill="black"/>
</g>
<g id="First">
<circle id="Ellipse 1_3" cx="311.125" cy="346.535" r="10.1878" fill="#D2D2D2"/>
<circle id="Ellipse 1_4" cx="311.125" cy="346.536" r="1.0319" fill="black"/>
</g>
<g id="Third">
<circle id="Ellipse 1_5" cx="190.34" cy="346.535" r="10.1878" fill="#D2D2D2"/>
<circle id="Ellipse 1_6" cx="190.34" cy="346.536" r="1.0319" fill="black"/>
</g>
<g id="Second">
<circle id="Ellipse 1_7" cx="250.827" cy="286.672" r="10.1878" fill="#D2D2D2"/>
<circle id="Ellipse 1_8" cx="250.827" cy="286.673" r="1.0319" fill="black"/>
</g>
<g id="Mound">
<circle id="Ellipse 1_9" cx="250.827" cy="345.931" r="9.08365" fill="#D2D2D2"/>
<circle id="Ellipse 1_10" cx="250.827" cy="345.932" r="0.920062" fill="black"/>
</g>
</g>
<path id="Foul Lines" d="M459.263 202.226L250.976 410.515L42.8916 202.431" fill="none" stroke="black" stroke-width="1.002"/>
<g id="Measurements">
<path id="296" d="M437.846 203.441C437.846 201.711 438.426 200.701 440.406 199.681C441.136 199.301 441.496 199.021 441.496 198.371C441.496 197.801 441.166 197.441 440.536 197.441C439.816 197.441 439.466 197.861 439.346 198.621L437.876 198.531C438.016 197.081 438.926 196.181 440.556 196.181C442.146 196.181 442.966 197.031 442.966 198.291C442.966 199.431 442.476 199.991 441.076 200.751C439.926 201.371 439.516 201.801 439.476 202.161H442.966V203.441H437.846ZM446.382 196.181C448.112 196.181 449.022 197.351 449.022 199.411C449.022 201.761 448.212 203.601 446.122 203.601C444.722 203.601 444.072 202.841 443.812 201.821L445.252 201.721C445.352 202.081 445.582 202.341 446.122 202.341C446.862 202.341 447.382 201.831 447.542 200.611C447.202 200.911 446.722 201.131 446.092 201.131C444.682 201.131 443.782 200.181 443.782 198.751C443.782 197.171 444.812 196.181 446.382 196.181ZM446.412 197.461C445.662 197.461 445.242 197.901 445.242 198.701C445.242 199.441 445.622 199.921 446.352 199.921C447.092 199.921 447.562 199.431 447.562 198.691C447.562 198.011 447.142 197.461 446.412 197.461ZM452.418 203.601C450.688 203.601 449.778 202.431 449.778 200.371C449.778 198.021 450.588 196.181 452.678 196.181C454.078 196.181 454.728 196.941 454.988 197.961L453.548 198.061C453.448 197.701 453.218 197.441 452.678 197.441C451.938 197.441 451.418 197.951 451.258 199.171C451.598 198.871 452.078 198.651 452.708 198.651C454.118 198.651 455.018 199.601 455.018 201.031C455.018 202.611 453.988 203.601 452.418 203.601ZM452.388 202.321C453.138 202.321 453.558 201.881 453.558 201.081C453.558 200.341 453.178 199.861 452.448 199.861C451.708 199.861 451.238 200.351 451.238 201.091C451.238 201.771 451.658 202.321 452.388 202.321Z" fill="black"/>
<path id="301" d="M52.4421 203.805C50.8121 203.805 50.0021 202.975 49.9321 201.685L51.3721 201.615C51.4321 202.305 51.8921 202.545 52.4721 202.545C53.1021 202.545 53.5921 202.245 53.5921 201.545C53.5921 200.865 53.1421 200.505 52.4021 200.505H51.8721V199.375H52.4021C52.9621 199.375 53.3721 199.125 53.3721 198.515C53.3721 197.925 53.0221 197.635 52.4621 197.635C51.8421 197.635 51.5421 197.945 51.4821 198.435L50.0421 198.365C50.1821 197.155 51.0121 196.385 52.4721 196.385C53.9321 196.385 54.8321 197.105 54.8321 198.325C54.8321 199.095 54.4321 199.605 53.6821 199.845C54.5521 200.095 55.0521 200.745 55.0521 201.645C55.0521 202.985 54.0421 203.805 52.4421 203.805ZM58.4882 203.805C56.8882 203.805 55.9282 202.395 55.9282 200.105C55.9282 197.805 56.8882 196.385 58.4882 196.385C60.0882 196.385 61.0482 197.805 61.0482 200.105C61.0482 202.395 60.0882 203.805 58.4882 203.805ZM57.3882 200.105C57.3882 200.535 57.4182 200.905 57.4782 201.215L59.1682 198.025C58.9882 197.775 58.7582 197.645 58.4882 197.645C57.7982 197.645 57.3882 198.465 57.3882 200.105ZM58.4882 202.545C59.1782 202.545 59.5882 201.735 59.5882 200.105C59.5882 199.675 59.5582 199.295 59.4982 198.975L57.8082 202.165C57.9882 202.415 58.2182 202.545 58.4882 202.545ZM61.9643 203.645V202.365H64.0043V198.985H62.2643V197.805H63.0443C63.8443 197.805 64.1843 197.465 64.1843 196.545H65.4243V202.365H67.0043V203.645H61.9643Z" fill="black"/>
<path id="402" d="M51.7264 85.3555V83.9355H48.5564V82.7655L51.5364 78.2555H53.1564V82.6955H53.9964V83.9355H53.1564V85.3555H51.7264ZM49.8964 82.6955H51.7264V80.0455L49.8964 82.6955ZM57.2725 85.5155C55.6725 85.5155 54.7125 84.1055 54.7125 81.8155C54.7125 79.5155 55.6725 78.0955 57.2725 78.0955C58.8725 78.0955 59.8325 79.5155 59.8325 81.8155C59.8325 84.1055 58.8725 85.5155 57.2725 85.5155ZM56.1725 81.8155C56.1725 82.2455 56.2025 82.6155 56.2625 82.9255L57.9525 79.7355C57.7725 79.4855 57.5425 79.3555 57.2725 79.3555C56.5825 79.3555 56.1725 80.1755 56.1725 81.8155ZM57.2725 84.2555C57.9625 84.2555 58.3725 83.4455 58.3725 81.8155C58.3725 81.3855 58.3425 81.0055 58.2825 80.6855L56.5925 83.8755C56.7725 84.1255 57.0025 84.2555 57.2725 84.2555ZM60.7086 85.3555C60.7086 83.6255 61.2886 82.6155 63.2686 81.5955C63.9986 81.2155 64.3586 80.9355 64.3586 80.2855C64.3586 79.7155 64.0286 79.3555 63.3986 79.3555C62.6786 79.3555 62.3286 79.7755 62.2086 80.5355L60.7386 80.4455C60.8786 78.9955 61.7886 78.0955 63.4186 78.0955C65.0086 78.0955 65.8286 78.9455 65.8286 80.2055C65.8286 81.3455 65.3386 81.9055 63.9386 82.6655C62.7886 83.2855 62.3786 83.7155 62.3386 84.0755H65.8286V85.3555H60.7086Z" fill="black"/>
<path id="415" d="M68.2361 54.6953V53.2753H65.0661V52.1053L68.0461 47.5953H69.6661V52.0353H70.5061V53.2753H69.6661V54.6953H68.2361ZM66.4061 52.0353H68.2361V49.3853L66.4061 52.0353ZM71.2622 54.6953V53.4153H73.3022V50.0353H71.5622V48.8553H72.3422C73.1422 48.8553 73.4822 48.5153 73.4822 47.5953H74.7222V53.4153H76.3022V54.6953H71.2622ZM79.7683 54.8553C78.2683 54.8553 77.3583 53.9653 77.2583 52.7953L78.7183 52.7153C78.8083 53.2953 79.1583 53.5953 79.7683 53.5953C80.4283 53.5953 80.8383 53.1753 80.8383 52.3653C80.8383 51.5753 80.4183 51.1153 79.7783 51.1153C79.3383 51.1153 78.9683 51.3753 78.8283 51.7353L77.3583 51.6653L77.7783 47.5953H81.9683V48.8753H78.9483L78.7683 50.4053C79.0983 50.1253 79.5383 49.9653 80.0183 49.9653C81.4283 49.9653 82.2983 50.9853 82.2983 52.3753C82.2983 53.8453 81.2983 54.8553 79.7683 54.8553Z" fill="black"/>
<path id="407" d="M318.328 23V21.58H315.158V20.41L318.138 15.9H319.758V20.34H320.598V21.58H319.758V23H318.328ZM316.498 20.34H318.328V17.69L316.498 20.34ZM323.874 23.16C322.274 23.16 321.314 21.75 321.314 19.46C321.314 17.16 322.274 15.74 323.874 15.74C325.474 15.74 326.434 17.16 326.434 19.46C326.434 21.75 325.474 23.16 323.874 23.16ZM322.774 19.46C322.774 19.89 322.804 20.26 322.864 20.57L324.554 17.38C324.374 17.13 324.144 17 323.874 17C323.184 17 322.774 17.82 322.774 19.46ZM323.874 21.9C324.564 21.9 324.974 21.09 324.974 19.46C324.974 19.03 324.944 18.65 324.884 18.33L323.194 21.52C323.374 21.77 323.604 21.9 323.874 21.9ZM328.54 23C328.54 20.85 329.44 18.89 330.91 17.18H327.41V15.9H332.33V17.11C330.7 18.97 330.03 20.56 330.03 23H328.54Z" fill="black"/>
<path id="367" d="M376.457 87.3475C374.827 87.3475 374.017 86.5175 373.947 85.2275L375.387 85.1575C375.447 85.8475 375.907 86.0875 376.487 86.0875C377.117 86.0875 377.607 85.7875 377.607 85.0875C377.607 84.4075 377.157 84.0475 376.417 84.0475H375.887V82.9175H376.417C376.977 82.9175 377.387 82.6675 377.387 82.0575C377.387 81.4675 377.037 81.1775 376.477 81.1775C375.857 81.1775 375.557 81.4875 375.497 81.9775L374.057 81.9075C374.197 80.6975 375.027 79.9275 376.487 79.9275C377.947 79.9275 378.847 80.6475 378.847 81.8675C378.847 82.6375 378.447 83.1475 377.697 83.3875C378.567 83.6375 379.067 84.2875 379.067 85.1875C379.067 86.5275 378.057 87.3475 376.457 87.3475ZM382.523 87.3475C380.793 87.3475 379.883 86.1775 379.883 84.1175C379.883 81.7675 380.693 79.9275 382.783 79.9275C384.183 79.9275 384.833 80.6875 385.093 81.7075L383.653 81.8075C383.553 81.4475 383.323 81.1875 382.783 81.1875C382.043 81.1875 381.523 81.6975 381.363 82.9175C381.703 82.6175 382.183 82.3975 382.813 82.3975C384.223 82.3975 385.123 83.3475 385.123 84.7775C385.123 86.3575 384.093 87.3475 382.523 87.3475ZM382.493 86.0675C383.243 86.0675 383.663 85.6275 383.663 84.8275C383.663 84.0875 383.283 83.6075 382.553 83.6075C381.813 83.6075 381.343 84.0975 381.343 84.8375C381.343 85.5175 381.763 86.0675 382.493 86.0675ZM387.169 87.1875C387.169 85.0375 388.069 83.0775 389.539 81.3675H386.039V80.0875H390.959V81.2975C389.329 83.1575 388.659 84.7475 388.659 87.1875H387.169Z" fill="black"/>
<path id="344" d="M416.552 130.98C414.922 130.98 414.112 130.15 414.042 128.86L415.482 128.79C415.542 129.48 416.002 129.72 416.582 129.72C417.212 129.72 417.702 129.42 417.702 128.72C417.702 128.04 417.252 127.68 416.512 127.68H415.982V126.55H416.512C417.072 126.55 417.482 126.3 417.482 125.69C417.482 125.1 417.132 124.81 416.572 124.81C415.952 124.81 415.652 125.12 415.592 125.61L414.152 125.54C414.292 124.33 415.122 123.56 416.582 123.56C418.042 123.56 418.942 124.28 418.942 125.5C418.942 126.27 418.542 126.78 417.792 127.02C418.662 127.27 419.162 127.92 419.162 128.82C419.162 130.16 418.152 130.98 416.552 130.98ZM423.048 130.82V129.4H419.878V128.23L422.858 123.72H424.478V128.16H425.318V129.4H424.478V130.82H423.048ZM421.218 128.16H423.048V125.51L421.218 128.16ZM429.044 130.82V129.4H425.874V128.23L428.854 123.72H430.474V128.16H431.314V129.4H430.474V130.82H429.044ZM427.214 128.16H429.044V125.51L427.214 128.16Z" fill="black"/>
</g>
<path id="field" d="M48.538 67.5568L35.4357 97.6828C22.72 126.92 23.1903 160.214 36.7269 189.08L55.9974 230.174L60.3797 227.644L106.25 308.858L111.873 305.612L190.562 456.148C216.001 504.815 285.655 504.813 311.091 456.145L389.244 306.612L395.447 309.858L438.926 224.857L459.245 202.429V191.376C459.245 162.889 448.39 135.471 428.888 114.705L331.746 11.2636L231.357 -40.4988C228.523 -41.9602 225.38 -42.7227 222.191 -42.7227H206.467C145.754 -42.7227 89.9461 -9.38123 61.1731 44.0802L48.538 67.5568Z" fill="#0C2340" fill-opacity="0.1" fill="none" stroke="#0C2340" stroke-width="1.002"/>
</g>
<defs>
<clipPath id="clip0_131_7631">
<rect width="500" height="469.94" fill="white"/>
</clipPath>
</defs>
</svg>
