<svg width="500" height="470" viewBox="0 0 500 470" fill="none" xmlns="http://www.w3.org/2000/svg">
<g id="yankee-stadium-ii-2009" clip-path="url(#clip0_130_7495)">
<g id="Infield">
<path d="M339.98 327.764C339.453 325.664 322.032 258.477 250.83 258.477C180.238 258.477 162.505 324.536 161.697 327.697C161.677 327.775 161.668 327.814 161.668 327.814L236.504 402.651C235.305 404.91 234.623 407.487 234.623 410.236C234.623 419.184 241.873 426.443 250.83 426.443C259.778 426.443 267.037 419.184 267.037 410.236C267.037 407.487 266.356 404.91 265.156 402.655L260.695 397.373C257.96 395.276 254.544 394.024 250.83 394.024C247.117 394.024 243.701 395.276 240.971 397.368L197.7 354.098C201.448 350.351 201.448 344.275 197.7 340.528C197.698 340.525 197.694 340.523 197.691 340.52L244.055 294.036C247.8 297.772 253.861 297.772 257.606 294.036L303.431 339.982C303.431 339.982 303.427 339.983 303.424 339.986C299.677 343.734 300.275 350.298 304.022 354.045L260.695 397.373L265.156 402.655L339.98 327.764Z" fill="#D2D2D2"/>
<path d="M259.91 345.704C259.91 350.719 255.845 354.785 250.83 354.785C245.815 354.785 241.75 350.719 241.75 345.704C241.75 340.689 245.815 336.624 250.83 336.624C255.845 336.624 259.91 340.689 259.91 345.704Z" fill="#D2D2D2"/>
</g>
<g id="Guides">
<g id="Home">
<circle id="Ellipse 1" cx="250.827" cy="410.421" r="16.0848" fill="#D2D2D2"/>
<circle id="Ellipse 1_2" cx="250.827" cy="410.422" r="1.62919" fill="black"/>
</g>
<g id="First">
<circle id="Ellipse 1_3" cx="311.125" cy="346.535" r="10.1878" fill="#D2D2D2"/>
<circle id="Ellipse 1_4" cx="311.125" cy="346.536" r="1.0319" fill="black"/>
</g>
<g id="Third">
<circle id="Ellipse 1_5" cx="190.34" cy="346.535" r="10.1878" fill="#D2D2D2"/>
<circle id="Ellipse 1_6" cx="190.34" cy="346.536" r="1.0319" fill="black"/>
</g>
<g id="Second">
<circle id="Ellipse 1_7" cx="250.827" cy="286.672" r="10.1878" fill="#D2D2D2"/>
<circle id="Ellipse 1_8" cx="250.827" cy="286.673" r="1.0319" fill="black"/>
</g>
<g id="Mound">
<circle id="Ellipse 1_9" cx="250.827" cy="345.931" r="9.08365" fill="#D2D2D2"/>
<circle id="Ellipse 1_10" cx="250.827" cy="345.932" r="0.920062" fill="black"/>
</g>
</g>
<path id="Foul Lines" d="M467.15 194.343L250.976 410.515L31.155 190.695" fill="none" stroke="black" stroke-width="1.002"/>
<g id="Measurements">
<path id="408" d="M245.203 7.69922V6.27922H242.033V5.10922L245.013 0.599218H246.633V5.03922H247.473V6.27922H246.633V7.69922H245.203ZM243.373 5.03922H245.203V2.38922L243.373 5.03922ZM250.749 7.85922C249.149 7.85922 248.189 6.44922 248.189 4.15922C248.189 1.85922 249.149 0.439219 250.749 0.439219C252.349 0.439219 253.309 1.85922 253.309 4.15922C253.309 6.44922 252.349 7.85922 250.749 7.85922ZM249.649 4.15922C249.649 4.58922 249.679 4.95922 249.739 5.26922L251.429 2.07922C251.249 1.82922 251.019 1.69922 250.749 1.69922C250.059 1.69922 249.649 2.51922 249.649 4.15922ZM250.749 6.59922C251.439 6.59922 251.849 5.78922 251.849 4.15922C251.849 3.72922 251.819 3.34922 251.759 3.02922L250.069 6.21922C250.249 6.46922 250.479 6.59922 250.749 6.59922ZM256.745 7.85922C255.175 7.85922 254.125 7.13922 254.125 5.75922C254.125 4.82922 254.665 4.16922 255.535 3.88922C254.865 3.62922 254.415 3.13922 254.415 2.39922C254.415 1.25922 255.345 0.439219 256.745 0.439219C258.145 0.439219 259.075 1.25922 259.075 2.39922C259.075 3.13922 258.625 3.62922 257.945 3.88922C258.825 4.16922 259.365 4.82922 259.365 5.75922C259.365 7.13922 258.315 7.85922 256.745 7.85922ZM256.745 3.31922C257.255 3.31922 257.605 3.04922 257.605 2.48922C257.605 1.98922 257.265 1.69922 256.745 1.69922C256.225 1.69922 255.885 1.98922 255.885 2.48922C255.885 3.04922 256.235 3.31922 256.745 3.31922ZM256.745 6.59922C257.385 6.59922 257.905 6.31922 257.905 5.61922C257.905 4.94922 257.475 4.52922 256.745 4.52922C256.015 4.52922 255.585 4.94922 255.585 5.61922C255.585 6.31922 256.105 6.59922 256.745 6.59922Z" fill="black"/>
<path id="385" d="M344.696 43.203C343.066 43.203 342.256 42.373 342.186 41.083L343.626 41.013C343.686 41.703 344.146 41.943 344.726 41.943C345.356 41.943 345.846 41.643 345.846 40.943C345.846 40.263 345.396 39.903 344.656 39.903H344.126V38.773H344.656C345.216 38.773 345.626 38.523 345.626 37.913C345.626 37.323 345.276 37.033 344.716 37.033C344.096 37.033 343.796 37.343 343.736 37.833L342.296 37.763C342.436 36.553 343.266 35.783 344.726 35.783C346.186 35.783 347.086 36.503 347.086 37.723C347.086 38.493 346.686 39.003 345.936 39.243C346.806 39.493 347.306 40.143 347.306 41.043C347.306 42.383 346.296 43.203 344.696 43.203ZM350.742 43.203C349.172 43.203 348.122 42.483 348.122 41.103C348.122 40.173 348.662 39.513 349.532 39.233C348.862 38.973 348.412 38.483 348.412 37.743C348.412 36.603 349.342 35.783 350.742 35.783C352.142 35.783 353.072 36.603 353.072 37.743C353.072 38.483 352.622 38.973 351.942 39.233C352.822 39.513 353.362 40.173 353.362 41.103C353.362 42.483 352.312 43.203 350.742 43.203ZM350.742 38.663C351.252 38.663 351.602 38.393 351.602 37.833C351.602 37.333 351.262 37.043 350.742 37.043C350.222 37.043 349.882 37.333 349.882 37.833C349.882 38.393 350.232 38.663 350.742 38.663ZM350.742 41.943C351.382 41.943 351.902 41.663 351.902 40.963C351.902 40.293 351.472 39.873 350.742 39.873C350.012 39.873 349.582 40.293 349.582 40.963C349.582 41.663 350.102 41.943 350.742 41.943ZM356.728 43.203C355.228 43.203 354.318 42.313 354.218 41.143L355.678 41.063C355.768 41.643 356.118 41.943 356.728 41.943C357.388 41.943 357.798 41.523 357.798 40.713C357.798 39.923 357.378 39.463 356.738 39.463C356.298 39.463 355.928 39.723 355.788 40.083L354.318 40.013L354.738 35.943H358.928V37.223H355.908L355.728 38.753C356.058 38.473 356.498 38.313 356.978 38.313C358.388 38.313 359.258 39.333 359.258 40.723C359.258 42.193 358.258 43.203 356.728 43.203Z" fill="black"/>
<path id="399" d="M124.525 35.3241C122.895 35.3241 122.085 34.4941 122.015 33.2041L123.455 33.1341C123.515 33.8241 123.975 34.0641 124.555 34.0641C125.185 34.0641 125.675 33.7641 125.675 33.0641C125.675 32.3841 125.225 32.0241 124.485 32.0241H123.955V30.8941H124.485C125.045 30.8941 125.455 30.6441 125.455 30.0341C125.455 29.4441 125.105 29.1541 124.545 29.1541C123.925 29.1541 123.625 29.4641 123.565 29.9541L122.125 29.8841C122.265 28.6741 123.095 27.9041 124.555 27.9041C126.015 27.9041 126.915 28.6241 126.915 29.8441C126.915 30.6141 126.515 31.1241 125.765 31.3641C126.635 31.6141 127.135 32.2641 127.135 33.1641C127.135 34.5041 126.125 35.3241 124.525 35.3241ZM130.551 27.9041C132.281 27.9041 133.191 29.0741 133.191 31.1341C133.191 33.4841 132.381 35.3241 130.291 35.3241C128.891 35.3241 128.241 34.5641 127.981 33.5441L129.421 33.4441C129.521 33.8041 129.751 34.0641 130.291 34.0641C131.031 34.0641 131.551 33.5541 131.711 32.3341C131.371 32.6341 130.891 32.8541 130.261 32.8541C128.851 32.8541 127.951 31.9041 127.951 30.4741C127.951 28.8941 128.981 27.9041 130.551 27.9041ZM130.581 29.1841C129.831 29.1841 129.411 29.6241 129.411 30.4241C129.411 31.1641 129.791 31.6441 130.521 31.6441C131.261 31.6441 131.731 31.1541 131.731 30.4141C131.731 29.7341 131.311 29.1841 130.581 29.1841ZM136.547 27.9041C138.277 27.9041 139.187 29.0741 139.187 31.1341C139.187 33.4841 138.377 35.3241 136.287 35.3241C134.887 35.3241 134.237 34.5641 133.977 33.5441L135.417 33.4441C135.517 33.8041 135.747 34.0641 136.287 34.0641C137.027 34.0641 137.547 33.5541 137.707 32.3341C137.367 32.6341 136.887 32.8541 136.257 32.8541C134.847 32.8541 133.947 31.9041 133.947 30.4741C133.947 28.8941 134.977 27.9041 136.547 27.9041ZM136.577 29.1841C135.827 29.1841 135.407 29.6241 135.407 30.4241C135.407 31.1641 135.787 31.6441 136.517 31.6441C137.257 31.6441 137.727 31.1541 137.727 30.4141C137.727 29.7341 137.307 29.1841 136.577 29.1841Z" fill="black"/>
<path id="314" d="M447.938 194.098C446.308 194.098 445.498 193.267 445.428 191.977L446.868 191.907C446.928 192.597 447.388 192.837 447.968 192.837C448.598 192.837 449.088 192.537 449.088 191.837C449.088 191.157 448.638 190.797 447.898 190.797H447.368V189.667H447.898C448.458 189.667 448.868 189.417 448.868 188.807C448.868 188.217 448.518 187.927 447.958 187.927C447.338 187.927 447.038 188.237 446.978 188.727L445.538 188.658C445.678 187.447 446.508 186.677 447.968 186.677C449.428 186.677 450.328 187.397 450.328 188.617C450.328 189.387 449.928 189.897 449.178 190.137C450.048 190.387 450.548 191.037 450.548 191.937C450.548 193.278 449.538 194.098 447.938 194.098ZM451.464 193.938V192.657H453.504V189.277H451.764V188.097H452.544C453.344 188.097 453.684 187.757 453.684 186.837H454.924V192.657H456.504V193.938H451.464ZM460.43 193.938V192.517H457.26V191.347L460.24 186.837H461.86V191.277H462.7V192.517H461.86V193.938H460.43ZM458.6 191.277H460.43V188.627L458.6 191.277Z" fill="black"/>
<path id="318" d="M38.5783 188.598C36.9483 188.598 36.1383 187.767 36.0683 186.477L37.5083 186.407C37.5683 187.097 38.0283 187.337 38.6083 187.337C39.2383 187.337 39.7283 187.037 39.7283 186.337C39.7283 185.657 39.2783 185.297 38.5383 185.297H38.0083V184.167H38.5383C39.0983 184.167 39.5083 183.917 39.5083 183.307C39.5083 182.717 39.1583 182.427 38.5983 182.427C37.9783 182.427 37.6783 182.737 37.6183 183.227L36.1783 183.158C36.3183 181.947 37.1483 181.177 38.6083 181.177C40.0683 181.177 40.9683 181.897 40.9683 183.117C40.9683 183.887 40.5683 184.397 39.8183 184.637C40.6883 184.887 41.1883 185.537 41.1883 186.437C41.1883 187.778 40.1783 188.598 38.5783 188.598ZM42.1044 188.438V187.157H44.1444V183.777H42.4044V182.597H43.1844C43.9844 182.597 44.3244 182.257 44.3244 181.337H45.5644V187.157H47.1444V188.438H42.1044ZM50.6205 188.598C49.0505 188.598 48.0005 187.877 48.0005 186.497C48.0005 185.567 48.5405 184.907 49.4105 184.627C48.7405 184.367 48.2905 183.877 48.2905 183.137C48.2905 181.997 49.2205 181.177 50.6205 181.177C52.0205 181.177 52.9505 181.997 52.9505 183.137C52.9505 183.877 52.5005 184.367 51.8205 184.627C52.7005 184.907 53.2405 185.567 53.2405 186.497C53.2405 187.877 52.1905 188.598 50.6205 188.598ZM50.6205 184.057C51.1305 184.057 51.4805 183.787 51.4805 183.227C51.4805 182.727 51.1405 182.437 50.6205 182.437C50.1005 182.437 49.7605 182.727 49.7605 183.227C49.7605 183.787 50.1105 184.057 50.6205 184.057ZM50.6205 187.337C51.2605 187.337 51.7805 187.057 51.7805 186.357C51.7805 185.687 51.3505 185.267 50.6205 185.267C49.8905 185.267 49.4605 185.687 49.4605 186.357C49.4605 187.057 49.9805 187.337 50.6205 187.337Z" fill="black"/>
</g>
<path id="field" d="M48.8805 124.456C34.022 139.314 30.9035 170.492 30.9035 203.333L72.0769 244.506L87.0823 270.496L84.3545 272.071L120.597 334.845L213.814 446.508C233.059 469.56 268.506 469.481 287.647 446.343L380.584 334.001L416.49 271.81L413.753 270.229L428.604 244.506L467.527 205.584C467.527 189.093 464.612 166.302 448.619 150.309L360.746 62.4358C291.436 -6.87388 178.997 -6.65893 109.952 62.9152L48.8805 124.456Z" fill="#0C2340" fill-opacity="0.1" fill="none" stroke="#0C2340" stroke-width="1.002"/>
</g>
<defs>
<clipPath id="clip0_130_7495">
<rect width="500" height="469.94" fill="white"/>
</clipPath>
</defs>
</svg>
