<svg width="500" height="470" viewBox="0 0 500 470" fill="none" xmlns="http://www.w3.org/2000/svg">
<g id="yankee-stadium-i-1976" clip-path="url(#clip0_131_7685)">
<g id="Infield">
<path d="M339.98 327.764C339.453 325.664 322.032 258.477 250.83 258.477C180.238 258.477 162.505 324.536 161.697 327.697C161.677 327.775 161.668 327.814 161.668 327.814L236.504 402.651C235.305 404.91 234.623 407.487 234.623 410.236C234.623 419.184 241.873 426.443 250.83 426.443C259.778 426.443 267.037 419.184 267.037 410.236C267.037 407.487 266.356 404.91 265.157 402.655L260.695 397.373C257.96 395.276 254.544 394.024 250.83 394.024C247.117 394.024 243.701 395.276 240.971 397.368L197.7 354.098C201.448 350.351 201.448 344.275 197.7 340.528C197.698 340.525 197.694 340.523 197.691 340.52L244.055 294.036C247.8 297.772 253.861 297.772 257.606 294.036L303.431 339.982C303.431 339.982 303.427 339.983 303.424 339.986C299.677 343.734 300.275 350.298 304.022 354.045L260.695 397.373L265.157 402.655L339.98 327.764Z" fill="#D2D2D2"/>
<path d="M259.91 345.704C259.91 350.719 255.845 354.785 250.83 354.785C245.815 354.785 241.75 350.719 241.75 345.704C241.75 340.689 245.815 336.624 250.83 336.624C255.845 336.624 259.91 340.689 259.91 345.704Z" fill="#D2D2D2"/>
</g>
<g id="Guides">
<g id="Home">
<circle id="Ellipse 1" cx="250.827" cy="410.421" r="16.0848" fill="#D2D2D2"/>
<circle id="Ellipse 1_2" cx="250.827" cy="410.422" r="1.62919" fill="black"/>
</g>
<g id="First">
<circle id="Ellipse 1_3" cx="311.125" cy="346.535" r="10.1878" fill="#D2D2D2"/>
<circle id="Ellipse 1_4" cx="311.125" cy="346.536" r="1.0319" fill="black"/>
</g>
<g id="Third">
<circle id="Ellipse 1_5" cx="190.34" cy="346.535" r="10.1878" fill="#D2D2D2"/>
<circle id="Ellipse 1_6" cx="190.34" cy="346.536" r="1.0319" fill="black"/>
</g>
<g id="Second">
<circle id="Ellipse 1_7" cx="250.827" cy="286.672" r="10.1878" fill="#D2D2D2"/>
<circle id="Ellipse 1_8" cx="250.827" cy="286.673" r="1.0319" fill="black"/>
</g>
<g id="Mound">
<circle id="Ellipse 1_9" cx="250.827" cy="345.931" r="9.08365" fill="#D2D2D2"/>
<circle id="Ellipse 1_10" cx="250.827" cy="345.932" r="0.920062" fill="black"/>
</g>
</g>
<path id="Foul Lines" d="M467.378 194.111L250.976 410.513L32.2178 191.754" fill="none" stroke="black" stroke-width="1.002"/>
<g id="Measurements">
<path id="310" d="M447.356 196.601C445.726 196.601 444.916 195.771 444.846 194.481L446.286 194.411C446.346 195.101 446.806 195.341 447.386 195.341C448.016 195.341 448.506 195.041 448.506 194.341C448.506 193.661 448.056 193.301 447.316 193.301H446.786V192.171H447.316C447.876 192.171 448.286 191.921 448.286 191.311C448.286 190.721 447.936 190.431 447.376 190.431C446.756 190.431 446.456 190.741 446.396 191.231L444.956 191.161C445.096 189.951 445.926 189.181 447.386 189.181C448.846 189.181 449.746 189.901 449.746 191.121C449.746 191.891 449.346 192.401 448.596 192.641C449.466 192.891 449.966 193.541 449.966 194.441C449.966 195.781 448.956 196.601 447.356 196.601ZM450.882 196.441V195.161H452.922V191.781H451.182V190.601H451.962C452.762 190.601 453.102 190.261 453.102 189.341H454.342V195.161H455.922V196.441H450.882ZM459.398 196.601C457.798 196.601 456.838 195.191 456.838 192.901C456.838 190.601 457.798 189.181 459.398 189.181C460.998 189.181 461.958 190.601 461.958 192.901C461.958 195.191 460.998 196.601 459.398 196.601ZM458.298 192.901C458.298 193.331 458.328 193.701 458.388 194.011L460.078 190.821C459.898 190.571 459.668 190.441 459.398 190.441C458.708 190.441 458.298 191.261 458.298 192.901ZM459.398 195.341C460.088 195.341 460.498 194.531 460.498 192.901C460.498 192.471 460.468 192.091 460.408 191.771L458.718 194.961C458.898 195.211 459.128 195.341 459.398 195.341Z" fill="black"/>
<path id="312" d="M39.4422 195.805C37.8122 195.805 37.0022 194.975 36.9322 193.685L38.3722 193.615C38.4322 194.305 38.8922 194.545 39.4722 194.545C40.1022 194.545 40.5922 194.245 40.5922 193.545C40.5922 192.865 40.1422 192.505 39.4022 192.505H38.8722V191.375H39.4022C39.9622 191.375 40.3722 191.125 40.3722 190.515C40.3722 189.925 40.0222 189.635 39.4622 189.635C38.8422 189.635 38.5422 189.945 38.4822 190.435L37.0422 190.365C37.1822 189.155 38.0122 188.385 39.4722 188.385C40.9322 188.385 41.8322 189.105 41.8322 190.325C41.8322 191.095 41.4322 191.605 40.6822 191.845C41.5522 192.095 42.0522 192.745 42.0522 193.645C42.0522 194.985 41.0422 195.805 39.4422 195.805ZM42.9683 195.645V194.365H45.0083V190.985H43.2683V189.805H44.0483C44.8483 189.805 45.1883 189.465 45.1883 188.545H46.4283V194.365H48.0083V195.645H42.9683ZM48.9244 195.645C48.9244 193.915 49.5044 192.905 51.4844 191.885C52.2144 191.505 52.5744 191.225 52.5744 190.575C52.5744 190.005 52.2444 189.645 51.6144 189.645C50.8944 189.645 50.5444 190.065 50.4244 190.825L48.9544 190.735C49.0944 189.285 50.0044 188.385 51.6344 188.385C53.2244 188.385 54.0444 189.235 54.0444 190.495C54.0444 191.635 53.5544 192.195 52.1544 192.955C51.0044 193.575 50.5944 194.005 50.5544 194.365H54.0444V195.645H48.9244Z" fill="black"/>
<path id="387" d="M32.2264 93.5155C30.5964 93.5155 29.7864 92.6855 29.7164 91.3955L31.1564 91.3255C31.2164 92.0155 31.6764 92.2555 32.2564 92.2555C32.8864 92.2555 33.3764 91.9555 33.3764 91.2555C33.3764 90.5755 32.9264 90.2155 32.1864 90.2155H31.6564V89.0855H32.1864C32.7464 89.0855 33.1564 88.8355 33.1564 88.2255C33.1564 87.6355 32.8064 87.3455 32.2464 87.3455C31.6264 87.3455 31.3264 87.6555 31.2664 88.1455L29.8264 88.0755C29.9664 86.8655 30.7964 86.0955 32.2564 86.0955C33.7164 86.0955 34.6164 86.8155 34.6164 88.0355C34.6164 88.8055 34.2164 89.3155 33.4664 89.5555C34.3364 89.8055 34.8364 90.4555 34.8364 91.3555C34.8364 92.6955 33.8264 93.5155 32.2264 93.5155ZM38.2725 93.5155C36.7025 93.5155 35.6525 92.7955 35.6525 91.4155C35.6525 90.4855 36.1925 89.8255 37.0625 89.5455C36.3925 89.2855 35.9425 88.7955 35.9425 88.0555C35.9425 86.9155 36.8725 86.0955 38.2725 86.0955C39.6725 86.0955 40.6025 86.9155 40.6025 88.0555C40.6025 88.7955 40.1525 89.2855 39.4725 89.5455C40.3525 89.8255 40.8925 90.4855 40.8925 91.4155C40.8925 92.7955 39.8425 93.5155 38.2725 93.5155ZM38.2725 88.9755C38.7825 88.9755 39.1325 88.7055 39.1325 88.1455C39.1325 87.6455 38.7925 87.3555 38.2725 87.3555C37.7525 87.3555 37.4125 87.6455 37.4125 88.1455C37.4125 88.7055 37.7625 88.9755 38.2725 88.9755ZM38.2725 92.2555C38.9125 92.2555 39.4325 91.9755 39.4325 91.2755C39.4325 90.6055 39.0025 90.1855 38.2725 90.1855C37.5425 90.1855 37.1125 90.6055 37.1125 91.2755C37.1125 91.9755 37.6325 92.2555 38.2725 92.2555ZM42.9386 93.3555C42.9386 91.2055 43.8386 89.2455 45.3086 87.5355H41.8086V86.2555H46.7286V87.4655C45.0986 89.3255 44.4286 90.9155 44.4286 93.3555H42.9386Z" fill="black"/>
<path id="430" d="M98.1458 16.0508V14.6308H94.9758V13.4608L97.9558 8.95078H99.5758V13.3908H100.416V14.6308H99.5758V16.0508H98.1458ZM96.3158 13.3908H98.1458V10.7408L96.3158 13.3908ZM103.642 16.2108C102.012 16.2108 101.202 15.3808 101.132 14.0908L102.572 14.0208C102.632 14.7108 103.092 14.9508 103.672 14.9508C104.302 14.9508 104.792 14.6508 104.792 13.9508C104.792 13.2708 104.342 12.9108 103.602 12.9108H103.072V11.7808H103.602C104.162 11.7808 104.572 11.5308 104.572 10.9208C104.572 10.3308 104.222 10.0408 103.662 10.0408C103.042 10.0408 102.742 10.3508 102.682 10.8408L101.242 10.7708C101.382 9.56078 102.212 8.79078 103.672 8.79078C105.132 8.79078 106.032 9.51078 106.032 10.7308C106.032 11.5008 105.632 12.0108 104.882 12.2508C105.752 12.5008 106.252 13.1508 106.252 14.0508C106.252 15.3908 105.242 16.2108 103.642 16.2108ZM109.688 16.2108C108.088 16.2108 107.128 14.8008 107.128 12.5108C107.128 10.2108 108.088 8.79078 109.688 8.79078C111.288 8.79078 112.248 10.2108 112.248 12.5108C112.248 14.8008 111.288 16.2108 109.688 16.2108ZM108.588 12.5108C108.588 12.9408 108.618 13.3108 108.678 13.6208L110.368 10.4308C110.188 10.1808 109.958 10.0508 109.688 10.0508C108.998 10.0508 108.588 10.8708 108.588 12.5108ZM109.688 14.9508C110.378 14.9508 110.788 14.1408 110.788 12.5108C110.788 12.0808 110.758 11.7008 110.698 11.3808L109.008 14.5708C109.188 14.8208 109.418 14.9508 109.688 14.9508Z" fill="black"/>
<path id="417" d="M266.977 6.88672V5.46672H263.807V4.29672L266.787 -0.213282H268.407V4.22672H269.247V5.46672H268.407V6.88672H266.977ZM265.147 4.22672H266.977V1.57672L265.147 4.22672ZM270.003 6.88672V5.60672H272.043V2.22672H270.303V1.04672H271.083C271.883 1.04672 272.223 0.706718 272.223 -0.213282H273.463V5.60672H275.043V6.88672H270.003ZM277.19 6.88672C277.19 4.73672 278.09 2.77672 279.56 1.06672H276.06V-0.213282H280.98V0.996718C279.35 2.85672 278.68 4.44672 278.68 6.88672H277.19Z" fill="black"/>
<path id="385" d="M353.988 45.5038C352.358 45.5038 351.548 44.6737 351.478 43.3837L352.918 43.3137C352.978 44.0037 353.438 44.2437 354.018 44.2437C354.648 44.2437 355.138 43.9437 355.138 43.2437C355.138 42.5637 354.688 42.2037 353.948 42.2037H353.418V41.0737H353.948C354.508 41.0737 354.918 40.8237 354.918 40.2137C354.918 39.6237 354.568 39.3337 354.008 39.3337C353.388 39.3337 353.088 39.6437 353.028 40.1337L351.588 40.0638C351.728 38.8537 352.558 38.0837 354.018 38.0837C355.478 38.0837 356.378 38.8037 356.378 40.0237C356.378 40.7937 355.978 41.3037 355.228 41.5437C356.098 41.7937 356.598 42.4437 356.598 43.3437C356.598 44.6838 355.588 45.5038 353.988 45.5038ZM360.034 45.5038C358.464 45.5038 357.414 44.7837 357.414 43.4037C357.414 42.4737 357.954 41.8137 358.824 41.5337C358.154 41.2737 357.704 40.7837 357.704 40.0437C357.704 38.9037 358.634 38.0837 360.034 38.0837C361.434 38.0837 362.364 38.9037 362.364 40.0437C362.364 40.7837 361.914 41.2737 361.234 41.5337C362.114 41.8137 362.654 42.4737 362.654 43.4037C362.654 44.7837 361.604 45.5038 360.034 45.5038ZM360.034 40.9637C360.544 40.9637 360.894 40.6937 360.894 40.1337C360.894 39.6337 360.554 39.3437 360.034 39.3437C359.514 39.3437 359.174 39.6337 359.174 40.1337C359.174 40.6937 359.524 40.9637 360.034 40.9637ZM360.034 44.2437C360.674 44.2437 361.194 43.9637 361.194 43.2637C361.194 42.5937 360.764 42.1737 360.034 42.1737C359.304 42.1737 358.874 42.5937 358.874 43.2637C358.874 43.9637 359.394 44.2437 360.034 44.2437ZM366.02 45.5038C364.52 45.5038 363.61 44.6137 363.51 43.4437L364.97 43.3637C365.06 43.9437 365.41 44.2437 366.02 44.2437C366.68 44.2437 367.09 43.8237 367.09 43.0137C367.09 42.2237 366.67 41.7637 366.03 41.7637C365.59 41.7637 365.22 42.0237 365.08 42.3837L363.61 42.3137L364.03 38.2437H368.22V39.5237H365.2L365.02 41.0537C365.35 40.7737 365.79 40.6137 366.27 40.6137C367.68 40.6137 368.55 41.6337 368.55 43.0237C368.55 44.4937 367.55 45.5038 366.02 45.5038Z" fill="black"/>
<path id="353" d="M428.552 113.98C426.922 113.98 426.112 113.15 426.042 111.86L427.482 111.79C427.542 112.48 428.002 112.72 428.582 112.72C429.212 112.72 429.702 112.42 429.702 111.72C429.702 111.04 429.252 110.68 428.512 110.68H427.982V109.55H428.512C429.072 109.55 429.482 109.3 429.482 108.69C429.482 108.1 429.132 107.81 428.572 107.81C427.952 107.81 427.652 108.12 427.592 108.61L426.152 108.54C426.292 107.33 427.122 106.56 428.582 106.56C430.042 106.56 430.942 107.28 430.942 108.5C430.942 109.27 430.542 109.78 429.792 110.02C430.662 110.27 431.162 110.92 431.162 111.82C431.162 113.16 430.152 113.98 428.552 113.98ZM434.588 113.98C433.088 113.98 432.178 113.09 432.078 111.92L433.538 111.84C433.628 112.42 433.978 112.72 434.588 112.72C435.248 112.72 435.658 112.3 435.658 111.49C435.658 110.7 435.238 110.24 434.598 110.24C434.158 110.24 433.788 110.5 433.648 110.86L432.178 110.79L432.598 106.72H436.788V108H433.768L433.588 109.53C433.918 109.25 434.358 109.09 434.838 109.09C436.248 109.09 437.118 110.11 437.118 111.5C437.118 112.97 436.118 113.98 434.588 113.98ZM440.544 113.98C438.914 113.98 438.104 113.15 438.034 111.86L439.474 111.79C439.534 112.48 439.994 112.72 440.574 112.72C441.204 112.72 441.694 112.42 441.694 111.72C441.694 111.04 441.244 110.68 440.504 110.68H439.974V109.55H440.504C441.064 109.55 441.474 109.3 441.474 108.69C441.474 108.1 441.124 107.81 440.564 107.81C439.944 107.81 439.644 108.12 439.584 108.61L438.144 108.54C438.284 107.33 439.114 106.56 440.574 106.56C442.034 106.56 442.934 107.28 442.934 108.5C442.934 109.27 442.534 109.78 441.784 110.02C442.654 110.27 443.154 110.92 443.154 111.82C443.154 113.16 442.144 113.98 440.544 113.98Z" fill="black"/>
</g>
<path id="field" d="M38.3229 117.416L57.6182 74.793C89.7701 16.6787 155.407 -14.454 220.753 -2.58519L240.257 0.957376C248.304 2.41887 256.122 4.93535 263.511 8.44172L371.193 59.5451L440.341 134.455C458.031 153.619 467.854 178.743 467.854 204.824L391.331 279.622L291.566 470.136C274.43 502.861 227.657 503.058 210.246 470.478L108.25 279.622L37.7681 207.99L36.0028 203.455C25.1728 175.63 26.0092 144.616 38.3229 117.416Z" fill="#0C2340" fill-opacity="0.1" fill="none" stroke="#0C2340" stroke-width="1.002"/>
</g>
<defs>
<clipPath id="clip0_131_7685">
<rect width="500" height="469.94" fill="white"/>
</clipPath>
</defs>
</svg>
