<svg width="500" height="470" viewBox="0 0 500 470" fill="none" xmlns="http://www.w3.org/2000/svg">
<g id="yankee-stadium-i-1928" clip-path="url(#clip0_131_7604)">
<g id="Infield">
<path d="M339.98 327.764C339.453 325.664 322.032 258.477 250.83 258.477C180.238 258.477 162.505 324.536 161.697 327.697C161.677 327.775 161.668 327.814 161.668 327.814L236.504 402.651C235.305 404.91 234.623 407.487 234.623 410.236C234.623 419.184 241.873 426.443 250.83 426.443C259.778 426.443 267.037 419.184 267.037 410.236C267.037 407.487 266.356 404.91 265.157 402.655L260.695 397.373C257.96 395.276 254.544 394.024 250.83 394.024C247.117 394.024 243.701 395.276 240.971 397.368L197.7 354.098C201.448 350.351 201.448 344.275 197.7 340.528C197.698 340.525 197.694 340.523 197.691 340.52L244.055 294.036C247.8 297.772 253.861 297.772 257.606 294.036L303.431 339.982C303.431 339.982 303.427 339.983 303.424 339.986C299.677 343.734 300.275 350.298 304.022 354.045L260.695 397.373L265.157 402.655L339.98 327.764Z" fill="#D2D2D2"/>
<path d="M259.91 345.704C259.91 350.719 255.845 354.785 250.83 354.785C245.815 354.785 241.75 350.719 241.75 345.704C241.75 340.689 245.815 336.624 250.83 336.624C255.845 336.624 259.91 340.689 259.91 345.704Z" fill="#D2D2D2"/>
</g>
<g id="Guides">
<g id="Home">
<circle id="Ellipse 1" cx="250.827" cy="410.421" r="16.0848" fill="#D2D2D2"/>
<circle id="Ellipse 1_2" cx="250.827" cy="410.422" r="1.62919" fill="black"/>
</g>
<g id="First">
<circle id="Ellipse 1_3" cx="311.125" cy="346.535" r="10.1878" fill="#D2D2D2"/>
<circle id="Ellipse 1_4" cx="311.125" cy="346.536" r="1.0319" fill="black"/>
</g>
<g id="Third">
<circle id="Ellipse 1_5" cx="190.34" cy="346.535" r="10.1878" fill="#D2D2D2"/>
<circle id="Ellipse 1_6" cx="190.34" cy="346.536" r="1.0319" fill="black"/>
</g>
<g id="Second">
<circle id="Ellipse 1_7" cx="250.827" cy="286.672" r="10.1878" fill="#D2D2D2"/>
<circle id="Ellipse 1_8" cx="250.827" cy="286.673" r="1.0319" fill="black"/>
</g>
<g id="Mound">
<circle id="Ellipse 1_9" cx="250.827" cy="345.931" r="9.08365" fill="#D2D2D2"/>
<circle id="Ellipse 1_10" cx="250.827" cy="345.932" r="0.920062" fill="black"/>
</g>
</g>
<path id="Foul Lines" d="M454.846 206.643L250.976 410.514L42.8917 202.43" fill="none" stroke="black" stroke-width="1.002"/>
<g id="Measurements">
<path id="295" d="M430.428 208.938C430.428 207.207 431.008 206.197 432.988 205.177C433.718 204.797 434.078 204.517 434.078 203.867C434.078 203.297 433.748 202.937 433.118 202.937C432.398 202.937 432.048 203.357 431.928 204.117L430.458 204.027C430.598 202.577 431.508 201.677 433.138 201.677C434.728 201.677 435.548 202.527 435.548 203.787C435.548 204.927 435.058 205.487 433.658 206.247C432.508 206.867 432.098 207.297 432.058 207.657H435.548V208.938H430.428ZM438.964 201.677C440.694 201.677 441.604 202.847 441.604 204.907C441.604 207.257 440.794 209.098 438.704 209.098C437.304 209.098 436.654 208.337 436.394 207.317L437.834 207.217C437.934 207.577 438.164 207.837 438.704 207.837C439.444 207.837 439.964 207.327 440.124 206.107C439.784 206.407 439.304 206.627 438.674 206.627C437.264 206.627 436.364 205.677 436.364 204.247C436.364 202.667 437.394 201.677 438.964 201.677ZM438.994 202.957C438.244 202.957 437.824 203.397 437.824 204.197C437.824 204.937 438.204 205.417 438.934 205.417C439.674 205.417 440.144 204.927 440.144 204.187C440.144 203.507 439.724 202.957 438.994 202.957ZM444.97 209.098C443.47 209.098 442.56 208.207 442.46 207.037L443.92 206.957C444.01 207.537 444.36 207.837 444.97 207.837C445.63 207.837 446.04 207.417 446.04 206.607C446.04 205.817 445.62 205.357 444.98 205.357C444.54 205.357 444.17 205.617 444.03 205.977L442.56 205.907L442.98 201.837H447.17V203.117H444.15L443.97 204.647C444.3 204.367 444.74 204.207 445.22 204.207C446.63 204.207 447.5 205.227 447.5 206.617C447.5 208.087 446.5 209.098 444.97 209.098Z" fill="black"/>
<path id="301" d="M52.4421 203.805C50.8121 203.805 50.0021 202.975 49.9321 201.685L51.3721 201.615C51.4321 202.305 51.8921 202.545 52.4721 202.545C53.1021 202.545 53.5921 202.245 53.5921 201.545C53.5921 200.865 53.1421 200.505 52.4021 200.505H51.8721V199.375H52.4021C52.9621 199.375 53.3721 199.125 53.3721 198.515C53.3721 197.925 53.0221 197.635 52.4621 197.635C51.8421 197.635 51.5421 197.945 51.4821 198.435L50.0421 198.365C50.1821 197.155 51.0121 196.385 52.4721 196.385C53.9321 196.385 54.8321 197.105 54.8321 198.325C54.8321 199.095 54.4321 199.605 53.6821 199.845C54.5521 200.095 55.0521 200.745 55.0521 201.645C55.0521 202.985 54.0421 203.805 52.4421 203.805ZM58.4882 203.805C56.8882 203.805 55.9282 202.395 55.9282 200.105C55.9282 197.805 56.8882 196.385 58.4882 196.385C60.0882 196.385 61.0482 197.805 61.0482 200.105C61.0482 202.395 60.0882 203.805 58.4882 203.805ZM57.3882 200.105C57.3882 200.535 57.4182 200.905 57.4782 201.215L59.1682 198.025C58.9882 197.775 58.7582 197.645 58.4882 197.645C57.7982 197.645 57.3882 198.465 57.3882 200.105ZM58.4882 202.545C59.1782 202.545 59.5882 201.735 59.5882 200.105C59.5882 199.675 59.5582 199.295 59.4982 198.975L57.8082 202.165C57.9882 202.415 58.2182 202.545 58.4882 202.545ZM61.9643 203.645V202.365H64.0043V198.985H62.2643V197.805H63.0443C63.8443 197.805 64.1843 197.465 64.1843 196.545H65.4243V202.365H67.0043V203.645H61.9643Z" fill="black"/>
<path id="402" d="M51.7264 85.3555V83.9355H48.5564V82.7655L51.5364 78.2555H53.1564V82.6955H53.9964V83.9355H53.1564V85.3555H51.7264ZM49.8964 82.6955H51.7264V80.0455L49.8964 82.6955ZM57.2725 85.5155C55.6725 85.5155 54.7125 84.1055 54.7125 81.8155C54.7125 79.5155 55.6725 78.0955 57.2725 78.0955C58.8725 78.0955 59.8325 79.5155 59.8325 81.8155C59.8325 84.1055 58.8725 85.5155 57.2725 85.5155ZM56.1725 81.8155C56.1725 82.2455 56.2025 82.6155 56.2625 82.9255L57.9525 79.7355C57.7725 79.4855 57.5425 79.3555 57.2725 79.3555C56.5825 79.3555 56.1725 80.1755 56.1725 81.8155ZM57.2725 84.2555C57.9625 84.2555 58.3725 83.4455 58.3725 81.8155C58.3725 81.3855 58.3425 81.0055 58.2825 80.6855L56.5925 83.8755C56.7725 84.1255 57.0025 84.2555 57.2725 84.2555ZM60.7086 85.3555C60.7086 83.6255 61.2886 82.6155 63.2686 81.5955C63.9986 81.2155 64.3586 80.9355 64.3586 80.2855C64.3586 79.7155 64.0286 79.3555 63.3986 79.3555C62.6786 79.3555 62.3286 79.7755 62.2086 80.5355L60.7386 80.4455C60.8786 78.9955 61.7886 78.0955 63.4186 78.0955C65.0086 78.0955 65.8286 78.9455 65.8286 80.2055C65.8286 81.3455 65.3386 81.9055 63.9386 82.6655C62.7886 83.2855 62.3786 83.7155 62.3386 84.0755H65.8286V85.3555H60.7086Z" fill="black"/>
<path id="429" d="M327.328 10V8.58H324.158V7.41L327.138 2.9H328.758V7.34H329.598V8.58H328.758V10H327.328ZM325.498 7.34H327.328V4.69L325.498 7.34ZM330.314 10C330.314 8.27 330.894 7.26 332.874 6.24C333.604 5.86 333.964 5.58 333.964 4.93C333.964 4.36 333.634 4 333.004 4C332.284 4 331.934 4.42 331.814 5.18L330.344 5.09C330.484 3.64 331.394 2.74 333.024 2.74C334.614 2.74 335.434 3.59 335.434 4.85C335.434 5.99 334.944 6.55 333.544 7.31C332.394 7.93 331.984 8.36 331.944 8.72H335.434V10H330.314ZM338.85 2.74C340.58 2.74 341.49 3.91 341.49 5.97C341.49 8.32 340.68 10.16 338.59 10.16C337.19 10.16 336.54 9.4 336.28 8.38L337.72 8.28C337.82 8.64 338.05 8.9 338.59 8.9C339.33 8.9 339.85 8.39 340.01 7.17C339.67 7.47 339.19 7.69 338.56 7.69C337.15 7.69 336.25 6.74 336.25 5.31C336.25 3.73 337.28 2.74 338.85 2.74ZM338.88 4.02C338.13 4.02 337.71 4.46 337.71 5.26C337.71 6 338.09 6.48 338.82 6.48C339.56 6.48 340.03 5.99 340.03 5.25C340.03 4.57 339.61 4.02 338.88 4.02Z" fill="black"/>
<path id="350" d="M382.457 112.348C380.827 112.348 380.017 111.517 379.947 110.227L381.387 110.157C381.447 110.847 381.907 111.087 382.487 111.087C383.117 111.087 383.607 110.787 383.607 110.087C383.607 109.407 383.157 109.047 382.417 109.047H381.887V107.917H382.417C382.977 107.917 383.387 107.667 383.387 107.057C383.387 106.467 383.037 106.177 382.477 106.177C381.857 106.177 381.557 106.487 381.497 106.977L380.057 106.908C380.197 105.697 381.027 104.927 382.487 104.927C383.947 104.927 384.847 105.647 384.847 106.867C384.847 107.637 384.447 108.147 383.697 108.387C384.567 108.637 385.067 109.287 385.067 110.187C385.067 111.528 384.057 112.348 382.457 112.348ZM388.493 112.348C386.993 112.348 386.083 111.457 385.983 110.287L387.443 110.207C387.533 110.787 387.883 111.087 388.493 111.087C389.153 111.087 389.563 110.667 389.563 109.857C389.563 109.067 389.143 108.607 388.503 108.607C388.063 108.607 387.693 108.867 387.553 109.227L386.083 109.157L386.503 105.087H390.693V106.367H387.673L387.493 107.897C387.823 107.617 388.263 107.457 388.743 107.457C390.153 107.457 391.023 108.477 391.023 109.867C391.023 111.337 390.023 112.348 388.493 112.348ZM394.499 112.348C392.899 112.348 391.939 110.938 391.939 108.647C391.939 106.347 392.899 104.927 394.499 104.927C396.099 104.927 397.059 106.347 397.059 108.647C397.059 110.938 396.099 112.348 394.499 112.348ZM393.399 108.647C393.399 109.077 393.429 109.447 393.489 109.757L395.179 106.567C394.999 106.317 394.769 106.187 394.499 106.187C393.809 106.187 393.399 107.007 393.399 108.647ZM394.499 111.087C395.189 111.087 395.599 110.277 395.599 108.647C395.599 108.217 395.569 107.837 395.509 107.517L393.819 110.707C393.999 110.957 394.229 111.087 394.499 111.087Z" fill="black"/>
</g>
<path id="field" d="M210.095 -68.1211L344.883 -0.18364L457.498 211.367L440.042 231.194L435.884 228.946L395.447 309.857L389.244 306.611L311.091 456.144C285.655 504.812 216.001 504.815 190.562 456.148L111.873 305.611L106.25 308.857L60.3797 227.643L55.9974 230.174L36.7269 189.079C23.1903 160.213 22.72 126.919 35.4357 97.6821L48.538 67.556L12.1811 52.6394L19.7303 33.1556L210.095 -68.1211Z" fill="#0C2340" fill-opacity="0.1" fill="none" stroke="#0C2340" stroke-width="1.002"/>
</g>
<defs>
<clipPath id="clip0_131_7604">
<rect width="500" height="469.94" fill="white"/>
</clipPath>
</defs>
</svg>
