<svg width="500" height="470" viewBox="0 0 500 470" fill="none" xmlns="http://www.w3.org/2000/svg">
<g id="yankee-stadium-i-1946" clip-path="url(#clip0_131_7658)">
<g id="Infield">
<path d="M339.98 327.764C339.453 325.664 322.032 258.477 250.83 258.477C180.238 258.477 162.505 324.536 161.697 327.697C161.677 327.775 161.668 327.814 161.668 327.814L236.504 402.651C235.305 404.91 234.623 407.487 234.623 410.236C234.623 419.184 241.873 426.443 250.83 426.443C259.778 426.443 267.037 419.184 267.037 410.236C267.037 407.487 266.356 404.91 265.157 402.655L260.695 397.373C257.96 395.276 254.544 394.024 250.83 394.024C247.117 394.024 243.701 395.276 240.971 397.368L197.7 354.098C201.448 350.351 201.448 344.275 197.7 340.528C197.698 340.525 197.694 340.523 197.691 340.52L244.055 294.036C247.8 297.772 253.861 297.772 257.606 294.036L303.431 339.982C303.431 339.982 303.427 339.983 303.424 339.986C299.677 343.734 300.275 350.298 304.022 354.045L260.695 397.373L265.157 402.655L339.98 327.764Z" fill="#D2D2D2"/>
<path d="M259.91 345.704C259.91 350.719 255.845 354.785 250.83 354.785C245.815 354.785 241.75 350.719 241.75 345.704C241.75 340.689 245.815 336.624 250.83 336.624C255.845 336.624 259.91 340.689 259.91 345.704Z" fill="#D2D2D2"/>
</g>
<g id="Guides">
<g id="Home">
<circle id="Ellipse 1" cx="250.827" cy="410.421" r="16.0848" fill="#D2D2D2"/>
<circle id="Ellipse 1_2" cx="250.827" cy="410.422" r="1.62919" fill="black"/>
</g>
<g id="First">
<circle id="Ellipse 1_3" cx="311.125" cy="346.535" r="10.1878" fill="#D2D2D2"/>
<circle id="Ellipse 1_4" cx="311.125" cy="346.536" r="1.0319" fill="black"/>
</g>
<g id="Third">
<circle id="Ellipse 1_5" cx="190.34" cy="346.535" r="10.1878" fill="#D2D2D2"/>
<circle id="Ellipse 1_6" cx="190.34" cy="346.536" r="1.0319" fill="black"/>
</g>
<g id="Second">
<circle id="Ellipse 1_7" cx="250.827" cy="286.672" r="10.1878" fill="#D2D2D2"/>
<circle id="Ellipse 1_8" cx="250.827" cy="286.673" r="1.0319" fill="black"/>
</g>
<g id="Mound">
<circle id="Ellipse 1_9" cx="250.827" cy="345.931" r="9.08365" fill="#D2D2D2"/>
<circle id="Ellipse 1_10" cx="250.827" cy="345.932" r="0.920062" fill="black"/>
</g>
</g>
<path id="Foul Lines" d="M459.263 202.226L250.976 410.515L42.8916 202.431" fill="none" stroke="black" stroke-width="1.002"/>
<g id="Measurements">
<path id="296" d="M437.846 203.441C437.846 201.711 438.426 200.701 440.406 199.681C441.136 199.301 441.496 199.021 441.496 198.371C441.496 197.801 441.166 197.441 440.536 197.441C439.816 197.441 439.466 197.861 439.346 198.621L437.876 198.531C438.016 197.081 438.926 196.181 440.556 196.181C442.146 196.181 442.966 197.031 442.966 198.291C442.966 199.431 442.476 199.991 441.076 200.751C439.926 201.371 439.516 201.801 439.476 202.161H442.966V203.441H437.846ZM446.382 196.181C448.112 196.181 449.022 197.351 449.022 199.411C449.022 201.761 448.212 203.601 446.122 203.601C444.722 203.601 444.072 202.841 443.812 201.821L445.252 201.721C445.352 202.081 445.582 202.341 446.122 202.341C446.862 202.341 447.382 201.831 447.542 200.611C447.202 200.911 446.722 201.131 446.092 201.131C444.682 201.131 443.782 200.181 443.782 198.751C443.782 197.171 444.812 196.181 446.382 196.181ZM446.412 197.461C445.662 197.461 445.242 197.901 445.242 198.701C445.242 199.441 445.622 199.921 446.352 199.921C447.092 199.921 447.562 199.431 447.562 198.691C447.562 198.011 447.142 197.461 446.412 197.461ZM452.418 203.601C450.688 203.601 449.778 202.431 449.778 200.371C449.778 198.021 450.588 196.181 452.678 196.181C454.078 196.181 454.728 196.941 454.988 197.961L453.548 198.061C453.448 197.701 453.218 197.441 452.678 197.441C451.938 197.441 451.418 197.951 451.258 199.171C451.598 198.871 452.078 198.651 452.708 198.651C454.118 198.651 455.018 199.601 455.018 201.031C455.018 202.611 453.988 203.601 452.418 203.601ZM452.388 202.321C453.138 202.321 453.558 201.881 453.558 201.081C453.558 200.341 453.178 199.861 452.448 199.861C451.708 199.861 451.238 200.351 451.238 201.091C451.238 201.771 451.658 202.321 452.388 202.321Z" fill="black"/>
<path id="301" d="M52.4422 203.805C50.8122 203.805 50.0022 202.975 49.9322 201.685L51.3722 201.615C51.4322 202.305 51.8922 202.545 52.4722 202.545C53.1022 202.545 53.5922 202.245 53.5922 201.545C53.5922 200.865 53.1422 200.505 52.4022 200.505H51.8722V199.375H52.4022C52.9622 199.375 53.3722 199.125 53.3722 198.515C53.3722 197.925 53.0222 197.635 52.4622 197.635C51.8422 197.635 51.5422 197.945 51.4822 198.435L50.0422 198.365C50.1822 197.155 51.0122 196.385 52.4722 196.385C53.9322 196.385 54.8322 197.105 54.8322 198.325C54.8322 199.095 54.4322 199.605 53.6822 199.845C54.5522 200.095 55.0522 200.745 55.0522 201.645C55.0522 202.985 54.0422 203.805 52.4422 203.805ZM58.4883 203.805C56.8883 203.805 55.9283 202.395 55.9283 200.105C55.9283 197.805 56.8883 196.385 58.4883 196.385C60.0883 196.385 61.0483 197.805 61.0483 200.105C61.0483 202.395 60.0883 203.805 58.4883 203.805ZM57.3883 200.105C57.3883 200.535 57.4183 200.905 57.4783 201.215L59.1683 198.025C58.9883 197.775 58.7583 197.645 58.4883 197.645C57.7983 197.645 57.3883 198.465 57.3883 200.105ZM58.4883 202.545C59.1783 202.545 59.5883 201.735 59.5883 200.105C59.5883 199.675 59.5583 199.295 59.4983 198.975L57.8083 202.165C57.9883 202.415 58.2183 202.545 58.4883 202.545ZM61.9644 203.645V202.365H64.0044V198.985H62.2644V197.805H63.0444C63.8444 197.805 64.1844 197.465 64.1844 196.545H65.4244V202.365H67.0044V203.645H61.9644Z" fill="black"/>
<path id="402" d="M51.7264 85.3555V83.9355H48.5564V82.7655L51.5364 78.2555H53.1564V82.6955H53.9964V83.9355H53.1564V85.3555H51.7264ZM49.8964 82.6955H51.7264V80.0455L49.8964 82.6955ZM57.2725 85.5155C55.6725 85.5155 54.7125 84.1055 54.7125 81.8155C54.7125 79.5155 55.6725 78.0955 57.2725 78.0955C58.8725 78.0955 59.8325 79.5155 59.8325 81.8155C59.8325 84.1055 58.8725 85.5155 57.2725 85.5155ZM56.1725 81.8155C56.1725 82.2455 56.2025 82.6155 56.2625 82.9255L57.9525 79.7355C57.7725 79.4855 57.5425 79.3555 57.2725 79.3555C56.5825 79.3555 56.1725 80.1755 56.1725 81.8155ZM57.2725 84.2555C57.9625 84.2555 58.3725 83.4455 58.3725 81.8155C58.3725 81.3855 58.3425 81.0055 58.2825 80.6855L56.5925 83.8755C56.7725 84.1255 57.0025 84.2555 57.2725 84.2555ZM60.7086 85.3555C60.7086 83.6255 61.2886 82.6155 63.2686 81.5955C63.9986 81.2155 64.3586 80.9355 64.3586 80.2855C64.3586 79.7155 64.0286 79.3555 63.3986 79.3555C62.6786 79.3555 62.3286 79.7755 62.2086 80.5355L60.7386 80.4455C60.8786 78.9955 61.7886 78.0955 63.4186 78.0955C65.0086 78.0955 65.8286 78.9455 65.8286 80.2055C65.8286 81.3455 65.3386 81.9055 63.9386 82.6655C62.7886 83.2855 62.3786 83.7155 62.3386 84.0755H65.8286V85.3555H60.7086Z" fill="black"/>
<path id="407" d="M318.328 23V21.58H315.158V20.41L318.138 15.9H319.758V20.34H320.598V21.58H319.758V23H318.328ZM316.498 20.34H318.328V17.69L316.498 20.34ZM323.874 23.16C322.274 23.16 321.314 21.75 321.314 19.46C321.314 17.16 322.274 15.74 323.874 15.74C325.474 15.74 326.434 17.16 326.434 19.46C326.434 21.75 325.474 23.16 323.874 23.16ZM322.774 19.46C322.774 19.89 322.804 20.26 322.864 20.57L324.554 17.38C324.374 17.13 324.144 17 323.874 17C323.184 17 322.774 17.82 322.774 19.46ZM323.874 21.9C324.564 21.9 324.974 21.09 324.974 19.46C324.974 19.03 324.944 18.65 324.884 18.33L323.194 21.52C323.374 21.77 323.604 21.9 323.874 21.9ZM328.54 23C328.54 20.85 329.44 18.89 330.91 17.18H327.41V15.9H332.33V17.11C330.7 18.97 330.03 20.56 330.03 23H328.54Z" fill="black"/>
<path id="344" d="M416.552 130.98C414.922 130.98 414.112 130.15 414.042 128.86L415.482 128.79C415.542 129.48 416.002 129.72 416.582 129.72C417.212 129.72 417.702 129.42 417.702 128.72C417.702 128.04 417.252 127.68 416.512 127.68H415.982V126.55H416.512C417.072 126.55 417.482 126.3 417.482 125.69C417.482 125.1 417.132 124.81 416.572 124.81C415.952 124.81 415.652 125.12 415.592 125.61L414.152 125.54C414.292 124.33 415.122 123.56 416.582 123.56C418.042 123.56 418.942 124.28 418.942 125.5C418.942 126.27 418.542 126.78 417.792 127.02C418.662 127.27 419.162 127.92 419.162 128.82C419.162 130.16 418.152 130.98 416.552 130.98ZM423.048 130.82V129.4H419.878V128.23L422.858 123.72H424.478V128.16H425.318V129.4H424.478V130.82H423.048ZM421.218 128.16H423.048V125.51L421.218 128.16ZM429.044 130.82V129.4H425.874V128.23L428.854 123.72H430.474V128.16H431.314V129.4H430.474V130.82H429.044ZM427.214 128.16H429.044V125.51L427.214 128.16Z" fill="black"/>
</g>
<path id="field" d="M34.3569 104.956L48.5379 67.5568L61.173 44.0802C89.946 -9.38124 145.754 -42.7227 206.467 -42.7227H222.191C225.38 -42.7227 228.522 -41.9602 231.357 -40.4988L331.746 11.2636L428.888 114.705C448.39 135.471 459.245 162.889 459.245 191.376V202.429L420.351 243.982L310.919 452.374C285.465 500.844 216.09 500.899 190.561 452.469L81.8731 246.286L48.5379 212.608L39.636 195.465C25.0738 167.422 23.1537 134.502 34.3569 104.956Z" fill="#0C2340" fill-opacity="0.1" fill="none" stroke="#0C2340" stroke-width="1.002"/>
</g>
<defs>
<clipPath id="clip0_131_7658">
<rect width="500" height="469.94" fill="white"/>
</clipPath>
</defs>
</svg>
