<svg width="500" height="470" viewBox="0 0 500 470" fill="none" xmlns="http://www.w3.org/2000/svg">
<g id="yankee-stadium-i-1988" clip-path="url(#clip0_131_7740)">
<g id="Infield">
<path d="M339.98 327.764C339.453 325.664 322.032 258.477 250.83 258.477C180.238 258.477 162.505 324.536 161.697 327.697C161.677 327.775 161.668 327.814 161.668 327.814L236.504 402.651C235.305 404.91 234.623 407.487 234.623 410.236C234.623 419.184 241.873 426.443 250.83 426.443C259.778 426.443 267.037 419.184 267.037 410.236C267.037 407.487 266.356 404.91 265.157 402.655L260.695 397.373C257.96 395.276 254.544 394.024 250.83 394.024C247.117 394.024 243.701 395.276 240.971 397.368L197.7 354.098C201.448 350.351 201.448 344.275 197.7 340.528C197.698 340.525 197.694 340.523 197.691 340.52L244.055 294.036C247.8 297.772 253.861 297.772 257.606 294.036L303.431 339.982C303.431 339.982 303.427 339.983 303.424 339.986C299.677 343.734 300.275 350.298 304.022 354.045L260.695 397.373L265.157 402.655L339.98 327.764Z" fill="#D2D2D2"/>
<path d="M259.91 345.704C259.91 350.719 255.845 354.785 250.83 354.785C245.815 354.785 241.75 350.719 241.75 345.704C241.75 340.689 245.815 336.624 250.83 336.624C255.845 336.624 259.91 340.689 259.91 345.704Z" fill="#D2D2D2"/>
</g>
<g id="Guides">
<g id="Home">
<circle id="Ellipse 1" cx="250.827" cy="410.421" r="16.0848" fill="#D2D2D2"/>
<circle id="Ellipse 1_2" cx="250.827" cy="410.422" r="1.62919" fill="black"/>
</g>
<g id="First">
<circle id="Ellipse 1_3" cx="311.125" cy="346.535" r="10.1878" fill="#D2D2D2"/>
<circle id="Ellipse 1_4" cx="311.125" cy="346.536" r="1.0319" fill="black"/>
</g>
<g id="Third">
<circle id="Ellipse 1_5" cx="190.34" cy="346.535" r="10.1878" fill="#D2D2D2"/>
<circle id="Ellipse 1_6" cx="190.34" cy="346.536" r="1.0319" fill="black"/>
</g>
<g id="Second">
<circle id="Ellipse 1_7" cx="250.827" cy="286.672" r="10.1878" fill="#D2D2D2"/>
<circle id="Ellipse 1_8" cx="250.827" cy="286.673" r="1.0319" fill="black"/>
</g>
<g id="Mound">
<circle id="Ellipse 1_9" cx="250.827" cy="345.931" r="9.08365" fill="#D2D2D2"/>
<circle id="Ellipse 1_10" cx="250.827" cy="345.932" r="0.920062" fill="black"/>
</g>
</g>
<path id="Foul Lines" d="M467.378 194.111L250.975 410.513L29.3801 188.918" fill="none" stroke="black" stroke-width="1.002"/>
<g id="Measurements">
<path id="314" d="M447.356 193.601C445.726 193.601 444.916 192.771 444.846 191.481L446.286 191.411C446.346 192.101 446.806 192.341 447.386 192.341C448.016 192.341 448.506 192.041 448.506 191.341C448.506 190.661 448.056 190.301 447.316 190.301H446.786V189.171H447.316C447.876 189.171 448.286 188.921 448.286 188.311C448.286 187.721 447.936 187.431 447.376 187.431C446.756 187.431 446.456 187.741 446.396 188.231L444.956 188.161C445.096 186.951 445.926 186.181 447.386 186.181C448.846 186.181 449.746 186.901 449.746 188.121C449.746 188.891 449.346 189.401 448.596 189.641C449.466 189.891 449.966 190.541 449.966 191.441C449.966 192.781 448.956 193.601 447.356 193.601ZM450.882 193.441V192.161H452.922V188.781H451.182V187.601H451.962C452.762 187.601 453.102 187.261 453.102 186.341H454.342V192.161H455.922V193.441H450.882ZM459.848 193.441V192.021H456.678V190.851L459.658 186.341H461.278V190.781H462.118V192.021H461.278V193.441H459.848ZM458.018 190.781H459.848V188.131L458.018 190.781Z" fill="black"/>
<path id="318" d="M35.4422 187.805C33.8122 187.805 33.0022 186.975 32.9322 185.685L34.3722 185.615C34.4322 186.305 34.8922 186.545 35.4722 186.545C36.1022 186.545 36.5922 186.245 36.5922 185.545C36.5922 184.865 36.1422 184.505 35.4022 184.505H34.8722V183.375H35.4022C35.9622 183.375 36.3722 183.125 36.3722 182.515C36.3722 181.925 36.0222 181.635 35.4622 181.635C34.8422 181.635 34.5422 181.945 34.4822 182.435L33.0422 182.365C33.1822 181.155 34.0122 180.385 35.4722 180.385C36.9322 180.385 37.8322 181.105 37.8322 182.325C37.8322 183.095 37.4322 183.605 36.6822 183.845C37.5522 184.095 38.0522 184.745 38.0522 185.645C38.0522 186.985 37.0422 187.805 35.4422 187.805ZM38.9683 187.645V186.365H41.0083V182.985H39.2683V181.805H40.0483C40.8483 181.805 41.1883 181.465 41.1883 180.545H42.4283V186.365H44.0083V187.645H38.9683ZM47.4844 187.805C45.9144 187.805 44.8644 187.085 44.8644 185.705C44.8644 184.775 45.4044 184.115 46.2744 183.835C45.6044 183.575 45.1544 183.085 45.1544 182.345C45.1544 181.205 46.0844 180.385 47.4844 180.385C48.8844 180.385 49.8144 181.205 49.8144 182.345C49.8144 183.085 49.3644 183.575 48.6844 183.835C49.5644 184.115 50.1044 184.775 50.1044 185.705C50.1044 187.085 49.0544 187.805 47.4844 187.805ZM47.4844 183.265C47.9944 183.265 48.3444 182.995 48.3444 182.435C48.3444 181.935 48.0044 181.645 47.4844 181.645C46.9644 181.645 46.6244 181.935 46.6244 182.435C46.6244 182.995 46.9744 183.265 47.4844 183.265ZM47.4844 186.545C48.1244 186.545 48.6444 186.265 48.6444 185.565C48.6444 184.895 48.2144 184.475 47.4844 184.475C46.7544 184.475 46.3244 184.895 46.3244 185.565C46.3244 186.265 46.8444 186.545 47.4844 186.545Z" fill="black"/>
<path id="399" d="M113.646 40.2108C112.016 40.2108 111.206 39.3808 111.136 38.0908L112.576 38.0208C112.636 38.7108 113.096 38.9508 113.676 38.9508C114.306 38.9508 114.796 38.6508 114.796 37.9508C114.796 37.2708 114.346 36.9108 113.606 36.9108H113.076V35.7808H113.606C114.166 35.7808 114.576 35.5308 114.576 34.9208C114.576 34.3308 114.226 34.0408 113.666 34.0408C113.046 34.0408 112.746 34.3508 112.686 34.8408L111.246 34.7708C111.386 33.5608 112.216 32.7908 113.676 32.7908C115.136 32.7908 116.036 33.5108 116.036 34.7308C116.036 35.5008 115.636 36.0108 114.886 36.2508C115.756 36.5008 116.256 37.1508 116.256 38.0508C116.256 39.3908 115.246 40.2108 113.646 40.2108ZM119.672 32.7908C121.402 32.7908 122.312 33.9608 122.312 36.0208C122.312 38.3708 121.502 40.2108 119.412 40.2108C118.012 40.2108 117.362 39.4508 117.102 38.4308L118.542 38.3308C118.642 38.6908 118.872 38.9508 119.412 38.9508C120.152 38.9508 120.672 38.4408 120.832 37.2208C120.492 37.5208 120.012 37.7408 119.382 37.7408C117.972 37.7408 117.072 36.7908 117.072 35.3608C117.072 33.7808 118.102 32.7908 119.672 32.7908ZM119.702 34.0708C118.952 34.0708 118.532 34.5108 118.532 35.3108C118.532 36.0508 118.912 36.5308 119.642 36.5308C120.382 36.5308 120.852 36.0408 120.852 35.3008C120.852 34.6208 120.432 34.0708 119.702 34.0708ZM125.668 32.7908C127.398 32.7908 128.308 33.9608 128.308 36.0208C128.308 38.3708 127.498 40.2108 125.408 40.2108C124.008 40.2108 123.358 39.4508 123.098 38.4308L124.538 38.3308C124.638 38.6908 124.868 38.9508 125.408 38.9508C126.148 38.9508 126.668 38.4408 126.828 37.2208C126.488 37.5208 126.008 37.7408 125.378 37.7408C123.968 37.7408 123.068 36.7908 123.068 35.3608C123.068 33.7808 124.098 32.7908 125.668 32.7908ZM125.698 34.0708C124.948 34.0708 124.528 34.5108 124.528 35.3108C124.528 36.0508 124.908 36.5308 125.638 36.5308C126.378 36.5308 126.848 36.0408 126.848 35.3008C126.848 34.6208 126.428 34.0708 125.698 34.0708Z" fill="black"/>
<path id="408" d="M258.977 8.88672V7.46672H255.807V6.29672L258.787 1.78672H260.407V6.22672H261.247V7.46672H260.407V8.88672H258.977ZM257.147 6.22672H258.977V3.57672L257.147 6.22672ZM264.523 9.04672C262.923 9.04672 261.963 7.63672 261.963 5.34672C261.963 3.04672 262.923 1.62672 264.523 1.62672C266.123 1.62672 267.083 3.04672 267.083 5.34672C267.083 7.63672 266.123 9.04672 264.523 9.04672ZM263.423 5.34672C263.423 5.77672 263.453 6.14672 263.513 6.45672L265.203 3.26672C265.023 3.01672 264.793 2.88672 264.523 2.88672C263.833 2.88672 263.423 3.70672 263.423 5.34672ZM264.523 7.78672C265.213 7.78672 265.623 6.97672 265.623 5.34672C265.623 4.91672 265.593 4.53672 265.533 4.21672L263.843 7.40672C264.023 7.65672 264.253 7.78672 264.523 7.78672ZM270.52 9.04672C268.95 9.04672 267.9 8.32672 267.9 6.94672C267.9 6.01672 268.44 5.35672 269.31 5.07672C268.64 4.81672 268.19 4.32672 268.19 3.58672C268.19 2.44672 269.12 1.62672 270.52 1.62672C271.92 1.62672 272.85 2.44672 272.85 3.58672C272.85 4.32672 272.4 4.81672 271.72 5.07672C272.6 5.35672 273.14 6.01672 273.14 6.94672C273.14 8.32672 272.09 9.04672 270.52 9.04672ZM270.52 4.50672C271.03 4.50672 271.38 4.23672 271.38 3.67672C271.38 3.17672 271.04 2.88672 270.52 2.88672C270 2.88672 269.66 3.17672 269.66 3.67672C269.66 4.23672 270.01 4.50672 270.52 4.50672ZM270.52 7.78672C271.16 7.78672 271.68 7.50672 271.68 6.80672C271.68 6.13672 271.25 5.71672 270.52 5.71672C269.79 5.71672 269.36 6.13672 269.36 6.80672C269.36 7.50672 269.88 7.78672 270.52 7.78672Z" fill="black"/>
<path id="385" d="M353.988 45.5038C352.358 45.5038 351.548 44.6737 351.478 43.3837L352.918 43.3137C352.978 44.0037 353.438 44.2437 354.018 44.2437C354.648 44.2437 355.138 43.9437 355.138 43.2437C355.138 42.5637 354.688 42.2037 353.948 42.2037H353.418V41.0737H353.948C354.508 41.0737 354.918 40.8237 354.918 40.2137C354.918 39.6237 354.568 39.3337 354.008 39.3337C353.388 39.3337 353.088 39.6437 353.028 40.1337L351.588 40.0638C351.728 38.8537 352.558 38.0837 354.018 38.0837C355.478 38.0837 356.378 38.8037 356.378 40.0237C356.378 40.7937 355.978 41.3037 355.228 41.5437C356.098 41.7937 356.598 42.4437 356.598 43.3437C356.598 44.6838 355.588 45.5038 353.988 45.5038ZM360.034 45.5038C358.464 45.5038 357.414 44.7837 357.414 43.4037C357.414 42.4737 357.954 41.8137 358.824 41.5337C358.154 41.2737 357.704 40.7837 357.704 40.0437C357.704 38.9037 358.634 38.0837 360.034 38.0837C361.434 38.0837 362.364 38.9037 362.364 40.0437C362.364 40.7837 361.914 41.2737 361.234 41.5337C362.114 41.8137 362.654 42.4737 362.654 43.4037C362.654 44.7837 361.604 45.5038 360.034 45.5038ZM360.034 40.9637C360.544 40.9637 360.894 40.6937 360.894 40.1337C360.894 39.6337 360.554 39.3437 360.034 39.3437C359.514 39.3437 359.174 39.6337 359.174 40.1337C359.174 40.6937 359.524 40.9637 360.034 40.9637ZM360.034 44.2437C360.674 44.2437 361.194 43.9637 361.194 43.2637C361.194 42.5937 360.764 42.1737 360.034 42.1737C359.304 42.1737 358.874 42.5937 358.874 43.2637C358.874 43.9637 359.394 44.2437 360.034 44.2437ZM366.02 45.5038C364.52 45.5038 363.61 44.6137 363.51 43.4437L364.97 43.3637C365.06 43.9437 365.41 44.2437 366.02 44.2437C366.68 44.2437 367.09 43.8237 367.09 43.0137C367.09 42.2237 366.67 41.7637 366.03 41.7637C365.59 41.7637 365.22 42.0237 365.08 42.3837L363.61 42.3137L364.03 38.2437H368.22V39.5237H365.2L365.02 41.0537C365.35 40.7737 365.79 40.6137 366.27 40.6137C367.68 40.6137 368.55 41.6337 368.55 43.0237C368.55 44.4937 367.55 45.5038 366.02 45.5038Z" fill="black"/>
</g>
<path id="field" d="M29.4831 140.533L30.5174 135.941L104.253 62.205C134.113 32.3449 174.286 15.07 216.499 13.9369L255.834 12.8811C271.457 12.4618 286.933 15.9863 300.834 23.1289L373.358 60.3948L440.558 134.26C458.122 153.566 467.855 178.727 467.855 204.827L391.331 279.625L291.815 462.052C274.337 494.09 228.3 493.993 210.958 461.881L117.309 288.475L33.6892 204.827L30.9222 194.996C25.9254 177.243 25.4308 158.525 29.4831 140.533Z" fill="#0C2340" fill-opacity="0.1" fill="none" stroke="#0C2340" stroke-width="1.002"/>
</g>
<defs>
<clipPath id="clip0_131_7740">
<rect width="500" height="469.94" fill="white"/>
</clipPath>
</defs>
</svg>
