<svg width="78" height="21" viewBox="0 0 78 21" fill="none" xmlns="http://www.w3.org/2000/svg">
<path d="M8.82 13.5602C6.67 14.4402 6.21 12.5702 6.53 12.3102C6.65 12.1902 6.77 12.2102 6.85 12.3302C6.93 12.3902 7.08 12.5002 7.19 12.4502C9.83 11.6202 11.99 6.28021 10.73 5.70021C10.06 5.46021 7.82 5.55021 4.22 10.5302C0.319999 15.8602 1.22 19.8402 3.73 19.8802C6.26 19.8402 7.74 16.5502 7.35 16.2302C7.21 16.1102 7.09 15.5502 7.59 15.6802C8.83 16.0802 8.99 17.7902 7.18 19.6902C3.73 23.2402 -2.79 18.6202 1.32 11.4702C5.85 3.54021 10.65 4.66021 10.65 4.67021C14.91 6.27021 10.93 12.7302 8.83 13.5802L8.82 13.5602Z" fill="currentColor"/>
<path d="M19.06 12.6901C18.16 14.1701 16.82 16.1801 15.29 16.5001C14.19 16.7301 13.68 16.2001 13.71 15.3901C12.97 16.2901 12.21 17.0201 11.74 17.1701C10.52 17.5401 9.2 16.3501 10.68 13.5901C12.16 10.8201 14.45 10.3601 14.45 10.3601C14.91 10.2701 15.55 10.4601 15.83 11.0801C16.05 10.7301 16.14 10.5501 16.14 10.4701C16.14 10.3901 16.07 10.1701 16.16 10.0501C16.29 9.88007 16.51 9.95007 16.51 9.95007C16.51 9.95007 17.54 10.3001 17.35 11.0301C17.16 11.7701 14.93 14.5201 15.6 15.0701C16.48 15.7801 18.59 12.5101 18.59 12.5101C18.74 12.5601 18.89 12.6201 19.05 12.6701C19.05 12.6701 19.05 12.6701 19.06 12.6701V12.6901ZM15.37 11.8401C15.48 11.6301 15.19 11.3501 14.96 11.3501C13.16 11.3501 10.49 16.4301 12.05 16.0701C12.83 15.8901 14.94 12.7301 15.37 11.8401Z" fill="currentColor"/>
<path d="M26.12 11.0401C26.12 11.0401 24.36 14.4601 22.27 14.9401C21.36 15.2001 20.93 14.6201 20.93 13.7601V13.6601C20.2 14.6901 19.36 15.6001 18.54 15.7801C17.64 16.0301 17.17 15.4501 17.2 14.5901C17.24 13.6601 19.47 10.2001 19.39 9.65011C19.38 9.57011 19.2 9.45011 19.29 9.31011C19.41 9.13011 19.77 9.25011 19.77 9.25011C19.77 9.25011 20.78 9.35011 20.72 10.0101C20.59 11.1801 18.5 13.6701 19.21 14.1901C19.74 14.5501 21.49 11.7701 22.38 10.2601C22.72 9.62011 22.98 9.09011 22.98 8.89011C22.99 8.80011 22.8 8.64011 22.9 8.50011C23 8.35011 23.38 8.44011 23.38 8.44011C23.38 8.44011 24.34 8.58011 24.22 9.35011C24.03 10.5201 22.2 12.9901 22.9 13.4901C23.63 13.9701 25.69 10.8801 25.69 10.8801C25.83 10.9401 25.98 11.0001 26.12 11.0601V11.0401Z" fill="currentColor"/>
<path d="M32.92 7.19004C32.79 7.40004 32.5 7.31004 32.5 7.31004C31.5 7.25004 30.11 11.36 28.99 15.98C28.53 17.84 27.08 19.32 25.02 19.64C22.96 19.94 22.12 18.13 22.84 16.64C23.74 14.79 25.31 15.49 25.37 15.69C25.43 15.91 25.31 16.06 25.03 16.11C24.75 16.15 24.24 17.08 24.33 17.61C24.68 19.19 26.78 18.21 27.35 16.53C27.82 15.31 28.24 13.44 28.75 11.65C27.89 12.8 26.94 13.81 26.37 14.01C25.15 14.43 23.84 13.33 25.31 10.48C26.79 7.62004 29.08 7.12004 29.08 7.12004C29.51 7.03004 30.11 7.19004 30.41 7.73004C30.48 7.62004 30.57 7.52004 30.65 7.43004C31.79 6.13004 32.77 6.76004 32.77 6.76004C32.77 6.76004 33.05 6.98004 32.9 7.19004H32.92ZM29.8 8.79004C29.86 8.66004 29.92 8.54004 29.99 8.42004C30.05 8.22004 29.95 8.03004 29.77 8.00004C28.4 7.77004 24.86 13.06 26.69 12.65C27.41 12.49 29.15 9.92004 29.8 8.79004Z" fill="currentColor"/>
<path d="M44.7102 0.200439C45.2101 0.16068 45.6103 0.870536 45.3704 1.45044C45.2304 1.75044 44.8702 2.39067 44.4202 3.19067C44.6801 3.1307 44.94 3.10032 45.1399 3.08032C45.3198 3.07033 45.4599 3.06993 45.5598 3.09985C45.9298 3.22985 46.0296 4.03028 45.8596 4.04028C45.7801 4.03991 45.8098 3.9103 45.68 3.87036C45.6776 3.86969 45.3973 3.79031 44.76 3.84009C44.5401 3.86008 44.2902 3.8907 44.0003 3.94067C42.7503 6.21058 40.4401 9.89014 41.4798 10.4104H41.7298C41.7695 10.4058 41.8123 10.3984 41.8577 10.3899C41.8649 10.4212 41.8714 10.4624 41.8684 10.5168C41.8604 10.6602 41.8065 10.8512 41.6888 11.0579C41.6671 11.0959 41.6424 11.1336 41.6165 11.1721C41.1097 11.2103 40.4967 11.1923 40.1204 10.8C39.9804 10.65 39.9402 10.4003 39.9202 10.0403C39.8402 8.84028 41.0696 6.40984 42.2796 4.34985C42.0497 4.39981 41.8699 4.43045 41.72 4.45044C41 4.54044 40.9396 4.2902 40.8596 3.96021C40.8007 3.75366 40.926 3.73137 40.93 3.73071C40.9999 3.73071 40.9699 3.83058 41.0598 3.8606C41.1598 3.90056 41.3097 3.90008 41.4895 3.88013C41.8295 3.84013 42.2798 3.70985 42.7298 3.59985C43.6794 2.02054 44.4998 0.801258 44.5403 0.610596C44.5603 0.500596 44.5198 0.420088 44.5198 0.340088C44.5299 0.270171 44.6203 0.21043 44.7102 0.200439ZM42.5794 10.1868C42.6145 10.443 42.5765 10.7497 42.4739 11.0676C42.3011 11.096 42.1328 11.121 41.97 11.1399C41.9355 11.1437 41.8994 11.1457 41.8626 11.1497C42.0388 10.8381 42.0946 10.5439 42.053 10.345C42.208 10.3058 42.3849 10.2518 42.5794 10.1868ZM48.6096 8.31079C48.9095 8.31079 49.1398 8.35031 49.2698 8.46021C50.0498 9.09021 49.7497 10.2107 49.4397 10.4407C49.4199 10.4602 49.3903 10.4602 49.3704 10.4602C49.3105 10.4602 49.2399 10.4205 49.2298 10.3606C49.0998 10.0606 48.69 9.95999 48.0901 9.96997C47.3302 9.98997 46.2703 10.2207 45.1604 10.4807C44.3277 10.6775 43.4715 10.8904 42.6927 11.0305C42.698 11.0117 42.7053 10.9936 42.7102 10.9749C42.7885 10.6774 42.8144 10.3813 42.7718 10.1213C43.404 9.90019 44.1882 9.58709 44.9895 9.29028C46.3293 8.78035 47.7496 8.33091 48.6096 8.31079Z" fill="currentColor"/>
<path d="M32.1921 11.324C32.7045 11.2268 33.376 11.2219 34.2546 11.3943C34.2136 11.4588 34.1715 11.5243 34.1296 11.5906C33.9295 11.9007 33.5201 12.5594 33.2702 12.5798C32.7402 12.6798 32.1901 12.3901 32.1901 11.4001C32.1901 11.3751 32.1914 11.3498 32.1921 11.324ZM35.3503 3.90015C36.5602 1.88032 37.6405 1.35035 38.2604 1.60034C39.1399 1.96077 38.6794 3.88082 37.3796 4.71069C36.9397 4.99048 36.4398 5.16984 35.9001 5.28979C35.0401 7.34979 33.9604 9.96058 33.7204 11.0906C34.4203 9.87073 36.7094 6.59112 37.3298 6.0105C38.1498 5.2405 39.0204 5.23073 39.0104 6.25073V6.36011C39.0004 6.60007 37.8506 9.05958 37.8503 10.0798C37.8503 10.3797 37.9499 10.5603 38.2097 10.5105C39.2634 10.3415 40.7624 8.11676 40.78 8.09058C40.9198 8.17049 41.0698 8.25013 41.2097 8.32007V8.34058C40.749 9.2512 37.8898 12.8 36.53 11.6902C36.21 11.4202 36.0895 11.02 36.0895 10.5701C36.0897 9.03008 37.5301 6.82033 37.6901 6.60034C37.5834 6.67794 36.8944 7.25485 34.3708 11.2136C33.4621 11.0274 32.7547 11.0213 32.2038 11.1179C32.2218 10.9045 32.2586 10.6662 32.32 10.4001C32.7 8.87027 33.5801 7.1805 34.53 5.42065C33.4001 5.44065 32.1303 5.28065 30.8005 5.17065C28.7807 5.00068 27.7304 5.84015 27.3503 6.40015C27.1603 6.68015 27.1596 6.85038 27.1296 6.89038C27.0695 7.01019 26.9095 7.06039 26.8395 6.97046C26.4397 6.55038 26.7302 5.53979 26.7302 5.53979C26.7438 5.49891 27.4777 2.86316 32.4001 4.18042C33.41 4.47039 34.2602 4.5703 34.9802 4.5603C35.1002 4.32032 35.2203 4.11014 35.3503 3.90015ZM38.0397 2.15015C37.8195 1.98092 37.1502 2.88084 36.4704 3.97046C36.4205 4.10029 36.3604 4.23008 36.3005 4.36987C38.03 3.85974 38.4097 2.44012 38.0397 2.15015Z" fill="currentColor"/>
<path d="M47.14 15.5001C47.14 15.5001 45.47 18.0401 43.87 17.7801C42.89 19.2601 41.52 20.2901 40.54 19.4801C38.06 17.4301 43.05 11.8301 44.69 13.0801C45.48 13.7001 45.18 15.3401 44.44 16.8301C44.57 16.9001 44.78 16.8401 44.78 16.8401C44.78 16.8401 45.97 16.5201 46.9 15.2801C46.98 15.3601 47.07 15.4301 47.15 15.5101L47.14 15.5001ZM43.18 17.4701C42.27 16.6801 42.76 14.9201 43.23 13.9801C42.14 14.9401 40.7 17.1701 41.72 18.0201C42.16 18.3901 42.72 18.0701 43.18 17.4701ZM43.73 16.5701C44.33 15.4101 44.63 13.9901 44.14 13.5901C44.13 13.5901 44.13 13.5801 44.12 13.5901C43.81 13.9601 43.42 14.6501 43.42 15.7401C43.43 16.1601 43.56 16.4101 43.73 16.5701Z" fill="currentColor"/>
<path d="M53.12 14.01C53.12 14.01 51.45 16.59 49.85 16.39C48.87 17.91 47.5 19.01 46.52 18.25C44.04 16.34 49.03 10.45 50.67 11.65C51.46 12.24 51.16 13.89 50.42 15.41C50.55 15.47 50.76 15.41 50.76 15.41C50.76 15.41 51.95 15.05 52.88 13.79C52.96 13.86 53.05 13.94 53.13 14.01H53.12ZM49.17 16.11C48.26 15.36 48.75 13.57 49.22 12.62C48.13 13.62 46.69 15.94 47.71 16.73C48.15 17.08 48.71 16.73 49.17 16.11ZM49.72 15.19C50.32 14.01 50.62 12.58 50.13 12.2C50.12 12.2 50.12 12.2 50.11 12.2C49.8 12.58 49.41 13.29 49.41 14.38C49.42 14.8 49.55 15.04 49.72 15.2V15.19Z" fill="currentColor"/>
<path d="M58.57 17.1901C58.09 17.6701 57.24 18.3601 56.18 18.0301C55.1 17.6901 53.67 14.8401 53.55 14.3701C53.43 14.9501 53.38 15.4701 53.44 15.8601C53.44 15.8601 53.54 16.4001 53.87 16.4001C54.01 16.4001 54.09 16.5801 53.95 16.7901C53.82 16.9901 52.05 17.7001 51.84 15.7801C51.65 13.3201 55.33 7.24013 55.09 6.29013C55.03 6.05013 55.02 5.98013 55.09 5.89013C55.27 5.65013 56.31 5.78013 56.04 6.90013C55.91 7.65013 54.95 9.87013 54.23 11.9901C55.11 10.6601 56.29 9.28013 57.18 9.65013C58.16 10.0801 58.1 11.6301 56.18 13.3201C55.48 13.9301 54.88 14.1901 54.39 14.2901C54.79 14.7301 55.41 15.2601 55.82 15.5701C56.66 16.1701 57.73 16.8101 58.24 16.5701C58.74 16.3401 58.97 16.7601 58.55 17.1901H58.57ZM53.88 13.6001C54.97 13.0701 57.03 11.3801 56.47 10.8201C56.12 10.4801 54.49 12.2901 54.01 13.1501C53.96 13.2301 53.87 13.4001 53.82 13.5101C53.84 13.5401 53.86 13.5601 53.88 13.5901V13.6001Z" fill="currentColor"/>
<path d="M62.89 11.69C62.89 11.69 61.58 14.78 59.35 15.5C58.61 15.74 58.11 15.25 58.01 14.87C57.79 14.11 58.69 12.59 59.27 11.26C59.7 10.27 59.93 9.81999 59.95 9.69999C59.96 9.58999 59.78 9.38999 59.85 9.23999C59.95 9.04999 60.17 9.07999 60.17 9.07999C60.17 9.07999 61.3 9.11999 61.26 9.83999C61.22 10.55 59.01 13.71 59.82 14.16C60.62 14.47 62.47 11.49 62.47 11.49C62.61 11.55 62.74 11.61 62.88 11.68L62.89 11.69ZM60.45 8.36999C60.88 7.54999 61.36 6.02999 61.37 5.67999C61.39 5.33999 60.99 5.46999 61.21 5.03999C61.43 4.59999 62.65 5.16999 62.72 5.62999C62.79 6.09999 61.47 8.13999 61.03 8.63999C60.57 9.13999 60.39 8.44999 60.44 8.35999L60.45 8.36999Z" fill="currentColor"/>
<path d="M70.04 10.0902C70.18 10.1602 70.32 10.2302 70.46 10.3002C69.73 11.6202 68.33 13.6302 66.5 13.9802C65.6 14.1502 65.29 13.5202 65.36 12.6402C65.46 11.7102 65.98 10.5002 66.82 9.29018C67 9.04018 67.14 8.82018 67.26 8.64018C66.83 9.10018 66.2 9.85018 65.33 11.0702C64.71 11.9002 63.08 14.6402 62.52 14.7702C61.37 15.0302 60.87 14.2602 61.42 12.9902C61.94 11.7902 63.06 9.93018 63.22 8.98018C63.24 8.77018 62.99 8.68018 62.94 8.56018C62.88 8.42018 63.01 8.30018 63.12 8.26018C63.12 8.26018 65.18 7.73018 64.55 9.52018C63.85 11.5202 62.82 13.4402 62.87 13.4602C62.92 13.4902 67 7.37018 67.87 7.35018C67.97 7.33018 68.06 7.38018 68.06 7.38018C68.06 7.38018 68.97 7.71018 68.68 8.54018C68.43 9.26018 66.59 11.9402 67.26 12.5502C67.7 12.9002 69.18 11.2802 70.02 10.1002L70.04 10.0902Z" fill="currentColor"/>
<path d="M77.33 7.44006C77.2 7.62006 76.91 7.48006 76.91 7.48006C75.91 7.22006 74.52 11.1101 73.4 15.5701C72.94 17.3701 71.49 18.6501 69.43 18.7901C67.37 18.9301 66.53 17.1001 67.25 15.6401C67.29 15.5601 67.33 15.4801 67.37 15.4001C65.49 16.0101 61.16 18.6601 60.32 18.1701C59.55 17.6901 59.88 16.5101 60.19 16.2101C60.26 16.1301 60.38 16.1601 60.41 16.2401C60.89 17.3301 66.54 14.1001 68.79 14.4601C69.31 14.5101 69.75 14.7601 69.79 14.8701C69.85 15.0901 69.73 15.2401 69.45 15.2701C69.17 15.2901 68.66 16.1801 68.75 16.7201C69.1 18.3101 71.2 17.5201 71.77 15.9201C72.24 14.7501 72.66 12.9401 73.17 11.2201C72.31 12.2501 71.36 13.1601 70.8 13.3001C69.58 13.6001 68.27 12.4001 69.74 9.67006C71.22 6.93006 73.51 6.73006 73.51 6.74006C73.94 6.71006 74.54 6.96006 74.84 7.55006C74.91 7.45006 75 7.36006 75.08 7.29006C76.22 6.18006 77.2 6.99006 77.2 6.99006C77.2 6.99006 77.48 7.27006 77.33 7.45006V7.44006ZM74.18 7.71006C72.81 7.25006 69.27 12.1901 71.1 11.9701C71.82 11.8801 73.56 9.53006 74.21 8.50006C74.27 8.38006 74.33 8.26006 74.4 8.16006C74.46 7.96006 74.36 7.77006 74.18 7.71006Z" fill="currentColor"/>
<path d="M41.4364 9.65259C41.6702 9.56357 41.9063 9.52636 42.1405 9.55981C43.02 9.88024 42.5594 11.8296 41.2596 12.6995L41.2899 12.7102C40.8199 13.0101 40.3098 13.2001 39.7498 13.3C38.4999 15.68 37.0004 18.6704 37.6004 19.1204C38.0908 19.479 39.39 18.0095 40.2997 16.72C40.4396 16.7899 40.5699 16.86 40.7098 16.9299C39.9698 18.3598 38.4902 20.2198 37.0204 20.47C36.3104 20.59 35.7196 20.4197 35.7196 19.3997C35.7197 18.1496 37.04 15.5499 38.3299 13.3801C37.2099 13.3401 35.9795 13.0898 34.6795 12.8098C32.6598 12.37 31.6103 12.9702 31.2303 13.4602C31.0405 13.6999 31.0395 13.8692 31.0096 13.9094C30.9496 14.0194 30.7896 14.0302 30.7196 13.9202C30.3202 13.4208 30.6094 12.4726 30.6102 12.47C30.6102 12.42 31.3101 10.1095 36.2801 11.9895C37.2801 12.3595 38.1299 12.5195 38.8299 12.5295C38.8798 12.4497 38.9296 12.3799 38.9696 12.3C39.2345 11.8381 39.5645 11.3342 39.9325 10.885C39.9457 10.9024 39.9583 10.9205 39.9735 10.9368L39.9754 10.9387C40.2014 11.1742 40.4927 11.2896 40.784 11.344C40.776 11.3559 40.7677 11.3681 40.7596 11.3801C40.39 11.9097 40.32 12.1597 40.2401 12.3596C41.9297 11.8397 42.31 10.4102 41.9403 10.1399L41.95 10.1301C41.8924 10.0885 41.8071 10.1222 41.6971 10.2102H41.575L41.5584 10.2141H41.5565L41.5457 10.2131C41.5447 10.2129 41.5416 10.2123 41.5399 10.2122C41.4906 10.1777 41.4534 10.1242 41.4334 10.0334C41.4127 9.93878 41.413 9.81216 41.4364 9.65259ZM41.2235 9.74731C41.201 10.0211 41.2497 10.2302 41.3914 10.3518L41.4793 10.4104H41.4872C41.3193 10.5961 41.1219 10.8569 40.91 11.1614C40.613 11.1194 40.3294 11.0183 40.12 10.8C40.0995 10.7781 40.0827 10.753 40.0663 10.7268C40.4268 10.311 40.8195 9.95595 41.2235 9.74731Z" fill="currentColor"/>
</svg>
