<svg width="500" height="470" viewBox="0 0 500 470" fill="none" xmlns="http://www.w3.org/2000/svg">
<g clip-path="url(#clip0_39_755)">
<path d="M250.897 453.225C250.897 453.225 265.939 453.839 277.391 440.794C288.853 427.739 303.299 411.791 303.299 411.791L314.161 412.386L374.033 346.344L418.758 263.952L478.021 204.689L488.327 178.258L423.854 57.5066C395.762 34.7841 341.888 5.75739 250.83 5.75739C141.042 5.75739 35.4807 93.658 5.9884 186.98L82.9695 263.952L127.694 346.344L187.576 412.386L198.433 411.791C198.433 411.791 212.88 427.739 224.337 440.794C235.789 453.839 250.83 453.225 250.83 453.225H250.897Z" fill="#13274F" fill-opacity="0.1" stroke="#13274F" stroke-width="1.002"/>
<path d="M250.474 463.014C268.509 463.014 279.016 451.043 279.016 451.043L369.628 349.224L426.899 252.241L467.091 212.055V192.926L474.412 185.609V152.577H467.695L326.265 18.9815H317.807V17.6046H257.925V18.9815H254.111H246.487H242.683V17.6046H182.796V18.9815H174.525L38.4448 147.237H29.4152V188.632L33.7094 192.926V212.055L73.8957 252.241L131.172 349.224L221.784 451.043C221.784 451.043 232.301 462.874 250.158 463.013L250.474 463.014Z" fill="#A71930" fill-opacity="0.1" stroke="#A71930" stroke-width="1.002"/>
<path d="M250.769 459.932C273.545 459.821 282.906 445.99 282.906 445.99L290.597 436.879L293.006 438.712L332.213 390.6L330.851 389.443L343.69 373.87L372.342 329.864L376.943 332.714L446.9 220.748L473.327 213.949L468.006 192.282L372.827 55.7365L216.941 15.2478L41.7829 134.526L19.6121 188.492L119.411 328.372L123.662 325.378L157.429 372.593L170.268 388.23L168.906 389.381L207.912 437.983L210.431 436.136L218.088 445.99C218.088 445.99 227.165 459.933 250.492 459.933L250.769 459.932Z" fill="#DF4601" fill-opacity="0.1" stroke="#DF4601" stroke-width="1.002"/>
<path d="M264.262 457.37L286.405 446.759L362.063 356.8L404.044 268.687L462.171 198.103C462.171 198.103 472.782 177.344 482.47 156.123C493.541 131.211 482.47 112.758 469.091 106.299C458.942 101.224 337.151 44.4812 337.151 44.4812L326.541 8.95892L197.83 48.1718H187.22L36.3656 200.41L127.247 292.214L131.399 344.344L216.283 447.22L238.427 457.831H264.262V457.37Z" fill="#BD3039" fill-opacity="0.1" stroke="#BD3039" stroke-width="1.002"/>
<path d="M248.104 459.138C253.838 459.138 258.453 455.641 261.817 452.93C265.165 450.205 295.305 424.94 295.305 424.94L302.396 428.586L305.75 426.038L302.675 422.2L322.178 406.286C322.178 406.286 324.025 404.942 325.997 401.924C327.964 398.916 379.675 313.376 379.675 313.376L390.067 312.1L467.191 197.782L498.641 166.237L452.856 109.632C451.229 108.011 449.843 107.891 447.871 109.282C443.226 112.554 436.38 114.262 432.153 110.04C427.921 105.804 404.719 82.7838 375.414 53.4788C339.028 17.097 290.752 14.3862 274.343 14.3862C242.553 14.3862 224.288 22.1347 210.221 30.291C201.057 35.6021 91.7199 105.463 85.8807 108.932C81.9225 111.273 76.8321 112.103 74.4669 110.592C72.8595 109.565 70.3455 109.292 68.5654 110.693C66.939 111.969 1.12286 165.21 1.12286 165.21L28.787 192.212L112.849 311.639L125.41 313.064L152.124 353.687L203.964 418.026L200.141 421.125L202.88 424.321L210.624 422.267C210.624 422.267 228.616 445.949 235.333 453.582C235.333 453.582 239.712 459.071 247.952 459.138L248.104 459.138Z" fill="#0E3386" fill-opacity="0.1" stroke="#0E3386" stroke-width="1.002"/>
<path d="M251.655 464.989H253.44L271.873 461.453L283.407 454.938L289.711 449.123L301.005 435.756L299.345 434.307L368.558 353.973L374.196 358.891L461.381 215.014L484.032 192.363L483.936 184.351L377.357 65.3941L358.094 51.7108L337.526 41.1364L315.403 32.8026L293.401 21.1487H209.885L187.887 32.8026L165.769 41.1364L145.192 51.7108L125.933 65.3941L64.6795 122.478L22.9385 188.612L22.9099 196.015L41.9043 215.014L129.085 358.852L134.732 353.973L203.945 434.307L202.266 435.742L213.575 449.123L219.884 454.938L231.408 461.453L249.846 464.989H251.655Z" fill="#27251F" fill-opacity="0.1" stroke="#27251F" stroke-width="1.002"/>
<path d="M250.829 459.832H258.216L271.381 457.764L282.114 453.139L293.207 446.427L303.565 437.892C303.565 437.892 334.871 398.151 358.088 359.75C381.318 321.348 401.618 270.328 401.618 270.328C401.618 270.328 466.326 205.802 469.248 202.516C472.179 199.22 479.362 190.262 471.33 178.373C382.624 47.3356 250.833 15.2526 250.833 15.2526L153.044 45.9778L28.622 164.009C28.622 164.009 22.7972 184.414 21.9097 188.756C21.0271 193.117 23.7569 196.451 24.5917 197.286C25.4313 198.131 110.381 283.066 110.381 283.066L133.42 347.069L197.538 437.892L207.906 446.427L218.999 453.139L229.727 457.764L242.892 459.832H250.829Z" fill="#C6011F" fill-opacity="0.1" stroke="#C6011F" stroke-width="1.002"/>
<path d="M249.103 463.621H249.113H254.827L265.905 461.342L276.72 456.583L285.893 450.878L294.798 441.532L311.13 416.67L308.971 415.24L312.142 410.404L313.706 411.402L334.816 379.578L333.094 378.455L336.289 373.581L335.147 372.842L347.492 354.02L350.788 356.208L430.82 235.596L470.806 195.611L394.357 80.4828L226.256 14.2442L65.6639 121.854L28.2844 196.489L67.3961 235.596L147.428 356.208L150.724 354.02L163.069 372.842L161.923 373.581L165.118 378.455L163.4 379.578L184.51 411.402L186.075 410.404L189.251 415.24L187.087 416.67L203.419 441.532L212.324 450.878L221.497 456.583L232.311 461.342L243.389 463.621H249.103Z" fill="#0C2340" fill-opacity="0.1" stroke="#0C2340" stroke-width="1.002"/>
<path d="M250.711 453.411C267.634 453.411 276.697 446.862 285.884 436.724L289.574 439.824L353.821 363.457L356.11 365.371L399.597 312.73L442.163 238.575L442.125 228.749L490.861 179.974L488.712 153.989L302.077 3.80359L143.86 18.3457L9.07953 178.664L45.0198 214.845L100.938 312.854L145.275 365.371L147.573 363.457L211.821 439.824L215.52 436.724C224.693 446.862 233.756 453.411 250.683 453.411H250.711Z" fill="#33006F" fill-opacity="0.1" stroke="#33006F" stroke-width="1.002"/>
<path d="M250.614 461.911H255.433L262.846 460.303L270.143 457.703L275.948 454.863L285.966 449.182L357.382 374.912L425.233 276.072V243.884L469.852 199.254V176.311L383.578 90.0371L379.044 66.7533L324.584 12.255H185.726L20.5995 177.568L20.5755 190.978L49.7606 220.173V228.943L141.173 374.259L214.484 449.182L224.492 454.863L230.307 457.703L237.595 460.303L245.017 461.911H250.614Z" fill="#FA4616" fill-opacity="0.1" stroke="#FA4616" stroke-width="1.002"/>
<path d="M250.828 453.475L261.594 452.194L272.01 448.869L279.855 444.076L288.779 436.673L396.816 305.588C396.816 305.588 419.529 277.789 421.803 245.682L468.922 198.573L381.386 85.9392H372.985L333.643 38.6616L331.925 39.9714L327.823 34.9913C320.209 25.151 304.391 3.10026 271.641 2.06875C248.492 1.33948 231.023 15.6657 226.906 18.7651C225.476 19.8398 185.496 51.7597 185.496 51.7597L184.1 49.9605L167.888 62.6699L169.265 64.4403L164.122 68.3697L162.793 66.5897L146.577 79.2415L147.91 80.9783L142.791 84.8933L141.472 83.1565L124.838 96.0338L126.219 97.8618L133.215 121.673L101.396 144.938L40.7896 205.894L107.714 272.814L104.759 305.588L213.463 436.673L221.71 444.076L229.569 448.869L239.884 452.194L250.761 453.475H250.828Z" fill="#F4911E" fill-opacity="0.1" stroke="#F4911E" stroke-width="1.002"/>
<path d="M252.521 450.65C284.046 450.65 297.758 435.84 298.799 434.661C298.842 434.612 298.863 434.587 298.863 434.587H302.941C346.439 382.771 379.99 326.118 379.99 326.118L387.786 330.877C387.786 330.877 445.974 246.263 466.739 211.465C484.092 182.39 481.468 163.237 467.185 138.773C463.75 132.877 390.075 12.4325 252.401 11.8568H252.521C114.844 12.4325 41.1683 132.877 37.7284 138.773C23.4597 163.237 20.3314 182.39 37.6851 211.465L116.763 330.868L124.554 326.099C124.554 326.099 158.379 382.771 201.876 434.587H205.954C205.954 434.587 205.979 434.617 206.029 434.673C207.15 435.938 220.866 450.65 252.291 450.65H252.521Z" fill="#BD9B60" fill-opacity="0.1" stroke="#BD9B60" stroke-width="1.002"/>
<path d="M251.95 464.137C275.21 464.137 290.62 449.768 301.982 433.441L317.263 411.894L314.523 409.543L351.874 355.99L353.702 357.04L391.187 301.655L395.366 304.788C395.366 304.788 460.958 210.017 475.063 189.904C489.164 169.797 479.726 136.428 452.311 121.54L273.372 12.8936L104.47 61.5626C104.47 61.5626 46.8365 114.773 34.1678 127.187C21.5039 139.597 14.3098 169.374 28.42 189.487C42.5256 209.594 108.534 304.788 108.534 304.788L112.718 301.655L150.198 357.04L152.021 355.99L189.382 409.543L186.637 411.894C186.637 411.894 190.562 417.123 201.918 433.441C213.289 449.768 228.71 464.137 251.95 464.137Z" fill="#862633" fill-opacity="0.1" stroke="#862633" stroke-width="1.002"/>
<path d="M250.548 464.734C267.791 464.734 293.071 459.073 307.292 433.011L397.558 277.14L480.733 194.397C493.303 156.063 478.933 129.248 466.771 116.078C454.268 102.533 345.094 15.3428 250.812 15.3428H250.798C156.521 15.3428 47.3514 102.533 34.8292 116.078C22.6812 129.248 8.30683 156.063 20.8771 194.397L103.543 277.14L193.805 433.011C207.928 458.895 232.955 464.656 250.193 464.734L250.548 464.734Z" fill="#005A9C" fill-opacity="0.1" stroke="#005A9C" stroke-width="1.002"/>
<path d="M250.578 456.642H250.607H256.882L265.413 454.881L273.866 451.916L281.092 446.921L285.654 442.023L486.745 189.053L397.016 64.0705C352.08 -1.00216 244.657 1.54544 204.375 2.36105C216.576 25.4721 176.682 36.5598 172.618 37.6106C100.181 56.2021 51.3821 97.6503 11.4836 182.855L215.535 442.023L220.078 446.921L227.313 451.916L235.762 454.881L244.288 456.642H250.578Z" fill="#0077C8" fill-opacity="0.1" stroke="#0077C8" stroke-width="1.002"/>
<path d="M250.535 469.09C271.67 469.09 285.785 457.417 288.932 453.919C292.084 450.422 309.27 427.949 309.27 427.949L305.432 424.916L358.016 358.04L361.792 360.971L371.848 348.295L403.835 271.391L403.888 268.009L495.459 176.543L417.72 109.715L421.275 99.2076L388.247 70.8525L317.916 28.0177L310.585 18.7627H190.678L176.663 38.2562L73.3714 95.3597L19.4681 143.722L9.50293 180.401L67.8875 238.713L71.1596 251.082L121.69 338.849L136.942 358.001L140.718 355.065L193.302 421.947L189.459 424.984C189.459 424.984 208.991 450.422 212.143 453.919C215.274 457.393 229.226 468.933 250.111 469.088L250.535 469.09Z" fill="#0A2351" fill-opacity="0.1" stroke="#0A2351" stroke-width="1.002"/>
<path d="M251.121 455.63C269.89 455.63 281.174 443.448 286.001 438.612L371.843 352.784L394.066 319.343L415.498 257.077L486.376 185.983L404.084 84.1354L299.77 12.5617L207.273 5.56647L111.97 60.6117L9.64185 178.551L58.5268 227.432L79.3348 289.103L103.564 325.547C103.564 325.547 211.606 433.584 216.48 438.463C221.354 443.332 232.449 455.579 251.005 455.63L251.121 455.63Z" fill="#002B5C" fill-opacity="0.1" stroke="#002B5C" stroke-width="1.002"/>
<path d="M250.791 454.767H250.868L275.044 452.267L300.833 440.632L322.96 422.828L385.02 333.847L404.873 262.451L479.988 187.317L461.118 159.936L459.17 138.927L417.06 79.933L382.952 72.7266L279.669 5.47101H224.667L138.801 65.1413L44.3513 121.017L13.8566 179.43L96.8633 262.451L115.8 333.847L178.705 422.828L200.827 440.632L226.615 452.267L250.791 454.767Z" fill="#FF5910" fill-opacity="0.1" stroke="#FF5910" stroke-width="1.002"/>
<path d="M252.55 460.519H256.244L262.539 459.804L273.703 456.739L281.437 452.512L290.078 444.869L357.027 360.638L360.313 363.268L382.657 335.018L408.977 283.998L406.003 282.525L420.521 254.209L472.812 201.932L471.431 187.572L467.362 177.137L459.561 166.212L342.163 47.2983L305.93 22.5176L283.736 15.4457L253.135 9.67865L225.054 9.8034L195.662 14.4813L170.258 22.1002L132.993 43.983L48.7965 129.48L40.5201 144.862L35.0268 161.424L31.0638 182.208L31.4284 199.758L86.1089 254.362L99.1638 281.81L96.1939 283.159L121.483 333.996L144.561 363.292L147.847 360.638L214.806 444.869L223.442 452.512L231.18 456.739L242.335 459.804L248.635 460.519H252.324H252.55Z" fill="#E4002C" fill-opacity="0.1" stroke="#E4002C" stroke-width="1.002"/>
<path d="M253.439 460.56H269.997L299.7 456.678L308.772 438.706L324.389 431.711L344.06 422.628L361.663 411.09L373.485 401.532L369.791 396.284L379.449 388.818L377.722 386.319L394.768 368.619L410.188 349.788L421.579 330.299L428.348 334.272L439.518 309.496L446.599 284.24L448.969 259.081L448.312 244.879L489.813 187.497L449.415 101.669L386.473 74.5952L327.316 32.2929L285.983 13.8453H253.439H220.905L179.558 32.2929L121.423 74.5952L57.0121 102.211L16.6146 188.039L58.5714 244.879L57.914 259.081L60.2795 284.24L67.3755 309.496L78.5302 334.272L85.3 330.299L96.6997 349.788L112.115 368.619L129.152 386.319L127.43 388.818L137.088 396.284L133.408 401.532L145.23 411.09L162.823 422.628L182.494 431.711L198.097 438.706L207.183 456.678L236.887 460.56H253.439Z" fill="#003831" fill-opacity="0.1" stroke="#003831" stroke-width="1.002"/>
<path d="M250.885 454.481H272.566L374.894 352.158L378.247 355.516L390.76 343.009L419.01 275.153V251.706L485.023 185.698L485.099 178.962L325.059 19.8665L204.164 4.37439L173.88 34.6534H150.136L20.0142 164.765V189.426L82.2993 251.706V275.153L110.544 343.009L116.436 348.9L119.799 345.542L228.738 454.481H250.885Z" fill="#E81828" fill-opacity="0.1" stroke="#E81828" stroke-width="1.002"/>
<path d="M250.796 460.274H250.805L257.873 459.713L264.949 457.386L272.573 453.48L280.393 447.617L289.418 439.063L404.585 303.688L431.98 236.01L480.5 187.495L389.179 60.1128L318.526 24.7481L251.036 10.3307L152.551 26.0579L141.756 12.8447L25.3323 106.58L19.0472 186.938L72.4515 240.328L69.4675 272.987L212.183 439.063L221.213 447.617L229.028 453.48L236.657 457.386L243.724 459.713L250.796 460.274Z" fill="#FDB827" fill-opacity="0.1" stroke="#FDB827" stroke-width="1.002"/>
<path d="M251.431 456.428H257.035L269.83 452.479L282.151 445.292L296.904 429.349L300.772 432.943L344.168 389.028L341.395 386.442L353.087 369.228L358.849 363.619L405.853 279.163L484.101 200.897V178.51L472.49 168.881V131.89L369.15 28.7465L341.241 13.9549L300.162 6.29279H229.826L223.066 13.0433H175.122L125.354 37.6752L12.4184 146.432L7.28003 165.47V181.749L87.7391 262.208V280.046L145.231 367.112L151.262 373.138L162.715 389.489L160.047 392.238L197.297 428.591L200.939 424.858L222.908 446.213L237.632 453.679L247.127 456.428H251.431Z" fill="#002D62" fill-opacity="0.1" stroke="#002D62" stroke-width="1.002"/>
<path d="M250.695 453.283L260.636 452.347L270.951 449.536L284.846 438.271L288.204 434.586L290.474 436.582L358.415 357.615L355.023 354.578L393.051 311.34L399.504 317.078L419.583 293.78L428.583 245.739L456.42 217.821L466.846 214.525C465.325 210.13 466.976 205.884 466.976 205.884L469.921 204.694L429.389 99.0079L414.833 92.1902L385.288 15.3965H186.515L24.0897 147.154L10.718 181.002L45.416 215.719L102.922 316.181L108.387 311.34L146.396 354.578L143.013 357.615L210.95 436.582L213.219 434.586L216.587 438.271L230.467 449.536L240.792 452.347L250.695 453.283Z" fill="#FD5A1E" fill-opacity="0.1" stroke="#FD5A1E" stroke-width="1.002"/>
<path d="M252.707 466.185C277.684 466.185 293.503 448.601 299.481 441.913C305.468 435.234 358.105 374.393 358.105 374.393L359.871 375.938L388.23 344.493L435.24 249.309V241.801L473.07 203.975L494.277 197.407L378.606 50.6849L243.068 9.90839L152.543 42.2072L111.277 68.6959L19.9508 174.137V191.597L70.155 241.815V249.314L117.169 344.512L145.524 375.943L147.294 374.407C147.294 374.407 199.931 435.249 205.914 441.927C211.892 448.606 227.72 466.194 252.688 466.194L252.707 466.185Z" fill="#005C5C" fill-opacity="0.1" stroke="#005C5C" stroke-width="1.002"/>
<path d="M251.123 462.814H259.749L269.964 460.598L291.928 449.721L319.914 421.577L318.743 420.406L329.461 405.716L378.356 356.706L380.078 358.424L391.43 347.038L452.674 234.928L449.373 220.084L491.152 178.146L486.83 146.216L378.087 37.5269L284.914 6.40826H216.372L123.952 38.0402L6.82812 155.707L13.262 180.991L79.5388 247.493L103.288 339.846L121.783 358.424L123.506 356.706L172.396 405.716L183.124 420.406L181.934 421.577L209.929 449.721L231.913 460.598L242.103 462.814H251.123Z" fill="#C41E3A" fill-opacity="0.1" stroke="#C41E3A" stroke-width="1.002"/>
<path d="M250.592 462.742H255.255L264.323 461.509L271.923 458.578L281.495 453.665L290.62 445.274L298.656 436.743H307.964L368.172 376.55L366.416 374.789L367.764 358.064L419.293 307.034L440.633 270.979C440.633 270.979 457.665 253.937 462.449 249.149C467.227 244.375 470.912 236.526 471.277 226.35C471.997 219.876 470.614 211.206 467.103 205.873L478.142 184.129L474.961 164.448L331.641 21.1185L315.621 13.3989L178.02 5.87109L167.978 25.1103L159.141 29.4139L24.9126 163.685L38.6583 248.751L61.0256 271.233L82.6111 307.274L133.367 357.546L134.96 374.587L132.998 376.55L193.2 436.743H202.518L210.55 445.269L219.684 453.665L229.242 458.578L236.851 461.509L245.924 462.742H250.592Z" fill="#8FBCE6" fill-opacity="0.1" stroke="#8FBCE6" stroke-width="1.002"/>
<path d="M255.194 462.839L263.522 461.74L274.749 457.863L287.156 447.064L301.766 430.847L311.827 417.792L313.923 419.351L354.58 367.655L352.412 366.024L366.8 347.197L377.542 321.822L382.287 323.467L403.71 273.671L480.59 196.791V152.041L393.068 64.6062H381.784L332.798 15.5582H204.351L128.627 45.8612L30.5457 141.17L18.0859 188.27L18.1913 188.817L80.0925 250.713L82.1796 260.578L112.526 312.509L117.405 309.937L136.452 341.018L154.363 364.997L152.252 366.537L191.335 419.323L193.412 417.768L203.473 430.847L218.078 446.958L230.49 457.758L241.712 461.74L250.036 462.839H255.194Z" fill="#003278" fill-opacity="0.1" stroke="#003278" stroke-width="1.002"/>
<path d="M250.888 455.009L258.949 454.745L276.734 451.9L291.895 446.028L295.354 454.913L320.812 437.862L335.517 423.699L346.888 396.059L343.807 393.588L384.335 342.63L387.386 345.048L395.926 333.558L412.354 303.754L429.055 270.831L443.333 239.751L450.707 216.52L486.95 175.633L486.984 175.71L404.557 62.2991L337.393 20.1023C337.393 20.1023 311.01 4.81171 250.931 4.81171H250.682H251.008H250.773C190.681 4.81171 164.293 20.1023 164.293 20.1023L97.1377 62.2991L14.7017 175.71L51.0739 216.52L58.4433 239.751L72.7264 270.831L89.4228 303.754L105.85 333.558L114.395 345.048L117.442 342.63L157.969 393.588L154.889 396.059L166.26 423.699L180.965 437.862L206.427 454.913L209.881 446.028L225.042 451.9L242.823 454.745L250.888 455.009Z" fill="#134A8E" fill-opacity="0.1" stroke="#134A8E" stroke-width="1.002"/>
<path d="M250.89 455.424C262.832 455.424 281.999 449.01 294.44 433.446L291.863 430.845L291.844 430.84L352.853 369.827L357.699 374.663L384.716 347.642L428.894 266.573V246.902L494.585 181.22L436.805 74.7662L236.66 1.16785L162.126 37.8135L159.42 37.8375L153.543 34.5174L69.9935 80.5236L71.1693 82.649L59.995 88.7326L6.13 180.203L66.1026 240.185V254.257L117.007 347.642L144.029 374.663L148.865 369.827L209.888 430.845L207.316 433.446C219.757 449.01 238.92 455.424 250.862 455.424H250.89Z" fill="#AB0003" fill-opacity="0.1" stroke="#AB0003" stroke-width="1.002"/>
<path d="M339.98 327.765C339.453 325.666 322.032 258.478 250.83 258.478C180.238 258.478 162.505 324.537 161.697 327.698C161.677 327.776 161.668 327.816 161.668 327.816L236.504 402.652C235.305 404.911 234.623 407.488 234.623 410.237C234.623 419.185 241.873 426.444 250.83 426.444C259.778 426.444 267.037 419.185 267.037 410.237C267.037 407.488 266.356 404.911 265.157 402.657L260.695 397.374C257.96 395.277 254.544 394.025 250.83 394.025C247.117 394.025 243.701 395.277 240.971 397.369L197.7 354.099C201.448 350.352 201.448 344.276 197.7 340.529C197.698 340.526 197.694 340.524 197.691 340.521L244.055 294.037C247.8 297.773 253.861 297.773 257.606 294.037L303.431 339.983C303.431 339.983 303.427 339.985 303.424 339.988C299.677 343.735 300.275 350.299 304.022 354.046L260.695 397.374L265.157 402.657L339.98 327.765Z" fill="#D2D2D2"/>
<path d="M259.91 345.706C259.91 350.72 255.845 354.786 250.83 354.786C245.815 354.786 241.75 350.72 241.75 345.706C241.75 340.691 245.815 336.625 250.83 336.625C255.845 336.625 259.91 340.691 259.91 345.706Z" fill="#D2D2D2"/>
</g>
<defs>
<clipPath id="clip0_39_755">
<rect width="500" height="469.94" fill="white"/>
</clipPath>
</defs>
</svg>
