<svg width="22" height="18" viewBox="0 0 22 18" fill="none" xmlns="http://www.w3.org/2000/svg">
<path d="M9.63189 9.85367C7.48189 10.7337 7.02189 8.86367 7.34189 8.60367C7.46189 8.48367 7.58189 8.50367 7.66189 8.62367C7.74189 8.68367 7.89189 8.79367 8.00189 8.74367C10.6419 7.91367 12.8019 2.57367 11.5419 1.99367C10.8719 1.75367 8.63189 1.84367 5.03189 6.82367C1.13189 12.1537 2.03189 16.1337 4.54189 16.1737C7.07189 16.1337 8.55189 12.8437 8.16189 12.5237C8.02189 12.4037 7.90189 11.8437 8.40189 11.9737C9.64189 12.3737 9.80189 14.0837 7.99189 15.9837C4.54189 19.5337 -1.97811 14.9137 2.13189 7.76367C6.66189 -0.166329 11.4619 0.95367 11.4619 0.96367C15.7219 2.56367 11.7419 9.02367 9.64189 9.87367L9.63189 9.85367Z" fill="black"/>
<path d="M19.8273 13.7049C21.7219 14.6196 21.2254 16.9193 20.7942 16.9585C20.4937 16.9846 20.5459 16.6188 20.4414 16.462C20.4414 16.462 19.1478 14.3974 13.0718 16.6057C9.11259 18.043 8.74672 16.5796 8.66832 16.0961C8.60299 15.678 8.86432 15.7041 8.86432 15.7041C8.95579 15.7041 8.95578 15.8478 9.11259 15.9524C9.56992 16.3836 10.1841 16.2921 10.8635 16.0308C10.5107 15.7825 9.97499 15.2729 9.97499 14.1884C9.97499 11.5097 16.3646 5.60358 16.3646 3.82651C16.3646 2.79424 14.3001 0.729709 10.563 5.00251C8.34165 7.57664 8.57685 9.61504 9.25632 9.61504C9.51765 9.61504 9.40005 9.85024 9.29552 9.96784C9.09952 10.1508 6.65605 10.4513 6.65605 7.95558C6.65605 5.90411 11.2817 1.10864 14.8358 1.10864C16.3123 1.10864 17.8542 2.46758 17.6843 4.50598C17.5014 6.80571 12.3401 12.8164 12.3401 14.7633C12.3401 14.9985 12.3531 15.2206 12.4185 15.4036C12.523 15.3644 12.6406 15.3121 12.7321 15.286C16.1555 14.0054 18.8995 13.2606 19.8273 13.7049Z" fill="black"/>
</svg>
