<svg width="64" height="64" viewBox="0 0 64 64" fill="none" xmlns="http://www.w3.org/2000/svg">
<rect width="64" height="64" fill="white"/>
<path fill-rule="evenodd" clip-rule="evenodd" d="M48 8C50.7614 8 53 10.2386 53 13V35C53 37.7614 50.7614 40 48 40H16C13.2386 40 11 37.7614 11 35V13C11 10.2386 13.2386 8 16 8H48ZM17 30C14.7909 30 13 31.7909 13 34C13 36.2091 14.7909 38 17 38C19.2091 38 21 36.2091 21 34C21 31.7909 19.2091 30 17 30ZM27 30C24.7909 30 23 31.7909 23 34C23 36.2091 24.7909 38 27 38C29.2091 38 31 36.2091 31 34C31 31.7909 29.2091 30 27 30ZM37 30C34.7909 30 33 31.7909 33 34C33 36.2091 34.7909 38 37 38C39.2091 38 41 36.2091 41 34C41 31.7909 39.2091 30 37 30ZM47 30C44.7909 30 43 31.7909 43 34C43 36.2091 44.7909 38 47 38C49.2091 38 51 36.2091 51 34C51 31.7909 49.2091 30 47 30ZM17 20C14.7909 20 13 21.7909 13 24C13 26.2091 14.7909 28 17 28C19.2091 28 21 26.2091 21 24C21 21.7909 19.2091 20 17 20ZM27 20C24.7909 20 23 21.7909 23 24C23 26.2091 24.7909 28 27 28C29.2091 28 31 26.2091 31 24C31 21.7909 29.2091 20 27 20ZM37 20C34.7909 20 33 21.7909 33 24C33 26.2091 34.7909 28 37 28C39.2091 28 41 26.2091 41 24C41 21.7909 39.2091 20 37 20ZM47 20C44.7909 20 43 21.7909 43 24C43 26.2091 44.7909 28 47 28C49.2091 28 51 26.2091 51 24C51 21.7909 49.2091 20 47 20ZM17 10C14.7909 10 13 11.7909 13 14C13 16.2091 14.7909 18 17 18C19.2091 18 21 16.2091 21 14C21 11.7909 19.2091 10 17 10ZM27 10C24.7909 10 23 11.7909 23 14C23 16.2091 24.7909 18 27 18C29.2091 18 31 16.2091 31 14C31 11.7909 29.2091 10 27 10ZM37 10C34.7909 10 33 11.7909 33 14C33 16.2091 34.7909 18 37 18C39.2091 18 41 16.2091 41 14C41 11.7909 39.2091 10 37 10ZM47 10C44.7909 10 43 11.7909 43 14C43 16.2091 44.7909 18 47 18C49.2091 18 51 16.2091 51 14C51 11.7909 49.2091 10 47 10Z" fill="black"/>
<path d="M44 42C44.5523 42 45 42.4477 45 43C45 43.5523 44.5523 44 44 44H20C19.4477 44 19 43.5523 19 43C19 42.4477 19.4477 42 20 42H44Z" fill="black"/>
<path d="M30 44H33V50H30V44Z" fill="black"/>
<path d="M28 52C28 50.8954 28.8954 50 30 50H33C34.1046 50 35 50.8954 35 52V57C35 58.1046 34.1046 59 33 59H30C28.8954 59 28 58.1046 28 57V52Z" fill="black"/>
</svg>
