<svg xmlns="http://www.w3.org/2000/svg" height="245.05" viewBox="0 0 250 245.04733" width="250"><g transform="matrix(1.25 0 0 -1.25 -235.55 700.64)"><g><path d="m125.07 1.1152c-4.78-0.0029-9.57 0.0813-14.34 0.25v35.408c4.81-0.17 9.63-0.252 14.44-0.25v-4.412c-3.1-0.003-6.2 0.032-9.3 0.102v-11.291c2.8-0.063 5.61-0.098 8.42-0.102v-4.465c-2.81 0.004-5.62 0.039-8.42 0.102v-10.826c3.06-0.0693 6.13-0.1027 9.2-0.1017v-4.4141zm8.78 0.0996c-1.96 11.759-3.92 23.534-5.88 35.32 1.62 0.013 3.23 0.034 4.84 0.067 0.43-3.053 0.86-6.105 1.3-9.157 2.19 0.05 4.39 0.118 6.59 0.205 0.45 3.08 0.9 6.161 1.35 9.241 1.68 0.072 3.36 0.155 5.04 0.248-1.96-11.911-3.91-23.809-5.87-35.692-2.46-0.1004-4.92-0.1779-7.37-0.2322zm-29.14 0.4082c-1.72 0.0859-3.43 0.1834-5.142 0.2911v15.498c-2.282 0.144-4.564 0.309-6.845 0.492v-15.498c-1.711 0.1384-3.419 0.2857-5.129 0.4456v35.408c1.709-0.159 3.418-0.308 5.129-0.446v-14.933c2.281-0.183 4.563-0.347 6.845-0.492v14.933c1.712-0.108 3.422-0.204 5.142-0.291v-35.408zm49.38 0.5567c-1.35 1.2533-2.7 2.5122-4.05 3.7793v12.264c1.16 1.218 2.32 2.443 3.48 3.672 2.25 0.16 4.49 0.34 6.74 0.539 0.45 0.484 0.9 0.971 1.35 1.457v8.363c-0.59 0.528-1.18 1.057-1.77 1.588-1.03-0.091-2.07-0.177-3.11-0.26-0.57-0.628-1.14-1.252-1.7-1.877v-4.004c-1.72-0.129-3.43-0.248-5.14-0.353v5.902c1.35 1.435 2.7 2.877 4.05 4.326 2.9 0.21 5.8 0.454 8.7 0.729 1.36-1.223 2.73-2.439 4.09-3.647v-12.574c-1.17-1.286-2.35-2.567-3.52-3.842-2.23-0.214-4.45-0.409-6.68-0.586-0.45-0.48-0.9-0.959-1.35-1.437v-8.0061c0.57-0.5388 1.14-1.0755 1.71-1.6113 0.95 0.0759 1.9 0.1554 2.85 0.2382 0.59 0.6326 1.17 1.2669 1.76 1.9024v4.0018c1.71 0.157 3.42 0.324 5.13 0.502v-5.9003c-1.37-1.493-2.73-2.9807-4.09-4.4609-2.82-0.2645-5.63-0.4989-8.45-0.7051zm-70.43 1.0586c-5.795 0.599-11.583 1.3241-17.355 2.1758v4.5156c2.043-0.302 4.091-0.587 6.138-0.8574v30.893c1.704-0.225 3.408-0.439 5.114-0.641v-30.892c2.033-0.2421 4.068-0.4679 6.103-0.6781v-4.5156zm86.07 0.3906v4.5156c2.05 0.23 4.1 0.4788 6.15 0.7403v30.892c1.7 0.218 3.41 0.448 5.11 0.688v-30.893c2.03 0.2874 4.05 0.589 6.08 0.907v-4.5161c-5.77-0.9049-11.55-1.6827-17.34-2.334zm-32.3 0.9668c0.88 6.2373 1.77 12.477 2.65 18.72-1.78-0.068-3.57-0.124-5.35-0.168 0.9-6.186 1.8-12.37 2.7-18.552zm-78.588 1.9922c-4.354 0.7263-8.697 1.5241-13.031 2.3945v35.409c1.689-0.339 3.38-0.667 5.072-0.985v-15.037c1.23-0.23 2.462-0.457 3.695-0.676 1.146 4.808 2.293 9.621 3.442 14.44 1.713-0.29 3.428-0.567 5.144-0.834-1.235-5.025-2.471-10.044-3.705-15.057 1.149-1.336 2.298-2.669 3.447-3.994v-12.264c-1.355-1.1394-2.71-2.2711-4.064-3.3961zm132.14 0.0078v35.408c4.76 0.795 9.52 1.677 14.26 2.646v-4.412c-3.05-0.624-6.11-1.212-9.18-1.763v-11.291c2.78 0.5 5.54 1.029 8.31 1.587v-4.464c-2.77-0.559-5.53-1.089-8.31-1.588v-10.826c3.03 0.545 6.06 1.126 9.07 1.742v-4.4143c-4.7-0.9612-9.42-1.8355-14.15-2.625zm19.06 3.6583v35.41c1.69 0.365 3.37 0.742 5.05 1.131v-15.037c1.22 0.282 2.45 0.57 3.67 0.863 1.13 5.285 2.27 10.576 3.4 15.871 1.7 0.424 3.39 0.858 5.07 1.303-1.21-5.537-2.43-11.071-3.65-16.596 1.14-0.858 2.27-1.712 3.4-2.56v-12.264c-1.33-1.703-2.67-3.397-4.01-5.086-4.29-1.083-8.61-2.096-12.93-3.035zm-173.94 0.805c-2.94 0.666-5.874 1.367-8.802 2.101-1.336 1.685-2.674 3.382-4.008 5.082v27.301c1.335 1.002 2.672 2.01 4.008 3.025 2.928-0.734 5.863-1.434 8.802-2.101 1.343-1.655 2.685-3.303 4.03-4.946v-27.3c-1.345-1.059-2.687-2.115-4.03-3.162zm19.961 0.054c0.583 0.481 1.164 0.962 1.746 1.446v8.775c-0.583 0.68-1.164 1.361-1.746 2.043-1.729 0.302-3.456 0.615-5.183 0.939v-12.263c1.727-0.325 3.454-0.639 5.183-0.94zm159.02 4.326c1.72 0.396 3.43 0.803 5.14 1.221 0.58 0.723 1.15 1.447 1.73 2.172v8.775c-0.58 0.441-1.15 0.879-1.73 1.319-1.71-0.419-3.43-0.825-5.14-1.221v-12.266zm-197.41 0.26c-1.484 0.412-2.963 0.831-4.44 1.26v23.605c-2.739-7.074-5.4705-14.118-8.197-21.134-1.3875 0.434-2.7737 0.874-4.1582 1.324l-0.00003 35.41c1.4674-0.477 2.9368-0.946 4.4082-1.406v-23.863c2.7256 7.105 5.459 14.237 8.197 21.4 1.396-0.404 2.791-0.797 4.19-1.186v-35.41zm214.41 0.002v35.408c1.48 0.412 2.96 0.83 4.44 1.258v-23.861c2.74 8.747 5.47 17.526 8.2 26.332 1.38 0.434 2.77 0.874 4.15 1.324v-35.406c-1.46-0.477-2.93-0.947-4.41-1.406v23.605c-2.72-8.718-5.45-17.409-8.19-26.068-1.4-0.404-2.79-0.797-4.19-1.186zm-198.69 0.188c0.56 0.451 1.121 0.902 1.682 1.355v23.504c-0.561 0.711-1.122 1.422-1.682 2.135-1.138 0.267-2.273 0.536-3.408 0.812-0.559-0.445-1.119-0.889-1.678-1.332v-23.504c0.559-0.719 1.119-1.437 1.678-2.156 1.135-0.276 2.27-0.549 3.408-0.814zm65.325 31.48c-6.046 18.36-11.145 27.581-12.329 29.338-5.789 8.597-7.169 12.833-9.183 26.483-5.135 3.41-8.642 7.51-11.307 11.85-5.189 8.46-9.831 19.91-16.572 29.31 1.738 15.22-1.994 22.42-2.647 37.18 6.995 23.76 23.405 38.97 52.768 58.76-0.685-5.11-0.581-9.53-0.486-12.37 6.597 6.58 15.817 11.78 24.567 16.24 5.69-2.38 13.29-6.4 19.61-12.97 0.09 1.54-0.04 5.52-0.47 8.15 7.97-6.36 16.21-18.77 20.21-31.16 1.93-5.97 2.22-10.41 0.16-18.66-0.14-0.59 2.34-3.73 2.26-7.56-0.04-2.05-1.01-4.16-1.01-4.16 9.48-3.21 12.97-4.47 19.46-12.66 0.27-0.34 2.94 0.16 3.94-0.68 3.36-2.8 6.85-7.8 8.38-11.82 0.87-2.29 1.19-4.89 1.28-7.66 2.62-2.84 5.06-6.05 5.29-12.69-2.13-2.47-6.92-4.17-15.1-7.14-4.66-1.69-11.82-4.48-14.06-5.86 1.17-1.76 2.03-4.35 1.96-5.73-0.1-1.9-2.07-5.03-3.31-7.56-1.09-3.89-1.84-6.568-2.9-8.143-1.48-2.178-3.11-3.024-5.85-4.632 3.14-15.259-1.19-18.938-1.73-29.768-7.75-0.599-15.66 10.767-17.66 12.029-2.78 1.758-5.69 4.764-5.69 4.764-7.46-2.958-10.79-3.152-16.08-2.008-3.58-17.545-10.97-27.41-23.501-30.873z" transform="matrix(.8 0 0 -.8 188.44 560.51)"/><path d="m101.68 55.033c-2.939 8.481-11.929 24.95-10.522 43.793-1.134-0.389-2.802-0.916-4.166-1.84 0.107 3.874-0.539 7.624-1.549 9.774-8.304 5.37-12.973 13.91-17.089 23.45 7.911-9.28 15.199-16.68 23.275-18.47 1.066-1.24 2.333-3.05 2.355-5.44 1.75 1.09 4.25 1 5.764 0.2-6.322-17.757-1.468-34.143 3.812-40.836 2.51 5.067 7.84 6.046 9.03 13.246-1.79-1.609-4.77-2.07-6.26-1.504 1.6 3.669 1.86 6.093-1.42 12.465 0.4 1.586 1.31 3.386 2.76 4.621-1.9-0.033-4.02 1.425-4.8 3.248 2.3 0.005 4.14 1.315 4.9 2.71 5.93-4.097 7.55-9.48 7.85-11.731 1.83 0.816 3.28 0.103 3.28 0.103-2.24-20.425-10.8-33.218-17.22-33.789zm56.28 14.916c-4.33 0.148-9.78 7.403-11.61 14.383 2.63 1.299 6.01 3.157 9 4.91-0.72-2.118-1.15-4.236-0.39-6.81-1.04-0.045-2.19 0.423-2.95 1.377-0.7-7.269 1.78-5.744 4.37-8.559 0.17 5.28 2.12 5.609 3.12 14.045 1.94-9.254-1.06-13.448-1.54-19.346zm-18.62 19.254c-6.17-0.074-6.12 5.636-9.61 9.057 1.65 1.129 2.81 3.3 3.1 5.04-7.66-0.9-7.54 4.58-14.76 9.24 1.25 1.38 3.13 2.51 4.95 3.11-1.41 0.73-2.65 1.84-3.47 2.99 6.87 2.5 9.05 7 12.73 8.91 1.43 0.75 5.68 0.96 7.59 0.37-2.98 5.21-10.96 5.87-13.55 4.5-2.58-1.36-5.13-6.77-7.4-8.56-2.33-1.84-9.13-1.9-10.59-0.94-3.06 2.02-5.36 6.92-15.322 10.5 0.384 0.98 1.382 2.42 2.094 3.03-1.95 1.65-6.219 2.36-6.219 2.36 2.194 5.57 7.289 9.98 12.237 14.15-3.795-0.19-8.972-1.31-12.046-3.26 7.002 15.84 15.116 21.16 25.146 25.11-3.21 1.4-7.48 2.01-12.15 1.04-5.019-1.04-11.32-4.55-16.314-9.56-0.837 1.67-1.088 3.61-1.195 5.29-4.139-4.3-6.764-7.8-7.899-15.16-4.182 5.88-5.642 13.16-0.635 21.87 0.61-2.05 1.114-3.2 2.059-4.36 1.542 5.57 5.775 10.63 8.857 13.58 0.293-2.71 0.576-4.51 1.239-6.54 6.088 10.37 16.258 20.1 29.448 30.12-9.32-2.29-19.644-7.26-27.993-13.58-0.409 2.06-0.559 3.82-0.522 6.16-10.78-6.93-18.972-12.21-26.879-22.87 4.504 13.77 7.389 20.39 29.817 38.17-0.102-3.21-0.073-5.42 0.306-8.35 12.391 10.53 24.781 18.12 33.071 21.52 10.55-3.52 19.86-12.34 24.97-19.01 0.31 1.76 0.21 3.83-0.1 5.99 7.68-9.48 9.15-17.89 7.92-21.68-1.19 3.46-3 5.43-5.31 7.91 0.29-2.06 0.39-3.86-0.03-6.11-2.98 4.35-10.8 10.88-16.29 12.01 4.88-8.68 9.55-23.78-2.67-32.73 1.23-2 2.58-3.41 5.33-3.72-3.49-3.97-7.57-5.87-13.37-5.77 2.17-1.8 5.58-3.3 9.77-3.45 5.23-0.19 12 1.56 18.9 6.41 9.64 2.11 21.03-5.14 22.63-7.5 0.23-0.34 0.2-0.64-0.12-0.81-0.59-0.31-1.77-0.54-3.89-0.46-5.42 0.22-9.11 1.39-17.24-0.52-8.51-1.99-13.05-6.88-23.4-7.29 8.99-6.82 15.53 0.7 23.57 2.81 13.18 3.47 25.21-3.09 27.76-3.31 0.79 0.49 1.63 1.55 2.16 2.43 1.83-0.52 3.91-3.72 4.63-5.53 0.44-1.09 0.97-2.55 0.83-3.65-0.86 0.56-2.92 1.24-4.17 1.48-1.57-0.68-3.24-2.07-3.78-3.32-1.82-4.24-5.57-5.31-6.25-7.01-0.58-1.46 1.17-5.43 2.84-7.08 1.42-1.41 4.43-2.15 7.25-2.19-8.58-3.32-15.72-5.59-21.1-9.26-1.64-1.13-2.52-2.12-2.86-4.93 0 0 0.44 0.63 1.81 1.07 1.87 0.59 1.98-1.59 2.99-2.51 0.56 0.41 1.09 1.19 1.33 1.75 0.52-0.68 0.92-1.6 0.92-2.57 0-0.71-0.71-2.43-2.56-5.35-0.93-3.15-1.56-5.4-2.08-6.59-0.27-0.65-0.7-1.987-2.58-2.685-0.89 1.085-0.99 3.175-1.41 9.135-1.99-8.371-4.2-11.249-9.02-15.106 2.02 4.367 2.67 7.456 3.16 14.576-4.79-10.78-11.02-18.3-16.63-18.367zm0.35 17.697c5.68 1.35 8.37 7.62 11.25 8.76 1.19 0.47 3.6 0.58 4.67 0.16 0.05 1.23-0.55 2.29-1.42 3.08 0.36 0.47 1.07 0.87 1.87 1.09 1.47 1.43 1.17 4.95-1.15 8.49-2.12-4.12-5.38-6.83-8.3-7.67-1.04 0.94-4.89 1.96-8.27 1.27-2.84-0.58-7.66-6.87-11.05-7.75 3.46-3.13 8.42-6.52 12.92-4.81-0.01-1.14-0.15-2.01-0.52-2.62zm1.36 7.04c-1.81-0.04-3.03 0.47-4.1 1.35 0.84 1.9 2.62 2.94 3.67 3.26 0.68 0.2 3.19-0.04 4.39-1.25-1.49-1.15-2.48-2.52-3.96-3.36zm53.49 19.68c-2.55-0.08-6.13 1.04-7.58 2.33 1.19 0.62 1.9 1.21 2.7 2.09 2.24-1.15 4.1-1.22 4.58-0.62 0.4 0.49 0.18 2.41-0.4 4.45 1.51-1.41 3.56-4.75 3.24-7.3-0.44-0.63-1.38-0.91-2.54-0.95z" transform="matrix(.8 0 0 -.8 188.44 560.51)" fill="#fff"/></g></g></svg>
