<svg width="39" height="39" viewBox="0 0 39 39" fill="none" xmlns="http://www.w3.org/2000/svg">
<path d="M30.8172 0.453194L38.0683 7.70429L38.5215 8.08195L38.0683 8.53515L25.681 20.9224C24.9257 21.6778 24.0193 22.4331 23.1129 23.0373L14.3511 28.5512C13.4447 29.0799 12.6894 29.7597 11.9341 30.4395L9.13941 33.2342L5.21173 29.3821L8.08195 26.5874C8.76174 25.832 9.44153 25.0767 9.97026 24.1703L15.4841 15.4086C16.0884 14.5022 16.8437 13.5958 17.599 12.8405L29.9863 0.453194L30.4395 0L30.8172 0.453194ZM38.6725 32.4789C38.6725 34.6693 37.464 36.6332 35.6512 37.7661C33.7629 38.8236 31.4214 38.8236 29.6087 37.7661C27.7203 36.6332 26.5874 34.6693 26.5874 32.4789C26.5874 30.364 27.7203 28.4001 29.6087 27.2672C31.4214 26.2097 33.7629 26.2097 35.6512 27.2672C37.464 28.4001 38.6725 30.364 38.6725 32.4789ZM2.49257 28.8533L3.77661 30.1374L8.38408 34.7449L9.66813 36.0289L7.10003 38.597L5.81599 37.3129L1.28405 32.7055L0 31.4214L2.49257 28.8533Z" fill="white"/>
</svg>
