<svg width="39" height="39" viewBox="0 0 39 39" fill="none" xmlns="http://www.w3.org/2000/svg">
<path d="M5.81599 16.7682C5.06066 16.9192 4.38087 16.9192 3.62555 16.9192C2.41703 16.9192 1.28405 16.7682 0.151065 16.5416C1.43511 8.15749 8.08195 1.51065 16.466 0.226597C16.7682 1.35958 16.9192 2.49257 16.9192 3.62555C16.9192 4.38087 16.8437 5.13619 16.6926 5.89152L19.1097 6.26918C19.2607 5.43832 19.3363 4.53194 19.3363 3.62555C19.3363 2.41703 19.1852 1.20852 18.8831 0.0755323C19.0341 0.0755323 19.1852 0 19.3363 0C29.9863 0 38.6725 8.68621 38.6725 19.3363C38.6725 19.4873 38.6725 19.6384 38.597 19.7895C37.464 19.4873 36.2555 19.3363 35.047 19.3363C34.1406 19.3363 33.2342 19.4118 32.4033 19.5629L32.781 21.9799C33.5363 21.8288 34.2917 21.8288 35.047 21.8288C36.18 21.8288 37.3129 21.9799 38.4459 22.2065C37.1619 30.5906 30.515 37.2374 22.131 38.5215C21.9044 37.3885 21.7533 36.2555 21.7533 35.047C21.7533 34.2917 21.7533 33.6119 21.9044 32.8565L19.4873 32.4789C19.4118 33.3097 19.3363 34.2161 19.3363 35.047C19.3363 36.331 19.4118 37.5395 19.7139 38.6725C19.5629 38.6725 19.4118 38.6725 19.3363 38.6725C8.61068 38.6725 0 30.0618 0 19.3363C0 19.2607 0 19.1097 0 18.9586C1.13298 19.2607 2.3415 19.3363 3.62555 19.3363C4.4564 19.3363 5.36279 19.2607 6.19365 19.1852L5.81599 16.7682ZM16.1639 8.08195C14.8043 11.783 11.9341 14.7288 8.23302 16.0884L9.13941 18.3543C13.4447 16.7682 16.8437 13.2937 18.4299 8.91281L16.1639 8.08195ZM30.364 22.6597L29.4576 20.3937C25.1523 21.9799 21.7533 25.4544 20.1671 29.8353L22.5086 30.6661C23.7927 26.965 26.6629 24.0193 30.364 22.6597Z" fill="white"/>
</svg>
