<svg width="12" height="12" viewBox="0 0 12 12" fill="none" xmlns="http://www.w3.org/2000/svg">
<path d="M6 0C7.24219 0 8.25 1.00781 8.25 2.25V3H3.75V2.25C3.75 1.00781 4.75781 0 6 0ZM2.01562 2.48438L3.30469 3.75H8.67188L9.96094 2.48438L10.5 1.94531L11.5547 3L11.0156 3.53906L9.75 4.82812V6H11.25H12V7.5H11.25H9.75C9.75 8.08594 9.60938 8.625 9.39844 9.09375L10.6406 10.3594L11.1797 10.875L10.125 11.9531L9.58594 11.4141L8.48438 10.3125C7.89844 10.8281 7.17188 11.1562 6.375 11.25V5.625V5.25H5.625V5.625V11.25C4.80469 11.1562 4.07812 10.8281 3.49219 10.3125L2.39062 11.4141L1.875 11.9531L0.796875 10.875L1.33594 10.3594L2.60156 9.09375C2.36719 8.625 2.25 8.08594 2.25 7.5H0.75H0V6H0.75H2.25V4.82812L0.960938 3.53906L0.421875 3L1.5 1.94531L2.01562 2.48438Z" fill="white"/>
</svg>
