<svg width="83" height="83" viewBox="0 0 83 83" fill="none" xmlns="http://www.w3.org/2000/svg">
<path d="M45.8656 9.97751L72.2403 36.3522L67.4836 41.1089L72.2403 45.8656L46.7938 71.3121V67.7929H35.424V71.3121L9.97751 45.8656L14.7342 41.1089L9.97751 36.3522L36.3522 9.97751L41.1089 14.7342L45.8656 9.97751ZM74.87 33.7224L82.2178 41.1089L41.1089 82.2178L7.34778 48.4954L0 41.1089L7.34778 33.7224L33.7224 7.34778L41.1089 0L74.87 33.7224ZM73.4778 47.1031L79.472 41.1089L73.4778 35.1147L47.1031 8.73999L41.1089 2.74575L35.1147 8.73999L8.73999 35.1147L2.74575 41.1089L41.1089 79.472L46.7938 73.7872L73.4778 47.1031Z" fill="black"/>
</svg>
