<svg width="83" height="83" viewBox="0 0 83 83" fill="none" xmlns="http://www.w3.org/2000/svg">
<path d="M41.1089 3.9446L78.2732 41.1089L72.8977 46.5231L46.7938 72.627L41.1089 78.2732L3.9446 41.1089L9.32008 35.6947L35.6947 9.32008L41.1089 3.9446ZM72.0856 45.7109L67.4836 41.1089L72.0856 36.5069L45.7109 10.1322L41.1089 14.7342L36.5069 10.1322L10.1322 36.5069L14.7342 41.1089L10.1322 45.7109L35.424 71.0414V67.7929H46.7938V71.0414L72.0856 45.7109ZM74.87 33.7224L82.2178 41.1089L41.1089 82.2178L0 41.1089L33.7224 7.34778L41.1089 0L74.87 33.7224ZM41.1089 79.5881L79.5881 41.1089L41.1089 2.62973L2.62973 41.1089L41.1089 79.5881Z" fill="black"/>
</svg>
