<svg width="9" height="12" viewBox="0 0 9 12" fill="none" xmlns="http://www.w3.org/2000/svg">
<path d="M1.57031 10.0547L1.78125 10.2656L2.83594 11.4844L4.24219 10.2188L4.5 10.0078L4.73438 10.2188L6.14062 11.4844L7.21875 10.2656L7.40625 10.0547L7.66406 10.1719L8.625 10.6641V4.5C8.625 2.22656 6.77344 0.375 4.5 0.375C2.20312 0.375 0.375 2.22656 0.375 4.5V10.6641L1.3125 10.1719L1.57031 10.0547ZM0.375 11.0625L0 11.25V10.8516V4.5C0 2.01562 2.01562 0 4.5 0C6.98438 0 9 2.01562 9 4.5V10.8516V11.25L8.625 11.0625L7.5 10.5L6.42188 11.7188L6.1875 12L5.90625 11.7656L4.5 10.5L3.09375 11.7656L2.8125 12L2.55469 11.7188L1.5 10.5L0.375 11.0625ZM3 3.9375C2.67188 3.9375 2.4375 4.19531 2.4375 4.5C2.4375 4.82812 2.67188 5.0625 3 5.0625C3.30469 5.0625 3.5625 4.82812 3.5625 4.5C3.5625 4.19531 3.30469 3.9375 3 3.9375ZM3.9375 4.5C3.9375 4.85156 3.75 5.15625 3.46875 5.32031C3.16406 5.48438 2.8125 5.48438 2.53125 5.32031C2.22656 5.15625 2.0625 4.85156 2.0625 4.5C2.0625 4.17188 2.22656 3.86719 2.53125 3.70312C2.8125 3.53906 3.16406 3.53906 3.46875 3.70312C3.75 3.86719 3.9375 4.17188 3.9375 4.5ZM5.4375 4.5C5.4375 4.82812 5.67188 5.0625 6 5.0625C6.30469 5.0625 6.5625 4.82812 6.5625 4.5C6.5625 4.19531 6.30469 3.9375 6 3.9375C5.67188 3.9375 5.4375 4.19531 5.4375 4.5ZM6 5.4375C5.64844 5.4375 5.34375 5.27344 5.17969 4.96875C5.01562 4.6875 5.01562 4.33594 5.17969 4.03125C5.34375 3.75 5.64844 3.5625 6 3.5625C6.32812 3.5625 6.63281 3.75 6.79688 4.03125C6.96094 4.33594 6.96094 4.6875 6.79688 4.96875C6.63281 5.27344 6.32812 5.4375 6 5.4375Z" fill="white"/>
</svg>
