<svg width="9" height="12" viewBox="0 0 9 12" fill="none" xmlns="http://www.w3.org/2000/svg">
<path d="M1.125 10.5L0 11.25V4.5C0 2.01562 2.01562 0 4.5 0C6.98438 0 9 2.01562 9 4.5V11.25L7.875 10.5L6.1875 12L4.5 10.5L2.8125 12L1.125 10.5ZM3.75 4.5C3.75 4.10156 3.39844 3.75 3 3.75C2.57812 3.75 2.25 4.10156 2.25 4.5C2.25 4.92188 2.57812 5.25 3 5.25C3.39844 5.25 3.75 4.92188 3.75 4.5ZM6 5.25C6.39844 5.25 6.75 4.92188 6.75 4.5C6.75 4.10156 6.39844 3.75 6 3.75C5.57812 3.75 5.25 4.10156 5.25 4.5C5.25 4.92188 5.57812 5.25 6 5.25Z" fill="white"/>
</svg>
