<svg width="37" height="39" viewBox="0 0 37 39" fill="none" xmlns="http://www.w3.org/2000/svg">
<path d="M14.5777 0V2.41703V9.66813V26.5874H21.8288H24.2459H31.497V19.3363V7.2511V4.83407H36.331V7.2511V25.3788C36.331 32.781 30.364 38.6725 23.0373 38.6725H21.5267C17.0703 38.6725 12.6894 37.0108 9.44153 33.8385L2.19044 26.965L0 24.8501L4.15428 20.4692L6.34471 22.5842L9.74366 25.7565C9.74366 25.681 9.74366 25.5299 9.74366 25.3788V2.41703V0H14.5777ZM16.9948 12.0852H21.8288V24.1703H16.9948V12.0852ZM29.0799 14.5022V24.1703H24.2459V14.5022H29.0799Z" fill="white"/>
</svg>
