<svg width="99" height="81" viewBox="0 0 99 81" fill="none" xmlns="http://www.w3.org/2000/svg">
<path d="M88.2507 57.3127C84.9636 58.1248 80.6322 58.7822 75.9915 59.285V26.6454C75.9915 21.734 75.2181 18.4855 73.4005 15.5077C70.8867 11.4471 65.0472 8.39194 61.76 6.92238C59.9424 6.11026 58.0088 5.37548 56.1912 4.7954C60.0198 5.10478 64.5445 5.72353 68.9145 6.92238C76.5716 8.97203 81.8311 12.2205 84.5381 16.5132C87.0132 20.4964 88.2507 24.2863 88.2507 28.1149V57.3127ZM66.5168 15.8944C66.0527 15.8944 65.666 15.5077 65.666 15.0049C65.666 14.5409 66.0527 14.1541 66.5168 14.1541C66.9808 14.1541 67.3675 14.5409 67.3675 15.0049C67.3675 15.5077 66.9808 15.8944 66.5168 15.8944ZM75.0634 59.401C71.0414 59.7877 66.7875 60.1358 62.7655 60.3678V28.8884C62.7655 23.5902 62.5722 19.8003 61.6053 17.1319C60.4838 14.1155 56.6939 7.81185 52.8653 4.87274C59.401 6.30362 69.3785 10.7896 72.5883 15.9718C74.3286 18.8335 75.0634 21.8887 75.0634 26.6454V59.401ZM66.5168 13.226C65.5499 13.226 64.7378 14.0381 64.7378 15.0049C64.7378 16.0104 65.5499 16.8226 66.5168 16.8226C67.5222 16.8226 68.3344 16.0104 68.3344 15.0049C68.3344 14.0381 67.5222 13.226 66.5168 13.226ZM36.4682 6.92238C33.2197 8.39194 27.3802 11.4471 24.8664 15.5077C23.0488 18.4855 22.2754 21.734 22.2754 26.6454V59.2463C17.2093 58.6662 13.0713 58.0088 10.0162 57.274V28.1149C10.0162 24.2863 11.215 20.4964 13.7287 16.5132C16.4358 12.2205 21.6566 8.97203 29.3524 6.92238C33.7224 5.72353 38.2471 5.10478 42.037 4.7954C40.2581 5.37548 38.3245 6.11026 36.4682 6.92238ZM35.4627 60.3291C31.8275 60.1358 28.1536 59.8264 24.7891 59.517C24.2477 59.4397 23.7449 59.401 23.2035 59.3623V26.6454C23.2035 21.8887 23.9383 18.8335 25.6786 15.9718C28.8497 10.7896 38.8659 6.30362 45.4016 4.87274C41.573 7.81185 37.7831 14.1155 36.6616 17.1319C35.6561 19.8003 35.4627 23.5902 35.4627 28.8884V60.3291ZM31.7501 13.226C30.7447 13.226 29.9325 14.0381 29.9325 15.0049C29.9325 16.0104 30.7447 16.8226 31.7501 16.8226C32.717 16.8226 33.5291 16.0104 33.5291 15.0049C33.5291 14.0381 32.717 13.226 31.7501 13.226ZM31.7501 15.8944C31.2474 15.8944 30.8607 15.5077 30.8607 15.0049C30.8607 14.5409 31.2474 14.1541 31.7501 14.1541C32.2142 14.1541 32.6009 14.5409 32.6009 15.0049C32.6009 15.5077 32.2142 15.8944 31.7501 15.8944ZM6.80637 56.3072C6.57433 56.1912 6.3423 56.1138 6.14893 56.0365C5.9169 55.9205 5.68486 55.8045 5.4915 55.7271V28.1149C5.4915 24.093 6.76769 20.071 9.35875 15.8944C12.2979 11.215 17.8667 7.65716 25.8719 5.25946C32.2529 3.40318 38.9046 2.6684 44.3961 2.3977C44.6668 0.966816 46.5617 0 49.1141 0C51.7052 0 53.5614 0.966816 53.8708 2.3977C59.3623 2.6684 66.014 3.40318 72.395 5.25946C80.4002 7.65716 85.9304 11.215 88.8695 15.8944C91.4992 20.071 92.7754 24.093 92.7754 28.1149V55.8045C92.582 55.9205 92.35 55.9978 92.118 56.1138C91.9246 56.1912 91.6926 56.3072 91.4605 56.3846C90.8031 56.6166 90.0296 56.8486 89.1789 57.0807V28.1149C89.1789 24.093 87.9027 20.1484 85.3116 16.0104C79.3174 6.45831 62.9202 4.21531 53.7161 3.71257C53.6388 3.82858 53.5615 3.9446 53.4841 4.06062C53.3294 4.25398 53.1747 4.44734 52.9427 4.60203C52.8653 4.67938 52.788 4.71805 52.7107 4.75672C52.7107 4.7954 52.672 4.7954 52.6333 4.83407C52.4013 4.98876 52.0919 5.10478 51.7825 5.22079C55.4564 7.73451 59.5557 14.3088 60.7159 17.4413C61.6827 19.9937 61.8374 23.7063 61.8374 28.8884V60.4065C57.1967 60.6772 52.8653 60.7932 49.5782 60.7932V5.64619C49.4235 5.64619 49.2688 5.64619 49.1141 5.64619C48.9594 5.64619 48.8047 5.64619 48.65 5.64619V60.7932C45.0148 60.7932 40.7222 60.6385 36.3909 60.4065V28.8884C36.3909 23.7063 36.5842 19.9937 37.5124 17.4413C38.7112 14.3088 42.8105 7.73451 46.4844 5.22079C46.175 5.10478 45.8656 4.98876 45.6336 4.83407C45.5949 4.7954 45.5562 4.7954 45.5176 4.75672C45.4402 4.71805 45.4015 4.67938 45.3242 4.60203C45.0922 4.44734 44.8988 4.25398 44.7441 4.06062C44.6668 3.9446 44.5894 3.82858 44.5508 3.71257C35.3467 4.21531 18.9495 6.45831 12.9553 16.0104C10.3642 20.1484 9.08805 24.093 9.08805 28.1149V57.042C8.19858 56.7713 7.42513 56.5392 6.80637 56.3072ZM45.8269 2.35902C45.7109 2.51372 45.6336 2.6684 45.6336 2.8231C45.6336 2.90044 45.6336 2.93912 45.6723 3.01646C45.7109 3.24849 45.9043 3.44186 46.175 3.63522C46.2137 3.63522 46.2137 3.63522 46.2137 3.63522C46.2523 3.67389 46.291 3.71257 46.3297 3.75124C46.4844 3.82858 46.6391 3.86725 46.7938 3.9446C47.2578 4.13796 47.7992 4.25398 48.418 4.29265C48.4953 4.29265 48.5727 4.33132 48.65 4.33132C48.8047 4.33132 48.9594 4.33132 49.1141 4.33132C49.2688 4.33132 49.4235 4.33132 49.5782 4.33132C49.6555 4.33132 49.7715 4.29265 49.8489 4.29265C50.4676 4.25398 51.0091 4.13796 51.4731 3.9446C51.6278 3.86725 51.7825 3.82858 51.8985 3.75124C51.9759 3.71257 52.0146 3.67389 52.0532 3.63522C52.3626 3.44186 52.5173 3.24849 52.5946 3.01646C52.5946 2.93912 52.6333 2.90044 52.6333 2.8231C52.6333 2.6684 52.556 2.51372 52.4399 2.35902C51.9759 1.74027 50.661 1.31487 49.1141 1.31487C47.5672 1.31487 46.291 1.74027 45.8269 2.35902ZM95.4051 60.0971C97.3001 63.0362 98.2669 65.8206 98.2669 68.373V70.616C98.2669 74.5606 92.8527 77.2677 81.7151 78.892C73.7098 80.0521 62.7655 80.6322 49.1141 80.6322C35.5014 80.6322 24.5184 80.0521 16.5518 78.892C5.41415 77.2677 0 74.5606 0 70.616V68.373C0 65.8206 0.928141 63.0362 2.82309 60.0971C3.82858 58.5889 4.79539 57.4287 5.29814 56.8873C5.37548 56.8873 5.41415 56.926 5.4915 56.9646C6.92238 57.6221 8.93335 58.2022 11.4084 58.7049C14.5022 59.3623 18.2921 59.9038 22.2754 60.3678C22.5074 60.3678 22.7008 60.4065 22.9328 60.4452C23.7063 60.5225 24.5184 60.5999 25.3305 60.6772C25.4465 60.6772 25.5239 60.6772 25.6012 60.7159C34.2639 61.528 43.4679 61.9147 49.3075 61.9147C55.7271 61.9147 66.246 61.4507 75.6048 60.4452H75.5275C75.6821 60.4065 75.8368 60.4065 75.9915 60.3678C76.4556 60.3291 76.9197 60.2905 77.3837 60.2131C77.4224 60.2131 77.4224 60.2131 77.4224 60.2131C79.356 59.9811 81.2123 59.7491 82.9912 59.4783C82.9912 59.4783 83.0299 59.4397 83.0686 59.4397C83.262 59.401 83.4553 59.401 83.6873 59.3623C87.5159 58.7049 90.7258 57.9315 92.7754 57.042C92.8527 57.0033 92.9301 56.9646 93.0074 56.926C93.5489 57.5061 94.477 58.6276 95.4051 60.0971ZM49.1141 79.356C78.0798 79.356 94.825 76.6103 96.7587 71.6215C94.477 73.8645 89.4882 75.5275 81.7151 76.649C73.7098 77.8091 62.7655 78.4279 49.1141 78.4279C35.5014 78.4279 24.5184 77.8091 16.5518 76.649C8.77866 75.5275 3.78991 73.8645 1.46956 71.6215C3.44186 76.6103 20.1871 79.356 49.1141 79.356Z" fill="black"/>
</svg>
