<svg width="59" height="59" viewBox="0 0 59 59" fill="none" xmlns="http://www.w3.org/2000/svg">
<path d="M8.61429 8.61432C20.0614 -2.87142 38.6633 -2.87142 50.1104 8.61432C61.5961 20.0614 61.5961 38.6634 50.1104 50.1104C38.6633 61.5961 20.0613 61.5961 8.61429 50.1104C-2.87143 38.6634 -2.87139 20.0614 8.61429 8.61432ZM26.6328 39.1876V44.6465H32.0918V39.1876H26.6328ZM28.2705 14.0782C23.426 14.0782 19.5373 18.0353 19.5371 22.8116V23.9034H23.9034V22.8116C23.9035 20.4235 25.8142 18.4444 28.2705 18.4444H30.4541C32.8422 18.4444 34.8212 20.4235 34.8213 22.8116V23.4942C34.8213 24.7905 34.2068 26.0865 33.1153 26.9053L27.9981 30.9317L27.1787 31.6143V35.9131H31.5459V33.7296L35.8448 30.3174C37.9599 28.6798 39.1875 26.1552 39.1875 23.4942V22.8116C39.1874 18.0353 35.2304 14.0782 30.4541 14.0782H28.2705Z" fill="black"/>
</svg>
