<svg width="51" height="60" viewBox="0 0 51 60" fill="none" xmlns="http://www.w3.org/2000/svg">
<path d="M50.1582 34.7285C50.1581 48.573 38.905 59.7878 25.0605 59.7881C11.2159 59.7881 0.00011743 48.5732 0 34.7285V0H50.1582V34.7285ZM21.7295 38.8398V45.541H28.4297V38.8398H21.7295ZM23.7393 8.0166C17.7924 8.01661 13.0178 12.8743 13.0176 18.7373V20.0781H18.3789V18.7373C18.3791 15.8059 20.724 13.377 23.7393 13.377H26.4199C29.3512 13.3771 31.78 15.806 31.7803 18.7373V19.5752C31.7803 21.1666 31.0267 22.7585 29.6865 23.7637L23.4043 28.7051L22.3994 29.543V34.8193H27.7598V32.1396L33.0371 27.9512C35.6334 25.9409 37.1406 22.8417 37.1406 19.5752V18.7373C37.1404 12.8744 32.2828 8.01678 26.4199 8.0166H23.7393Z" fill="black"/>
</svg>
