<svg width="81" height="80" viewBox="0 0 81 80" fill="none" xmlns="http://www.w3.org/2000/svg">
<path d="M80.222 31.7888C80.2993 31.9822 80.338 32.1755 80.2993 32.4076C80.2993 32.4462 80.2607 32.5236 80.2607 32.5623C80.1833 32.7556 80.0673 32.8716 79.9126 32.9877L67.8855 41.0702C67.7308 41.1862 67.5374 41.2249 67.344 41.2249C67.3054 41.2249 67.228 41.2249 67.1894 41.2249C67.1507 41.2249 67.112 41.1862 67.112 41.1862C66.88 41.1089 66.6866 40.9929 66.5706 40.7995L63.8635 36.7776V61.2573C63.8635 71.3895 55.6263 79.5881 45.4941 79.5881H34.8204C24.6882 79.5881 16.451 71.3895 16.451 61.2573V36.7776L13.7439 40.7995C13.6279 40.9929 13.4345 41.1089 13.2025 41.1862C13.2025 41.1862 13.1638 41.2249 13.1252 41.2249C13.0865 41.2249 13.0091 41.2249 12.9705 41.2249C12.8545 41.2249 12.7771 41.2249 12.6998 41.1862C12.6224 41.1476 12.5064 41.1089 12.4291 41.0702L0.401897 32.9877C0.247207 32.8716 0.131189 32.7556 0.0538439 32.5623C0.0538439 32.5236 0.0151714 32.4462 0.0151714 32.4076C-0.0235011 32.1755 0.0151714 31.9822 0.0925165 31.7888C0.131189 31.7501 0.131189 31.7115 0.169861 31.7115L8.36844 19.4523L16.6057 7.23176C16.6057 7.19309 16.6057 7.19309 16.6057 7.19309C16.6444 7.15442 16.683 7.11574 16.683 7.07708C16.683 7.07708 16.7217 7.07707 16.7217 7.0384C16.7217 7.0384 16.7217 7.0384 16.7604 7.0384C16.7604 6.99973 16.799 6.99973 16.799 6.96106C16.799 6.96106 16.799 6.96106 16.8377 6.96106C16.8377 6.92238 16.8764 6.92238 16.9151 6.88371C16.9151 6.88371 16.9151 6.88371 16.9537 6.88371L17.1858 6.76769L30.9532 0.077343C31.0692 -1.07288e-06 31.2239 0 31.3786 0C31.4173 0 31.4173 0 31.4559 0C31.572 0 31.688 0.0386733 31.7653 0.077343C32.4614 0.464068 33.1575 0.77345 33.8923 1.04416C34.163 1.1215 34.3951 1.23752 34.6658 1.31487C34.7431 1.35354 34.8591 1.35354 34.9365 1.39221C35.2072 1.46955 35.4392 1.5469 35.7099 1.62425C37.1408 1.9723 38.649 2.16566 40.1573 2.16566C41.0081 2.16566 41.8589 2.12699 42.671 2.01097C44.7206 1.70159 46.6929 1.04416 48.5492 0.077343C48.6652 0.0386733 48.8199 0 48.9359 0C49.0133 0 49.0519 0 49.0906 0C49.168 0 49.284 0.0386733 49.3613 0.077343L54.0794 2.35902L63.3608 6.88371C63.3994 6.88371 63.3994 6.88371 63.3994 6.92238C63.4381 6.92238 63.4768 6.92238 63.4768 6.96106C63.5155 6.96106 63.5155 6.96106 63.5155 6.99973C63.5541 6.99973 63.5541 7.0384 63.5928 7.0384C63.5928 7.07707 63.6315 7.07708 63.6315 7.07708C63.6315 7.11574 63.6702 7.11574 63.6702 7.15442C63.7088 7.15442 63.7088 7.15442 63.7088 7.19309L63.8635 7.42513L80.1833 31.7115C80.1833 31.7115 80.1833 31.7501 80.222 31.7888ZM16.451 27.0321V26.0266L9.29658 36.7002L9.76065 37.0096L16.451 27.0321ZM16.451 18.2921V17.2866L5.23596 33.9932L5.70003 34.3025L16.451 18.2921ZM22.6386 72.3563V6.18761L22.2519 6.38097V71.9309C22.3679 72.0856 22.4839 72.2403 22.6386 72.3563ZM27.7047 76.1462V3.71256L27.318 3.90593V75.9529C27.434 75.9915 27.55 76.0689 27.7047 76.1462ZM32.7708 77.6158V2.59106C32.6161 2.55239 32.5001 2.51371 32.3841 2.43637V77.5771C32.5001 77.5771 32.6161 77.6158 32.7708 77.6158ZM37.7982 77.7318V3.90593C37.6822 3.86725 37.5662 3.86725 37.4502 3.86725V77.7318H37.7982ZM42.8643 77.7318V3.86725C42.7483 3.86725 42.6323 3.86725 42.5163 3.90593V77.7318H42.8643ZM47.9304 77.5771V2.43637C47.8144 2.47504 47.6984 2.55239 47.5824 2.59106V77.6158C47.6984 77.6158 47.8144 77.5771 47.9304 77.5771ZM52.9965 75.9529V3.90593L52.6098 3.71256V76.1462C52.7645 76.0689 52.8805 75.9915 52.9965 75.9529ZM58.0626 71.9309V6.38097L57.6759 6.18761V72.3563C57.8306 72.2403 57.9466 72.0856 58.0626 71.9309ZM70.5925 37.0096L71.0566 36.7002L63.8635 26.0266V27.0321L70.5925 37.0096ZM74.6145 34.3025L75.0785 33.9932L63.8635 17.2866V18.2921L74.6145 34.3025Z" fill="black"/>
</svg>
