<svg width="9" height="12" viewBox="0 0 9 12" fill="none" xmlns="http://www.w3.org/2000/svg">
<path d="M6.375 0V6C6.375 7.24219 5.36719 8.25 4.125 8.25C2.88281 8.25 1.875 7.24219 1.875 6V0H6.375ZM1.125 5.0625V6C1.125 7.66406 2.46094 9 4.125 9C5.76562 9 7.125 7.66406 7.125 6V5.0625V4.5H8.25V5.0625V6C8.25 8.10938 6.67969 9.82031 4.6875 10.1016V10.875H5.8125H6.375V12H5.8125H4.125H2.4375H1.875V10.875H2.4375H3.5625V10.1016C1.54688 9.82031 0 8.10938 0 6V5.0625V4.5H1.125V5.0625Z" fill="white"/>
</svg>
