<svg width="35" height="35" viewBox="0 0 35 35" fill="none" xmlns="http://www.w3.org/2000/svg">
<path d="M18.459 18.4541C18.459 19.2383 17.8233 19.874 17.0391 19.874C16.2549 19.874 15.6191 19.2383 15.6191 18.4541L15.6191 5.67969C15.6191 4.89549 16.2549 4.25977 17.0391 4.25977C17.8233 4.25977 18.459 4.89549 18.459 5.67969L18.459 18.4541Z" fill="black"/>
<path d="M12.1271 29.9865C12.1269 30.7706 11.4913 31.4065 10.7071 31.4065C9.923 31.4065 9.28733 30.7706 9.28721 29.9865L9.28721 21.2941C9.28721 20.5099 9.92293 19.8742 10.7071 19.8742C11.4913 19.8742 12.1271 20.5099 12.1271 21.2941V29.9865Z" fill="black"/>
<path d="M24.7909 29.9865C24.7908 30.7706 24.1551 31.4065 23.371 31.4065C22.5869 31.4065 21.9512 30.7706 21.9511 29.9865V21.2941C21.9511 20.5099 22.5868 19.8742 23.371 19.8742C24.1552 19.8742 24.7909 20.5099 24.7909 21.2941V29.9865Z" fill="black"/>
<path d="M28.3984 7.09961C28.3984 6.31541 27.7627 5.67969 26.9785 5.67969H7.09961C6.31541 5.67969 5.67969 6.31541 5.67969 7.09961V17.0342C5.67969 17.8184 6.31541 18.4541 7.09961 18.4541H26.9785C27.7627 18.4541 28.3984 17.8184 28.3984 17.0342V7.09961ZM31.2383 17.0342C31.2383 19.3868 29.3311 21.2939 26.9785 21.2939H7.09961C4.74701 21.2939 2.83984 19.3868 2.83984 17.0342V7.09961C2.83984 4.74701 4.74701 2.83984 7.09961 2.83984H26.9785C29.3311 2.83984 31.2383 4.74701 31.2383 7.09961V17.0342Z" fill="black"/>
</svg>
