<svg width="34" height="34" viewBox="0 0 34 34" fill="none" xmlns="http://www.w3.org/2000/svg">
<path d="M33.8385 0V33.8385H0V0H33.8385ZM18.4299 8.91281V6.04258H15.1065V8.98834C14.6533 9.06387 14.2001 9.21494 13.7469 9.366C12.3873 9.97026 11.1788 11.0277 10.8766 12.6894C10.5745 14.4267 11.3298 16.0128 12.765 16.9192C13.8224 17.599 15.2575 18.0522 16.3905 18.3543C16.6171 18.4299 16.7682 18.4299 16.9192 18.5054C17.8256 18.732 18.8075 19.0341 19.5629 19.4873C20.4692 20.0916 20.0161 21.2246 19.1097 21.6022C18.4299 21.8288 17.3724 21.9799 16.0884 21.7533C15.4841 21.6778 14.4267 21.3001 13.5203 20.998C12.9916 20.8469 12.3873 20.6958 11.8586 20.5448C11.7075 20.4692 11.5564 20.3937 11.3298 20.3182L10.3479 23.4905C10.5745 23.4905 10.7256 23.5661 10.8766 23.6416C11.4054 23.7927 11.8586 23.9437 12.3873 24.0948C13.1426 24.3214 14.2756 24.6991 15.182 24.9257V27.7959H18.4299V25.0767C19.1097 25.0012 19.7139 24.8501 20.3182 24.548C21.7533 24.0193 22.8863 22.8863 23.1884 21.2246C23.5661 19.4873 22.8863 17.8256 21.3756 16.8437C20.2427 16.0128 18.732 15.6352 17.599 15.2575H17.5235C16.1639 14.8799 15.182 14.5777 14.5777 14.2001C13.6713 13.5958 14.2001 12.765 15.0309 12.3873C15.7107 12.0852 16.7682 11.9341 17.9767 12.1607C19.2607 12.3118 20.4692 12.6139 21.6778 12.916L22.5086 9.74366C21.149 9.44154 19.7895 9.06387 18.4299 8.91281Z" fill="white"/>
</svg>
