<svg width="13" height="12" viewBox="0 0 13 12" fill="none" xmlns="http://www.w3.org/2000/svg">
<path d="M8.34375 3.84375L11.2734 4.35938L12.6328 4.59375L11.6719 5.57812L9.60938 7.71094L10.0312 10.6641L10.2188 12L9 11.4141L6.32812 10.1016L3.63281 11.4141L2.41406 12L2.625 10.6641L3.04688 7.71094L0.960938 5.57812L0 4.59375L1.35938 4.35938L4.28906 3.84375L5.67188 1.21875L6.32812 0L6.96094 1.21875L8.34375 3.84375ZM10.3359 5.34375L8.15625 4.96875L7.61719 4.875L7.35938 4.38281L6.32812 2.41406L5.29688 4.38281L5.03906 4.875L4.47656 4.96875L2.29688 5.34375L3.84375 6.9375L4.24219 7.3125L4.14844 7.875L3.84375 10.0547L5.8125 9.09375L6.32812 8.83594L6.82031 9.09375L8.8125 10.0547L8.48438 7.875L8.41406 7.3125L8.78906 6.9375L10.3359 5.34375Z" fill="white"/>
</svg>
