<svg width="29" height="44" viewBox="0 0 29 44" fill="none" xmlns="http://www.w3.org/2000/svg">
<path d="M0 1.26782e-06L10.8766 7.92389e-07C10.8766 2.03937 12.5384 3.62555 14.5022 3.62555C16.5416 3.62555 18.1277 2.03937 18.1277 4.75433e-07L29.0044 0L29.0044 43.5066H18.1277C18.1277 41.5428 16.5416 39.881 14.5022 39.881C12.5384 39.881 10.8766 41.5428 10.8766 43.5066H1.90173e-06L0 1.26782e-06ZM7.2511 33.8385L7.2511 9.66813L21.7533 9.66813L21.7533 33.8385H7.2511ZM4.83407 36.2555H24.1703L24.1703 7.2511L4.83407 7.2511L4.83407 36.2555Z" fill="white"/>
</svg>
